%TF.GenerationSoftware,KiCad,Pcbnew,8.0.4*%
%TF.CreationDate,2025-05-03T00:51:25+05:30*%
%TF.ProjectId,TEST PNAL,54455354-2050-44e4-914c-2e6b69636164,rev?*%
%TF.SameCoordinates,Original*%
%TF.FileFunction,Drillmap*%
%TF.FilePolarity,Positive*%
%FSLAX45Y45*%
G04 Gerber Fmt 4.5, Leading zero omitted, Abs format (unit mm)*
G04 Created by KiCad (PCBNEW 8.0.4) date 2025-05-03 00:51:25*
%MOMM*%
%LPD*%
G01*
G04 APERTURE LIST*
%ADD10C,0.050000*%
%ADD11C,0.200000*%
%ADD12C,0.100000*%
%ADD13C,0.170000*%
G04 APERTURE END LIST*
D10*
X9271500Y-5587000D02*
G75*
G02*
X9398500Y-5460000I127000J0D01*
G01*
X14478500Y-8508000D02*
G75*
G02*
X14351500Y-8635000I-127000J0D01*
G01*
X14478500Y-8508000D02*
X14478500Y-5587000D01*
X9398500Y-8635000D02*
X14351500Y-8635000D01*
X9271500Y-5587000D02*
X9271500Y-8508000D01*
X9398500Y-5460000D02*
X14351500Y-5460000D01*
X9398500Y-8635000D02*
G75*
G02*
X9271500Y-8508000I0J127000D01*
G01*
X14351500Y-5460000D02*
G75*
G02*
X14478500Y-5587000I0J-127000D01*
G01*
X14466500Y-8827000D02*
X14466500Y-14796000D01*
X14339500Y-8700000D02*
G75*
G02*
X14466500Y-8827000I0J-127000D01*
G01*
X7354500Y-14796000D02*
X7354500Y-8827000D01*
X7481500Y-14923000D02*
G75*
G02*
X7354500Y-14796000I0J127000D01*
G01*
X14339500Y-14923000D02*
X7481500Y-14923000D01*
D11*
X7354500Y-8827000D02*
G75*
G02*
X7481500Y-8700000I127000J0D01*
G01*
D10*
X14466500Y-14796000D02*
G75*
G02*
X14339500Y-14923000I-127000J0D01*
G01*
X7481500Y-8700000D02*
X14339500Y-8700000D01*
X4015665Y-5590665D02*
G75*
G02*
X4142665Y-5463665I127000J0D01*
G01*
X4015665Y-5590665D02*
X4015665Y-8511665D01*
X4142665Y-8638665D02*
G75*
G02*
X4015665Y-8511665I0J127000D01*
G01*
X4142665Y-8638665D02*
X9095665Y-8638665D01*
X4142665Y-5463665D02*
X9095665Y-5463665D01*
X9095665Y-5463665D02*
G75*
G02*
X9222665Y-5590665I0J-127000D01*
G01*
X9222665Y-8511665D02*
X9222665Y-5590665D01*
X9222665Y-8511665D02*
G75*
G02*
X9095665Y-8638665I-127000J0D01*
G01*
D12*
X4057311Y-14783215D02*
X4053149Y-14771038D01*
X4161143Y-14910556D02*
X4150398Y-14903474D01*
X4049608Y-14758666D02*
X4046699Y-14746130D01*
X7208595Y-8808892D02*
X7210676Y-8814981D01*
X4051792Y-8802917D02*
X4054479Y-8797070D01*
X4106867Y-8741958D02*
X4112570Y-8738979D01*
X7115065Y-8728600D02*
X7121333Y-8730054D01*
X4087026Y-14840102D02*
X4079944Y-14829357D01*
X7095932Y-8726163D02*
X7102348Y-8726652D01*
X7127519Y-14943176D02*
X7121333Y-14944946D01*
X4090763Y-8752571D02*
X4095949Y-8748763D01*
X7156678Y-14929778D02*
X7151133Y-14933042D01*
X4073416Y-14818267D02*
X4067458Y-14806860D01*
X7206208Y-14872083D02*
X7203521Y-14877930D01*
X7212446Y-14853833D02*
X7210676Y-14860019D01*
X4130481Y-8731824D02*
X4136667Y-8730054D01*
X7215035Y-8833769D02*
X7215848Y-8840152D01*
X7133608Y-8733905D02*
X7139583Y-8736292D01*
X4044100Y-8827435D02*
X4045554Y-8821167D01*
X4053149Y-14771038D02*
X4049608Y-14758666D01*
X7216500Y-14822000D02*
X7216337Y-14828432D01*
X4072138Y-8770276D02*
X4076451Y-8765501D01*
X4124392Y-8733905D02*
X4130481Y-8731824D01*
X4081001Y-8760951D02*
X4085776Y-8756638D01*
X7212446Y-8821167D02*
X7213900Y-8827435D01*
X7210676Y-8814981D02*
X7212446Y-8821167D01*
X7121333Y-8730054D02*
X7127519Y-8731824D01*
X7206208Y-8802917D02*
X7208595Y-8808892D01*
X4130051Y-14887724D02*
X4120502Y-14879097D01*
X4244370Y-14943801D02*
X4231834Y-14940891D01*
X4282635Y-14948674D02*
X4269803Y-14947697D01*
X4068071Y-8775263D02*
X4072138Y-8770276D01*
X7185862Y-8770276D02*
X7189929Y-8775263D01*
X4207285Y-14933189D02*
X4195334Y-14928415D01*
X7089500Y-14949000D02*
X4295500Y-14949000D01*
X7200542Y-8791367D02*
X7203521Y-8797070D01*
X4112570Y-8738979D02*
X4118417Y-8736292D01*
X4067458Y-14806860D02*
X4062085Y-14795166D01*
X4231834Y-14940891D02*
X4219462Y-14937351D01*
X4079944Y-14829357D02*
X4073416Y-14818267D01*
X7139583Y-8736292D02*
X7145430Y-8738979D01*
X4102775Y-14860449D02*
X4094643Y-14850475D01*
X4111403Y-14869997D02*
X4102775Y-14860449D01*
X7108731Y-8727465D02*
X7115065Y-8728600D01*
X7089500Y-8726000D02*
X7095932Y-8726163D01*
X7181549Y-8765501D02*
X7185862Y-8770276D01*
X4149269Y-8727465D02*
X4155652Y-8726652D01*
X4101322Y-8745222D02*
X4106867Y-8741958D01*
X4042803Y-14720697D02*
X4041826Y-14707865D01*
X7145430Y-8738979D02*
X7151133Y-8741958D01*
X7197278Y-8785822D02*
X7200542Y-8791367D01*
X4219462Y-14937351D02*
X4207285Y-14933189D01*
X7115065Y-14946400D02*
X7108731Y-14947535D01*
X7145430Y-14936021D02*
X7139583Y-14938708D01*
X4269803Y-14947697D02*
X4257037Y-14946071D01*
X7151133Y-14933042D02*
X7145430Y-14936021D01*
X4257037Y-14946071D02*
X4244370Y-14943801D01*
X7215848Y-8840152D02*
X7216337Y-8846568D01*
X4041663Y-8846568D02*
X4042152Y-8840152D01*
X7193737Y-14894551D02*
X7189929Y-14899737D01*
X7213900Y-14847565D02*
X7212446Y-14853833D01*
X7176999Y-8760951D02*
X7181549Y-8765501D01*
X7172224Y-8756638D02*
X7176999Y-8760951D01*
X4172233Y-14917084D02*
X4161143Y-14910556D01*
X4142935Y-8728600D02*
X4149269Y-8727465D01*
X7102348Y-14948348D02*
X7095932Y-14948837D01*
X4041500Y-14695000D02*
X4041500Y-8853000D01*
X4168500Y-8726000D02*
X7089500Y-8726000D01*
X7102348Y-8726652D02*
X7108731Y-8727465D01*
X7176999Y-14914049D02*
X7172224Y-14918362D01*
X4150398Y-14903474D02*
X4140025Y-14895857D01*
X7189929Y-8775263D02*
X7193737Y-8780449D01*
X4057458Y-8791367D02*
X4060722Y-8785822D01*
X7133608Y-14941094D02*
X7127519Y-14943176D01*
X4118417Y-8736292D02*
X4124392Y-8733905D01*
X7215035Y-14841231D02*
X7213900Y-14847565D01*
X7210676Y-14860019D02*
X7208595Y-14866108D01*
X4041500Y-8853000D02*
X4041663Y-8846568D01*
X7208595Y-14866108D02*
X7206208Y-14872083D01*
X7139583Y-14938708D02*
X7133608Y-14941094D01*
X7172224Y-14918362D02*
X7167237Y-14922428D01*
X4295500Y-14949000D02*
X4282635Y-14948674D01*
X4183640Y-14923042D02*
X4172233Y-14917084D01*
X4085776Y-8756638D02*
X4090763Y-8752571D01*
X7215848Y-14834848D02*
X7215035Y-14841231D01*
X7213900Y-8827435D02*
X7215035Y-8833769D01*
X7193737Y-8780449D02*
X7197278Y-8785822D01*
X7203521Y-8797070D02*
X7206208Y-8802917D01*
X7162051Y-14926237D02*
X7156678Y-14929778D01*
X4041826Y-14707865D02*
X4041500Y-14695000D01*
X4044429Y-14733463D02*
X4042803Y-14720697D01*
X4094643Y-14850475D02*
X4087026Y-14840102D01*
X7216337Y-8846568D02*
X7216500Y-8853000D01*
X7216500Y-8853000D02*
X7216500Y-14822000D01*
X7167237Y-14922428D02*
X7162051Y-14926237D01*
X7197278Y-14889178D02*
X7193737Y-14894551D01*
X4076451Y-8765501D02*
X4081001Y-8760951D01*
X4155652Y-8726652D02*
X4162068Y-8726163D01*
X4045554Y-8821167D02*
X4047324Y-8814981D01*
X7203521Y-14877930D02*
X7200542Y-14883633D01*
X7185862Y-14904724D02*
X7181549Y-14909499D01*
X4095949Y-8748763D02*
X4101322Y-8745222D01*
X7108731Y-14947535D02*
X7102348Y-14948348D01*
X4042152Y-8840152D02*
X4042965Y-8833769D01*
X7216337Y-14828432D02*
X7215848Y-14834848D01*
X7200542Y-14883633D02*
X7197278Y-14889178D01*
X4046699Y-14746130D02*
X4044429Y-14733463D01*
X7189929Y-14899737D02*
X7185862Y-14904724D01*
X4140025Y-14895857D02*
X4130051Y-14887724D01*
X7121333Y-14944946D02*
X7115065Y-14946400D01*
X7167237Y-8752571D02*
X7172224Y-8756638D01*
X4195334Y-14928415D02*
X4183640Y-14923042D01*
X4064263Y-8780449D02*
X4068071Y-8775263D01*
X4042965Y-8833769D02*
X4044100Y-8827435D01*
X4162068Y-8726163D02*
X4168500Y-8726000D01*
X7151133Y-8741958D02*
X7156678Y-8745222D01*
X4062085Y-14795166D02*
X4057311Y-14783215D01*
X7127519Y-8731824D02*
X7133608Y-8733905D01*
X7095932Y-14948837D02*
X7089500Y-14949000D01*
X4054479Y-8797070D02*
X4057458Y-8791367D01*
X7181549Y-14909499D02*
X7176999Y-14914049D01*
X7156678Y-8745222D02*
X7162051Y-8748763D01*
X4136667Y-8730054D02*
X4142935Y-8728600D01*
X4047324Y-8814981D02*
X4049405Y-8808892D01*
X4060722Y-8785822D02*
X4064263Y-8780449D01*
X4120502Y-14879097D02*
X4111403Y-14869997D01*
X7162051Y-8748763D02*
X7167237Y-8752571D01*
X4049405Y-8808892D02*
X4051792Y-8802917D01*
D11*
D13*
X7729165Y-7929165D02*
X7899165Y-8099165D01*
X7899165Y-7929165D02*
X7729165Y-8099165D01*
X8429165Y-7929165D02*
X8599165Y-8099165D01*
X8599165Y-7929165D02*
X8429165Y-8099165D01*
X12985000Y-7925500D02*
X13155000Y-8095500D01*
X13155000Y-7925500D02*
X12985000Y-8095500D01*
X13685000Y-7925500D02*
X13855000Y-8095500D01*
X13855000Y-7925500D02*
X13685000Y-8095500D01*
D11*
X4273942Y-15265484D02*
X4273942Y-15065484D01*
X4273942Y-15065484D02*
X4321561Y-15065484D01*
X4321561Y-15065484D02*
X4350132Y-15075008D01*
X4350132Y-15075008D02*
X4369180Y-15094055D01*
X4369180Y-15094055D02*
X4378704Y-15113103D01*
X4378704Y-15113103D02*
X4388228Y-15151198D01*
X4388228Y-15151198D02*
X4388228Y-15179769D01*
X4388228Y-15179769D02*
X4378704Y-15217865D01*
X4378704Y-15217865D02*
X4369180Y-15236912D01*
X4369180Y-15236912D02*
X4350132Y-15255960D01*
X4350132Y-15255960D02*
X4321561Y-15265484D01*
X4321561Y-15265484D02*
X4273942Y-15265484D01*
X4473942Y-15265484D02*
X4473942Y-15132150D01*
X4473942Y-15170246D02*
X4483466Y-15151198D01*
X4483466Y-15151198D02*
X4492989Y-15141674D01*
X4492989Y-15141674D02*
X4512037Y-15132150D01*
X4512037Y-15132150D02*
X4531085Y-15132150D01*
X4597751Y-15265484D02*
X4597751Y-15132150D01*
X4597751Y-15065484D02*
X4588228Y-15075008D01*
X4588228Y-15075008D02*
X4597751Y-15084531D01*
X4597751Y-15084531D02*
X4607275Y-15075008D01*
X4607275Y-15075008D02*
X4597751Y-15065484D01*
X4597751Y-15065484D02*
X4597751Y-15084531D01*
X4721561Y-15265484D02*
X4702513Y-15255960D01*
X4702513Y-15255960D02*
X4692989Y-15236912D01*
X4692989Y-15236912D02*
X4692989Y-15065484D01*
X4826323Y-15265484D02*
X4807275Y-15255960D01*
X4807275Y-15255960D02*
X4797751Y-15236912D01*
X4797751Y-15236912D02*
X4797751Y-15065484D01*
X5054894Y-15265484D02*
X5054894Y-15065484D01*
X5054894Y-15065484D02*
X5121561Y-15208341D01*
X5121561Y-15208341D02*
X5188228Y-15065484D01*
X5188228Y-15065484D02*
X5188228Y-15265484D01*
X5369180Y-15265484D02*
X5369180Y-15160722D01*
X5369180Y-15160722D02*
X5359656Y-15141674D01*
X5359656Y-15141674D02*
X5340609Y-15132150D01*
X5340609Y-15132150D02*
X5302513Y-15132150D01*
X5302513Y-15132150D02*
X5283466Y-15141674D01*
X5369180Y-15255960D02*
X5350132Y-15265484D01*
X5350132Y-15265484D02*
X5302513Y-15265484D01*
X5302513Y-15265484D02*
X5283466Y-15255960D01*
X5283466Y-15255960D02*
X5273942Y-15236912D01*
X5273942Y-15236912D02*
X5273942Y-15217865D01*
X5273942Y-15217865D02*
X5283466Y-15198817D01*
X5283466Y-15198817D02*
X5302513Y-15189293D01*
X5302513Y-15189293D02*
X5350132Y-15189293D01*
X5350132Y-15189293D02*
X5369180Y-15179769D01*
X5464418Y-15132150D02*
X5464418Y-15332150D01*
X5464418Y-15141674D02*
X5483466Y-15132150D01*
X5483466Y-15132150D02*
X5521561Y-15132150D01*
X5521561Y-15132150D02*
X5540609Y-15141674D01*
X5540609Y-15141674D02*
X5550132Y-15151198D01*
X5550132Y-15151198D02*
X5559656Y-15170246D01*
X5559656Y-15170246D02*
X5559656Y-15227388D01*
X5559656Y-15227388D02*
X5550132Y-15246436D01*
X5550132Y-15246436D02*
X5540609Y-15255960D01*
X5540609Y-15255960D02*
X5521561Y-15265484D01*
X5521561Y-15265484D02*
X5483466Y-15265484D01*
X5483466Y-15265484D02*
X5464418Y-15255960D01*
X5645370Y-15246436D02*
X5654894Y-15255960D01*
X5654894Y-15255960D02*
X5645370Y-15265484D01*
X5645370Y-15265484D02*
X5635847Y-15255960D01*
X5635847Y-15255960D02*
X5645370Y-15246436D01*
X5645370Y-15246436D02*
X5645370Y-15265484D01*
X5645370Y-15141674D02*
X5654894Y-15151198D01*
X5654894Y-15151198D02*
X5645370Y-15160722D01*
X5645370Y-15160722D02*
X5635847Y-15151198D01*
X5635847Y-15151198D02*
X5645370Y-15141674D01*
X5645370Y-15141674D02*
X5645370Y-15160722D01*
D13*
X3843165Y-15509000D02*
X4013165Y-15679000D01*
X4013165Y-15509000D02*
X3843165Y-15679000D01*
D11*
X4378704Y-15685484D02*
X4264418Y-15685484D01*
X4321561Y-15685484D02*
X4321561Y-15485484D01*
X4321561Y-15485484D02*
X4302513Y-15514055D01*
X4302513Y-15514055D02*
X4283466Y-15533103D01*
X4283466Y-15533103D02*
X4264418Y-15542627D01*
X4464418Y-15666436D02*
X4473942Y-15675960D01*
X4473942Y-15675960D02*
X4464418Y-15685484D01*
X4464418Y-15685484D02*
X4454894Y-15675960D01*
X4454894Y-15675960D02*
X4464418Y-15666436D01*
X4464418Y-15666436D02*
X4464418Y-15685484D01*
X4540609Y-15485484D02*
X4673942Y-15485484D01*
X4673942Y-15485484D02*
X4588228Y-15685484D01*
X4788228Y-15485484D02*
X4807275Y-15485484D01*
X4807275Y-15485484D02*
X4826323Y-15495008D01*
X4826323Y-15495008D02*
X4835847Y-15504531D01*
X4835847Y-15504531D02*
X4845370Y-15523579D01*
X4845370Y-15523579D02*
X4854894Y-15561674D01*
X4854894Y-15561674D02*
X4854894Y-15609293D01*
X4854894Y-15609293D02*
X4845370Y-15647388D01*
X4845370Y-15647388D02*
X4835847Y-15666436D01*
X4835847Y-15666436D02*
X4826323Y-15675960D01*
X4826323Y-15675960D02*
X4807275Y-15685484D01*
X4807275Y-15685484D02*
X4788228Y-15685484D01*
X4788228Y-15685484D02*
X4769180Y-15675960D01*
X4769180Y-15675960D02*
X4759656Y-15666436D01*
X4759656Y-15666436D02*
X4750132Y-15647388D01*
X4750132Y-15647388D02*
X4740609Y-15609293D01*
X4740609Y-15609293D02*
X4740609Y-15561674D01*
X4740609Y-15561674D02*
X4750132Y-15523579D01*
X4750132Y-15523579D02*
X4759656Y-15504531D01*
X4759656Y-15504531D02*
X4769180Y-15495008D01*
X4769180Y-15495008D02*
X4788228Y-15485484D01*
X4978704Y-15485484D02*
X4997751Y-15485484D01*
X4997751Y-15485484D02*
X5016799Y-15495008D01*
X5016799Y-15495008D02*
X5026323Y-15504531D01*
X5026323Y-15504531D02*
X5035847Y-15523579D01*
X5035847Y-15523579D02*
X5045370Y-15561674D01*
X5045370Y-15561674D02*
X5045370Y-15609293D01*
X5045370Y-15609293D02*
X5035847Y-15647388D01*
X5035847Y-15647388D02*
X5026323Y-15666436D01*
X5026323Y-15666436D02*
X5016799Y-15675960D01*
X5016799Y-15675960D02*
X4997751Y-15685484D01*
X4997751Y-15685484D02*
X4978704Y-15685484D01*
X4978704Y-15685484D02*
X4959656Y-15675960D01*
X4959656Y-15675960D02*
X4950132Y-15666436D01*
X4950132Y-15666436D02*
X4940609Y-15647388D01*
X4940609Y-15647388D02*
X4931085Y-15609293D01*
X4931085Y-15609293D02*
X4931085Y-15561674D01*
X4931085Y-15561674D02*
X4940609Y-15523579D01*
X4940609Y-15523579D02*
X4950132Y-15504531D01*
X4950132Y-15504531D02*
X4959656Y-15495008D01*
X4959656Y-15495008D02*
X4978704Y-15485484D01*
X5131085Y-15685484D02*
X5131085Y-15552150D01*
X5131085Y-15571198D02*
X5140609Y-15561674D01*
X5140609Y-15561674D02*
X5159656Y-15552150D01*
X5159656Y-15552150D02*
X5188228Y-15552150D01*
X5188228Y-15552150D02*
X5207275Y-15561674D01*
X5207275Y-15561674D02*
X5216799Y-15580722D01*
X5216799Y-15580722D02*
X5216799Y-15685484D01*
X5216799Y-15580722D02*
X5226323Y-15561674D01*
X5226323Y-15561674D02*
X5245370Y-15552150D01*
X5245370Y-15552150D02*
X5273942Y-15552150D01*
X5273942Y-15552150D02*
X5292990Y-15561674D01*
X5292990Y-15561674D02*
X5302513Y-15580722D01*
X5302513Y-15580722D02*
X5302513Y-15685484D01*
X5397751Y-15685484D02*
X5397751Y-15552150D01*
X5397751Y-15571198D02*
X5407275Y-15561674D01*
X5407275Y-15561674D02*
X5426323Y-15552150D01*
X5426323Y-15552150D02*
X5454894Y-15552150D01*
X5454894Y-15552150D02*
X5473942Y-15561674D01*
X5473942Y-15561674D02*
X5483466Y-15580722D01*
X5483466Y-15580722D02*
X5483466Y-15685484D01*
X5483466Y-15580722D02*
X5492990Y-15561674D01*
X5492990Y-15561674D02*
X5512037Y-15552150D01*
X5512037Y-15552150D02*
X5540609Y-15552150D01*
X5540609Y-15552150D02*
X5559656Y-15561674D01*
X5559656Y-15561674D02*
X5569180Y-15580722D01*
X5569180Y-15580722D02*
X5569180Y-15685484D01*
X5959656Y-15475960D02*
X5788228Y-15733103D01*
X6216799Y-15485484D02*
X6235847Y-15485484D01*
X6235847Y-15485484D02*
X6254894Y-15495008D01*
X6254894Y-15495008D02*
X6264418Y-15504531D01*
X6264418Y-15504531D02*
X6273942Y-15523579D01*
X6273942Y-15523579D02*
X6283466Y-15561674D01*
X6283466Y-15561674D02*
X6283466Y-15609293D01*
X6283466Y-15609293D02*
X6273942Y-15647388D01*
X6273942Y-15647388D02*
X6264418Y-15666436D01*
X6264418Y-15666436D02*
X6254894Y-15675960D01*
X6254894Y-15675960D02*
X6235847Y-15685484D01*
X6235847Y-15685484D02*
X6216799Y-15685484D01*
X6216799Y-15685484D02*
X6197751Y-15675960D01*
X6197751Y-15675960D02*
X6188228Y-15666436D01*
X6188228Y-15666436D02*
X6178704Y-15647388D01*
X6178704Y-15647388D02*
X6169180Y-15609293D01*
X6169180Y-15609293D02*
X6169180Y-15561674D01*
X6169180Y-15561674D02*
X6178704Y-15523579D01*
X6178704Y-15523579D02*
X6188228Y-15504531D01*
X6188228Y-15504531D02*
X6197751Y-15495008D01*
X6197751Y-15495008D02*
X6216799Y-15485484D01*
X6369180Y-15666436D02*
X6378704Y-15675960D01*
X6378704Y-15675960D02*
X6369180Y-15685484D01*
X6369180Y-15685484D02*
X6359656Y-15675960D01*
X6359656Y-15675960D02*
X6369180Y-15666436D01*
X6369180Y-15666436D02*
X6369180Y-15685484D01*
X6502513Y-15485484D02*
X6521561Y-15485484D01*
X6521561Y-15485484D02*
X6540609Y-15495008D01*
X6540609Y-15495008D02*
X6550132Y-15504531D01*
X6550132Y-15504531D02*
X6559656Y-15523579D01*
X6559656Y-15523579D02*
X6569180Y-15561674D01*
X6569180Y-15561674D02*
X6569180Y-15609293D01*
X6569180Y-15609293D02*
X6559656Y-15647388D01*
X6559656Y-15647388D02*
X6550132Y-15666436D01*
X6550132Y-15666436D02*
X6540609Y-15675960D01*
X6540609Y-15675960D02*
X6521561Y-15685484D01*
X6521561Y-15685484D02*
X6502513Y-15685484D01*
X6502513Y-15685484D02*
X6483466Y-15675960D01*
X6483466Y-15675960D02*
X6473942Y-15666436D01*
X6473942Y-15666436D02*
X6464418Y-15647388D01*
X6464418Y-15647388D02*
X6454894Y-15609293D01*
X6454894Y-15609293D02*
X6454894Y-15561674D01*
X6454894Y-15561674D02*
X6464418Y-15523579D01*
X6464418Y-15523579D02*
X6473942Y-15504531D01*
X6473942Y-15504531D02*
X6483466Y-15495008D01*
X6483466Y-15495008D02*
X6502513Y-15485484D01*
X6740609Y-15485484D02*
X6702513Y-15485484D01*
X6702513Y-15485484D02*
X6683466Y-15495008D01*
X6683466Y-15495008D02*
X6673942Y-15504531D01*
X6673942Y-15504531D02*
X6654894Y-15533103D01*
X6654894Y-15533103D02*
X6645371Y-15571198D01*
X6645371Y-15571198D02*
X6645371Y-15647388D01*
X6645371Y-15647388D02*
X6654894Y-15666436D01*
X6654894Y-15666436D02*
X6664418Y-15675960D01*
X6664418Y-15675960D02*
X6683466Y-15685484D01*
X6683466Y-15685484D02*
X6721561Y-15685484D01*
X6721561Y-15685484D02*
X6740609Y-15675960D01*
X6740609Y-15675960D02*
X6750132Y-15666436D01*
X6750132Y-15666436D02*
X6759656Y-15647388D01*
X6759656Y-15647388D02*
X6759656Y-15599769D01*
X6759656Y-15599769D02*
X6750132Y-15580722D01*
X6750132Y-15580722D02*
X6740609Y-15571198D01*
X6740609Y-15571198D02*
X6721561Y-15561674D01*
X6721561Y-15561674D02*
X6683466Y-15561674D01*
X6683466Y-15561674D02*
X6664418Y-15571198D01*
X6664418Y-15571198D02*
X6654894Y-15580722D01*
X6654894Y-15580722D02*
X6645371Y-15599769D01*
X6931085Y-15485484D02*
X6892990Y-15485484D01*
X6892990Y-15485484D02*
X6873942Y-15495008D01*
X6873942Y-15495008D02*
X6864418Y-15504531D01*
X6864418Y-15504531D02*
X6845371Y-15533103D01*
X6845371Y-15533103D02*
X6835847Y-15571198D01*
X6835847Y-15571198D02*
X6835847Y-15647388D01*
X6835847Y-15647388D02*
X6845371Y-15666436D01*
X6845371Y-15666436D02*
X6854894Y-15675960D01*
X6854894Y-15675960D02*
X6873942Y-15685484D01*
X6873942Y-15685484D02*
X6912037Y-15685484D01*
X6912037Y-15685484D02*
X6931085Y-15675960D01*
X6931085Y-15675960D02*
X6940609Y-15666436D01*
X6940609Y-15666436D02*
X6950132Y-15647388D01*
X6950132Y-15647388D02*
X6950132Y-15599769D01*
X6950132Y-15599769D02*
X6940609Y-15580722D01*
X6940609Y-15580722D02*
X6931085Y-15571198D01*
X6931085Y-15571198D02*
X6912037Y-15561674D01*
X6912037Y-15561674D02*
X6873942Y-15561674D01*
X6873942Y-15561674D02*
X6854894Y-15571198D01*
X6854894Y-15571198D02*
X6845371Y-15580722D01*
X6845371Y-15580722D02*
X6835847Y-15599769D01*
X7045371Y-15685484D02*
X7083466Y-15685484D01*
X7083466Y-15685484D02*
X7102513Y-15675960D01*
X7102513Y-15675960D02*
X7112037Y-15666436D01*
X7112037Y-15666436D02*
X7131085Y-15637865D01*
X7131085Y-15637865D02*
X7140609Y-15599769D01*
X7140609Y-15599769D02*
X7140609Y-15523579D01*
X7140609Y-15523579D02*
X7131085Y-15504531D01*
X7131085Y-15504531D02*
X7121561Y-15495008D01*
X7121561Y-15495008D02*
X7102513Y-15485484D01*
X7102513Y-15485484D02*
X7064418Y-15485484D01*
X7064418Y-15485484D02*
X7045371Y-15495008D01*
X7045371Y-15495008D02*
X7035847Y-15504531D01*
X7035847Y-15504531D02*
X7026323Y-15523579D01*
X7026323Y-15523579D02*
X7026323Y-15571198D01*
X7026323Y-15571198D02*
X7035847Y-15590246D01*
X7035847Y-15590246D02*
X7045371Y-15599769D01*
X7045371Y-15599769D02*
X7064418Y-15609293D01*
X7064418Y-15609293D02*
X7102513Y-15609293D01*
X7102513Y-15609293D02*
X7121561Y-15599769D01*
X7121561Y-15599769D02*
X7131085Y-15590246D01*
X7131085Y-15590246D02*
X7140609Y-15571198D01*
X7216799Y-15485484D02*
X7216799Y-15523579D01*
X7292990Y-15485484D02*
X7292990Y-15523579D01*
X7588228Y-15761674D02*
X7578704Y-15752150D01*
X7578704Y-15752150D02*
X7559656Y-15723579D01*
X7559656Y-15723579D02*
X7550133Y-15704531D01*
X7550133Y-15704531D02*
X7540609Y-15675960D01*
X7540609Y-15675960D02*
X7531085Y-15628341D01*
X7531085Y-15628341D02*
X7531085Y-15590246D01*
X7531085Y-15590246D02*
X7540609Y-15542627D01*
X7540609Y-15542627D02*
X7550133Y-15514055D01*
X7550133Y-15514055D02*
X7559656Y-15495008D01*
X7559656Y-15495008D02*
X7578704Y-15466436D01*
X7578704Y-15466436D02*
X7588228Y-15456912D01*
X7750133Y-15552150D02*
X7750133Y-15685484D01*
X7702513Y-15475960D02*
X7654894Y-15618817D01*
X7654894Y-15618817D02*
X7778704Y-15618817D01*
X8007275Y-15685484D02*
X8007275Y-15485484D01*
X8092990Y-15685484D02*
X8092990Y-15580722D01*
X8092990Y-15580722D02*
X8083466Y-15561674D01*
X8083466Y-15561674D02*
X8064418Y-15552150D01*
X8064418Y-15552150D02*
X8035847Y-15552150D01*
X8035847Y-15552150D02*
X8016799Y-15561674D01*
X8016799Y-15561674D02*
X8007275Y-15571198D01*
X8216799Y-15685484D02*
X8197752Y-15675960D01*
X8197752Y-15675960D02*
X8188228Y-15666436D01*
X8188228Y-15666436D02*
X8178704Y-15647388D01*
X8178704Y-15647388D02*
X8178704Y-15590246D01*
X8178704Y-15590246D02*
X8188228Y-15571198D01*
X8188228Y-15571198D02*
X8197752Y-15561674D01*
X8197752Y-15561674D02*
X8216799Y-15552150D01*
X8216799Y-15552150D02*
X8245371Y-15552150D01*
X8245371Y-15552150D02*
X8264418Y-15561674D01*
X8264418Y-15561674D02*
X8273942Y-15571198D01*
X8273942Y-15571198D02*
X8283466Y-15590246D01*
X8283466Y-15590246D02*
X8283466Y-15647388D01*
X8283466Y-15647388D02*
X8273942Y-15666436D01*
X8273942Y-15666436D02*
X8264418Y-15675960D01*
X8264418Y-15675960D02*
X8245371Y-15685484D01*
X8245371Y-15685484D02*
X8216799Y-15685484D01*
X8397752Y-15685484D02*
X8378704Y-15675960D01*
X8378704Y-15675960D02*
X8369180Y-15656912D01*
X8369180Y-15656912D02*
X8369180Y-15485484D01*
X8550133Y-15675960D02*
X8531085Y-15685484D01*
X8531085Y-15685484D02*
X8492990Y-15685484D01*
X8492990Y-15685484D02*
X8473942Y-15675960D01*
X8473942Y-15675960D02*
X8464418Y-15656912D01*
X8464418Y-15656912D02*
X8464418Y-15580722D01*
X8464418Y-15580722D02*
X8473942Y-15561674D01*
X8473942Y-15561674D02*
X8492990Y-15552150D01*
X8492990Y-15552150D02*
X8531085Y-15552150D01*
X8531085Y-15552150D02*
X8550133Y-15561674D01*
X8550133Y-15561674D02*
X8559657Y-15580722D01*
X8559657Y-15580722D02*
X8559657Y-15599769D01*
X8559657Y-15599769D02*
X8464418Y-15618817D01*
X8635847Y-15675960D02*
X8654895Y-15685484D01*
X8654895Y-15685484D02*
X8692990Y-15685484D01*
X8692990Y-15685484D02*
X8712038Y-15675960D01*
X8712038Y-15675960D02*
X8721561Y-15656912D01*
X8721561Y-15656912D02*
X8721561Y-15647388D01*
X8721561Y-15647388D02*
X8712038Y-15628341D01*
X8712038Y-15628341D02*
X8692990Y-15618817D01*
X8692990Y-15618817D02*
X8664418Y-15618817D01*
X8664418Y-15618817D02*
X8645371Y-15609293D01*
X8645371Y-15609293D02*
X8635847Y-15590246D01*
X8635847Y-15590246D02*
X8635847Y-15580722D01*
X8635847Y-15580722D02*
X8645371Y-15561674D01*
X8645371Y-15561674D02*
X8664418Y-15552150D01*
X8664418Y-15552150D02*
X8692990Y-15552150D01*
X8692990Y-15552150D02*
X8712038Y-15561674D01*
X8788228Y-15761674D02*
X8797752Y-15752150D01*
X8797752Y-15752150D02*
X8816799Y-15723579D01*
X8816799Y-15723579D02*
X8826323Y-15704531D01*
X8826323Y-15704531D02*
X8835847Y-15675960D01*
X8835847Y-15675960D02*
X8845371Y-15628341D01*
X8845371Y-15628341D02*
X8845371Y-15590246D01*
X8845371Y-15590246D02*
X8835847Y-15542627D01*
X8835847Y-15542627D02*
X8826323Y-15514055D01*
X8826323Y-15514055D02*
X8816799Y-15495008D01*
X8816799Y-15495008D02*
X8797752Y-15466436D01*
X8797752Y-15466436D02*
X8788228Y-15456912D01*
X9150133Y-15761674D02*
X9140609Y-15752150D01*
X9140609Y-15752150D02*
X9121561Y-15723579D01*
X9121561Y-15723579D02*
X9112038Y-15704531D01*
X9112038Y-15704531D02*
X9102514Y-15675960D01*
X9102514Y-15675960D02*
X9092990Y-15628341D01*
X9092990Y-15628341D02*
X9092990Y-15590246D01*
X9092990Y-15590246D02*
X9102514Y-15542627D01*
X9102514Y-15542627D02*
X9112038Y-15514055D01*
X9112038Y-15514055D02*
X9121561Y-15495008D01*
X9121561Y-15495008D02*
X9140609Y-15466436D01*
X9140609Y-15466436D02*
X9150133Y-15456912D01*
X9226323Y-15552150D02*
X9226323Y-15685484D01*
X9226323Y-15571198D02*
X9235847Y-15561674D01*
X9235847Y-15561674D02*
X9254895Y-15552150D01*
X9254895Y-15552150D02*
X9283466Y-15552150D01*
X9283466Y-15552150D02*
X9302514Y-15561674D01*
X9302514Y-15561674D02*
X9312038Y-15580722D01*
X9312038Y-15580722D02*
X9312038Y-15685484D01*
X9435847Y-15685484D02*
X9416799Y-15675960D01*
X9416799Y-15675960D02*
X9407276Y-15666436D01*
X9407276Y-15666436D02*
X9397752Y-15647388D01*
X9397752Y-15647388D02*
X9397752Y-15590246D01*
X9397752Y-15590246D02*
X9407276Y-15571198D01*
X9407276Y-15571198D02*
X9416799Y-15561674D01*
X9416799Y-15561674D02*
X9435847Y-15552150D01*
X9435847Y-15552150D02*
X9464419Y-15552150D01*
X9464419Y-15552150D02*
X9483466Y-15561674D01*
X9483466Y-15561674D02*
X9492990Y-15571198D01*
X9492990Y-15571198D02*
X9502514Y-15590246D01*
X9502514Y-15590246D02*
X9502514Y-15647388D01*
X9502514Y-15647388D02*
X9492990Y-15666436D01*
X9492990Y-15666436D02*
X9483466Y-15675960D01*
X9483466Y-15675960D02*
X9464419Y-15685484D01*
X9464419Y-15685484D02*
X9435847Y-15685484D01*
X9559657Y-15552150D02*
X9635847Y-15552150D01*
X9588228Y-15485484D02*
X9588228Y-15656912D01*
X9588228Y-15656912D02*
X9597752Y-15675960D01*
X9597752Y-15675960D02*
X9616799Y-15685484D01*
X9616799Y-15685484D02*
X9635847Y-15685484D01*
X9854895Y-15552150D02*
X9854895Y-15752150D01*
X9854895Y-15561674D02*
X9873942Y-15552150D01*
X9873942Y-15552150D02*
X9912038Y-15552150D01*
X9912038Y-15552150D02*
X9931085Y-15561674D01*
X9931085Y-15561674D02*
X9940609Y-15571198D01*
X9940609Y-15571198D02*
X9950133Y-15590246D01*
X9950133Y-15590246D02*
X9950133Y-15647388D01*
X9950133Y-15647388D02*
X9940609Y-15666436D01*
X9940609Y-15666436D02*
X9931085Y-15675960D01*
X9931085Y-15675960D02*
X9912038Y-15685484D01*
X9912038Y-15685484D02*
X9873942Y-15685484D01*
X9873942Y-15685484D02*
X9854895Y-15675960D01*
X10064419Y-15685484D02*
X10045371Y-15675960D01*
X10045371Y-15675960D02*
X10035847Y-15656912D01*
X10035847Y-15656912D02*
X10035847Y-15485484D01*
X10226323Y-15685484D02*
X10226323Y-15580722D01*
X10226323Y-15580722D02*
X10216800Y-15561674D01*
X10216800Y-15561674D02*
X10197752Y-15552150D01*
X10197752Y-15552150D02*
X10159657Y-15552150D01*
X10159657Y-15552150D02*
X10140609Y-15561674D01*
X10226323Y-15675960D02*
X10207276Y-15685484D01*
X10207276Y-15685484D02*
X10159657Y-15685484D01*
X10159657Y-15685484D02*
X10140609Y-15675960D01*
X10140609Y-15675960D02*
X10131085Y-15656912D01*
X10131085Y-15656912D02*
X10131085Y-15637865D01*
X10131085Y-15637865D02*
X10140609Y-15618817D01*
X10140609Y-15618817D02*
X10159657Y-15609293D01*
X10159657Y-15609293D02*
X10207276Y-15609293D01*
X10207276Y-15609293D02*
X10226323Y-15599769D01*
X10292990Y-15552150D02*
X10369180Y-15552150D01*
X10321561Y-15485484D02*
X10321561Y-15656912D01*
X10321561Y-15656912D02*
X10331085Y-15675960D01*
X10331085Y-15675960D02*
X10350133Y-15685484D01*
X10350133Y-15685484D02*
X10369180Y-15685484D01*
X10512038Y-15675960D02*
X10492990Y-15685484D01*
X10492990Y-15685484D02*
X10454895Y-15685484D01*
X10454895Y-15685484D02*
X10435847Y-15675960D01*
X10435847Y-15675960D02*
X10426323Y-15656912D01*
X10426323Y-15656912D02*
X10426323Y-15580722D01*
X10426323Y-15580722D02*
X10435847Y-15561674D01*
X10435847Y-15561674D02*
X10454895Y-15552150D01*
X10454895Y-15552150D02*
X10492990Y-15552150D01*
X10492990Y-15552150D02*
X10512038Y-15561674D01*
X10512038Y-15561674D02*
X10521561Y-15580722D01*
X10521561Y-15580722D02*
X10521561Y-15599769D01*
X10521561Y-15599769D02*
X10426323Y-15618817D01*
X10692990Y-15685484D02*
X10692990Y-15485484D01*
X10692990Y-15675960D02*
X10673942Y-15685484D01*
X10673942Y-15685484D02*
X10635847Y-15685484D01*
X10635847Y-15685484D02*
X10616800Y-15675960D01*
X10616800Y-15675960D02*
X10607276Y-15666436D01*
X10607276Y-15666436D02*
X10597752Y-15647388D01*
X10597752Y-15647388D02*
X10597752Y-15590246D01*
X10597752Y-15590246D02*
X10607276Y-15571198D01*
X10607276Y-15571198D02*
X10616800Y-15561674D01*
X10616800Y-15561674D02*
X10635847Y-15552150D01*
X10635847Y-15552150D02*
X10673942Y-15552150D01*
X10673942Y-15552150D02*
X10692990Y-15561674D01*
X10769181Y-15761674D02*
X10778704Y-15752150D01*
X10778704Y-15752150D02*
X10797752Y-15723579D01*
X10797752Y-15723579D02*
X10807276Y-15704531D01*
X10807276Y-15704531D02*
X10816800Y-15675960D01*
X10816800Y-15675960D02*
X10826323Y-15628341D01*
X10826323Y-15628341D02*
X10826323Y-15590246D01*
X10826323Y-15590246D02*
X10816800Y-15542627D01*
X10816800Y-15542627D02*
X10807276Y-15514055D01*
X10807276Y-15514055D02*
X10797752Y-15495008D01*
X10797752Y-15495008D02*
X10778704Y-15466436D01*
X10778704Y-15466436D02*
X10769181Y-15456912D01*
M02*
