M48
; DRILL file {KiCad 8.0.4} date 2025-05-03T00:51:24+0530
; FORMAT={-:-/ absolute / inch / decimal}
; #@! TF.CreationDate,2025-05-03T00:51:24+05:30
; #@! TF.GenerationSoftware,Kicad,Pcbnew,8.0.4
; #@! TF.FileFunction,Plated,1,2,PTH
FMAT,2
INCH
; #@! TA.AperFunction,Plated,PTH,ViaDrill
T1C0.0118
; #@! TA.AperFunction,Plated,PTH,ComponentDrill
T2C0.0197
; #@! TA.AperFunction,Plated,PTH,ComponentDrill
T3C0.0295
; #@! TA.AperFunction,Plated,PTH,ComponentDrill
T4C0.0315
; #@! TA.AperFunction,Plated,PTH,ComponentDrill
T5C0.0374
; #@! TA.AperFunction,Plated,PTH,ComponentDrill
T6C0.0394
; #@! TA.AperFunction,Plated,PTH,ComponentDrill
T7C0.0433
; #@! TA.AperFunction,Plated,PTH,ComponentDrill
T8C0.0472
; #@! TA.AperFunction,Plated,PTH,ComponentDrill
T9C0.0591
; #@! TA.AperFunction,Plated,PTH,ComponentDrill
T10C0.0669
; #@! TA.AperFunction,Plated,PTH,ComponentDrill
T11C0.0787
; #@! TA.AperFunction,Plated,PTH,ComponentDrill
T12C0.0866
%
G90
G05
T1
X1.9577Y-4.7825
X2.0179Y-5.027
X2.0607Y-5.4517
X2.1629Y-4.8671
X2.2193Y-5.151
X2.2202Y-4.9675
X2.2292Y-5.1019
X2.2615Y-4.5901
X2.3225Y-2.6266
X2.3527Y-4.5947
X2.3707Y-5.1076
X2.3983Y-2.4557
X2.4154Y-4.9864
X2.422Y-2.6866
X2.4389Y-2.9074
X2.4403Y-4.3147
X2.4427Y-4.5354
X2.5576Y-2.5637
X2.5708Y-2.7351
X2.5724Y-2.5153
X2.5911Y-2.483
X2.6233Y-2.5678
X2.6988Y-2.9658
X2.7569Y-2.584
X2.758Y-2.5205
X2.7588Y-2.6376
X2.9095Y-2.9258
X3.2003Y-2.3538
X3.2348Y-2.3301
X3.288Y-4.4031
X3.301Y-5.0033
X3.4196Y-5.5559
X3.421Y-4.4192
X3.4313Y-4.6447
X3.5826Y-2.6617
X3.5898Y-4.6874
X3.7812Y-3.7963
X3.8015Y-4.8023
X3.8037Y-4.4301
X3.8377Y-4.8452
X3.8538Y-5.5603
X3.8582Y-3.863
X3.8705Y-5.2576
X3.886Y-5.1184
X3.9206Y-5.6984
X3.9573Y-4.5788
X4.1078Y-4.558
X4.1124Y-4.8593
X4.1988Y-5.2626
X4.1988Y-5.3397
X4.202Y-3.863
X4.2369Y-4.6029
X4.3368Y-5.4136
X4.3539Y-4.5682
X4.3917Y-2.6252
X4.3985Y-5.0079
X4.4473Y-5.5157
X4.4675Y-2.4543
X4.4823Y-4.6825
X4.4912Y-2.6852
X4.5017Y-4.2689
X4.5082Y-2.9059
X4.6189Y-4.6216
X4.6268Y-2.5622
X4.64Y-2.7337
X4.6417Y-2.5138
X4.6537Y-4.3792
X4.66Y-5.3996
X4.6603Y-2.4815
X4.6925Y-2.5663
X4.768Y-2.9644
X4.812Y-4.6457
X4.8261Y-2.5826
X4.8272Y-2.5191
X4.828Y-2.6362
X4.8459Y-4.6768
X4.9039Y-5.0114
X4.9389Y-5.1184
X4.9787Y-2.9243
X5.0559Y-5.0376
X5.1556Y-5.3837
X5.1677Y-3.9713
X5.1917Y-4.4002
X5.2695Y-2.3523
X5.304Y-2.3286
X5.4131Y-4.4269
X5.4187Y-5.0013
X5.6518Y-2.6602
T2
X1.7472Y-4.941
X1.822Y-4.941
X2.2698Y-2.6483
X2.2698Y-2.7231
X4.339Y-2.6469
X4.339Y-2.7217
T3
X2.1389Y-5.5209
X2.5389Y-5.5209
X3.3052Y-2.4692
X3.3052Y-2.8692
X5.2955Y-4.2252
X5.2955Y-4.6252
X5.3744Y-2.4677
X5.3744Y-2.8677
T4
X1.7412Y-2.6818
X1.7629Y-4.3457
X1.7669Y-4.1174
X1.7911Y-3.9354
X1.8199Y-2.6818
X1.8987Y-2.6818
X2.0129Y-2.601
X2.0129Y-3.001
X2.1354Y-3.7331
X2.1629Y-4.3457
X2.1669Y-4.1174
X2.1708Y-4.6433
X2.1911Y-3.9354
X2.2141Y-3.7331
X2.2495Y-4.6433
X2.2929Y-3.7331
X2.3283Y-4.6433
X2.8101Y-2.6365
X2.8101Y-2.7152
X2.8101Y-2.794
X2.9872Y-5.1701
X2.9872Y-5.5701
X3.8104Y-2.6803
X3.8892Y-2.6803
X3.9679Y-2.6803
X4.0821Y-2.5996
X4.0821Y-2.9996
X4.6407Y-5.2982
X4.7195Y-5.2982
X4.7982Y-5.2982
X4.877Y-5.2982
X4.8793Y-2.635
X4.8793Y-2.7138
X4.8793Y-2.7925
X4.9557Y-5.2982
X5.0344Y-5.2982
X5.1132Y-5.2982
X5.3455Y-4.7752
X5.3455Y-4.8539
X5.3455Y-4.9327
X5.3455Y-5.0114
X5.3455Y-5.0902
X5.3455Y-5.1689
X5.3455Y-5.2476
T5
X5.5301Y-4.972
X5.5301Y-5.0705
X5.5301Y-5.1689
X5.5301Y-5.2673
X5.5301Y-5.3657
X5.5301Y-5.4642
X5.5301Y-5.5626
T6
X2.1019Y-5.7004
X2.131Y-2.251
X2.2019Y-5.7004
X2.231Y-2.251
X2.3019Y-5.7004
X2.331Y-2.251
X2.4019Y-5.7004
X2.431Y-2.251
X2.5019Y-5.7004
X2.531Y-2.251
X2.631Y-2.251
X2.731Y-2.251
X2.7381Y-4.1946
X2.7381Y-4.2946
X2.7381Y-4.3946
X2.7381Y-4.4946
X2.7381Y-4.5946
X2.7381Y-4.6946
X2.7381Y-4.7946
X2.7381Y-5.0369
X2.7381Y-5.1369
X2.7381Y-5.2369
X2.7381Y-5.3369
X2.7381Y-5.4369
X2.7381Y-5.5369
X2.7381Y-5.6369
X2.881Y-2.251
X2.981Y-2.251
X3.081Y-2.251
X3.181Y-2.251
X3.1986Y-3.5543
X3.1986Y-4.1252
X3.2313Y-4.9154
X3.2313Y-5.6154
X3.281Y-2.251
X3.297Y-4.1252
X3.3313Y-4.9154
X3.3313Y-5.6154
X3.381Y-2.251
X3.3955Y-3.5543
X3.3955Y-4.1252
X3.4313Y-4.9154
X3.4313Y-5.6154
X3.481Y-2.251
X3.4853Y-2.4652
X3.4853Y-2.5652
X3.4853Y-2.6652
X3.4853Y-2.7652
X3.4853Y-2.8652
X3.4917Y-5.1487
X3.5313Y-4.9154
X3.5313Y-5.6154
X3.5699Y-5.7437
X3.5841Y-5.4874
X3.5917Y-5.1487
X3.6313Y-4.9154
X3.6313Y-5.6154
X3.6699Y-5.7437
X3.6841Y-5.4874
X3.6917Y-5.1487
X3.7313Y-4.9154
X3.7313Y-5.6154
X3.7699Y-5.7437
X3.7841Y-5.4874
X3.7917Y-5.1487
X3.8313Y-4.9154
X3.8313Y-5.6154
X3.8699Y-5.7437
X3.8841Y-5.4874
X3.9313Y-4.9154
X3.9313Y-5.6154
X3.9699Y-5.7437
X3.9841Y-5.4874
X4.0313Y-4.9154
X4.0313Y-5.6154
X4.0699Y-5.7437
X4.0841Y-5.4874
X4.1313Y-4.9154
X4.1313Y-5.6154
X4.1699Y-5.7437
X4.1841Y-5.4874
X4.2002Y-2.2496
X4.2313Y-4.9154
X4.2313Y-5.6154
X4.3002Y-2.2496
X4.3313Y-4.9154
X4.3313Y-5.6154
X4.4002Y-2.2496
X4.4313Y-4.9154
X4.4313Y-5.6154
X4.4923Y-5.4535
X4.5002Y-2.2496
X4.5262Y-5.7358
X4.5313Y-4.9154
X4.5313Y-5.6154
X4.5431Y-5.1483
X4.5923Y-5.4535
X4.6002Y-2.2496
X4.6262Y-5.7358
X4.6313Y-4.9154
X4.6313Y-5.6154
X4.6431Y-5.1483
X4.6923Y-5.4535
X4.7002Y-2.2496
X4.7262Y-5.7358
X4.7313Y-4.917
X4.7313Y-5.6154
X4.7431Y-5.1483
X4.7923Y-5.4535
X4.8002Y-2.2496
X4.8262Y-5.7358
X4.8313Y-4.9154
X4.8313Y-5.6154
X4.8431Y-5.1483
X4.8923Y-5.4535
X4.9262Y-5.7358
X4.9313Y-4.9154
X4.9313Y-5.6154
X4.9502Y-2.2496
X4.9923Y-5.4535
X5.0262Y-5.7358
X5.0313Y-4.9154
X5.0313Y-5.6154
X5.0502Y-2.2496
X5.0923Y-5.4535
X5.1262Y-5.7358
X5.1313Y-4.9154
X5.1313Y-5.6154
X5.1502Y-2.2496
X5.2502Y-2.2496
X5.3502Y-2.2496
X5.4502Y-2.2496
X5.5502Y-2.2496
X5.5545Y-2.4638
X5.5545Y-2.5638
X5.5545Y-2.6638
X5.5545Y-2.7638
X5.5545Y-2.8638
T7
X3.6955Y-3.7972
X3.6955Y-4.0531
X3.8726Y-3.7972
X3.8726Y-4.0531
X4.0321Y-3.7972
X4.0321Y-4.0531
X4.2093Y-3.7972
X4.2093Y-4.0531
X4.3687Y-3.7972
X4.3687Y-4.0531
X4.5459Y-3.7972
X4.5459Y-4.0531
X4.7053Y-3.7972
X4.7053Y-4.0531
X4.8825Y-3.7972
X4.8825Y-4.0531
X5.0419Y-3.7972
X5.0419Y-4.0531
X5.2191Y-3.7972
X5.2191Y-4.0531
X5.4955Y-4.3012
X5.4955Y-4.4012
X5.4955Y-4.5012
T8
X1.796Y-3.6544
X2.6377Y-3.6532
X5.5035Y-4.0252
X5.5035Y-4.1252
T9
X1.7908Y-3.0259
X1.7944Y-2.353
X3.86Y-3.0244
X3.8636Y-2.3516
T10
X1.6908Y-2.9259
X1.6908Y-3.1259
X1.6944Y-2.253
X1.6944Y-2.453
X1.696Y-3.5544
X1.696Y-3.7544
X1.8908Y-2.9259
X1.8908Y-3.1259
X1.8944Y-2.253
X1.8944Y-2.453
X1.896Y-3.5544
X1.896Y-3.7544
X2.5377Y-3.5532
X2.5377Y-3.7532
X2.7377Y-3.5532
X2.7377Y-3.7532
X3.76Y-2.9244
X3.76Y-3.1244
X3.7636Y-2.2516
X3.7636Y-2.4516
X3.96Y-2.9244
X3.96Y-3.1244
X3.9636Y-2.2516
X3.9636Y-2.4516
T11
X3.2087Y-4.2628
X3.2087Y-5.129
X4.0748Y-4.2628
X4.0748Y-5.129
X4.26Y-4.2625
X4.26Y-5.1286
X5.1262Y-4.2625
X5.1262Y-5.1286
T12
X1.7411Y-5.7854
X2.7411Y-3.9354
T11
G00X3.0766Y-3.8516
M15
G01X3.0766Y-3.8083
M16
G05
G00X3.5175Y-3.8516
M15
G01X3.5175Y-3.8083
M16
G05
M30
