%TF.GenerationSoftware,KiCad,Pcbnew,8.0.4*%
%TF.CreationDate,2025-05-03T00:51:18+05:30*%
%TF.ProjectId,TEST PNAL,54455354-2050-44e4-914c-2e6b69636164,rev?*%
%TF.SameCoordinates,Original*%
%TF.FileFunction,Paste,Bot*%
%TF.FilePolarity,Positive*%
%FSLAX46Y46*%
G04 Gerber Fmt 4.6, Leading zero omitted, Abs format (unit mm)*
G04 Created by KiCad (PCBNEW 8.0.4) date 2025-05-03 00:51:18*
%MOMM*%
%LPD*%
G01*
G04 APERTURE LIST*
G04 Aperture macros list*
%AMRoundRect*
0 Rectangle with rounded corners*
0 $1 Rounding radius*
0 $2 $3 $4 $5 $6 $7 $8 $9 X,Y pos of 4 corners*
0 Add a 4 corners polygon primitive as box body*
4,1,4,$2,$3,$4,$5,$6,$7,$8,$9,$2,$3,0*
0 Add four circle primitives for the rounded corners*
1,1,$1+$1,$2,$3*
1,1,$1+$1,$4,$5*
1,1,$1+$1,$6,$7*
1,1,$1+$1,$8,$9*
0 Add four rect primitives between the rounded corners*
20,1,$1+$1,$2,$3,$4,$5,0*
20,1,$1+$1,$4,$5,$6,$7,0*
20,1,$1+$1,$6,$7,$8,$9,0*
20,1,$1+$1,$8,$9,$2,$3,0*%
G04 Aperture macros list end*
%ADD10R,2.200000X2.800000*%
%ADD11R,2.800000X2.800000*%
%ADD12RoundRect,0.150000X0.150000X-0.825000X0.150000X0.825000X-0.150000X0.825000X-0.150000X-0.825000X0*%
%ADD13RoundRect,0.250000X-0.550000X1.500000X-0.550000X-1.500000X0.550000X-1.500000X0.550000X1.500000X0*%
%ADD14RoundRect,0.218750X0.218750X0.381250X-0.218750X0.381250X-0.218750X-0.381250X0.218750X-0.381250X0*%
%ADD15RoundRect,0.218750X0.381250X-0.218750X0.381250X0.218750X-0.381250X0.218750X-0.381250X-0.218750X0*%
%ADD16RoundRect,0.250000X0.350000X0.450000X-0.350000X0.450000X-0.350000X-0.450000X0.350000X-0.450000X0*%
%ADD17RoundRect,0.218750X-0.218750X-0.381250X0.218750X-0.381250X0.218750X0.381250X-0.218750X0.381250X0*%
%ADD18RoundRect,0.375000X-0.375000X0.625000X-0.375000X-0.625000X0.375000X-0.625000X0.375000X0.625000X0*%
%ADD19RoundRect,0.500000X-1.400000X0.500000X-1.400000X-0.500000X1.400000X-0.500000X1.400000X0.500000X0*%
%ADD20RoundRect,0.250000X-0.450000X0.350000X-0.450000X-0.350000X0.450000X-0.350000X0.450000X0.350000X0*%
%ADD21RoundRect,0.250000X1.500000X0.550000X-1.500000X0.550000X-1.500000X-0.550000X1.500000X-0.550000X0*%
%ADD22RoundRect,0.250000X-1.050000X-0.550000X1.050000X-0.550000X1.050000X0.550000X-1.050000X0.550000X0*%
%ADD23RoundRect,0.218750X-0.381250X0.218750X-0.381250X-0.218750X0.381250X-0.218750X0.381250X0.218750X0*%
%ADD24RoundRect,0.250000X-0.350000X-0.450000X0.350000X-0.450000X0.350000X0.450000X-0.350000X0.450000X0*%
%ADD25R,0.400000X1.200000*%
G04 APERTURE END LIST*
D10*
%TO.C,J8*%
X136800000Y-76405000D03*
X138800000Y-83805000D03*
D11*
X129400000Y-83805000D03*
%TD*%
D12*
%TO.C,U2*%
X121430000Y-71655000D03*
X120160000Y-71655000D03*
X118890000Y-71655000D03*
X117620000Y-71655000D03*
X116350000Y-71655000D03*
X115080000Y-71655000D03*
X113810000Y-71655000D03*
X112540000Y-71655000D03*
X112540000Y-66705000D03*
X113810000Y-66705000D03*
X115080000Y-66705000D03*
X116350000Y-66705000D03*
X117620000Y-66705000D03*
X118890000Y-66705000D03*
X120160000Y-66705000D03*
X121430000Y-66705000D03*
%TD*%
D13*
%TO.C,C6*%
X98515000Y-111190000D03*
X98515000Y-116790000D03*
%TD*%
D14*
%TO.C,C3*%
X119057500Y-118750000D03*
X116932500Y-118750000D03*
%TD*%
D15*
%TO.C,C1*%
X125455000Y-109892500D03*
X125455000Y-107767500D03*
%TD*%
D16*
%TO.C,R5*%
X123105000Y-120620000D03*
X121105000Y-120620000D03*
%TD*%
D17*
%TO.C,C7*%
X119904300Y-114711400D03*
X122029300Y-114711400D03*
%TD*%
D16*
%TO.C,R2*%
X113485000Y-120580000D03*
X111485000Y-120580000D03*
%TD*%
D18*
%TO.C,U1*%
X125425000Y-111990000D03*
X127725000Y-111990000D03*
D19*
X127725000Y-118290000D03*
D18*
X130025000Y-111990000D03*
%TD*%
D20*
%TO.C,R10*%
X80835000Y-115660000D03*
X80835000Y-117660000D03*
%TD*%
D21*
%TO.C,C2*%
X115441600Y-114635200D03*
X109841600Y-114635200D03*
%TD*%
D16*
%TO.C,R8*%
X85975000Y-120710000D03*
X83975000Y-120710000D03*
%TD*%
D22*
%TO.C,C8*%
X118205000Y-109860000D03*
X121805000Y-109860000D03*
%TD*%
D21*
%TO.C,C4*%
X91768800Y-114990800D03*
X86168800Y-114990800D03*
%TD*%
D23*
%TO.C,C5*%
X104355200Y-114711400D03*
X104355200Y-116836400D03*
%TD*%
D20*
%TO.C,R3*%
X107735000Y-118280000D03*
X107735000Y-120280000D03*
%TD*%
D16*
%TO.C,R9*%
X103595000Y-120960000D03*
X101595000Y-120960000D03*
%TD*%
D24*
%TO.C,R1*%
X128975000Y-120960000D03*
X130975000Y-120960000D03*
%TD*%
D16*
%TO.C,R4*%
X95465000Y-120660000D03*
X93465000Y-120660000D03*
%TD*%
D10*
%TO.C,J8*%
X84241650Y-76441650D03*
X86241650Y-83841650D03*
D11*
X76841650Y-83841650D03*
%TD*%
D12*
%TO.C,U2*%
X68871650Y-71691650D03*
X67601650Y-71691650D03*
X66331650Y-71691650D03*
X65061650Y-71691650D03*
X63791650Y-71691650D03*
X62521650Y-71691650D03*
X61251650Y-71691650D03*
X59981650Y-71691650D03*
X59981650Y-66741650D03*
X61251650Y-66741650D03*
X62521650Y-66741650D03*
X63791650Y-66741650D03*
X65061650Y-66741650D03*
X66331650Y-66741650D03*
X67601650Y-66741650D03*
X68871650Y-66741650D03*
%TD*%
D25*
%TO.C,U2*%
X53698500Y-122520700D03*
X54333500Y-122520700D03*
X54968500Y-122520700D03*
X55603500Y-122520700D03*
X56238500Y-122520700D03*
X56873500Y-122520700D03*
X57508500Y-122520700D03*
X58143500Y-122520700D03*
X58778500Y-122520700D03*
X59413500Y-122520700D03*
X60048500Y-122520700D03*
X60683500Y-122520700D03*
X60683500Y-127720700D03*
X60048500Y-127720700D03*
X59413500Y-127720700D03*
X58778500Y-127720700D03*
X58143500Y-127720700D03*
X57508500Y-127720700D03*
X56873500Y-127720700D03*
X56238500Y-127720700D03*
X55603500Y-127720700D03*
X54968500Y-127720700D03*
X54333500Y-127720700D03*
X53698500Y-127720700D03*
%TD*%
M02*
