%TF.GenerationSoftware,KiCad,Pcbnew,8.0.4*%
%TF.CreationDate,2025-05-03T00:51:18+05:30*%
%TF.ProjectId,TEST PNAL,54455354-2050-44e4-914c-2e6b69636164,rev?*%
%TF.SameCoordinates,Original*%
%TF.FileFunction,Paste,Top*%
%TF.FilePolarity,Positive*%
%FSLAX46Y46*%
G04 Gerber Fmt 4.6, Leading zero omitted, Abs format (unit mm)*
G04 Created by KiCad (PCBNEW 8.0.4) date 2025-05-03 00:51:18*
%MOMM*%
%LPD*%
G01*
G04 APERTURE LIST*
G04 Aperture macros list*
%AMRoundRect*
0 Rectangle with rounded corners*
0 $1 Rounding radius*
0 $2 $3 $4 $5 $6 $7 $8 $9 X,Y pos of 4 corners*
0 Add a 4 corners polygon primitive as box body*
4,1,4,$2,$3,$4,$5,$6,$7,$8,$9,$2,$3,0*
0 Add four circle primitives for the rounded corners*
1,1,$1+$1,$2,$3*
1,1,$1+$1,$4,$5*
1,1,$1+$1,$6,$7*
1,1,$1+$1,$8,$9*
0 Add four rect primitives between the rounded corners*
20,1,$1+$1,$2,$3,$4,$5,0*
20,1,$1+$1,$4,$5,$6,$7,0*
20,1,$1+$1,$6,$7,$8,$9,0*
20,1,$1+$1,$8,$9,$2,$3,0*%
G04 Aperture macros list end*
%ADD10RoundRect,0.250000X0.475000X-0.337500X0.475000X0.337500X-0.475000X0.337500X-0.475000X-0.337500X0*%
%ADD11RoundRect,0.250000X0.550000X-1.500000X0.550000X1.500000X-0.550000X1.500000X-0.550000X-1.500000X0*%
%ADD12RoundRect,0.250000X-0.550000X1.500000X-0.550000X-1.500000X0.550000X-1.500000X0.550000X1.500000X0*%
%ADD13RoundRect,0.250000X0.337500X0.475000X-0.337500X0.475000X-0.337500X-0.475000X0.337500X-0.475000X0*%
%ADD14RoundRect,0.250000X0.450000X-0.350000X0.450000X0.350000X-0.450000X0.350000X-0.450000X-0.350000X0*%
%ADD15RoundRect,0.250000X-0.337500X-0.475000X0.337500X-0.475000X0.337500X0.475000X-0.337500X0.475000X0*%
%ADD16RoundRect,0.250000X-0.475000X0.337500X-0.475000X-0.337500X0.475000X-0.337500X0.475000X0.337500X0*%
%ADD17R,0.850800X1.761200*%
%ADD18R,3.150799X1.761200*%
%ADD19RoundRect,0.250000X-0.350000X-0.450000X0.350000X-0.450000X0.350000X0.450000X-0.350000X0.450000X0*%
%ADD20RoundRect,0.250000X-0.450000X0.350000X-0.450000X-0.350000X0.450000X-0.350000X0.450000X0.350000X0*%
%ADD21RoundRect,0.250000X1.500000X0.550000X-1.500000X0.550000X-1.500000X-0.550000X1.500000X-0.550000X0*%
%ADD22R,1.761200X0.850800*%
%ADD23R,1.761200X3.150799*%
%ADD24RoundRect,0.250000X0.350000X0.450000X-0.350000X0.450000X-0.350000X-0.450000X0.350000X-0.450000X0*%
G04 APERTURE END LIST*
D10*
%TO.C,C6*%
X114735000Y-63980000D03*
X114735000Y-61905000D03*
%TD*%
D11*
%TO.C,C2*%
X133935000Y-81380000D03*
X133935000Y-75780000D03*
%TD*%
D12*
%TO.C,C4*%
X112510000Y-75155000D03*
X112510000Y-80755000D03*
%TD*%
D13*
%TO.C,C7*%
X103285000Y-71380000D03*
X101210000Y-71380000D03*
%TD*%
D14*
%TO.C,R6*%
X111960000Y-63905000D03*
X111960000Y-61905000D03*
%TD*%
D13*
%TO.C,C8*%
X107885000Y-66905000D03*
X105810000Y-66905000D03*
%TD*%
D15*
%TO.C,C10*%
X98835000Y-65180000D03*
X100910000Y-65180000D03*
%TD*%
D16*
%TO.C,C3*%
X123485000Y-77355000D03*
X123485000Y-79430000D03*
%TD*%
D14*
%TO.C,R4*%
X105985000Y-63955000D03*
X105985000Y-61955000D03*
%TD*%
D10*
%TO.C,C1*%
X127310000Y-77730000D03*
X127310000Y-75655000D03*
%TD*%
D14*
%TO.C,R3*%
X109335000Y-63930000D03*
X109335000Y-61930000D03*
%TD*%
D13*
%TO.C,C9*%
X107960000Y-71555000D03*
X105885000Y-71555000D03*
%TD*%
D14*
%TO.C,R2*%
X125285000Y-63930000D03*
X125285000Y-61930000D03*
%TD*%
D17*
%TO.C,U1*%
X127385000Y-72730000D03*
X129685000Y-72730000D03*
X131985000Y-72730000D03*
D18*
X129685000Y-66680000D03*
%TD*%
D19*
%TO.C,R5*%
X117960000Y-75205000D03*
X119960000Y-75205000D03*
%TD*%
D16*
%TO.C,C5*%
X119535000Y-61980000D03*
X119535000Y-64055000D03*
%TD*%
D14*
%TO.C,R1*%
X128685000Y-63930000D03*
X128685000Y-61930000D03*
%TD*%
D20*
%TO.C,R6*%
X112525000Y-133620000D03*
X112525000Y-135620000D03*
%TD*%
%TO.C,R12*%
X107865000Y-133670000D03*
X107865000Y-135670000D03*
%TD*%
D14*
%TO.C,R7*%
X99855000Y-135990000D03*
X99855000Y-133990000D03*
%TD*%
D20*
%TO.C,R11*%
X103175000Y-133970000D03*
X103175000Y-135970000D03*
%TD*%
D10*
%TO.C,C6*%
X62176650Y-64016650D03*
X62176650Y-61941650D03*
%TD*%
D11*
%TO.C,C2*%
X81376650Y-81416650D03*
X81376650Y-75816650D03*
%TD*%
D12*
%TO.C,C4*%
X59951650Y-75191650D03*
X59951650Y-80791650D03*
%TD*%
D14*
%TO.C,R6*%
X59401650Y-63941650D03*
X59401650Y-61941650D03*
%TD*%
%TO.C,R4*%
X53426650Y-63991650D03*
X53426650Y-61991650D03*
%TD*%
D13*
%TO.C,C8*%
X55326650Y-66941650D03*
X53251650Y-66941650D03*
%TD*%
%TO.C,C7*%
X50726650Y-71416650D03*
X48651650Y-71416650D03*
%TD*%
D15*
%TO.C,C10*%
X46276650Y-65216650D03*
X48351650Y-65216650D03*
%TD*%
D16*
%TO.C,C3*%
X70926650Y-77391650D03*
X70926650Y-79466650D03*
%TD*%
D10*
%TO.C,C1*%
X74751650Y-77766650D03*
X74751650Y-75691650D03*
%TD*%
D19*
%TO.C,R5*%
X65401650Y-75241650D03*
X67401650Y-75241650D03*
%TD*%
D14*
%TO.C,R3*%
X56776650Y-63966650D03*
X56776650Y-61966650D03*
%TD*%
D13*
%TO.C,C9*%
X55401650Y-71591650D03*
X53326650Y-71591650D03*
%TD*%
D14*
%TO.C,R2*%
X72726650Y-63966650D03*
X72726650Y-61966650D03*
%TD*%
D16*
%TO.C,C5*%
X66976650Y-62016650D03*
X66976650Y-64091650D03*
%TD*%
D14*
%TO.C,R1*%
X76126650Y-63966650D03*
X76126650Y-61966650D03*
%TD*%
D17*
%TO.C,U1*%
X74826650Y-72766650D03*
X77126650Y-72766650D03*
X79426650Y-72766650D03*
D18*
X77126650Y-66716650D03*
%TD*%
D10*
%TO.C,C7*%
X49828500Y-120360700D03*
X49828500Y-118285700D03*
%TD*%
D19*
%TO.C,R2*%
X64418500Y-129780700D03*
X66418500Y-129780700D03*
%TD*%
D13*
%TO.C,C9*%
X60358500Y-113840700D03*
X58283500Y-113840700D03*
%TD*%
%TO.C,C6*%
X66356000Y-118260700D03*
X64281000Y-118260700D03*
%TD*%
D11*
%TO.C,C4*%
X62718500Y-105290700D03*
X62718500Y-99690700D03*
%TD*%
D10*
%TO.C,C3*%
X49678500Y-134655700D03*
X49678500Y-132580700D03*
%TD*%
%TO.C,C8*%
X58258500Y-109408200D03*
X58258500Y-107333200D03*
%TD*%
D19*
%TO.C,R3*%
X64288500Y-111980700D03*
X66288500Y-111980700D03*
%TD*%
D16*
%TO.C,C11*%
X49828500Y-126865700D03*
X49828500Y-128940700D03*
%TD*%
D19*
%TO.C,R4*%
X64268500Y-109520700D03*
X66268500Y-109520700D03*
%TD*%
D21*
%TO.C,C2*%
X50848500Y-140240700D03*
X45248500Y-140240700D03*
%TD*%
D13*
%TO.C,C5*%
X66248500Y-121870700D03*
X64173500Y-121870700D03*
%TD*%
D22*
%TO.C,U1*%
X53523500Y-132490700D03*
X53523500Y-134790700D03*
X53523500Y-137090700D03*
D23*
X59573500Y-134790700D03*
%TD*%
D20*
%TO.C,R5*%
X49868500Y-122600700D03*
X49868500Y-124600700D03*
%TD*%
D19*
%TO.C,R1*%
X64578500Y-134690700D03*
X66578500Y-134690700D03*
%TD*%
D10*
%TO.C,C1*%
X49778500Y-114950700D03*
X49778500Y-112875700D03*
%TD*%
D24*
%TO.C,R7*%
X66358500Y-114590700D03*
X64358500Y-114590700D03*
%TD*%
D15*
%TO.C,C10*%
X44613500Y-130510700D03*
X46688500Y-130510700D03*
%TD*%
M02*
