%TF.GenerationSoftware,KiCad,Pcbnew,8.0.4*%
%TF.CreationDate,2025-05-03T00:51:18+05:30*%
%TF.ProjectId,TEST PNAL,54455354-2050-44e4-914c-2e6b69636164,rev?*%
%TF.SameCoordinates,Original*%
%TF.FileFunction,Legend,Top*%
%TF.FilePolarity,Positive*%
%FSLAX46Y46*%
G04 Gerber Fmt 4.6, Leading zero omitted, Abs format (unit mm)*
G04 Created by KiCad (PCBNEW 8.0.4) date 2025-05-03 00:51:18*
%MOMM*%
%LPD*%
G01*
G04 APERTURE LIST*
%ADD10C,0.150000*%
%ADD11C,0.120000*%
%ADD12C,0.152400*%
%ADD13C,0.127000*%
%ADD14C,0.200000*%
G04 APERTURE END LIST*
D10*
X126076666Y-65559819D02*
X126076666Y-66274104D01*
X126076666Y-66274104D02*
X126029047Y-66416961D01*
X126029047Y-66416961D02*
X125933809Y-66512200D01*
X125933809Y-66512200D02*
X125790952Y-66559819D01*
X125790952Y-66559819D02*
X125695714Y-66559819D01*
X126981428Y-65559819D02*
X126790952Y-65559819D01*
X126790952Y-65559819D02*
X126695714Y-65607438D01*
X126695714Y-65607438D02*
X126648095Y-65655057D01*
X126648095Y-65655057D02*
X126552857Y-65797914D01*
X126552857Y-65797914D02*
X126505238Y-65988390D01*
X126505238Y-65988390D02*
X126505238Y-66369342D01*
X126505238Y-66369342D02*
X126552857Y-66464580D01*
X126552857Y-66464580D02*
X126600476Y-66512200D01*
X126600476Y-66512200D02*
X126695714Y-66559819D01*
X126695714Y-66559819D02*
X126886190Y-66559819D01*
X126886190Y-66559819D02*
X126981428Y-66512200D01*
X126981428Y-66512200D02*
X127029047Y-66464580D01*
X127029047Y-66464580D02*
X127076666Y-66369342D01*
X127076666Y-66369342D02*
X127076666Y-66131247D01*
X127076666Y-66131247D02*
X127029047Y-66036009D01*
X127029047Y-66036009D02*
X126981428Y-65988390D01*
X126981428Y-65988390D02*
X126886190Y-65940771D01*
X126886190Y-65940771D02*
X126695714Y-65940771D01*
X126695714Y-65940771D02*
X126600476Y-65988390D01*
X126600476Y-65988390D02*
X126552857Y-66036009D01*
X126552857Y-66036009D02*
X126505238Y-66131247D01*
X114593333Y-60389580D02*
X114545714Y-60437200D01*
X114545714Y-60437200D02*
X114402857Y-60484819D01*
X114402857Y-60484819D02*
X114307619Y-60484819D01*
X114307619Y-60484819D02*
X114164762Y-60437200D01*
X114164762Y-60437200D02*
X114069524Y-60341961D01*
X114069524Y-60341961D02*
X114021905Y-60246723D01*
X114021905Y-60246723D02*
X113974286Y-60056247D01*
X113974286Y-60056247D02*
X113974286Y-59913390D01*
X113974286Y-59913390D02*
X114021905Y-59722914D01*
X114021905Y-59722914D02*
X114069524Y-59627676D01*
X114069524Y-59627676D02*
X114164762Y-59532438D01*
X114164762Y-59532438D02*
X114307619Y-59484819D01*
X114307619Y-59484819D02*
X114402857Y-59484819D01*
X114402857Y-59484819D02*
X114545714Y-59532438D01*
X114545714Y-59532438D02*
X114593333Y-59580057D01*
X115450476Y-59484819D02*
X115260000Y-59484819D01*
X115260000Y-59484819D02*
X115164762Y-59532438D01*
X115164762Y-59532438D02*
X115117143Y-59580057D01*
X115117143Y-59580057D02*
X115021905Y-59722914D01*
X115021905Y-59722914D02*
X114974286Y-59913390D01*
X114974286Y-59913390D02*
X114974286Y-60294342D01*
X114974286Y-60294342D02*
X115021905Y-60389580D01*
X115021905Y-60389580D02*
X115069524Y-60437200D01*
X115069524Y-60437200D02*
X115164762Y-60484819D01*
X115164762Y-60484819D02*
X115355238Y-60484819D01*
X115355238Y-60484819D02*
X115450476Y-60437200D01*
X115450476Y-60437200D02*
X115498095Y-60389580D01*
X115498095Y-60389580D02*
X115545714Y-60294342D01*
X115545714Y-60294342D02*
X115545714Y-60056247D01*
X115545714Y-60056247D02*
X115498095Y-59961009D01*
X115498095Y-59961009D02*
X115450476Y-59913390D01*
X115450476Y-59913390D02*
X115355238Y-59865771D01*
X115355238Y-59865771D02*
X115164762Y-59865771D01*
X115164762Y-59865771D02*
X115069524Y-59913390D01*
X115069524Y-59913390D02*
X115021905Y-59961009D01*
X115021905Y-59961009D02*
X114974286Y-60056247D01*
X131918333Y-78939580D02*
X131870714Y-78987200D01*
X131870714Y-78987200D02*
X131727857Y-79034819D01*
X131727857Y-79034819D02*
X131632619Y-79034819D01*
X131632619Y-79034819D02*
X131489762Y-78987200D01*
X131489762Y-78987200D02*
X131394524Y-78891961D01*
X131394524Y-78891961D02*
X131346905Y-78796723D01*
X131346905Y-78796723D02*
X131299286Y-78606247D01*
X131299286Y-78606247D02*
X131299286Y-78463390D01*
X131299286Y-78463390D02*
X131346905Y-78272914D01*
X131346905Y-78272914D02*
X131394524Y-78177676D01*
X131394524Y-78177676D02*
X131489762Y-78082438D01*
X131489762Y-78082438D02*
X131632619Y-78034819D01*
X131632619Y-78034819D02*
X131727857Y-78034819D01*
X131727857Y-78034819D02*
X131870714Y-78082438D01*
X131870714Y-78082438D02*
X131918333Y-78130057D01*
X132299286Y-78130057D02*
X132346905Y-78082438D01*
X132346905Y-78082438D02*
X132442143Y-78034819D01*
X132442143Y-78034819D02*
X132680238Y-78034819D01*
X132680238Y-78034819D02*
X132775476Y-78082438D01*
X132775476Y-78082438D02*
X132823095Y-78130057D01*
X132823095Y-78130057D02*
X132870714Y-78225295D01*
X132870714Y-78225295D02*
X132870714Y-78320533D01*
X132870714Y-78320533D02*
X132823095Y-78463390D01*
X132823095Y-78463390D02*
X132251667Y-79034819D01*
X132251667Y-79034819D02*
X132870714Y-79034819D01*
X95539819Y-59988333D02*
X96254104Y-59988333D01*
X96254104Y-59988333D02*
X96396961Y-60035952D01*
X96396961Y-60035952D02*
X96492200Y-60131190D01*
X96492200Y-60131190D02*
X96539819Y-60274047D01*
X96539819Y-60274047D02*
X96539819Y-60369285D01*
X96539819Y-58988333D02*
X96539819Y-59559761D01*
X96539819Y-59274047D02*
X95539819Y-59274047D01*
X95539819Y-59274047D02*
X95682676Y-59369285D01*
X95682676Y-59369285D02*
X95777914Y-59464523D01*
X95777914Y-59464523D02*
X95825533Y-59559761D01*
X112343333Y-78314580D02*
X112295714Y-78362200D01*
X112295714Y-78362200D02*
X112152857Y-78409819D01*
X112152857Y-78409819D02*
X112057619Y-78409819D01*
X112057619Y-78409819D02*
X111914762Y-78362200D01*
X111914762Y-78362200D02*
X111819524Y-78266961D01*
X111819524Y-78266961D02*
X111771905Y-78171723D01*
X111771905Y-78171723D02*
X111724286Y-77981247D01*
X111724286Y-77981247D02*
X111724286Y-77838390D01*
X111724286Y-77838390D02*
X111771905Y-77647914D01*
X111771905Y-77647914D02*
X111819524Y-77552676D01*
X111819524Y-77552676D02*
X111914762Y-77457438D01*
X111914762Y-77457438D02*
X112057619Y-77409819D01*
X112057619Y-77409819D02*
X112152857Y-77409819D01*
X112152857Y-77409819D02*
X112295714Y-77457438D01*
X112295714Y-77457438D02*
X112343333Y-77505057D01*
X113200476Y-77743152D02*
X113200476Y-78409819D01*
X112962381Y-77362200D02*
X112724286Y-78076485D01*
X112724286Y-78076485D02*
X113343333Y-78076485D01*
X103630833Y-69664580D02*
X103583214Y-69712200D01*
X103583214Y-69712200D02*
X103440357Y-69759819D01*
X103440357Y-69759819D02*
X103345119Y-69759819D01*
X103345119Y-69759819D02*
X103202262Y-69712200D01*
X103202262Y-69712200D02*
X103107024Y-69616961D01*
X103107024Y-69616961D02*
X103059405Y-69521723D01*
X103059405Y-69521723D02*
X103011786Y-69331247D01*
X103011786Y-69331247D02*
X103011786Y-69188390D01*
X103011786Y-69188390D02*
X103059405Y-68997914D01*
X103059405Y-68997914D02*
X103107024Y-68902676D01*
X103107024Y-68902676D02*
X103202262Y-68807438D01*
X103202262Y-68807438D02*
X103345119Y-68759819D01*
X103345119Y-68759819D02*
X103440357Y-68759819D01*
X103440357Y-68759819D02*
X103583214Y-68807438D01*
X103583214Y-68807438D02*
X103630833Y-68855057D01*
X103964167Y-68759819D02*
X104630833Y-68759819D01*
X104630833Y-68759819D02*
X104202262Y-69759819D01*
X111843333Y-60459819D02*
X111510000Y-59983628D01*
X111271905Y-60459819D02*
X111271905Y-59459819D01*
X111271905Y-59459819D02*
X111652857Y-59459819D01*
X111652857Y-59459819D02*
X111748095Y-59507438D01*
X111748095Y-59507438D02*
X111795714Y-59555057D01*
X111795714Y-59555057D02*
X111843333Y-59650295D01*
X111843333Y-59650295D02*
X111843333Y-59793152D01*
X111843333Y-59793152D02*
X111795714Y-59888390D01*
X111795714Y-59888390D02*
X111748095Y-59936009D01*
X111748095Y-59936009D02*
X111652857Y-59983628D01*
X111652857Y-59983628D02*
X111271905Y-59983628D01*
X112700476Y-59459819D02*
X112510000Y-59459819D01*
X112510000Y-59459819D02*
X112414762Y-59507438D01*
X112414762Y-59507438D02*
X112367143Y-59555057D01*
X112367143Y-59555057D02*
X112271905Y-59697914D01*
X112271905Y-59697914D02*
X112224286Y-59888390D01*
X112224286Y-59888390D02*
X112224286Y-60269342D01*
X112224286Y-60269342D02*
X112271905Y-60364580D01*
X112271905Y-60364580D02*
X112319524Y-60412200D01*
X112319524Y-60412200D02*
X112414762Y-60459819D01*
X112414762Y-60459819D02*
X112605238Y-60459819D01*
X112605238Y-60459819D02*
X112700476Y-60412200D01*
X112700476Y-60412200D02*
X112748095Y-60364580D01*
X112748095Y-60364580D02*
X112795714Y-60269342D01*
X112795714Y-60269342D02*
X112795714Y-60031247D01*
X112795714Y-60031247D02*
X112748095Y-59936009D01*
X112748095Y-59936009D02*
X112700476Y-59888390D01*
X112700476Y-59888390D02*
X112605238Y-59840771D01*
X112605238Y-59840771D02*
X112414762Y-59840771D01*
X112414762Y-59840771D02*
X112319524Y-59888390D01*
X112319524Y-59888390D02*
X112271905Y-59936009D01*
X112271905Y-59936009D02*
X112224286Y-60031247D01*
X106680833Y-68944580D02*
X106633214Y-68992200D01*
X106633214Y-68992200D02*
X106490357Y-69039819D01*
X106490357Y-69039819D02*
X106395119Y-69039819D01*
X106395119Y-69039819D02*
X106252262Y-68992200D01*
X106252262Y-68992200D02*
X106157024Y-68896961D01*
X106157024Y-68896961D02*
X106109405Y-68801723D01*
X106109405Y-68801723D02*
X106061786Y-68611247D01*
X106061786Y-68611247D02*
X106061786Y-68468390D01*
X106061786Y-68468390D02*
X106109405Y-68277914D01*
X106109405Y-68277914D02*
X106157024Y-68182676D01*
X106157024Y-68182676D02*
X106252262Y-68087438D01*
X106252262Y-68087438D02*
X106395119Y-68039819D01*
X106395119Y-68039819D02*
X106490357Y-68039819D01*
X106490357Y-68039819D02*
X106633214Y-68087438D01*
X106633214Y-68087438D02*
X106680833Y-68135057D01*
X107252262Y-68468390D02*
X107157024Y-68420771D01*
X107157024Y-68420771D02*
X107109405Y-68373152D01*
X107109405Y-68373152D02*
X107061786Y-68277914D01*
X107061786Y-68277914D02*
X107061786Y-68230295D01*
X107061786Y-68230295D02*
X107109405Y-68135057D01*
X107109405Y-68135057D02*
X107157024Y-68087438D01*
X107157024Y-68087438D02*
X107252262Y-68039819D01*
X107252262Y-68039819D02*
X107442738Y-68039819D01*
X107442738Y-68039819D02*
X107537976Y-68087438D01*
X107537976Y-68087438D02*
X107585595Y-68135057D01*
X107585595Y-68135057D02*
X107633214Y-68230295D01*
X107633214Y-68230295D02*
X107633214Y-68277914D01*
X107633214Y-68277914D02*
X107585595Y-68373152D01*
X107585595Y-68373152D02*
X107537976Y-68420771D01*
X107537976Y-68420771D02*
X107442738Y-68468390D01*
X107442738Y-68468390D02*
X107252262Y-68468390D01*
X107252262Y-68468390D02*
X107157024Y-68516009D01*
X107157024Y-68516009D02*
X107109405Y-68563628D01*
X107109405Y-68563628D02*
X107061786Y-68658866D01*
X107061786Y-68658866D02*
X107061786Y-68849342D01*
X107061786Y-68849342D02*
X107109405Y-68944580D01*
X107109405Y-68944580D02*
X107157024Y-68992200D01*
X107157024Y-68992200D02*
X107252262Y-69039819D01*
X107252262Y-69039819D02*
X107442738Y-69039819D01*
X107442738Y-69039819D02*
X107537976Y-68992200D01*
X107537976Y-68992200D02*
X107585595Y-68944580D01*
X107585595Y-68944580D02*
X107633214Y-68849342D01*
X107633214Y-68849342D02*
X107633214Y-68658866D01*
X107633214Y-68658866D02*
X107585595Y-68563628D01*
X107585595Y-68563628D02*
X107537976Y-68516009D01*
X107537976Y-68516009D02*
X107442738Y-68468390D01*
X95817142Y-65564580D02*
X95769523Y-65612200D01*
X95769523Y-65612200D02*
X95626666Y-65659819D01*
X95626666Y-65659819D02*
X95531428Y-65659819D01*
X95531428Y-65659819D02*
X95388571Y-65612200D01*
X95388571Y-65612200D02*
X95293333Y-65516961D01*
X95293333Y-65516961D02*
X95245714Y-65421723D01*
X95245714Y-65421723D02*
X95198095Y-65231247D01*
X95198095Y-65231247D02*
X95198095Y-65088390D01*
X95198095Y-65088390D02*
X95245714Y-64897914D01*
X95245714Y-64897914D02*
X95293333Y-64802676D01*
X95293333Y-64802676D02*
X95388571Y-64707438D01*
X95388571Y-64707438D02*
X95531428Y-64659819D01*
X95531428Y-64659819D02*
X95626666Y-64659819D01*
X95626666Y-64659819D02*
X95769523Y-64707438D01*
X95769523Y-64707438D02*
X95817142Y-64755057D01*
X96769523Y-65659819D02*
X96198095Y-65659819D01*
X96483809Y-65659819D02*
X96483809Y-64659819D01*
X96483809Y-64659819D02*
X96388571Y-64802676D01*
X96388571Y-64802676D02*
X96293333Y-64897914D01*
X96293333Y-64897914D02*
X96198095Y-64945533D01*
X97388571Y-64659819D02*
X97483809Y-64659819D01*
X97483809Y-64659819D02*
X97579047Y-64707438D01*
X97579047Y-64707438D02*
X97626666Y-64755057D01*
X97626666Y-64755057D02*
X97674285Y-64850295D01*
X97674285Y-64850295D02*
X97721904Y-65040771D01*
X97721904Y-65040771D02*
X97721904Y-65278866D01*
X97721904Y-65278866D02*
X97674285Y-65469342D01*
X97674285Y-65469342D02*
X97626666Y-65564580D01*
X97626666Y-65564580D02*
X97579047Y-65612200D01*
X97579047Y-65612200D02*
X97483809Y-65659819D01*
X97483809Y-65659819D02*
X97388571Y-65659819D01*
X97388571Y-65659819D02*
X97293333Y-65612200D01*
X97293333Y-65612200D02*
X97245714Y-65564580D01*
X97245714Y-65564580D02*
X97198095Y-65469342D01*
X97198095Y-65469342D02*
X97150476Y-65278866D01*
X97150476Y-65278866D02*
X97150476Y-65040771D01*
X97150476Y-65040771D02*
X97198095Y-64850295D01*
X97198095Y-64850295D02*
X97245714Y-64755057D01*
X97245714Y-64755057D02*
X97293333Y-64707438D01*
X97293333Y-64707438D02*
X97388571Y-64659819D01*
X123243333Y-75839580D02*
X123195714Y-75887200D01*
X123195714Y-75887200D02*
X123052857Y-75934819D01*
X123052857Y-75934819D02*
X122957619Y-75934819D01*
X122957619Y-75934819D02*
X122814762Y-75887200D01*
X122814762Y-75887200D02*
X122719524Y-75791961D01*
X122719524Y-75791961D02*
X122671905Y-75696723D01*
X122671905Y-75696723D02*
X122624286Y-75506247D01*
X122624286Y-75506247D02*
X122624286Y-75363390D01*
X122624286Y-75363390D02*
X122671905Y-75172914D01*
X122671905Y-75172914D02*
X122719524Y-75077676D01*
X122719524Y-75077676D02*
X122814762Y-74982438D01*
X122814762Y-74982438D02*
X122957619Y-74934819D01*
X122957619Y-74934819D02*
X123052857Y-74934819D01*
X123052857Y-74934819D02*
X123195714Y-74982438D01*
X123195714Y-74982438D02*
X123243333Y-75030057D01*
X123576667Y-74934819D02*
X124195714Y-74934819D01*
X124195714Y-74934819D02*
X123862381Y-75315771D01*
X123862381Y-75315771D02*
X124005238Y-75315771D01*
X124005238Y-75315771D02*
X124100476Y-75363390D01*
X124100476Y-75363390D02*
X124148095Y-75411009D01*
X124148095Y-75411009D02*
X124195714Y-75506247D01*
X124195714Y-75506247D02*
X124195714Y-75744342D01*
X124195714Y-75744342D02*
X124148095Y-75839580D01*
X124148095Y-75839580D02*
X124100476Y-75887200D01*
X124100476Y-75887200D02*
X124005238Y-75934819D01*
X124005238Y-75934819D02*
X123719524Y-75934819D01*
X123719524Y-75934819D02*
X123624286Y-75887200D01*
X123624286Y-75887200D02*
X123576667Y-75839580D01*
X140751666Y-59264819D02*
X140751666Y-59979104D01*
X140751666Y-59979104D02*
X140704047Y-60121961D01*
X140704047Y-60121961D02*
X140608809Y-60217200D01*
X140608809Y-60217200D02*
X140465952Y-60264819D01*
X140465952Y-60264819D02*
X140370714Y-60264819D01*
X141180238Y-59360057D02*
X141227857Y-59312438D01*
X141227857Y-59312438D02*
X141323095Y-59264819D01*
X141323095Y-59264819D02*
X141561190Y-59264819D01*
X141561190Y-59264819D02*
X141656428Y-59312438D01*
X141656428Y-59312438D02*
X141704047Y-59360057D01*
X141704047Y-59360057D02*
X141751666Y-59455295D01*
X141751666Y-59455295D02*
X141751666Y-59550533D01*
X141751666Y-59550533D02*
X141704047Y-59693390D01*
X141704047Y-59693390D02*
X141132619Y-60264819D01*
X141132619Y-60264819D02*
X141751666Y-60264819D01*
X105843333Y-60634819D02*
X105510000Y-60158628D01*
X105271905Y-60634819D02*
X105271905Y-59634819D01*
X105271905Y-59634819D02*
X105652857Y-59634819D01*
X105652857Y-59634819D02*
X105748095Y-59682438D01*
X105748095Y-59682438D02*
X105795714Y-59730057D01*
X105795714Y-59730057D02*
X105843333Y-59825295D01*
X105843333Y-59825295D02*
X105843333Y-59968152D01*
X105843333Y-59968152D02*
X105795714Y-60063390D01*
X105795714Y-60063390D02*
X105748095Y-60111009D01*
X105748095Y-60111009D02*
X105652857Y-60158628D01*
X105652857Y-60158628D02*
X105271905Y-60158628D01*
X106700476Y-59968152D02*
X106700476Y-60634819D01*
X106462381Y-59587200D02*
X106224286Y-60301485D01*
X106224286Y-60301485D02*
X106843333Y-60301485D01*
X126838333Y-80359580D02*
X126790714Y-80407200D01*
X126790714Y-80407200D02*
X126647857Y-80454819D01*
X126647857Y-80454819D02*
X126552619Y-80454819D01*
X126552619Y-80454819D02*
X126409762Y-80407200D01*
X126409762Y-80407200D02*
X126314524Y-80311961D01*
X126314524Y-80311961D02*
X126266905Y-80216723D01*
X126266905Y-80216723D02*
X126219286Y-80026247D01*
X126219286Y-80026247D02*
X126219286Y-79883390D01*
X126219286Y-79883390D02*
X126266905Y-79692914D01*
X126266905Y-79692914D02*
X126314524Y-79597676D01*
X126314524Y-79597676D02*
X126409762Y-79502438D01*
X126409762Y-79502438D02*
X126552619Y-79454819D01*
X126552619Y-79454819D02*
X126647857Y-79454819D01*
X126647857Y-79454819D02*
X126790714Y-79502438D01*
X126790714Y-79502438D02*
X126838333Y-79550057D01*
X127790714Y-80454819D02*
X127219286Y-80454819D01*
X127505000Y-80454819D02*
X127505000Y-79454819D01*
X127505000Y-79454819D02*
X127409762Y-79597676D01*
X127409762Y-79597676D02*
X127314524Y-79692914D01*
X127314524Y-79692914D02*
X127219286Y-79740533D01*
X109068333Y-60534819D02*
X108735000Y-60058628D01*
X108496905Y-60534819D02*
X108496905Y-59534819D01*
X108496905Y-59534819D02*
X108877857Y-59534819D01*
X108877857Y-59534819D02*
X108973095Y-59582438D01*
X108973095Y-59582438D02*
X109020714Y-59630057D01*
X109020714Y-59630057D02*
X109068333Y-59725295D01*
X109068333Y-59725295D02*
X109068333Y-59868152D01*
X109068333Y-59868152D02*
X109020714Y-59963390D01*
X109020714Y-59963390D02*
X108973095Y-60011009D01*
X108973095Y-60011009D02*
X108877857Y-60058628D01*
X108877857Y-60058628D02*
X108496905Y-60058628D01*
X109401667Y-59534819D02*
X110020714Y-59534819D01*
X110020714Y-59534819D02*
X109687381Y-59915771D01*
X109687381Y-59915771D02*
X109830238Y-59915771D01*
X109830238Y-59915771D02*
X109925476Y-59963390D01*
X109925476Y-59963390D02*
X109973095Y-60011009D01*
X109973095Y-60011009D02*
X110020714Y-60106247D01*
X110020714Y-60106247D02*
X110020714Y-60344342D01*
X110020714Y-60344342D02*
X109973095Y-60439580D01*
X109973095Y-60439580D02*
X109925476Y-60487200D01*
X109925476Y-60487200D02*
X109830238Y-60534819D01*
X109830238Y-60534819D02*
X109544524Y-60534819D01*
X109544524Y-60534819D02*
X109449286Y-60487200D01*
X109449286Y-60487200D02*
X109401667Y-60439580D01*
X106755833Y-73594580D02*
X106708214Y-73642200D01*
X106708214Y-73642200D02*
X106565357Y-73689819D01*
X106565357Y-73689819D02*
X106470119Y-73689819D01*
X106470119Y-73689819D02*
X106327262Y-73642200D01*
X106327262Y-73642200D02*
X106232024Y-73546961D01*
X106232024Y-73546961D02*
X106184405Y-73451723D01*
X106184405Y-73451723D02*
X106136786Y-73261247D01*
X106136786Y-73261247D02*
X106136786Y-73118390D01*
X106136786Y-73118390D02*
X106184405Y-72927914D01*
X106184405Y-72927914D02*
X106232024Y-72832676D01*
X106232024Y-72832676D02*
X106327262Y-72737438D01*
X106327262Y-72737438D02*
X106470119Y-72689819D01*
X106470119Y-72689819D02*
X106565357Y-72689819D01*
X106565357Y-72689819D02*
X106708214Y-72737438D01*
X106708214Y-72737438D02*
X106755833Y-72785057D01*
X107232024Y-73689819D02*
X107422500Y-73689819D01*
X107422500Y-73689819D02*
X107517738Y-73642200D01*
X107517738Y-73642200D02*
X107565357Y-73594580D01*
X107565357Y-73594580D02*
X107660595Y-73451723D01*
X107660595Y-73451723D02*
X107708214Y-73261247D01*
X107708214Y-73261247D02*
X107708214Y-72880295D01*
X107708214Y-72880295D02*
X107660595Y-72785057D01*
X107660595Y-72785057D02*
X107612976Y-72737438D01*
X107612976Y-72737438D02*
X107517738Y-72689819D01*
X107517738Y-72689819D02*
X107327262Y-72689819D01*
X107327262Y-72689819D02*
X107232024Y-72737438D01*
X107232024Y-72737438D02*
X107184405Y-72785057D01*
X107184405Y-72785057D02*
X107136786Y-72880295D01*
X107136786Y-72880295D02*
X107136786Y-73118390D01*
X107136786Y-73118390D02*
X107184405Y-73213628D01*
X107184405Y-73213628D02*
X107232024Y-73261247D01*
X107232024Y-73261247D02*
X107327262Y-73308866D01*
X107327262Y-73308866D02*
X107517738Y-73308866D01*
X107517738Y-73308866D02*
X107612976Y-73261247D01*
X107612976Y-73261247D02*
X107660595Y-73213628D01*
X107660595Y-73213628D02*
X107708214Y-73118390D01*
X103811666Y-59134819D02*
X103811666Y-59849104D01*
X103811666Y-59849104D02*
X103764047Y-59991961D01*
X103764047Y-59991961D02*
X103668809Y-60087200D01*
X103668809Y-60087200D02*
X103525952Y-60134819D01*
X103525952Y-60134819D02*
X103430714Y-60134819D01*
X104716428Y-59468152D02*
X104716428Y-60134819D01*
X104478333Y-59087200D02*
X104240238Y-59801485D01*
X104240238Y-59801485D02*
X104859285Y-59801485D01*
X124968333Y-60444819D02*
X124635000Y-59968628D01*
X124396905Y-60444819D02*
X124396905Y-59444819D01*
X124396905Y-59444819D02*
X124777857Y-59444819D01*
X124777857Y-59444819D02*
X124873095Y-59492438D01*
X124873095Y-59492438D02*
X124920714Y-59540057D01*
X124920714Y-59540057D02*
X124968333Y-59635295D01*
X124968333Y-59635295D02*
X124968333Y-59778152D01*
X124968333Y-59778152D02*
X124920714Y-59873390D01*
X124920714Y-59873390D02*
X124873095Y-59921009D01*
X124873095Y-59921009D02*
X124777857Y-59968628D01*
X124777857Y-59968628D02*
X124396905Y-59968628D01*
X125349286Y-59540057D02*
X125396905Y-59492438D01*
X125396905Y-59492438D02*
X125492143Y-59444819D01*
X125492143Y-59444819D02*
X125730238Y-59444819D01*
X125730238Y-59444819D02*
X125825476Y-59492438D01*
X125825476Y-59492438D02*
X125873095Y-59540057D01*
X125873095Y-59540057D02*
X125920714Y-59635295D01*
X125920714Y-59635295D02*
X125920714Y-59730533D01*
X125920714Y-59730533D02*
X125873095Y-59873390D01*
X125873095Y-59873390D02*
X125301667Y-60444819D01*
X125301667Y-60444819D02*
X125920714Y-60444819D01*
X135561666Y-59134819D02*
X135561666Y-59849104D01*
X135561666Y-59849104D02*
X135514047Y-59991961D01*
X135514047Y-59991961D02*
X135418809Y-60087200D01*
X135418809Y-60087200D02*
X135275952Y-60134819D01*
X135275952Y-60134819D02*
X135180714Y-60134819D01*
X135942619Y-59134819D02*
X136561666Y-59134819D01*
X136561666Y-59134819D02*
X136228333Y-59515771D01*
X136228333Y-59515771D02*
X136371190Y-59515771D01*
X136371190Y-59515771D02*
X136466428Y-59563390D01*
X136466428Y-59563390D02*
X136514047Y-59611009D01*
X136514047Y-59611009D02*
X136561666Y-59706247D01*
X136561666Y-59706247D02*
X136561666Y-59944342D01*
X136561666Y-59944342D02*
X136514047Y-60039580D01*
X136514047Y-60039580D02*
X136466428Y-60087200D01*
X136466428Y-60087200D02*
X136371190Y-60134819D01*
X136371190Y-60134819D02*
X136085476Y-60134819D01*
X136085476Y-60134819D02*
X135990238Y-60087200D01*
X135990238Y-60087200D02*
X135942619Y-60039580D01*
X128923095Y-69159819D02*
X128923095Y-69969342D01*
X128923095Y-69969342D02*
X128970714Y-70064580D01*
X128970714Y-70064580D02*
X129018333Y-70112200D01*
X129018333Y-70112200D02*
X129113571Y-70159819D01*
X129113571Y-70159819D02*
X129304047Y-70159819D01*
X129304047Y-70159819D02*
X129399285Y-70112200D01*
X129399285Y-70112200D02*
X129446904Y-70064580D01*
X129446904Y-70064580D02*
X129494523Y-69969342D01*
X129494523Y-69969342D02*
X129494523Y-69159819D01*
X130494523Y-70159819D02*
X129923095Y-70159819D01*
X130208809Y-70159819D02*
X130208809Y-69159819D01*
X130208809Y-69159819D02*
X130113571Y-69302676D01*
X130113571Y-69302676D02*
X130018333Y-69397914D01*
X130018333Y-69397914D02*
X129923095Y-69445533D01*
X94179819Y-68413333D02*
X94894104Y-68413333D01*
X94894104Y-68413333D02*
X95036961Y-68460952D01*
X95036961Y-68460952D02*
X95132200Y-68556190D01*
X95132200Y-68556190D02*
X95179819Y-68699047D01*
X95179819Y-68699047D02*
X95179819Y-68794285D01*
X94179819Y-68032380D02*
X94179819Y-67365714D01*
X94179819Y-67365714D02*
X95179819Y-67794285D01*
X111983809Y-71178628D02*
X111983809Y-71654819D01*
X111650476Y-70654819D02*
X111983809Y-71178628D01*
X111983809Y-71178628D02*
X112317142Y-70654819D01*
X113174285Y-71654819D02*
X112602857Y-71654819D01*
X112888571Y-71654819D02*
X112888571Y-70654819D01*
X112888571Y-70654819D02*
X112793333Y-70797676D01*
X112793333Y-70797676D02*
X112698095Y-70892914D01*
X112698095Y-70892914D02*
X112602857Y-70940533D01*
X118793333Y-74009819D02*
X118460000Y-73533628D01*
X118221905Y-74009819D02*
X118221905Y-73009819D01*
X118221905Y-73009819D02*
X118602857Y-73009819D01*
X118602857Y-73009819D02*
X118698095Y-73057438D01*
X118698095Y-73057438D02*
X118745714Y-73105057D01*
X118745714Y-73105057D02*
X118793333Y-73200295D01*
X118793333Y-73200295D02*
X118793333Y-73343152D01*
X118793333Y-73343152D02*
X118745714Y-73438390D01*
X118745714Y-73438390D02*
X118698095Y-73486009D01*
X118698095Y-73486009D02*
X118602857Y-73533628D01*
X118602857Y-73533628D02*
X118221905Y-73533628D01*
X119698095Y-73009819D02*
X119221905Y-73009819D01*
X119221905Y-73009819D02*
X119174286Y-73486009D01*
X119174286Y-73486009D02*
X119221905Y-73438390D01*
X119221905Y-73438390D02*
X119317143Y-73390771D01*
X119317143Y-73390771D02*
X119555238Y-73390771D01*
X119555238Y-73390771D02*
X119650476Y-73438390D01*
X119650476Y-73438390D02*
X119698095Y-73486009D01*
X119698095Y-73486009D02*
X119745714Y-73581247D01*
X119745714Y-73581247D02*
X119745714Y-73819342D01*
X119745714Y-73819342D02*
X119698095Y-73914580D01*
X119698095Y-73914580D02*
X119650476Y-73962200D01*
X119650476Y-73962200D02*
X119555238Y-74009819D01*
X119555238Y-74009819D02*
X119317143Y-74009819D01*
X119317143Y-74009819D02*
X119221905Y-73962200D01*
X119221905Y-73962200D02*
X119174286Y-73914580D01*
X135044819Y-68498094D02*
X134044819Y-68498094D01*
X134044819Y-68498094D02*
X134044819Y-68259999D01*
X134044819Y-68259999D02*
X134092438Y-68117142D01*
X134092438Y-68117142D02*
X134187676Y-68021904D01*
X134187676Y-68021904D02*
X134282914Y-67974285D01*
X134282914Y-67974285D02*
X134473390Y-67926666D01*
X134473390Y-67926666D02*
X134616247Y-67926666D01*
X134616247Y-67926666D02*
X134806723Y-67974285D01*
X134806723Y-67974285D02*
X134901961Y-68021904D01*
X134901961Y-68021904D02*
X134997200Y-68117142D01*
X134997200Y-68117142D02*
X135044819Y-68259999D01*
X135044819Y-68259999D02*
X135044819Y-68498094D01*
X135044819Y-66974285D02*
X135044819Y-67545713D01*
X135044819Y-67259999D02*
X134044819Y-67259999D01*
X134044819Y-67259999D02*
X134187676Y-67355237D01*
X134187676Y-67355237D02*
X134282914Y-67450475D01*
X134282914Y-67450475D02*
X134330533Y-67545713D01*
X135214819Y-73101904D02*
X134214819Y-73101904D01*
X135214819Y-72530476D02*
X134643390Y-72959047D01*
X134214819Y-72530476D02*
X134786247Y-73101904D01*
X97676666Y-74034819D02*
X97676666Y-74749104D01*
X97676666Y-74749104D02*
X97629047Y-74891961D01*
X97629047Y-74891961D02*
X97533809Y-74987200D01*
X97533809Y-74987200D02*
X97390952Y-75034819D01*
X97390952Y-75034819D02*
X97295714Y-75034819D01*
X98629047Y-74034819D02*
X98152857Y-74034819D01*
X98152857Y-74034819D02*
X98105238Y-74511009D01*
X98105238Y-74511009D02*
X98152857Y-74463390D01*
X98152857Y-74463390D02*
X98248095Y-74415771D01*
X98248095Y-74415771D02*
X98486190Y-74415771D01*
X98486190Y-74415771D02*
X98581428Y-74463390D01*
X98581428Y-74463390D02*
X98629047Y-74511009D01*
X98629047Y-74511009D02*
X98676666Y-74606247D01*
X98676666Y-74606247D02*
X98676666Y-74844342D01*
X98676666Y-74844342D02*
X98629047Y-74939580D01*
X98629047Y-74939580D02*
X98581428Y-74987200D01*
X98581428Y-74987200D02*
X98486190Y-75034819D01*
X98486190Y-75034819D02*
X98248095Y-75034819D01*
X98248095Y-75034819D02*
X98152857Y-74987200D01*
X98152857Y-74987200D02*
X98105238Y-74939580D01*
X119348333Y-60299580D02*
X119300714Y-60347200D01*
X119300714Y-60347200D02*
X119157857Y-60394819D01*
X119157857Y-60394819D02*
X119062619Y-60394819D01*
X119062619Y-60394819D02*
X118919762Y-60347200D01*
X118919762Y-60347200D02*
X118824524Y-60251961D01*
X118824524Y-60251961D02*
X118776905Y-60156723D01*
X118776905Y-60156723D02*
X118729286Y-59966247D01*
X118729286Y-59966247D02*
X118729286Y-59823390D01*
X118729286Y-59823390D02*
X118776905Y-59632914D01*
X118776905Y-59632914D02*
X118824524Y-59537676D01*
X118824524Y-59537676D02*
X118919762Y-59442438D01*
X118919762Y-59442438D02*
X119062619Y-59394819D01*
X119062619Y-59394819D02*
X119157857Y-59394819D01*
X119157857Y-59394819D02*
X119300714Y-59442438D01*
X119300714Y-59442438D02*
X119348333Y-59490057D01*
X120253095Y-59394819D02*
X119776905Y-59394819D01*
X119776905Y-59394819D02*
X119729286Y-59871009D01*
X119729286Y-59871009D02*
X119776905Y-59823390D01*
X119776905Y-59823390D02*
X119872143Y-59775771D01*
X119872143Y-59775771D02*
X120110238Y-59775771D01*
X120110238Y-59775771D02*
X120205476Y-59823390D01*
X120205476Y-59823390D02*
X120253095Y-59871009D01*
X120253095Y-59871009D02*
X120300714Y-59966247D01*
X120300714Y-59966247D02*
X120300714Y-60204342D01*
X120300714Y-60204342D02*
X120253095Y-60299580D01*
X120253095Y-60299580D02*
X120205476Y-60347200D01*
X120205476Y-60347200D02*
X120110238Y-60394819D01*
X120110238Y-60394819D02*
X119872143Y-60394819D01*
X119872143Y-60394819D02*
X119776905Y-60347200D01*
X119776905Y-60347200D02*
X119729286Y-60299580D01*
X128488333Y-60444819D02*
X128155000Y-59968628D01*
X127916905Y-60444819D02*
X127916905Y-59444819D01*
X127916905Y-59444819D02*
X128297857Y-59444819D01*
X128297857Y-59444819D02*
X128393095Y-59492438D01*
X128393095Y-59492438D02*
X128440714Y-59540057D01*
X128440714Y-59540057D02*
X128488333Y-59635295D01*
X128488333Y-59635295D02*
X128488333Y-59778152D01*
X128488333Y-59778152D02*
X128440714Y-59873390D01*
X128440714Y-59873390D02*
X128393095Y-59921009D01*
X128393095Y-59921009D02*
X128297857Y-59968628D01*
X128297857Y-59968628D02*
X127916905Y-59968628D01*
X129440714Y-60444819D02*
X128869286Y-60444819D01*
X129155000Y-60444819D02*
X129155000Y-59444819D01*
X129155000Y-59444819D02*
X129059762Y-59587676D01*
X129059762Y-59587676D02*
X128964524Y-59682914D01*
X128964524Y-59682914D02*
X128869286Y-59730533D01*
X135441666Y-118684819D02*
X135441666Y-119399104D01*
X135441666Y-119399104D02*
X135394047Y-119541961D01*
X135394047Y-119541961D02*
X135298809Y-119637200D01*
X135298809Y-119637200D02*
X135155952Y-119684819D01*
X135155952Y-119684819D02*
X135060714Y-119684819D01*
X136346428Y-119018152D02*
X136346428Y-119684819D01*
X136108333Y-118637200D02*
X135870238Y-119351485D01*
X135870238Y-119351485D02*
X136489285Y-119351485D01*
X141656019Y-109097904D02*
X142465542Y-109097904D01*
X142465542Y-109097904D02*
X142560780Y-109050285D01*
X142560780Y-109050285D02*
X142608400Y-109002666D01*
X142608400Y-109002666D02*
X142656019Y-108907428D01*
X142656019Y-108907428D02*
X142656019Y-108716952D01*
X142656019Y-108716952D02*
X142608400Y-108621714D01*
X142608400Y-108621714D02*
X142560780Y-108574095D01*
X142560780Y-108574095D02*
X142465542Y-108526476D01*
X142465542Y-108526476D02*
X141656019Y-108526476D01*
X141751257Y-108097904D02*
X141703638Y-108050285D01*
X141703638Y-108050285D02*
X141656019Y-107955047D01*
X141656019Y-107955047D02*
X141656019Y-107716952D01*
X141656019Y-107716952D02*
X141703638Y-107621714D01*
X141703638Y-107621714D02*
X141751257Y-107574095D01*
X141751257Y-107574095D02*
X141846495Y-107526476D01*
X141846495Y-107526476D02*
X141941733Y-107526476D01*
X141941733Y-107526476D02*
X142084590Y-107574095D01*
X142084590Y-107574095D02*
X142656019Y-108145523D01*
X142656019Y-108145523D02*
X142656019Y-107526476D01*
X109322200Y-101033332D02*
X109369819Y-100890475D01*
X109369819Y-100890475D02*
X109369819Y-100652380D01*
X109369819Y-100652380D02*
X109322200Y-100557142D01*
X109322200Y-100557142D02*
X109274580Y-100509523D01*
X109274580Y-100509523D02*
X109179342Y-100461904D01*
X109179342Y-100461904D02*
X109084104Y-100461904D01*
X109084104Y-100461904D02*
X108988866Y-100509523D01*
X108988866Y-100509523D02*
X108941247Y-100557142D01*
X108941247Y-100557142D02*
X108893628Y-100652380D01*
X108893628Y-100652380D02*
X108846009Y-100842856D01*
X108846009Y-100842856D02*
X108798390Y-100938094D01*
X108798390Y-100938094D02*
X108750771Y-100985713D01*
X108750771Y-100985713D02*
X108655533Y-101033332D01*
X108655533Y-101033332D02*
X108560295Y-101033332D01*
X108560295Y-101033332D02*
X108465057Y-100985713D01*
X108465057Y-100985713D02*
X108417438Y-100938094D01*
X108417438Y-100938094D02*
X108369819Y-100842856D01*
X108369819Y-100842856D02*
X108369819Y-100604761D01*
X108369819Y-100604761D02*
X108417438Y-100461904D01*
X108369819Y-100128570D02*
X109369819Y-99890475D01*
X109369819Y-99890475D02*
X108655533Y-99699999D01*
X108655533Y-99699999D02*
X109369819Y-99509523D01*
X109369819Y-99509523D02*
X108369819Y-99271428D01*
X108703152Y-98461904D02*
X109369819Y-98461904D01*
X108322200Y-98699999D02*
X109036485Y-98938094D01*
X109036485Y-98938094D02*
X109036485Y-98319047D01*
X126422200Y-101033332D02*
X126469819Y-100890475D01*
X126469819Y-100890475D02*
X126469819Y-100652380D01*
X126469819Y-100652380D02*
X126422200Y-100557142D01*
X126422200Y-100557142D02*
X126374580Y-100509523D01*
X126374580Y-100509523D02*
X126279342Y-100461904D01*
X126279342Y-100461904D02*
X126184104Y-100461904D01*
X126184104Y-100461904D02*
X126088866Y-100509523D01*
X126088866Y-100509523D02*
X126041247Y-100557142D01*
X126041247Y-100557142D02*
X125993628Y-100652380D01*
X125993628Y-100652380D02*
X125946009Y-100842856D01*
X125946009Y-100842856D02*
X125898390Y-100938094D01*
X125898390Y-100938094D02*
X125850771Y-100985713D01*
X125850771Y-100985713D02*
X125755533Y-101033332D01*
X125755533Y-101033332D02*
X125660295Y-101033332D01*
X125660295Y-101033332D02*
X125565057Y-100985713D01*
X125565057Y-100985713D02*
X125517438Y-100938094D01*
X125517438Y-100938094D02*
X125469819Y-100842856D01*
X125469819Y-100842856D02*
X125469819Y-100604761D01*
X125469819Y-100604761D02*
X125517438Y-100461904D01*
X125469819Y-100128570D02*
X126469819Y-99890475D01*
X126469819Y-99890475D02*
X125755533Y-99699999D01*
X125755533Y-99699999D02*
X126469819Y-99509523D01*
X126469819Y-99509523D02*
X125469819Y-99271428D01*
X125565057Y-98938094D02*
X125517438Y-98890475D01*
X125517438Y-98890475D02*
X125469819Y-98795237D01*
X125469819Y-98795237D02*
X125469819Y-98557142D01*
X125469819Y-98557142D02*
X125517438Y-98461904D01*
X125517438Y-98461904D02*
X125565057Y-98414285D01*
X125565057Y-98414285D02*
X125660295Y-98366666D01*
X125660295Y-98366666D02*
X125755533Y-98366666D01*
X125755533Y-98366666D02*
X125898390Y-98414285D01*
X125898390Y-98414285D02*
X126469819Y-98985713D01*
X126469819Y-98985713D02*
X126469819Y-98366666D01*
X134972200Y-101033332D02*
X135019819Y-100890475D01*
X135019819Y-100890475D02*
X135019819Y-100652380D01*
X135019819Y-100652380D02*
X134972200Y-100557142D01*
X134972200Y-100557142D02*
X134924580Y-100509523D01*
X134924580Y-100509523D02*
X134829342Y-100461904D01*
X134829342Y-100461904D02*
X134734104Y-100461904D01*
X134734104Y-100461904D02*
X134638866Y-100509523D01*
X134638866Y-100509523D02*
X134591247Y-100557142D01*
X134591247Y-100557142D02*
X134543628Y-100652380D01*
X134543628Y-100652380D02*
X134496009Y-100842856D01*
X134496009Y-100842856D02*
X134448390Y-100938094D01*
X134448390Y-100938094D02*
X134400771Y-100985713D01*
X134400771Y-100985713D02*
X134305533Y-101033332D01*
X134305533Y-101033332D02*
X134210295Y-101033332D01*
X134210295Y-101033332D02*
X134115057Y-100985713D01*
X134115057Y-100985713D02*
X134067438Y-100938094D01*
X134067438Y-100938094D02*
X134019819Y-100842856D01*
X134019819Y-100842856D02*
X134019819Y-100604761D01*
X134019819Y-100604761D02*
X134067438Y-100461904D01*
X134019819Y-100128570D02*
X135019819Y-99890475D01*
X135019819Y-99890475D02*
X134305533Y-99699999D01*
X134305533Y-99699999D02*
X135019819Y-99509523D01*
X135019819Y-99509523D02*
X134019819Y-99271428D01*
X135019819Y-98366666D02*
X135019819Y-98938094D01*
X135019819Y-98652380D02*
X134019819Y-98652380D01*
X134019819Y-98652380D02*
X134162676Y-98747618D01*
X134162676Y-98747618D02*
X134257914Y-98842856D01*
X134257914Y-98842856D02*
X134305533Y-98938094D01*
X100772200Y-101033332D02*
X100819819Y-100890475D01*
X100819819Y-100890475D02*
X100819819Y-100652380D01*
X100819819Y-100652380D02*
X100772200Y-100557142D01*
X100772200Y-100557142D02*
X100724580Y-100509523D01*
X100724580Y-100509523D02*
X100629342Y-100461904D01*
X100629342Y-100461904D02*
X100534104Y-100461904D01*
X100534104Y-100461904D02*
X100438866Y-100509523D01*
X100438866Y-100509523D02*
X100391247Y-100557142D01*
X100391247Y-100557142D02*
X100343628Y-100652380D01*
X100343628Y-100652380D02*
X100296009Y-100842856D01*
X100296009Y-100842856D02*
X100248390Y-100938094D01*
X100248390Y-100938094D02*
X100200771Y-100985713D01*
X100200771Y-100985713D02*
X100105533Y-101033332D01*
X100105533Y-101033332D02*
X100010295Y-101033332D01*
X100010295Y-101033332D02*
X99915057Y-100985713D01*
X99915057Y-100985713D02*
X99867438Y-100938094D01*
X99867438Y-100938094D02*
X99819819Y-100842856D01*
X99819819Y-100842856D02*
X99819819Y-100604761D01*
X99819819Y-100604761D02*
X99867438Y-100461904D01*
X99819819Y-100128570D02*
X100819819Y-99890475D01*
X100819819Y-99890475D02*
X100105533Y-99699999D01*
X100105533Y-99699999D02*
X100819819Y-99509523D01*
X100819819Y-99509523D02*
X99819819Y-99271428D01*
X99819819Y-98414285D02*
X99819819Y-98890475D01*
X99819819Y-98890475D02*
X100296009Y-98938094D01*
X100296009Y-98938094D02*
X100248390Y-98890475D01*
X100248390Y-98890475D02*
X100200771Y-98795237D01*
X100200771Y-98795237D02*
X100200771Y-98557142D01*
X100200771Y-98557142D02*
X100248390Y-98461904D01*
X100248390Y-98461904D02*
X100296009Y-98414285D01*
X100296009Y-98414285D02*
X100391247Y-98366666D01*
X100391247Y-98366666D02*
X100629342Y-98366666D01*
X100629342Y-98366666D02*
X100724580Y-98414285D01*
X100724580Y-98414285D02*
X100772200Y-98461904D01*
X100772200Y-98461904D02*
X100819819Y-98557142D01*
X100819819Y-98557142D02*
X100819819Y-98795237D01*
X100819819Y-98795237D02*
X100772200Y-98890475D01*
X100772200Y-98890475D02*
X100724580Y-98938094D01*
X131569819Y-138853333D02*
X132284104Y-138853333D01*
X132284104Y-138853333D02*
X132426961Y-138900952D01*
X132426961Y-138900952D02*
X132522200Y-138996190D01*
X132522200Y-138996190D02*
X132569819Y-139139047D01*
X132569819Y-139139047D02*
X132569819Y-139234285D01*
X131569819Y-137948571D02*
X131569819Y-138139047D01*
X131569819Y-138139047D02*
X131617438Y-138234285D01*
X131617438Y-138234285D02*
X131665057Y-138281904D01*
X131665057Y-138281904D02*
X131807914Y-138377142D01*
X131807914Y-138377142D02*
X131998390Y-138424761D01*
X131998390Y-138424761D02*
X132379342Y-138424761D01*
X132379342Y-138424761D02*
X132474580Y-138377142D01*
X132474580Y-138377142D02*
X132522200Y-138329523D01*
X132522200Y-138329523D02*
X132569819Y-138234285D01*
X132569819Y-138234285D02*
X132569819Y-138043809D01*
X132569819Y-138043809D02*
X132522200Y-137948571D01*
X132522200Y-137948571D02*
X132474580Y-137900952D01*
X132474580Y-137900952D02*
X132379342Y-137853333D01*
X132379342Y-137853333D02*
X132141247Y-137853333D01*
X132141247Y-137853333D02*
X132046009Y-137900952D01*
X132046009Y-137900952D02*
X131998390Y-137948571D01*
X131998390Y-137948571D02*
X131950771Y-138043809D01*
X131950771Y-138043809D02*
X131950771Y-138234285D01*
X131950771Y-138234285D02*
X131998390Y-138329523D01*
X131998390Y-138329523D02*
X132046009Y-138377142D01*
X132046009Y-138377142D02*
X132141247Y-138424761D01*
X114629819Y-134786666D02*
X114153628Y-135119999D01*
X114629819Y-135358094D02*
X113629819Y-135358094D01*
X113629819Y-135358094D02*
X113629819Y-134977142D01*
X113629819Y-134977142D02*
X113677438Y-134881904D01*
X113677438Y-134881904D02*
X113725057Y-134834285D01*
X113725057Y-134834285D02*
X113820295Y-134786666D01*
X113820295Y-134786666D02*
X113963152Y-134786666D01*
X113963152Y-134786666D02*
X114058390Y-134834285D01*
X114058390Y-134834285D02*
X114106009Y-134881904D01*
X114106009Y-134881904D02*
X114153628Y-134977142D01*
X114153628Y-134977142D02*
X114153628Y-135358094D01*
X113629819Y-133929523D02*
X113629819Y-134119999D01*
X113629819Y-134119999D02*
X113677438Y-134215237D01*
X113677438Y-134215237D02*
X113725057Y-134262856D01*
X113725057Y-134262856D02*
X113867914Y-134358094D01*
X113867914Y-134358094D02*
X114058390Y-134405713D01*
X114058390Y-134405713D02*
X114439342Y-134405713D01*
X114439342Y-134405713D02*
X114534580Y-134358094D01*
X114534580Y-134358094D02*
X114582200Y-134310475D01*
X114582200Y-134310475D02*
X114629819Y-134215237D01*
X114629819Y-134215237D02*
X114629819Y-134024761D01*
X114629819Y-134024761D02*
X114582200Y-133929523D01*
X114582200Y-133929523D02*
X114534580Y-133881904D01*
X114534580Y-133881904D02*
X114439342Y-133834285D01*
X114439342Y-133834285D02*
X114201247Y-133834285D01*
X114201247Y-133834285D02*
X114106009Y-133881904D01*
X114106009Y-133881904D02*
X114058390Y-133929523D01*
X114058390Y-133929523D02*
X114010771Y-134024761D01*
X114010771Y-134024761D02*
X114010771Y-134215237D01*
X114010771Y-134215237D02*
X114058390Y-134310475D01*
X114058390Y-134310475D02*
X114106009Y-134358094D01*
X114106009Y-134358094D02*
X114201247Y-134405713D01*
X109969819Y-135312857D02*
X109493628Y-135646190D01*
X109969819Y-135884285D02*
X108969819Y-135884285D01*
X108969819Y-135884285D02*
X108969819Y-135503333D01*
X108969819Y-135503333D02*
X109017438Y-135408095D01*
X109017438Y-135408095D02*
X109065057Y-135360476D01*
X109065057Y-135360476D02*
X109160295Y-135312857D01*
X109160295Y-135312857D02*
X109303152Y-135312857D01*
X109303152Y-135312857D02*
X109398390Y-135360476D01*
X109398390Y-135360476D02*
X109446009Y-135408095D01*
X109446009Y-135408095D02*
X109493628Y-135503333D01*
X109493628Y-135503333D02*
X109493628Y-135884285D01*
X109969819Y-134360476D02*
X109969819Y-134931904D01*
X109969819Y-134646190D02*
X108969819Y-134646190D01*
X108969819Y-134646190D02*
X109112676Y-134741428D01*
X109112676Y-134741428D02*
X109207914Y-134836666D01*
X109207914Y-134836666D02*
X109255533Y-134931904D01*
X109065057Y-133979523D02*
X109017438Y-133931904D01*
X109017438Y-133931904D02*
X108969819Y-133836666D01*
X108969819Y-133836666D02*
X108969819Y-133598571D01*
X108969819Y-133598571D02*
X109017438Y-133503333D01*
X109017438Y-133503333D02*
X109065057Y-133455714D01*
X109065057Y-133455714D02*
X109160295Y-133408095D01*
X109160295Y-133408095D02*
X109255533Y-133408095D01*
X109255533Y-133408095D02*
X109398390Y-133455714D01*
X109398390Y-133455714D02*
X109969819Y-134027142D01*
X109969819Y-134027142D02*
X109969819Y-133408095D01*
X90572219Y-137147733D02*
X91286504Y-137147733D01*
X91286504Y-137147733D02*
X91429361Y-137195352D01*
X91429361Y-137195352D02*
X91524600Y-137290590D01*
X91524600Y-137290590D02*
X91572219Y-137433447D01*
X91572219Y-137433447D02*
X91572219Y-137528685D01*
X90572219Y-136195352D02*
X90572219Y-136671542D01*
X90572219Y-136671542D02*
X91048409Y-136719161D01*
X91048409Y-136719161D02*
X91000790Y-136671542D01*
X91000790Y-136671542D02*
X90953171Y-136576304D01*
X90953171Y-136576304D02*
X90953171Y-136338209D01*
X90953171Y-136338209D02*
X91000790Y-136242971D01*
X91000790Y-136242971D02*
X91048409Y-136195352D01*
X91048409Y-136195352D02*
X91143647Y-136147733D01*
X91143647Y-136147733D02*
X91381742Y-136147733D01*
X91381742Y-136147733D02*
X91476980Y-136195352D01*
X91476980Y-136195352D02*
X91524600Y-136242971D01*
X91524600Y-136242971D02*
X91572219Y-136338209D01*
X91572219Y-136338209D02*
X91572219Y-136576304D01*
X91572219Y-136576304D02*
X91524600Y-136671542D01*
X91524600Y-136671542D02*
X91476980Y-136719161D01*
X98659819Y-135156666D02*
X98183628Y-135489999D01*
X98659819Y-135728094D02*
X97659819Y-135728094D01*
X97659819Y-135728094D02*
X97659819Y-135347142D01*
X97659819Y-135347142D02*
X97707438Y-135251904D01*
X97707438Y-135251904D02*
X97755057Y-135204285D01*
X97755057Y-135204285D02*
X97850295Y-135156666D01*
X97850295Y-135156666D02*
X97993152Y-135156666D01*
X97993152Y-135156666D02*
X98088390Y-135204285D01*
X98088390Y-135204285D02*
X98136009Y-135251904D01*
X98136009Y-135251904D02*
X98183628Y-135347142D01*
X98183628Y-135347142D02*
X98183628Y-135728094D01*
X97659819Y-134823332D02*
X97659819Y-134156666D01*
X97659819Y-134156666D02*
X98659819Y-134585237D01*
X117872200Y-101033332D02*
X117919819Y-100890475D01*
X117919819Y-100890475D02*
X117919819Y-100652380D01*
X117919819Y-100652380D02*
X117872200Y-100557142D01*
X117872200Y-100557142D02*
X117824580Y-100509523D01*
X117824580Y-100509523D02*
X117729342Y-100461904D01*
X117729342Y-100461904D02*
X117634104Y-100461904D01*
X117634104Y-100461904D02*
X117538866Y-100509523D01*
X117538866Y-100509523D02*
X117491247Y-100557142D01*
X117491247Y-100557142D02*
X117443628Y-100652380D01*
X117443628Y-100652380D02*
X117396009Y-100842856D01*
X117396009Y-100842856D02*
X117348390Y-100938094D01*
X117348390Y-100938094D02*
X117300771Y-100985713D01*
X117300771Y-100985713D02*
X117205533Y-101033332D01*
X117205533Y-101033332D02*
X117110295Y-101033332D01*
X117110295Y-101033332D02*
X117015057Y-100985713D01*
X117015057Y-100985713D02*
X116967438Y-100938094D01*
X116967438Y-100938094D02*
X116919819Y-100842856D01*
X116919819Y-100842856D02*
X116919819Y-100604761D01*
X116919819Y-100604761D02*
X116967438Y-100461904D01*
X116919819Y-100128570D02*
X117919819Y-99890475D01*
X117919819Y-99890475D02*
X117205533Y-99699999D01*
X117205533Y-99699999D02*
X117919819Y-99509523D01*
X117919819Y-99509523D02*
X116919819Y-99271428D01*
X116919819Y-98985713D02*
X116919819Y-98366666D01*
X116919819Y-98366666D02*
X117300771Y-98699999D01*
X117300771Y-98699999D02*
X117300771Y-98557142D01*
X117300771Y-98557142D02*
X117348390Y-98461904D01*
X117348390Y-98461904D02*
X117396009Y-98414285D01*
X117396009Y-98414285D02*
X117491247Y-98366666D01*
X117491247Y-98366666D02*
X117729342Y-98366666D01*
X117729342Y-98366666D02*
X117824580Y-98414285D01*
X117824580Y-98414285D02*
X117872200Y-98461904D01*
X117872200Y-98461904D02*
X117919819Y-98557142D01*
X117919819Y-98557142D02*
X117919819Y-98842856D01*
X117919819Y-98842856D02*
X117872200Y-98938094D01*
X117872200Y-98938094D02*
X117824580Y-98985713D01*
X105279819Y-135612857D02*
X104803628Y-135946190D01*
X105279819Y-136184285D02*
X104279819Y-136184285D01*
X104279819Y-136184285D02*
X104279819Y-135803333D01*
X104279819Y-135803333D02*
X104327438Y-135708095D01*
X104327438Y-135708095D02*
X104375057Y-135660476D01*
X104375057Y-135660476D02*
X104470295Y-135612857D01*
X104470295Y-135612857D02*
X104613152Y-135612857D01*
X104613152Y-135612857D02*
X104708390Y-135660476D01*
X104708390Y-135660476D02*
X104756009Y-135708095D01*
X104756009Y-135708095D02*
X104803628Y-135803333D01*
X104803628Y-135803333D02*
X104803628Y-136184285D01*
X105279819Y-134660476D02*
X105279819Y-135231904D01*
X105279819Y-134946190D02*
X104279819Y-134946190D01*
X104279819Y-134946190D02*
X104422676Y-135041428D01*
X104422676Y-135041428D02*
X104517914Y-135136666D01*
X104517914Y-135136666D02*
X104565533Y-135231904D01*
X105279819Y-133708095D02*
X105279819Y-134279523D01*
X105279819Y-133993809D02*
X104279819Y-133993809D01*
X104279819Y-133993809D02*
X104422676Y-134089047D01*
X104422676Y-134089047D02*
X104517914Y-134184285D01*
X104517914Y-134184285D02*
X104565533Y-134279523D01*
X131389419Y-134907533D02*
X132103704Y-134907533D01*
X132103704Y-134907533D02*
X132246561Y-134955152D01*
X132246561Y-134955152D02*
X132341800Y-135050390D01*
X132341800Y-135050390D02*
X132389419Y-135193247D01*
X132389419Y-135193247D02*
X132389419Y-135288485D01*
X131389419Y-134526580D02*
X131389419Y-133907533D01*
X131389419Y-133907533D02*
X131770371Y-134240866D01*
X131770371Y-134240866D02*
X131770371Y-134098009D01*
X131770371Y-134098009D02*
X131817990Y-134002771D01*
X131817990Y-134002771D02*
X131865609Y-133955152D01*
X131865609Y-133955152D02*
X131960847Y-133907533D01*
X131960847Y-133907533D02*
X132198942Y-133907533D01*
X132198942Y-133907533D02*
X132294180Y-133955152D01*
X132294180Y-133955152D02*
X132341800Y-134002771D01*
X132341800Y-134002771D02*
X132389419Y-134098009D01*
X132389419Y-134098009D02*
X132389419Y-134383723D01*
X132389419Y-134383723D02*
X132341800Y-134478961D01*
X132341800Y-134478961D02*
X132294180Y-134526580D01*
X87359819Y-146223333D02*
X88074104Y-146223333D01*
X88074104Y-146223333D02*
X88216961Y-146270952D01*
X88216961Y-146270952D02*
X88312200Y-146366190D01*
X88312200Y-146366190D02*
X88359819Y-146509047D01*
X88359819Y-146509047D02*
X88359819Y-146604285D01*
X87788390Y-145604285D02*
X87740771Y-145699523D01*
X87740771Y-145699523D02*
X87693152Y-145747142D01*
X87693152Y-145747142D02*
X87597914Y-145794761D01*
X87597914Y-145794761D02*
X87550295Y-145794761D01*
X87550295Y-145794761D02*
X87455057Y-145747142D01*
X87455057Y-145747142D02*
X87407438Y-145699523D01*
X87407438Y-145699523D02*
X87359819Y-145604285D01*
X87359819Y-145604285D02*
X87359819Y-145413809D01*
X87359819Y-145413809D02*
X87407438Y-145318571D01*
X87407438Y-145318571D02*
X87455057Y-145270952D01*
X87455057Y-145270952D02*
X87550295Y-145223333D01*
X87550295Y-145223333D02*
X87597914Y-145223333D01*
X87597914Y-145223333D02*
X87693152Y-145270952D01*
X87693152Y-145270952D02*
X87740771Y-145318571D01*
X87740771Y-145318571D02*
X87788390Y-145413809D01*
X87788390Y-145413809D02*
X87788390Y-145604285D01*
X87788390Y-145604285D02*
X87836009Y-145699523D01*
X87836009Y-145699523D02*
X87883628Y-145747142D01*
X87883628Y-145747142D02*
X87978866Y-145794761D01*
X87978866Y-145794761D02*
X88169342Y-145794761D01*
X88169342Y-145794761D02*
X88264580Y-145747142D01*
X88264580Y-145747142D02*
X88312200Y-145699523D01*
X88312200Y-145699523D02*
X88359819Y-145604285D01*
X88359819Y-145604285D02*
X88359819Y-145413809D01*
X88359819Y-145413809D02*
X88312200Y-145318571D01*
X88312200Y-145318571D02*
X88264580Y-145270952D01*
X88264580Y-145270952D02*
X88169342Y-145223333D01*
X88169342Y-145223333D02*
X87978866Y-145223333D01*
X87978866Y-145223333D02*
X87883628Y-145270952D01*
X87883628Y-145270952D02*
X87836009Y-145318571D01*
X87836009Y-145318571D02*
X87788390Y-145413809D01*
X132429819Y-146023333D02*
X133144104Y-146023333D01*
X133144104Y-146023333D02*
X133286961Y-146070952D01*
X133286961Y-146070952D02*
X133382200Y-146166190D01*
X133382200Y-146166190D02*
X133429819Y-146309047D01*
X133429819Y-146309047D02*
X133429819Y-146404285D01*
X132429819Y-145642380D02*
X132429819Y-144975714D01*
X132429819Y-144975714D02*
X133429819Y-145404285D01*
X129036438Y-130171309D02*
X129179295Y-130218928D01*
X129179295Y-130218928D02*
X129226914Y-130266547D01*
X129226914Y-130266547D02*
X129274533Y-130361785D01*
X129274533Y-130361785D02*
X129274533Y-130504642D01*
X129274533Y-130504642D02*
X129226914Y-130599880D01*
X129226914Y-130599880D02*
X129179295Y-130647500D01*
X129179295Y-130647500D02*
X129084057Y-130695119D01*
X129084057Y-130695119D02*
X128703105Y-130695119D01*
X128703105Y-130695119D02*
X128703105Y-129695119D01*
X128703105Y-129695119D02*
X129036438Y-129695119D01*
X129036438Y-129695119D02*
X129131676Y-129742738D01*
X129131676Y-129742738D02*
X129179295Y-129790357D01*
X129179295Y-129790357D02*
X129226914Y-129885595D01*
X129226914Y-129885595D02*
X129226914Y-129980833D01*
X129226914Y-129980833D02*
X129179295Y-130076071D01*
X129179295Y-130076071D02*
X129131676Y-130123690D01*
X129131676Y-130123690D02*
X129036438Y-130171309D01*
X129036438Y-130171309D02*
X128703105Y-130171309D01*
X130226914Y-130695119D02*
X129655486Y-130695119D01*
X129941200Y-130695119D02*
X129941200Y-129695119D01*
X129941200Y-129695119D02*
X129845962Y-129837976D01*
X129845962Y-129837976D02*
X129750724Y-129933214D01*
X129750724Y-129933214D02*
X129655486Y-129980833D01*
X76902200Y-103113332D02*
X76949819Y-102970475D01*
X76949819Y-102970475D02*
X76949819Y-102732380D01*
X76949819Y-102732380D02*
X76902200Y-102637142D01*
X76902200Y-102637142D02*
X76854580Y-102589523D01*
X76854580Y-102589523D02*
X76759342Y-102541904D01*
X76759342Y-102541904D02*
X76664104Y-102541904D01*
X76664104Y-102541904D02*
X76568866Y-102589523D01*
X76568866Y-102589523D02*
X76521247Y-102637142D01*
X76521247Y-102637142D02*
X76473628Y-102732380D01*
X76473628Y-102732380D02*
X76426009Y-102922856D01*
X76426009Y-102922856D02*
X76378390Y-103018094D01*
X76378390Y-103018094D02*
X76330771Y-103065713D01*
X76330771Y-103065713D02*
X76235533Y-103113332D01*
X76235533Y-103113332D02*
X76140295Y-103113332D01*
X76140295Y-103113332D02*
X76045057Y-103065713D01*
X76045057Y-103065713D02*
X75997438Y-103018094D01*
X75997438Y-103018094D02*
X75949819Y-102922856D01*
X75949819Y-102922856D02*
X75949819Y-102684761D01*
X75949819Y-102684761D02*
X75997438Y-102541904D01*
X75949819Y-102208570D02*
X76949819Y-101970475D01*
X76949819Y-101970475D02*
X76235533Y-101779999D01*
X76235533Y-101779999D02*
X76949819Y-101589523D01*
X76949819Y-101589523D02*
X75949819Y-101351428D01*
X75949819Y-100541904D02*
X75949819Y-100732380D01*
X75949819Y-100732380D02*
X75997438Y-100827618D01*
X75997438Y-100827618D02*
X76045057Y-100875237D01*
X76045057Y-100875237D02*
X76187914Y-100970475D01*
X76187914Y-100970475D02*
X76378390Y-101018094D01*
X76378390Y-101018094D02*
X76759342Y-101018094D01*
X76759342Y-101018094D02*
X76854580Y-100970475D01*
X76854580Y-100970475D02*
X76902200Y-100922856D01*
X76902200Y-100922856D02*
X76949819Y-100827618D01*
X76949819Y-100827618D02*
X76949819Y-100637142D01*
X76949819Y-100637142D02*
X76902200Y-100541904D01*
X76902200Y-100541904D02*
X76854580Y-100494285D01*
X76854580Y-100494285D02*
X76759342Y-100446666D01*
X76759342Y-100446666D02*
X76521247Y-100446666D01*
X76521247Y-100446666D02*
X76426009Y-100494285D01*
X76426009Y-100494285D02*
X76378390Y-100541904D01*
X76378390Y-100541904D02*
X76330771Y-100637142D01*
X76330771Y-100637142D02*
X76330771Y-100827618D01*
X76330771Y-100827618D02*
X76378390Y-100922856D01*
X76378390Y-100922856D02*
X76426009Y-100970475D01*
X76426009Y-100970475D02*
X76521247Y-101018094D01*
X76439819Y-136468094D02*
X75439819Y-136468094D01*
X75439819Y-136468094D02*
X75439819Y-136229999D01*
X75439819Y-136229999D02*
X75487438Y-136087142D01*
X75487438Y-136087142D02*
X75582676Y-135991904D01*
X75582676Y-135991904D02*
X75677914Y-135944285D01*
X75677914Y-135944285D02*
X75868390Y-135896666D01*
X75868390Y-135896666D02*
X76011247Y-135896666D01*
X76011247Y-135896666D02*
X76201723Y-135944285D01*
X76201723Y-135944285D02*
X76296961Y-135991904D01*
X76296961Y-135991904D02*
X76392200Y-136087142D01*
X76392200Y-136087142D02*
X76439819Y-136229999D01*
X76439819Y-136229999D02*
X76439819Y-136468094D01*
X76439819Y-134944285D02*
X76439819Y-135515713D01*
X76439819Y-135229999D02*
X75439819Y-135229999D01*
X75439819Y-135229999D02*
X75582676Y-135325237D01*
X75582676Y-135325237D02*
X75677914Y-135420475D01*
X75677914Y-135420475D02*
X75725533Y-135515713D01*
X78479819Y-141741904D02*
X77479819Y-141741904D01*
X78479819Y-141170476D02*
X77908390Y-141599047D01*
X77479819Y-141170476D02*
X78051247Y-141741904D01*
X103620238Y-130111009D02*
X103763095Y-130158628D01*
X103763095Y-130158628D02*
X103810714Y-130206247D01*
X103810714Y-130206247D02*
X103858333Y-130301485D01*
X103858333Y-130301485D02*
X103858333Y-130444342D01*
X103858333Y-130444342D02*
X103810714Y-130539580D01*
X103810714Y-130539580D02*
X103763095Y-130587200D01*
X103763095Y-130587200D02*
X103667857Y-130634819D01*
X103667857Y-130634819D02*
X103286905Y-130634819D01*
X103286905Y-130634819D02*
X103286905Y-129634819D01*
X103286905Y-129634819D02*
X103620238Y-129634819D01*
X103620238Y-129634819D02*
X103715476Y-129682438D01*
X103715476Y-129682438D02*
X103763095Y-129730057D01*
X103763095Y-129730057D02*
X103810714Y-129825295D01*
X103810714Y-129825295D02*
X103810714Y-129920533D01*
X103810714Y-129920533D02*
X103763095Y-130015771D01*
X103763095Y-130015771D02*
X103715476Y-130063390D01*
X103715476Y-130063390D02*
X103620238Y-130111009D01*
X103620238Y-130111009D02*
X103286905Y-130111009D01*
X104239286Y-129730057D02*
X104286905Y-129682438D01*
X104286905Y-129682438D02*
X104382143Y-129634819D01*
X104382143Y-129634819D02*
X104620238Y-129634819D01*
X104620238Y-129634819D02*
X104715476Y-129682438D01*
X104715476Y-129682438D02*
X104763095Y-129730057D01*
X104763095Y-129730057D02*
X104810714Y-129825295D01*
X104810714Y-129825295D02*
X104810714Y-129920533D01*
X104810714Y-129920533D02*
X104763095Y-130063390D01*
X104763095Y-130063390D02*
X104191667Y-130634819D01*
X104191667Y-130634819D02*
X104810714Y-130634819D01*
X62034983Y-60426230D02*
X61987364Y-60473850D01*
X61987364Y-60473850D02*
X61844507Y-60521469D01*
X61844507Y-60521469D02*
X61749269Y-60521469D01*
X61749269Y-60521469D02*
X61606412Y-60473850D01*
X61606412Y-60473850D02*
X61511174Y-60378611D01*
X61511174Y-60378611D02*
X61463555Y-60283373D01*
X61463555Y-60283373D02*
X61415936Y-60092897D01*
X61415936Y-60092897D02*
X61415936Y-59950040D01*
X61415936Y-59950040D02*
X61463555Y-59759564D01*
X61463555Y-59759564D02*
X61511174Y-59664326D01*
X61511174Y-59664326D02*
X61606412Y-59569088D01*
X61606412Y-59569088D02*
X61749269Y-59521469D01*
X61749269Y-59521469D02*
X61844507Y-59521469D01*
X61844507Y-59521469D02*
X61987364Y-59569088D01*
X61987364Y-59569088D02*
X62034983Y-59616707D01*
X62892126Y-59521469D02*
X62701650Y-59521469D01*
X62701650Y-59521469D02*
X62606412Y-59569088D01*
X62606412Y-59569088D02*
X62558793Y-59616707D01*
X62558793Y-59616707D02*
X62463555Y-59759564D01*
X62463555Y-59759564D02*
X62415936Y-59950040D01*
X62415936Y-59950040D02*
X62415936Y-60330992D01*
X62415936Y-60330992D02*
X62463555Y-60426230D01*
X62463555Y-60426230D02*
X62511174Y-60473850D01*
X62511174Y-60473850D02*
X62606412Y-60521469D01*
X62606412Y-60521469D02*
X62796888Y-60521469D01*
X62796888Y-60521469D02*
X62892126Y-60473850D01*
X62892126Y-60473850D02*
X62939745Y-60426230D01*
X62939745Y-60426230D02*
X62987364Y-60330992D01*
X62987364Y-60330992D02*
X62987364Y-60092897D01*
X62987364Y-60092897D02*
X62939745Y-59997659D01*
X62939745Y-59997659D02*
X62892126Y-59950040D01*
X62892126Y-59950040D02*
X62796888Y-59902421D01*
X62796888Y-59902421D02*
X62606412Y-59902421D01*
X62606412Y-59902421D02*
X62511174Y-59950040D01*
X62511174Y-59950040D02*
X62463555Y-59997659D01*
X62463555Y-59997659D02*
X62415936Y-60092897D01*
X73518316Y-65596469D02*
X73518316Y-66310754D01*
X73518316Y-66310754D02*
X73470697Y-66453611D01*
X73470697Y-66453611D02*
X73375459Y-66548850D01*
X73375459Y-66548850D02*
X73232602Y-66596469D01*
X73232602Y-66596469D02*
X73137364Y-66596469D01*
X74423078Y-65596469D02*
X74232602Y-65596469D01*
X74232602Y-65596469D02*
X74137364Y-65644088D01*
X74137364Y-65644088D02*
X74089745Y-65691707D01*
X74089745Y-65691707D02*
X73994507Y-65834564D01*
X73994507Y-65834564D02*
X73946888Y-66025040D01*
X73946888Y-66025040D02*
X73946888Y-66405992D01*
X73946888Y-66405992D02*
X73994507Y-66501230D01*
X73994507Y-66501230D02*
X74042126Y-66548850D01*
X74042126Y-66548850D02*
X74137364Y-66596469D01*
X74137364Y-66596469D02*
X74327840Y-66596469D01*
X74327840Y-66596469D02*
X74423078Y-66548850D01*
X74423078Y-66548850D02*
X74470697Y-66501230D01*
X74470697Y-66501230D02*
X74518316Y-66405992D01*
X74518316Y-66405992D02*
X74518316Y-66167897D01*
X74518316Y-66167897D02*
X74470697Y-66072659D01*
X74470697Y-66072659D02*
X74423078Y-66025040D01*
X74423078Y-66025040D02*
X74327840Y-65977421D01*
X74327840Y-65977421D02*
X74137364Y-65977421D01*
X74137364Y-65977421D02*
X74042126Y-66025040D01*
X74042126Y-66025040D02*
X73994507Y-66072659D01*
X73994507Y-66072659D02*
X73946888Y-66167897D01*
X79359983Y-78976230D02*
X79312364Y-79023850D01*
X79312364Y-79023850D02*
X79169507Y-79071469D01*
X79169507Y-79071469D02*
X79074269Y-79071469D01*
X79074269Y-79071469D02*
X78931412Y-79023850D01*
X78931412Y-79023850D02*
X78836174Y-78928611D01*
X78836174Y-78928611D02*
X78788555Y-78833373D01*
X78788555Y-78833373D02*
X78740936Y-78642897D01*
X78740936Y-78642897D02*
X78740936Y-78500040D01*
X78740936Y-78500040D02*
X78788555Y-78309564D01*
X78788555Y-78309564D02*
X78836174Y-78214326D01*
X78836174Y-78214326D02*
X78931412Y-78119088D01*
X78931412Y-78119088D02*
X79074269Y-78071469D01*
X79074269Y-78071469D02*
X79169507Y-78071469D01*
X79169507Y-78071469D02*
X79312364Y-78119088D01*
X79312364Y-78119088D02*
X79359983Y-78166707D01*
X79740936Y-78166707D02*
X79788555Y-78119088D01*
X79788555Y-78119088D02*
X79883793Y-78071469D01*
X79883793Y-78071469D02*
X80121888Y-78071469D01*
X80121888Y-78071469D02*
X80217126Y-78119088D01*
X80217126Y-78119088D02*
X80264745Y-78166707D01*
X80264745Y-78166707D02*
X80312364Y-78261945D01*
X80312364Y-78261945D02*
X80312364Y-78357183D01*
X80312364Y-78357183D02*
X80264745Y-78500040D01*
X80264745Y-78500040D02*
X79693317Y-79071469D01*
X79693317Y-79071469D02*
X80312364Y-79071469D01*
X88193316Y-59301469D02*
X88193316Y-60015754D01*
X88193316Y-60015754D02*
X88145697Y-60158611D01*
X88145697Y-60158611D02*
X88050459Y-60253850D01*
X88050459Y-60253850D02*
X87907602Y-60301469D01*
X87907602Y-60301469D02*
X87812364Y-60301469D01*
X88621888Y-59396707D02*
X88669507Y-59349088D01*
X88669507Y-59349088D02*
X88764745Y-59301469D01*
X88764745Y-59301469D02*
X89002840Y-59301469D01*
X89002840Y-59301469D02*
X89098078Y-59349088D01*
X89098078Y-59349088D02*
X89145697Y-59396707D01*
X89145697Y-59396707D02*
X89193316Y-59491945D01*
X89193316Y-59491945D02*
X89193316Y-59587183D01*
X89193316Y-59587183D02*
X89145697Y-59730040D01*
X89145697Y-59730040D02*
X88574269Y-60301469D01*
X88574269Y-60301469D02*
X89193316Y-60301469D01*
X42981469Y-60024983D02*
X43695754Y-60024983D01*
X43695754Y-60024983D02*
X43838611Y-60072602D01*
X43838611Y-60072602D02*
X43933850Y-60167840D01*
X43933850Y-60167840D02*
X43981469Y-60310697D01*
X43981469Y-60310697D02*
X43981469Y-60405935D01*
X43981469Y-59024983D02*
X43981469Y-59596411D01*
X43981469Y-59310697D02*
X42981469Y-59310697D01*
X42981469Y-59310697D02*
X43124326Y-59405935D01*
X43124326Y-59405935D02*
X43219564Y-59501173D01*
X43219564Y-59501173D02*
X43267183Y-59596411D01*
X59784983Y-78351230D02*
X59737364Y-78398850D01*
X59737364Y-78398850D02*
X59594507Y-78446469D01*
X59594507Y-78446469D02*
X59499269Y-78446469D01*
X59499269Y-78446469D02*
X59356412Y-78398850D01*
X59356412Y-78398850D02*
X59261174Y-78303611D01*
X59261174Y-78303611D02*
X59213555Y-78208373D01*
X59213555Y-78208373D02*
X59165936Y-78017897D01*
X59165936Y-78017897D02*
X59165936Y-77875040D01*
X59165936Y-77875040D02*
X59213555Y-77684564D01*
X59213555Y-77684564D02*
X59261174Y-77589326D01*
X59261174Y-77589326D02*
X59356412Y-77494088D01*
X59356412Y-77494088D02*
X59499269Y-77446469D01*
X59499269Y-77446469D02*
X59594507Y-77446469D01*
X59594507Y-77446469D02*
X59737364Y-77494088D01*
X59737364Y-77494088D02*
X59784983Y-77541707D01*
X60642126Y-77779802D02*
X60642126Y-78446469D01*
X60404031Y-77398850D02*
X60165936Y-78113135D01*
X60165936Y-78113135D02*
X60784983Y-78113135D01*
X59284983Y-60496469D02*
X58951650Y-60020278D01*
X58713555Y-60496469D02*
X58713555Y-59496469D01*
X58713555Y-59496469D02*
X59094507Y-59496469D01*
X59094507Y-59496469D02*
X59189745Y-59544088D01*
X59189745Y-59544088D02*
X59237364Y-59591707D01*
X59237364Y-59591707D02*
X59284983Y-59686945D01*
X59284983Y-59686945D02*
X59284983Y-59829802D01*
X59284983Y-59829802D02*
X59237364Y-59925040D01*
X59237364Y-59925040D02*
X59189745Y-59972659D01*
X59189745Y-59972659D02*
X59094507Y-60020278D01*
X59094507Y-60020278D02*
X58713555Y-60020278D01*
X60142126Y-59496469D02*
X59951650Y-59496469D01*
X59951650Y-59496469D02*
X59856412Y-59544088D01*
X59856412Y-59544088D02*
X59808793Y-59591707D01*
X59808793Y-59591707D02*
X59713555Y-59734564D01*
X59713555Y-59734564D02*
X59665936Y-59925040D01*
X59665936Y-59925040D02*
X59665936Y-60305992D01*
X59665936Y-60305992D02*
X59713555Y-60401230D01*
X59713555Y-60401230D02*
X59761174Y-60448850D01*
X59761174Y-60448850D02*
X59856412Y-60496469D01*
X59856412Y-60496469D02*
X60046888Y-60496469D01*
X60046888Y-60496469D02*
X60142126Y-60448850D01*
X60142126Y-60448850D02*
X60189745Y-60401230D01*
X60189745Y-60401230D02*
X60237364Y-60305992D01*
X60237364Y-60305992D02*
X60237364Y-60067897D01*
X60237364Y-60067897D02*
X60189745Y-59972659D01*
X60189745Y-59972659D02*
X60142126Y-59925040D01*
X60142126Y-59925040D02*
X60046888Y-59877421D01*
X60046888Y-59877421D02*
X59856412Y-59877421D01*
X59856412Y-59877421D02*
X59761174Y-59925040D01*
X59761174Y-59925040D02*
X59713555Y-59972659D01*
X59713555Y-59972659D02*
X59665936Y-60067897D01*
X53284983Y-60671469D02*
X52951650Y-60195278D01*
X52713555Y-60671469D02*
X52713555Y-59671469D01*
X52713555Y-59671469D02*
X53094507Y-59671469D01*
X53094507Y-59671469D02*
X53189745Y-59719088D01*
X53189745Y-59719088D02*
X53237364Y-59766707D01*
X53237364Y-59766707D02*
X53284983Y-59861945D01*
X53284983Y-59861945D02*
X53284983Y-60004802D01*
X53284983Y-60004802D02*
X53237364Y-60100040D01*
X53237364Y-60100040D02*
X53189745Y-60147659D01*
X53189745Y-60147659D02*
X53094507Y-60195278D01*
X53094507Y-60195278D02*
X52713555Y-60195278D01*
X54142126Y-60004802D02*
X54142126Y-60671469D01*
X53904031Y-59623850D02*
X53665936Y-60338135D01*
X53665936Y-60338135D02*
X54284983Y-60338135D01*
X54122483Y-68981230D02*
X54074864Y-69028850D01*
X54074864Y-69028850D02*
X53932007Y-69076469D01*
X53932007Y-69076469D02*
X53836769Y-69076469D01*
X53836769Y-69076469D02*
X53693912Y-69028850D01*
X53693912Y-69028850D02*
X53598674Y-68933611D01*
X53598674Y-68933611D02*
X53551055Y-68838373D01*
X53551055Y-68838373D02*
X53503436Y-68647897D01*
X53503436Y-68647897D02*
X53503436Y-68505040D01*
X53503436Y-68505040D02*
X53551055Y-68314564D01*
X53551055Y-68314564D02*
X53598674Y-68219326D01*
X53598674Y-68219326D02*
X53693912Y-68124088D01*
X53693912Y-68124088D02*
X53836769Y-68076469D01*
X53836769Y-68076469D02*
X53932007Y-68076469D01*
X53932007Y-68076469D02*
X54074864Y-68124088D01*
X54074864Y-68124088D02*
X54122483Y-68171707D01*
X54693912Y-68505040D02*
X54598674Y-68457421D01*
X54598674Y-68457421D02*
X54551055Y-68409802D01*
X54551055Y-68409802D02*
X54503436Y-68314564D01*
X54503436Y-68314564D02*
X54503436Y-68266945D01*
X54503436Y-68266945D02*
X54551055Y-68171707D01*
X54551055Y-68171707D02*
X54598674Y-68124088D01*
X54598674Y-68124088D02*
X54693912Y-68076469D01*
X54693912Y-68076469D02*
X54884388Y-68076469D01*
X54884388Y-68076469D02*
X54979626Y-68124088D01*
X54979626Y-68124088D02*
X55027245Y-68171707D01*
X55027245Y-68171707D02*
X55074864Y-68266945D01*
X55074864Y-68266945D02*
X55074864Y-68314564D01*
X55074864Y-68314564D02*
X55027245Y-68409802D01*
X55027245Y-68409802D02*
X54979626Y-68457421D01*
X54979626Y-68457421D02*
X54884388Y-68505040D01*
X54884388Y-68505040D02*
X54693912Y-68505040D01*
X54693912Y-68505040D02*
X54598674Y-68552659D01*
X54598674Y-68552659D02*
X54551055Y-68600278D01*
X54551055Y-68600278D02*
X54503436Y-68695516D01*
X54503436Y-68695516D02*
X54503436Y-68885992D01*
X54503436Y-68885992D02*
X54551055Y-68981230D01*
X54551055Y-68981230D02*
X54598674Y-69028850D01*
X54598674Y-69028850D02*
X54693912Y-69076469D01*
X54693912Y-69076469D02*
X54884388Y-69076469D01*
X54884388Y-69076469D02*
X54979626Y-69028850D01*
X54979626Y-69028850D02*
X55027245Y-68981230D01*
X55027245Y-68981230D02*
X55074864Y-68885992D01*
X55074864Y-68885992D02*
X55074864Y-68695516D01*
X55074864Y-68695516D02*
X55027245Y-68600278D01*
X55027245Y-68600278D02*
X54979626Y-68552659D01*
X54979626Y-68552659D02*
X54884388Y-68505040D01*
X51072483Y-69701230D02*
X51024864Y-69748850D01*
X51024864Y-69748850D02*
X50882007Y-69796469D01*
X50882007Y-69796469D02*
X50786769Y-69796469D01*
X50786769Y-69796469D02*
X50643912Y-69748850D01*
X50643912Y-69748850D02*
X50548674Y-69653611D01*
X50548674Y-69653611D02*
X50501055Y-69558373D01*
X50501055Y-69558373D02*
X50453436Y-69367897D01*
X50453436Y-69367897D02*
X50453436Y-69225040D01*
X50453436Y-69225040D02*
X50501055Y-69034564D01*
X50501055Y-69034564D02*
X50548674Y-68939326D01*
X50548674Y-68939326D02*
X50643912Y-68844088D01*
X50643912Y-68844088D02*
X50786769Y-68796469D01*
X50786769Y-68796469D02*
X50882007Y-68796469D01*
X50882007Y-68796469D02*
X51024864Y-68844088D01*
X51024864Y-68844088D02*
X51072483Y-68891707D01*
X51405817Y-68796469D02*
X52072483Y-68796469D01*
X52072483Y-68796469D02*
X51643912Y-69796469D01*
X43258792Y-65601230D02*
X43211173Y-65648850D01*
X43211173Y-65648850D02*
X43068316Y-65696469D01*
X43068316Y-65696469D02*
X42973078Y-65696469D01*
X42973078Y-65696469D02*
X42830221Y-65648850D01*
X42830221Y-65648850D02*
X42734983Y-65553611D01*
X42734983Y-65553611D02*
X42687364Y-65458373D01*
X42687364Y-65458373D02*
X42639745Y-65267897D01*
X42639745Y-65267897D02*
X42639745Y-65125040D01*
X42639745Y-65125040D02*
X42687364Y-64934564D01*
X42687364Y-64934564D02*
X42734983Y-64839326D01*
X42734983Y-64839326D02*
X42830221Y-64744088D01*
X42830221Y-64744088D02*
X42973078Y-64696469D01*
X42973078Y-64696469D02*
X43068316Y-64696469D01*
X43068316Y-64696469D02*
X43211173Y-64744088D01*
X43211173Y-64744088D02*
X43258792Y-64791707D01*
X44211173Y-65696469D02*
X43639745Y-65696469D01*
X43925459Y-65696469D02*
X43925459Y-64696469D01*
X43925459Y-64696469D02*
X43830221Y-64839326D01*
X43830221Y-64839326D02*
X43734983Y-64934564D01*
X43734983Y-64934564D02*
X43639745Y-64982183D01*
X44830221Y-64696469D02*
X44925459Y-64696469D01*
X44925459Y-64696469D02*
X45020697Y-64744088D01*
X45020697Y-64744088D02*
X45068316Y-64791707D01*
X45068316Y-64791707D02*
X45115935Y-64886945D01*
X45115935Y-64886945D02*
X45163554Y-65077421D01*
X45163554Y-65077421D02*
X45163554Y-65315516D01*
X45163554Y-65315516D02*
X45115935Y-65505992D01*
X45115935Y-65505992D02*
X45068316Y-65601230D01*
X45068316Y-65601230D02*
X45020697Y-65648850D01*
X45020697Y-65648850D02*
X44925459Y-65696469D01*
X44925459Y-65696469D02*
X44830221Y-65696469D01*
X44830221Y-65696469D02*
X44734983Y-65648850D01*
X44734983Y-65648850D02*
X44687364Y-65601230D01*
X44687364Y-65601230D02*
X44639745Y-65505992D01*
X44639745Y-65505992D02*
X44592126Y-65315516D01*
X44592126Y-65315516D02*
X44592126Y-65077421D01*
X44592126Y-65077421D02*
X44639745Y-64886945D01*
X44639745Y-64886945D02*
X44687364Y-64791707D01*
X44687364Y-64791707D02*
X44734983Y-64744088D01*
X44734983Y-64744088D02*
X44830221Y-64696469D01*
X70684983Y-75876230D02*
X70637364Y-75923850D01*
X70637364Y-75923850D02*
X70494507Y-75971469D01*
X70494507Y-75971469D02*
X70399269Y-75971469D01*
X70399269Y-75971469D02*
X70256412Y-75923850D01*
X70256412Y-75923850D02*
X70161174Y-75828611D01*
X70161174Y-75828611D02*
X70113555Y-75733373D01*
X70113555Y-75733373D02*
X70065936Y-75542897D01*
X70065936Y-75542897D02*
X70065936Y-75400040D01*
X70065936Y-75400040D02*
X70113555Y-75209564D01*
X70113555Y-75209564D02*
X70161174Y-75114326D01*
X70161174Y-75114326D02*
X70256412Y-75019088D01*
X70256412Y-75019088D02*
X70399269Y-74971469D01*
X70399269Y-74971469D02*
X70494507Y-74971469D01*
X70494507Y-74971469D02*
X70637364Y-75019088D01*
X70637364Y-75019088D02*
X70684983Y-75066707D01*
X71018317Y-74971469D02*
X71637364Y-74971469D01*
X71637364Y-74971469D02*
X71304031Y-75352421D01*
X71304031Y-75352421D02*
X71446888Y-75352421D01*
X71446888Y-75352421D02*
X71542126Y-75400040D01*
X71542126Y-75400040D02*
X71589745Y-75447659D01*
X71589745Y-75447659D02*
X71637364Y-75542897D01*
X71637364Y-75542897D02*
X71637364Y-75780992D01*
X71637364Y-75780992D02*
X71589745Y-75876230D01*
X71589745Y-75876230D02*
X71542126Y-75923850D01*
X71542126Y-75923850D02*
X71446888Y-75971469D01*
X71446888Y-75971469D02*
X71161174Y-75971469D01*
X71161174Y-75971469D02*
X71065936Y-75923850D01*
X71065936Y-75923850D02*
X71018317Y-75876230D01*
X59425459Y-71215278D02*
X59425459Y-71691469D01*
X59092126Y-70691469D02*
X59425459Y-71215278D01*
X59425459Y-71215278D02*
X59758792Y-70691469D01*
X60615935Y-71691469D02*
X60044507Y-71691469D01*
X60330221Y-71691469D02*
X60330221Y-70691469D01*
X60330221Y-70691469D02*
X60234983Y-70834326D01*
X60234983Y-70834326D02*
X60139745Y-70929564D01*
X60139745Y-70929564D02*
X60044507Y-70977183D01*
X74279983Y-80396230D02*
X74232364Y-80443850D01*
X74232364Y-80443850D02*
X74089507Y-80491469D01*
X74089507Y-80491469D02*
X73994269Y-80491469D01*
X73994269Y-80491469D02*
X73851412Y-80443850D01*
X73851412Y-80443850D02*
X73756174Y-80348611D01*
X73756174Y-80348611D02*
X73708555Y-80253373D01*
X73708555Y-80253373D02*
X73660936Y-80062897D01*
X73660936Y-80062897D02*
X73660936Y-79920040D01*
X73660936Y-79920040D02*
X73708555Y-79729564D01*
X73708555Y-79729564D02*
X73756174Y-79634326D01*
X73756174Y-79634326D02*
X73851412Y-79539088D01*
X73851412Y-79539088D02*
X73994269Y-79491469D01*
X73994269Y-79491469D02*
X74089507Y-79491469D01*
X74089507Y-79491469D02*
X74232364Y-79539088D01*
X74232364Y-79539088D02*
X74279983Y-79586707D01*
X75232364Y-80491469D02*
X74660936Y-80491469D01*
X74946650Y-80491469D02*
X74946650Y-79491469D01*
X74946650Y-79491469D02*
X74851412Y-79634326D01*
X74851412Y-79634326D02*
X74756174Y-79729564D01*
X74756174Y-79729564D02*
X74660936Y-79777183D01*
X66234983Y-74046469D02*
X65901650Y-73570278D01*
X65663555Y-74046469D02*
X65663555Y-73046469D01*
X65663555Y-73046469D02*
X66044507Y-73046469D01*
X66044507Y-73046469D02*
X66139745Y-73094088D01*
X66139745Y-73094088D02*
X66187364Y-73141707D01*
X66187364Y-73141707D02*
X66234983Y-73236945D01*
X66234983Y-73236945D02*
X66234983Y-73379802D01*
X66234983Y-73379802D02*
X66187364Y-73475040D01*
X66187364Y-73475040D02*
X66139745Y-73522659D01*
X66139745Y-73522659D02*
X66044507Y-73570278D01*
X66044507Y-73570278D02*
X65663555Y-73570278D01*
X67139745Y-73046469D02*
X66663555Y-73046469D01*
X66663555Y-73046469D02*
X66615936Y-73522659D01*
X66615936Y-73522659D02*
X66663555Y-73475040D01*
X66663555Y-73475040D02*
X66758793Y-73427421D01*
X66758793Y-73427421D02*
X66996888Y-73427421D01*
X66996888Y-73427421D02*
X67092126Y-73475040D01*
X67092126Y-73475040D02*
X67139745Y-73522659D01*
X67139745Y-73522659D02*
X67187364Y-73617897D01*
X67187364Y-73617897D02*
X67187364Y-73855992D01*
X67187364Y-73855992D02*
X67139745Y-73951230D01*
X67139745Y-73951230D02*
X67092126Y-73998850D01*
X67092126Y-73998850D02*
X66996888Y-74046469D01*
X66996888Y-74046469D02*
X66758793Y-74046469D01*
X66758793Y-74046469D02*
X66663555Y-73998850D01*
X66663555Y-73998850D02*
X66615936Y-73951230D01*
X56509983Y-60571469D02*
X56176650Y-60095278D01*
X55938555Y-60571469D02*
X55938555Y-59571469D01*
X55938555Y-59571469D02*
X56319507Y-59571469D01*
X56319507Y-59571469D02*
X56414745Y-59619088D01*
X56414745Y-59619088D02*
X56462364Y-59666707D01*
X56462364Y-59666707D02*
X56509983Y-59761945D01*
X56509983Y-59761945D02*
X56509983Y-59904802D01*
X56509983Y-59904802D02*
X56462364Y-60000040D01*
X56462364Y-60000040D02*
X56414745Y-60047659D01*
X56414745Y-60047659D02*
X56319507Y-60095278D01*
X56319507Y-60095278D02*
X55938555Y-60095278D01*
X56843317Y-59571469D02*
X57462364Y-59571469D01*
X57462364Y-59571469D02*
X57129031Y-59952421D01*
X57129031Y-59952421D02*
X57271888Y-59952421D01*
X57271888Y-59952421D02*
X57367126Y-60000040D01*
X57367126Y-60000040D02*
X57414745Y-60047659D01*
X57414745Y-60047659D02*
X57462364Y-60142897D01*
X57462364Y-60142897D02*
X57462364Y-60380992D01*
X57462364Y-60380992D02*
X57414745Y-60476230D01*
X57414745Y-60476230D02*
X57367126Y-60523850D01*
X57367126Y-60523850D02*
X57271888Y-60571469D01*
X57271888Y-60571469D02*
X56986174Y-60571469D01*
X56986174Y-60571469D02*
X56890936Y-60523850D01*
X56890936Y-60523850D02*
X56843317Y-60476230D01*
X82486469Y-68534744D02*
X81486469Y-68534744D01*
X81486469Y-68534744D02*
X81486469Y-68296649D01*
X81486469Y-68296649D02*
X81534088Y-68153792D01*
X81534088Y-68153792D02*
X81629326Y-68058554D01*
X81629326Y-68058554D02*
X81724564Y-68010935D01*
X81724564Y-68010935D02*
X81915040Y-67963316D01*
X81915040Y-67963316D02*
X82057897Y-67963316D01*
X82057897Y-67963316D02*
X82248373Y-68010935D01*
X82248373Y-68010935D02*
X82343611Y-68058554D01*
X82343611Y-68058554D02*
X82438850Y-68153792D01*
X82438850Y-68153792D02*
X82486469Y-68296649D01*
X82486469Y-68296649D02*
X82486469Y-68534744D01*
X82486469Y-67010935D02*
X82486469Y-67582363D01*
X82486469Y-67296649D02*
X81486469Y-67296649D01*
X81486469Y-67296649D02*
X81629326Y-67391887D01*
X81629326Y-67391887D02*
X81724564Y-67487125D01*
X81724564Y-67487125D02*
X81772183Y-67582363D01*
X82656469Y-73138554D02*
X81656469Y-73138554D01*
X82656469Y-72567126D02*
X82085040Y-72995697D01*
X81656469Y-72567126D02*
X82227897Y-73138554D01*
X54197483Y-73631230D02*
X54149864Y-73678850D01*
X54149864Y-73678850D02*
X54007007Y-73726469D01*
X54007007Y-73726469D02*
X53911769Y-73726469D01*
X53911769Y-73726469D02*
X53768912Y-73678850D01*
X53768912Y-73678850D02*
X53673674Y-73583611D01*
X53673674Y-73583611D02*
X53626055Y-73488373D01*
X53626055Y-73488373D02*
X53578436Y-73297897D01*
X53578436Y-73297897D02*
X53578436Y-73155040D01*
X53578436Y-73155040D02*
X53626055Y-72964564D01*
X53626055Y-72964564D02*
X53673674Y-72869326D01*
X53673674Y-72869326D02*
X53768912Y-72774088D01*
X53768912Y-72774088D02*
X53911769Y-72726469D01*
X53911769Y-72726469D02*
X54007007Y-72726469D01*
X54007007Y-72726469D02*
X54149864Y-72774088D01*
X54149864Y-72774088D02*
X54197483Y-72821707D01*
X54673674Y-73726469D02*
X54864150Y-73726469D01*
X54864150Y-73726469D02*
X54959388Y-73678850D01*
X54959388Y-73678850D02*
X55007007Y-73631230D01*
X55007007Y-73631230D02*
X55102245Y-73488373D01*
X55102245Y-73488373D02*
X55149864Y-73297897D01*
X55149864Y-73297897D02*
X55149864Y-72916945D01*
X55149864Y-72916945D02*
X55102245Y-72821707D01*
X55102245Y-72821707D02*
X55054626Y-72774088D01*
X55054626Y-72774088D02*
X54959388Y-72726469D01*
X54959388Y-72726469D02*
X54768912Y-72726469D01*
X54768912Y-72726469D02*
X54673674Y-72774088D01*
X54673674Y-72774088D02*
X54626055Y-72821707D01*
X54626055Y-72821707D02*
X54578436Y-72916945D01*
X54578436Y-72916945D02*
X54578436Y-73155040D01*
X54578436Y-73155040D02*
X54626055Y-73250278D01*
X54626055Y-73250278D02*
X54673674Y-73297897D01*
X54673674Y-73297897D02*
X54768912Y-73345516D01*
X54768912Y-73345516D02*
X54959388Y-73345516D01*
X54959388Y-73345516D02*
X55054626Y-73297897D01*
X55054626Y-73297897D02*
X55102245Y-73250278D01*
X55102245Y-73250278D02*
X55149864Y-73155040D01*
X51253316Y-59171469D02*
X51253316Y-59885754D01*
X51253316Y-59885754D02*
X51205697Y-60028611D01*
X51205697Y-60028611D02*
X51110459Y-60123850D01*
X51110459Y-60123850D02*
X50967602Y-60171469D01*
X50967602Y-60171469D02*
X50872364Y-60171469D01*
X52158078Y-59504802D02*
X52158078Y-60171469D01*
X51919983Y-59123850D02*
X51681888Y-59838135D01*
X51681888Y-59838135D02*
X52300935Y-59838135D01*
X72409983Y-60481469D02*
X72076650Y-60005278D01*
X71838555Y-60481469D02*
X71838555Y-59481469D01*
X71838555Y-59481469D02*
X72219507Y-59481469D01*
X72219507Y-59481469D02*
X72314745Y-59529088D01*
X72314745Y-59529088D02*
X72362364Y-59576707D01*
X72362364Y-59576707D02*
X72409983Y-59671945D01*
X72409983Y-59671945D02*
X72409983Y-59814802D01*
X72409983Y-59814802D02*
X72362364Y-59910040D01*
X72362364Y-59910040D02*
X72314745Y-59957659D01*
X72314745Y-59957659D02*
X72219507Y-60005278D01*
X72219507Y-60005278D02*
X71838555Y-60005278D01*
X72790936Y-59576707D02*
X72838555Y-59529088D01*
X72838555Y-59529088D02*
X72933793Y-59481469D01*
X72933793Y-59481469D02*
X73171888Y-59481469D01*
X73171888Y-59481469D02*
X73267126Y-59529088D01*
X73267126Y-59529088D02*
X73314745Y-59576707D01*
X73314745Y-59576707D02*
X73362364Y-59671945D01*
X73362364Y-59671945D02*
X73362364Y-59767183D01*
X73362364Y-59767183D02*
X73314745Y-59910040D01*
X73314745Y-59910040D02*
X72743317Y-60481469D01*
X72743317Y-60481469D02*
X73362364Y-60481469D01*
X66789983Y-60336230D02*
X66742364Y-60383850D01*
X66742364Y-60383850D02*
X66599507Y-60431469D01*
X66599507Y-60431469D02*
X66504269Y-60431469D01*
X66504269Y-60431469D02*
X66361412Y-60383850D01*
X66361412Y-60383850D02*
X66266174Y-60288611D01*
X66266174Y-60288611D02*
X66218555Y-60193373D01*
X66218555Y-60193373D02*
X66170936Y-60002897D01*
X66170936Y-60002897D02*
X66170936Y-59860040D01*
X66170936Y-59860040D02*
X66218555Y-59669564D01*
X66218555Y-59669564D02*
X66266174Y-59574326D01*
X66266174Y-59574326D02*
X66361412Y-59479088D01*
X66361412Y-59479088D02*
X66504269Y-59431469D01*
X66504269Y-59431469D02*
X66599507Y-59431469D01*
X66599507Y-59431469D02*
X66742364Y-59479088D01*
X66742364Y-59479088D02*
X66789983Y-59526707D01*
X67694745Y-59431469D02*
X67218555Y-59431469D01*
X67218555Y-59431469D02*
X67170936Y-59907659D01*
X67170936Y-59907659D02*
X67218555Y-59860040D01*
X67218555Y-59860040D02*
X67313793Y-59812421D01*
X67313793Y-59812421D02*
X67551888Y-59812421D01*
X67551888Y-59812421D02*
X67647126Y-59860040D01*
X67647126Y-59860040D02*
X67694745Y-59907659D01*
X67694745Y-59907659D02*
X67742364Y-60002897D01*
X67742364Y-60002897D02*
X67742364Y-60240992D01*
X67742364Y-60240992D02*
X67694745Y-60336230D01*
X67694745Y-60336230D02*
X67647126Y-60383850D01*
X67647126Y-60383850D02*
X67551888Y-60431469D01*
X67551888Y-60431469D02*
X67313793Y-60431469D01*
X67313793Y-60431469D02*
X67218555Y-60383850D01*
X67218555Y-60383850D02*
X67170936Y-60336230D01*
X83003316Y-59171469D02*
X83003316Y-59885754D01*
X83003316Y-59885754D02*
X82955697Y-60028611D01*
X82955697Y-60028611D02*
X82860459Y-60123850D01*
X82860459Y-60123850D02*
X82717602Y-60171469D01*
X82717602Y-60171469D02*
X82622364Y-60171469D01*
X83384269Y-59171469D02*
X84003316Y-59171469D01*
X84003316Y-59171469D02*
X83669983Y-59552421D01*
X83669983Y-59552421D02*
X83812840Y-59552421D01*
X83812840Y-59552421D02*
X83908078Y-59600040D01*
X83908078Y-59600040D02*
X83955697Y-59647659D01*
X83955697Y-59647659D02*
X84003316Y-59742897D01*
X84003316Y-59742897D02*
X84003316Y-59980992D01*
X84003316Y-59980992D02*
X83955697Y-60076230D01*
X83955697Y-60076230D02*
X83908078Y-60123850D01*
X83908078Y-60123850D02*
X83812840Y-60171469D01*
X83812840Y-60171469D02*
X83527126Y-60171469D01*
X83527126Y-60171469D02*
X83431888Y-60123850D01*
X83431888Y-60123850D02*
X83384269Y-60076230D01*
X75929983Y-60481469D02*
X75596650Y-60005278D01*
X75358555Y-60481469D02*
X75358555Y-59481469D01*
X75358555Y-59481469D02*
X75739507Y-59481469D01*
X75739507Y-59481469D02*
X75834745Y-59529088D01*
X75834745Y-59529088D02*
X75882364Y-59576707D01*
X75882364Y-59576707D02*
X75929983Y-59671945D01*
X75929983Y-59671945D02*
X75929983Y-59814802D01*
X75929983Y-59814802D02*
X75882364Y-59910040D01*
X75882364Y-59910040D02*
X75834745Y-59957659D01*
X75834745Y-59957659D02*
X75739507Y-60005278D01*
X75739507Y-60005278D02*
X75358555Y-60005278D01*
X76882364Y-60481469D02*
X76310936Y-60481469D01*
X76596650Y-60481469D02*
X76596650Y-59481469D01*
X76596650Y-59481469D02*
X76501412Y-59624326D01*
X76501412Y-59624326D02*
X76406174Y-59719564D01*
X76406174Y-59719564D02*
X76310936Y-59767183D01*
X45118316Y-74071469D02*
X45118316Y-74785754D01*
X45118316Y-74785754D02*
X45070697Y-74928611D01*
X45070697Y-74928611D02*
X44975459Y-75023850D01*
X44975459Y-75023850D02*
X44832602Y-75071469D01*
X44832602Y-75071469D02*
X44737364Y-75071469D01*
X46070697Y-74071469D02*
X45594507Y-74071469D01*
X45594507Y-74071469D02*
X45546888Y-74547659D01*
X45546888Y-74547659D02*
X45594507Y-74500040D01*
X45594507Y-74500040D02*
X45689745Y-74452421D01*
X45689745Y-74452421D02*
X45927840Y-74452421D01*
X45927840Y-74452421D02*
X46023078Y-74500040D01*
X46023078Y-74500040D02*
X46070697Y-74547659D01*
X46070697Y-74547659D02*
X46118316Y-74642897D01*
X46118316Y-74642897D02*
X46118316Y-74880992D01*
X46118316Y-74880992D02*
X46070697Y-74976230D01*
X46070697Y-74976230D02*
X46023078Y-75023850D01*
X46023078Y-75023850D02*
X45927840Y-75071469D01*
X45927840Y-75071469D02*
X45689745Y-75071469D01*
X45689745Y-75071469D02*
X45594507Y-75023850D01*
X45594507Y-75023850D02*
X45546888Y-74976230D01*
X76364745Y-69196469D02*
X76364745Y-70005992D01*
X76364745Y-70005992D02*
X76412364Y-70101230D01*
X76412364Y-70101230D02*
X76459983Y-70148850D01*
X76459983Y-70148850D02*
X76555221Y-70196469D01*
X76555221Y-70196469D02*
X76745697Y-70196469D01*
X76745697Y-70196469D02*
X76840935Y-70148850D01*
X76840935Y-70148850D02*
X76888554Y-70101230D01*
X76888554Y-70101230D02*
X76936173Y-70005992D01*
X76936173Y-70005992D02*
X76936173Y-69196469D01*
X77936173Y-70196469D02*
X77364745Y-70196469D01*
X77650459Y-70196469D02*
X77650459Y-69196469D01*
X77650459Y-69196469D02*
X77555221Y-69339326D01*
X77555221Y-69339326D02*
X77459983Y-69434564D01*
X77459983Y-69434564D02*
X77364745Y-69482183D01*
X41621469Y-68449983D02*
X42335754Y-68449983D01*
X42335754Y-68449983D02*
X42478611Y-68497602D01*
X42478611Y-68497602D02*
X42573850Y-68592840D01*
X42573850Y-68592840D02*
X42621469Y-68735697D01*
X42621469Y-68735697D02*
X42621469Y-68830935D01*
X41621469Y-68069030D02*
X41621469Y-67402364D01*
X41621469Y-67402364D02*
X42621469Y-67830935D01*
X54116595Y-142545519D02*
X54116595Y-141545519D01*
X54688023Y-142545519D02*
X54259452Y-141974090D01*
X54688023Y-141545519D02*
X54116595Y-142116947D01*
D11*
%TO.C,J6*%
X122875000Y-65870000D02*
X123935000Y-65870000D01*
X122875000Y-66930000D02*
X122875000Y-65870000D01*
X122875000Y-67930000D02*
X122875000Y-71990000D01*
X122875000Y-67930000D02*
X124995000Y-67930000D01*
X122875000Y-71990000D02*
X124995000Y-71990000D01*
X124995000Y-67930000D02*
X124995000Y-71990000D01*
%TO.C,C6*%
X114000000Y-63203752D02*
X114000000Y-62681248D01*
X115470000Y-63203752D02*
X115470000Y-62681248D01*
%TO.C,C2*%
X130525000Y-75170000D02*
X132875000Y-75170000D01*
X130525000Y-80925563D02*
X130525000Y-75170000D01*
X131589437Y-81990000D02*
X130525000Y-80925563D01*
X131589437Y-81990000D02*
X132875000Y-81990000D01*
X131693750Y-82623750D02*
X132481250Y-82623750D01*
X132087500Y-83017500D02*
X132087500Y-82230000D01*
X136280563Y-81990000D02*
X134995000Y-81990000D01*
X136280563Y-81990000D02*
X137345000Y-80925563D01*
X137345000Y-75170000D02*
X134995000Y-75170000D01*
X137345000Y-80925563D02*
X137345000Y-75170000D01*
%TO.C,J1*%
X94780000Y-61180000D02*
X94780000Y-58280000D01*
X96685000Y-56375000D02*
X99585000Y-56375000D01*
X96685000Y-63085000D02*
X99585000Y-63085000D01*
X101490000Y-61180000D02*
X101490000Y-58280000D01*
%TO.C,C4*%
X109100000Y-75609437D02*
X109100000Y-81365000D01*
X109100000Y-81365000D02*
X111450000Y-81365000D01*
X110164437Y-74545000D02*
X109100000Y-75609437D01*
X110164437Y-74545000D02*
X111450000Y-74545000D01*
X114357500Y-73517500D02*
X114357500Y-74305000D01*
X114751250Y-73911250D02*
X113963750Y-73911250D01*
X114855563Y-74545000D02*
X113570000Y-74545000D01*
X114855563Y-74545000D02*
X115920000Y-75609437D01*
X115920000Y-75609437D02*
X115920000Y-81365000D01*
X115920000Y-81365000D02*
X113570000Y-81365000D01*
%TO.C,C7*%
X102508752Y-70645000D02*
X101986248Y-70645000D01*
X102508752Y-72115000D02*
X101986248Y-72115000D01*
%TO.C,R6*%
X111225000Y-63132064D02*
X111225000Y-62677936D01*
X112695000Y-63132064D02*
X112695000Y-62677936D01*
%TO.C,C8*%
X107108752Y-66170000D02*
X106586248Y-66170000D01*
X107108752Y-67640000D02*
X106586248Y-67640000D01*
%TO.C,C10*%
X99611248Y-64445000D02*
X100133752Y-64445000D01*
X99611248Y-65915000D02*
X100133752Y-65915000D01*
%TO.C,C3*%
X122750000Y-78131248D02*
X122750000Y-78653752D01*
X124220000Y-78131248D02*
X124220000Y-78653752D01*
%TO.C,J2*%
X139755000Y-63850000D02*
X139755000Y-74070000D01*
X139755000Y-63850000D02*
X142415000Y-63850000D01*
X139755000Y-74070000D02*
X142415000Y-74070000D01*
X141085000Y-61250000D02*
X142415000Y-61250000D01*
X142415000Y-61250000D02*
X142415000Y-62580000D01*
X142415000Y-63850000D02*
X142415000Y-74070000D01*
%TO.C,R4*%
X105250000Y-63182064D02*
X105250000Y-62727936D01*
X106720000Y-63182064D02*
X106720000Y-62727936D01*
%TO.C,C1*%
X126575000Y-76953752D02*
X126575000Y-76431248D01*
X128045000Y-76953752D02*
X128045000Y-76431248D01*
%TO.C,R3*%
X108600000Y-63157064D02*
X108600000Y-62702936D01*
X110070000Y-63157064D02*
X110070000Y-62702936D01*
%TO.C,C9*%
X107183752Y-70820000D02*
X106661248Y-70820000D01*
X107183752Y-72290000D02*
X106661248Y-72290000D01*
%TO.C,J4*%
X105355000Y-55810000D02*
X106685000Y-55810000D01*
X105355000Y-57140000D02*
X105355000Y-55810000D01*
X107955000Y-55810000D02*
X123255000Y-55810000D01*
X107955000Y-58470000D02*
X107955000Y-55810000D01*
X107955000Y-58470000D02*
X123255000Y-58470000D01*
X123255000Y-58470000D02*
X123255000Y-55810000D01*
%TO.C,R2*%
X124550000Y-63157064D02*
X124550000Y-62702936D01*
X126020000Y-63157064D02*
X126020000Y-62702936D01*
%TO.C,J3*%
X124405000Y-55810000D02*
X125735000Y-55810000D01*
X124405000Y-57140000D02*
X124405000Y-55810000D01*
X127005000Y-55810000D02*
X142305000Y-55810000D01*
X127005000Y-58470000D02*
X127005000Y-55810000D01*
X127005000Y-58470000D02*
X142305000Y-58470000D01*
X142305000Y-58470000D02*
X142305000Y-55810000D01*
D12*
%TO.C,U1*%
X126283000Y-67803000D02*
X126283000Y-71607000D01*
X126283000Y-71607000D02*
X126731657Y-71607000D01*
X127881657Y-67803000D02*
X126283000Y-67803000D01*
X128038343Y-71607000D02*
X129031657Y-71607000D01*
X130338343Y-71607000D02*
X131331657Y-71607000D01*
X132638344Y-71607000D02*
X133087000Y-71607000D01*
X133087000Y-67803000D02*
X131488343Y-67803000D01*
X133087000Y-71607000D02*
X133087000Y-67803000D01*
X125267000Y-73255000D02*
G75*
G02*
X125013000Y-73255000I-127000J0D01*
G01*
X125013000Y-73255000D02*
G75*
G02*
X125267000Y-73255000I127000J0D01*
G01*
D11*
%TO.C,J7*%
X95725000Y-69140000D02*
X95725000Y-68080000D01*
X96785000Y-69140000D02*
X95725000Y-69140000D01*
X97785000Y-67020000D02*
X101845000Y-67020000D01*
X97785000Y-69140000D02*
X97785000Y-67020000D01*
X97785000Y-69140000D02*
X101845000Y-69140000D01*
X101845000Y-69140000D02*
X101845000Y-67020000D01*
%TO.C,Y1*%
X111360000Y-67230000D02*
X110910000Y-67230000D01*
X111360000Y-69130000D02*
X110910000Y-69130000D01*
X112510000Y-66480000D02*
X112510000Y-69880000D01*
X112510000Y-67635000D02*
X111360000Y-67230000D01*
X112510000Y-68725000D02*
X111360000Y-69130000D01*
X112510000Y-69880000D02*
X120910000Y-69880000D01*
X120910000Y-66480000D02*
X112510000Y-66480000D01*
X120910000Y-69880000D02*
X120910000Y-66480000D01*
%TO.C,R5*%
X118732936Y-74470000D02*
X119187064Y-74470000D01*
X118732936Y-75940000D02*
X119187064Y-75940000D01*
%TO.C,D1*%
X135590000Y-66120000D02*
X135590000Y-69400000D01*
X135590000Y-68704000D02*
X137430000Y-68704000D01*
X135590000Y-68824000D02*
X137430000Y-68824000D01*
X135590000Y-68944000D02*
X137430000Y-68944000D01*
X135590000Y-69400000D02*
X137430000Y-69400000D01*
X136510000Y-63670000D02*
X136510000Y-66120000D01*
X136510000Y-71850000D02*
X136510000Y-69400000D01*
X137430000Y-66120000D02*
X135590000Y-66120000D01*
X137430000Y-69400000D02*
X137430000Y-66120000D01*
%TO.C,J5*%
X94690000Y-75370000D02*
X94690000Y-78270000D01*
X96595000Y-73465000D02*
X99495000Y-73465000D01*
X96595000Y-80175000D02*
X99495000Y-80175000D01*
X101400000Y-75370000D02*
X101400000Y-78270000D01*
%TO.C,C5*%
X118800000Y-62756248D02*
X118800000Y-63278752D01*
X120270000Y-62756248D02*
X120270000Y-63278752D01*
%TO.C,R1*%
X127950000Y-63157064D02*
X127950000Y-62702936D01*
X129420000Y-63157064D02*
X129420000Y-62702936D01*
%TO.C,J4*%
X136835000Y-122290000D02*
X136835000Y-134350000D01*
X134715000Y-134350000D02*
X136835000Y-134350000D01*
X134715000Y-122290000D02*
X136835000Y-122290000D01*
X134715000Y-122290000D02*
X134715000Y-134350000D01*
X134715000Y-121290000D02*
X134715000Y-120230000D01*
X134715000Y-120230000D02*
X135775000Y-120230000D01*
%TO.C,U2*%
X142855000Y-116910400D02*
X138214000Y-116910400D01*
X142855000Y-113641400D02*
X141345000Y-113641400D01*
X142855000Y-109940400D02*
X141345000Y-109940400D01*
X142855000Y-106670400D02*
X142855000Y-116910400D01*
X142855000Y-106670400D02*
X138214000Y-106670400D01*
X141345000Y-106670400D02*
X141345000Y-116910400D01*
X138214000Y-106670400D02*
X138214000Y-116910400D01*
%TO.C,SW4*%
X107915000Y-101950000D02*
X107915000Y-97450000D01*
X105415000Y-96200000D02*
X103915000Y-96200000D01*
X103915000Y-103200000D02*
X105415000Y-103200000D01*
X101415000Y-97450000D02*
X101415000Y-101950000D01*
%TO.C,SW2*%
X125015000Y-101950000D02*
X125015000Y-97450000D01*
X122515000Y-96200000D02*
X121015000Y-96200000D01*
X121015000Y-103200000D02*
X122515000Y-103200000D01*
X118515000Y-97450000D02*
X118515000Y-101950000D01*
%TO.C,SW1*%
X133565000Y-101950000D02*
X133565000Y-97450000D01*
X131065000Y-96200000D02*
X129565000Y-96200000D01*
X129565000Y-103200000D02*
X131065000Y-103200000D01*
X127065000Y-97450000D02*
X127065000Y-101950000D01*
%TO.C,SW5*%
X99365000Y-101950000D02*
X99365000Y-97450000D01*
X96865000Y-96200000D02*
X95365000Y-96200000D01*
X95365000Y-103200000D02*
X96865000Y-103200000D01*
X92865000Y-97450000D02*
X92865000Y-101950000D01*
%TO.C,J6*%
X130675000Y-139850000D02*
X129345000Y-139850000D01*
X130675000Y-138520000D02*
X130675000Y-139850000D01*
X128075000Y-139850000D02*
X112775000Y-139850000D01*
X128075000Y-137190000D02*
X128075000Y-139850000D01*
X128075000Y-137190000D02*
X112775000Y-137190000D01*
X112775000Y-137190000D02*
X112775000Y-139850000D01*
%TO.C,R6*%
X113260000Y-134392936D02*
X113260000Y-134847064D01*
X111790000Y-134392936D02*
X111790000Y-134847064D01*
%TO.C,R12*%
X108600000Y-134442936D02*
X108600000Y-134897064D01*
X107130000Y-134442936D02*
X107130000Y-134897064D01*
%TO.C,J5*%
X107605000Y-140710000D02*
X107605000Y-138050000D01*
X92305000Y-140710000D02*
X107605000Y-140710000D01*
X92305000Y-140710000D02*
X92305000Y-138050000D01*
X92305000Y-138050000D02*
X107605000Y-138050000D01*
X89705000Y-139380000D02*
X89705000Y-138050000D01*
X89705000Y-138050000D02*
X91035000Y-138050000D01*
%TO.C,R7*%
X100590000Y-135217064D02*
X100590000Y-134762936D01*
X99120000Y-135217064D02*
X99120000Y-134762936D01*
%TO.C,SW3*%
X116465000Y-101950000D02*
X116465000Y-97450000D01*
X113965000Y-96200000D02*
X112465000Y-96200000D01*
X112465000Y-103200000D02*
X113965000Y-103200000D01*
X109965000Y-97450000D02*
X109965000Y-101950000D01*
%TO.C,R11*%
X103910000Y-134742936D02*
X103910000Y-135197064D01*
X102440000Y-134742936D02*
X102440000Y-135197064D01*
%TO.C,J3*%
X130934600Y-133514200D02*
X130934600Y-134574200D01*
X129874600Y-133514200D02*
X130934600Y-133514200D01*
X128874600Y-135634200D02*
X116814600Y-135634200D01*
X128874600Y-133514200D02*
X128874600Y-135634200D01*
X128874600Y-133514200D02*
X116814600Y-133514200D01*
X116814600Y-133514200D02*
X116814600Y-135634200D01*
%TO.C,J8*%
X107245000Y-147220000D02*
X107245000Y-144560000D01*
X91945000Y-147220000D02*
X107245000Y-147220000D01*
X91945000Y-147220000D02*
X91945000Y-144560000D01*
X91945000Y-144560000D02*
X107245000Y-144560000D01*
X89345000Y-145890000D02*
X89345000Y-144560000D01*
X89345000Y-144560000D02*
X90675000Y-144560000D01*
%TO.C,J7*%
X131535000Y-147020000D02*
X130205000Y-147020000D01*
X131535000Y-145690000D02*
X131535000Y-147020000D01*
X128935000Y-147020000D02*
X113635000Y-147020000D01*
X128935000Y-144360000D02*
X128935000Y-147020000D01*
X128935000Y-144360000D02*
X113635000Y-144360000D01*
X113635000Y-144360000D02*
X113635000Y-147020000D01*
D13*
%TO.C,B1*%
X132205000Y-132267500D02*
X106205000Y-132267500D01*
X132205000Y-106267500D02*
X132205000Y-132267500D01*
X126205000Y-108267500D02*
X126205000Y-106267500D01*
X126205000Y-106267500D02*
X132205000Y-106267500D01*
X112205000Y-108267500D02*
X126205000Y-108267500D01*
X112205000Y-106267500D02*
X112205000Y-108267500D01*
X106205000Y-132267500D02*
X106205000Y-106267500D01*
X106205000Y-106267500D02*
X112205000Y-106267500D01*
D14*
X123305000Y-132767500D02*
G75*
G02*
X123105000Y-132767500I-100000J0D01*
G01*
X123105000Y-132767500D02*
G75*
G02*
X123305000Y-132767500I100000J0D01*
G01*
D11*
%TO.C,SW6*%
X90055000Y-99480000D02*
X90055000Y-104090000D01*
X90055000Y-90470000D02*
X90055000Y-95080000D01*
X87345000Y-90470000D02*
X90055000Y-90470000D01*
X87095000Y-104090000D02*
X90055000Y-104090000D01*
X84595000Y-104090000D02*
X85395000Y-104090000D01*
X82345000Y-90470000D02*
X85145000Y-90470000D01*
X82295000Y-104090000D02*
X82895000Y-104090000D01*
X80195000Y-104090000D02*
X77435000Y-104090000D01*
X77445000Y-95080000D02*
X77445000Y-90470000D01*
X77445000Y-90470000D02*
X80145000Y-90470000D01*
X77435000Y-104090000D02*
X77435000Y-99480000D01*
%TO.C,D1*%
X76995000Y-138520000D02*
X76995000Y-134280000D01*
X76995000Y-134280000D02*
X74755000Y-134280000D01*
X75875000Y-140440000D02*
X75875000Y-138520000D01*
X75875000Y-132360000D02*
X75875000Y-134280000D01*
X74755000Y-138520000D02*
X76995000Y-138520000D01*
X74755000Y-137920000D02*
X76995000Y-137920000D01*
X74755000Y-137800000D02*
X76995000Y-137800000D01*
X74755000Y-137680000D02*
X76995000Y-137680000D01*
X74755000Y-134280000D02*
X74755000Y-138520000D01*
D13*
%TO.C,B2*%
X105500000Y-132276000D02*
X79500000Y-132276000D01*
X105500000Y-106276000D02*
X105500000Y-132276000D01*
X99500000Y-108276000D02*
X99500000Y-106276000D01*
X99500000Y-106276000D02*
X105500000Y-106276000D01*
X85500000Y-108276000D02*
X99500000Y-108276000D01*
X85500000Y-106276000D02*
X85500000Y-108276000D01*
X79500000Y-132276000D02*
X79500000Y-106276000D01*
X79500000Y-106276000D02*
X85500000Y-106276000D01*
D14*
X96600000Y-132776000D02*
G75*
G02*
X96400000Y-132776000I-100000J0D01*
G01*
X96400000Y-132776000D02*
G75*
G02*
X96600000Y-132776000I100000J0D01*
G01*
D11*
%TO.C,C6*%
X61441650Y-63240402D02*
X61441650Y-62717898D01*
X62911650Y-63240402D02*
X62911650Y-62717898D01*
%TO.C,J6*%
X70316650Y-72026650D02*
X72436650Y-72026650D01*
X70316650Y-67966650D02*
X70316650Y-72026650D01*
X70316650Y-67966650D02*
X72436650Y-67966650D01*
X72436650Y-67966650D02*
X72436650Y-72026650D01*
X70316650Y-66966650D02*
X70316650Y-65906650D01*
X70316650Y-65906650D02*
X71376650Y-65906650D01*
%TO.C,C2*%
X79529150Y-83054150D02*
X79529150Y-82266650D01*
X79135400Y-82660400D02*
X79922900Y-82660400D01*
X79031087Y-82026650D02*
X80316650Y-82026650D01*
X79031087Y-82026650D02*
X77966650Y-80962213D01*
X83722213Y-82026650D02*
X82436650Y-82026650D01*
X83722213Y-82026650D02*
X84786650Y-80962213D01*
X77966650Y-80962213D02*
X77966650Y-75206650D01*
X84786650Y-80962213D02*
X84786650Y-75206650D01*
X77966650Y-75206650D02*
X80316650Y-75206650D01*
X84786650Y-75206650D02*
X82436650Y-75206650D01*
%TO.C,J2*%
X87196650Y-74106650D02*
X89856650Y-74106650D01*
X87196650Y-63886650D02*
X87196650Y-74106650D01*
X87196650Y-63886650D02*
X89856650Y-63886650D01*
X89856650Y-63886650D02*
X89856650Y-74106650D01*
X88526650Y-61286650D02*
X89856650Y-61286650D01*
X89856650Y-61286650D02*
X89856650Y-62616650D01*
%TO.C,J1*%
X44126650Y-63121650D02*
X47026650Y-63121650D01*
X42221650Y-61216650D02*
X42221650Y-58316650D01*
X48931650Y-61216650D02*
X48931650Y-58316650D01*
X44126650Y-56411650D02*
X47026650Y-56411650D01*
%TO.C,C4*%
X56541650Y-81401650D02*
X58891650Y-81401650D01*
X63361650Y-81401650D02*
X61011650Y-81401650D01*
X56541650Y-75646087D02*
X56541650Y-81401650D01*
X63361650Y-75646087D02*
X63361650Y-81401650D01*
X57606087Y-74581650D02*
X56541650Y-75646087D01*
X57606087Y-74581650D02*
X58891650Y-74581650D01*
X62297213Y-74581650D02*
X63361650Y-75646087D01*
X62297213Y-74581650D02*
X61011650Y-74581650D01*
X62192900Y-73947900D02*
X61405400Y-73947900D01*
X61799150Y-73554150D02*
X61799150Y-74341650D01*
%TO.C,R6*%
X58666650Y-63168714D02*
X58666650Y-62714586D01*
X60136650Y-63168714D02*
X60136650Y-62714586D01*
%TO.C,R4*%
X52691650Y-63218714D02*
X52691650Y-62764586D01*
X54161650Y-63218714D02*
X54161650Y-62764586D01*
%TO.C,C8*%
X54550402Y-67676650D02*
X54027898Y-67676650D01*
X54550402Y-66206650D02*
X54027898Y-66206650D01*
%TO.C,C7*%
X49950402Y-72151650D02*
X49427898Y-72151650D01*
X49950402Y-70681650D02*
X49427898Y-70681650D01*
%TO.C,C10*%
X47052898Y-65951650D02*
X47575402Y-65951650D01*
X47052898Y-64481650D02*
X47575402Y-64481650D01*
%TO.C,C3*%
X70191650Y-78167898D02*
X70191650Y-78690402D01*
X71661650Y-78167898D02*
X71661650Y-78690402D01*
%TO.C,Y1*%
X59951650Y-69916650D02*
X68351650Y-69916650D01*
X68351650Y-69916650D02*
X68351650Y-66516650D01*
X58801650Y-69166650D02*
X58351650Y-69166650D01*
X59951650Y-68761650D02*
X58801650Y-69166650D01*
X59951650Y-67671650D02*
X58801650Y-67266650D01*
X58801650Y-67266650D02*
X58351650Y-67266650D01*
X59951650Y-66516650D02*
X59951650Y-69916650D01*
X68351650Y-66516650D02*
X59951650Y-66516650D01*
%TO.C,C1*%
X74016650Y-76990402D02*
X74016650Y-76467898D01*
X75486650Y-76990402D02*
X75486650Y-76467898D01*
%TO.C,R5*%
X66174586Y-75976650D02*
X66628714Y-75976650D01*
X66174586Y-74506650D02*
X66628714Y-74506650D01*
%TO.C,R3*%
X56041650Y-63193714D02*
X56041650Y-62739586D01*
X57511650Y-63193714D02*
X57511650Y-62739586D01*
%TO.C,D1*%
X83951650Y-71886650D02*
X83951650Y-69436650D01*
X83031650Y-69436650D02*
X84871650Y-69436650D01*
X84871650Y-69436650D02*
X84871650Y-66156650D01*
X83031650Y-68980650D02*
X84871650Y-68980650D01*
X83031650Y-68860650D02*
X84871650Y-68860650D01*
X83031650Y-68740650D02*
X84871650Y-68740650D01*
X83031650Y-66156650D02*
X83031650Y-69436650D01*
X84871650Y-66156650D02*
X83031650Y-66156650D01*
X83951650Y-63706650D02*
X83951650Y-66156650D01*
%TO.C,C9*%
X54625402Y-72326650D02*
X54102898Y-72326650D01*
X54625402Y-70856650D02*
X54102898Y-70856650D01*
%TO.C,J4*%
X55396650Y-58506650D02*
X70696650Y-58506650D01*
X55396650Y-58506650D02*
X55396650Y-55846650D01*
X70696650Y-58506650D02*
X70696650Y-55846650D01*
X52796650Y-57176650D02*
X52796650Y-55846650D01*
X52796650Y-55846650D02*
X54126650Y-55846650D01*
X55396650Y-55846650D02*
X70696650Y-55846650D01*
%TO.C,R2*%
X71991650Y-63193714D02*
X71991650Y-62739586D01*
X73461650Y-63193714D02*
X73461650Y-62739586D01*
%TO.C,C5*%
X66241650Y-62792898D02*
X66241650Y-63315402D01*
X67711650Y-62792898D02*
X67711650Y-63315402D01*
%TO.C,J3*%
X74446650Y-58506650D02*
X89746650Y-58506650D01*
X74446650Y-58506650D02*
X74446650Y-55846650D01*
X89746650Y-58506650D02*
X89746650Y-55846650D01*
X71846650Y-57176650D02*
X71846650Y-55846650D01*
X71846650Y-55846650D02*
X73176650Y-55846650D01*
X74446650Y-55846650D02*
X89746650Y-55846650D01*
%TO.C,R1*%
X75391650Y-63193714D02*
X75391650Y-62739586D01*
X76861650Y-63193714D02*
X76861650Y-62739586D01*
%TO.C,J5*%
X44036650Y-80211650D02*
X46936650Y-80211650D01*
X42131650Y-75406650D02*
X42131650Y-78306650D01*
X48841650Y-75406650D02*
X48841650Y-78306650D01*
X44036650Y-73501650D02*
X46936650Y-73501650D01*
D12*
%TO.C,U1*%
X73724650Y-71643650D02*
X74173307Y-71643650D01*
X75479993Y-71643650D02*
X76473307Y-71643650D01*
X77779993Y-71643650D02*
X78773307Y-71643650D01*
X80079994Y-71643650D02*
X80528650Y-71643650D01*
X80528650Y-71643650D02*
X80528650Y-67839650D01*
X73724650Y-67839650D02*
X73724650Y-71643650D01*
X75323307Y-67839650D02*
X73724650Y-67839650D01*
X80528650Y-67839650D02*
X78929993Y-67839650D01*
X72708650Y-73291650D02*
G75*
G02*
X72454650Y-73291650I-127000J0D01*
G01*
X72454650Y-73291650D02*
G75*
G02*
X72708650Y-73291650I127000J0D01*
G01*
D11*
%TO.C,J7*%
X43166650Y-69176650D02*
X43166650Y-68116650D01*
X44226650Y-69176650D02*
X43166650Y-69176650D01*
X45226650Y-69176650D02*
X49286650Y-69176650D01*
X45226650Y-69176650D02*
X45226650Y-67056650D01*
X49286650Y-69176650D02*
X49286650Y-67056650D01*
X45226650Y-67056650D02*
X49286650Y-67056650D01*
%TO.C,D1*%
X61048500Y-139310700D02*
X57768500Y-139310700D01*
X58464500Y-139310700D02*
X58464500Y-141150700D01*
X58344500Y-139310700D02*
X58344500Y-141150700D01*
X58224500Y-139310700D02*
X58224500Y-141150700D01*
X57768500Y-139310700D02*
X57768500Y-141150700D01*
X63498500Y-140230700D02*
X61048500Y-140230700D01*
X55318500Y-140230700D02*
X57768500Y-140230700D01*
X61048500Y-141150700D02*
X61048500Y-139310700D01*
X57768500Y-141150700D02*
X61048500Y-141150700D01*
%TO.C,C7*%
X50563500Y-119584452D02*
X50563500Y-119061948D01*
X49093500Y-119584452D02*
X49093500Y-119061948D01*
%TO.C,R2*%
X65191436Y-129045700D02*
X65645564Y-129045700D01*
X65191436Y-130515700D02*
X65645564Y-130515700D01*
%TO.C,Y1*%
X47028500Y-114800700D02*
X43628500Y-114800700D01*
X43628500Y-114800700D02*
X43628500Y-123200700D01*
X47028500Y-123200700D02*
X47028500Y-114800700D01*
X45873500Y-123200700D02*
X46278500Y-124350700D01*
X44783500Y-123200700D02*
X44378500Y-124350700D01*
X43628500Y-123200700D02*
X47028500Y-123200700D01*
X46278500Y-124350700D02*
X46278500Y-124800700D01*
X44378500Y-124350700D02*
X44378500Y-124800700D01*
%TO.C,J2*%
X62278500Y-143460700D02*
X52058500Y-143460700D01*
X62278500Y-143460700D02*
X62278500Y-146120700D01*
X52058500Y-143460700D02*
X52058500Y-146120700D01*
X64878500Y-144790700D02*
X64878500Y-146120700D01*
X64878500Y-146120700D02*
X63548500Y-146120700D01*
X62278500Y-146120700D02*
X52058500Y-146120700D01*
%TO.C,C9*%
X59582252Y-113105700D02*
X59059748Y-113105700D01*
X59582252Y-114575700D02*
X59059748Y-114575700D01*
%TO.C,L1*%
X53345000Y-98740000D02*
X47805000Y-98740000D01*
X47805000Y-98740000D02*
X47805000Y-101180000D01*
X54615000Y-99960000D02*
X53345000Y-99960000D01*
X46535000Y-99960000D02*
X47805000Y-99960000D01*
X53345000Y-101180000D02*
X53345000Y-98740000D01*
X47805000Y-101180000D02*
X53345000Y-101180000D01*
%TO.C,C6*%
X65579752Y-117525700D02*
X65057248Y-117525700D01*
X65579752Y-118995700D02*
X65057248Y-118995700D01*
%TO.C,C4*%
X66128500Y-99080700D02*
X63778500Y-99080700D01*
X59308500Y-99080700D02*
X61658500Y-99080700D01*
X66128500Y-104836263D02*
X66128500Y-99080700D01*
X59308500Y-104836263D02*
X59308500Y-99080700D01*
X65064063Y-105900700D02*
X66128500Y-104836263D01*
X65064063Y-105900700D02*
X63778500Y-105900700D01*
X60372937Y-105900700D02*
X59308500Y-104836263D01*
X60372937Y-105900700D02*
X61658500Y-105900700D01*
X60477250Y-106534450D02*
X61264750Y-106534450D01*
X60871000Y-106928200D02*
X60871000Y-106140700D01*
%TO.C,C3*%
X50413500Y-133879452D02*
X50413500Y-133356948D01*
X48943500Y-133879452D02*
X48943500Y-133356948D01*
%TO.C,C8*%
X58993500Y-108631952D02*
X58993500Y-108109448D01*
X57523500Y-108631952D02*
X57523500Y-108109448D01*
%TO.C,J6*%
X59298500Y-93760700D02*
X59298500Y-94820700D01*
X58238500Y-93760700D02*
X59298500Y-93760700D01*
X57238500Y-93760700D02*
X53178500Y-93760700D01*
X57238500Y-93760700D02*
X57238500Y-95880700D01*
X53178500Y-93760700D02*
X53178500Y-95880700D01*
X57238500Y-95880700D02*
X53178500Y-95880700D01*
%TO.C,J1*%
X65998500Y-89285500D02*
X67998500Y-89285500D01*
X70503700Y-91790700D02*
X70503700Y-93790700D01*
X63493300Y-93790700D02*
X63493300Y-91790700D01*
X67998500Y-96295900D02*
X65998500Y-96295900D01*
%TO.C,R3*%
X65061436Y-111245700D02*
X65515564Y-111245700D01*
X65061436Y-112715700D02*
X65515564Y-112715700D01*
%TO.C,C11*%
X50563500Y-127641948D02*
X50563500Y-128164452D01*
X49093500Y-127641948D02*
X49093500Y-128164452D01*
%TO.C,J5*%
X44618500Y-89315500D02*
X46618500Y-89315500D01*
X49123700Y-91820700D02*
X49123700Y-93820700D01*
X42113300Y-93820700D02*
X42113300Y-91820700D01*
X46618500Y-96325900D02*
X44618500Y-96325900D01*
%TO.C,J4*%
X70878500Y-105214100D02*
X70878500Y-106544100D01*
X69548500Y-105214100D02*
X70878500Y-105214100D01*
X70878500Y-107814100D02*
X70878500Y-123114100D01*
X68218500Y-107814100D02*
X70878500Y-107814100D01*
X68218500Y-107814100D02*
X68218500Y-123114100D01*
X68218500Y-123114100D02*
X70878500Y-123114100D01*
%TO.C,R4*%
X65041436Y-108785700D02*
X65495564Y-108785700D01*
X65041436Y-110255700D02*
X65495564Y-110255700D01*
%TO.C,J3*%
X70878500Y-126606300D02*
X70878500Y-127936300D01*
X69548500Y-126606300D02*
X70878500Y-126606300D01*
X70878500Y-129206300D02*
X70878500Y-144506300D01*
X68218500Y-129206300D02*
X70878500Y-129206300D01*
X68218500Y-129206300D02*
X68218500Y-144506300D01*
X68218500Y-144506300D02*
X70878500Y-144506300D01*
%TO.C,C2*%
X50394063Y-136830700D02*
X44638500Y-136830700D01*
X44638500Y-136830700D02*
X44638500Y-139180700D01*
X51458500Y-137895137D02*
X50394063Y-136830700D01*
X51458500Y-137895137D02*
X51458500Y-139180700D01*
X52486000Y-142088200D02*
X51698500Y-142088200D01*
X52092250Y-142481950D02*
X52092250Y-141694450D01*
X51458500Y-142586263D02*
X51458500Y-141300700D01*
X51458500Y-142586263D02*
X50394063Y-143650700D01*
X50394063Y-143650700D02*
X44638500Y-143650700D01*
X44638500Y-143650700D02*
X44638500Y-141300700D01*
%TO.C,C5*%
X65472252Y-121135700D02*
X64949748Y-121135700D01*
X65472252Y-122605700D02*
X64949748Y-122605700D01*
%TO.C,L2*%
X52628500Y-109160700D02*
X47088500Y-109160700D01*
X47088500Y-109160700D02*
X47088500Y-111600700D01*
X53898500Y-110380700D02*
X52628500Y-110380700D01*
X45818500Y-110380700D02*
X47088500Y-110380700D01*
X52628500Y-111600700D02*
X52628500Y-109160700D01*
X47088500Y-111600700D02*
X52628500Y-111600700D01*
D12*
%TO.C,U1*%
X58450500Y-131388700D02*
X54646500Y-131388700D01*
X54646500Y-131388700D02*
X54646500Y-131837357D01*
X58450500Y-132987357D02*
X58450500Y-131388700D01*
X54646500Y-133144043D02*
X54646500Y-134137357D01*
X54646500Y-135444043D02*
X54646500Y-136437357D01*
X54646500Y-137744044D02*
X54646500Y-138192700D01*
X58450500Y-138192700D02*
X58450500Y-136594043D01*
X54646500Y-138192700D02*
X58450500Y-138192700D01*
X53125500Y-130245700D02*
G75*
G02*
X52871500Y-130245700I-127000J0D01*
G01*
X52871500Y-130245700D02*
G75*
G02*
X53125500Y-130245700I127000J0D01*
G01*
D11*
%TO.C,R5*%
X50603500Y-123373636D02*
X50603500Y-123827764D01*
X49133500Y-123373636D02*
X49133500Y-123827764D01*
%TO.C,L3*%
X52728500Y-103360700D02*
X47188500Y-103360700D01*
X47188500Y-103360700D02*
X47188500Y-105800700D01*
X53998500Y-104580700D02*
X52728500Y-104580700D01*
X45918500Y-104580700D02*
X47188500Y-104580700D01*
X52728500Y-105800700D02*
X52728500Y-103360700D01*
X47188500Y-105800700D02*
X52728500Y-105800700D01*
%TO.C,R1*%
X65351436Y-133955700D02*
X65805564Y-133955700D01*
X65351436Y-135425700D02*
X65805564Y-135425700D01*
%TO.C,C1*%
X50513500Y-114174452D02*
X50513500Y-113651948D01*
X49043500Y-114174452D02*
X49043500Y-113651948D01*
%TO.C,R7*%
X65585564Y-113855700D02*
X65131436Y-113855700D01*
X65585564Y-115325700D02*
X65131436Y-115325700D01*
%TO.C,C10*%
X45389748Y-129775700D02*
X45912252Y-129775700D01*
X45389748Y-131245700D02*
X45912252Y-131245700D01*
%TO.C,J7*%
X56138500Y-116880700D02*
X60198500Y-116880700D01*
X60198500Y-119000700D02*
X60198500Y-116880700D01*
X56138500Y-119000700D02*
X56138500Y-116880700D01*
X56138500Y-119000700D02*
X60198500Y-119000700D01*
X55138500Y-119000700D02*
X54078500Y-119000700D01*
X54078500Y-119000700D02*
X54078500Y-117940700D01*
%TD*%
M02*
