%TF.GenerationSoftware,KiCad,Pcbnew,8.0.4*%
%TF.CreationDate,2025-05-03T00:51:18+05:30*%
%TF.ProjectId,TEST PNAL,54455354-2050-44e4-914c-2e6b69636164,rev?*%
%TF.SameCoordinates,Original*%
%TF.FileFunction,Legend,Bot*%
%TF.FilePolarity,Positive*%
%FSLAX46Y46*%
G04 Gerber Fmt 4.6, Leading zero omitted, Abs format (unit mm)*
G04 Created by KiCad (PCBNEW 8.0.4) date 2025-05-03 00:51:18*
%MOMM*%
%LPD*%
G01*
G04 APERTURE LIST*
%ADD10C,0.150000*%
%ADD11C,0.120000*%
%ADD12C,0.127000*%
%ADD13C,0.300000*%
G04 APERTURE END LIST*
D10*
X141658169Y-79790016D02*
X142372454Y-79790016D01*
X142372454Y-79790016D02*
X142515311Y-79742397D01*
X142515311Y-79742397D02*
X142610550Y-79647159D01*
X142610550Y-79647159D02*
X142658169Y-79504302D01*
X142658169Y-79504302D02*
X142658169Y-79409064D01*
X142086740Y-80409064D02*
X142039121Y-80313826D01*
X142039121Y-80313826D02*
X141991502Y-80266207D01*
X141991502Y-80266207D02*
X141896264Y-80218588D01*
X141896264Y-80218588D02*
X141848645Y-80218588D01*
X141848645Y-80218588D02*
X141753407Y-80266207D01*
X141753407Y-80266207D02*
X141705788Y-80313826D01*
X141705788Y-80313826D02*
X141658169Y-80409064D01*
X141658169Y-80409064D02*
X141658169Y-80599540D01*
X141658169Y-80599540D02*
X141705788Y-80694778D01*
X141705788Y-80694778D02*
X141753407Y-80742397D01*
X141753407Y-80742397D02*
X141848645Y-80790016D01*
X141848645Y-80790016D02*
X141896264Y-80790016D01*
X141896264Y-80790016D02*
X141991502Y-80742397D01*
X141991502Y-80742397D02*
X142039121Y-80694778D01*
X142039121Y-80694778D02*
X142086740Y-80599540D01*
X142086740Y-80599540D02*
X142086740Y-80409064D01*
X142086740Y-80409064D02*
X142134359Y-80313826D01*
X142134359Y-80313826D02*
X142181978Y-80266207D01*
X142181978Y-80266207D02*
X142277216Y-80218588D01*
X142277216Y-80218588D02*
X142467692Y-80218588D01*
X142467692Y-80218588D02*
X142562930Y-80266207D01*
X142562930Y-80266207D02*
X142610550Y-80313826D01*
X142610550Y-80313826D02*
X142658169Y-80409064D01*
X142658169Y-80409064D02*
X142658169Y-80599540D01*
X142658169Y-80599540D02*
X142610550Y-80694778D01*
X142610550Y-80694778D02*
X142562930Y-80742397D01*
X142562930Y-80742397D02*
X142467692Y-80790016D01*
X142467692Y-80790016D02*
X142277216Y-80790016D01*
X142277216Y-80790016D02*
X142181978Y-80742397D01*
X142181978Y-80742397D02*
X142134359Y-80694778D01*
X142134359Y-80694778D02*
X142086740Y-80599540D01*
X115639819Y-68208095D02*
X116449342Y-68208095D01*
X116449342Y-68208095D02*
X116544580Y-68255714D01*
X116544580Y-68255714D02*
X116592200Y-68303333D01*
X116592200Y-68303333D02*
X116639819Y-68398571D01*
X116639819Y-68398571D02*
X116639819Y-68589047D01*
X116639819Y-68589047D02*
X116592200Y-68684285D01*
X116592200Y-68684285D02*
X116544580Y-68731904D01*
X116544580Y-68731904D02*
X116449342Y-68779523D01*
X116449342Y-68779523D02*
X115639819Y-68779523D01*
X115735057Y-69208095D02*
X115687438Y-69255714D01*
X115687438Y-69255714D02*
X115639819Y-69350952D01*
X115639819Y-69350952D02*
X115639819Y-69589047D01*
X115639819Y-69589047D02*
X115687438Y-69684285D01*
X115687438Y-69684285D02*
X115735057Y-69731904D01*
X115735057Y-69731904D02*
X115830295Y-69779523D01*
X115830295Y-69779523D02*
X115925533Y-69779523D01*
X115925533Y-69779523D02*
X116068390Y-69731904D01*
X116068390Y-69731904D02*
X116639819Y-69160476D01*
X116639819Y-69160476D02*
X116639819Y-69779523D01*
X101919819Y-70943333D02*
X101919819Y-70467143D01*
X101919819Y-70467143D02*
X100919819Y-70467143D01*
X101919819Y-71800476D02*
X101919819Y-71229048D01*
X101919819Y-71514762D02*
X100919819Y-71514762D01*
X100919819Y-71514762D02*
X101062676Y-71419524D01*
X101062676Y-71419524D02*
X101157914Y-71324286D01*
X101157914Y-71324286D02*
X101205533Y-71229048D01*
X111786904Y-147412819D02*
X111215476Y-147412819D01*
X111501190Y-148412819D02*
X111501190Y-147412819D01*
X110882142Y-148412819D02*
X110882142Y-147412819D01*
X110882142Y-147412819D02*
X110501190Y-147412819D01*
X110501190Y-147412819D02*
X110405952Y-147460438D01*
X110405952Y-147460438D02*
X110358333Y-147508057D01*
X110358333Y-147508057D02*
X110310714Y-147603295D01*
X110310714Y-147603295D02*
X110310714Y-147746152D01*
X110310714Y-147746152D02*
X110358333Y-147841390D01*
X110358333Y-147841390D02*
X110405952Y-147889009D01*
X110405952Y-147889009D02*
X110501190Y-147936628D01*
X110501190Y-147936628D02*
X110882142Y-147936628D01*
X109453571Y-147412819D02*
X109644047Y-147412819D01*
X109644047Y-147412819D02*
X109739285Y-147460438D01*
X109739285Y-147460438D02*
X109786904Y-147508057D01*
X109786904Y-147508057D02*
X109882142Y-147650914D01*
X109882142Y-147650914D02*
X109929761Y-147841390D01*
X109929761Y-147841390D02*
X109929761Y-148222342D01*
X109929761Y-148222342D02*
X109882142Y-148317580D01*
X109882142Y-148317580D02*
X109834523Y-148365200D01*
X109834523Y-148365200D02*
X109739285Y-148412819D01*
X109739285Y-148412819D02*
X109548809Y-148412819D01*
X109548809Y-148412819D02*
X109453571Y-148365200D01*
X109453571Y-148365200D02*
X109405952Y-148317580D01*
X109405952Y-148317580D02*
X109358333Y-148222342D01*
X109358333Y-148222342D02*
X109358333Y-147984247D01*
X109358333Y-147984247D02*
X109405952Y-147889009D01*
X109405952Y-147889009D02*
X109453571Y-147841390D01*
X109453571Y-147841390D02*
X109548809Y-147793771D01*
X109548809Y-147793771D02*
X109739285Y-147793771D01*
X109739285Y-147793771D02*
X109834523Y-147841390D01*
X109834523Y-147841390D02*
X109882142Y-147889009D01*
X109882142Y-147889009D02*
X109929761Y-147984247D01*
X100739066Y-114451180D02*
X100786685Y-114498800D01*
X100786685Y-114498800D02*
X100929542Y-114546419D01*
X100929542Y-114546419D02*
X101024780Y-114546419D01*
X101024780Y-114546419D02*
X101167637Y-114498800D01*
X101167637Y-114498800D02*
X101262875Y-114403561D01*
X101262875Y-114403561D02*
X101310494Y-114308323D01*
X101310494Y-114308323D02*
X101358113Y-114117847D01*
X101358113Y-114117847D02*
X101358113Y-113974990D01*
X101358113Y-113974990D02*
X101310494Y-113784514D01*
X101310494Y-113784514D02*
X101262875Y-113689276D01*
X101262875Y-113689276D02*
X101167637Y-113594038D01*
X101167637Y-113594038D02*
X101024780Y-113546419D01*
X101024780Y-113546419D02*
X100929542Y-113546419D01*
X100929542Y-113546419D02*
X100786685Y-113594038D01*
X100786685Y-113594038D02*
X100739066Y-113641657D01*
X99881923Y-113546419D02*
X100072399Y-113546419D01*
X100072399Y-113546419D02*
X100167637Y-113594038D01*
X100167637Y-113594038D02*
X100215256Y-113641657D01*
X100215256Y-113641657D02*
X100310494Y-113784514D01*
X100310494Y-113784514D02*
X100358113Y-113974990D01*
X100358113Y-113974990D02*
X100358113Y-114355942D01*
X100358113Y-114355942D02*
X100310494Y-114451180D01*
X100310494Y-114451180D02*
X100262875Y-114498800D01*
X100262875Y-114498800D02*
X100167637Y-114546419D01*
X100167637Y-114546419D02*
X99977161Y-114546419D01*
X99977161Y-114546419D02*
X99881923Y-114498800D01*
X99881923Y-114498800D02*
X99834304Y-114451180D01*
X99834304Y-114451180D02*
X99786685Y-114355942D01*
X99786685Y-114355942D02*
X99786685Y-114117847D01*
X99786685Y-114117847D02*
X99834304Y-114022609D01*
X99834304Y-114022609D02*
X99881923Y-113974990D01*
X99881923Y-113974990D02*
X99977161Y-113927371D01*
X99977161Y-113927371D02*
X100167637Y-113927371D01*
X100167637Y-113927371D02*
X100262875Y-113974990D01*
X100262875Y-113974990D02*
X100310494Y-114022609D01*
X100310494Y-114022609D02*
X100358113Y-114117847D01*
X118161666Y-117559580D02*
X118209285Y-117607200D01*
X118209285Y-117607200D02*
X118352142Y-117654819D01*
X118352142Y-117654819D02*
X118447380Y-117654819D01*
X118447380Y-117654819D02*
X118590237Y-117607200D01*
X118590237Y-117607200D02*
X118685475Y-117511961D01*
X118685475Y-117511961D02*
X118733094Y-117416723D01*
X118733094Y-117416723D02*
X118780713Y-117226247D01*
X118780713Y-117226247D02*
X118780713Y-117083390D01*
X118780713Y-117083390D02*
X118733094Y-116892914D01*
X118733094Y-116892914D02*
X118685475Y-116797676D01*
X118685475Y-116797676D02*
X118590237Y-116702438D01*
X118590237Y-116702438D02*
X118447380Y-116654819D01*
X118447380Y-116654819D02*
X118352142Y-116654819D01*
X118352142Y-116654819D02*
X118209285Y-116702438D01*
X118209285Y-116702438D02*
X118161666Y-116750057D01*
X117828332Y-116654819D02*
X117209285Y-116654819D01*
X117209285Y-116654819D02*
X117542618Y-117035771D01*
X117542618Y-117035771D02*
X117399761Y-117035771D01*
X117399761Y-117035771D02*
X117304523Y-117083390D01*
X117304523Y-117083390D02*
X117256904Y-117131009D01*
X117256904Y-117131009D02*
X117209285Y-117226247D01*
X117209285Y-117226247D02*
X117209285Y-117464342D01*
X117209285Y-117464342D02*
X117256904Y-117559580D01*
X117256904Y-117559580D02*
X117304523Y-117607200D01*
X117304523Y-117607200D02*
X117399761Y-117654819D01*
X117399761Y-117654819D02*
X117685475Y-117654819D01*
X117685475Y-117654819D02*
X117780713Y-117607200D01*
X117780713Y-117607200D02*
X117828332Y-117559580D01*
X125814580Y-105915833D02*
X125862200Y-105868214D01*
X125862200Y-105868214D02*
X125909819Y-105725357D01*
X125909819Y-105725357D02*
X125909819Y-105630119D01*
X125909819Y-105630119D02*
X125862200Y-105487262D01*
X125862200Y-105487262D02*
X125766961Y-105392024D01*
X125766961Y-105392024D02*
X125671723Y-105344405D01*
X125671723Y-105344405D02*
X125481247Y-105296786D01*
X125481247Y-105296786D02*
X125338390Y-105296786D01*
X125338390Y-105296786D02*
X125147914Y-105344405D01*
X125147914Y-105344405D02*
X125052676Y-105392024D01*
X125052676Y-105392024D02*
X124957438Y-105487262D01*
X124957438Y-105487262D02*
X124909819Y-105630119D01*
X124909819Y-105630119D02*
X124909819Y-105725357D01*
X124909819Y-105725357D02*
X124957438Y-105868214D01*
X124957438Y-105868214D02*
X125005057Y-105915833D01*
X125909819Y-106868214D02*
X125909819Y-106296786D01*
X125909819Y-106582500D02*
X124909819Y-106582500D01*
X124909819Y-106582500D02*
X125052676Y-106487262D01*
X125052676Y-106487262D02*
X125147914Y-106392024D01*
X125147914Y-106392024D02*
X125195533Y-106296786D01*
X122271666Y-119424819D02*
X122604999Y-118948628D01*
X122843094Y-119424819D02*
X122843094Y-118424819D01*
X122843094Y-118424819D02*
X122462142Y-118424819D01*
X122462142Y-118424819D02*
X122366904Y-118472438D01*
X122366904Y-118472438D02*
X122319285Y-118520057D01*
X122319285Y-118520057D02*
X122271666Y-118615295D01*
X122271666Y-118615295D02*
X122271666Y-118758152D01*
X122271666Y-118758152D02*
X122319285Y-118853390D01*
X122319285Y-118853390D02*
X122366904Y-118901009D01*
X122366904Y-118901009D02*
X122462142Y-118948628D01*
X122462142Y-118948628D02*
X122843094Y-118948628D01*
X121366904Y-118424819D02*
X121843094Y-118424819D01*
X121843094Y-118424819D02*
X121890713Y-118901009D01*
X121890713Y-118901009D02*
X121843094Y-118853390D01*
X121843094Y-118853390D02*
X121747856Y-118805771D01*
X121747856Y-118805771D02*
X121509761Y-118805771D01*
X121509761Y-118805771D02*
X121414523Y-118853390D01*
X121414523Y-118853390D02*
X121366904Y-118901009D01*
X121366904Y-118901009D02*
X121319285Y-118996247D01*
X121319285Y-118996247D02*
X121319285Y-119234342D01*
X121319285Y-119234342D02*
X121366904Y-119329580D01*
X121366904Y-119329580D02*
X121414523Y-119377200D01*
X121414523Y-119377200D02*
X121509761Y-119424819D01*
X121509761Y-119424819D02*
X121747856Y-119424819D01*
X121747856Y-119424819D02*
X121843094Y-119377200D01*
X121843094Y-119377200D02*
X121890713Y-119329580D01*
X122747819Y-98458095D02*
X122747819Y-99029523D01*
X123747819Y-98743809D02*
X122747819Y-98743809D01*
X123747819Y-99362857D02*
X122747819Y-99362857D01*
X122747819Y-99362857D02*
X122747819Y-99743809D01*
X122747819Y-99743809D02*
X122795438Y-99839047D01*
X122795438Y-99839047D02*
X122843057Y-99886666D01*
X122843057Y-99886666D02*
X122938295Y-99934285D01*
X122938295Y-99934285D02*
X123081152Y-99934285D01*
X123081152Y-99934285D02*
X123176390Y-99886666D01*
X123176390Y-99886666D02*
X123224009Y-99839047D01*
X123224009Y-99839047D02*
X123271628Y-99743809D01*
X123271628Y-99743809D02*
X123271628Y-99362857D01*
X122843057Y-100315238D02*
X122795438Y-100362857D01*
X122795438Y-100362857D02*
X122747819Y-100458095D01*
X122747819Y-100458095D02*
X122747819Y-100696190D01*
X122747819Y-100696190D02*
X122795438Y-100791428D01*
X122795438Y-100791428D02*
X122843057Y-100839047D01*
X122843057Y-100839047D02*
X122938295Y-100886666D01*
X122938295Y-100886666D02*
X123033533Y-100886666D01*
X123033533Y-100886666D02*
X123176390Y-100839047D01*
X123176390Y-100839047D02*
X123747819Y-100267619D01*
X123747819Y-100267619D02*
X123747819Y-100886666D01*
X118705880Y-114519333D02*
X118753500Y-114471714D01*
X118753500Y-114471714D02*
X118801119Y-114328857D01*
X118801119Y-114328857D02*
X118801119Y-114233619D01*
X118801119Y-114233619D02*
X118753500Y-114090762D01*
X118753500Y-114090762D02*
X118658261Y-113995524D01*
X118658261Y-113995524D02*
X118563023Y-113947905D01*
X118563023Y-113947905D02*
X118372547Y-113900286D01*
X118372547Y-113900286D02*
X118229690Y-113900286D01*
X118229690Y-113900286D02*
X118039214Y-113947905D01*
X118039214Y-113947905D02*
X117943976Y-113995524D01*
X117943976Y-113995524D02*
X117848738Y-114090762D01*
X117848738Y-114090762D02*
X117801119Y-114233619D01*
X117801119Y-114233619D02*
X117801119Y-114328857D01*
X117801119Y-114328857D02*
X117848738Y-114471714D01*
X117848738Y-114471714D02*
X117896357Y-114519333D01*
X117801119Y-114852667D02*
X117801119Y-115519333D01*
X117801119Y-115519333D02*
X118801119Y-115090762D01*
X131337819Y-98438095D02*
X131337819Y-99009523D01*
X132337819Y-98723809D02*
X131337819Y-98723809D01*
X132337819Y-99342857D02*
X131337819Y-99342857D01*
X131337819Y-99342857D02*
X131337819Y-99723809D01*
X131337819Y-99723809D02*
X131385438Y-99819047D01*
X131385438Y-99819047D02*
X131433057Y-99866666D01*
X131433057Y-99866666D02*
X131528295Y-99914285D01*
X131528295Y-99914285D02*
X131671152Y-99914285D01*
X131671152Y-99914285D02*
X131766390Y-99866666D01*
X131766390Y-99866666D02*
X131814009Y-99819047D01*
X131814009Y-99819047D02*
X131861628Y-99723809D01*
X131861628Y-99723809D02*
X131861628Y-99342857D01*
X132337819Y-100866666D02*
X132337819Y-100295238D01*
X132337819Y-100580952D02*
X131337819Y-100580952D01*
X131337819Y-100580952D02*
X131480676Y-100485714D01*
X131480676Y-100485714D02*
X131575914Y-100390476D01*
X131575914Y-100390476D02*
X131623533Y-100295238D01*
X114277819Y-98588095D02*
X114277819Y-99159523D01*
X115277819Y-98873809D02*
X114277819Y-98873809D01*
X115277819Y-99492857D02*
X114277819Y-99492857D01*
X114277819Y-99492857D02*
X114277819Y-99873809D01*
X114277819Y-99873809D02*
X114325438Y-99969047D01*
X114325438Y-99969047D02*
X114373057Y-100016666D01*
X114373057Y-100016666D02*
X114468295Y-100064285D01*
X114468295Y-100064285D02*
X114611152Y-100064285D01*
X114611152Y-100064285D02*
X114706390Y-100016666D01*
X114706390Y-100016666D02*
X114754009Y-99969047D01*
X114754009Y-99969047D02*
X114801628Y-99873809D01*
X114801628Y-99873809D02*
X114801628Y-99492857D01*
X114277819Y-100397619D02*
X114277819Y-101016666D01*
X114277819Y-101016666D02*
X114658771Y-100683333D01*
X114658771Y-100683333D02*
X114658771Y-100826190D01*
X114658771Y-100826190D02*
X114706390Y-100921428D01*
X114706390Y-100921428D02*
X114754009Y-100969047D01*
X114754009Y-100969047D02*
X114849247Y-101016666D01*
X114849247Y-101016666D02*
X115087342Y-101016666D01*
X115087342Y-101016666D02*
X115182580Y-100969047D01*
X115182580Y-100969047D02*
X115230200Y-100921428D01*
X115230200Y-100921428D02*
X115277819Y-100826190D01*
X115277819Y-100826190D02*
X115277819Y-100540476D01*
X115277819Y-100540476D02*
X115230200Y-100445238D01*
X115230200Y-100445238D02*
X115182580Y-100397619D01*
X139918333Y-99154819D02*
X139918333Y-99869104D01*
X139918333Y-99869104D02*
X139965952Y-100011961D01*
X139965952Y-100011961D02*
X140061190Y-100107200D01*
X140061190Y-100107200D02*
X140204047Y-100154819D01*
X140204047Y-100154819D02*
X140299285Y-100154819D01*
X138918333Y-100154819D02*
X139489761Y-100154819D01*
X139204047Y-100154819D02*
X139204047Y-99154819D01*
X139204047Y-99154819D02*
X139299285Y-99297676D01*
X139299285Y-99297676D02*
X139394523Y-99392914D01*
X139394523Y-99392914D02*
X139489761Y-99440533D01*
X106659819Y-132763810D02*
X105659819Y-132763810D01*
X106564580Y-133811428D02*
X106612200Y-133763809D01*
X106612200Y-133763809D02*
X106659819Y-133620952D01*
X106659819Y-133620952D02*
X106659819Y-133525714D01*
X106659819Y-133525714D02*
X106612200Y-133382857D01*
X106612200Y-133382857D02*
X106516961Y-133287619D01*
X106516961Y-133287619D02*
X106421723Y-133240000D01*
X106421723Y-133240000D02*
X106231247Y-133192381D01*
X106231247Y-133192381D02*
X106088390Y-133192381D01*
X106088390Y-133192381D02*
X105897914Y-133240000D01*
X105897914Y-133240000D02*
X105802676Y-133287619D01*
X105802676Y-133287619D02*
X105707438Y-133382857D01*
X105707438Y-133382857D02*
X105659819Y-133525714D01*
X105659819Y-133525714D02*
X105659819Y-133620952D01*
X105659819Y-133620952D02*
X105707438Y-133763809D01*
X105707438Y-133763809D02*
X105755057Y-133811428D01*
X106659819Y-134763809D02*
X106659819Y-134192381D01*
X106659819Y-134478095D02*
X105659819Y-134478095D01*
X105659819Y-134478095D02*
X105802676Y-134382857D01*
X105802676Y-134382857D02*
X105897914Y-134287619D01*
X105897914Y-134287619D02*
X105945533Y-134192381D01*
X113346866Y-119491419D02*
X113680199Y-119015228D01*
X113918294Y-119491419D02*
X113918294Y-118491419D01*
X113918294Y-118491419D02*
X113537342Y-118491419D01*
X113537342Y-118491419D02*
X113442104Y-118539038D01*
X113442104Y-118539038D02*
X113394485Y-118586657D01*
X113394485Y-118586657D02*
X113346866Y-118681895D01*
X113346866Y-118681895D02*
X113346866Y-118824752D01*
X113346866Y-118824752D02*
X113394485Y-118919990D01*
X113394485Y-118919990D02*
X113442104Y-118967609D01*
X113442104Y-118967609D02*
X113537342Y-119015228D01*
X113537342Y-119015228D02*
X113918294Y-119015228D01*
X112965913Y-118586657D02*
X112918294Y-118539038D01*
X112918294Y-118539038D02*
X112823056Y-118491419D01*
X112823056Y-118491419D02*
X112584961Y-118491419D01*
X112584961Y-118491419D02*
X112489723Y-118539038D01*
X112489723Y-118539038D02*
X112442104Y-118586657D01*
X112442104Y-118586657D02*
X112394485Y-118681895D01*
X112394485Y-118681895D02*
X112394485Y-118777133D01*
X112394485Y-118777133D02*
X112442104Y-118919990D01*
X112442104Y-118919990D02*
X113013532Y-119491419D01*
X113013532Y-119491419D02*
X112394485Y-119491419D01*
X125630419Y-114428895D02*
X126439942Y-114428895D01*
X126439942Y-114428895D02*
X126535180Y-114476514D01*
X126535180Y-114476514D02*
X126582800Y-114524133D01*
X126582800Y-114524133D02*
X126630419Y-114619371D01*
X126630419Y-114619371D02*
X126630419Y-114809847D01*
X126630419Y-114809847D02*
X126582800Y-114905085D01*
X126582800Y-114905085D02*
X126535180Y-114952704D01*
X126535180Y-114952704D02*
X126439942Y-115000323D01*
X126439942Y-115000323D02*
X125630419Y-115000323D01*
X126630419Y-116000323D02*
X126630419Y-115428895D01*
X126630419Y-115714609D02*
X125630419Y-115714609D01*
X125630419Y-115714609D02*
X125773276Y-115619371D01*
X125773276Y-115619371D02*
X125868514Y-115524133D01*
X125868514Y-115524133D02*
X125916133Y-115428895D01*
X79639819Y-116017142D02*
X79163628Y-115683809D01*
X79639819Y-115445714D02*
X78639819Y-115445714D01*
X78639819Y-115445714D02*
X78639819Y-115826666D01*
X78639819Y-115826666D02*
X78687438Y-115921904D01*
X78687438Y-115921904D02*
X78735057Y-115969523D01*
X78735057Y-115969523D02*
X78830295Y-116017142D01*
X78830295Y-116017142D02*
X78973152Y-116017142D01*
X78973152Y-116017142D02*
X79068390Y-115969523D01*
X79068390Y-115969523D02*
X79116009Y-115921904D01*
X79116009Y-115921904D02*
X79163628Y-115826666D01*
X79163628Y-115826666D02*
X79163628Y-115445714D01*
X79639819Y-116969523D02*
X79639819Y-116398095D01*
X79639819Y-116683809D02*
X78639819Y-116683809D01*
X78639819Y-116683809D02*
X78782676Y-116588571D01*
X78782676Y-116588571D02*
X78877914Y-116493333D01*
X78877914Y-116493333D02*
X78925533Y-116398095D01*
X78639819Y-117588571D02*
X78639819Y-117683809D01*
X78639819Y-117683809D02*
X78687438Y-117779047D01*
X78687438Y-117779047D02*
X78735057Y-117826666D01*
X78735057Y-117826666D02*
X78830295Y-117874285D01*
X78830295Y-117874285D02*
X79020771Y-117921904D01*
X79020771Y-117921904D02*
X79258866Y-117921904D01*
X79258866Y-117921904D02*
X79449342Y-117874285D01*
X79449342Y-117874285D02*
X79544580Y-117826666D01*
X79544580Y-117826666D02*
X79592200Y-117779047D01*
X79592200Y-117779047D02*
X79639819Y-117683809D01*
X79639819Y-117683809D02*
X79639819Y-117588571D01*
X79639819Y-117588571D02*
X79592200Y-117493333D01*
X79592200Y-117493333D02*
X79544580Y-117445714D01*
X79544580Y-117445714D02*
X79449342Y-117398095D01*
X79449342Y-117398095D02*
X79258866Y-117350476D01*
X79258866Y-117350476D02*
X79020771Y-117350476D01*
X79020771Y-117350476D02*
X78830295Y-117398095D01*
X78830295Y-117398095D02*
X78735057Y-117445714D01*
X78735057Y-117445714D02*
X78687438Y-117493333D01*
X78687438Y-117493333D02*
X78639819Y-117588571D01*
X137119819Y-133456666D02*
X137834104Y-133456666D01*
X137834104Y-133456666D02*
X137976961Y-133409047D01*
X137976961Y-133409047D02*
X138072200Y-133313809D01*
X138072200Y-133313809D02*
X138119819Y-133170952D01*
X138119819Y-133170952D02*
X138119819Y-133075714D01*
X137215057Y-133885238D02*
X137167438Y-133932857D01*
X137167438Y-133932857D02*
X137119819Y-134028095D01*
X137119819Y-134028095D02*
X137119819Y-134266190D01*
X137119819Y-134266190D02*
X137167438Y-134361428D01*
X137167438Y-134361428D02*
X137215057Y-134409047D01*
X137215057Y-134409047D02*
X137310295Y-134456666D01*
X137310295Y-134456666D02*
X137405533Y-134456666D01*
X137405533Y-134456666D02*
X137548390Y-134409047D01*
X137548390Y-134409047D02*
X138119819Y-133837619D01*
X138119819Y-133837619D02*
X138119819Y-134456666D01*
X112751466Y-112937380D02*
X112799085Y-112985000D01*
X112799085Y-112985000D02*
X112941942Y-113032619D01*
X112941942Y-113032619D02*
X113037180Y-113032619D01*
X113037180Y-113032619D02*
X113180037Y-112985000D01*
X113180037Y-112985000D02*
X113275275Y-112889761D01*
X113275275Y-112889761D02*
X113322894Y-112794523D01*
X113322894Y-112794523D02*
X113370513Y-112604047D01*
X113370513Y-112604047D02*
X113370513Y-112461190D01*
X113370513Y-112461190D02*
X113322894Y-112270714D01*
X113322894Y-112270714D02*
X113275275Y-112175476D01*
X113275275Y-112175476D02*
X113180037Y-112080238D01*
X113180037Y-112080238D02*
X113037180Y-112032619D01*
X113037180Y-112032619D02*
X112941942Y-112032619D01*
X112941942Y-112032619D02*
X112799085Y-112080238D01*
X112799085Y-112080238D02*
X112751466Y-112127857D01*
X112370513Y-112127857D02*
X112322894Y-112080238D01*
X112322894Y-112080238D02*
X112227656Y-112032619D01*
X112227656Y-112032619D02*
X111989561Y-112032619D01*
X111989561Y-112032619D02*
X111894323Y-112080238D01*
X111894323Y-112080238D02*
X111846704Y-112127857D01*
X111846704Y-112127857D02*
X111799085Y-112223095D01*
X111799085Y-112223095D02*
X111799085Y-112318333D01*
X111799085Y-112318333D02*
X111846704Y-112461190D01*
X111846704Y-112461190D02*
X112418132Y-113032619D01*
X112418132Y-113032619D02*
X111799085Y-113032619D01*
X85141666Y-119514819D02*
X85474999Y-119038628D01*
X85713094Y-119514819D02*
X85713094Y-118514819D01*
X85713094Y-118514819D02*
X85332142Y-118514819D01*
X85332142Y-118514819D02*
X85236904Y-118562438D01*
X85236904Y-118562438D02*
X85189285Y-118610057D01*
X85189285Y-118610057D02*
X85141666Y-118705295D01*
X85141666Y-118705295D02*
X85141666Y-118848152D01*
X85141666Y-118848152D02*
X85189285Y-118943390D01*
X85189285Y-118943390D02*
X85236904Y-118991009D01*
X85236904Y-118991009D02*
X85332142Y-119038628D01*
X85332142Y-119038628D02*
X85713094Y-119038628D01*
X84570237Y-118943390D02*
X84665475Y-118895771D01*
X84665475Y-118895771D02*
X84713094Y-118848152D01*
X84713094Y-118848152D02*
X84760713Y-118752914D01*
X84760713Y-118752914D02*
X84760713Y-118705295D01*
X84760713Y-118705295D02*
X84713094Y-118610057D01*
X84713094Y-118610057D02*
X84665475Y-118562438D01*
X84665475Y-118562438D02*
X84570237Y-118514819D01*
X84570237Y-118514819D02*
X84379761Y-118514819D01*
X84379761Y-118514819D02*
X84284523Y-118562438D01*
X84284523Y-118562438D02*
X84236904Y-118610057D01*
X84236904Y-118610057D02*
X84189285Y-118705295D01*
X84189285Y-118705295D02*
X84189285Y-118752914D01*
X84189285Y-118752914D02*
X84236904Y-118848152D01*
X84236904Y-118848152D02*
X84284523Y-118895771D01*
X84284523Y-118895771D02*
X84379761Y-118943390D01*
X84379761Y-118943390D02*
X84570237Y-118943390D01*
X84570237Y-118943390D02*
X84665475Y-118991009D01*
X84665475Y-118991009D02*
X84713094Y-119038628D01*
X84713094Y-119038628D02*
X84760713Y-119133866D01*
X84760713Y-119133866D02*
X84760713Y-119324342D01*
X84760713Y-119324342D02*
X84713094Y-119419580D01*
X84713094Y-119419580D02*
X84665475Y-119467200D01*
X84665475Y-119467200D02*
X84570237Y-119514819D01*
X84570237Y-119514819D02*
X84379761Y-119514819D01*
X84379761Y-119514819D02*
X84284523Y-119467200D01*
X84284523Y-119467200D02*
X84236904Y-119419580D01*
X84236904Y-119419580D02*
X84189285Y-119324342D01*
X84189285Y-119324342D02*
X84189285Y-119133866D01*
X84189285Y-119133866D02*
X84236904Y-119038628D01*
X84236904Y-119038628D02*
X84284523Y-118991009D01*
X84284523Y-118991009D02*
X84379761Y-118943390D01*
X123434580Y-111801533D02*
X123482200Y-111753914D01*
X123482200Y-111753914D02*
X123529819Y-111611057D01*
X123529819Y-111611057D02*
X123529819Y-111515819D01*
X123529819Y-111515819D02*
X123482200Y-111372962D01*
X123482200Y-111372962D02*
X123386961Y-111277724D01*
X123386961Y-111277724D02*
X123291723Y-111230105D01*
X123291723Y-111230105D02*
X123101247Y-111182486D01*
X123101247Y-111182486D02*
X122958390Y-111182486D01*
X122958390Y-111182486D02*
X122767914Y-111230105D01*
X122767914Y-111230105D02*
X122672676Y-111277724D01*
X122672676Y-111277724D02*
X122577438Y-111372962D01*
X122577438Y-111372962D02*
X122529819Y-111515819D01*
X122529819Y-111515819D02*
X122529819Y-111611057D01*
X122529819Y-111611057D02*
X122577438Y-111753914D01*
X122577438Y-111753914D02*
X122625057Y-111801533D01*
X122958390Y-112372962D02*
X122910771Y-112277724D01*
X122910771Y-112277724D02*
X122863152Y-112230105D01*
X122863152Y-112230105D02*
X122767914Y-112182486D01*
X122767914Y-112182486D02*
X122720295Y-112182486D01*
X122720295Y-112182486D02*
X122625057Y-112230105D01*
X122625057Y-112230105D02*
X122577438Y-112277724D01*
X122577438Y-112277724D02*
X122529819Y-112372962D01*
X122529819Y-112372962D02*
X122529819Y-112563438D01*
X122529819Y-112563438D02*
X122577438Y-112658676D01*
X122577438Y-112658676D02*
X122625057Y-112706295D01*
X122625057Y-112706295D02*
X122720295Y-112753914D01*
X122720295Y-112753914D02*
X122767914Y-112753914D01*
X122767914Y-112753914D02*
X122863152Y-112706295D01*
X122863152Y-112706295D02*
X122910771Y-112658676D01*
X122910771Y-112658676D02*
X122958390Y-112563438D01*
X122958390Y-112563438D02*
X122958390Y-112372962D01*
X122958390Y-112372962D02*
X123006009Y-112277724D01*
X123006009Y-112277724D02*
X123053628Y-112230105D01*
X123053628Y-112230105D02*
X123148866Y-112182486D01*
X123148866Y-112182486D02*
X123339342Y-112182486D01*
X123339342Y-112182486D02*
X123434580Y-112230105D01*
X123434580Y-112230105D02*
X123482200Y-112277724D01*
X123482200Y-112277724D02*
X123529819Y-112372962D01*
X123529819Y-112372962D02*
X123529819Y-112563438D01*
X123529819Y-112563438D02*
X123482200Y-112658676D01*
X123482200Y-112658676D02*
X123434580Y-112706295D01*
X123434580Y-112706295D02*
X123339342Y-112753914D01*
X123339342Y-112753914D02*
X123148866Y-112753914D01*
X123148866Y-112753914D02*
X123053628Y-112706295D01*
X123053628Y-112706295D02*
X123006009Y-112658676D01*
X123006009Y-112658676D02*
X122958390Y-112563438D01*
X89398580Y-116754533D02*
X89446200Y-116706914D01*
X89446200Y-116706914D02*
X89493819Y-116564057D01*
X89493819Y-116564057D02*
X89493819Y-116468819D01*
X89493819Y-116468819D02*
X89446200Y-116325962D01*
X89446200Y-116325962D02*
X89350961Y-116230724D01*
X89350961Y-116230724D02*
X89255723Y-116183105D01*
X89255723Y-116183105D02*
X89065247Y-116135486D01*
X89065247Y-116135486D02*
X88922390Y-116135486D01*
X88922390Y-116135486D02*
X88731914Y-116183105D01*
X88731914Y-116183105D02*
X88636676Y-116230724D01*
X88636676Y-116230724D02*
X88541438Y-116325962D01*
X88541438Y-116325962D02*
X88493819Y-116468819D01*
X88493819Y-116468819D02*
X88493819Y-116564057D01*
X88493819Y-116564057D02*
X88541438Y-116706914D01*
X88541438Y-116706914D02*
X88589057Y-116754533D01*
X88827152Y-117611676D02*
X89493819Y-117611676D01*
X88446200Y-117373581D02*
X89160485Y-117135486D01*
X89160485Y-117135486D02*
X89160485Y-117754533D01*
X104191666Y-119109580D02*
X104239285Y-119157200D01*
X104239285Y-119157200D02*
X104382142Y-119204819D01*
X104382142Y-119204819D02*
X104477380Y-119204819D01*
X104477380Y-119204819D02*
X104620237Y-119157200D01*
X104620237Y-119157200D02*
X104715475Y-119061961D01*
X104715475Y-119061961D02*
X104763094Y-118966723D01*
X104763094Y-118966723D02*
X104810713Y-118776247D01*
X104810713Y-118776247D02*
X104810713Y-118633390D01*
X104810713Y-118633390D02*
X104763094Y-118442914D01*
X104763094Y-118442914D02*
X104715475Y-118347676D01*
X104715475Y-118347676D02*
X104620237Y-118252438D01*
X104620237Y-118252438D02*
X104477380Y-118204819D01*
X104477380Y-118204819D02*
X104382142Y-118204819D01*
X104382142Y-118204819D02*
X104239285Y-118252438D01*
X104239285Y-118252438D02*
X104191666Y-118300057D01*
X103286904Y-118204819D02*
X103763094Y-118204819D01*
X103763094Y-118204819D02*
X103810713Y-118681009D01*
X103810713Y-118681009D02*
X103763094Y-118633390D01*
X103763094Y-118633390D02*
X103667856Y-118585771D01*
X103667856Y-118585771D02*
X103429761Y-118585771D01*
X103429761Y-118585771D02*
X103334523Y-118633390D01*
X103334523Y-118633390D02*
X103286904Y-118681009D01*
X103286904Y-118681009D02*
X103239285Y-118776247D01*
X103239285Y-118776247D02*
X103239285Y-119014342D01*
X103239285Y-119014342D02*
X103286904Y-119109580D01*
X103286904Y-119109580D02*
X103334523Y-119157200D01*
X103334523Y-119157200D02*
X103429761Y-119204819D01*
X103429761Y-119204819D02*
X103667856Y-119204819D01*
X103667856Y-119204819D02*
X103763094Y-119157200D01*
X103763094Y-119157200D02*
X103810713Y-119109580D01*
X136879819Y-111661905D02*
X135879819Y-111661905D01*
X135879819Y-111661905D02*
X135879819Y-111900000D01*
X135879819Y-111900000D02*
X135927438Y-112042857D01*
X135927438Y-112042857D02*
X136022676Y-112138095D01*
X136022676Y-112138095D02*
X136117914Y-112185714D01*
X136117914Y-112185714D02*
X136308390Y-112233333D01*
X136308390Y-112233333D02*
X136451247Y-112233333D01*
X136451247Y-112233333D02*
X136641723Y-112185714D01*
X136641723Y-112185714D02*
X136736961Y-112138095D01*
X136736961Y-112138095D02*
X136832200Y-112042857D01*
X136832200Y-112042857D02*
X136879819Y-111900000D01*
X136879819Y-111900000D02*
X136879819Y-111661905D01*
X135975057Y-112614286D02*
X135927438Y-112661905D01*
X135927438Y-112661905D02*
X135879819Y-112757143D01*
X135879819Y-112757143D02*
X135879819Y-112995238D01*
X135879819Y-112995238D02*
X135927438Y-113090476D01*
X135927438Y-113090476D02*
X135975057Y-113138095D01*
X135975057Y-113138095D02*
X136070295Y-113185714D01*
X136070295Y-113185714D02*
X136165533Y-113185714D01*
X136165533Y-113185714D02*
X136308390Y-113138095D01*
X136308390Y-113138095D02*
X136879819Y-112566667D01*
X136879819Y-112566667D02*
X136879819Y-113185714D01*
X136709819Y-117218095D02*
X135709819Y-117218095D01*
X136709819Y-117789523D02*
X136138390Y-117360952D01*
X135709819Y-117789523D02*
X136281247Y-117218095D01*
X84336904Y-147492819D02*
X83765476Y-147492819D01*
X84051190Y-148492819D02*
X84051190Y-147492819D01*
X83432142Y-148492819D02*
X83432142Y-147492819D01*
X83432142Y-147492819D02*
X83051190Y-147492819D01*
X83051190Y-147492819D02*
X82955952Y-147540438D01*
X82955952Y-147540438D02*
X82908333Y-147588057D01*
X82908333Y-147588057D02*
X82860714Y-147683295D01*
X82860714Y-147683295D02*
X82860714Y-147826152D01*
X82860714Y-147826152D02*
X82908333Y-147921390D01*
X82908333Y-147921390D02*
X82955952Y-147969009D01*
X82955952Y-147969009D02*
X83051190Y-148016628D01*
X83051190Y-148016628D02*
X83432142Y-148016628D01*
X81955952Y-147492819D02*
X82432142Y-147492819D01*
X82432142Y-147492819D02*
X82479761Y-147969009D01*
X82479761Y-147969009D02*
X82432142Y-147921390D01*
X82432142Y-147921390D02*
X82336904Y-147873771D01*
X82336904Y-147873771D02*
X82098809Y-147873771D01*
X82098809Y-147873771D02*
X82003571Y-147921390D01*
X82003571Y-147921390D02*
X81955952Y-147969009D01*
X81955952Y-147969009D02*
X81908333Y-148064247D01*
X81908333Y-148064247D02*
X81908333Y-148302342D01*
X81908333Y-148302342D02*
X81955952Y-148397580D01*
X81955952Y-148397580D02*
X82003571Y-148445200D01*
X82003571Y-148445200D02*
X82098809Y-148492819D01*
X82098809Y-148492819D02*
X82336904Y-148492819D01*
X82336904Y-148492819D02*
X82432142Y-148445200D01*
X82432142Y-148445200D02*
X82479761Y-148397580D01*
X105947819Y-98688095D02*
X105947819Y-99259523D01*
X106947819Y-98973809D02*
X105947819Y-98973809D01*
X106947819Y-99592857D02*
X105947819Y-99592857D01*
X105947819Y-99592857D02*
X105947819Y-99973809D01*
X105947819Y-99973809D02*
X105995438Y-100069047D01*
X105995438Y-100069047D02*
X106043057Y-100116666D01*
X106043057Y-100116666D02*
X106138295Y-100164285D01*
X106138295Y-100164285D02*
X106281152Y-100164285D01*
X106281152Y-100164285D02*
X106376390Y-100116666D01*
X106376390Y-100116666D02*
X106424009Y-100069047D01*
X106424009Y-100069047D02*
X106471628Y-99973809D01*
X106471628Y-99973809D02*
X106471628Y-99592857D01*
X106281152Y-101021428D02*
X106947819Y-101021428D01*
X105900200Y-100783333D02*
X106614485Y-100545238D01*
X106614485Y-100545238D02*
X106614485Y-101164285D01*
X111851819Y-108388095D02*
X111851819Y-108959523D01*
X112851819Y-108673809D02*
X111851819Y-108673809D01*
X112851819Y-109292857D02*
X111851819Y-109292857D01*
X111851819Y-109292857D02*
X111851819Y-109673809D01*
X111851819Y-109673809D02*
X111899438Y-109769047D01*
X111899438Y-109769047D02*
X111947057Y-109816666D01*
X111947057Y-109816666D02*
X112042295Y-109864285D01*
X112042295Y-109864285D02*
X112185152Y-109864285D01*
X112185152Y-109864285D02*
X112280390Y-109816666D01*
X112280390Y-109816666D02*
X112328009Y-109769047D01*
X112328009Y-109769047D02*
X112375628Y-109673809D01*
X112375628Y-109673809D02*
X112375628Y-109292857D01*
X111851819Y-110197619D02*
X111851819Y-110864285D01*
X111851819Y-110864285D02*
X112851819Y-110435714D01*
X107958466Y-122519419D02*
X108291799Y-122043228D01*
X108529894Y-122519419D02*
X108529894Y-121519419D01*
X108529894Y-121519419D02*
X108148942Y-121519419D01*
X108148942Y-121519419D02*
X108053704Y-121567038D01*
X108053704Y-121567038D02*
X108006085Y-121614657D01*
X108006085Y-121614657D02*
X107958466Y-121709895D01*
X107958466Y-121709895D02*
X107958466Y-121852752D01*
X107958466Y-121852752D02*
X108006085Y-121947990D01*
X108006085Y-121947990D02*
X108053704Y-121995609D01*
X108053704Y-121995609D02*
X108148942Y-122043228D01*
X108148942Y-122043228D02*
X108529894Y-122043228D01*
X107625132Y-121519419D02*
X107006085Y-121519419D01*
X107006085Y-121519419D02*
X107339418Y-121900371D01*
X107339418Y-121900371D02*
X107196561Y-121900371D01*
X107196561Y-121900371D02*
X107101323Y-121947990D01*
X107101323Y-121947990D02*
X107053704Y-121995609D01*
X107053704Y-121995609D02*
X107006085Y-122090847D01*
X107006085Y-122090847D02*
X107006085Y-122328942D01*
X107006085Y-122328942D02*
X107053704Y-122424180D01*
X107053704Y-122424180D02*
X107101323Y-122471800D01*
X107101323Y-122471800D02*
X107196561Y-122519419D01*
X107196561Y-122519419D02*
X107482275Y-122519419D01*
X107482275Y-122519419D02*
X107577513Y-122471800D01*
X107577513Y-122471800D02*
X107625132Y-122424180D01*
X102761666Y-119764819D02*
X103094999Y-119288628D01*
X103333094Y-119764819D02*
X103333094Y-118764819D01*
X103333094Y-118764819D02*
X102952142Y-118764819D01*
X102952142Y-118764819D02*
X102856904Y-118812438D01*
X102856904Y-118812438D02*
X102809285Y-118860057D01*
X102809285Y-118860057D02*
X102761666Y-118955295D01*
X102761666Y-118955295D02*
X102761666Y-119098152D01*
X102761666Y-119098152D02*
X102809285Y-119193390D01*
X102809285Y-119193390D02*
X102856904Y-119241009D01*
X102856904Y-119241009D02*
X102952142Y-119288628D01*
X102952142Y-119288628D02*
X103333094Y-119288628D01*
X102285475Y-119764819D02*
X102094999Y-119764819D01*
X102094999Y-119764819D02*
X101999761Y-119717200D01*
X101999761Y-119717200D02*
X101952142Y-119669580D01*
X101952142Y-119669580D02*
X101856904Y-119526723D01*
X101856904Y-119526723D02*
X101809285Y-119336247D01*
X101809285Y-119336247D02*
X101809285Y-118955295D01*
X101809285Y-118955295D02*
X101856904Y-118860057D01*
X101856904Y-118860057D02*
X101904523Y-118812438D01*
X101904523Y-118812438D02*
X101999761Y-118764819D01*
X101999761Y-118764819D02*
X102190237Y-118764819D01*
X102190237Y-118764819D02*
X102285475Y-118812438D01*
X102285475Y-118812438D02*
X102333094Y-118860057D01*
X102333094Y-118860057D02*
X102380713Y-118955295D01*
X102380713Y-118955295D02*
X102380713Y-119193390D01*
X102380713Y-119193390D02*
X102333094Y-119288628D01*
X102333094Y-119288628D02*
X102285475Y-119336247D01*
X102285475Y-119336247D02*
X102190237Y-119383866D01*
X102190237Y-119383866D02*
X101999761Y-119383866D01*
X101999761Y-119383866D02*
X101904523Y-119336247D01*
X101904523Y-119336247D02*
X101856904Y-119288628D01*
X101856904Y-119288628D02*
X101809285Y-119193390D01*
X133091666Y-121264819D02*
X133424999Y-120788628D01*
X133663094Y-121264819D02*
X133663094Y-120264819D01*
X133663094Y-120264819D02*
X133282142Y-120264819D01*
X133282142Y-120264819D02*
X133186904Y-120312438D01*
X133186904Y-120312438D02*
X133139285Y-120360057D01*
X133139285Y-120360057D02*
X133091666Y-120455295D01*
X133091666Y-120455295D02*
X133091666Y-120598152D01*
X133091666Y-120598152D02*
X133139285Y-120693390D01*
X133139285Y-120693390D02*
X133186904Y-120741009D01*
X133186904Y-120741009D02*
X133282142Y-120788628D01*
X133282142Y-120788628D02*
X133663094Y-120788628D01*
X132139285Y-121264819D02*
X132710713Y-121264819D01*
X132424999Y-121264819D02*
X132424999Y-120264819D01*
X132424999Y-120264819D02*
X132520237Y-120407676D01*
X132520237Y-120407676D02*
X132615475Y-120502914D01*
X132615475Y-120502914D02*
X132710713Y-120550533D01*
X94631666Y-119464819D02*
X94964999Y-118988628D01*
X95203094Y-119464819D02*
X95203094Y-118464819D01*
X95203094Y-118464819D02*
X94822142Y-118464819D01*
X94822142Y-118464819D02*
X94726904Y-118512438D01*
X94726904Y-118512438D02*
X94679285Y-118560057D01*
X94679285Y-118560057D02*
X94631666Y-118655295D01*
X94631666Y-118655295D02*
X94631666Y-118798152D01*
X94631666Y-118798152D02*
X94679285Y-118893390D01*
X94679285Y-118893390D02*
X94726904Y-118941009D01*
X94726904Y-118941009D02*
X94822142Y-118988628D01*
X94822142Y-118988628D02*
X95203094Y-118988628D01*
X93774523Y-118798152D02*
X93774523Y-119464819D01*
X94012618Y-118417200D02*
X94250713Y-119131485D01*
X94250713Y-119131485D02*
X93631666Y-119131485D01*
X89099819Y-79826666D02*
X89814104Y-79826666D01*
X89814104Y-79826666D02*
X89956961Y-79779047D01*
X89956961Y-79779047D02*
X90052200Y-79683809D01*
X90052200Y-79683809D02*
X90099819Y-79540952D01*
X90099819Y-79540952D02*
X90099819Y-79445714D01*
X89528390Y-80445714D02*
X89480771Y-80350476D01*
X89480771Y-80350476D02*
X89433152Y-80302857D01*
X89433152Y-80302857D02*
X89337914Y-80255238D01*
X89337914Y-80255238D02*
X89290295Y-80255238D01*
X89290295Y-80255238D02*
X89195057Y-80302857D01*
X89195057Y-80302857D02*
X89147438Y-80350476D01*
X89147438Y-80350476D02*
X89099819Y-80445714D01*
X89099819Y-80445714D02*
X89099819Y-80636190D01*
X89099819Y-80636190D02*
X89147438Y-80731428D01*
X89147438Y-80731428D02*
X89195057Y-80779047D01*
X89195057Y-80779047D02*
X89290295Y-80826666D01*
X89290295Y-80826666D02*
X89337914Y-80826666D01*
X89337914Y-80826666D02*
X89433152Y-80779047D01*
X89433152Y-80779047D02*
X89480771Y-80731428D01*
X89480771Y-80731428D02*
X89528390Y-80636190D01*
X89528390Y-80636190D02*
X89528390Y-80445714D01*
X89528390Y-80445714D02*
X89576009Y-80350476D01*
X89576009Y-80350476D02*
X89623628Y-80302857D01*
X89623628Y-80302857D02*
X89718866Y-80255238D01*
X89718866Y-80255238D02*
X89909342Y-80255238D01*
X89909342Y-80255238D02*
X90004580Y-80302857D01*
X90004580Y-80302857D02*
X90052200Y-80350476D01*
X90052200Y-80350476D02*
X90099819Y-80445714D01*
X90099819Y-80445714D02*
X90099819Y-80636190D01*
X90099819Y-80636190D02*
X90052200Y-80731428D01*
X90052200Y-80731428D02*
X90004580Y-80779047D01*
X90004580Y-80779047D02*
X89909342Y-80826666D01*
X89909342Y-80826666D02*
X89718866Y-80826666D01*
X89718866Y-80826666D02*
X89623628Y-80779047D01*
X89623628Y-80779047D02*
X89576009Y-80731428D01*
X89576009Y-80731428D02*
X89528390Y-80636190D01*
X63081469Y-68244745D02*
X63890992Y-68244745D01*
X63890992Y-68244745D02*
X63986230Y-68292364D01*
X63986230Y-68292364D02*
X64033850Y-68339983D01*
X64033850Y-68339983D02*
X64081469Y-68435221D01*
X64081469Y-68435221D02*
X64081469Y-68625697D01*
X64081469Y-68625697D02*
X64033850Y-68720935D01*
X64033850Y-68720935D02*
X63986230Y-68768554D01*
X63986230Y-68768554D02*
X63890992Y-68816173D01*
X63890992Y-68816173D02*
X63081469Y-68816173D01*
X63176707Y-69244745D02*
X63129088Y-69292364D01*
X63129088Y-69292364D02*
X63081469Y-69387602D01*
X63081469Y-69387602D02*
X63081469Y-69625697D01*
X63081469Y-69625697D02*
X63129088Y-69720935D01*
X63129088Y-69720935D02*
X63176707Y-69768554D01*
X63176707Y-69768554D02*
X63271945Y-69816173D01*
X63271945Y-69816173D02*
X63367183Y-69816173D01*
X63367183Y-69816173D02*
X63510040Y-69768554D01*
X63510040Y-69768554D02*
X64081469Y-69197126D01*
X64081469Y-69197126D02*
X64081469Y-69816173D01*
X49361469Y-70979983D02*
X49361469Y-70503793D01*
X49361469Y-70503793D02*
X48361469Y-70503793D01*
X49361469Y-71837126D02*
X49361469Y-71265698D01*
X49361469Y-71551412D02*
X48361469Y-71551412D01*
X48361469Y-71551412D02*
X48504326Y-71456174D01*
X48504326Y-71456174D02*
X48599564Y-71360936D01*
X48599564Y-71360936D02*
X48647183Y-71265698D01*
D11*
%TO.C,J8*%
X126600000Y-77005000D02*
X135500000Y-77005000D01*
X126600000Y-83205000D02*
X126600000Y-77005000D01*
X127800000Y-83205000D02*
X126600000Y-83205000D01*
X137500000Y-83205000D02*
X131000000Y-83205000D01*
X137500000Y-85205000D02*
X137500000Y-83205000D01*
X138100000Y-77005000D02*
X141300000Y-77005000D01*
X140100000Y-85205000D02*
X140100000Y-83205000D01*
X141300000Y-77005000D02*
X141300000Y-77505000D01*
X141300000Y-77505000D02*
X143800000Y-77505000D01*
X141300000Y-82705000D02*
X141300000Y-83205000D01*
X141300000Y-83205000D02*
X140100000Y-83205000D01*
X143800000Y-77505000D02*
X143800000Y-82705000D01*
X143800000Y-82705000D02*
X141300000Y-82705000D01*
%TO.C,U2*%
X111925000Y-67230000D02*
X111925000Y-69180000D01*
X111925000Y-71130000D02*
X111925000Y-69180000D01*
X122045000Y-67230000D02*
X122045000Y-69180000D01*
X122045000Y-71130000D02*
X122045000Y-69180000D01*
X122320000Y-72120000D02*
X121990000Y-71880000D01*
X122320000Y-71640000D01*
X122320000Y-72120000D01*
G36*
X122320000Y-72120000D02*
G01*
X121990000Y-71880000D01*
X122320000Y-71640000D01*
X122320000Y-72120000D01*
G37*
%TO.C,L1*%
X102465000Y-68340000D02*
X102465000Y-73880000D01*
X102465000Y-73880000D02*
X104905000Y-73880000D01*
X103685000Y-68340000D02*
X103685000Y-67070000D01*
X103685000Y-73880000D02*
X103685000Y-75150000D01*
X104905000Y-68340000D02*
X102465000Y-68340000D01*
X104905000Y-73880000D02*
X104905000Y-68340000D01*
%TO.C,TP6*%
X111225000Y-146510000D02*
G75*
G02*
X109825000Y-146510000I-700000J0D01*
G01*
X109825000Y-146510000D02*
G75*
G02*
X111225000Y-146510000I700000J0D01*
G01*
%TO.C,C6*%
X101925000Y-117400000D02*
X101925000Y-111644437D01*
X101925000Y-111644437D02*
X100860563Y-110580000D01*
X99575000Y-117400000D02*
X101925000Y-117400000D01*
X99575000Y-110580000D02*
X100860563Y-110580000D01*
X97455000Y-117400000D02*
X95105000Y-117400000D01*
X97455000Y-110580000D02*
X96169437Y-110580000D01*
X97061250Y-109946250D02*
X96273750Y-109946250D01*
X96667500Y-110340000D02*
X96667500Y-109552500D01*
X95105000Y-117400000D02*
X95105000Y-111644437D01*
X95105000Y-111644437D02*
X96169437Y-110580000D01*
%TO.C,C3*%
X117595378Y-119310000D02*
X118394622Y-119310000D01*
X117595378Y-118190000D02*
X118394622Y-118190000D01*
%TO.C,C1*%
X126015000Y-108430378D02*
X126015000Y-109229622D01*
X124895000Y-108430378D02*
X124895000Y-109229622D01*
%TO.C,R5*%
X121877936Y-121355000D02*
X122332064Y-121355000D01*
X121877936Y-119885000D02*
X122332064Y-119885000D01*
%TO.C,TP2*%
X122545000Y-99720000D02*
G75*
G02*
X121145000Y-99720000I-700000J0D01*
G01*
X121145000Y-99720000D02*
G75*
G02*
X122545000Y-99720000I700000J0D01*
G01*
%TO.C,C7*%
X121366422Y-115271400D02*
X120567178Y-115271400D01*
X121366422Y-114151400D02*
X120567178Y-114151400D01*
%TO.C,TP1*%
X131135000Y-99700000D02*
G75*
G02*
X129735000Y-99700000I-700000J0D01*
G01*
X129735000Y-99700000D02*
G75*
G02*
X131135000Y-99700000I700000J0D01*
G01*
%TO.C,TP3*%
X114075000Y-99850000D02*
G75*
G02*
X112675000Y-99850000I-700000J0D01*
G01*
X112675000Y-99850000D02*
G75*
G02*
X114075000Y-99850000I700000J0D01*
G01*
%TO.C,J1*%
X143548200Y-101160000D02*
X143548200Y-100360000D01*
X143548200Y-100360000D02*
X142508200Y-100360000D01*
X143308200Y-106420000D02*
X143308200Y-100600000D01*
X143308200Y-106420000D02*
X136568200Y-106420000D01*
X143308200Y-100600000D02*
X136568200Y-100600000D01*
X142388200Y-106420000D02*
X142388200Y-100600000D01*
X141388200Y-106420000D02*
X141388200Y-100600000D01*
X138287200Y-106420000D02*
X138287200Y-100600000D01*
X136568200Y-106420000D02*
X136568200Y-100600000D01*
D12*
%TO.C,IC1*%
X131705000Y-137400000D02*
X131705000Y-144240000D01*
X131705000Y-123240000D02*
X131705000Y-130080000D01*
X131455000Y-144240000D02*
X131705000Y-144240000D01*
X131455000Y-123240000D02*
X131705000Y-123240000D01*
X80955000Y-144240000D02*
X80705000Y-144240000D01*
X80705000Y-144240000D02*
X80705000Y-137740000D01*
X80705000Y-137740000D02*
X79405000Y-137740000D01*
X80705000Y-129740000D02*
X80705000Y-123240000D01*
X80705000Y-123240000D02*
X80955000Y-123240000D01*
X79405000Y-137740000D02*
X79405000Y-129740000D01*
X79405000Y-129740000D02*
X80705000Y-129740000D01*
D13*
X82225000Y-121550000D02*
G75*
G02*
X81925000Y-121550000I-150000J0D01*
G01*
X81925000Y-121550000D02*
G75*
G02*
X82225000Y-121550000I150000J0D01*
G01*
D11*
%TO.C,R2*%
X112257936Y-121315000D02*
X112712064Y-121315000D01*
X112257936Y-119845000D02*
X112712064Y-119845000D01*
%TO.C,U1*%
X131135000Y-117050000D02*
X131135000Y-113290000D01*
X129875000Y-117050000D02*
X131135000Y-117050000D01*
X125575000Y-117050000D02*
X124315000Y-117050000D01*
X124315000Y-117050000D02*
X124315000Y-113290000D01*
X124415000Y-112010000D02*
X124085000Y-112250000D01*
X124085000Y-111770000D01*
X124415000Y-112010000D01*
G36*
X124415000Y-112010000D02*
G01*
X124085000Y-112250000D01*
X124085000Y-111770000D01*
X124415000Y-112010000D01*
G37*
%TO.C,R10*%
X81570000Y-116887064D02*
X81570000Y-116432936D01*
X80100000Y-116887064D02*
X80100000Y-116432936D01*
%TO.C,J2*%
X143075000Y-125880000D02*
X143075000Y-123380000D01*
X143075000Y-123380000D02*
X140575000Y-123380000D01*
X142775000Y-143900000D02*
X142775000Y-123680000D01*
X142775000Y-142900000D02*
X141275000Y-142900000D01*
X142775000Y-124680000D02*
X141275000Y-124680000D01*
X142775000Y-123680000D02*
X138755000Y-123680000D01*
X141275000Y-142900000D02*
X141275000Y-143900000D01*
X141275000Y-124680000D02*
X141275000Y-123680000D01*
X140465000Y-143900000D02*
X140465000Y-143400000D01*
X140465000Y-143400000D02*
X139255000Y-143400000D01*
X140465000Y-124180000D02*
X140465000Y-123680000D01*
X139255000Y-143400000D02*
X139255000Y-124180000D01*
X139255000Y-124180000D02*
X140465000Y-124180000D01*
X138755000Y-143900000D02*
X142775000Y-143900000D01*
X138755000Y-123680000D02*
X138755000Y-143900000D01*
%TO.C,C2*%
X116685350Y-113181450D02*
X116685350Y-112393950D01*
X116291600Y-112787700D02*
X117079100Y-112787700D01*
X116051600Y-115695200D02*
X116051600Y-116980763D01*
X116051600Y-113575200D02*
X116051600Y-112289637D01*
X114987163Y-118045200D02*
X116051600Y-116980763D01*
X114987163Y-111225200D02*
X116051600Y-112289637D01*
X109231600Y-118045200D02*
X114987163Y-118045200D01*
X109231600Y-115695200D02*
X109231600Y-118045200D01*
X109231600Y-113575200D02*
X109231600Y-111225200D01*
X109231600Y-111225200D02*
X114987163Y-111225200D01*
%TO.C,R8*%
X84747936Y-121445000D02*
X85202064Y-121445000D01*
X84747936Y-119975000D02*
X85202064Y-119975000D01*
%TO.C,C8*%
X122265000Y-112120000D02*
X118809437Y-112120000D01*
X122265000Y-110920000D02*
X122265000Y-112120000D01*
X122265000Y-108800000D02*
X122265000Y-107600000D01*
X122265000Y-107600000D02*
X118809437Y-107600000D01*
X118809437Y-112120000D02*
X117745000Y-111055563D01*
X118809437Y-107600000D02*
X117745000Y-108664437D01*
X117745000Y-110920000D02*
X117745000Y-111055563D01*
X117745000Y-108800000D02*
X117745000Y-108664437D01*
X117505000Y-111420000D02*
X117005000Y-111420000D01*
X117255000Y-111170000D02*
X117255000Y-111670000D01*
%TO.C,C4*%
X93012550Y-113537050D02*
X93012550Y-112749550D01*
X92618800Y-113143300D02*
X93406300Y-113143300D01*
X92378800Y-116050800D02*
X92378800Y-117336363D01*
X92378800Y-113930800D02*
X92378800Y-112645237D01*
X91314363Y-118400800D02*
X92378800Y-117336363D01*
X91314363Y-111580800D02*
X92378800Y-112645237D01*
X85558800Y-118400800D02*
X91314363Y-118400800D01*
X85558800Y-116050800D02*
X85558800Y-118400800D01*
X85558800Y-113930800D02*
X85558800Y-111580800D01*
X85558800Y-111580800D02*
X91314363Y-111580800D01*
%TO.C,C5*%
X104915200Y-116173522D02*
X104915200Y-115374278D01*
X103795200Y-116173522D02*
X103795200Y-115374278D01*
%TO.C,D2*%
X135425000Y-114040000D02*
X135425000Y-110760000D01*
X135425000Y-110760000D02*
X133585000Y-110760000D01*
X134505000Y-114040000D02*
X134505000Y-116490000D01*
X134505000Y-110760000D02*
X134505000Y-108310000D01*
X133585000Y-114040000D02*
X135425000Y-114040000D01*
X133585000Y-113584000D02*
X135425000Y-113584000D01*
X133585000Y-113464000D02*
X135425000Y-113464000D01*
X133585000Y-113344000D02*
X135425000Y-113344000D01*
X133585000Y-110760000D02*
X133585000Y-114040000D01*
%TO.C,TP5*%
X83775000Y-146590000D02*
G75*
G02*
X82375000Y-146590000I-700000J0D01*
G01*
X82375000Y-146590000D02*
G75*
G02*
X83775000Y-146590000I700000J0D01*
G01*
%TO.C,TP4*%
X105745000Y-99950000D02*
G75*
G02*
X104345000Y-99950000I-700000J0D01*
G01*
X104345000Y-99950000D02*
G75*
G02*
X105745000Y-99950000I700000J0D01*
G01*
%TO.C,TP7*%
X114545000Y-109650000D02*
G75*
G02*
X113145000Y-109650000I-700000J0D01*
G01*
X113145000Y-109650000D02*
G75*
G02*
X114545000Y-109650000I700000J0D01*
G01*
%TO.C,R3*%
X108470000Y-119507064D02*
X108470000Y-119052936D01*
X107000000Y-119507064D02*
X107000000Y-119052936D01*
%TO.C,R9*%
X102367936Y-121695000D02*
X102822064Y-121695000D01*
X102367936Y-120225000D02*
X102822064Y-120225000D01*
%TO.C,R1*%
X130202064Y-121695000D02*
X129747936Y-121695000D01*
X130202064Y-120225000D02*
X129747936Y-120225000D01*
%TO.C,R4*%
X94237936Y-121395000D02*
X94692064Y-121395000D01*
X94237936Y-119925000D02*
X94692064Y-119925000D01*
%TO.C,J8*%
X84941650Y-85241650D02*
X84941650Y-83241650D01*
X87541650Y-85241650D02*
X87541650Y-83241650D01*
X74041650Y-83241650D02*
X74041650Y-77041650D01*
X75241650Y-83241650D02*
X74041650Y-83241650D01*
X84941650Y-83241650D02*
X78441650Y-83241650D01*
X88741650Y-83241650D02*
X87541650Y-83241650D01*
X88741650Y-82741650D02*
X88741650Y-83241650D01*
X91241650Y-82741650D02*
X88741650Y-82741650D01*
X88741650Y-77541650D02*
X91241650Y-77541650D01*
X91241650Y-77541650D02*
X91241650Y-82741650D01*
X74041650Y-77041650D02*
X82941650Y-77041650D01*
X85541650Y-77041650D02*
X88741650Y-77041650D01*
X88741650Y-77041650D02*
X88741650Y-77541650D01*
%TO.C,U2*%
X59366650Y-71166650D02*
X59366650Y-69216650D01*
X69486650Y-71166650D02*
X69486650Y-69216650D01*
X59366650Y-67266650D02*
X59366650Y-69216650D01*
X69486650Y-67266650D02*
X69486650Y-69216650D01*
X69761650Y-72156650D02*
X69431650Y-71916650D01*
X69761650Y-71676650D01*
X69761650Y-72156650D01*
G36*
X69761650Y-72156650D02*
G01*
X69431650Y-71916650D01*
X69761650Y-71676650D01*
X69761650Y-72156650D01*
G37*
%TO.C,L1*%
X49906650Y-73916650D02*
X52346650Y-73916650D01*
X51126650Y-73916650D02*
X51126650Y-75186650D01*
X52346650Y-73916650D02*
X52346650Y-68376650D01*
X49906650Y-68376650D02*
X49906650Y-73916650D01*
X51126650Y-68376650D02*
X51126650Y-67106650D01*
X52346650Y-68376650D02*
X49906650Y-68376650D01*
D10*
%TO.C,U2*%
X61108500Y-123045700D02*
X61666000Y-123045700D01*
X53273500Y-123045700D02*
X52716000Y-123045700D01*
X61666000Y-127195700D02*
X61666000Y-123045700D01*
X61108500Y-127195700D02*
X61666000Y-127195700D01*
X53273500Y-127195700D02*
X52716000Y-127195700D01*
X52716000Y-127195700D02*
X52716000Y-123045700D01*
D11*
X53191000Y-122483200D02*
X52861000Y-122723200D01*
X52861000Y-122243200D01*
X53191000Y-122483200D01*
G36*
X53191000Y-122483200D02*
G01*
X52861000Y-122723200D01*
X52861000Y-122243200D01*
X53191000Y-122483200D01*
G37*
%TD*%
M02*
