%TF.GenerationSoftware,KiCad,Pcbnew,8.0.4*%
%TF.CreationDate,2025-05-03T00:51:18+05:30*%
%TF.ProjectId,TEST PNAL,54455354-2050-44e4-914c-2e6b69636164,rev?*%
%TF.SameCoordinates,Original*%
%TF.FileFunction,Soldermask,Bot*%
%TF.FilePolarity,Negative*%
%FSLAX46Y46*%
G04 Gerber Fmt 4.6, Leading zero omitted, Abs format (unit mm)*
G04 Created by KiCad (PCBNEW 8.0.4) date 2025-05-03 00:51:18*
%MOMM*%
%LPD*%
G01*
G04 APERTURE LIST*
G04 Aperture macros list*
%AMRoundRect*
0 Rectangle with rounded corners*
0 $1 Rounding radius*
0 $2 $3 $4 $5 $6 $7 $8 $9 X,Y pos of 4 corners*
0 Add a 4 corners polygon primitive as box body*
4,1,4,$2,$3,$4,$5,$6,$7,$8,$9,$2,$3,0*
0 Add four circle primitives for the rounded corners*
1,1,$1+$1,$2,$3*
1,1,$1+$1,$4,$5*
1,1,$1+$1,$6,$7*
1,1,$1+$1,$8,$9*
0 Add four rect primitives between the rounded corners*
20,1,$1+$1,$2,$3,$4,$5,0*
20,1,$1+$1,$4,$5,$6,$7,0*
20,1,$1+$1,$6,$7,$8,$9,0*
20,1,$1+$1,$8,$9,$2,$3,0*%
G04 Aperture macros list end*
%ADD10R,1.350000X1.350000*%
%ADD11O,1.350000X1.350000*%
%ADD12C,1.700000*%
%ADD13R,2.200000X2.800000*%
%ADD14R,2.800000X2.800000*%
%ADD15RoundRect,0.150000X0.150000X-0.825000X0.150000X0.825000X-0.150000X0.825000X-0.150000X-0.825000X0*%
%ADD16C,1.600000*%
%ADD17O,1.600000X1.600000*%
%ADD18C,2.050000*%
%ADD19C,2.250000*%
%ADD20R,1.700000X1.700000*%
%ADD21O,1.700000X1.700000*%
%ADD22C,1.000000*%
%ADD23R,1.500000X1.500000*%
%ADD24O,1.500000X1.500000*%
%ADD25RoundRect,0.250000X-0.550000X1.500000X-0.550000X-1.500000X0.550000X-1.500000X0.550000X1.500000X0*%
%ADD26RoundRect,0.218750X0.218750X0.381250X-0.218750X0.381250X-0.218750X-0.381250X0.218750X-0.381250X0*%
%ADD27RoundRect,0.218750X0.381250X-0.218750X0.381250X0.218750X-0.381250X0.218750X-0.381250X-0.218750X0*%
%ADD28RoundRect,0.250000X0.350000X0.450000X-0.350000X0.450000X-0.350000X-0.450000X0.350000X-0.450000X0*%
%ADD29RoundRect,0.218750X-0.218750X-0.381250X0.218750X-0.381250X0.218750X0.381250X-0.218750X0.381250X0*%
%ADD30R,2.000000X1.905000*%
%ADD31O,2.000000X1.905000*%
%ADD32R,2.000000X2.000000*%
%ADD33C,2.000000*%
%ADD34RoundRect,0.200000X-0.600000X0.600000X-0.600000X-0.600000X0.600000X-0.600000X0.600000X0.600000X0*%
%ADD35RoundRect,0.375000X-0.375000X0.625000X-0.375000X-0.625000X0.375000X-0.625000X0.375000X0.625000X0*%
%ADD36RoundRect,0.500000X-1.400000X0.500000X-1.400000X-0.500000X1.400000X-0.500000X1.400000X0.500000X0*%
%ADD37RoundRect,0.250000X-0.450000X0.350000X-0.450000X-0.350000X0.450000X-0.350000X0.450000X0.350000X0*%
%ADD38RoundRect,0.250000X-0.725000X0.600000X-0.725000X-0.600000X0.725000X-0.600000X0.725000X0.600000X0*%
%ADD39O,1.950000X1.700000*%
%ADD40RoundRect,0.250000X1.500000X0.550000X-1.500000X0.550000X-1.500000X-0.550000X1.500000X-0.550000X0*%
%ADD41RoundRect,0.250000X-1.050000X-0.550000X1.050000X-0.550000X1.050000X0.550000X-1.050000X0.550000X0*%
%ADD42RoundRect,0.218750X-0.381250X0.218750X-0.381250X-0.218750X0.381250X-0.218750X0.381250X0.218750X0*%
%ADD43RoundRect,0.250000X-0.350000X-0.450000X0.350000X-0.450000X0.350000X0.450000X-0.350000X0.450000X0*%
%ADD44RoundRect,0.102000X0.754000X0.754000X-0.754000X0.754000X-0.754000X-0.754000X0.754000X-0.754000X0*%
%ADD45C,1.712000*%
%ADD46C,3.204000*%
%ADD47RoundRect,0.250000X0.550000X-0.550000X0.550000X0.550000X-0.550000X0.550000X-0.550000X-0.550000X0*%
%ADD48O,3.000000X4.100000*%
%ADD49R,1.600000X1.600000*%
%ADD50C,2.600000*%
%ADD51C,3.800000*%
%ADD52C,2.240000*%
%ADD53C,2.740000*%
%ADD54R,0.400000X1.200000*%
G04 APERTURE END LIST*
D10*
%TO.C,J6*%
X123935000Y-66930000D03*
D11*
X123935000Y-68930000D03*
X123935000Y-70930000D03*
%TD*%
D12*
%TO.C,J8*%
X130700000Y-80105000D03*
X137700000Y-80105000D03*
D13*
X136800000Y-76405000D03*
X138800000Y-83805000D03*
D14*
X129400000Y-83805000D03*
%TD*%
D15*
%TO.C,U2*%
X121430000Y-71655000D03*
X120160000Y-71655000D03*
X118890000Y-71655000D03*
X117620000Y-71655000D03*
X116350000Y-71655000D03*
X115080000Y-71655000D03*
X113810000Y-71655000D03*
X112540000Y-71655000D03*
X112540000Y-66705000D03*
X113810000Y-66705000D03*
X115080000Y-66705000D03*
X116350000Y-66705000D03*
X117620000Y-66705000D03*
X118890000Y-66705000D03*
X120160000Y-66705000D03*
X121430000Y-66705000D03*
%TD*%
D16*
%TO.C,L1*%
X103685000Y-66030000D03*
D17*
X103685000Y-76190000D03*
%TD*%
D18*
%TO.C,J1*%
X98135000Y-59730000D03*
D19*
X95595000Y-62270000D03*
X100675000Y-62270000D03*
X95595000Y-57190000D03*
X100675000Y-57190000D03*
%TD*%
D20*
%TO.C,J2*%
X141085000Y-62580000D03*
D21*
X141085000Y-65120000D03*
X141085000Y-67660000D03*
X141085000Y-70200000D03*
X141085000Y-72740000D03*
%TD*%
D20*
%TO.C,J4*%
X106685000Y-57140000D03*
D21*
X109225000Y-57140000D03*
X111765000Y-57140000D03*
X114305000Y-57140000D03*
X116845000Y-57140000D03*
X119385000Y-57140000D03*
X121925000Y-57140000D03*
%TD*%
D20*
%TO.C,J3*%
X125735000Y-57140000D03*
D21*
X128275000Y-57140000D03*
X130815000Y-57140000D03*
X133355000Y-57140000D03*
X135895000Y-57140000D03*
X138435000Y-57140000D03*
X140975000Y-57140000D03*
%TD*%
D10*
%TO.C,J7*%
X96785000Y-68080000D03*
D11*
X98785000Y-68080000D03*
X100785000Y-68080000D03*
%TD*%
D22*
%TO.C,Y1*%
X110210000Y-69130000D03*
X110210000Y-67230000D03*
%TD*%
D23*
%TO.C,D1*%
X136510000Y-72840000D03*
D24*
X136510000Y-62680000D03*
%TD*%
D18*
%TO.C,J5*%
X98045000Y-76820000D03*
D19*
X95505000Y-74280000D03*
X95505000Y-79360000D03*
X100585000Y-74280000D03*
X100585000Y-79360000D03*
%TD*%
D22*
%TO.C,TP6*%
X110525000Y-146510000D03*
%TD*%
D25*
%TO.C,C6*%
X98515000Y-111190000D03*
X98515000Y-116790000D03*
%TD*%
D26*
%TO.C,C3*%
X119057500Y-118750000D03*
X116932500Y-118750000D03*
%TD*%
D27*
%TO.C,C1*%
X125455000Y-109892500D03*
X125455000Y-107767500D03*
%TD*%
D28*
%TO.C,R5*%
X123105000Y-120620000D03*
X121105000Y-120620000D03*
%TD*%
D22*
%TO.C,TP2*%
X121845000Y-99720000D03*
%TD*%
D29*
%TO.C,C7*%
X119904300Y-114711400D03*
X122029300Y-114711400D03*
%TD*%
D22*
%TO.C,TP1*%
X130435000Y-99700000D03*
%TD*%
%TO.C,TP3*%
X113375000Y-99850000D03*
%TD*%
D10*
%TO.C,J4*%
X135775000Y-121290000D03*
D11*
X135775000Y-123290000D03*
X135775000Y-125290000D03*
X135775000Y-127290000D03*
X135775000Y-129290000D03*
X135775000Y-131290000D03*
X135775000Y-133290000D03*
%TD*%
D30*
%TO.C,U2*%
X139585000Y-109250400D03*
D31*
X139585000Y-111790400D03*
X139585000Y-114330400D03*
%TD*%
D32*
%TO.C,J1*%
X139788200Y-102240000D03*
D33*
X139788200Y-104780000D03*
%TD*%
%TO.C,SW4*%
X106915000Y-96450000D03*
X106915000Y-102950000D03*
X102415000Y-96450000D03*
X102415000Y-102950000D03*
%TD*%
%TO.C,SW2*%
X124015000Y-96450000D03*
X124015000Y-102950000D03*
X119515000Y-96450000D03*
X119515000Y-102950000D03*
%TD*%
%TO.C,SW1*%
X132565000Y-96450000D03*
X132565000Y-102950000D03*
X128065000Y-96450000D03*
X128065000Y-102950000D03*
%TD*%
%TO.C,SW5*%
X98365000Y-96450000D03*
X98365000Y-102950000D03*
X93865000Y-96450000D03*
X93865000Y-102950000D03*
%TD*%
D20*
%TO.C,J6*%
X129345000Y-138520000D03*
D21*
X126805000Y-138520000D03*
X124265000Y-138520000D03*
X121725000Y-138520000D03*
X119185000Y-138520000D03*
X116645000Y-138520000D03*
X114105000Y-138520000D03*
%TD*%
D20*
%TO.C,J5*%
X91035000Y-139380000D03*
D21*
X93575000Y-139380000D03*
X96115000Y-139380000D03*
X98655000Y-139380000D03*
X101195000Y-139380000D03*
X103735000Y-139380000D03*
X106275000Y-139380000D03*
%TD*%
D33*
%TO.C,SW3*%
X115465000Y-96450000D03*
X115465000Y-102950000D03*
X110965000Y-96450000D03*
X110965000Y-102950000D03*
%TD*%
D10*
%TO.C,J3*%
X129874600Y-134574200D03*
D11*
X127874600Y-134574200D03*
X125874600Y-134574200D03*
X123874600Y-134574200D03*
X121874600Y-134574200D03*
X119874600Y-134574200D03*
X117874600Y-134574200D03*
%TD*%
D20*
%TO.C,J8*%
X90675000Y-145890000D03*
D21*
X93215000Y-145890000D03*
X95755000Y-145890000D03*
X98295000Y-145890000D03*
X100835000Y-145890000D03*
X103375000Y-145890000D03*
X105915000Y-145890000D03*
%TD*%
D20*
%TO.C,J7*%
X130205000Y-145690000D03*
D21*
X127665000Y-145690000D03*
X125125000Y-145690000D03*
X122585000Y-145690000D03*
X120045000Y-145690000D03*
X117505000Y-145690000D03*
X114965000Y-145690000D03*
%TD*%
D16*
%TO.C,IC1*%
X82075000Y-124850000D03*
X84615000Y-124850000D03*
D34*
X87155000Y-124850000D03*
D16*
X89695000Y-124850000D03*
X92235000Y-124850000D03*
X94775000Y-124850000D03*
X97315000Y-124850000D03*
D34*
X99855000Y-124850000D03*
D16*
X102395000Y-124850000D03*
X104935000Y-124850000D03*
X107475000Y-124850000D03*
X110015000Y-124850000D03*
D34*
X112555000Y-124850000D03*
D16*
X115095000Y-124850000D03*
X117635000Y-124850000D03*
X120175000Y-124891881D03*
X122715000Y-124850000D03*
D34*
X125255000Y-124850000D03*
D16*
X127795000Y-124850000D03*
X130335000Y-124850000D03*
X130335000Y-142630000D03*
X127795000Y-142630000D03*
D34*
X125255000Y-142630000D03*
D16*
X122715000Y-142630000D03*
X120175000Y-142630000D03*
X117635000Y-142630000D03*
X115095000Y-142630000D03*
D34*
X112555000Y-142630000D03*
D16*
X110015000Y-142630000D03*
X107475000Y-142630000D03*
X104935000Y-142630000D03*
X102395000Y-142630000D03*
D34*
X99855000Y-142630000D03*
D16*
X97315000Y-142630000D03*
X94775000Y-142630000D03*
X92235000Y-142630000D03*
X89695000Y-142630000D03*
D34*
X87155000Y-142630000D03*
D16*
X84615000Y-142630000D03*
X82075000Y-142630000D03*
%TD*%
D28*
%TO.C,R2*%
X113485000Y-120580000D03*
X111485000Y-120580000D03*
%TD*%
D35*
%TO.C,U1*%
X125425000Y-111990000D03*
X127725000Y-111990000D03*
D36*
X127725000Y-118290000D03*
D35*
X130025000Y-111990000D03*
%TD*%
D37*
%TO.C,R10*%
X80835000Y-115660000D03*
X80835000Y-117660000D03*
%TD*%
D38*
%TO.C,J2*%
X140465000Y-126290000D03*
D39*
X140465000Y-128790000D03*
X140465000Y-131290000D03*
X140465000Y-133790000D03*
X140465000Y-136290000D03*
X140465000Y-138790000D03*
X140465000Y-141290000D03*
%TD*%
D40*
%TO.C,C2*%
X115441600Y-114635200D03*
X109841600Y-114635200D03*
%TD*%
D28*
%TO.C,R8*%
X85975000Y-120710000D03*
X83975000Y-120710000D03*
%TD*%
D41*
%TO.C,C8*%
X118205000Y-109860000D03*
X121805000Y-109860000D03*
%TD*%
D40*
%TO.C,C4*%
X91768800Y-114990800D03*
X86168800Y-114990800D03*
%TD*%
D42*
%TO.C,C5*%
X104355200Y-114711400D03*
X104355200Y-116836400D03*
%TD*%
D23*
%TO.C,D2*%
X134505000Y-117480000D03*
D24*
X134505000Y-107320000D03*
%TD*%
D22*
%TO.C,TP5*%
X83075000Y-146590000D03*
%TD*%
%TO.C,TP4*%
X105045000Y-99950000D03*
%TD*%
%TO.C,TP7*%
X113845000Y-109650000D03*
%TD*%
D37*
%TO.C,R3*%
X107735000Y-118280000D03*
X107735000Y-120280000D03*
%TD*%
D28*
%TO.C,R9*%
X103595000Y-120960000D03*
X101595000Y-120960000D03*
%TD*%
D43*
%TO.C,R1*%
X128975000Y-120960000D03*
X130975000Y-120960000D03*
%TD*%
D28*
%TO.C,R4*%
X95465000Y-120660000D03*
X93465000Y-120660000D03*
%TD*%
D44*
%TO.C,B1*%
X123015000Y-130767500D03*
D45*
X120475000Y-130767500D03*
X117935000Y-130767500D03*
X115395000Y-130767500D03*
D46*
X130205000Y-130267500D03*
X108205000Y-130267500D03*
X108205000Y-108267500D03*
X130205000Y-108267500D03*
%TD*%
D47*
%TO.C,SW6*%
X81245000Y-104780000D03*
D16*
X86245000Y-104780000D03*
X83745000Y-104780000D03*
X81245000Y-90280000D03*
X86245000Y-90280000D03*
D48*
X78145000Y-97280000D03*
X89345000Y-97280000D03*
%TD*%
D49*
%TO.C,D1*%
X75875000Y-141480000D03*
D17*
X75875000Y-131320000D03*
%TD*%
D44*
%TO.C,B2*%
X96310000Y-130776000D03*
D45*
X93770000Y-130776000D03*
X91230000Y-130776000D03*
X88690000Y-130776000D03*
D46*
X103500000Y-130276000D03*
X81500000Y-130276000D03*
X81500000Y-108276000D03*
X103500000Y-108276000D03*
%TD*%
D12*
%TO.C,J8*%
X78141650Y-80141650D03*
X85141650Y-80141650D03*
D13*
X84241650Y-76441650D03*
X86241650Y-83841650D03*
D14*
X76841650Y-83841650D03*
%TD*%
D10*
%TO.C,J6*%
X71376650Y-66966650D03*
D11*
X71376650Y-68966650D03*
X71376650Y-70966650D03*
%TD*%
D15*
%TO.C,U2*%
X68871650Y-71691650D03*
X67601650Y-71691650D03*
X66331650Y-71691650D03*
X65061650Y-71691650D03*
X63791650Y-71691650D03*
X62521650Y-71691650D03*
X61251650Y-71691650D03*
X59981650Y-71691650D03*
X59981650Y-66741650D03*
X61251650Y-66741650D03*
X62521650Y-66741650D03*
X63791650Y-66741650D03*
X65061650Y-66741650D03*
X66331650Y-66741650D03*
X67601650Y-66741650D03*
X68871650Y-66741650D03*
%TD*%
D16*
%TO.C,L1*%
X51126650Y-66066650D03*
D17*
X51126650Y-76226650D03*
%TD*%
D20*
%TO.C,J2*%
X88526650Y-62616650D03*
D21*
X88526650Y-65156650D03*
X88526650Y-67696650D03*
X88526650Y-70236650D03*
X88526650Y-72776650D03*
%TD*%
D18*
%TO.C,J1*%
X45576650Y-59766650D03*
D19*
X43036650Y-62306650D03*
X48116650Y-62306650D03*
X43036650Y-57226650D03*
X48116650Y-57226650D03*
%TD*%
D22*
%TO.C,Y1*%
X57651650Y-69166650D03*
X57651650Y-67266650D03*
%TD*%
D23*
%TO.C,D1*%
X83951650Y-72876650D03*
D24*
X83951650Y-62716650D03*
%TD*%
D20*
%TO.C,J4*%
X54126650Y-57176650D03*
D21*
X56666650Y-57176650D03*
X59206650Y-57176650D03*
X61746650Y-57176650D03*
X64286650Y-57176650D03*
X66826650Y-57176650D03*
X69366650Y-57176650D03*
%TD*%
D20*
%TO.C,J3*%
X73176650Y-57176650D03*
D21*
X75716650Y-57176650D03*
X78256650Y-57176650D03*
X80796650Y-57176650D03*
X83336650Y-57176650D03*
X85876650Y-57176650D03*
X88416650Y-57176650D03*
%TD*%
D18*
%TO.C,J5*%
X45486650Y-76856650D03*
D19*
X42946650Y-74316650D03*
X42946650Y-79396650D03*
X48026650Y-74316650D03*
X48026650Y-79396650D03*
%TD*%
D10*
%TO.C,J7*%
X44226650Y-68116650D03*
D11*
X46226650Y-68116650D03*
X48226650Y-68116650D03*
%TD*%
D23*
%TO.C,D1*%
X54328500Y-140230700D03*
D24*
X64488500Y-140230700D03*
%TD*%
D22*
%TO.C,Y1*%
X46278500Y-125500700D03*
X44378500Y-125500700D03*
%TD*%
D20*
%TO.C,J2*%
X63548500Y-144790700D03*
D21*
X61008500Y-144790700D03*
X58468500Y-144790700D03*
X55928500Y-144790700D03*
X53388500Y-144790700D03*
%TD*%
D16*
%TO.C,L1*%
X45495000Y-99960000D03*
D17*
X55655000Y-99960000D03*
%TD*%
D50*
%TO.C,2*%
X69625000Y-99960000D03*
D51*
X69625000Y-99960000D03*
%TD*%
D10*
%TO.C,J6*%
X58238500Y-94820700D03*
D11*
X56238500Y-94820700D03*
X54238500Y-94820700D03*
%TD*%
D52*
%TO.C,J1*%
X66998500Y-92790700D03*
D53*
X69538500Y-90250700D03*
X64458500Y-90250700D03*
X69538500Y-95330700D03*
X64458500Y-95330700D03*
%TD*%
D52*
%TO.C,J5*%
X45618500Y-92820700D03*
D53*
X43078500Y-95360700D03*
X48158500Y-95360700D03*
X43078500Y-90280700D03*
X48158500Y-90280700D03*
%TD*%
D20*
%TO.C,J4*%
X69548500Y-106544100D03*
D21*
X69548500Y-109084100D03*
X69548500Y-111624100D03*
X69548500Y-114164100D03*
X69548500Y-116704100D03*
X69548500Y-119244100D03*
X69548500Y-121784100D03*
%TD*%
D50*
%TO.C,1*%
X44225000Y-146950000D03*
D51*
X44225000Y-146950000D03*
%TD*%
D20*
%TO.C,J3*%
X69548500Y-127936300D03*
D21*
X69548500Y-130476300D03*
X69548500Y-133016300D03*
X69548500Y-135556300D03*
X69548500Y-138096300D03*
X69548500Y-140636300D03*
X69548500Y-143176300D03*
%TD*%
D16*
%TO.C,L2*%
X54938500Y-110380700D03*
D17*
X44778500Y-110380700D03*
%TD*%
D16*
%TO.C,L3*%
X44878500Y-104580700D03*
D17*
X55038500Y-104580700D03*
%TD*%
D10*
%TO.C,J7*%
X55138500Y-117940700D03*
D11*
X57138500Y-117940700D03*
X59138500Y-117940700D03*
%TD*%
D54*
%TO.C,U2*%
X53698500Y-122520700D03*
X54333500Y-122520700D03*
X54968500Y-122520700D03*
X55603500Y-122520700D03*
X56238500Y-122520700D03*
X56873500Y-122520700D03*
X57508500Y-122520700D03*
X58143500Y-122520700D03*
X58778500Y-122520700D03*
X59413500Y-122520700D03*
X60048500Y-122520700D03*
X60683500Y-122520700D03*
X60683500Y-127720700D03*
X60048500Y-127720700D03*
X59413500Y-127720700D03*
X58778500Y-127720700D03*
X58143500Y-127720700D03*
X57508500Y-127720700D03*
X56873500Y-127720700D03*
X56238500Y-127720700D03*
X55603500Y-127720700D03*
X54968500Y-127720700D03*
X54333500Y-127720700D03*
X53698500Y-127720700D03*
%TD*%
M02*
