%TF.GenerationSoftware,KiCad,Pcbnew,8.0.4*%
%TF.CreationDate,2025-05-03T00:51:18+05:30*%
%TF.ProjectId,TEST PNAL,54455354-2050-44e4-914c-2e6b69636164,rev?*%
%TF.SameCoordinates,Original*%
%TF.FileFunction,Soldermask,Top*%
%TF.FilePolarity,Negative*%
%FSLAX46Y46*%
G04 Gerber Fmt 4.6, Leading zero omitted, Abs format (unit mm)*
G04 Created by KiCad (PCBNEW 8.0.4) date 2025-05-03 00:51:18*
%MOMM*%
%LPD*%
G01*
G04 APERTURE LIST*
G04 Aperture macros list*
%AMRoundRect*
0 Rectangle with rounded corners*
0 $1 Rounding radius*
0 $2 $3 $4 $5 $6 $7 $8 $9 X,Y pos of 4 corners*
0 Add a 4 corners polygon primitive as box body*
4,1,4,$2,$3,$4,$5,$6,$7,$8,$9,$2,$3,0*
0 Add four circle primitives for the rounded corners*
1,1,$1+$1,$2,$3*
1,1,$1+$1,$4,$5*
1,1,$1+$1,$6,$7*
1,1,$1+$1,$8,$9*
0 Add four rect primitives between the rounded corners*
20,1,$1+$1,$2,$3,$4,$5,0*
20,1,$1+$1,$4,$5,$6,$7,0*
20,1,$1+$1,$6,$7,$8,$9,0*
20,1,$1+$1,$8,$9,$2,$3,0*%
G04 Aperture macros list end*
%ADD10R,1.350000X1.350000*%
%ADD11O,1.350000X1.350000*%
%ADD12C,1.700000*%
%ADD13RoundRect,0.250000X0.475000X-0.337500X0.475000X0.337500X-0.475000X0.337500X-0.475000X-0.337500X0*%
%ADD14RoundRect,0.250000X0.550000X-1.500000X0.550000X1.500000X-0.550000X1.500000X-0.550000X-1.500000X0*%
%ADD15C,1.600000*%
%ADD16O,1.600000X1.600000*%
%ADD17C,2.050000*%
%ADD18C,2.250000*%
%ADD19RoundRect,0.250000X-0.550000X1.500000X-0.550000X-1.500000X0.550000X-1.500000X0.550000X1.500000X0*%
%ADD20RoundRect,0.250000X0.337500X0.475000X-0.337500X0.475000X-0.337500X-0.475000X0.337500X-0.475000X0*%
%ADD21RoundRect,0.250000X0.450000X-0.350000X0.450000X0.350000X-0.450000X0.350000X-0.450000X-0.350000X0*%
%ADD22RoundRect,0.250000X-0.337500X-0.475000X0.337500X-0.475000X0.337500X0.475000X-0.337500X0.475000X0*%
%ADD23RoundRect,0.250000X-0.475000X0.337500X-0.475000X-0.337500X0.475000X-0.337500X0.475000X0.337500X0*%
%ADD24R,1.700000X1.700000*%
%ADD25O,1.700000X1.700000*%
%ADD26R,0.850800X1.761200*%
%ADD27R,3.150799X1.761200*%
%ADD28C,1.000000*%
%ADD29RoundRect,0.250000X-0.350000X-0.450000X0.350000X-0.450000X0.350000X0.450000X-0.350000X0.450000X0*%
%ADD30R,1.500000X1.500000*%
%ADD31O,1.500000X1.500000*%
%ADD32R,2.000000X1.905000*%
%ADD33O,2.000000X1.905000*%
%ADD34R,2.000000X2.000000*%
%ADD35C,2.000000*%
%ADD36RoundRect,0.250000X-0.450000X0.350000X-0.450000X-0.350000X0.450000X-0.350000X0.450000X0.350000X0*%
%ADD37RoundRect,0.200000X-0.600000X0.600000X-0.600000X-0.600000X0.600000X-0.600000X0.600000X0.600000X0*%
%ADD38RoundRect,0.250000X-0.725000X0.600000X-0.725000X-0.600000X0.725000X-0.600000X0.725000X0.600000X0*%
%ADD39O,1.950000X1.700000*%
%ADD40RoundRect,0.102000X0.754000X0.754000X-0.754000X0.754000X-0.754000X-0.754000X0.754000X-0.754000X0*%
%ADD41C,1.712000*%
%ADD42C,3.204000*%
%ADD43RoundRect,0.250000X0.550000X-0.550000X0.550000X0.550000X-0.550000X0.550000X-0.550000X-0.550000X0*%
%ADD44O,3.000000X4.100000*%
%ADD45R,1.600000X1.600000*%
%ADD46C,2.600000*%
%ADD47C,3.800000*%
%ADD48C,2.240000*%
%ADD49C,2.740000*%
%ADD50RoundRect,0.250000X1.500000X0.550000X-1.500000X0.550000X-1.500000X-0.550000X1.500000X-0.550000X0*%
%ADD51R,1.761200X0.850800*%
%ADD52R,1.761200X3.150799*%
%ADD53RoundRect,0.250000X0.350000X0.450000X-0.350000X0.450000X-0.350000X-0.450000X0.350000X-0.450000X0*%
G04 APERTURE END LIST*
D10*
%TO.C,J6*%
X123935000Y-66930000D03*
D11*
X123935000Y-68930000D03*
X123935000Y-70930000D03*
%TD*%
D12*
%TO.C,J8*%
X130700000Y-80105000D03*
X137700000Y-80105000D03*
%TD*%
D13*
%TO.C,C6*%
X114735000Y-63980000D03*
X114735000Y-61905000D03*
%TD*%
D14*
%TO.C,C2*%
X133935000Y-81380000D03*
X133935000Y-75780000D03*
%TD*%
D15*
%TO.C,L1*%
X103685000Y-66030000D03*
D16*
X103685000Y-76190000D03*
%TD*%
D17*
%TO.C,J1*%
X98135000Y-59730000D03*
D18*
X95595000Y-62270000D03*
X100675000Y-62270000D03*
X95595000Y-57190000D03*
X100675000Y-57190000D03*
%TD*%
D19*
%TO.C,C4*%
X112510000Y-75155000D03*
X112510000Y-80755000D03*
%TD*%
D20*
%TO.C,C7*%
X103285000Y-71380000D03*
X101210000Y-71380000D03*
%TD*%
D21*
%TO.C,R6*%
X111960000Y-63905000D03*
X111960000Y-61905000D03*
%TD*%
D20*
%TO.C,C8*%
X107885000Y-66905000D03*
X105810000Y-66905000D03*
%TD*%
D22*
%TO.C,C10*%
X98835000Y-65180000D03*
X100910000Y-65180000D03*
%TD*%
D23*
%TO.C,C3*%
X123485000Y-77355000D03*
X123485000Y-79430000D03*
%TD*%
D24*
%TO.C,J2*%
X141085000Y-62580000D03*
D25*
X141085000Y-65120000D03*
X141085000Y-67660000D03*
X141085000Y-70200000D03*
X141085000Y-72740000D03*
%TD*%
D21*
%TO.C,R4*%
X105985000Y-63955000D03*
X105985000Y-61955000D03*
%TD*%
D13*
%TO.C,C1*%
X127310000Y-77730000D03*
X127310000Y-75655000D03*
%TD*%
D21*
%TO.C,R3*%
X109335000Y-63930000D03*
X109335000Y-61930000D03*
%TD*%
D20*
%TO.C,C9*%
X107960000Y-71555000D03*
X105885000Y-71555000D03*
%TD*%
D24*
%TO.C,J4*%
X106685000Y-57140000D03*
D25*
X109225000Y-57140000D03*
X111765000Y-57140000D03*
X114305000Y-57140000D03*
X116845000Y-57140000D03*
X119385000Y-57140000D03*
X121925000Y-57140000D03*
%TD*%
D21*
%TO.C,R2*%
X125285000Y-63930000D03*
X125285000Y-61930000D03*
%TD*%
D24*
%TO.C,J3*%
X125735000Y-57140000D03*
D25*
X128275000Y-57140000D03*
X130815000Y-57140000D03*
X133355000Y-57140000D03*
X135895000Y-57140000D03*
X138435000Y-57140000D03*
X140975000Y-57140000D03*
%TD*%
D26*
%TO.C,U1*%
X127385000Y-72730000D03*
X129685000Y-72730000D03*
X131985000Y-72730000D03*
D27*
X129685000Y-66680000D03*
%TD*%
D10*
%TO.C,J7*%
X96785000Y-68080000D03*
D11*
X98785000Y-68080000D03*
X100785000Y-68080000D03*
%TD*%
D28*
%TO.C,Y1*%
X110210000Y-69130000D03*
X110210000Y-67230000D03*
%TD*%
D29*
%TO.C,R5*%
X117960000Y-75205000D03*
X119960000Y-75205000D03*
%TD*%
D30*
%TO.C,D1*%
X136510000Y-72840000D03*
D31*
X136510000Y-62680000D03*
%TD*%
D17*
%TO.C,J5*%
X98045000Y-76820000D03*
D18*
X95505000Y-74280000D03*
X95505000Y-79360000D03*
X100585000Y-74280000D03*
X100585000Y-79360000D03*
%TD*%
D23*
%TO.C,C5*%
X119535000Y-61980000D03*
X119535000Y-64055000D03*
%TD*%
D21*
%TO.C,R1*%
X128685000Y-63930000D03*
X128685000Y-61930000D03*
%TD*%
D10*
%TO.C,J4*%
X135775000Y-121290000D03*
D11*
X135775000Y-123290000D03*
X135775000Y-125290000D03*
X135775000Y-127290000D03*
X135775000Y-129290000D03*
X135775000Y-131290000D03*
X135775000Y-133290000D03*
%TD*%
D32*
%TO.C,U2*%
X139585000Y-109250400D03*
D33*
X139585000Y-111790400D03*
X139585000Y-114330400D03*
%TD*%
D34*
%TO.C,J1*%
X139788200Y-102240000D03*
D35*
X139788200Y-104780000D03*
%TD*%
%TO.C,SW4*%
X106915000Y-96450000D03*
X106915000Y-102950000D03*
X102415000Y-96450000D03*
X102415000Y-102950000D03*
%TD*%
%TO.C,SW2*%
X124015000Y-96450000D03*
X124015000Y-102950000D03*
X119515000Y-96450000D03*
X119515000Y-102950000D03*
%TD*%
%TO.C,SW1*%
X132565000Y-96450000D03*
X132565000Y-102950000D03*
X128065000Y-96450000D03*
X128065000Y-102950000D03*
%TD*%
%TO.C,SW5*%
X98365000Y-96450000D03*
X98365000Y-102950000D03*
X93865000Y-96450000D03*
X93865000Y-102950000D03*
%TD*%
D24*
%TO.C,J6*%
X129345000Y-138520000D03*
D25*
X126805000Y-138520000D03*
X124265000Y-138520000D03*
X121725000Y-138520000D03*
X119185000Y-138520000D03*
X116645000Y-138520000D03*
X114105000Y-138520000D03*
%TD*%
D36*
%TO.C,R6*%
X112525000Y-133620000D03*
X112525000Y-135620000D03*
%TD*%
%TO.C,R12*%
X107865000Y-133670000D03*
X107865000Y-135670000D03*
%TD*%
D24*
%TO.C,J5*%
X91035000Y-139380000D03*
D25*
X93575000Y-139380000D03*
X96115000Y-139380000D03*
X98655000Y-139380000D03*
X101195000Y-139380000D03*
X103735000Y-139380000D03*
X106275000Y-139380000D03*
%TD*%
D21*
%TO.C,R7*%
X99855000Y-135990000D03*
X99855000Y-133990000D03*
%TD*%
D35*
%TO.C,SW3*%
X115465000Y-96450000D03*
X115465000Y-102950000D03*
X110965000Y-96450000D03*
X110965000Y-102950000D03*
%TD*%
D36*
%TO.C,R11*%
X103175000Y-133970000D03*
X103175000Y-135970000D03*
%TD*%
D10*
%TO.C,J3*%
X129874600Y-134574200D03*
D11*
X127874600Y-134574200D03*
X125874600Y-134574200D03*
X123874600Y-134574200D03*
X121874600Y-134574200D03*
X119874600Y-134574200D03*
X117874600Y-134574200D03*
%TD*%
D24*
%TO.C,J8*%
X90675000Y-145890000D03*
D25*
X93215000Y-145890000D03*
X95755000Y-145890000D03*
X98295000Y-145890000D03*
X100835000Y-145890000D03*
X103375000Y-145890000D03*
X105915000Y-145890000D03*
%TD*%
D24*
%TO.C,J7*%
X130205000Y-145690000D03*
D25*
X127665000Y-145690000D03*
X125125000Y-145690000D03*
X122585000Y-145690000D03*
X120045000Y-145690000D03*
X117505000Y-145690000D03*
X114965000Y-145690000D03*
%TD*%
D15*
%TO.C,IC1*%
X82075000Y-124850000D03*
X84615000Y-124850000D03*
D37*
X87155000Y-124850000D03*
D15*
X89695000Y-124850000D03*
X92235000Y-124850000D03*
X94775000Y-124850000D03*
X97315000Y-124850000D03*
D37*
X99855000Y-124850000D03*
D15*
X102395000Y-124850000D03*
X104935000Y-124850000D03*
X107475000Y-124850000D03*
X110015000Y-124850000D03*
D37*
X112555000Y-124850000D03*
D15*
X115095000Y-124850000D03*
X117635000Y-124850000D03*
X120175000Y-124891881D03*
X122715000Y-124850000D03*
D37*
X125255000Y-124850000D03*
D15*
X127795000Y-124850000D03*
X130335000Y-124850000D03*
X130335000Y-142630000D03*
X127795000Y-142630000D03*
D37*
X125255000Y-142630000D03*
D15*
X122715000Y-142630000D03*
X120175000Y-142630000D03*
X117635000Y-142630000D03*
X115095000Y-142630000D03*
D37*
X112555000Y-142630000D03*
D15*
X110015000Y-142630000D03*
X107475000Y-142630000D03*
X104935000Y-142630000D03*
X102395000Y-142630000D03*
D37*
X99855000Y-142630000D03*
D15*
X97315000Y-142630000D03*
X94775000Y-142630000D03*
X92235000Y-142630000D03*
X89695000Y-142630000D03*
D37*
X87155000Y-142630000D03*
D15*
X84615000Y-142630000D03*
X82075000Y-142630000D03*
%TD*%
D38*
%TO.C,J2*%
X140465000Y-126290000D03*
D39*
X140465000Y-128790000D03*
X140465000Y-131290000D03*
X140465000Y-133790000D03*
X140465000Y-136290000D03*
X140465000Y-138790000D03*
X140465000Y-141290000D03*
%TD*%
D30*
%TO.C,D2*%
X134505000Y-117480000D03*
D31*
X134505000Y-107320000D03*
%TD*%
D40*
%TO.C,B1*%
X123015000Y-130767500D03*
D41*
X120475000Y-130767500D03*
X117935000Y-130767500D03*
X115395000Y-130767500D03*
D42*
X130205000Y-130267500D03*
X108205000Y-130267500D03*
X108205000Y-108267500D03*
X130205000Y-108267500D03*
%TD*%
D43*
%TO.C,SW6*%
X81245000Y-104780000D03*
D15*
X86245000Y-104780000D03*
X83745000Y-104780000D03*
X81245000Y-90280000D03*
X86245000Y-90280000D03*
D44*
X78145000Y-97280000D03*
X89345000Y-97280000D03*
%TD*%
D45*
%TO.C,D1*%
X75875000Y-141480000D03*
D16*
X75875000Y-131320000D03*
%TD*%
D40*
%TO.C,B2*%
X96310000Y-130776000D03*
D41*
X93770000Y-130776000D03*
X91230000Y-130776000D03*
X88690000Y-130776000D03*
D42*
X103500000Y-130276000D03*
X81500000Y-130276000D03*
X81500000Y-108276000D03*
X103500000Y-108276000D03*
%TD*%
D12*
%TO.C,J8*%
X78141650Y-80141650D03*
X85141650Y-80141650D03*
%TD*%
D13*
%TO.C,C6*%
X62176650Y-64016650D03*
X62176650Y-61941650D03*
%TD*%
D10*
%TO.C,J6*%
X71376650Y-66966650D03*
D11*
X71376650Y-68966650D03*
X71376650Y-70966650D03*
%TD*%
D15*
%TO.C,L1*%
X51126650Y-66066650D03*
D16*
X51126650Y-76226650D03*
%TD*%
D14*
%TO.C,C2*%
X81376650Y-81416650D03*
X81376650Y-75816650D03*
%TD*%
D24*
%TO.C,J2*%
X88526650Y-62616650D03*
D25*
X88526650Y-65156650D03*
X88526650Y-67696650D03*
X88526650Y-70236650D03*
X88526650Y-72776650D03*
%TD*%
D17*
%TO.C,J1*%
X45576650Y-59766650D03*
D18*
X43036650Y-62306650D03*
X48116650Y-62306650D03*
X43036650Y-57226650D03*
X48116650Y-57226650D03*
%TD*%
D19*
%TO.C,C4*%
X59951650Y-75191650D03*
X59951650Y-80791650D03*
%TD*%
D21*
%TO.C,R6*%
X59401650Y-63941650D03*
X59401650Y-61941650D03*
%TD*%
%TO.C,R4*%
X53426650Y-63991650D03*
X53426650Y-61991650D03*
%TD*%
D20*
%TO.C,C8*%
X55326650Y-66941650D03*
X53251650Y-66941650D03*
%TD*%
%TO.C,C7*%
X50726650Y-71416650D03*
X48651650Y-71416650D03*
%TD*%
D22*
%TO.C,C10*%
X46276650Y-65216650D03*
X48351650Y-65216650D03*
%TD*%
D23*
%TO.C,C3*%
X70926650Y-77391650D03*
X70926650Y-79466650D03*
%TD*%
D28*
%TO.C,Y1*%
X57651650Y-69166650D03*
X57651650Y-67266650D03*
%TD*%
D13*
%TO.C,C1*%
X74751650Y-77766650D03*
X74751650Y-75691650D03*
%TD*%
D29*
%TO.C,R5*%
X65401650Y-75241650D03*
X67401650Y-75241650D03*
%TD*%
D21*
%TO.C,R3*%
X56776650Y-63966650D03*
X56776650Y-61966650D03*
%TD*%
D30*
%TO.C,D1*%
X83951650Y-72876650D03*
D31*
X83951650Y-62716650D03*
%TD*%
D20*
%TO.C,C9*%
X55401650Y-71591650D03*
X53326650Y-71591650D03*
%TD*%
D24*
%TO.C,J4*%
X54126650Y-57176650D03*
D25*
X56666650Y-57176650D03*
X59206650Y-57176650D03*
X61746650Y-57176650D03*
X64286650Y-57176650D03*
X66826650Y-57176650D03*
X69366650Y-57176650D03*
%TD*%
D21*
%TO.C,R2*%
X72726650Y-63966650D03*
X72726650Y-61966650D03*
%TD*%
D23*
%TO.C,C5*%
X66976650Y-62016650D03*
X66976650Y-64091650D03*
%TD*%
D24*
%TO.C,J3*%
X73176650Y-57176650D03*
D25*
X75716650Y-57176650D03*
X78256650Y-57176650D03*
X80796650Y-57176650D03*
X83336650Y-57176650D03*
X85876650Y-57176650D03*
X88416650Y-57176650D03*
%TD*%
D21*
%TO.C,R1*%
X76126650Y-63966650D03*
X76126650Y-61966650D03*
%TD*%
D17*
%TO.C,J5*%
X45486650Y-76856650D03*
D18*
X42946650Y-74316650D03*
X42946650Y-79396650D03*
X48026650Y-74316650D03*
X48026650Y-79396650D03*
%TD*%
D26*
%TO.C,U1*%
X74826650Y-72766650D03*
X77126650Y-72766650D03*
X79426650Y-72766650D03*
D27*
X77126650Y-66716650D03*
%TD*%
D10*
%TO.C,J7*%
X44226650Y-68116650D03*
D11*
X46226650Y-68116650D03*
X48226650Y-68116650D03*
%TD*%
D30*
%TO.C,D1*%
X54328500Y-140230700D03*
D31*
X64488500Y-140230700D03*
%TD*%
D13*
%TO.C,C7*%
X49828500Y-120360700D03*
X49828500Y-118285700D03*
%TD*%
D29*
%TO.C,R2*%
X64418500Y-129780700D03*
X66418500Y-129780700D03*
%TD*%
D28*
%TO.C,Y1*%
X46278500Y-125500700D03*
X44378500Y-125500700D03*
%TD*%
D24*
%TO.C,J2*%
X63548500Y-144790700D03*
D25*
X61008500Y-144790700D03*
X58468500Y-144790700D03*
X55928500Y-144790700D03*
X53388500Y-144790700D03*
%TD*%
D20*
%TO.C,C9*%
X60358500Y-113840700D03*
X58283500Y-113840700D03*
%TD*%
D15*
%TO.C,L1*%
X45495000Y-99960000D03*
D16*
X55655000Y-99960000D03*
%TD*%
D46*
%TO.C,2*%
X69625000Y-99960000D03*
D47*
X69625000Y-99960000D03*
%TD*%
D20*
%TO.C,C6*%
X66356000Y-118260700D03*
X64281000Y-118260700D03*
%TD*%
D14*
%TO.C,C4*%
X62718500Y-105290700D03*
X62718500Y-99690700D03*
%TD*%
D13*
%TO.C,C3*%
X49678500Y-134655700D03*
X49678500Y-132580700D03*
%TD*%
%TO.C,C8*%
X58258500Y-109408200D03*
X58258500Y-107333200D03*
%TD*%
D10*
%TO.C,J6*%
X58238500Y-94820700D03*
D11*
X56238500Y-94820700D03*
X54238500Y-94820700D03*
%TD*%
D48*
%TO.C,J1*%
X66998500Y-92790700D03*
D49*
X69538500Y-90250700D03*
X64458500Y-90250700D03*
X69538500Y-95330700D03*
X64458500Y-95330700D03*
%TD*%
D29*
%TO.C,R3*%
X64288500Y-111980700D03*
X66288500Y-111980700D03*
%TD*%
D23*
%TO.C,C11*%
X49828500Y-126865700D03*
X49828500Y-128940700D03*
%TD*%
D48*
%TO.C,J5*%
X45618500Y-92820700D03*
D49*
X43078500Y-95360700D03*
X48158500Y-95360700D03*
X43078500Y-90280700D03*
X48158500Y-90280700D03*
%TD*%
D24*
%TO.C,J4*%
X69548500Y-106544100D03*
D25*
X69548500Y-109084100D03*
X69548500Y-111624100D03*
X69548500Y-114164100D03*
X69548500Y-116704100D03*
X69548500Y-119244100D03*
X69548500Y-121784100D03*
%TD*%
D29*
%TO.C,R4*%
X64268500Y-109520700D03*
X66268500Y-109520700D03*
%TD*%
D46*
%TO.C,1*%
X44225000Y-146950000D03*
D47*
X44225000Y-146950000D03*
%TD*%
D24*
%TO.C,J3*%
X69548500Y-127936300D03*
D25*
X69548500Y-130476300D03*
X69548500Y-133016300D03*
X69548500Y-135556300D03*
X69548500Y-138096300D03*
X69548500Y-140636300D03*
X69548500Y-143176300D03*
%TD*%
D50*
%TO.C,C2*%
X50848500Y-140240700D03*
X45248500Y-140240700D03*
%TD*%
D20*
%TO.C,C5*%
X66248500Y-121870700D03*
X64173500Y-121870700D03*
%TD*%
D15*
%TO.C,L2*%
X54938500Y-110380700D03*
D16*
X44778500Y-110380700D03*
%TD*%
D51*
%TO.C,U1*%
X53523500Y-132490700D03*
X53523500Y-134790700D03*
X53523500Y-137090700D03*
D52*
X59573500Y-134790700D03*
%TD*%
D36*
%TO.C,R5*%
X49868500Y-122600700D03*
X49868500Y-124600700D03*
%TD*%
D15*
%TO.C,L3*%
X44878500Y-104580700D03*
D16*
X55038500Y-104580700D03*
%TD*%
D29*
%TO.C,R1*%
X64578500Y-134690700D03*
X66578500Y-134690700D03*
%TD*%
D13*
%TO.C,C1*%
X49778500Y-114950700D03*
X49778500Y-112875700D03*
%TD*%
D53*
%TO.C,R7*%
X66358500Y-114590700D03*
X64358500Y-114590700D03*
%TD*%
D22*
%TO.C,C10*%
X44613500Y-130510700D03*
X46688500Y-130510700D03*
%TD*%
D10*
%TO.C,J7*%
X55138500Y-117940700D03*
D11*
X57138500Y-117940700D03*
X59138500Y-117940700D03*
%TD*%
M02*
