%TF.GenerationSoftware,KiCad,Pcbnew,8.0.4*%
%TF.CreationDate,2025-05-02T23:49:30+05:30*%
%TF.ProjectId,Si4732Board,53693437-3332-4426-9f61-72642e6b6963,rev?*%
%TF.SameCoordinates,Original*%
%TF.FileFunction,Soldermask,Top*%
%TF.FilePolarity,Negative*%
%FSLAX46Y46*%
G04 Gerber Fmt 4.6, Leading zero omitted, Abs format (unit mm)*
G04 Created by KiCad (PCBNEW 8.0.4) date 2025-05-02 23:49:30*
%MOMM*%
%LPD*%
G01*
G04 APERTURE LIST*
G04 Aperture macros list*
%AMRoundRect*
0 Rectangle with rounded corners*
0 $1 Rounding radius*
0 $2 $3 $4 $5 $6 $7 $8 $9 X,Y pos of 4 corners*
0 Add a 4 corners polygon primitive as box body*
4,1,4,$2,$3,$4,$5,$6,$7,$8,$9,$2,$3,0*
0 Add four circle primitives for the rounded corners*
1,1,$1+$1,$2,$3*
1,1,$1+$1,$4,$5*
1,1,$1+$1,$6,$7*
1,1,$1+$1,$8,$9*
0 Add four rect primitives between the rounded corners*
20,1,$1+$1,$2,$3,$4,$5,0*
20,1,$1+$1,$4,$5,$6,$7,0*
20,1,$1+$1,$6,$7,$8,$9,0*
20,1,$1+$1,$8,$9,$2,$3,0*%
G04 Aperture macros list end*
%ADD10R,1.761200X0.850800*%
%ADD11R,1.761200X3.150799*%
%ADD12R,1.700000X1.700000*%
%ADD13O,1.700000X1.700000*%
%ADD14R,1.350000X1.350000*%
%ADD15O,1.350000X1.350000*%
%ADD16C,2.050000*%
%ADD17C,2.250000*%
%ADD18RoundRect,0.250000X-0.350000X-0.450000X0.350000X-0.450000X0.350000X0.450000X-0.350000X0.450000X0*%
%ADD19C,1.000000*%
%ADD20R,1.500000X1.500000*%
%ADD21O,1.500000X1.500000*%
%ADD22RoundRect,0.250000X-0.450000X0.350000X-0.450000X-0.350000X0.450000X-0.350000X0.450000X0.350000X0*%
%ADD23RoundRect,0.250000X0.337500X0.475000X-0.337500X0.475000X-0.337500X-0.475000X0.337500X-0.475000X0*%
%ADD24RoundRect,0.250000X0.475000X-0.337500X0.475000X0.337500X-0.475000X0.337500X-0.475000X-0.337500X0*%
%ADD25RoundRect,0.250000X-0.337500X-0.475000X0.337500X-0.475000X0.337500X0.475000X-0.337500X0.475000X0*%
%ADD26RoundRect,0.250000X-0.475000X0.337500X-0.475000X-0.337500X0.475000X-0.337500X0.475000X0.337500X0*%
%ADD27RoundRect,0.250000X1.500000X0.550000X-1.500000X0.550000X-1.500000X-0.550000X1.500000X-0.550000X0*%
%ADD28RoundRect,0.250000X-1.500000X-0.550000X1.500000X-0.550000X1.500000X0.550000X-1.500000X0.550000X0*%
%ADD29C,1.700000*%
%ADD30C,1.600000*%
%ADD31O,1.600000X1.600000*%
G04 APERTURE END LIST*
D10*
%TO.C,U1*%
X136475000Y-104985000D03*
X136475000Y-107285000D03*
X136475000Y-109585000D03*
D11*
X142525000Y-107285000D03*
%TD*%
D12*
%TO.C,J3*%
X152065000Y-103335000D03*
D13*
X152065000Y-105875000D03*
X152065000Y-108415000D03*
X152065000Y-110955000D03*
X152065000Y-113495000D03*
X152065000Y-116035000D03*
X152065000Y-118575000D03*
%TD*%
D14*
%TO.C,J7*%
X141125000Y-74385000D03*
D15*
X141125000Y-76385000D03*
X141125000Y-78385000D03*
%TD*%
D16*
%TO.C,J5*%
X132385000Y-75645000D03*
D17*
X134925000Y-73105000D03*
X129845000Y-73105000D03*
X134925000Y-78185000D03*
X129845000Y-78185000D03*
%TD*%
D18*
%TO.C,R1*%
X145275000Y-106285000D03*
X147275000Y-106285000D03*
%TD*%
D19*
%TO.C,Y1*%
X140075000Y-87810000D03*
X141975000Y-87810000D03*
%TD*%
D20*
%TO.C,D1*%
X136365000Y-114110000D03*
D21*
X146525000Y-114110000D03*
%TD*%
D12*
%TO.C,J4*%
X152065000Y-84285000D03*
D13*
X152065000Y-86825000D03*
X152065000Y-89365000D03*
X152065000Y-91905000D03*
X152065000Y-94445000D03*
X152065000Y-96985000D03*
X152065000Y-99525000D03*
%TD*%
D18*
%TO.C,R3*%
X145275000Y-86935000D03*
X147275000Y-86935000D03*
%TD*%
D22*
%TO.C,R5*%
X134000000Y-95560000D03*
X134000000Y-97560000D03*
%TD*%
D23*
%TO.C,C5*%
X147225000Y-97135000D03*
X145150000Y-97135000D03*
%TD*%
D24*
%TO.C,C9*%
X137650000Y-85560000D03*
X137650000Y-83485000D03*
%TD*%
D25*
%TO.C,C1*%
X131475000Y-104910000D03*
X133550000Y-104910000D03*
%TD*%
D23*
%TO.C,C3*%
X131850000Y-101085000D03*
X129775000Y-101085000D03*
%TD*%
D18*
%TO.C,R2*%
X145275000Y-102885000D03*
X147275000Y-102885000D03*
%TD*%
D26*
%TO.C,C10*%
X144025000Y-76435000D03*
X144025000Y-78510000D03*
%TD*%
D24*
%TO.C,C7*%
X137825000Y-80885000D03*
X137825000Y-78810000D03*
%TD*%
D18*
%TO.C,R6*%
X145300000Y-89560000D03*
X147300000Y-89560000D03*
%TD*%
D12*
%TO.C,J2*%
X146625000Y-118685000D03*
D13*
X144085000Y-118685000D03*
X141545000Y-118685000D03*
X139005000Y-118685000D03*
X136465000Y-118685000D03*
%TD*%
D18*
%TO.C,R4*%
X145250000Y-83585000D03*
X147250000Y-83585000D03*
%TD*%
D24*
%TO.C,C8*%
X142300000Y-85485000D03*
X142300000Y-83410000D03*
%TD*%
D27*
%TO.C,C4*%
X134050000Y-90110000D03*
X128450000Y-90110000D03*
%TD*%
D16*
%TO.C,J1*%
X149475000Y-75735000D03*
D17*
X146935000Y-73195000D03*
X146935000Y-78275000D03*
X152015000Y-73195000D03*
X152015000Y-78275000D03*
%TD*%
D14*
%TO.C,J6*%
X142275000Y-101535000D03*
D15*
X140275000Y-101535000D03*
X138275000Y-101535000D03*
%TD*%
D25*
%TO.C,C6*%
X145225000Y-92335000D03*
X147300000Y-92335000D03*
%TD*%
D28*
%TO.C,C2*%
X127825000Y-111535000D03*
X133425000Y-111535000D03*
%TD*%
D29*
%TO.C,J8*%
X129100000Y-108300000D03*
X129100000Y-115300000D03*
%TD*%
D30*
%TO.C,L1*%
X143175000Y-81285000D03*
D31*
X133015000Y-81285000D03*
%TD*%
M02*
