%TF.GenerationSoftware,KiCad,Pcbnew,8.0.4*%
%TF.CreationDate,2025-05-02T23:49:30+05:30*%
%TF.ProjectId,Si4732Board,53693437-3332-4426-9f61-72642e6b6963,rev?*%
%TF.SameCoordinates,Original*%
%TF.FileFunction,Copper,L2,Bot*%
%TF.FilePolarity,Positive*%
%FSLAX46Y46*%
G04 Gerber Fmt 4.6, Leading zero omitted, Abs format (unit mm)*
G04 Created by KiCad (PCBNEW 8.0.4) date 2025-05-02 23:49:30*
%MOMM*%
%LPD*%
G01*
G04 APERTURE LIST*
G04 Aperture macros list*
%AMRoundRect*
0 Rectangle with rounded corners*
0 $1 Rounding radius*
0 $2 $3 $4 $5 $6 $7 $8 $9 X,Y pos of 4 corners*
0 Add a 4 corners polygon primitive as box body*
4,1,4,$2,$3,$4,$5,$6,$7,$8,$9,$2,$3,0*
0 Add four circle primitives for the rounded corners*
1,1,$1+$1,$2,$3*
1,1,$1+$1,$4,$5*
1,1,$1+$1,$6,$7*
1,1,$1+$1,$8,$9*
0 Add four rect primitives between the rounded corners*
20,1,$1+$1,$2,$3,$4,$5,0*
20,1,$1+$1,$4,$5,$6,$7,0*
20,1,$1+$1,$6,$7,$8,$9,0*
20,1,$1+$1,$8,$9,$2,$3,0*%
G04 Aperture macros list end*
%TA.AperFunction,ComponentPad*%
%ADD10R,1.700000X1.700000*%
%TD*%
%TA.AperFunction,ComponentPad*%
%ADD11O,1.700000X1.700000*%
%TD*%
%TA.AperFunction,ComponentPad*%
%ADD12R,1.350000X1.350000*%
%TD*%
%TA.AperFunction,ComponentPad*%
%ADD13O,1.350000X1.350000*%
%TD*%
%TA.AperFunction,ComponentPad*%
%ADD14C,2.050000*%
%TD*%
%TA.AperFunction,ComponentPad*%
%ADD15C,2.250000*%
%TD*%
%TA.AperFunction,ComponentPad*%
%ADD16C,1.000000*%
%TD*%
%TA.AperFunction,ComponentPad*%
%ADD17R,1.500000X1.500000*%
%TD*%
%TA.AperFunction,ComponentPad*%
%ADD18O,1.500000X1.500000*%
%TD*%
%TA.AperFunction,SMDPad,CuDef*%
%ADD19R,2.800000X2.200000*%
%TD*%
%TA.AperFunction,SMDPad,CuDef*%
%ADD20R,2.800000X2.800000*%
%TD*%
%TA.AperFunction,ComponentPad*%
%ADD21C,1.600000*%
%TD*%
%TA.AperFunction,ComponentPad*%
%ADD22O,1.600000X1.600000*%
%TD*%
%TA.AperFunction,SMDPad,CuDef*%
%ADD23RoundRect,0.150000X-0.825000X-0.150000X0.825000X-0.150000X0.825000X0.150000X-0.825000X0.150000X0*%
%TD*%
%TA.AperFunction,ViaPad*%
%ADD24C,0.600000*%
%TD*%
%TA.AperFunction,Conductor*%
%ADD25C,0.200000*%
%TD*%
G04 APERTURE END LIST*
D10*
%TO.P,J3,1,Pin_1*%
%TO.N,SCL*%
X152065000Y-103335000D03*
D11*
%TO.P,J3,2,Pin_2*%
%TO.N,SDA*%
X152065000Y-105875000D03*
%TO.P,J3,3,Pin_3*%
%TO.N,GND*%
X152065000Y-108415000D03*
%TO.P,J3,4,Pin_4*%
%TO.N,DOUT*%
X152065000Y-110955000D03*
%TO.P,J3,5,Pin_5*%
%TO.N,DFS*%
X152065000Y-113495000D03*
%TO.P,J3,6,Pin_6*%
%TO.N,GPIO2*%
X152065000Y-116035000D03*
%TO.P,J3,7,Pin_7*%
%TO.N,RCLK*%
X152065000Y-118575000D03*
%TD*%
D12*
%TO.P,J7,1,Pin_1*%
%TO.N,AMANT*%
X141125000Y-74385000D03*
D13*
%TO.P,J7,2,Pin_2*%
%TO.N,RFGND*%
X141125000Y-76385000D03*
%TO.P,J7,3,Pin_3*%
%TO.N,FMANT*%
X141125000Y-78385000D03*
%TD*%
D14*
%TO.P,J5,1,In*%
%TO.N,FMANT*%
X132385000Y-75645000D03*
D15*
%TO.P,J5,2,Ext*%
%TO.N,RFGND*%
X134925000Y-73105000D03*
X129845000Y-73105000D03*
X134925000Y-78185000D03*
X129845000Y-78185000D03*
%TD*%
D16*
%TO.P,Y1,1,1*%
%TO.N,Net-(C9-Pad1)*%
X140075000Y-87810000D03*
%TO.P,Y1,2,2*%
%TO.N,RCLK*%
X141975000Y-87810000D03*
%TD*%
D17*
%TO.P,D1,1,K*%
%TO.N,Net-(D1-K)*%
X136365000Y-114110000D03*
D18*
%TO.P,D1,2,A*%
%TO.N,9V*%
X146525000Y-114110000D03*
%TD*%
D10*
%TO.P,J4,1,Pin_1*%
%TO.N,SCL1*%
X152065000Y-84285000D03*
D11*
%TO.P,J4,2,Pin_2*%
%TO.N,SDA1*%
X152065000Y-86825000D03*
%TO.P,J4,3,Pin_3*%
%TO.N,RST*%
X152065000Y-89365000D03*
%TO.P,J4,4,Pin_4*%
%TO.N,3V3R2*%
X152065000Y-91905000D03*
%TO.P,J4,5,Pin_5*%
%TO.N,ROUT*%
X152065000Y-94445000D03*
%TO.P,J4,6,Pin_6*%
%TO.N,LOUT*%
X152065000Y-96985000D03*
%TO.P,J4,7,Pin_7*%
%TO.N,GND*%
X152065000Y-99525000D03*
%TD*%
D10*
%TO.P,J2,1,Pin_1*%
%TO.N,GND*%
X146625000Y-118685000D03*
D11*
%TO.P,J2,2,Pin_2*%
X144085000Y-118685000D03*
%TO.P,J2,3,Pin_3*%
%TO.N,3V3R2*%
X141545000Y-118685000D03*
%TO.P,J2,4,Pin_4*%
%TO.N,9V*%
X139005000Y-118685000D03*
%TO.P,J2,5,Pin_5*%
%TO.N,GND*%
X136465000Y-118685000D03*
%TD*%
D14*
%TO.P,J1,1,In*%
%TO.N,AMANT*%
X149475000Y-75735000D03*
D15*
%TO.P,J1,2,Ext*%
%TO.N,RFGND*%
X146935000Y-73195000D03*
X146935000Y-78275000D03*
X152015000Y-73195000D03*
X152015000Y-78275000D03*
%TD*%
D12*
%TO.P,J6,1,Pin_1*%
%TO.N,3V3R2*%
X142275000Y-101535000D03*
D13*
%TO.P,J6,2,Pin_2*%
%TO.N,SEN*%
X140275000Y-101535000D03*
%TO.P,J6,3,Pin_3*%
%TO.N,GND*%
X138275000Y-101535000D03*
%TD*%
D19*
%TO.P,J8,R*%
%TO.N,ROUT*%
X132800000Y-114400000D03*
%TO.P,J8,S*%
%TO.N,GND*%
X125400000Y-116400000D03*
D20*
%TO.P,J8,T*%
%TO.N,LOUT*%
X125400000Y-107000000D03*
%TD*%
D21*
%TO.P,L1,1,1*%
%TO.N,AMANT*%
X143175000Y-81285000D03*
D22*
%TO.P,L1,2,2*%
%TO.N,RFGND*%
X133015000Y-81285000D03*
%TD*%
D23*
%TO.P,U2,1,LOUT/DFS*%
%TO.N,DFS*%
X137550000Y-99030000D03*
%TO.P,U2,2,GPO3/DCLK*%
%TO.N,DCLK*%
X137550000Y-97760000D03*
%TO.P,U2,3,GPO2/INTB*%
%TO.N,GPIO2*%
X137550000Y-96490000D03*
%TO.P,U2,4,GPO1*%
%TO.N,unconnected-(U2-GPO1-Pad4)*%
X137550000Y-95220000D03*
%TO.P,U2,5,NC*%
%TO.N,unconnected-(U2-NC-Pad5)*%
X137550000Y-93950000D03*
%TO.P,U2,6,FMI*%
%TO.N,Net-(U2-FMI)*%
X137550000Y-92680000D03*
%TO.P,U2,7,RFGND*%
%TO.N,RFGND*%
X137550000Y-91410000D03*
%TO.P,U2,8,AMI*%
%TO.N,Net-(U2-AMI)*%
X137550000Y-90140000D03*
%TO.P,U2,9,\u002ARST*%
%TO.N,Net-(U2-\u002ARST)*%
X142500000Y-90140000D03*
%TO.P,U2,10,SENB*%
%TO.N,SEN*%
X142500000Y-91410000D03*
%TO.P,U2,11,SCLK*%
%TO.N,SCL*%
X142500000Y-92680000D03*
%TO.P,U2,12,SDIO*%
%TO.N,SDA*%
X142500000Y-93950000D03*
%TO.P,U2,13,RCLK*%
%TO.N,RCLK*%
X142500000Y-95220000D03*
%TO.P,U2,14,VDD*%
%TO.N,3V3R2*%
X142500000Y-96490000D03*
%TO.P,U2,15,GND*%
%TO.N,GND*%
X142500000Y-97760000D03*
%TO.P,U2,16,ROUT/DOUT*%
%TO.N,DOUT*%
X142500000Y-99030000D03*
%TD*%
D24*
%TO.N,3V3R2*%
X144019800Y-96790000D03*
X134927000Y-104059300D03*
%TO.N,SDA*%
X143606800Y-100183800D03*
X144124600Y-95120600D03*
%TO.N,SCL*%
X146174000Y-95972800D03*
%TO.N,ROUT*%
X150057300Y-112321300D03*
%TO.N,DFS*%
X145354000Y-95498000D03*
X145220800Y-100210800D03*
%TO.N,DOUT*%
X142246300Y-100230700D03*
%TO.N,Net-(U2-FMI)*%
X135394600Y-92107300D03*
%TO.N,RCLK*%
X139770200Y-95456800D03*
X141634900Y-121156100D03*
%TO.N,Net-(U2-AMI)*%
X142525400Y-89148600D03*
%TO.N,GPIO2*%
X149455500Y-111445300D03*
%TO.N,SEN*%
X141000800Y-91677100D03*
%TO.N,DCLK*%
X133909800Y-98707400D03*
%TO.N,Net-(U2-\u002ARST)*%
X146866600Y-91075500D03*
%TD*%
D25*
%TO.N,AMANT*%
X141125000Y-74385000D02*
X142101700Y-74385000D01*
X143451700Y-75735000D02*
X149475000Y-75735000D01*
X142101700Y-74385000D02*
X143451700Y-75735000D01*
%TO.N,FMANT*%
X137408300Y-75645000D02*
X140148300Y-78385000D01*
X132385000Y-75645000D02*
X137408300Y-75645000D01*
X141125000Y-78385000D02*
X140148300Y-78385000D01*
%TO.N,RFGND*%
X141125000Y-76385000D02*
X142101700Y-76385000D01*
X136868300Y-73105000D02*
X140148300Y-76385000D01*
X141125000Y-76385000D02*
X140148300Y-76385000D01*
X143991700Y-78275000D02*
X146935000Y-78275000D01*
X133015000Y-81285000D02*
X133015000Y-87242700D01*
X129845000Y-78185000D02*
X134925000Y-78185000D01*
X142101700Y-76385000D02*
X143991700Y-78275000D01*
X133015000Y-87242700D02*
X137182300Y-91410000D01*
X129845000Y-73105000D02*
X134925000Y-73105000D01*
X146935000Y-78275000D02*
X152015000Y-78275000D01*
X137182300Y-91410000D02*
X137550000Y-91410000D01*
X134925000Y-73105000D02*
X136868300Y-73105000D01*
X146935000Y-73195000D02*
X152015000Y-73195000D01*
%TO.N,3V3R2*%
X139140300Y-104059300D02*
X134927000Y-104059300D01*
X144019800Y-96791200D02*
X144019800Y-96790000D01*
X144019800Y-96597700D02*
X146451100Y-96597700D01*
X142500000Y-96490000D02*
X142607700Y-96597700D01*
X141298300Y-101901300D02*
X139140300Y-104059300D01*
X141298300Y-101535000D02*
X141298300Y-101901300D01*
X152065000Y-91905000D02*
X150913300Y-91905000D01*
X142607700Y-96597700D02*
X144019800Y-96597700D01*
X142275000Y-101535000D02*
X141298300Y-101535000D01*
X150913300Y-92135500D02*
X150913300Y-91905000D01*
X146451100Y-96597700D02*
X150913300Y-92135500D01*
X144019800Y-96791200D02*
X144019800Y-96790000D01*
X144019800Y-96597700D02*
X144019800Y-96790000D01*
%TO.N,9V*%
X139005000Y-118685000D02*
X140156700Y-118685000D01*
X146525000Y-114110000D02*
X144463200Y-114110000D01*
X140156700Y-118416500D02*
X140156700Y-118685000D01*
X144463200Y-114110000D02*
X140156700Y-118416500D01*
%TO.N,SDA*%
X149298000Y-105875000D02*
X143606800Y-100183800D01*
X144124600Y-95120600D02*
X142954000Y-93950000D01*
X142954000Y-93950000D02*
X142500000Y-93950000D01*
X152065000Y-105875000D02*
X149298000Y-105875000D01*
%TO.N,LOUT*%
X143770700Y-97392900D02*
X143502900Y-97125100D01*
X125400000Y-107000000D02*
X127101700Y-107000000D01*
X152065000Y-96985000D02*
X150913300Y-96985000D01*
X130644100Y-103457600D02*
X127101700Y-107000000D01*
X141079700Y-97125100D02*
X134747200Y-103457600D01*
X150505400Y-97392900D02*
X143770700Y-97392900D01*
X134747200Y-103457600D02*
X130644100Y-103457600D01*
X143502900Y-97125100D02*
X141079700Y-97125100D01*
X150913300Y-96985000D02*
X150505400Y-97392900D01*
%TO.N,SCL*%
X143412700Y-92680000D02*
X142500000Y-92680000D01*
X146174000Y-95441300D02*
X143412700Y-92680000D01*
X146174000Y-95972800D02*
X146174000Y-95441300D01*
%TO.N,ROUT*%
X144664600Y-112321400D02*
X150055700Y-112321400D01*
X134501700Y-114400000D02*
X135263400Y-115161700D01*
X141824300Y-115161700D02*
X144664600Y-112321400D01*
X150055700Y-112321300D02*
X151311600Y-112321300D01*
X150055700Y-112321300D02*
X150057300Y-112321300D01*
X135263400Y-115161700D02*
X141824300Y-115161700D01*
X151311600Y-112321300D02*
X150055700Y-112321300D01*
X132800000Y-114400000D02*
X134501700Y-114400000D01*
X150055700Y-112321400D02*
X150055700Y-112321300D01*
%TO.N,GND*%
X149182900Y-97794600D02*
X150913300Y-99525000D01*
X137616700Y-118953500D02*
X137616700Y-118685000D01*
X142068900Y-119837300D02*
X138500500Y-119837300D01*
X139251700Y-100558300D02*
X139251700Y-101535000D01*
X144085000Y-118685000D02*
X142933300Y-118685000D01*
X136465000Y-118685000D02*
X137616700Y-118685000D01*
X142500000Y-97760000D02*
X142534600Y-97794600D01*
X142050000Y-97760000D02*
X139251700Y-100558300D01*
X152065000Y-99525000D02*
X150913300Y-99525000D01*
X142933300Y-118685000D02*
X142933300Y-118972900D01*
X126283300Y-118685000D02*
X125400000Y-117801700D01*
X142500000Y-97760000D02*
X142050000Y-97760000D01*
X136465000Y-118685000D02*
X126283300Y-118685000D01*
X138275000Y-101535000D02*
X139251700Y-101535000D01*
X142534600Y-97794600D02*
X149182900Y-97794600D01*
X142933300Y-118972900D02*
X142068900Y-119837300D01*
X138500500Y-119837300D02*
X137616700Y-118953500D01*
X125400000Y-116400000D02*
X125400000Y-117801700D01*
X146625000Y-118685000D02*
X144085000Y-118685000D01*
%TO.N,DFS*%
X138912600Y-98012100D02*
X137894700Y-99030000D01*
X152065000Y-113495000D02*
X152065000Y-112343300D01*
X152502400Y-104604900D02*
X153216700Y-105319200D01*
X149614900Y-104604900D02*
X152502400Y-104604900D01*
X153216700Y-111460100D02*
X152333500Y-112343300D01*
X141028500Y-93347700D02*
X138912600Y-95463600D01*
X153216700Y-105319200D02*
X153216700Y-111460100D01*
X137894700Y-99030000D02*
X137550000Y-99030000D01*
X145354000Y-95498000D02*
X145150000Y-95702000D01*
X145150000Y-95702000D02*
X145354000Y-95498000D01*
X143512400Y-93347700D02*
X141028500Y-93347700D01*
X143777300Y-93612600D02*
X143512400Y-93347700D01*
X145220800Y-100210800D02*
X149614900Y-104604900D01*
X138912600Y-95463600D02*
X138912600Y-98012100D01*
X145354000Y-95498000D02*
X143777300Y-93921300D01*
X152333500Y-112343300D02*
X152065000Y-112343300D01*
X143777300Y-93921300D02*
X143777300Y-93612600D01*
%TO.N,DOUT*%
X142246300Y-100230700D02*
X142504700Y-99972300D01*
X150675200Y-108142800D02*
X150675200Y-108682000D01*
X142500000Y-99967600D02*
X142504700Y-99972300D01*
X150675200Y-108682000D02*
X151796500Y-109803300D01*
X142504700Y-99972300D02*
X150675200Y-108142800D01*
X152065000Y-110955000D02*
X152065000Y-109803300D01*
X151796500Y-109803300D02*
X152065000Y-109803300D01*
X142500000Y-99030000D02*
X142500000Y-99967600D01*
%TO.N,Net-(U2-FMI)*%
X135967300Y-92680000D02*
X135394600Y-92107300D01*
X137550000Y-92680000D02*
X135967300Y-92680000D01*
%TO.N,RCLK*%
X142263200Y-95456800D02*
X139770200Y-95456800D01*
X142500000Y-95220000D02*
X142263200Y-95456800D01*
X150913300Y-118575000D02*
X148332200Y-121156100D01*
X152065000Y-118575000D02*
X150913300Y-118575000D01*
X148332200Y-121156100D02*
X141634900Y-121156100D01*
%TO.N,Net-(U2-AMI)*%
X142525400Y-89148600D02*
X138541400Y-89148600D01*
X138541400Y-89148600D02*
X137550000Y-90140000D01*
X144148500Y-87525500D02*
X142525400Y-89148600D01*
X142525400Y-89148600D02*
X144148500Y-87525500D01*
%TO.N,GPIO2*%
X132591200Y-96490000D02*
X123698300Y-105382900D01*
X123698300Y-105382900D02*
X123698300Y-108533300D01*
X123698300Y-108533300D02*
X126610300Y-111445300D01*
X126610300Y-111445300D02*
X149455500Y-111445300D01*
X137550000Y-96490000D02*
X132591200Y-96490000D01*
%TO.N,SEN*%
X141000800Y-91677100D02*
X140275000Y-92402900D01*
X142500000Y-91410000D02*
X141267900Y-91410000D01*
X141267900Y-91410000D02*
X141000800Y-91677100D01*
X140275000Y-92402900D02*
X141000800Y-91677100D01*
%TO.N,DCLK*%
X133909800Y-98707400D02*
X133932400Y-98684800D01*
X134857200Y-97760000D02*
X133909800Y-98707400D01*
X137550000Y-97760000D02*
X134857200Y-97760000D01*
X133932400Y-98684800D02*
X133909800Y-98707400D01*
%TO.N,Net-(U2-\u002ARST)*%
X142500000Y-90140000D02*
X145931100Y-90140000D01*
X145931100Y-90140000D02*
X146866600Y-91075500D01*
%TD*%
%TA.AperFunction,NonConductor*%
G36*
X140971185Y-89768785D02*
G01*
X141016940Y-89821589D01*
X141027764Y-89882828D01*
X141024500Y-89924297D01*
X141024500Y-90355701D01*
X141027401Y-90392567D01*
X141027402Y-90392573D01*
X141073254Y-90550393D01*
X141073257Y-90550400D01*
X141138179Y-90660179D01*
X141155362Y-90727903D01*
X141133202Y-90794165D01*
X141078735Y-90837928D01*
X141063544Y-90843073D01*
X141036117Y-90850422D01*
X141036111Y-90850425D01*
X141021646Y-90858776D01*
X140973535Y-90874606D01*
X140821550Y-90891730D01*
X140651278Y-90951310D01*
X140498537Y-91047284D01*
X140370984Y-91174837D01*
X140275010Y-91327578D01*
X140215430Y-91497850D01*
X140205637Y-91584768D01*
X140178570Y-91649182D01*
X140170098Y-91658565D01*
X139794483Y-92034181D01*
X139794481Y-92034184D01*
X139715423Y-92171114D01*
X139715423Y-92171115D01*
X139674499Y-92323843D01*
X139674499Y-92323845D01*
X139674499Y-92481954D01*
X139674498Y-92481954D01*
X139674499Y-92481957D01*
X139715423Y-92634685D01*
X139794481Y-92771616D01*
X139906284Y-92883419D01*
X140043215Y-92962477D01*
X140195943Y-93003401D01*
X140195946Y-93003401D01*
X140224201Y-93003401D01*
X140291240Y-93023086D01*
X140336995Y-93075890D01*
X140346939Y-93145048D01*
X140317914Y-93208604D01*
X140311882Y-93215082D01*
X139234487Y-94292476D01*
X139173164Y-94325961D01*
X139103472Y-94320977D01*
X139047539Y-94279105D01*
X139023122Y-94213641D01*
X139023187Y-94195072D01*
X139025500Y-94165694D01*
X139025500Y-93734306D01*
X139022598Y-93697431D01*
X138976744Y-93539602D01*
X138893081Y-93398135D01*
X138893078Y-93398132D01*
X138888298Y-93391969D01*
X138890750Y-93390066D01*
X138864155Y-93341421D01*
X138869104Y-93271726D01*
X138889940Y-93239304D01*
X138888298Y-93238031D01*
X138893075Y-93231870D01*
X138893081Y-93231865D01*
X138976744Y-93090398D01*
X139022598Y-92932569D01*
X139025500Y-92895694D01*
X139025500Y-92464306D01*
X139022598Y-92427431D01*
X139007541Y-92375606D01*
X138976745Y-92269606D01*
X138976744Y-92269603D01*
X138976744Y-92269602D01*
X138893081Y-92128135D01*
X138893078Y-92128132D01*
X138888298Y-92121969D01*
X138890750Y-92120066D01*
X138864155Y-92071421D01*
X138869104Y-92001726D01*
X138889940Y-91969304D01*
X138888298Y-91968031D01*
X138893075Y-91961870D01*
X138893081Y-91961865D01*
X138976744Y-91820398D01*
X139019507Y-91673209D01*
X139022597Y-91662573D01*
X139022598Y-91662567D01*
X139022913Y-91658565D01*
X139025500Y-91625694D01*
X139025500Y-91194306D01*
X139022598Y-91157431D01*
X139021995Y-91155356D01*
X138976745Y-90999606D01*
X138976744Y-90999603D01*
X138976744Y-90999602D01*
X138893081Y-90858135D01*
X138893078Y-90858132D01*
X138888298Y-90851969D01*
X138890750Y-90850066D01*
X138864155Y-90801421D01*
X138869104Y-90731726D01*
X138889940Y-90699304D01*
X138888298Y-90698031D01*
X138893075Y-90691870D01*
X138893081Y-90691865D01*
X138976744Y-90550398D01*
X139022598Y-90392569D01*
X139025500Y-90355694D01*
X139025500Y-89924306D01*
X139022598Y-89887431D01*
X139022236Y-89882828D01*
X139036601Y-89814451D01*
X139085653Y-89764694D01*
X139145854Y-89749100D01*
X140904146Y-89749100D01*
X140971185Y-89768785D01*
G37*
%TD.AperFunction*%
%TA.AperFunction,NonConductor*%
G36*
X141013853Y-94314093D02*
G01*
X141069787Y-94355964D01*
X141077247Y-94367147D01*
X141123289Y-94444999D01*
X141156917Y-94501862D01*
X141161702Y-94508031D01*
X141159256Y-94509927D01*
X141185857Y-94558642D01*
X141180873Y-94628334D01*
X141160069Y-94660703D01*
X141161702Y-94661969D01*
X141156917Y-94668137D01*
X141081643Y-94795421D01*
X141030574Y-94843104D01*
X140974911Y-94856300D01*
X140668497Y-94856300D01*
X140601458Y-94836615D01*
X140555703Y-94783811D01*
X140545759Y-94714653D01*
X140574784Y-94651097D01*
X140580805Y-94644628D01*
X140882842Y-94342591D01*
X140944162Y-94309109D01*
X141013853Y-94314093D01*
G37*
%TD.AperFunction*%
%TA.AperFunction,NonConductor*%
G36*
X151117403Y-92883145D02*
G01*
X151161750Y-92911646D01*
X151193597Y-92943493D01*
X151193603Y-92943498D01*
X151379158Y-93073425D01*
X151422783Y-93128002D01*
X151429977Y-93197500D01*
X151398454Y-93259855D01*
X151379158Y-93276575D01*
X151193597Y-93406505D01*
X151026505Y-93573597D01*
X150890965Y-93767169D01*
X150890964Y-93767171D01*
X150791098Y-93981335D01*
X150791094Y-93981344D01*
X150729938Y-94209586D01*
X150729936Y-94209596D01*
X150709341Y-94444999D01*
X150709341Y-94445000D01*
X150729936Y-94680403D01*
X150729938Y-94680413D01*
X150791094Y-94908655D01*
X150791096Y-94908659D01*
X150791097Y-94908663D01*
X150890965Y-95122829D01*
X150890967Y-95122834D01*
X151026501Y-95316395D01*
X151026506Y-95316402D01*
X151193597Y-95483493D01*
X151193603Y-95483498D01*
X151379158Y-95613425D01*
X151422783Y-95668002D01*
X151429977Y-95737500D01*
X151398454Y-95799855D01*
X151379158Y-95816575D01*
X151193597Y-95946505D01*
X151026505Y-96113597D01*
X150890965Y-96307169D01*
X150890964Y-96307170D01*
X150882290Y-96325772D01*
X150836115Y-96378209D01*
X150802005Y-96393136D01*
X150681520Y-96425421D01*
X150681509Y-96425426D01*
X150544590Y-96504475D01*
X150544582Y-96504481D01*
X150292984Y-96756081D01*
X150231661Y-96789566D01*
X150205303Y-96792400D01*
X147404997Y-96792400D01*
X147337958Y-96772715D01*
X147292203Y-96719911D01*
X147282259Y-96650753D01*
X147311284Y-96587197D01*
X147317316Y-96580719D01*
X150986388Y-92911646D01*
X151047711Y-92878161D01*
X151117403Y-92883145D01*
G37*
%TD.AperFunction*%
%TA.AperFunction,NonConductor*%
G36*
X140981621Y-96076985D02*
G01*
X141027376Y-96129789D01*
X141037320Y-96198947D01*
X141033659Y-96215893D01*
X141027402Y-96237429D01*
X141027401Y-96237432D01*
X141024500Y-96274298D01*
X141024500Y-96423058D01*
X141004815Y-96490097D01*
X140952011Y-96535852D01*
X140932595Y-96542832D01*
X140847920Y-96565521D01*
X140847909Y-96565526D01*
X140710990Y-96644575D01*
X140710982Y-96644581D01*
X139724781Y-97630783D01*
X139663458Y-97664268D01*
X139593766Y-97659284D01*
X139537833Y-97617412D01*
X139513416Y-97551948D01*
X139513100Y-97543102D01*
X139513100Y-96372153D01*
X139532785Y-96305114D01*
X139585589Y-96259359D01*
X139650983Y-96248933D01*
X139770196Y-96262365D01*
X139770200Y-96262365D01*
X139770204Y-96262365D01*
X139949449Y-96242169D01*
X139949452Y-96242168D01*
X139949455Y-96242168D01*
X140119722Y-96182589D01*
X140272462Y-96086616D01*
X140272467Y-96086610D01*
X140275297Y-96084355D01*
X140277475Y-96083465D01*
X140278358Y-96082911D01*
X140278455Y-96083065D01*
X140339983Y-96057945D01*
X140352612Y-96057300D01*
X140914582Y-96057300D01*
X140981621Y-96076985D01*
G37*
%TD.AperFunction*%
%TA.AperFunction,NonConductor*%
G36*
X151002133Y-97847888D02*
G01*
X151046501Y-97876397D01*
X151193597Y-98023493D01*
X151193603Y-98023498D01*
X151379158Y-98153425D01*
X151422783Y-98208002D01*
X151429977Y-98277500D01*
X151398454Y-98339855D01*
X151379158Y-98356575D01*
X151193597Y-98486505D01*
X151046500Y-98633603D01*
X150985177Y-98667088D01*
X150915485Y-98662104D01*
X150871138Y-98633603D01*
X150442617Y-98205082D01*
X150409132Y-98143759D01*
X150414116Y-98074067D01*
X150455988Y-98018134D01*
X150521452Y-97993717D01*
X150530298Y-97993401D01*
X150584454Y-97993401D01*
X150584457Y-97993401D01*
X150737185Y-97952477D01*
X150824899Y-97901835D01*
X150874116Y-97873420D01*
X150874119Y-97873416D01*
X150880566Y-97868471D01*
X150882070Y-97870432D01*
X150932440Y-97842917D01*
X151002133Y-97847888D01*
G37*
%TD.AperFunction*%
%TA.AperFunction,NonConductor*%
G36*
X141160476Y-99601270D02*
G01*
X141204824Y-99629771D01*
X141273129Y-99698076D01*
X141273133Y-99698079D01*
X141273135Y-99698081D01*
X141414602Y-99781744D01*
X141414603Y-99781744D01*
X141414604Y-99781745D01*
X141416652Y-99782340D01*
X141418066Y-99783243D01*
X141421765Y-99784844D01*
X141421506Y-99785440D01*
X141475537Y-99819947D01*
X141504743Y-99883419D01*
X141499098Y-99942370D01*
X141460932Y-100051442D01*
X141460930Y-100051450D01*
X141440735Y-100230696D01*
X141440735Y-100230702D01*
X141446601Y-100282764D01*
X141434547Y-100351586D01*
X141387198Y-100402966D01*
X141366720Y-100412828D01*
X141357666Y-100416205D01*
X141357665Y-100416205D01*
X141242455Y-100502452D01*
X141180214Y-100585594D01*
X141124279Y-100627465D01*
X141054588Y-100632448D01*
X140997411Y-100602920D01*
X140986434Y-100592913D01*
X140986429Y-100592910D01*
X140801213Y-100478229D01*
X140801207Y-100478226D01*
X140716113Y-100445260D01*
X140598069Y-100399530D01*
X140544231Y-100389466D01*
X140481952Y-100357799D01*
X140446679Y-100297487D01*
X140449613Y-100227679D01*
X140479335Y-100179899D01*
X141029464Y-99629769D01*
X141090785Y-99596286D01*
X141160476Y-99601270D01*
G37*
%TD.AperFunction*%
%TA.AperFunction,NonConductor*%
G36*
X137156206Y-102000340D02*
G01*
X137212140Y-102042211D01*
X137223873Y-102061250D01*
X137271288Y-102156472D01*
X137402573Y-102330322D01*
X137563568Y-102477088D01*
X137563573Y-102477091D01*
X137563576Y-102477093D01*
X137748786Y-102591770D01*
X137748792Y-102591773D01*
X137755855Y-102594509D01*
X137951931Y-102670470D01*
X138166074Y-102710500D01*
X138166076Y-102710500D01*
X138383924Y-102710500D01*
X138383926Y-102710500D01*
X138598069Y-102670470D01*
X138801210Y-102591772D01*
X138986432Y-102477088D01*
X139147427Y-102330322D01*
X139176047Y-102292422D01*
X139232153Y-102250787D01*
X139301865Y-102246094D01*
X139363048Y-102279836D01*
X139373946Y-102292414D01*
X139402573Y-102330322D01*
X139402576Y-102330325D01*
X139402578Y-102330327D01*
X139517569Y-102435154D01*
X139563568Y-102477088D01*
X139621743Y-102513108D01*
X139668379Y-102565135D01*
X139679483Y-102634116D01*
X139651531Y-102698151D01*
X139644147Y-102706216D01*
X138927884Y-103422481D01*
X138866561Y-103455966D01*
X138840203Y-103458800D01*
X135894597Y-103458800D01*
X135827558Y-103439115D01*
X135781803Y-103386311D01*
X135771859Y-103317153D01*
X135800884Y-103253597D01*
X135806916Y-103247119D01*
X136076956Y-102977079D01*
X137025194Y-102028839D01*
X137086515Y-101995356D01*
X137156206Y-102000340D01*
G37*
%TD.AperFunction*%
%TA.AperFunction,NonConductor*%
G36*
X134445141Y-97110185D02*
G01*
X134490896Y-97162989D01*
X134500840Y-97232147D01*
X134471815Y-97295703D01*
X134465783Y-97302181D01*
X134376678Y-97391286D01*
X133891265Y-97876698D01*
X133829942Y-97910183D01*
X133817468Y-97912237D01*
X133730550Y-97922030D01*
X133560278Y-97981610D01*
X133407537Y-98077584D01*
X133279984Y-98205137D01*
X133184011Y-98357876D01*
X133124431Y-98528145D01*
X133124430Y-98528150D01*
X133104235Y-98707396D01*
X133104235Y-98707403D01*
X133124430Y-98886649D01*
X133124431Y-98886654D01*
X133184011Y-99056923D01*
X133279984Y-99209662D01*
X133407538Y-99337216D01*
X133456456Y-99367953D01*
X133547932Y-99425432D01*
X133560278Y-99433189D01*
X133708377Y-99485011D01*
X133730545Y-99492768D01*
X133730550Y-99492769D01*
X133909796Y-99512965D01*
X133909800Y-99512965D01*
X133909804Y-99512965D01*
X134089049Y-99492769D01*
X134089052Y-99492768D01*
X134089055Y-99492768D01*
X134259322Y-99433189D01*
X134412062Y-99337216D01*
X134539616Y-99209662D01*
X134635589Y-99056922D01*
X134695168Y-98886655D01*
X134704961Y-98799729D01*
X134732026Y-98735318D01*
X134740480Y-98725953D01*
X135069618Y-98396816D01*
X135130939Y-98363334D01*
X135157297Y-98360500D01*
X136059093Y-98360500D01*
X136126132Y-98380185D01*
X136171887Y-98432989D01*
X136181831Y-98502147D01*
X136165825Y-98547620D01*
X136123257Y-98619599D01*
X136123254Y-98619606D01*
X136077402Y-98777426D01*
X136077401Y-98777432D01*
X136074500Y-98814298D01*
X136074500Y-99245701D01*
X136077401Y-99282567D01*
X136077402Y-99282573D01*
X136123254Y-99440393D01*
X136123255Y-99440396D01*
X136123256Y-99440398D01*
X136133672Y-99458011D01*
X136206917Y-99581862D01*
X136206923Y-99581870D01*
X136323129Y-99698076D01*
X136323133Y-99698079D01*
X136323135Y-99698081D01*
X136464602Y-99781744D01*
X136477324Y-99785440D01*
X136622426Y-99827597D01*
X136622429Y-99827597D01*
X136622431Y-99827598D01*
X136659306Y-99830500D01*
X137225703Y-99830500D01*
X137292742Y-99850185D01*
X137338497Y-99902989D01*
X137348441Y-99972147D01*
X137319416Y-100035703D01*
X137313384Y-100042181D01*
X134534784Y-102820781D01*
X134473461Y-102854266D01*
X134447103Y-102857100D01*
X130723157Y-102857100D01*
X130565043Y-102857100D01*
X130412315Y-102898023D01*
X130412314Y-102898023D01*
X130412312Y-102898024D01*
X130412309Y-102898025D01*
X130362196Y-102926959D01*
X130362195Y-102926960D01*
X130318789Y-102952020D01*
X130275385Y-102977079D01*
X130275382Y-102977081D01*
X127512180Y-105740284D01*
X127450857Y-105773769D01*
X127381165Y-105768785D01*
X127325232Y-105726913D01*
X127300815Y-105661449D01*
X127300499Y-105652603D01*
X127300499Y-105552129D01*
X127300498Y-105552123D01*
X127294091Y-105492516D01*
X127243797Y-105357671D01*
X127243793Y-105357664D01*
X127157547Y-105242455D01*
X127157544Y-105242452D01*
X127042335Y-105156206D01*
X127042328Y-105156202D01*
X126907482Y-105105908D01*
X126907483Y-105105908D01*
X126847883Y-105099501D01*
X126847881Y-105099500D01*
X126847873Y-105099500D01*
X126847865Y-105099500D01*
X125130296Y-105099500D01*
X125063257Y-105079815D01*
X125017502Y-105027011D01*
X125007558Y-104957853D01*
X125036583Y-104894297D01*
X125042615Y-104887819D01*
X126841549Y-103088886D01*
X132803617Y-97126819D01*
X132864940Y-97093334D01*
X132891298Y-97090500D01*
X134378102Y-97090500D01*
X134445141Y-97110185D01*
G37*
%TD.AperFunction*%
%TA.AperFunction,NonConductor*%
G36*
X150842948Y-106495185D02*
G01*
X150888292Y-106547097D01*
X150890965Y-106552830D01*
X150890966Y-106552831D01*
X151026501Y-106746395D01*
X151026506Y-106746402D01*
X151193597Y-106913493D01*
X151193603Y-106913498D01*
X151379158Y-107043425D01*
X151422783Y-107098002D01*
X151429977Y-107167500D01*
X151398454Y-107229855D01*
X151379158Y-107246575D01*
X151193597Y-107376505D01*
X151063550Y-107506553D01*
X151002227Y-107540038D01*
X150932535Y-107535054D01*
X150888188Y-107506553D01*
X150068816Y-106687181D01*
X150035331Y-106625858D01*
X150040315Y-106556166D01*
X150082187Y-106500233D01*
X150147651Y-106475816D01*
X150156497Y-106475500D01*
X150775909Y-106475500D01*
X150842948Y-106495185D01*
G37*
%TD.AperFunction*%
%TA.AperFunction,NonConductor*%
G36*
X143655701Y-101972983D02*
G01*
X143662180Y-101979015D01*
X150038381Y-108355216D01*
X150071866Y-108416539D01*
X150074700Y-108442897D01*
X150074700Y-108595330D01*
X150074699Y-108595348D01*
X150074699Y-108761054D01*
X150074698Y-108761054D01*
X150115623Y-108913785D01*
X150144558Y-108963900D01*
X150144559Y-108963904D01*
X150144560Y-108963904D01*
X150175173Y-109016929D01*
X150194679Y-109050714D01*
X150194681Y-109050717D01*
X150313549Y-109169585D01*
X150313555Y-109169590D01*
X151039352Y-109895387D01*
X151072837Y-109956710D01*
X151067853Y-110026402D01*
X151039357Y-110070744D01*
X151026507Y-110083595D01*
X150890965Y-110277169D01*
X150890964Y-110277171D01*
X150791098Y-110491335D01*
X150791094Y-110491344D01*
X150729938Y-110719586D01*
X150729936Y-110719596D01*
X150709341Y-110954999D01*
X150709341Y-110955000D01*
X150729936Y-111190403D01*
X150729938Y-111190413D01*
X150791094Y-111418655D01*
X150791096Y-111418659D01*
X150791097Y-111418663D01*
X150806766Y-111452265D01*
X150849727Y-111544395D01*
X150860219Y-111613473D01*
X150831699Y-111677257D01*
X150773223Y-111715496D01*
X150737345Y-111720800D01*
X150639712Y-111720800D01*
X150572673Y-111701115D01*
X150562397Y-111693745D01*
X150559563Y-111691485D01*
X150559562Y-111691484D01*
X150406822Y-111595511D01*
X150406819Y-111595509D01*
X150343648Y-111573404D01*
X150286872Y-111532682D01*
X150261125Y-111467729D01*
X150261284Y-111452265D01*
X150261065Y-111452265D01*
X150261065Y-111445297D01*
X150240869Y-111266050D01*
X150240868Y-111266045D01*
X150181288Y-111095776D01*
X150092832Y-110955000D01*
X150085316Y-110943038D01*
X149957762Y-110815484D01*
X149946617Y-110808481D01*
X149805023Y-110719511D01*
X149634754Y-110659931D01*
X149634749Y-110659930D01*
X149455504Y-110639735D01*
X149455496Y-110639735D01*
X149276250Y-110659930D01*
X149276245Y-110659931D01*
X149105976Y-110719511D01*
X148953236Y-110815485D01*
X148950403Y-110817745D01*
X148948224Y-110818634D01*
X148947342Y-110819189D01*
X148947244Y-110819034D01*
X148885717Y-110844155D01*
X148873088Y-110844800D01*
X126910397Y-110844800D01*
X126843358Y-110825115D01*
X126822716Y-110808481D01*
X125126415Y-109112180D01*
X125092930Y-109050857D01*
X125097914Y-108981165D01*
X125139786Y-108925232D01*
X125205250Y-108900815D01*
X125214096Y-108900499D01*
X126847871Y-108900499D01*
X126847872Y-108900499D01*
X126907483Y-108894091D01*
X127042331Y-108843796D01*
X127157546Y-108757546D01*
X127243796Y-108642331D01*
X127294091Y-108507483D01*
X127300500Y-108447873D01*
X127300500Y-108213389D01*
X127999500Y-108213389D01*
X127999500Y-108386610D01*
X128009201Y-108447864D01*
X128026598Y-108557701D01*
X128080127Y-108722445D01*
X128158768Y-108876788D01*
X128260586Y-109016928D01*
X128383072Y-109139414D01*
X128523212Y-109241232D01*
X128677555Y-109319873D01*
X128842299Y-109373402D01*
X129013389Y-109400500D01*
X129013390Y-109400500D01*
X129186610Y-109400500D01*
X129186611Y-109400500D01*
X129357701Y-109373402D01*
X129522445Y-109319873D01*
X129676788Y-109241232D01*
X129816928Y-109139414D01*
X129939414Y-109016928D01*
X130041232Y-108876788D01*
X130119873Y-108722445D01*
X130173402Y-108557701D01*
X130200500Y-108386611D01*
X130200500Y-108213389D01*
X130173402Y-108042299D01*
X130119873Y-107877555D01*
X130041232Y-107723212D01*
X129939414Y-107583072D01*
X129816928Y-107460586D01*
X129676788Y-107358768D01*
X129522445Y-107280127D01*
X129357701Y-107226598D01*
X129357699Y-107226597D01*
X129357698Y-107226597D01*
X129226271Y-107205781D01*
X129186611Y-107199500D01*
X129013389Y-107199500D01*
X128973728Y-107205781D01*
X128842302Y-107226597D01*
X128677552Y-107280128D01*
X128523211Y-107358768D01*
X128443256Y-107416859D01*
X128383072Y-107460586D01*
X128383070Y-107460588D01*
X128383069Y-107460588D01*
X128260588Y-107583069D01*
X128260588Y-107583070D01*
X128260586Y-107583072D01*
X128260513Y-107583173D01*
X128158768Y-107723211D01*
X128080128Y-107877552D01*
X128026597Y-108042302D01*
X127999500Y-108213389D01*
X127300500Y-108213389D01*
X127300499Y-107650211D01*
X127320183Y-107583173D01*
X127362497Y-107542826D01*
X127387540Y-107528368D01*
X127470416Y-107480520D01*
X127582220Y-107368716D01*
X127582220Y-107368714D01*
X127592424Y-107358511D01*
X127592427Y-107358506D01*
X130856516Y-104094419D01*
X130917839Y-104060934D01*
X130944197Y-104058100D01*
X134010486Y-104058100D01*
X134077525Y-104077785D01*
X134123280Y-104130589D01*
X134133706Y-104168216D01*
X134141630Y-104238550D01*
X134141631Y-104238554D01*
X134201211Y-104408823D01*
X134288429Y-104547629D01*
X134297184Y-104561562D01*
X134424738Y-104689116D01*
X134577478Y-104785089D01*
X134747745Y-104844668D01*
X134747750Y-104844669D01*
X134926996Y-104864865D01*
X134927000Y-104864865D01*
X134927004Y-104864865D01*
X135106249Y-104844669D01*
X135106252Y-104844668D01*
X135106255Y-104844668D01*
X135276522Y-104785089D01*
X135429262Y-104689116D01*
X135429267Y-104689110D01*
X135432097Y-104686855D01*
X135434275Y-104685965D01*
X135435158Y-104685411D01*
X135435255Y-104685565D01*
X135496783Y-104660445D01*
X135509412Y-104659800D01*
X139053631Y-104659800D01*
X139053647Y-104659801D01*
X139061243Y-104659801D01*
X139219354Y-104659801D01*
X139219357Y-104659801D01*
X139372085Y-104618877D01*
X139422204Y-104589939D01*
X139509016Y-104539820D01*
X139620820Y-104428016D01*
X139620820Y-104428014D01*
X139631028Y-104417807D01*
X139631030Y-104417804D01*
X141328539Y-102720294D01*
X141389860Y-102686811D01*
X141459550Y-102691794D01*
X141492517Y-102704091D01*
X141552127Y-102710500D01*
X142997872Y-102710499D01*
X143057483Y-102704091D01*
X143192331Y-102653796D01*
X143307546Y-102567546D01*
X143393796Y-102452331D01*
X143444091Y-102317483D01*
X143450500Y-102257873D01*
X143450499Y-102066694D01*
X143470183Y-101999657D01*
X143522987Y-101953902D01*
X143592145Y-101943958D01*
X143655701Y-101972983D01*
G37*
%TD.AperFunction*%
%TA.AperFunction,NonConductor*%
G36*
X145715362Y-112941585D02*
G01*
X145761117Y-112994389D01*
X145771061Y-113063547D01*
X145742036Y-113127103D01*
X145719449Y-113147473D01*
X145718121Y-113148402D01*
X145563402Y-113303121D01*
X145455920Y-113456623D01*
X145401343Y-113500248D01*
X145354345Y-113509500D01*
X144625097Y-113509500D01*
X144558058Y-113489815D01*
X144512303Y-113437011D01*
X144502359Y-113367853D01*
X144531384Y-113304297D01*
X144537416Y-113297819D01*
X144877017Y-112958219D01*
X144938340Y-112924734D01*
X144964698Y-112921900D01*
X145648323Y-112921900D01*
X145715362Y-112941585D01*
G37*
%TD.AperFunction*%
%TA.AperFunction,NonConductor*%
G36*
X123560703Y-109245384D02*
G01*
X123567181Y-109251416D01*
X126125439Y-111809674D01*
X126125449Y-111809685D01*
X126129779Y-111814015D01*
X126129780Y-111814016D01*
X126241584Y-111925820D01*
X126241586Y-111925821D01*
X126241590Y-111925824D01*
X126292989Y-111955499D01*
X126292994Y-111955501D01*
X126378509Y-112004874D01*
X126378510Y-112004875D01*
X126378512Y-112004875D01*
X126378515Y-112004877D01*
X126531243Y-112045801D01*
X126531246Y-112045801D01*
X126696953Y-112045801D01*
X126696969Y-112045800D01*
X143791602Y-112045800D01*
X143858641Y-112065485D01*
X143904396Y-112118289D01*
X143914340Y-112187447D01*
X143885315Y-112251003D01*
X143879283Y-112257481D01*
X141611884Y-114524881D01*
X141550561Y-114558366D01*
X141524203Y-114561200D01*
X137739500Y-114561200D01*
X137672461Y-114541515D01*
X137626706Y-114488711D01*
X137615500Y-114437200D01*
X137615499Y-113312129D01*
X137615498Y-113312123D01*
X137615497Y-113312116D01*
X137609091Y-113252517D01*
X137608946Y-113252129D01*
X137558797Y-113117671D01*
X137558793Y-113117664D01*
X137472547Y-113002455D01*
X137472544Y-113002452D01*
X137357335Y-112916206D01*
X137357328Y-112916202D01*
X137222482Y-112865908D01*
X137222483Y-112865908D01*
X137162883Y-112859501D01*
X137162881Y-112859500D01*
X137162873Y-112859500D01*
X137162864Y-112859500D01*
X135567129Y-112859500D01*
X135567123Y-112859501D01*
X135507516Y-112865908D01*
X135372671Y-112916202D01*
X135372664Y-112916206D01*
X135257455Y-113002452D01*
X135257452Y-113002455D01*
X135171206Y-113117664D01*
X135171202Y-113117671D01*
X135120908Y-113252517D01*
X135116038Y-113297819D01*
X135114501Y-113312123D01*
X135114500Y-113312135D01*
X135114500Y-113864202D01*
X135094815Y-113931241D01*
X135042011Y-113976996D01*
X134972853Y-113986940D01*
X134909297Y-113957915D01*
X134902819Y-113951883D01*
X134870417Y-113919481D01*
X134870412Y-113919477D01*
X134762499Y-113857174D01*
X134714284Y-113806607D01*
X134700499Y-113749787D01*
X134700499Y-113252129D01*
X134700498Y-113252123D01*
X134700497Y-113252116D01*
X134694091Y-113192517D01*
X134677637Y-113148402D01*
X134643797Y-113057671D01*
X134643793Y-113057664D01*
X134557547Y-112942455D01*
X134557544Y-112942452D01*
X134442335Y-112856206D01*
X134442328Y-112856202D01*
X134307482Y-112805908D01*
X134307483Y-112805908D01*
X134247883Y-112799501D01*
X134247881Y-112799500D01*
X134247873Y-112799500D01*
X134247864Y-112799500D01*
X131352129Y-112799500D01*
X131352123Y-112799501D01*
X131292516Y-112805908D01*
X131157671Y-112856202D01*
X131157664Y-112856206D01*
X131042455Y-112942452D01*
X131042452Y-112942455D01*
X130956206Y-113057664D01*
X130956202Y-113057671D01*
X130905908Y-113192517D01*
X130899501Y-113252116D01*
X130899501Y-113252123D01*
X130899500Y-113252135D01*
X130899500Y-115547870D01*
X130899501Y-115547876D01*
X130905908Y-115607483D01*
X130956202Y-115742328D01*
X130956206Y-115742335D01*
X131042452Y-115857544D01*
X131042455Y-115857547D01*
X131157664Y-115943793D01*
X131157671Y-115943797D01*
X131292517Y-115994091D01*
X131292516Y-115994091D01*
X131299444Y-115994835D01*
X131352127Y-116000500D01*
X134247872Y-116000499D01*
X134307483Y-115994091D01*
X134442331Y-115943796D01*
X134557546Y-115857546D01*
X134643796Y-115742331D01*
X134671719Y-115667466D01*
X134713590Y-115611532D01*
X134779054Y-115587115D01*
X134847327Y-115601966D01*
X134875582Y-115623118D01*
X134894684Y-115642220D01*
X134894686Y-115642221D01*
X134894690Y-115642224D01*
X135031609Y-115721273D01*
X135031616Y-115721277D01*
X135143419Y-115751234D01*
X135184342Y-115762200D01*
X135184343Y-115762200D01*
X141662402Y-115762200D01*
X141729441Y-115781885D01*
X141775196Y-115834689D01*
X141785140Y-115903847D01*
X141756115Y-115967403D01*
X141750083Y-115973881D01*
X140064611Y-117659353D01*
X140003288Y-117692838D01*
X139933596Y-117687854D01*
X139889249Y-117659353D01*
X139876402Y-117646506D01*
X139876395Y-117646501D01*
X139682834Y-117510967D01*
X139682830Y-117510965D01*
X139630982Y-117486788D01*
X139468663Y-117411097D01*
X139468659Y-117411096D01*
X139468655Y-117411094D01*
X139240413Y-117349938D01*
X139240403Y-117349936D01*
X139005001Y-117329341D01*
X139004999Y-117329341D01*
X138769596Y-117349936D01*
X138769586Y-117349938D01*
X138541344Y-117411094D01*
X138541335Y-117411098D01*
X138327171Y-117510964D01*
X138327169Y-117510965D01*
X138133597Y-117646505D01*
X137966508Y-117813594D01*
X137836574Y-117999160D01*
X137781997Y-118042784D01*
X137712498Y-118049977D01*
X137650144Y-118018455D01*
X137633429Y-117999164D01*
X137503495Y-117813599D01*
X137503493Y-117813596D01*
X137336402Y-117646506D01*
X137336395Y-117646501D01*
X137142834Y-117510967D01*
X137142830Y-117510965D01*
X137090982Y-117486788D01*
X136928663Y-117411097D01*
X136928659Y-117411096D01*
X136928655Y-117411094D01*
X136700413Y-117349938D01*
X136700403Y-117349936D01*
X136465001Y-117329341D01*
X136464999Y-117329341D01*
X136229596Y-117349936D01*
X136229586Y-117349938D01*
X136001344Y-117411094D01*
X136001335Y-117411098D01*
X135787171Y-117510964D01*
X135787169Y-117510965D01*
X135593597Y-117646505D01*
X135426506Y-117813596D01*
X135290965Y-118007170D01*
X135290962Y-118007175D01*
X135288289Y-118012909D01*
X135242115Y-118065346D01*
X135175909Y-118084500D01*
X127226931Y-118084500D01*
X127159892Y-118064815D01*
X127114137Y-118012011D01*
X127104193Y-117942853D01*
X127133218Y-117879297D01*
X127152620Y-117861234D01*
X127154797Y-117859603D01*
X127157546Y-117857546D01*
X127243796Y-117742331D01*
X127294091Y-117607483D01*
X127300500Y-117547873D01*
X127300499Y-115252128D01*
X127296335Y-115213389D01*
X127999500Y-115213389D01*
X127999500Y-115386611D01*
X128026598Y-115557701D01*
X128080127Y-115722445D01*
X128158768Y-115876788D01*
X128260586Y-116016928D01*
X128383072Y-116139414D01*
X128523212Y-116241232D01*
X128677555Y-116319873D01*
X128842299Y-116373402D01*
X129013389Y-116400500D01*
X129013390Y-116400500D01*
X129186610Y-116400500D01*
X129186611Y-116400500D01*
X129357701Y-116373402D01*
X129522445Y-116319873D01*
X129676788Y-116241232D01*
X129816928Y-116139414D01*
X129939414Y-116016928D01*
X130041232Y-115876788D01*
X130119873Y-115722445D01*
X130173402Y-115557701D01*
X130200500Y-115386611D01*
X130200500Y-115213389D01*
X130173402Y-115042299D01*
X130119873Y-114877555D01*
X130041232Y-114723212D01*
X129939414Y-114583072D01*
X129816928Y-114460586D01*
X129676788Y-114358768D01*
X129522445Y-114280127D01*
X129357701Y-114226598D01*
X129357699Y-114226597D01*
X129357698Y-114226597D01*
X129226271Y-114205781D01*
X129186611Y-114199500D01*
X129013389Y-114199500D01*
X128973728Y-114205781D01*
X128842302Y-114226597D01*
X128677552Y-114280128D01*
X128523211Y-114358768D01*
X128443256Y-114416859D01*
X128383072Y-114460586D01*
X128383070Y-114460588D01*
X128383069Y-114460588D01*
X128260588Y-114583069D01*
X128260588Y-114583070D01*
X128260586Y-114583072D01*
X128216859Y-114643256D01*
X128158768Y-114723211D01*
X128080128Y-114877552D01*
X128026597Y-115042302D01*
X128021958Y-115071593D01*
X127999500Y-115213389D01*
X127296335Y-115213389D01*
X127294091Y-115192517D01*
X127283305Y-115163599D01*
X127243797Y-115057671D01*
X127243793Y-115057664D01*
X127157547Y-114942455D01*
X127157544Y-114942452D01*
X127042335Y-114856206D01*
X127042328Y-114856202D01*
X126907482Y-114805908D01*
X126907483Y-114805908D01*
X126847883Y-114799501D01*
X126847881Y-114799500D01*
X126847873Y-114799500D01*
X126847864Y-114799500D01*
X123952129Y-114799500D01*
X123952123Y-114799501D01*
X123892516Y-114805908D01*
X123757671Y-114856202D01*
X123757664Y-114856206D01*
X123642455Y-114942452D01*
X123642452Y-114942455D01*
X123578766Y-115027529D01*
X123522832Y-115069400D01*
X123453141Y-115074384D01*
X123391818Y-115040898D01*
X123358334Y-114979575D01*
X123355500Y-114953218D01*
X123355500Y-109339097D01*
X123375185Y-109272058D01*
X123427989Y-109226303D01*
X123497147Y-109216359D01*
X123560703Y-109245384D01*
G37*
%TD.AperFunction*%
%TA.AperFunction,NonConductor*%
G36*
X150725886Y-112941485D02*
G01*
X150771641Y-112994289D01*
X150781585Y-113063447D01*
X150778622Y-113077893D01*
X150729938Y-113259586D01*
X150729936Y-113259596D01*
X150709341Y-113494999D01*
X150709341Y-113495000D01*
X150729936Y-113730403D01*
X150729938Y-113730413D01*
X150791094Y-113958655D01*
X150791096Y-113958659D01*
X150791097Y-113958663D01*
X150861667Y-114110000D01*
X150890965Y-114172830D01*
X150890967Y-114172834D01*
X151026501Y-114366395D01*
X151026506Y-114366402D01*
X151193597Y-114533493D01*
X151193603Y-114533498D01*
X151379158Y-114663425D01*
X151422783Y-114718002D01*
X151429977Y-114787500D01*
X151398454Y-114849855D01*
X151379158Y-114866575D01*
X151193597Y-114996505D01*
X151026505Y-115163597D01*
X150890965Y-115357169D01*
X150890964Y-115357171D01*
X150791098Y-115571335D01*
X150791094Y-115571344D01*
X150729938Y-115799586D01*
X150729936Y-115799596D01*
X150709341Y-116034999D01*
X150709341Y-116035000D01*
X150729936Y-116270403D01*
X150729938Y-116270413D01*
X150791094Y-116498655D01*
X150791096Y-116498659D01*
X150791097Y-116498663D01*
X150890965Y-116712830D01*
X150890967Y-116712834D01*
X151026501Y-116906395D01*
X151026506Y-116906402D01*
X151193597Y-117073493D01*
X151193603Y-117073498D01*
X151379158Y-117203425D01*
X151422783Y-117258002D01*
X151429977Y-117327500D01*
X151398454Y-117389855D01*
X151379158Y-117406575D01*
X151193597Y-117536505D01*
X151026505Y-117703597D01*
X150890965Y-117897169D01*
X150890964Y-117897170D01*
X150882290Y-117915772D01*
X150836115Y-117968209D01*
X150802005Y-117983136D01*
X150681520Y-118015421D01*
X150681509Y-118015426D01*
X150544590Y-118094475D01*
X150544582Y-118094481D01*
X148119784Y-120519281D01*
X148058461Y-120552766D01*
X148032103Y-120555600D01*
X142488543Y-120555600D01*
X142421504Y-120535915D01*
X142375749Y-120483111D01*
X142365805Y-120413953D01*
X142394830Y-120350397D01*
X142426545Y-120324212D01*
X142431632Y-120321274D01*
X142437616Y-120317820D01*
X142549420Y-120206016D01*
X142549420Y-120206014D01*
X142559624Y-120195811D01*
X142559628Y-120195806D01*
X143035088Y-119720346D01*
X143096411Y-119686861D01*
X143166103Y-119691845D01*
X143210450Y-119720346D01*
X143213599Y-119723495D01*
X143310384Y-119791265D01*
X143407165Y-119859032D01*
X143407167Y-119859033D01*
X143407170Y-119859035D01*
X143621337Y-119958903D01*
X143849592Y-120020063D01*
X144026034Y-120035500D01*
X144084999Y-120040659D01*
X144085000Y-120040659D01*
X144085001Y-120040659D01*
X144143966Y-120035500D01*
X144320408Y-120020063D01*
X144548663Y-119958903D01*
X144762830Y-119859035D01*
X144956401Y-119723495D01*
X145078329Y-119601566D01*
X145139648Y-119568084D01*
X145209340Y-119573068D01*
X145265274Y-119614939D01*
X145282189Y-119645917D01*
X145331202Y-119777328D01*
X145331206Y-119777335D01*
X145417452Y-119892544D01*
X145417455Y-119892547D01*
X145532664Y-119978793D01*
X145532671Y-119978797D01*
X145667517Y-120029091D01*
X145667516Y-120029091D01*
X145674444Y-120029835D01*
X145727127Y-120035500D01*
X147522872Y-120035499D01*
X147582483Y-120029091D01*
X147717331Y-119978796D01*
X147832546Y-119892546D01*
X147918796Y-119777331D01*
X147969091Y-119642483D01*
X147975500Y-119582873D01*
X147975499Y-117787128D01*
X147969091Y-117727517D01*
X147967810Y-117724083D01*
X147918797Y-117592671D01*
X147918793Y-117592664D01*
X147832547Y-117477455D01*
X147832544Y-117477452D01*
X147717335Y-117391206D01*
X147717328Y-117391202D01*
X147582482Y-117340908D01*
X147582483Y-117340908D01*
X147522883Y-117334501D01*
X147522881Y-117334500D01*
X147522873Y-117334500D01*
X147522864Y-117334500D01*
X145727129Y-117334500D01*
X145727123Y-117334501D01*
X145667516Y-117340908D01*
X145532671Y-117391202D01*
X145532664Y-117391206D01*
X145417455Y-117477452D01*
X145417452Y-117477455D01*
X145331206Y-117592664D01*
X145331203Y-117592669D01*
X145282189Y-117724083D01*
X145240317Y-117780016D01*
X145174853Y-117804433D01*
X145106580Y-117789581D01*
X145078326Y-117768430D01*
X144956402Y-117646506D01*
X144956395Y-117646501D01*
X144762834Y-117510967D01*
X144762830Y-117510965D01*
X144710982Y-117486788D01*
X144548663Y-117411097D01*
X144548659Y-117411096D01*
X144548655Y-117411094D01*
X144320413Y-117349938D01*
X144320403Y-117349936D01*
X144085001Y-117329341D01*
X144084999Y-117329341D01*
X143849596Y-117349936D01*
X143849586Y-117349938D01*
X143621344Y-117411094D01*
X143621335Y-117411098D01*
X143407171Y-117510964D01*
X143407169Y-117510965D01*
X143213597Y-117646505D01*
X143046506Y-117813596D01*
X142916575Y-117999159D01*
X142861998Y-118042784D01*
X142792500Y-118049978D01*
X142730145Y-118018455D01*
X142713425Y-117999159D01*
X142583494Y-117813597D01*
X142416402Y-117646506D01*
X142416395Y-117646501D01*
X142222832Y-117510966D01*
X142170983Y-117486788D01*
X142118544Y-117440615D01*
X142099393Y-117373421D01*
X142119609Y-117306540D01*
X142135703Y-117286730D01*
X144675617Y-114746819D01*
X144736940Y-114713334D01*
X144763298Y-114710500D01*
X145354345Y-114710500D01*
X145421384Y-114730185D01*
X145455917Y-114763373D01*
X145563402Y-114916877D01*
X145718123Y-115071598D01*
X145897361Y-115197102D01*
X146095670Y-115289575D01*
X146307023Y-115346207D01*
X146489926Y-115362208D01*
X146524998Y-115365277D01*
X146525000Y-115365277D01*
X146525002Y-115365277D01*
X146553254Y-115362805D01*
X146742977Y-115346207D01*
X146954330Y-115289575D01*
X147152639Y-115197102D01*
X147331877Y-115071598D01*
X147486598Y-114916877D01*
X147612102Y-114737639D01*
X147704575Y-114539330D01*
X147761207Y-114327977D01*
X147780277Y-114110000D01*
X147761207Y-113892023D01*
X147704575Y-113680670D01*
X147612102Y-113482362D01*
X147612100Y-113482359D01*
X147612099Y-113482357D01*
X147486599Y-113303124D01*
X147435591Y-113252116D01*
X147331877Y-113148402D01*
X147330553Y-113147475D01*
X147330106Y-113146916D01*
X147327732Y-113144924D01*
X147328132Y-113144446D01*
X147286928Y-113092901D01*
X147279733Y-113023402D01*
X147311254Y-112961047D01*
X147371483Y-112925632D01*
X147401675Y-112921900D01*
X149475013Y-112921900D01*
X149542052Y-112941585D01*
X149552326Y-112948953D01*
X149555036Y-112951114D01*
X149555038Y-112951116D01*
X149645380Y-113007882D01*
X149682705Y-113031335D01*
X149707778Y-113047089D01*
X149795811Y-113077893D01*
X149878045Y-113106668D01*
X149878050Y-113106669D01*
X150057296Y-113126865D01*
X150057300Y-113126865D01*
X150057304Y-113126865D01*
X150236549Y-113106669D01*
X150236552Y-113106668D01*
X150236555Y-113106668D01*
X150406822Y-113047089D01*
X150559562Y-112951116D01*
X150559567Y-112951110D01*
X150562397Y-112948855D01*
X150564575Y-112947965D01*
X150565458Y-112947411D01*
X150565555Y-112947565D01*
X150627083Y-112922445D01*
X150639712Y-112921800D01*
X150658847Y-112921800D01*
X150725886Y-112941485D01*
G37*
%TD.AperFunction*%
%TA.AperFunction,NonConductor*%
G36*
X153341061Y-70816097D02*
G01*
X153472973Y-70829089D01*
X153496801Y-70833828D01*
X153617793Y-70870531D01*
X153640245Y-70879832D01*
X153695993Y-70909629D01*
X153751738Y-70939426D01*
X153771949Y-70952930D01*
X153869677Y-71033132D01*
X153886867Y-71050322D01*
X153967069Y-71148050D01*
X153980573Y-71168261D01*
X154040166Y-71279751D01*
X154049469Y-71302209D01*
X154086169Y-71423192D01*
X154090911Y-71447032D01*
X154103903Y-71578937D01*
X154104500Y-71591092D01*
X154104500Y-121108907D01*
X154103903Y-121121062D01*
X154090911Y-121252967D01*
X154086169Y-121276807D01*
X154049469Y-121397790D01*
X154040166Y-121420248D01*
X153980573Y-121531738D01*
X153967069Y-121551949D01*
X153886867Y-121649677D01*
X153869677Y-121666867D01*
X153771949Y-121747069D01*
X153751738Y-121760573D01*
X153640248Y-121820166D01*
X153617790Y-121829469D01*
X153496807Y-121866169D01*
X153472967Y-121870911D01*
X153375698Y-121880491D01*
X153341060Y-121883903D01*
X153328907Y-121884500D01*
X148734348Y-121884500D01*
X148667309Y-121864815D01*
X148621554Y-121812011D01*
X148611610Y-121742853D01*
X148640635Y-121679297D01*
X148672346Y-121653113D01*
X148700916Y-121636620D01*
X148812720Y-121524816D01*
X148812720Y-121524814D01*
X148822928Y-121514607D01*
X148822929Y-121514604D01*
X150871140Y-119466394D01*
X150932461Y-119432911D01*
X151002153Y-119437895D01*
X151046500Y-119466396D01*
X151193599Y-119613495D01*
X151284525Y-119677162D01*
X151387165Y-119749032D01*
X151387167Y-119749033D01*
X151387170Y-119749035D01*
X151601337Y-119848903D01*
X151601343Y-119848904D01*
X151601344Y-119848905D01*
X151656285Y-119863626D01*
X151829592Y-119910063D01*
X152017918Y-119926539D01*
X152064999Y-119930659D01*
X152065000Y-119930659D01*
X152065001Y-119930659D01*
X152104234Y-119927226D01*
X152300408Y-119910063D01*
X152528663Y-119848903D01*
X152742830Y-119749035D01*
X152936401Y-119613495D01*
X153103495Y-119446401D01*
X153239035Y-119252830D01*
X153338903Y-119038663D01*
X153400063Y-118810408D01*
X153420659Y-118575000D01*
X153400063Y-118339592D01*
X153338903Y-118111337D01*
X153239035Y-117897171D01*
X153239034Y-117897169D01*
X153103494Y-117703597D01*
X152936402Y-117536506D01*
X152936396Y-117536501D01*
X152750842Y-117406575D01*
X152707217Y-117351998D01*
X152700023Y-117282500D01*
X152731546Y-117220145D01*
X152750842Y-117203425D01*
X152773026Y-117187891D01*
X152936401Y-117073495D01*
X153103495Y-116906401D01*
X153239035Y-116712830D01*
X153338903Y-116498663D01*
X153400063Y-116270408D01*
X153420659Y-116035000D01*
X153417640Y-116000499D01*
X153412680Y-115943797D01*
X153400063Y-115799592D01*
X153338903Y-115571337D01*
X153239035Y-115357171D01*
X153231358Y-115346206D01*
X153103494Y-115163597D01*
X152936402Y-114996506D01*
X152936396Y-114996501D01*
X152750842Y-114866575D01*
X152707217Y-114811998D01*
X152700023Y-114742500D01*
X152731546Y-114680145D01*
X152750842Y-114663425D01*
X152773026Y-114647891D01*
X152936401Y-114533495D01*
X153103495Y-114366401D01*
X153239035Y-114172830D01*
X153338903Y-113958663D01*
X153400063Y-113730408D01*
X153420659Y-113495000D01*
X153400063Y-113259592D01*
X153353626Y-113086285D01*
X153338905Y-113031344D01*
X153338904Y-113031343D01*
X153338903Y-113031337D01*
X153239035Y-112817171D01*
X153231150Y-112805909D01*
X153103494Y-112623597D01*
X153090646Y-112610749D01*
X153057161Y-112549426D01*
X153062145Y-112479734D01*
X153090644Y-112435389D01*
X153575206Y-111950828D01*
X153575211Y-111950824D01*
X153585414Y-111940620D01*
X153585416Y-111940620D01*
X153697220Y-111828816D01*
X153776277Y-111691884D01*
X153817200Y-111539157D01*
X153817200Y-105408260D01*
X153817201Y-105408247D01*
X153817201Y-105240144D01*
X153817201Y-105240143D01*
X153776277Y-105087416D01*
X153771889Y-105079815D01*
X153697224Y-104950490D01*
X153697218Y-104950482D01*
X153355687Y-104608952D01*
X153322202Y-104547629D01*
X153327186Y-104477938D01*
X153344102Y-104446959D01*
X153358796Y-104427331D01*
X153362351Y-104417801D01*
X153409091Y-104292482D01*
X153415500Y-104232873D01*
X153415499Y-102437128D01*
X153409091Y-102377517D01*
X153391490Y-102330327D01*
X153358797Y-102242671D01*
X153358793Y-102242664D01*
X153272547Y-102127455D01*
X153272544Y-102127452D01*
X153157335Y-102041206D01*
X153157328Y-102041202D01*
X153022482Y-101990908D01*
X153022483Y-101990908D01*
X152962883Y-101984501D01*
X152962881Y-101984500D01*
X152962873Y-101984500D01*
X152962864Y-101984500D01*
X151167129Y-101984500D01*
X151167123Y-101984501D01*
X151107516Y-101990908D01*
X150972671Y-102041202D01*
X150972664Y-102041206D01*
X150857455Y-102127452D01*
X150857452Y-102127455D01*
X150771206Y-102242664D01*
X150771202Y-102242671D01*
X150720908Y-102377517D01*
X150714501Y-102437116D01*
X150714501Y-102437123D01*
X150714500Y-102437135D01*
X150714501Y-103880400D01*
X150694816Y-103947439D01*
X150642013Y-103993194D01*
X150590501Y-104004400D01*
X149914997Y-104004400D01*
X149847958Y-103984715D01*
X149827316Y-103968081D01*
X146051500Y-100192265D01*
X146018015Y-100130942D01*
X146015963Y-100118486D01*
X146006168Y-100031545D01*
X145946589Y-99861278D01*
X145850616Y-99708538D01*
X145723062Y-99580984D01*
X145680092Y-99553984D01*
X145570323Y-99485011D01*
X145400054Y-99425431D01*
X145400049Y-99425430D01*
X145220804Y-99405235D01*
X145220796Y-99405235D01*
X145041550Y-99425430D01*
X145041545Y-99425431D01*
X144871276Y-99485011D01*
X144718537Y-99580984D01*
X144590984Y-99708537D01*
X144590982Y-99708540D01*
X144527275Y-99809928D01*
X144474940Y-99856219D01*
X144405887Y-99866866D01*
X144342038Y-99838491D01*
X144317288Y-99809927D01*
X144301902Y-99785440D01*
X144236616Y-99681538D01*
X144109062Y-99553984D01*
X144006182Y-99489340D01*
X143959892Y-99437006D01*
X143949244Y-99367953D01*
X143953077Y-99349759D01*
X143972598Y-99282569D01*
X143975500Y-99245694D01*
X143975500Y-98814306D01*
X143972598Y-98777431D01*
X143966550Y-98756615D01*
X143926745Y-98619606D01*
X143926744Y-98619603D01*
X143926744Y-98619602D01*
X143904636Y-98582220D01*
X143887454Y-98514497D01*
X143909614Y-98448234D01*
X143964080Y-98404471D01*
X144011369Y-98395100D01*
X148882803Y-98395100D01*
X148949842Y-98414785D01*
X148970484Y-98431419D01*
X150428439Y-99889374D01*
X150428449Y-99889385D01*
X150432779Y-99893715D01*
X150432780Y-99893716D01*
X150544584Y-100005520D01*
X150624129Y-100051445D01*
X150681515Y-100084577D01*
X150802005Y-100116862D01*
X150861662Y-100153224D01*
X150882290Y-100184228D01*
X150890963Y-100202828D01*
X150890965Y-100202831D01*
X150995125Y-100351586D01*
X151026505Y-100396401D01*
X151193599Y-100563495D01*
X151284958Y-100627465D01*
X151387165Y-100699032D01*
X151387167Y-100699033D01*
X151387170Y-100699035D01*
X151601337Y-100798903D01*
X151829592Y-100860063D01*
X152017918Y-100876539D01*
X152064999Y-100880659D01*
X152065000Y-100880659D01*
X152065001Y-100880659D01*
X152104234Y-100877226D01*
X152300408Y-100860063D01*
X152528663Y-100798903D01*
X152742830Y-100699035D01*
X152936401Y-100563495D01*
X153103495Y-100396401D01*
X153239035Y-100202830D01*
X153338903Y-99988663D01*
X153400063Y-99760408D01*
X153420659Y-99525000D01*
X153400063Y-99289592D01*
X153338903Y-99061337D01*
X153239035Y-98847171D01*
X153216018Y-98814298D01*
X153103494Y-98653597D01*
X152936402Y-98486506D01*
X152936396Y-98486501D01*
X152750842Y-98356575D01*
X152707217Y-98301998D01*
X152700023Y-98232500D01*
X152731546Y-98170145D01*
X152750842Y-98153425D01*
X152859154Y-98077584D01*
X152936401Y-98023495D01*
X153103495Y-97856401D01*
X153239035Y-97662830D01*
X153338903Y-97448663D01*
X153400063Y-97220408D01*
X153420659Y-96985000D01*
X153400063Y-96749592D01*
X153350742Y-96565521D01*
X153338905Y-96521344D01*
X153338904Y-96521343D01*
X153338903Y-96521337D01*
X153239035Y-96307171D01*
X153239034Y-96307169D01*
X153103494Y-96113597D01*
X152936402Y-95946506D01*
X152936396Y-95946501D01*
X152750842Y-95816575D01*
X152707217Y-95761998D01*
X152700023Y-95692500D01*
X152731546Y-95630145D01*
X152750842Y-95613425D01*
X152773026Y-95597891D01*
X152936401Y-95483495D01*
X153103495Y-95316401D01*
X153239035Y-95122830D01*
X153338903Y-94908663D01*
X153400063Y-94680408D01*
X153420659Y-94445000D01*
X153400063Y-94209592D01*
X153338903Y-93981337D01*
X153239035Y-93767171D01*
X153216018Y-93734298D01*
X153103494Y-93573597D01*
X152936402Y-93406506D01*
X152936396Y-93406501D01*
X152750842Y-93276575D01*
X152707217Y-93221998D01*
X152700023Y-93152500D01*
X152731546Y-93090145D01*
X152750842Y-93073425D01*
X152850846Y-93003401D01*
X152936401Y-92943495D01*
X153103495Y-92776401D01*
X153239035Y-92582830D01*
X153338903Y-92368663D01*
X153400063Y-92140408D01*
X153420659Y-91905000D01*
X153400063Y-91669592D01*
X153338903Y-91441337D01*
X153239035Y-91227171D01*
X153239034Y-91227169D01*
X153103494Y-91033597D01*
X152936402Y-90866506D01*
X152936396Y-90866501D01*
X152750842Y-90736575D01*
X152707217Y-90681998D01*
X152700023Y-90612500D01*
X152731546Y-90550145D01*
X152750842Y-90533425D01*
X152773026Y-90517891D01*
X152936401Y-90403495D01*
X153103495Y-90236401D01*
X153239035Y-90042830D01*
X153338903Y-89828663D01*
X153400063Y-89600408D01*
X153420659Y-89365000D01*
X153400063Y-89129592D01*
X153338903Y-88901337D01*
X153239035Y-88687171D01*
X153225668Y-88668080D01*
X153103494Y-88493597D01*
X152936402Y-88326506D01*
X152936396Y-88326501D01*
X152750842Y-88196575D01*
X152707217Y-88141998D01*
X152700023Y-88072500D01*
X152731546Y-88010145D01*
X152750842Y-87993425D01*
X152892524Y-87894218D01*
X152936401Y-87863495D01*
X153103495Y-87696401D01*
X153239035Y-87502830D01*
X153338903Y-87288663D01*
X153400063Y-87060408D01*
X153420659Y-86825000D01*
X153400063Y-86589592D01*
X153338903Y-86361337D01*
X153239035Y-86147171D01*
X153103495Y-85953599D01*
X152981567Y-85831671D01*
X152948084Y-85770351D01*
X152953068Y-85700659D01*
X152994939Y-85644725D01*
X153025915Y-85627810D01*
X153157331Y-85578796D01*
X153272546Y-85492546D01*
X153358796Y-85377331D01*
X153409091Y-85242483D01*
X153415500Y-85182873D01*
X153415499Y-83387128D01*
X153409091Y-83327517D01*
X153358796Y-83192669D01*
X153358795Y-83192668D01*
X153358793Y-83192664D01*
X153272547Y-83077455D01*
X153272544Y-83077452D01*
X153157335Y-82991206D01*
X153157328Y-82991202D01*
X153022482Y-82940908D01*
X153022483Y-82940908D01*
X152962883Y-82934501D01*
X152962881Y-82934500D01*
X152962873Y-82934500D01*
X152962864Y-82934500D01*
X151167129Y-82934500D01*
X151167123Y-82934501D01*
X151107516Y-82940908D01*
X150972671Y-82991202D01*
X150972664Y-82991206D01*
X150857455Y-83077452D01*
X150857452Y-83077455D01*
X150771206Y-83192664D01*
X150771202Y-83192671D01*
X150720908Y-83327517D01*
X150714501Y-83387116D01*
X150714501Y-83387123D01*
X150714500Y-83387135D01*
X150714500Y-85182870D01*
X150714501Y-85182876D01*
X150720908Y-85242483D01*
X150771202Y-85377328D01*
X150771206Y-85377335D01*
X150857452Y-85492544D01*
X150857455Y-85492547D01*
X150972664Y-85578793D01*
X150972671Y-85578797D01*
X151104081Y-85627810D01*
X151160015Y-85669681D01*
X151184432Y-85735145D01*
X151169580Y-85803418D01*
X151148430Y-85831673D01*
X151026503Y-85953600D01*
X150890965Y-86147169D01*
X150890964Y-86147171D01*
X150791098Y-86361335D01*
X150791094Y-86361344D01*
X150729938Y-86589586D01*
X150729936Y-86589596D01*
X150709341Y-86824999D01*
X150709341Y-86825000D01*
X150729936Y-87060403D01*
X150729938Y-87060413D01*
X150791094Y-87288655D01*
X150791096Y-87288659D01*
X150791097Y-87288663D01*
X150890965Y-87502830D01*
X151020480Y-87687797D01*
X151026501Y-87696395D01*
X151026506Y-87696402D01*
X151193597Y-87863493D01*
X151193603Y-87863498D01*
X151379158Y-87993425D01*
X151422783Y-88048002D01*
X151429977Y-88117500D01*
X151398454Y-88179855D01*
X151379158Y-88196575D01*
X151193597Y-88326505D01*
X151026505Y-88493597D01*
X150890965Y-88687169D01*
X150890964Y-88687171D01*
X150791098Y-88901335D01*
X150791094Y-88901344D01*
X150729938Y-89129586D01*
X150729936Y-89129596D01*
X150709341Y-89364999D01*
X150709341Y-89365000D01*
X150729936Y-89600403D01*
X150729938Y-89600413D01*
X150791094Y-89828655D01*
X150791096Y-89828659D01*
X150791097Y-89828663D01*
X150890965Y-90042830D01*
X150890967Y-90042834D01*
X151026501Y-90236395D01*
X151026506Y-90236402D01*
X151193597Y-90403493D01*
X151193603Y-90403498D01*
X151379158Y-90533425D01*
X151422783Y-90588002D01*
X151429977Y-90657500D01*
X151398454Y-90719855D01*
X151379158Y-90736575D01*
X151193597Y-90866505D01*
X151026506Y-91033596D01*
X150890965Y-91227170D01*
X150890964Y-91227171D01*
X150882290Y-91245773D01*
X150836115Y-91298210D01*
X150802004Y-91313138D01*
X150681514Y-91345423D01*
X150681509Y-91345426D01*
X150544590Y-91424475D01*
X150544582Y-91424481D01*
X150432781Y-91536282D01*
X150432775Y-91536290D01*
X150353726Y-91673209D01*
X150353723Y-91673216D01*
X150312800Y-91825943D01*
X150312800Y-91835402D01*
X150293115Y-91902441D01*
X150276481Y-91923083D01*
X146939643Y-95259920D01*
X146878320Y-95293405D01*
X146808628Y-95288421D01*
X146752695Y-95246549D01*
X146738075Y-95216442D01*
X146736685Y-95217019D01*
X146733577Y-95209515D01*
X146683531Y-95122834D01*
X146683529Y-95122830D01*
X146654520Y-95072584D01*
X146542716Y-94960780D01*
X146542715Y-94960779D01*
X146538385Y-94956449D01*
X146538374Y-94956439D01*
X143980053Y-92398118D01*
X143948659Y-92345034D01*
X143926744Y-92269602D01*
X143843081Y-92128135D01*
X143843078Y-92128132D01*
X143838298Y-92121969D01*
X143840750Y-92120066D01*
X143814155Y-92071421D01*
X143819104Y-92001726D01*
X143839940Y-91969304D01*
X143838298Y-91968031D01*
X143843075Y-91961870D01*
X143843081Y-91961865D01*
X143926744Y-91820398D01*
X143969507Y-91673209D01*
X143972597Y-91662573D01*
X143972598Y-91662567D01*
X143972913Y-91658565D01*
X143975500Y-91625694D01*
X143975500Y-91194306D01*
X143972598Y-91157431D01*
X143971995Y-91155356D01*
X143926745Y-90999606D01*
X143926744Y-90999603D01*
X143926744Y-90999602D01*
X143898185Y-90951311D01*
X143884175Y-90927620D01*
X143866992Y-90859896D01*
X143889152Y-90793634D01*
X143943619Y-90749871D01*
X143990907Y-90740500D01*
X145631003Y-90740500D01*
X145698042Y-90760185D01*
X145718684Y-90776819D01*
X146035898Y-91094033D01*
X146069383Y-91155356D01*
X146071437Y-91167830D01*
X146081230Y-91254749D01*
X146140810Y-91425021D01*
X146180055Y-91487478D01*
X146236784Y-91577762D01*
X146364338Y-91705316D01*
X146517078Y-91801289D01*
X146687345Y-91860868D01*
X146687350Y-91860869D01*
X146866596Y-91881065D01*
X146866600Y-91881065D01*
X146866604Y-91881065D01*
X147045849Y-91860869D01*
X147045852Y-91860868D01*
X147045855Y-91860868D01*
X147216122Y-91801289D01*
X147368862Y-91705316D01*
X147496416Y-91577762D01*
X147592389Y-91425022D01*
X147651968Y-91254755D01*
X147655076Y-91227169D01*
X147672165Y-91075503D01*
X147672165Y-91075496D01*
X147651969Y-90896250D01*
X147651968Y-90896245D01*
X147641562Y-90866506D01*
X147592389Y-90725978D01*
X147570952Y-90691862D01*
X147496415Y-90573237D01*
X147368862Y-90445684D01*
X147216121Y-90349710D01*
X147045849Y-90290130D01*
X146958930Y-90280337D01*
X146894516Y-90253270D01*
X146885133Y-90244798D01*
X146418690Y-89778355D01*
X146418688Y-89778352D01*
X146299817Y-89659481D01*
X146299816Y-89659480D01*
X146213004Y-89609360D01*
X146213004Y-89609359D01*
X146213000Y-89609358D01*
X146162885Y-89580423D01*
X146010157Y-89539499D01*
X145852043Y-89539499D01*
X145844447Y-89539499D01*
X145844431Y-89539500D01*
X143845808Y-89539500D01*
X143778769Y-89519815D01*
X143758126Y-89503180D01*
X143726870Y-89471923D01*
X143726862Y-89471917D01*
X143585396Y-89388255D01*
X143585393Y-89388254D01*
X143437724Y-89345352D01*
X143378838Y-89307746D01*
X143349632Y-89244273D01*
X143359378Y-89175087D01*
X143384635Y-89138598D01*
X144629019Y-87894216D01*
X144708077Y-87757285D01*
X144749001Y-87604557D01*
X144749001Y-87446443D01*
X144708077Y-87293715D01*
X144629019Y-87156784D01*
X144517216Y-87044981D01*
X144380285Y-86965923D01*
X144227557Y-86924999D01*
X144069443Y-86924999D01*
X143954897Y-86955692D01*
X143916714Y-86965923D01*
X143779784Y-87044981D01*
X143779781Y-87044983D01*
X143165467Y-87659296D01*
X143104144Y-87692781D01*
X143034452Y-87687797D01*
X142978519Y-87645925D01*
X142959126Y-87607613D01*
X142903814Y-87425273D01*
X142903812Y-87425270D01*
X142903812Y-87425268D01*
X142810913Y-87251467D01*
X142810909Y-87251460D01*
X142685883Y-87099116D01*
X142533539Y-86974090D01*
X142533532Y-86974086D01*
X142359733Y-86881188D01*
X142359727Y-86881186D01*
X142174508Y-86825000D01*
X142171129Y-86823975D01*
X141975000Y-86804659D01*
X141778870Y-86823975D01*
X141590266Y-86881188D01*
X141416467Y-86974086D01*
X141416460Y-86974090D01*
X141264116Y-87099116D01*
X141139090Y-87251460D01*
X141139088Y-87251464D01*
X141134358Y-87260314D01*
X141085395Y-87310158D01*
X141017257Y-87325618D01*
X140951578Y-87301786D01*
X140915642Y-87260314D01*
X140910911Y-87251464D01*
X140910909Y-87251460D01*
X140785883Y-87099116D01*
X140633539Y-86974090D01*
X140633532Y-86974086D01*
X140459733Y-86881188D01*
X140459727Y-86881186D01*
X140274508Y-86825000D01*
X140271129Y-86823975D01*
X140075000Y-86804659D01*
X139878870Y-86823975D01*
X139690266Y-86881188D01*
X139516467Y-86974086D01*
X139516460Y-86974090D01*
X139364116Y-87099116D01*
X139239090Y-87251460D01*
X139239086Y-87251467D01*
X139146188Y-87425266D01*
X139088975Y-87613870D01*
X139069659Y-87810000D01*
X139088975Y-88006129D01*
X139088976Y-88006132D01*
X139122759Y-88117500D01*
X139146188Y-88194732D01*
X139237544Y-88365647D01*
X139251786Y-88434050D01*
X139226786Y-88499293D01*
X139170481Y-88540664D01*
X139128186Y-88548100D01*
X138462340Y-88548100D01*
X138421419Y-88559064D01*
X138421419Y-88559065D01*
X138384151Y-88569051D01*
X138309614Y-88589023D01*
X138309609Y-88589026D01*
X138172690Y-88668075D01*
X138172682Y-88668081D01*
X138060878Y-88779886D01*
X137537584Y-89303181D01*
X137476261Y-89336666D01*
X137449903Y-89339500D01*
X136659298Y-89339500D01*
X136622432Y-89342401D01*
X136622426Y-89342402D01*
X136464606Y-89388254D01*
X136464603Y-89388255D01*
X136323140Y-89471915D01*
X136323135Y-89471919D01*
X136295974Y-89499080D01*
X136234650Y-89532564D01*
X136164959Y-89527578D01*
X136120613Y-89499078D01*
X133651819Y-87030284D01*
X133618334Y-86968961D01*
X133615500Y-86942603D01*
X133615500Y-82516692D01*
X133635185Y-82449653D01*
X133668374Y-82415119D01*
X133854139Y-82285047D01*
X134015047Y-82124139D01*
X134145568Y-81937734D01*
X134241739Y-81731496D01*
X134300635Y-81511692D01*
X134320468Y-81285000D01*
X134320468Y-81284998D01*
X141869532Y-81284998D01*
X141869532Y-81285001D01*
X141889364Y-81511686D01*
X141889366Y-81511697D01*
X141948258Y-81731488D01*
X141948261Y-81731497D01*
X142044431Y-81937732D01*
X142044432Y-81937734D01*
X142174954Y-82124141D01*
X142335858Y-82285045D01*
X142335861Y-82285047D01*
X142522266Y-82415568D01*
X142728504Y-82511739D01*
X142948308Y-82570635D01*
X143110230Y-82584801D01*
X143174998Y-82590468D01*
X143175000Y-82590468D01*
X143175002Y-82590468D01*
X143231673Y-82585509D01*
X143401692Y-82570635D01*
X143621496Y-82511739D01*
X143827734Y-82415568D01*
X144014139Y-82285047D01*
X144175047Y-82124139D01*
X144305568Y-81937734D01*
X144401739Y-81731496D01*
X144460635Y-81511692D01*
X144480468Y-81285000D01*
X144460635Y-81058308D01*
X144401739Y-80838504D01*
X144305568Y-80632266D01*
X144175047Y-80445861D01*
X144175045Y-80445858D01*
X144014141Y-80284954D01*
X143827734Y-80154432D01*
X143827732Y-80154431D01*
X143621497Y-80058261D01*
X143621488Y-80058258D01*
X143401697Y-79999366D01*
X143401693Y-79999365D01*
X143401692Y-79999365D01*
X143401691Y-79999364D01*
X143401686Y-79999364D01*
X143175002Y-79979532D01*
X143174998Y-79979532D01*
X142948313Y-79999364D01*
X142948302Y-79999366D01*
X142728511Y-80058258D01*
X142728502Y-80058261D01*
X142522267Y-80154431D01*
X142522265Y-80154432D01*
X142335858Y-80284954D01*
X142174954Y-80445858D01*
X142044432Y-80632265D01*
X142044431Y-80632267D01*
X141948261Y-80838502D01*
X141948258Y-80838511D01*
X141889366Y-81058302D01*
X141889364Y-81058313D01*
X141869532Y-81284998D01*
X134320468Y-81284998D01*
X134300635Y-81058308D01*
X134241739Y-80838504D01*
X134145568Y-80632266D01*
X134015047Y-80445861D01*
X134015045Y-80445858D01*
X133854141Y-80284954D01*
X133667734Y-80154432D01*
X133667732Y-80154431D01*
X133461497Y-80058261D01*
X133461488Y-80058258D01*
X133241697Y-79999366D01*
X133241693Y-79999365D01*
X133241692Y-79999365D01*
X133241691Y-79999364D01*
X133241686Y-79999364D01*
X133015002Y-79979532D01*
X133014998Y-79979532D01*
X132788313Y-79999364D01*
X132788302Y-79999366D01*
X132568511Y-80058258D01*
X132568502Y-80058261D01*
X132362267Y-80154431D01*
X132362265Y-80154432D01*
X132175858Y-80284954D01*
X132014954Y-80445858D01*
X131884432Y-80632265D01*
X131884431Y-80632267D01*
X131788261Y-80838502D01*
X131788258Y-80838511D01*
X131729366Y-81058302D01*
X131729364Y-81058313D01*
X131709532Y-81284998D01*
X131709532Y-81285001D01*
X131729364Y-81511686D01*
X131729366Y-81511697D01*
X131788258Y-81731488D01*
X131788261Y-81731497D01*
X131884431Y-81937732D01*
X131884432Y-81937734D01*
X132014954Y-82124141D01*
X132175858Y-82285045D01*
X132175861Y-82285047D01*
X132361624Y-82415118D01*
X132405248Y-82469693D01*
X132414500Y-82516692D01*
X132414500Y-87156030D01*
X132414499Y-87156048D01*
X132414499Y-87321754D01*
X132414498Y-87321754D01*
X132455424Y-87474489D01*
X132455425Y-87474490D01*
X132471787Y-87502829D01*
X132471788Y-87502830D01*
X132534477Y-87611412D01*
X132534481Y-87611417D01*
X132653349Y-87730285D01*
X132653355Y-87730290D01*
X136038181Y-91115116D01*
X136071666Y-91176439D01*
X136074500Y-91202797D01*
X136074500Y-91364740D01*
X136054815Y-91431779D01*
X136002011Y-91477534D01*
X135932853Y-91487478D01*
X135884528Y-91469734D01*
X135744123Y-91381511D01*
X135573854Y-91321931D01*
X135573849Y-91321930D01*
X135394604Y-91301735D01*
X135394596Y-91301735D01*
X135215350Y-91321930D01*
X135215345Y-91321931D01*
X135045076Y-91381511D01*
X134892337Y-91477484D01*
X134764784Y-91605037D01*
X134668811Y-91757776D01*
X134609231Y-91928045D01*
X134609230Y-91928050D01*
X134589035Y-92107296D01*
X134589035Y-92107303D01*
X134609230Y-92286549D01*
X134609231Y-92286554D01*
X134668811Y-92456823D01*
X134684602Y-92481954D01*
X134764784Y-92609562D01*
X134892338Y-92737116D01*
X135045078Y-92833089D01*
X135215345Y-92892668D01*
X135302269Y-92902461D01*
X135366680Y-92929526D01*
X135376065Y-92938000D01*
X135482439Y-93044374D01*
X135482449Y-93044385D01*
X135486779Y-93048715D01*
X135486780Y-93048716D01*
X135598584Y-93160520D01*
X135623665Y-93175000D01*
X135685395Y-93210639D01*
X135685397Y-93210641D01*
X135722153Y-93231862D01*
X135735515Y-93239577D01*
X135888243Y-93280500D01*
X136059093Y-93280500D01*
X136126132Y-93300185D01*
X136171887Y-93352989D01*
X136181831Y-93422147D01*
X136165825Y-93467620D01*
X136123257Y-93539599D01*
X136123254Y-93539606D01*
X136077402Y-93697426D01*
X136077401Y-93697432D01*
X136074500Y-93734298D01*
X136074500Y-94165701D01*
X136077401Y-94202567D01*
X136077402Y-94202573D01*
X136123254Y-94360393D01*
X136123255Y-94360396D01*
X136123256Y-94360398D01*
X136160681Y-94423681D01*
X136206917Y-94501862D01*
X136211702Y-94508031D01*
X136209256Y-94509927D01*
X136235857Y-94558642D01*
X136230873Y-94628334D01*
X136210069Y-94660703D01*
X136211702Y-94661969D01*
X136206917Y-94668137D01*
X136123255Y-94809603D01*
X136123254Y-94809606D01*
X136077402Y-94967426D01*
X136077401Y-94967432D01*
X136074500Y-95004298D01*
X136074500Y-95435701D01*
X136077401Y-95472567D01*
X136077402Y-95472573D01*
X136123254Y-95630393D01*
X136123257Y-95630400D01*
X136165825Y-95702380D01*
X136183008Y-95770104D01*
X136160848Y-95836366D01*
X136106381Y-95880129D01*
X136059093Y-95889500D01*
X132677870Y-95889500D01*
X132677854Y-95889499D01*
X132670258Y-95889499D01*
X132512143Y-95889499D01*
X132359415Y-95930423D01*
X132265864Y-95984435D01*
X132222481Y-96009482D01*
X123567181Y-104664783D01*
X123505858Y-104698268D01*
X123436166Y-104693284D01*
X123380233Y-104651412D01*
X123355816Y-104585948D01*
X123355500Y-104577102D01*
X123355500Y-78185000D01*
X128214474Y-78185000D01*
X128234547Y-78440064D01*
X128234547Y-78440067D01*
X128234548Y-78440070D01*
X128273405Y-78601918D01*
X128294279Y-78688864D01*
X128392188Y-78925239D01*
X128392190Y-78925242D01*
X128525875Y-79143396D01*
X128525878Y-79143401D01*
X128557412Y-79180322D01*
X128692044Y-79337956D01*
X128797420Y-79427955D01*
X128886598Y-79504121D01*
X128886600Y-79504122D01*
X128886601Y-79504123D01*
X129104757Y-79637809D01*
X129104760Y-79637811D01*
X129322036Y-79727809D01*
X129341140Y-79735722D01*
X129589930Y-79795452D01*
X129845000Y-79815526D01*
X130100070Y-79795452D01*
X130348860Y-79735722D01*
X130467051Y-79686765D01*
X130585239Y-79637811D01*
X130585240Y-79637810D01*
X130585243Y-79637809D01*
X130803399Y-79504123D01*
X130997956Y-79337956D01*
X131164123Y-79143399D01*
X131297809Y-78925243D01*
X131323985Y-78862047D01*
X131367825Y-78807645D01*
X131434119Y-78785579D01*
X131438546Y-78785500D01*
X133331454Y-78785500D01*
X133398493Y-78805185D01*
X133444248Y-78857989D01*
X133446003Y-78862020D01*
X133451620Y-78875579D01*
X133472191Y-78925244D01*
X133605875Y-79143396D01*
X133605878Y-79143401D01*
X133637412Y-79180322D01*
X133772044Y-79337956D01*
X133877420Y-79427955D01*
X133966598Y-79504121D01*
X133966600Y-79504122D01*
X133966601Y-79504123D01*
X134184757Y-79637809D01*
X134184760Y-79637811D01*
X134402036Y-79727809D01*
X134421140Y-79735722D01*
X134669930Y-79795452D01*
X134925000Y-79815526D01*
X135180070Y-79795452D01*
X135428860Y-79735722D01*
X135547051Y-79686765D01*
X135665239Y-79637811D01*
X135665240Y-79637810D01*
X135665243Y-79637809D01*
X135883399Y-79504123D01*
X136077956Y-79337956D01*
X136244123Y-79143399D01*
X136377809Y-78925243D01*
X136381787Y-78915641D01*
X136448109Y-78755524D01*
X136475722Y-78688860D01*
X136535452Y-78440070D01*
X136555526Y-78185000D01*
X136535452Y-77929930D01*
X136475722Y-77681140D01*
X136437838Y-77589679D01*
X136377811Y-77444760D01*
X136377809Y-77444757D01*
X136252350Y-77240027D01*
X136244123Y-77226601D01*
X136244122Y-77226600D01*
X136244121Y-77226598D01*
X136136273Y-77100325D01*
X136077956Y-77032044D01*
X135950414Y-76923113D01*
X135883401Y-76865878D01*
X135883396Y-76865875D01*
X135665242Y-76732190D01*
X135665239Y-76732188D01*
X135428864Y-76634279D01*
X135428860Y-76634278D01*
X135180070Y-76574548D01*
X135180067Y-76574547D01*
X135180064Y-76574547D01*
X134925000Y-76554474D01*
X134669935Y-76574547D01*
X134669931Y-76574547D01*
X134669930Y-76574548D01*
X134545535Y-76604413D01*
X134421135Y-76634279D01*
X134184760Y-76732188D01*
X134184757Y-76732190D01*
X133966603Y-76865875D01*
X133966598Y-76865878D01*
X133772044Y-77032044D01*
X133605878Y-77226598D01*
X133605875Y-77226603D01*
X133472191Y-77444755D01*
X133457118Y-77481144D01*
X133446014Y-77507952D01*
X133402175Y-77562355D01*
X133335881Y-77584421D01*
X133331454Y-77584500D01*
X131438546Y-77584500D01*
X131371507Y-77564815D01*
X131325752Y-77512011D01*
X131323996Y-77507979D01*
X131297809Y-77444757D01*
X131296678Y-77442912D01*
X131172350Y-77240027D01*
X131164123Y-77226601D01*
X131164122Y-77226600D01*
X131164121Y-77226598D01*
X131056273Y-77100325D01*
X130997956Y-77032044D01*
X130870414Y-76923113D01*
X130803401Y-76865878D01*
X130803396Y-76865875D01*
X130585242Y-76732190D01*
X130585239Y-76732188D01*
X130348864Y-76634279D01*
X130348860Y-76634278D01*
X130100070Y-76574548D01*
X130100067Y-76574547D01*
X130100064Y-76574547D01*
X129845000Y-76554474D01*
X129589935Y-76574547D01*
X129589931Y-76574547D01*
X129589930Y-76574548D01*
X129465535Y-76604413D01*
X129341135Y-76634279D01*
X129104760Y-76732188D01*
X129104757Y-76732190D01*
X128886603Y-76865875D01*
X128886598Y-76865878D01*
X128692044Y-77032044D01*
X128525878Y-77226598D01*
X128525875Y-77226603D01*
X128392190Y-77444757D01*
X128392188Y-77444760D01*
X128294279Y-77681135D01*
X128234547Y-77929935D01*
X128214474Y-78185000D01*
X123355500Y-78185000D01*
X123355500Y-73105000D01*
X128214474Y-73105000D01*
X128234547Y-73360064D01*
X128234547Y-73360067D01*
X128234548Y-73360070D01*
X128260381Y-73467669D01*
X128294279Y-73608864D01*
X128392188Y-73845239D01*
X128392189Y-73845240D01*
X128525875Y-74063396D01*
X128525878Y-74063401D01*
X128569763Y-74114783D01*
X128692044Y-74257956D01*
X128797420Y-74347955D01*
X128886598Y-74424121D01*
X128886600Y-74424122D01*
X128886601Y-74424123D01*
X129104757Y-74557809D01*
X129104760Y-74557811D01*
X129322036Y-74647809D01*
X129341140Y-74655722D01*
X129589930Y-74715452D01*
X129845000Y-74735526D01*
X130100070Y-74715452D01*
X130348860Y-74655722D01*
X130467051Y-74606765D01*
X130585239Y-74557811D01*
X130585240Y-74557810D01*
X130585243Y-74557809D01*
X130803399Y-74424123D01*
X130997956Y-74257956D01*
X131164123Y-74063399D01*
X131297809Y-73845243D01*
X131323985Y-73782047D01*
X131367825Y-73727645D01*
X131434119Y-73705579D01*
X131438546Y-73705500D01*
X133331454Y-73705500D01*
X133398493Y-73725185D01*
X133444248Y-73777989D01*
X133446003Y-73782020D01*
X133470919Y-73842171D01*
X133472191Y-73845243D01*
X133605875Y-74063396D01*
X133605878Y-74063401D01*
X133649763Y-74114783D01*
X133772044Y-74257956D01*
X133877420Y-74347955D01*
X133966598Y-74424121D01*
X133966600Y-74424122D01*
X133966601Y-74424123D01*
X134184757Y-74557809D01*
X134184760Y-74557811D01*
X134402036Y-74647809D01*
X134421140Y-74655722D01*
X134669930Y-74715452D01*
X134925000Y-74735526D01*
X135180070Y-74715452D01*
X135428860Y-74655722D01*
X135547051Y-74606765D01*
X135665239Y-74557811D01*
X135665240Y-74557810D01*
X135665243Y-74557809D01*
X135883399Y-74424123D01*
X136077956Y-74257956D01*
X136244123Y-74063399D01*
X136377809Y-73845243D01*
X136403985Y-73782047D01*
X136447825Y-73727645D01*
X136514119Y-73705579D01*
X136518546Y-73705500D01*
X136568203Y-73705500D01*
X136635242Y-73725185D01*
X136655884Y-73741819D01*
X137824437Y-74910372D01*
X137857922Y-74971695D01*
X137852938Y-75041387D01*
X137811066Y-75097320D01*
X137745602Y-75121737D01*
X137677329Y-75106885D01*
X137674757Y-75105441D01*
X137640083Y-75085422D01*
X137584181Y-75070443D01*
X137487357Y-75044499D01*
X137329243Y-75044499D01*
X137321647Y-75044499D01*
X137321631Y-75044500D01*
X133870308Y-75044500D01*
X133803269Y-75024815D01*
X133757514Y-74972011D01*
X133755747Y-74967952D01*
X133748435Y-74950299D01*
X133659673Y-74805452D01*
X133622972Y-74745561D01*
X133467027Y-74562973D01*
X133284439Y-74407028D01*
X133226572Y-74371567D01*
X133079702Y-74281565D01*
X132857865Y-74189678D01*
X132857867Y-74189678D01*
X132857863Y-74189677D01*
X132857859Y-74189676D01*
X132857853Y-74189674D01*
X132624382Y-74133623D01*
X132385000Y-74114783D01*
X132145617Y-74133623D01*
X131912146Y-74189674D01*
X131912134Y-74189678D01*
X131690297Y-74281565D01*
X131485563Y-74407026D01*
X131302973Y-74562973D01*
X131147026Y-74745563D01*
X131021565Y-74950297D01*
X130929678Y-75172134D01*
X130929674Y-75172146D01*
X130873623Y-75405617D01*
X130854783Y-75645000D01*
X130873623Y-75884382D01*
X130929674Y-76117853D01*
X130929678Y-76117865D01*
X131021565Y-76339702D01*
X131101182Y-76469625D01*
X131147028Y-76544439D01*
X131302973Y-76727027D01*
X131485561Y-76882972D01*
X131485563Y-76882973D01*
X131690297Y-77008434D01*
X131787047Y-77048508D01*
X131912137Y-77100323D01*
X132145621Y-77156377D01*
X132385000Y-77175217D01*
X132624379Y-77156377D01*
X132857863Y-77100323D01*
X133079704Y-77008433D01*
X133284439Y-76882972D01*
X133467027Y-76727027D01*
X133622972Y-76544439D01*
X133748433Y-76339704D01*
X133748435Y-76339700D01*
X133755747Y-76322048D01*
X133799587Y-76267644D01*
X133865881Y-76245579D01*
X133870308Y-76245500D01*
X137108203Y-76245500D01*
X137175242Y-76265185D01*
X137195884Y-76281819D01*
X139663439Y-78749374D01*
X139663449Y-78749385D01*
X139667779Y-78753715D01*
X139667780Y-78753716D01*
X139779584Y-78865520D01*
X139830967Y-78895185D01*
X139866395Y-78915639D01*
X139866397Y-78915641D01*
X139904451Y-78937611D01*
X139916515Y-78944577D01*
X140069243Y-78985500D01*
X140069247Y-78985500D01*
X140073461Y-78986629D01*
X140133121Y-79022993D01*
X140140320Y-79031675D01*
X140252573Y-79180322D01*
X140413568Y-79327088D01*
X140413575Y-79327092D01*
X140413576Y-79327093D01*
X140598786Y-79441770D01*
X140598792Y-79441773D01*
X140621664Y-79450633D01*
X140801931Y-79520470D01*
X141016074Y-79560500D01*
X141016076Y-79560500D01*
X141233924Y-79560500D01*
X141233926Y-79560500D01*
X141448069Y-79520470D01*
X141651210Y-79441772D01*
X141836432Y-79327088D01*
X141997427Y-79180322D01*
X142128712Y-79006472D01*
X142225817Y-78811459D01*
X142285435Y-78601923D01*
X142305536Y-78385000D01*
X142285435Y-78168077D01*
X142225817Y-77958541D01*
X142128712Y-77763528D01*
X141997427Y-77589678D01*
X141873423Y-77476634D01*
X141837145Y-77416927D01*
X141838905Y-77347079D01*
X141873423Y-77293365D01*
X141936275Y-77236068D01*
X141999078Y-77205454D01*
X142068465Y-77213652D01*
X142107491Y-77240026D01*
X143622984Y-78755520D01*
X143622986Y-78755521D01*
X143622990Y-78755524D01*
X143663410Y-78778860D01*
X143759916Y-78834577D01*
X143912643Y-78875501D01*
X143912645Y-78875501D01*
X144078354Y-78875501D01*
X144078370Y-78875500D01*
X145341454Y-78875500D01*
X145408493Y-78895185D01*
X145454248Y-78947989D01*
X145456003Y-78952020D01*
X145469871Y-78985500D01*
X145482191Y-79015244D01*
X145615875Y-79233396D01*
X145615878Y-79233401D01*
X145691200Y-79321591D01*
X145782044Y-79427956D01*
X145890363Y-79520469D01*
X145976598Y-79594121D01*
X145976600Y-79594122D01*
X145976601Y-79594123D01*
X146194757Y-79727809D01*
X146194760Y-79727811D01*
X146431135Y-79825720D01*
X146431140Y-79825722D01*
X146679930Y-79885452D01*
X146935000Y-79905526D01*
X147190070Y-79885452D01*
X147438860Y-79825722D01*
X147557051Y-79776765D01*
X147675239Y-79727811D01*
X147675240Y-79727810D01*
X147675243Y-79727809D01*
X147893399Y-79594123D01*
X148087956Y-79427956D01*
X148254123Y-79233399D01*
X148387809Y-79015243D01*
X148413985Y-78952047D01*
X148457825Y-78897645D01*
X148524119Y-78875579D01*
X148528546Y-78875500D01*
X150421454Y-78875500D01*
X150488493Y-78895185D01*
X150534248Y-78947989D01*
X150536003Y-78952020D01*
X150549871Y-78985500D01*
X150562191Y-79015244D01*
X150695875Y-79233396D01*
X150695878Y-79233401D01*
X150771200Y-79321591D01*
X150862044Y-79427956D01*
X150970363Y-79520469D01*
X151056598Y-79594121D01*
X151056600Y-79594122D01*
X151056601Y-79594123D01*
X151274757Y-79727809D01*
X151274760Y-79727811D01*
X151511135Y-79825720D01*
X151511140Y-79825722D01*
X151759930Y-79885452D01*
X152015000Y-79905526D01*
X152270070Y-79885452D01*
X152518860Y-79825722D01*
X152637051Y-79776765D01*
X152755239Y-79727811D01*
X152755240Y-79727810D01*
X152755243Y-79727809D01*
X152973399Y-79594123D01*
X153167956Y-79427956D01*
X153334123Y-79233399D01*
X153467809Y-79015243D01*
X153479662Y-78986629D01*
X153562939Y-78785579D01*
X153565722Y-78778860D01*
X153625452Y-78530070D01*
X153645526Y-78275000D01*
X153625452Y-78019930D01*
X153565722Y-77771140D01*
X153528441Y-77681135D01*
X153467811Y-77534760D01*
X153467809Y-77534757D01*
X153376038Y-77385000D01*
X153334123Y-77316601D01*
X153334122Y-77316600D01*
X153334121Y-77316598D01*
X153265343Y-77236070D01*
X153167956Y-77122044D01*
X153051983Y-77022994D01*
X152973401Y-76955878D01*
X152973396Y-76955875D01*
X152755242Y-76822190D01*
X152755239Y-76822188D01*
X152518864Y-76724279D01*
X152518860Y-76724278D01*
X152270070Y-76664548D01*
X152270067Y-76664547D01*
X152270064Y-76664547D01*
X152015000Y-76644474D01*
X151759935Y-76664547D01*
X151759931Y-76664547D01*
X151759930Y-76664548D01*
X151635535Y-76694413D01*
X151511135Y-76724279D01*
X151274760Y-76822188D01*
X151274757Y-76822190D01*
X151056603Y-76955875D01*
X151056598Y-76955878D01*
X150862044Y-77122044D01*
X150695878Y-77316598D01*
X150695875Y-77316603D01*
X150562191Y-77534755D01*
X150549852Y-77564546D01*
X150536014Y-77597952D01*
X150492175Y-77652355D01*
X150425881Y-77674421D01*
X150421454Y-77674500D01*
X148528546Y-77674500D01*
X148461507Y-77654815D01*
X148415752Y-77602011D01*
X148413996Y-77597979D01*
X148387809Y-77534757D01*
X148254123Y-77316601D01*
X148254122Y-77316600D01*
X148254121Y-77316598D01*
X148185343Y-77236070D01*
X148087956Y-77122044D01*
X147971983Y-77022994D01*
X147893401Y-76955878D01*
X147893396Y-76955875D01*
X147675242Y-76822190D01*
X147675239Y-76822188D01*
X147438864Y-76724279D01*
X147438860Y-76724278D01*
X147190070Y-76664548D01*
X147190067Y-76664547D01*
X147190064Y-76664547D01*
X146935000Y-76644474D01*
X146679935Y-76664547D01*
X146679931Y-76664547D01*
X146679930Y-76664548D01*
X146555535Y-76694413D01*
X146431135Y-76724279D01*
X146194760Y-76822188D01*
X146194757Y-76822190D01*
X145976603Y-76955875D01*
X145976598Y-76955878D01*
X145782044Y-77122044D01*
X145615878Y-77316598D01*
X145615875Y-77316603D01*
X145482191Y-77534755D01*
X145469852Y-77564546D01*
X145456014Y-77597952D01*
X145412175Y-77652355D01*
X145345881Y-77674421D01*
X145341454Y-77674500D01*
X144291798Y-77674500D01*
X144224759Y-77654815D01*
X144204117Y-77638181D01*
X143035561Y-76469625D01*
X143002076Y-76408302D01*
X143007060Y-76338610D01*
X143048932Y-76282677D01*
X143114396Y-76258260D01*
X143182669Y-76273112D01*
X143185217Y-76274543D01*
X143219915Y-76294577D01*
X143372642Y-76335500D01*
X143372643Y-76335500D01*
X147989692Y-76335500D01*
X148056731Y-76355185D01*
X148102486Y-76407989D01*
X148104253Y-76412048D01*
X148111564Y-76429700D01*
X148200326Y-76574547D01*
X148237028Y-76634439D01*
X148392973Y-76817027D01*
X148555547Y-76955878D01*
X148575560Y-76972971D01*
X148575561Y-76972972D01*
X148780297Y-77098434D01*
X148877047Y-77138508D01*
X149002137Y-77190323D01*
X149235621Y-77246377D01*
X149475000Y-77265217D01*
X149714379Y-77246377D01*
X149947863Y-77190323D01*
X150141365Y-77110171D01*
X150169702Y-77098434D01*
X150235191Y-77058303D01*
X150374439Y-76972972D01*
X150557027Y-76817027D01*
X150712972Y-76634439D01*
X150838433Y-76429704D01*
X150930323Y-76207863D01*
X150986377Y-75974379D01*
X151005217Y-75735000D01*
X150986377Y-75495621D01*
X150930323Y-75262137D01*
X150869300Y-75114815D01*
X150838434Y-75040297D01*
X150712973Y-74835563D01*
X150712972Y-74835561D01*
X150557027Y-74652973D01*
X150374439Y-74497028D01*
X150374436Y-74497026D01*
X150169702Y-74371565D01*
X149976201Y-74291415D01*
X149947863Y-74279677D01*
X149947859Y-74279676D01*
X149947853Y-74279674D01*
X149714382Y-74223623D01*
X149475000Y-74204783D01*
X149235617Y-74223623D01*
X149002146Y-74279674D01*
X149002134Y-74279678D01*
X148780297Y-74371565D01*
X148575563Y-74497026D01*
X148392973Y-74652973D01*
X148237026Y-74835563D01*
X148111564Y-75040299D01*
X148104253Y-75057952D01*
X148060413Y-75112356D01*
X147994119Y-75134421D01*
X147989692Y-75134500D01*
X143751797Y-75134500D01*
X143684758Y-75114815D01*
X143664116Y-75098181D01*
X142589290Y-74023355D01*
X142589288Y-74023352D01*
X142470417Y-73904481D01*
X142470409Y-73904475D01*
X142367815Y-73845243D01*
X142367811Y-73845241D01*
X142362492Y-73842170D01*
X142314280Y-73791601D01*
X142300499Y-73734787D01*
X142300499Y-73662129D01*
X142300498Y-73662123D01*
X142300497Y-73662116D01*
X142294091Y-73602517D01*
X142243796Y-73467669D01*
X142243795Y-73467668D01*
X142243793Y-73467664D01*
X142157547Y-73352455D01*
X142157544Y-73352452D01*
X142042335Y-73266206D01*
X142042328Y-73266202D01*
X141907482Y-73215908D01*
X141907483Y-73215908D01*
X141847883Y-73209501D01*
X141847881Y-73209500D01*
X141847873Y-73209500D01*
X141847864Y-73209500D01*
X140402129Y-73209500D01*
X140402123Y-73209501D01*
X140342516Y-73215908D01*
X140207671Y-73266202D01*
X140207664Y-73266206D01*
X140092455Y-73352452D01*
X140092452Y-73352455D01*
X140006206Y-73467664D01*
X140006202Y-73467671D01*
X139955908Y-73602517D01*
X139949501Y-73662116D01*
X139949501Y-73662123D01*
X139949500Y-73662135D01*
X139949500Y-75037603D01*
X139929815Y-75104642D01*
X139877011Y-75150397D01*
X139807853Y-75160341D01*
X139744297Y-75131316D01*
X139737819Y-75125284D01*
X137807535Y-73195000D01*
X145304474Y-73195000D01*
X145324547Y-73450064D01*
X145324547Y-73450067D01*
X145324548Y-73450070D01*
X145375458Y-73662123D01*
X145384279Y-73698864D01*
X145482188Y-73935239D01*
X145482190Y-73935242D01*
X145615875Y-74153396D01*
X145615878Y-74153401D01*
X145646861Y-74189677D01*
X145782044Y-74347956D01*
X145906579Y-74454319D01*
X145976598Y-74514121D01*
X145976600Y-74514122D01*
X145976601Y-74514123D01*
X146056317Y-74562973D01*
X146194757Y-74647809D01*
X146194760Y-74647811D01*
X146430751Y-74745561D01*
X146431140Y-74745722D01*
X146679930Y-74805452D01*
X146935000Y-74825526D01*
X147190070Y-74805452D01*
X147438860Y-74745722D01*
X147557051Y-74696765D01*
X147675239Y-74647811D01*
X147675240Y-74647810D01*
X147675243Y-74647809D01*
X147893399Y-74514123D01*
X148087956Y-74347956D01*
X148254123Y-74153399D01*
X148387809Y-73935243D01*
X148413985Y-73872047D01*
X148457825Y-73817645D01*
X148524119Y-73795579D01*
X148528546Y-73795500D01*
X150421454Y-73795500D01*
X150488493Y-73815185D01*
X150534248Y-73867989D01*
X150536003Y-73872020D01*
X150549447Y-73904475D01*
X150562191Y-73935244D01*
X150695875Y-74153396D01*
X150695878Y-74153401D01*
X150726861Y-74189677D01*
X150862044Y-74347956D01*
X150986579Y-74454319D01*
X151056598Y-74514121D01*
X151056600Y-74514122D01*
X151056601Y-74514123D01*
X151136317Y-74562973D01*
X151274757Y-74647809D01*
X151274760Y-74647811D01*
X151510751Y-74745561D01*
X151511140Y-74745722D01*
X151759930Y-74805452D01*
X152015000Y-74825526D01*
X152270070Y-74805452D01*
X152518860Y-74745722D01*
X152637051Y-74696765D01*
X152755239Y-74647811D01*
X152755240Y-74647810D01*
X152755243Y-74647809D01*
X152973399Y-74514123D01*
X153167956Y-74347956D01*
X153334123Y-74153399D01*
X153467809Y-73935243D01*
X153480552Y-73904480D01*
X153547928Y-73741819D01*
X153565722Y-73698860D01*
X153625452Y-73450070D01*
X153645526Y-73195000D01*
X153625452Y-72939930D01*
X153565722Y-72691140D01*
X153528441Y-72601135D01*
X153467811Y-72454760D01*
X153467809Y-72454757D01*
X153334124Y-72236603D01*
X153334121Y-72236598D01*
X153274319Y-72166579D01*
X153167956Y-72042044D01*
X153061591Y-71951200D01*
X152973401Y-71875878D01*
X152973396Y-71875875D01*
X152755242Y-71742190D01*
X152755239Y-71742188D01*
X152518864Y-71644279D01*
X152518860Y-71644278D01*
X152270070Y-71584548D01*
X152270067Y-71584547D01*
X152270064Y-71584547D01*
X152015000Y-71564474D01*
X151759935Y-71584547D01*
X151759931Y-71584547D01*
X151759930Y-71584548D01*
X151732673Y-71591092D01*
X151511135Y-71644279D01*
X151274760Y-71742188D01*
X151274757Y-71742190D01*
X151056603Y-71875875D01*
X151056598Y-71875878D01*
X150862044Y-72042044D01*
X150695878Y-72236598D01*
X150695875Y-72236603D01*
X150562191Y-72454755D01*
X150549741Y-72484815D01*
X150536014Y-72517952D01*
X150492175Y-72572355D01*
X150425881Y-72594421D01*
X150421454Y-72594500D01*
X148528546Y-72594500D01*
X148461507Y-72574815D01*
X148415752Y-72522011D01*
X148413996Y-72517979D01*
X148387809Y-72454757D01*
X148254123Y-72236601D01*
X148254122Y-72236600D01*
X148254121Y-72236598D01*
X148194319Y-72166579D01*
X148087956Y-72042044D01*
X147981591Y-71951200D01*
X147893401Y-71875878D01*
X147893396Y-71875875D01*
X147675242Y-71742190D01*
X147675239Y-71742188D01*
X147438864Y-71644279D01*
X147438860Y-71644278D01*
X147190070Y-71584548D01*
X147190067Y-71584547D01*
X147190064Y-71584547D01*
X146935000Y-71564474D01*
X146679935Y-71584547D01*
X146679931Y-71584547D01*
X146679930Y-71584548D01*
X146652673Y-71591092D01*
X146431135Y-71644279D01*
X146194760Y-71742188D01*
X146194757Y-71742190D01*
X145976603Y-71875875D01*
X145976598Y-71875878D01*
X145782044Y-72042044D01*
X145615878Y-72236598D01*
X145615875Y-72236603D01*
X145482190Y-72454757D01*
X145482188Y-72454760D01*
X145384279Y-72691135D01*
X145324547Y-72939935D01*
X145304474Y-73195000D01*
X137807535Y-73195000D01*
X137355890Y-72743355D01*
X137355888Y-72743352D01*
X137237017Y-72624481D01*
X137237016Y-72624480D01*
X137150204Y-72574360D01*
X137150204Y-72574359D01*
X137150200Y-72574358D01*
X137100085Y-72545423D01*
X136947357Y-72504499D01*
X136789243Y-72504499D01*
X136781647Y-72504499D01*
X136781631Y-72504500D01*
X136518546Y-72504500D01*
X136451507Y-72484815D01*
X136405752Y-72432011D01*
X136403996Y-72427979D01*
X136377809Y-72364757D01*
X136244123Y-72146601D01*
X136244122Y-72146600D01*
X136244121Y-72146598D01*
X136154823Y-72042044D01*
X136077956Y-71952044D01*
X135971591Y-71861200D01*
X135883401Y-71785878D01*
X135883396Y-71785875D01*
X135665242Y-71652190D01*
X135665239Y-71652188D01*
X135428864Y-71554279D01*
X135428860Y-71554278D01*
X135180070Y-71494548D01*
X135180067Y-71494547D01*
X135180064Y-71494547D01*
X134925000Y-71474474D01*
X134669935Y-71494547D01*
X134669931Y-71494547D01*
X134669930Y-71494548D01*
X134567632Y-71519108D01*
X134421135Y-71554279D01*
X134184760Y-71652188D01*
X134184757Y-71652190D01*
X133966603Y-71785875D01*
X133966598Y-71785878D01*
X133772044Y-71952044D01*
X133605878Y-72146598D01*
X133605875Y-72146603D01*
X133472191Y-72364755D01*
X133457118Y-72401144D01*
X133446014Y-72427952D01*
X133402175Y-72482355D01*
X133335881Y-72504421D01*
X133331454Y-72504500D01*
X131438546Y-72504500D01*
X131371507Y-72484815D01*
X131325752Y-72432011D01*
X131323996Y-72427979D01*
X131297809Y-72364757D01*
X131164123Y-72146601D01*
X131164122Y-72146600D01*
X131164121Y-72146598D01*
X131074823Y-72042044D01*
X130997956Y-71952044D01*
X130891591Y-71861200D01*
X130803401Y-71785878D01*
X130803396Y-71785875D01*
X130585242Y-71652190D01*
X130585239Y-71652188D01*
X130348864Y-71554279D01*
X130348860Y-71554278D01*
X130100070Y-71494548D01*
X130100067Y-71494547D01*
X130100064Y-71494547D01*
X129845000Y-71474474D01*
X129589935Y-71494547D01*
X129589931Y-71494547D01*
X129589930Y-71494548D01*
X129487632Y-71519108D01*
X129341135Y-71554279D01*
X129104760Y-71652188D01*
X129104757Y-71652190D01*
X128886603Y-71785875D01*
X128886598Y-71785878D01*
X128692044Y-71952044D01*
X128525878Y-72146598D01*
X128525875Y-72146603D01*
X128392190Y-72364757D01*
X128392188Y-72364760D01*
X128294279Y-72601135D01*
X128234547Y-72849935D01*
X128214474Y-73105000D01*
X123355500Y-73105000D01*
X123355500Y-71591092D01*
X123356097Y-71578938D01*
X123361990Y-71519108D01*
X123369089Y-71447024D01*
X123373828Y-71423200D01*
X123410532Y-71302202D01*
X123419830Y-71279757D01*
X123479427Y-71168259D01*
X123492930Y-71148050D01*
X123573137Y-71050316D01*
X123590316Y-71033137D01*
X123688052Y-70952928D01*
X123708261Y-70939426D01*
X123819757Y-70879830D01*
X123842202Y-70870532D01*
X123963200Y-70833828D01*
X123987024Y-70829089D01*
X124118939Y-70816097D01*
X124131093Y-70815500D01*
X124190892Y-70815500D01*
X153269108Y-70815500D01*
X153328907Y-70815500D01*
X153341061Y-70816097D01*
G37*
%TD.AperFunction*%
%TA.AperFunction,NonConductor*%
G36*
X142278163Y-75417801D02*
G01*
X142306418Y-75438953D01*
X142517839Y-75650374D01*
X142551324Y-75711697D01*
X142546340Y-75781389D01*
X142504468Y-75837322D01*
X142439004Y-75861739D01*
X142370731Y-75846887D01*
X142368157Y-75845441D01*
X142333487Y-75825423D01*
X142232817Y-75798448D01*
X142180757Y-75784499D01*
X142180756Y-75784499D01*
X142176535Y-75783368D01*
X142116875Y-75747003D01*
X142109675Y-75738319D01*
X142047252Y-75655657D01*
X142022560Y-75590296D01*
X142037125Y-75521961D01*
X142071895Y-75481665D01*
X142144426Y-75427368D01*
X142209890Y-75402950D01*
X142278163Y-75417801D01*
G37*
%TD.AperFunction*%
%TA.AperFunction,NonConductor*%
G36*
X139879269Y-76923113D02*
G01*
X139881833Y-76924552D01*
X139916516Y-76944577D01*
X140022488Y-76972972D01*
X140022490Y-76972973D01*
X140046898Y-76979513D01*
X140069242Y-76985500D01*
X140069243Y-76985500D01*
X140069244Y-76985500D01*
X140073461Y-76986630D01*
X140133122Y-77022994D01*
X140140323Y-77031679D01*
X140252571Y-77180320D01*
X140252573Y-77180323D01*
X140376573Y-77293363D01*
X140412855Y-77353074D01*
X140411094Y-77422921D01*
X140376572Y-77476638D01*
X140313725Y-77533929D01*
X140250920Y-77564546D01*
X140181533Y-77556347D01*
X140142507Y-77529972D01*
X139732161Y-77119626D01*
X139698676Y-77058303D01*
X139703660Y-76988611D01*
X139745532Y-76932678D01*
X139810996Y-76908261D01*
X139879269Y-76923113D01*
G37*
%TD.AperFunction*%
%TA.AperFunction,NonConductor*%
G36*
X123560703Y-117753068D02*
G01*
X123578762Y-117772464D01*
X123642454Y-117857546D01*
X123647381Y-117861234D01*
X123757664Y-117943793D01*
X123757671Y-117943797D01*
X123892517Y-117994091D01*
X123892516Y-117994091D01*
X123899444Y-117994835D01*
X123952127Y-118000500D01*
X124749787Y-118000499D01*
X124816826Y-118020183D01*
X124857174Y-118062499D01*
X124919477Y-118170412D01*
X124919481Y-118170417D01*
X125038349Y-118289285D01*
X125038355Y-118289290D01*
X125798439Y-119049374D01*
X125798449Y-119049385D01*
X125802779Y-119053715D01*
X125802780Y-119053716D01*
X125914584Y-119165520D01*
X125996445Y-119212782D01*
X125996446Y-119212783D01*
X126051509Y-119244574D01*
X126051510Y-119244575D01*
X126051512Y-119244575D01*
X126051515Y-119244577D01*
X126204243Y-119285501D01*
X126204246Y-119285501D01*
X126369953Y-119285501D01*
X126369969Y-119285500D01*
X135175909Y-119285500D01*
X135242948Y-119305185D01*
X135288292Y-119357097D01*
X135290965Y-119362830D01*
X135426505Y-119556401D01*
X135593599Y-119723495D01*
X135690384Y-119791265D01*
X135787165Y-119859032D01*
X135787167Y-119859033D01*
X135787170Y-119859035D01*
X136001337Y-119958903D01*
X136229592Y-120020063D01*
X136406034Y-120035500D01*
X136464999Y-120040659D01*
X136465000Y-120040659D01*
X136465001Y-120040659D01*
X136523966Y-120035500D01*
X136700408Y-120020063D01*
X136928663Y-119958903D01*
X137142830Y-119859035D01*
X137336401Y-119723495D01*
X137349250Y-119710645D01*
X137410568Y-119677162D01*
X137480260Y-119682144D01*
X137524611Y-119710646D01*
X138015639Y-120201674D01*
X138015649Y-120201685D01*
X138019979Y-120206015D01*
X138019980Y-120206016D01*
X138131784Y-120317820D01*
X138188210Y-120350397D01*
X138188449Y-120350535D01*
X138188448Y-120350535D01*
X138188451Y-120350536D01*
X138268709Y-120396874D01*
X138268710Y-120396875D01*
X138268712Y-120396875D01*
X138268715Y-120396877D01*
X138421443Y-120437801D01*
X138421446Y-120437801D01*
X138587153Y-120437801D01*
X138587169Y-120437800D01*
X140921760Y-120437800D01*
X140988799Y-120457485D01*
X141034554Y-120510289D01*
X141044498Y-120579447D01*
X141015473Y-120643003D01*
X141009441Y-120649481D01*
X141005084Y-120653837D01*
X140909111Y-120806576D01*
X140849531Y-120976845D01*
X140849530Y-120976850D01*
X140829335Y-121156096D01*
X140829335Y-121156103D01*
X140849530Y-121335349D01*
X140849531Y-121335354D01*
X140909111Y-121505623D01*
X141005084Y-121658362D01*
X141019541Y-121672819D01*
X141053026Y-121734142D01*
X141048042Y-121803834D01*
X141006170Y-121859767D01*
X140940706Y-121884184D01*
X140931860Y-121884500D01*
X124131093Y-121884500D01*
X124118939Y-121883903D01*
X123987033Y-121870911D01*
X123963192Y-121866169D01*
X123842209Y-121829469D01*
X123819751Y-121820166D01*
X123708261Y-121760573D01*
X123688050Y-121747069D01*
X123590322Y-121666867D01*
X123573132Y-121649677D01*
X123492930Y-121551949D01*
X123479426Y-121531738D01*
X123419833Y-121420248D01*
X123410530Y-121397790D01*
X123373828Y-121276801D01*
X123369089Y-121252973D01*
X123356097Y-121121061D01*
X123355500Y-121108907D01*
X123355500Y-117846781D01*
X123375185Y-117779742D01*
X123427989Y-117733987D01*
X123497147Y-117724043D01*
X123560703Y-117753068D01*
G37*
%TD.AperFunction*%
M02*
