%TF.GenerationSoftware,KiCad,Pcbnew,8.0.4*%
%TF.CreationDate,2025-05-02T23:49:36+05:30*%
%TF.ProjectId,Si4732Board,53693437-3332-4426-9f61-72642e6b6963,rev?*%
%TF.SameCoordinates,Original*%
%TF.FileFunction,Drillmap*%
%TF.FilePolarity,Positive*%
%FSLAX45Y45*%
G04 Gerber Fmt 4.5, Leading zero omitted, Abs format (unit mm)*
G04 Created by KiCad (PCBNEW 8.0.4) date 2025-05-02 23:49:36*
%MOMM*%
%LPD*%
G01*
G04 APERTURE LIST*
%ADD10C,0.050000*%
%ADD11C,0.200000*%
%ADD12C,0.100000*%
%ADD13C,0.150000*%
%ADD14C,0.170000*%
G04 APERTURE END LIST*
D10*
X15460500Y-7158500D02*
X15460500Y-12111500D01*
X12285500Y-7158500D02*
G75*
G02*
X12412500Y-7031500I127000J0D01*
G01*
X12412500Y-12238500D02*
X15333500Y-12238500D01*
X15333500Y-7031500D02*
X12412500Y-7031500D01*
X12412500Y-12238500D02*
G75*
G02*
X12285500Y-12111500I0J127000D01*
G01*
X15333500Y-7031500D02*
G75*
G02*
X15460500Y-7158500I0J-127000D01*
G01*
X15460500Y-12111500D02*
G75*
G02*
X15333500Y-12238500I-127000J0D01*
G01*
X12285500Y-7158500D02*
X12285500Y-12111500D01*
D11*
D12*
X13375980Y-9855740D02*
X13405980Y-9885740D01*
X13405980Y-9855740D02*
X13375980Y-9885740D01*
X13477700Y-10390930D02*
X13507700Y-10420930D01*
X13507700Y-10390930D02*
X13477700Y-10420930D01*
X13524460Y-9195730D02*
X13554460Y-9225730D01*
X13554460Y-9195730D02*
X13524460Y-9225730D01*
X13962020Y-9530680D02*
X13992020Y-9560680D01*
X13992020Y-9530680D02*
X13962020Y-9560680D01*
X14085080Y-9152710D02*
X14115080Y-9182710D01*
X14115080Y-9152710D02*
X14085080Y-9182710D01*
X14148490Y-12100610D02*
X14178490Y-12130610D01*
X14178490Y-12100610D02*
X14148490Y-12130610D01*
X14209630Y-10008070D02*
X14239630Y-10038070D01*
X14239630Y-10008070D02*
X14209630Y-10038070D01*
X14237540Y-8899860D02*
X14267540Y-8929860D01*
X14267540Y-8899860D02*
X14237540Y-8929860D01*
X14345680Y-10003380D02*
X14375680Y-10033380D01*
X14375680Y-10003380D02*
X14345680Y-10033380D01*
X14386980Y-9664000D02*
X14416980Y-9694000D01*
X14416980Y-9664000D02*
X14386980Y-9694000D01*
X14397460Y-9497060D02*
X14427460Y-9527060D01*
X14427460Y-9497060D02*
X14397460Y-9527060D01*
X14507080Y-10006080D02*
X14537080Y-10036080D01*
X14537080Y-10006080D02*
X14507080Y-10036080D01*
X14520400Y-9534800D02*
X14550400Y-9564800D01*
X14550400Y-9534800D02*
X14520400Y-9564800D01*
X14602400Y-9582280D02*
X14632400Y-9612280D01*
X14632400Y-9582280D02*
X14602400Y-9612280D01*
X14671660Y-9092550D02*
X14701660Y-9122550D01*
X14701660Y-9092550D02*
X14671660Y-9122550D01*
X14930550Y-11129530D02*
X14960550Y-11159530D01*
X14960550Y-11129530D02*
X14930550Y-11159530D01*
X14990730Y-11217130D02*
X15020730Y-11247130D01*
X15020730Y-11217130D02*
X14990730Y-11247130D01*
X14032500Y-8781000D02*
G75*
G02*
X13982500Y-8781000I-25000J0D01*
G01*
X13982500Y-8781000D02*
G75*
G02*
X14032500Y-8781000I25000J0D01*
G01*
X14222500Y-8781000D02*
G75*
G02*
X14172500Y-8781000I-25000J0D01*
G01*
X14172500Y-8781000D02*
G75*
G02*
X14222500Y-8781000I25000J0D01*
G01*
X13636500Y-11373500D02*
X13636500Y-11448500D01*
X13599000Y-11411000D02*
X13674000Y-11411000D01*
X14652500Y-11373500D02*
X14652500Y-11448500D01*
X14615000Y-11411000D02*
X14690000Y-11411000D01*
X13329784Y-8156784D02*
X13329784Y-8100215D01*
X13273215Y-8100215D01*
X13273215Y-8156784D01*
X13329784Y-8156784D01*
X13855784Y-10181785D02*
X13855784Y-10125216D01*
X13799215Y-10125216D01*
X13799215Y-10181785D01*
X13855784Y-10181785D01*
X14055784Y-10181785D02*
X14055784Y-10125216D01*
X13999215Y-10125216D01*
X13999215Y-10181785D01*
X14055784Y-10181785D01*
X14140784Y-7466784D02*
X14140784Y-7410215D01*
X14084215Y-7410215D01*
X14084215Y-7466784D01*
X14140784Y-7466784D01*
X14140784Y-7666784D02*
X14140784Y-7610215D01*
X14084215Y-7610215D01*
X14084215Y-7666784D01*
X14140784Y-7666784D01*
X14140784Y-7866784D02*
X14140784Y-7810215D01*
X14084215Y-7810215D01*
X14084215Y-7866784D01*
X14140784Y-7866784D01*
X14255784Y-10181785D02*
X14255784Y-10125216D01*
X14199215Y-10125216D01*
X14199215Y-10181785D01*
X14255784Y-10181785D01*
X14345784Y-8156784D02*
X14345784Y-8100215D01*
X14289215Y-8100215D01*
X14289215Y-8156784D01*
X14345784Y-8156784D01*
X13646500Y-11918500D02*
X13696500Y-11868500D01*
X13646500Y-11818500D01*
X13596500Y-11868500D01*
X13646500Y-11918500D01*
X13900500Y-11918500D02*
X13950500Y-11868500D01*
X13900500Y-11818500D01*
X13850500Y-11868500D01*
X13900500Y-11918500D01*
X14154500Y-11918500D02*
X14204500Y-11868500D01*
X14154500Y-11818500D01*
X14104500Y-11868500D01*
X14154500Y-11918500D01*
X14408500Y-11918500D02*
X14458500Y-11868500D01*
X14408500Y-11818500D01*
X14358500Y-11868500D01*
X14408500Y-11918500D01*
X14662500Y-11918500D02*
X14712500Y-11868500D01*
X14662500Y-11818500D01*
X14612500Y-11868500D01*
X14662500Y-11918500D01*
X15206500Y-8478500D02*
X15256500Y-8428500D01*
X15206500Y-8378500D01*
X15156500Y-8428500D01*
X15206500Y-8478500D01*
X15206500Y-8732500D02*
X15256500Y-8682500D01*
X15206500Y-8632500D01*
X15156500Y-8682500D01*
X15206500Y-8732500D01*
X15206500Y-8986500D02*
X15256500Y-8936500D01*
X15206500Y-8886500D01*
X15156500Y-8936500D01*
X15206500Y-8986500D01*
X15206500Y-9240500D02*
X15256500Y-9190500D01*
X15206500Y-9140500D01*
X15156500Y-9190500D01*
X15206500Y-9240500D01*
X15206500Y-9494500D02*
X15256500Y-9444500D01*
X15206500Y-9394500D01*
X15156500Y-9444500D01*
X15206500Y-9494500D01*
X15206500Y-9748500D02*
X15256500Y-9698500D01*
X15206500Y-9648500D01*
X15156500Y-9698500D01*
X15206500Y-9748500D01*
X15206500Y-10002500D02*
X15256500Y-9952500D01*
X15206500Y-9902500D01*
X15156500Y-9952500D01*
X15206500Y-10002500D01*
X15206500Y-10383500D02*
X15256500Y-10333500D01*
X15206500Y-10283500D01*
X15156500Y-10333500D01*
X15206500Y-10383500D01*
X15206500Y-10637500D02*
X15256500Y-10587500D01*
X15206500Y-10537500D01*
X15156500Y-10587500D01*
X15206500Y-10637500D01*
X15206500Y-10891500D02*
X15256500Y-10841500D01*
X15206500Y-10791500D01*
X15156500Y-10841500D01*
X15206500Y-10891500D01*
X15206500Y-11145500D02*
X15256500Y-11095500D01*
X15206500Y-11045500D01*
X15156500Y-11095500D01*
X15206500Y-11145500D01*
X15206500Y-11399500D02*
X15256500Y-11349500D01*
X15206500Y-11299500D01*
X15156500Y-11349500D01*
X15206500Y-11399500D01*
X15206500Y-11653500D02*
X15256500Y-11603500D01*
X15206500Y-11553500D01*
X15156500Y-11603500D01*
X15206500Y-11653500D01*
X15206500Y-11907500D02*
X15256500Y-11857500D01*
X15206500Y-11807500D01*
X15156500Y-11857500D01*
X15206500Y-11907500D01*
D13*
X13163500Y-7489500D02*
X13313500Y-7639500D01*
X13313500Y-7489500D02*
X13163500Y-7639500D01*
X13313500Y-7564500D02*
G75*
G02*
X13163500Y-7564500I-75000J0D01*
G01*
X13163500Y-7564500D02*
G75*
G02*
X13313500Y-7564500I75000J0D01*
G01*
X14872500Y-7498500D02*
X15022500Y-7648500D01*
X15022500Y-7498500D02*
X14872500Y-7648500D01*
X15022500Y-7573500D02*
G75*
G02*
X14872500Y-7573500I-75000J0D01*
G01*
X14872500Y-7573500D02*
G75*
G02*
X15022500Y-7573500I75000J0D01*
G01*
D14*
X12899500Y-7225500D02*
X13069500Y-7395500D01*
X13069500Y-7225500D02*
X12899500Y-7395500D01*
X12984500Y-7225500D02*
X12984500Y-7395500D01*
X12899500Y-7310500D02*
X13069500Y-7310500D01*
X12899500Y-7733500D02*
X13069500Y-7903500D01*
X13069500Y-7733500D02*
X12899500Y-7903500D01*
X12984500Y-7733500D02*
X12984500Y-7903500D01*
X12899500Y-7818500D02*
X13069500Y-7818500D01*
X13407500Y-7225500D02*
X13577500Y-7395500D01*
X13577500Y-7225500D02*
X13407500Y-7395500D01*
X13492500Y-7225500D02*
X13492500Y-7395500D01*
X13407500Y-7310500D02*
X13577500Y-7310500D01*
X13407500Y-7733500D02*
X13577500Y-7903500D01*
X13577500Y-7733500D02*
X13407500Y-7903500D01*
X13492500Y-7733500D02*
X13492500Y-7903500D01*
X13407500Y-7818500D02*
X13577500Y-7818500D01*
X14608500Y-7234500D02*
X14778500Y-7404500D01*
X14778500Y-7234500D02*
X14608500Y-7404500D01*
X14693500Y-7234500D02*
X14693500Y-7404500D01*
X14608500Y-7319500D02*
X14778500Y-7319500D01*
X14608500Y-7742500D02*
X14778500Y-7912500D01*
X14778500Y-7742500D02*
X14608500Y-7912500D01*
X14693500Y-7742500D02*
X14693500Y-7912500D01*
X14608500Y-7827500D02*
X14778500Y-7827500D01*
X15116500Y-7234500D02*
X15286500Y-7404500D01*
X15286500Y-7234500D02*
X15116500Y-7404500D01*
X15201500Y-7234500D02*
X15201500Y-7404500D01*
X15116500Y-7319500D02*
X15286500Y-7319500D01*
X15116500Y-7742500D02*
X15286500Y-7912500D01*
X15286500Y-7742500D02*
X15116500Y-7912500D01*
X15201500Y-7742500D02*
X15201500Y-7912500D01*
X15116500Y-7827500D02*
X15286500Y-7827500D01*
D11*
X12543777Y-12552484D02*
X12543777Y-12352484D01*
X12543777Y-12352484D02*
X12591396Y-12352484D01*
X12591396Y-12352484D02*
X12619967Y-12362008D01*
X12619967Y-12362008D02*
X12639015Y-12381055D01*
X12639015Y-12381055D02*
X12648539Y-12400103D01*
X12648539Y-12400103D02*
X12658062Y-12438198D01*
X12658062Y-12438198D02*
X12658062Y-12466769D01*
X12658062Y-12466769D02*
X12648539Y-12504865D01*
X12648539Y-12504865D02*
X12639015Y-12523912D01*
X12639015Y-12523912D02*
X12619967Y-12542960D01*
X12619967Y-12542960D02*
X12591396Y-12552484D01*
X12591396Y-12552484D02*
X12543777Y-12552484D01*
X12743777Y-12552484D02*
X12743777Y-12419150D01*
X12743777Y-12457246D02*
X12753301Y-12438198D01*
X12753301Y-12438198D02*
X12762824Y-12428674D01*
X12762824Y-12428674D02*
X12781872Y-12419150D01*
X12781872Y-12419150D02*
X12800920Y-12419150D01*
X12867586Y-12552484D02*
X12867586Y-12419150D01*
X12867586Y-12352484D02*
X12858062Y-12362008D01*
X12858062Y-12362008D02*
X12867586Y-12371531D01*
X12867586Y-12371531D02*
X12877110Y-12362008D01*
X12877110Y-12362008D02*
X12867586Y-12352484D01*
X12867586Y-12352484D02*
X12867586Y-12371531D01*
X12991396Y-12552484D02*
X12972348Y-12542960D01*
X12972348Y-12542960D02*
X12962824Y-12523912D01*
X12962824Y-12523912D02*
X12962824Y-12352484D01*
X13096158Y-12552484D02*
X13077110Y-12542960D01*
X13077110Y-12542960D02*
X13067586Y-12523912D01*
X13067586Y-12523912D02*
X13067586Y-12352484D01*
X13324729Y-12552484D02*
X13324729Y-12352484D01*
X13324729Y-12352484D02*
X13391396Y-12495341D01*
X13391396Y-12495341D02*
X13458062Y-12352484D01*
X13458062Y-12352484D02*
X13458062Y-12552484D01*
X13639015Y-12552484D02*
X13639015Y-12447722D01*
X13639015Y-12447722D02*
X13629491Y-12428674D01*
X13629491Y-12428674D02*
X13610443Y-12419150D01*
X13610443Y-12419150D02*
X13572348Y-12419150D01*
X13572348Y-12419150D02*
X13553301Y-12428674D01*
X13639015Y-12542960D02*
X13619967Y-12552484D01*
X13619967Y-12552484D02*
X13572348Y-12552484D01*
X13572348Y-12552484D02*
X13553301Y-12542960D01*
X13553301Y-12542960D02*
X13543777Y-12523912D01*
X13543777Y-12523912D02*
X13543777Y-12504865D01*
X13543777Y-12504865D02*
X13553301Y-12485817D01*
X13553301Y-12485817D02*
X13572348Y-12476293D01*
X13572348Y-12476293D02*
X13619967Y-12476293D01*
X13619967Y-12476293D02*
X13639015Y-12466769D01*
X13734253Y-12419150D02*
X13734253Y-12619150D01*
X13734253Y-12428674D02*
X13753301Y-12419150D01*
X13753301Y-12419150D02*
X13791396Y-12419150D01*
X13791396Y-12419150D02*
X13810443Y-12428674D01*
X13810443Y-12428674D02*
X13819967Y-12438198D01*
X13819967Y-12438198D02*
X13829491Y-12457246D01*
X13829491Y-12457246D02*
X13829491Y-12514388D01*
X13829491Y-12514388D02*
X13819967Y-12533436D01*
X13819967Y-12533436D02*
X13810443Y-12542960D01*
X13810443Y-12542960D02*
X13791396Y-12552484D01*
X13791396Y-12552484D02*
X13753301Y-12552484D01*
X13753301Y-12552484D02*
X13734253Y-12542960D01*
X13915205Y-12533436D02*
X13924729Y-12542960D01*
X13924729Y-12542960D02*
X13915205Y-12552484D01*
X13915205Y-12552484D02*
X13905682Y-12542960D01*
X13905682Y-12542960D02*
X13915205Y-12533436D01*
X13915205Y-12533436D02*
X13915205Y-12552484D01*
X13915205Y-12428674D02*
X13924729Y-12438198D01*
X13924729Y-12438198D02*
X13915205Y-12447722D01*
X13915205Y-12447722D02*
X13905682Y-12438198D01*
X13905682Y-12438198D02*
X13915205Y-12428674D01*
X13915205Y-12428674D02*
X13915205Y-12447722D01*
D12*
X12253000Y-12866000D02*
X12283000Y-12896000D01*
X12283000Y-12866000D02*
X12253000Y-12896000D01*
D11*
X12581872Y-12772484D02*
X12600920Y-12772484D01*
X12600920Y-12772484D02*
X12619967Y-12782008D01*
X12619967Y-12782008D02*
X12629491Y-12791531D01*
X12629491Y-12791531D02*
X12639015Y-12810579D01*
X12639015Y-12810579D02*
X12648539Y-12848674D01*
X12648539Y-12848674D02*
X12648539Y-12896293D01*
X12648539Y-12896293D02*
X12639015Y-12934388D01*
X12639015Y-12934388D02*
X12629491Y-12953436D01*
X12629491Y-12953436D02*
X12619967Y-12962960D01*
X12619967Y-12962960D02*
X12600920Y-12972484D01*
X12600920Y-12972484D02*
X12581872Y-12972484D01*
X12581872Y-12972484D02*
X12562824Y-12962960D01*
X12562824Y-12962960D02*
X12553301Y-12953436D01*
X12553301Y-12953436D02*
X12543777Y-12934388D01*
X12543777Y-12934388D02*
X12534253Y-12896293D01*
X12534253Y-12896293D02*
X12534253Y-12848674D01*
X12534253Y-12848674D02*
X12543777Y-12810579D01*
X12543777Y-12810579D02*
X12553301Y-12791531D01*
X12553301Y-12791531D02*
X12562824Y-12782008D01*
X12562824Y-12782008D02*
X12581872Y-12772484D01*
X12734253Y-12953436D02*
X12743777Y-12962960D01*
X12743777Y-12962960D02*
X12734253Y-12972484D01*
X12734253Y-12972484D02*
X12724729Y-12962960D01*
X12724729Y-12962960D02*
X12734253Y-12953436D01*
X12734253Y-12953436D02*
X12734253Y-12972484D01*
X12810443Y-12772484D02*
X12934253Y-12772484D01*
X12934253Y-12772484D02*
X12867586Y-12848674D01*
X12867586Y-12848674D02*
X12896158Y-12848674D01*
X12896158Y-12848674D02*
X12915205Y-12858198D01*
X12915205Y-12858198D02*
X12924729Y-12867722D01*
X12924729Y-12867722D02*
X12934253Y-12886769D01*
X12934253Y-12886769D02*
X12934253Y-12934388D01*
X12934253Y-12934388D02*
X12924729Y-12953436D01*
X12924729Y-12953436D02*
X12915205Y-12962960D01*
X12915205Y-12962960D02*
X12896158Y-12972484D01*
X12896158Y-12972484D02*
X12839015Y-12972484D01*
X12839015Y-12972484D02*
X12819967Y-12962960D01*
X12819967Y-12962960D02*
X12810443Y-12953436D01*
X13058062Y-12772484D02*
X13077110Y-12772484D01*
X13077110Y-12772484D02*
X13096158Y-12782008D01*
X13096158Y-12782008D02*
X13105682Y-12791531D01*
X13105682Y-12791531D02*
X13115205Y-12810579D01*
X13115205Y-12810579D02*
X13124729Y-12848674D01*
X13124729Y-12848674D02*
X13124729Y-12896293D01*
X13124729Y-12896293D02*
X13115205Y-12934388D01*
X13115205Y-12934388D02*
X13105682Y-12953436D01*
X13105682Y-12953436D02*
X13096158Y-12962960D01*
X13096158Y-12962960D02*
X13077110Y-12972484D01*
X13077110Y-12972484D02*
X13058062Y-12972484D01*
X13058062Y-12972484D02*
X13039015Y-12962960D01*
X13039015Y-12962960D02*
X13029491Y-12953436D01*
X13029491Y-12953436D02*
X13019967Y-12934388D01*
X13019967Y-12934388D02*
X13010443Y-12896293D01*
X13010443Y-12896293D02*
X13010443Y-12848674D01*
X13010443Y-12848674D02*
X13019967Y-12810579D01*
X13019967Y-12810579D02*
X13029491Y-12791531D01*
X13029491Y-12791531D02*
X13039015Y-12782008D01*
X13039015Y-12782008D02*
X13058062Y-12772484D01*
X13248539Y-12772484D02*
X13267586Y-12772484D01*
X13267586Y-12772484D02*
X13286634Y-12782008D01*
X13286634Y-12782008D02*
X13296158Y-12791531D01*
X13296158Y-12791531D02*
X13305682Y-12810579D01*
X13305682Y-12810579D02*
X13315205Y-12848674D01*
X13315205Y-12848674D02*
X13315205Y-12896293D01*
X13315205Y-12896293D02*
X13305682Y-12934388D01*
X13305682Y-12934388D02*
X13296158Y-12953436D01*
X13296158Y-12953436D02*
X13286634Y-12962960D01*
X13286634Y-12962960D02*
X13267586Y-12972484D01*
X13267586Y-12972484D02*
X13248539Y-12972484D01*
X13248539Y-12972484D02*
X13229491Y-12962960D01*
X13229491Y-12962960D02*
X13219967Y-12953436D01*
X13219967Y-12953436D02*
X13210443Y-12934388D01*
X13210443Y-12934388D02*
X13200920Y-12896293D01*
X13200920Y-12896293D02*
X13200920Y-12848674D01*
X13200920Y-12848674D02*
X13210443Y-12810579D01*
X13210443Y-12810579D02*
X13219967Y-12791531D01*
X13219967Y-12791531D02*
X13229491Y-12782008D01*
X13229491Y-12782008D02*
X13248539Y-12772484D01*
X13400920Y-12972484D02*
X13400920Y-12839150D01*
X13400920Y-12858198D02*
X13410443Y-12848674D01*
X13410443Y-12848674D02*
X13429491Y-12839150D01*
X13429491Y-12839150D02*
X13458063Y-12839150D01*
X13458063Y-12839150D02*
X13477110Y-12848674D01*
X13477110Y-12848674D02*
X13486634Y-12867722D01*
X13486634Y-12867722D02*
X13486634Y-12972484D01*
X13486634Y-12867722D02*
X13496158Y-12848674D01*
X13496158Y-12848674D02*
X13515205Y-12839150D01*
X13515205Y-12839150D02*
X13543777Y-12839150D01*
X13543777Y-12839150D02*
X13562824Y-12848674D01*
X13562824Y-12848674D02*
X13572348Y-12867722D01*
X13572348Y-12867722D02*
X13572348Y-12972484D01*
X13667586Y-12972484D02*
X13667586Y-12839150D01*
X13667586Y-12858198D02*
X13677110Y-12848674D01*
X13677110Y-12848674D02*
X13696158Y-12839150D01*
X13696158Y-12839150D02*
X13724729Y-12839150D01*
X13724729Y-12839150D02*
X13743777Y-12848674D01*
X13743777Y-12848674D02*
X13753301Y-12867722D01*
X13753301Y-12867722D02*
X13753301Y-12972484D01*
X13753301Y-12867722D02*
X13762824Y-12848674D01*
X13762824Y-12848674D02*
X13781872Y-12839150D01*
X13781872Y-12839150D02*
X13810443Y-12839150D01*
X13810443Y-12839150D02*
X13829491Y-12848674D01*
X13829491Y-12848674D02*
X13839015Y-12867722D01*
X13839015Y-12867722D02*
X13839015Y-12972484D01*
X14229491Y-12762960D02*
X14058063Y-13020103D01*
X14486634Y-12772484D02*
X14505682Y-12772484D01*
X14505682Y-12772484D02*
X14524729Y-12782008D01*
X14524729Y-12782008D02*
X14534253Y-12791531D01*
X14534253Y-12791531D02*
X14543777Y-12810579D01*
X14543777Y-12810579D02*
X14553301Y-12848674D01*
X14553301Y-12848674D02*
X14553301Y-12896293D01*
X14553301Y-12896293D02*
X14543777Y-12934388D01*
X14543777Y-12934388D02*
X14534253Y-12953436D01*
X14534253Y-12953436D02*
X14524729Y-12962960D01*
X14524729Y-12962960D02*
X14505682Y-12972484D01*
X14505682Y-12972484D02*
X14486634Y-12972484D01*
X14486634Y-12972484D02*
X14467586Y-12962960D01*
X14467586Y-12962960D02*
X14458063Y-12953436D01*
X14458063Y-12953436D02*
X14448539Y-12934388D01*
X14448539Y-12934388D02*
X14439015Y-12896293D01*
X14439015Y-12896293D02*
X14439015Y-12848674D01*
X14439015Y-12848674D02*
X14448539Y-12810579D01*
X14448539Y-12810579D02*
X14458063Y-12791531D01*
X14458063Y-12791531D02*
X14467586Y-12782008D01*
X14467586Y-12782008D02*
X14486634Y-12772484D01*
X14639015Y-12953436D02*
X14648539Y-12962960D01*
X14648539Y-12962960D02*
X14639015Y-12972484D01*
X14639015Y-12972484D02*
X14629491Y-12962960D01*
X14629491Y-12962960D02*
X14639015Y-12953436D01*
X14639015Y-12953436D02*
X14639015Y-12972484D01*
X14772348Y-12772484D02*
X14791396Y-12772484D01*
X14791396Y-12772484D02*
X14810444Y-12782008D01*
X14810444Y-12782008D02*
X14819967Y-12791531D01*
X14819967Y-12791531D02*
X14829491Y-12810579D01*
X14829491Y-12810579D02*
X14839015Y-12848674D01*
X14839015Y-12848674D02*
X14839015Y-12896293D01*
X14839015Y-12896293D02*
X14829491Y-12934388D01*
X14829491Y-12934388D02*
X14819967Y-12953436D01*
X14819967Y-12953436D02*
X14810444Y-12962960D01*
X14810444Y-12962960D02*
X14791396Y-12972484D01*
X14791396Y-12972484D02*
X14772348Y-12972484D01*
X14772348Y-12972484D02*
X14753301Y-12962960D01*
X14753301Y-12962960D02*
X14743777Y-12953436D01*
X14743777Y-12953436D02*
X14734253Y-12934388D01*
X14734253Y-12934388D02*
X14724729Y-12896293D01*
X14724729Y-12896293D02*
X14724729Y-12848674D01*
X14724729Y-12848674D02*
X14734253Y-12810579D01*
X14734253Y-12810579D02*
X14743777Y-12791531D01*
X14743777Y-12791531D02*
X14753301Y-12782008D01*
X14753301Y-12782008D02*
X14772348Y-12772484D01*
X15029491Y-12972484D02*
X14915206Y-12972484D01*
X14972348Y-12972484D02*
X14972348Y-12772484D01*
X14972348Y-12772484D02*
X14953301Y-12801055D01*
X14953301Y-12801055D02*
X14934253Y-12820103D01*
X14934253Y-12820103D02*
X14915206Y-12829627D01*
X15219967Y-12972484D02*
X15105682Y-12972484D01*
X15162825Y-12972484D02*
X15162825Y-12772484D01*
X15162825Y-12772484D02*
X15143777Y-12801055D01*
X15143777Y-12801055D02*
X15124729Y-12820103D01*
X15124729Y-12820103D02*
X15105682Y-12829627D01*
X15334253Y-12858198D02*
X15315206Y-12848674D01*
X15315206Y-12848674D02*
X15305682Y-12839150D01*
X15305682Y-12839150D02*
X15296158Y-12820103D01*
X15296158Y-12820103D02*
X15296158Y-12810579D01*
X15296158Y-12810579D02*
X15305682Y-12791531D01*
X15305682Y-12791531D02*
X15315206Y-12782008D01*
X15315206Y-12782008D02*
X15334253Y-12772484D01*
X15334253Y-12772484D02*
X15372348Y-12772484D01*
X15372348Y-12772484D02*
X15391396Y-12782008D01*
X15391396Y-12782008D02*
X15400920Y-12791531D01*
X15400920Y-12791531D02*
X15410444Y-12810579D01*
X15410444Y-12810579D02*
X15410444Y-12820103D01*
X15410444Y-12820103D02*
X15400920Y-12839150D01*
X15400920Y-12839150D02*
X15391396Y-12848674D01*
X15391396Y-12848674D02*
X15372348Y-12858198D01*
X15372348Y-12858198D02*
X15334253Y-12858198D01*
X15334253Y-12858198D02*
X15315206Y-12867722D01*
X15315206Y-12867722D02*
X15305682Y-12877246D01*
X15305682Y-12877246D02*
X15296158Y-12896293D01*
X15296158Y-12896293D02*
X15296158Y-12934388D01*
X15296158Y-12934388D02*
X15305682Y-12953436D01*
X15305682Y-12953436D02*
X15315206Y-12962960D01*
X15315206Y-12962960D02*
X15334253Y-12972484D01*
X15334253Y-12972484D02*
X15372348Y-12972484D01*
X15372348Y-12972484D02*
X15391396Y-12962960D01*
X15391396Y-12962960D02*
X15400920Y-12953436D01*
X15400920Y-12953436D02*
X15410444Y-12934388D01*
X15410444Y-12934388D02*
X15410444Y-12896293D01*
X15410444Y-12896293D02*
X15400920Y-12877246D01*
X15400920Y-12877246D02*
X15391396Y-12867722D01*
X15391396Y-12867722D02*
X15372348Y-12858198D01*
X15486634Y-12772484D02*
X15486634Y-12810579D01*
X15562825Y-12772484D02*
X15562825Y-12810579D01*
X15858063Y-13048674D02*
X15848539Y-13039150D01*
X15848539Y-13039150D02*
X15829491Y-13010579D01*
X15829491Y-13010579D02*
X15819968Y-12991531D01*
X15819968Y-12991531D02*
X15810444Y-12962960D01*
X15810444Y-12962960D02*
X15800920Y-12915341D01*
X15800920Y-12915341D02*
X15800920Y-12877246D01*
X15800920Y-12877246D02*
X15810444Y-12829627D01*
X15810444Y-12829627D02*
X15819968Y-12801055D01*
X15819968Y-12801055D02*
X15829491Y-12782008D01*
X15829491Y-12782008D02*
X15848539Y-12753436D01*
X15848539Y-12753436D02*
X15858063Y-12743912D01*
X16039015Y-12972484D02*
X15924729Y-12972484D01*
X15981872Y-12972484D02*
X15981872Y-12772484D01*
X15981872Y-12772484D02*
X15962825Y-12801055D01*
X15962825Y-12801055D02*
X15943777Y-12820103D01*
X15943777Y-12820103D02*
X15924729Y-12829627D01*
X16105682Y-12772484D02*
X16239015Y-12772484D01*
X16239015Y-12772484D02*
X16153301Y-12972484D01*
X16467587Y-12972484D02*
X16467587Y-12772484D01*
X16553301Y-12972484D02*
X16553301Y-12867722D01*
X16553301Y-12867722D02*
X16543777Y-12848674D01*
X16543777Y-12848674D02*
X16524730Y-12839150D01*
X16524730Y-12839150D02*
X16496158Y-12839150D01*
X16496158Y-12839150D02*
X16477110Y-12848674D01*
X16477110Y-12848674D02*
X16467587Y-12858198D01*
X16677110Y-12972484D02*
X16658063Y-12962960D01*
X16658063Y-12962960D02*
X16648539Y-12953436D01*
X16648539Y-12953436D02*
X16639015Y-12934388D01*
X16639015Y-12934388D02*
X16639015Y-12877246D01*
X16639015Y-12877246D02*
X16648539Y-12858198D01*
X16648539Y-12858198D02*
X16658063Y-12848674D01*
X16658063Y-12848674D02*
X16677110Y-12839150D01*
X16677110Y-12839150D02*
X16705682Y-12839150D01*
X16705682Y-12839150D02*
X16724730Y-12848674D01*
X16724730Y-12848674D02*
X16734253Y-12858198D01*
X16734253Y-12858198D02*
X16743777Y-12877246D01*
X16743777Y-12877246D02*
X16743777Y-12934388D01*
X16743777Y-12934388D02*
X16734253Y-12953436D01*
X16734253Y-12953436D02*
X16724730Y-12962960D01*
X16724730Y-12962960D02*
X16705682Y-12972484D01*
X16705682Y-12972484D02*
X16677110Y-12972484D01*
X16858063Y-12972484D02*
X16839015Y-12962960D01*
X16839015Y-12962960D02*
X16829492Y-12943912D01*
X16829492Y-12943912D02*
X16829492Y-12772484D01*
X17010444Y-12962960D02*
X16991396Y-12972484D01*
X16991396Y-12972484D02*
X16953301Y-12972484D01*
X16953301Y-12972484D02*
X16934253Y-12962960D01*
X16934253Y-12962960D02*
X16924730Y-12943912D01*
X16924730Y-12943912D02*
X16924730Y-12867722D01*
X16924730Y-12867722D02*
X16934253Y-12848674D01*
X16934253Y-12848674D02*
X16953301Y-12839150D01*
X16953301Y-12839150D02*
X16991396Y-12839150D01*
X16991396Y-12839150D02*
X17010444Y-12848674D01*
X17010444Y-12848674D02*
X17019968Y-12867722D01*
X17019968Y-12867722D02*
X17019968Y-12886769D01*
X17019968Y-12886769D02*
X16924730Y-12905817D01*
X17096158Y-12962960D02*
X17115206Y-12972484D01*
X17115206Y-12972484D02*
X17153301Y-12972484D01*
X17153301Y-12972484D02*
X17172349Y-12962960D01*
X17172349Y-12962960D02*
X17181873Y-12943912D01*
X17181873Y-12943912D02*
X17181873Y-12934388D01*
X17181873Y-12934388D02*
X17172349Y-12915341D01*
X17172349Y-12915341D02*
X17153301Y-12905817D01*
X17153301Y-12905817D02*
X17124730Y-12905817D01*
X17124730Y-12905817D02*
X17105682Y-12896293D01*
X17105682Y-12896293D02*
X17096158Y-12877246D01*
X17096158Y-12877246D02*
X17096158Y-12867722D01*
X17096158Y-12867722D02*
X17105682Y-12848674D01*
X17105682Y-12848674D02*
X17124730Y-12839150D01*
X17124730Y-12839150D02*
X17153301Y-12839150D01*
X17153301Y-12839150D02*
X17172349Y-12848674D01*
X17248539Y-13048674D02*
X17258063Y-13039150D01*
X17258063Y-13039150D02*
X17277111Y-13010579D01*
X17277111Y-13010579D02*
X17286634Y-12991531D01*
X17286634Y-12991531D02*
X17296158Y-12962960D01*
X17296158Y-12962960D02*
X17305682Y-12915341D01*
X17305682Y-12915341D02*
X17305682Y-12877246D01*
X17305682Y-12877246D02*
X17296158Y-12829627D01*
X17296158Y-12829627D02*
X17286634Y-12801055D01*
X17286634Y-12801055D02*
X17277111Y-12782008D01*
X17277111Y-12782008D02*
X17258063Y-12753436D01*
X17258063Y-12753436D02*
X17248539Y-12743912D01*
D12*
X12283000Y-13145000D02*
G75*
G02*
X12233000Y-13145000I-25000J0D01*
G01*
X12233000Y-13145000D02*
G75*
G02*
X12283000Y-13145000I25000J0D01*
G01*
D11*
X12581872Y-13036484D02*
X12600920Y-13036484D01*
X12600920Y-13036484D02*
X12619967Y-13046008D01*
X12619967Y-13046008D02*
X12629491Y-13055531D01*
X12629491Y-13055531D02*
X12639015Y-13074579D01*
X12639015Y-13074579D02*
X12648539Y-13112674D01*
X12648539Y-13112674D02*
X12648539Y-13160293D01*
X12648539Y-13160293D02*
X12639015Y-13198388D01*
X12639015Y-13198388D02*
X12629491Y-13217436D01*
X12629491Y-13217436D02*
X12619967Y-13226960D01*
X12619967Y-13226960D02*
X12600920Y-13236484D01*
X12600920Y-13236484D02*
X12581872Y-13236484D01*
X12581872Y-13236484D02*
X12562824Y-13226960D01*
X12562824Y-13226960D02*
X12553301Y-13217436D01*
X12553301Y-13217436D02*
X12543777Y-13198388D01*
X12543777Y-13198388D02*
X12534253Y-13160293D01*
X12534253Y-13160293D02*
X12534253Y-13112674D01*
X12534253Y-13112674D02*
X12543777Y-13074579D01*
X12543777Y-13074579D02*
X12553301Y-13055531D01*
X12553301Y-13055531D02*
X12562824Y-13046008D01*
X12562824Y-13046008D02*
X12581872Y-13036484D01*
X12734253Y-13217436D02*
X12743777Y-13226960D01*
X12743777Y-13226960D02*
X12734253Y-13236484D01*
X12734253Y-13236484D02*
X12724729Y-13226960D01*
X12724729Y-13226960D02*
X12734253Y-13217436D01*
X12734253Y-13217436D02*
X12734253Y-13236484D01*
X12924729Y-13036484D02*
X12829491Y-13036484D01*
X12829491Y-13036484D02*
X12819967Y-13131722D01*
X12819967Y-13131722D02*
X12829491Y-13122198D01*
X12829491Y-13122198D02*
X12848539Y-13112674D01*
X12848539Y-13112674D02*
X12896158Y-13112674D01*
X12896158Y-13112674D02*
X12915205Y-13122198D01*
X12915205Y-13122198D02*
X12924729Y-13131722D01*
X12924729Y-13131722D02*
X12934253Y-13150769D01*
X12934253Y-13150769D02*
X12934253Y-13198388D01*
X12934253Y-13198388D02*
X12924729Y-13217436D01*
X12924729Y-13217436D02*
X12915205Y-13226960D01*
X12915205Y-13226960D02*
X12896158Y-13236484D01*
X12896158Y-13236484D02*
X12848539Y-13236484D01*
X12848539Y-13236484D02*
X12829491Y-13226960D01*
X12829491Y-13226960D02*
X12819967Y-13217436D01*
X13058062Y-13036484D02*
X13077110Y-13036484D01*
X13077110Y-13036484D02*
X13096158Y-13046008D01*
X13096158Y-13046008D02*
X13105682Y-13055531D01*
X13105682Y-13055531D02*
X13115205Y-13074579D01*
X13115205Y-13074579D02*
X13124729Y-13112674D01*
X13124729Y-13112674D02*
X13124729Y-13160293D01*
X13124729Y-13160293D02*
X13115205Y-13198388D01*
X13115205Y-13198388D02*
X13105682Y-13217436D01*
X13105682Y-13217436D02*
X13096158Y-13226960D01*
X13096158Y-13226960D02*
X13077110Y-13236484D01*
X13077110Y-13236484D02*
X13058062Y-13236484D01*
X13058062Y-13236484D02*
X13039015Y-13226960D01*
X13039015Y-13226960D02*
X13029491Y-13217436D01*
X13029491Y-13217436D02*
X13019967Y-13198388D01*
X13019967Y-13198388D02*
X13010443Y-13160293D01*
X13010443Y-13160293D02*
X13010443Y-13112674D01*
X13010443Y-13112674D02*
X13019967Y-13074579D01*
X13019967Y-13074579D02*
X13029491Y-13055531D01*
X13029491Y-13055531D02*
X13039015Y-13046008D01*
X13039015Y-13046008D02*
X13058062Y-13036484D01*
X13248539Y-13036484D02*
X13267586Y-13036484D01*
X13267586Y-13036484D02*
X13286634Y-13046008D01*
X13286634Y-13046008D02*
X13296158Y-13055531D01*
X13296158Y-13055531D02*
X13305682Y-13074579D01*
X13305682Y-13074579D02*
X13315205Y-13112674D01*
X13315205Y-13112674D02*
X13315205Y-13160293D01*
X13315205Y-13160293D02*
X13305682Y-13198388D01*
X13305682Y-13198388D02*
X13296158Y-13217436D01*
X13296158Y-13217436D02*
X13286634Y-13226960D01*
X13286634Y-13226960D02*
X13267586Y-13236484D01*
X13267586Y-13236484D02*
X13248539Y-13236484D01*
X13248539Y-13236484D02*
X13229491Y-13226960D01*
X13229491Y-13226960D02*
X13219967Y-13217436D01*
X13219967Y-13217436D02*
X13210443Y-13198388D01*
X13210443Y-13198388D02*
X13200920Y-13160293D01*
X13200920Y-13160293D02*
X13200920Y-13112674D01*
X13200920Y-13112674D02*
X13210443Y-13074579D01*
X13210443Y-13074579D02*
X13219967Y-13055531D01*
X13219967Y-13055531D02*
X13229491Y-13046008D01*
X13229491Y-13046008D02*
X13248539Y-13036484D01*
X13400920Y-13236484D02*
X13400920Y-13103150D01*
X13400920Y-13122198D02*
X13410443Y-13112674D01*
X13410443Y-13112674D02*
X13429491Y-13103150D01*
X13429491Y-13103150D02*
X13458063Y-13103150D01*
X13458063Y-13103150D02*
X13477110Y-13112674D01*
X13477110Y-13112674D02*
X13486634Y-13131722D01*
X13486634Y-13131722D02*
X13486634Y-13236484D01*
X13486634Y-13131722D02*
X13496158Y-13112674D01*
X13496158Y-13112674D02*
X13515205Y-13103150D01*
X13515205Y-13103150D02*
X13543777Y-13103150D01*
X13543777Y-13103150D02*
X13562824Y-13112674D01*
X13562824Y-13112674D02*
X13572348Y-13131722D01*
X13572348Y-13131722D02*
X13572348Y-13236484D01*
X13667586Y-13236484D02*
X13667586Y-13103150D01*
X13667586Y-13122198D02*
X13677110Y-13112674D01*
X13677110Y-13112674D02*
X13696158Y-13103150D01*
X13696158Y-13103150D02*
X13724729Y-13103150D01*
X13724729Y-13103150D02*
X13743777Y-13112674D01*
X13743777Y-13112674D02*
X13753301Y-13131722D01*
X13753301Y-13131722D02*
X13753301Y-13236484D01*
X13753301Y-13131722D02*
X13762824Y-13112674D01*
X13762824Y-13112674D02*
X13781872Y-13103150D01*
X13781872Y-13103150D02*
X13810443Y-13103150D01*
X13810443Y-13103150D02*
X13829491Y-13112674D01*
X13829491Y-13112674D02*
X13839015Y-13131722D01*
X13839015Y-13131722D02*
X13839015Y-13236484D01*
X14229491Y-13026960D02*
X14058063Y-13284103D01*
X14486634Y-13036484D02*
X14505682Y-13036484D01*
X14505682Y-13036484D02*
X14524729Y-13046008D01*
X14524729Y-13046008D02*
X14534253Y-13055531D01*
X14534253Y-13055531D02*
X14543777Y-13074579D01*
X14543777Y-13074579D02*
X14553301Y-13112674D01*
X14553301Y-13112674D02*
X14553301Y-13160293D01*
X14553301Y-13160293D02*
X14543777Y-13198388D01*
X14543777Y-13198388D02*
X14534253Y-13217436D01*
X14534253Y-13217436D02*
X14524729Y-13226960D01*
X14524729Y-13226960D02*
X14505682Y-13236484D01*
X14505682Y-13236484D02*
X14486634Y-13236484D01*
X14486634Y-13236484D02*
X14467586Y-13226960D01*
X14467586Y-13226960D02*
X14458063Y-13217436D01*
X14458063Y-13217436D02*
X14448539Y-13198388D01*
X14448539Y-13198388D02*
X14439015Y-13160293D01*
X14439015Y-13160293D02*
X14439015Y-13112674D01*
X14439015Y-13112674D02*
X14448539Y-13074579D01*
X14448539Y-13074579D02*
X14458063Y-13055531D01*
X14458063Y-13055531D02*
X14467586Y-13046008D01*
X14467586Y-13046008D02*
X14486634Y-13036484D01*
X14639015Y-13217436D02*
X14648539Y-13226960D01*
X14648539Y-13226960D02*
X14639015Y-13236484D01*
X14639015Y-13236484D02*
X14629491Y-13226960D01*
X14629491Y-13226960D02*
X14639015Y-13217436D01*
X14639015Y-13217436D02*
X14639015Y-13236484D01*
X14772348Y-13036484D02*
X14791396Y-13036484D01*
X14791396Y-13036484D02*
X14810444Y-13046008D01*
X14810444Y-13046008D02*
X14819967Y-13055531D01*
X14819967Y-13055531D02*
X14829491Y-13074579D01*
X14829491Y-13074579D02*
X14839015Y-13112674D01*
X14839015Y-13112674D02*
X14839015Y-13160293D01*
X14839015Y-13160293D02*
X14829491Y-13198388D01*
X14829491Y-13198388D02*
X14819967Y-13217436D01*
X14819967Y-13217436D02*
X14810444Y-13226960D01*
X14810444Y-13226960D02*
X14791396Y-13236484D01*
X14791396Y-13236484D02*
X14772348Y-13236484D01*
X14772348Y-13236484D02*
X14753301Y-13226960D01*
X14753301Y-13226960D02*
X14743777Y-13217436D01*
X14743777Y-13217436D02*
X14734253Y-13198388D01*
X14734253Y-13198388D02*
X14724729Y-13160293D01*
X14724729Y-13160293D02*
X14724729Y-13112674D01*
X14724729Y-13112674D02*
X14734253Y-13074579D01*
X14734253Y-13074579D02*
X14743777Y-13055531D01*
X14743777Y-13055531D02*
X14753301Y-13046008D01*
X14753301Y-13046008D02*
X14772348Y-13036484D01*
X15029491Y-13236484D02*
X14915206Y-13236484D01*
X14972348Y-13236484D02*
X14972348Y-13036484D01*
X14972348Y-13036484D02*
X14953301Y-13065055D01*
X14953301Y-13065055D02*
X14934253Y-13084103D01*
X14934253Y-13084103D02*
X14915206Y-13093627D01*
X15124729Y-13236484D02*
X15162825Y-13236484D01*
X15162825Y-13236484D02*
X15181872Y-13226960D01*
X15181872Y-13226960D02*
X15191396Y-13217436D01*
X15191396Y-13217436D02*
X15210444Y-13188865D01*
X15210444Y-13188865D02*
X15219967Y-13150769D01*
X15219967Y-13150769D02*
X15219967Y-13074579D01*
X15219967Y-13074579D02*
X15210444Y-13055531D01*
X15210444Y-13055531D02*
X15200920Y-13046008D01*
X15200920Y-13046008D02*
X15181872Y-13036484D01*
X15181872Y-13036484D02*
X15143777Y-13036484D01*
X15143777Y-13036484D02*
X15124729Y-13046008D01*
X15124729Y-13046008D02*
X15115206Y-13055531D01*
X15115206Y-13055531D02*
X15105682Y-13074579D01*
X15105682Y-13074579D02*
X15105682Y-13122198D01*
X15105682Y-13122198D02*
X15115206Y-13141246D01*
X15115206Y-13141246D02*
X15124729Y-13150769D01*
X15124729Y-13150769D02*
X15143777Y-13160293D01*
X15143777Y-13160293D02*
X15181872Y-13160293D01*
X15181872Y-13160293D02*
X15200920Y-13150769D01*
X15200920Y-13150769D02*
X15210444Y-13141246D01*
X15210444Y-13141246D02*
X15219967Y-13122198D01*
X15286634Y-13036484D02*
X15419967Y-13036484D01*
X15419967Y-13036484D02*
X15334253Y-13236484D01*
X15486634Y-13036484D02*
X15486634Y-13074579D01*
X15562825Y-13036484D02*
X15562825Y-13074579D01*
X15858063Y-13312674D02*
X15848539Y-13303150D01*
X15848539Y-13303150D02*
X15829491Y-13274579D01*
X15829491Y-13274579D02*
X15819968Y-13255531D01*
X15819968Y-13255531D02*
X15810444Y-13226960D01*
X15810444Y-13226960D02*
X15800920Y-13179341D01*
X15800920Y-13179341D02*
X15800920Y-13141246D01*
X15800920Y-13141246D02*
X15810444Y-13093627D01*
X15810444Y-13093627D02*
X15819968Y-13065055D01*
X15819968Y-13065055D02*
X15829491Y-13046008D01*
X15829491Y-13046008D02*
X15848539Y-13017436D01*
X15848539Y-13017436D02*
X15858063Y-13007912D01*
X15924729Y-13055531D02*
X15934253Y-13046008D01*
X15934253Y-13046008D02*
X15953301Y-13036484D01*
X15953301Y-13036484D02*
X16000920Y-13036484D01*
X16000920Y-13036484D02*
X16019968Y-13046008D01*
X16019968Y-13046008D02*
X16029491Y-13055531D01*
X16029491Y-13055531D02*
X16039015Y-13074579D01*
X16039015Y-13074579D02*
X16039015Y-13093627D01*
X16039015Y-13093627D02*
X16029491Y-13122198D01*
X16029491Y-13122198D02*
X15915206Y-13236484D01*
X15915206Y-13236484D02*
X16039015Y-13236484D01*
X16277110Y-13236484D02*
X16277110Y-13036484D01*
X16362825Y-13236484D02*
X16362825Y-13131722D01*
X16362825Y-13131722D02*
X16353301Y-13112674D01*
X16353301Y-13112674D02*
X16334253Y-13103150D01*
X16334253Y-13103150D02*
X16305682Y-13103150D01*
X16305682Y-13103150D02*
X16286634Y-13112674D01*
X16286634Y-13112674D02*
X16277110Y-13122198D01*
X16486634Y-13236484D02*
X16467587Y-13226960D01*
X16467587Y-13226960D02*
X16458063Y-13217436D01*
X16458063Y-13217436D02*
X16448539Y-13198388D01*
X16448539Y-13198388D02*
X16448539Y-13141246D01*
X16448539Y-13141246D02*
X16458063Y-13122198D01*
X16458063Y-13122198D02*
X16467587Y-13112674D01*
X16467587Y-13112674D02*
X16486634Y-13103150D01*
X16486634Y-13103150D02*
X16515206Y-13103150D01*
X16515206Y-13103150D02*
X16534253Y-13112674D01*
X16534253Y-13112674D02*
X16543777Y-13122198D01*
X16543777Y-13122198D02*
X16553301Y-13141246D01*
X16553301Y-13141246D02*
X16553301Y-13198388D01*
X16553301Y-13198388D02*
X16543777Y-13217436D01*
X16543777Y-13217436D02*
X16534253Y-13226960D01*
X16534253Y-13226960D02*
X16515206Y-13236484D01*
X16515206Y-13236484D02*
X16486634Y-13236484D01*
X16667587Y-13236484D02*
X16648539Y-13226960D01*
X16648539Y-13226960D02*
X16639015Y-13207912D01*
X16639015Y-13207912D02*
X16639015Y-13036484D01*
X16819968Y-13226960D02*
X16800920Y-13236484D01*
X16800920Y-13236484D02*
X16762825Y-13236484D01*
X16762825Y-13236484D02*
X16743777Y-13226960D01*
X16743777Y-13226960D02*
X16734253Y-13207912D01*
X16734253Y-13207912D02*
X16734253Y-13131722D01*
X16734253Y-13131722D02*
X16743777Y-13112674D01*
X16743777Y-13112674D02*
X16762825Y-13103150D01*
X16762825Y-13103150D02*
X16800920Y-13103150D01*
X16800920Y-13103150D02*
X16819968Y-13112674D01*
X16819968Y-13112674D02*
X16829492Y-13131722D01*
X16829492Y-13131722D02*
X16829492Y-13150769D01*
X16829492Y-13150769D02*
X16734253Y-13169817D01*
X16905682Y-13226960D02*
X16924730Y-13236484D01*
X16924730Y-13236484D02*
X16962825Y-13236484D01*
X16962825Y-13236484D02*
X16981873Y-13226960D01*
X16981873Y-13226960D02*
X16991396Y-13207912D01*
X16991396Y-13207912D02*
X16991396Y-13198388D01*
X16991396Y-13198388D02*
X16981873Y-13179341D01*
X16981873Y-13179341D02*
X16962825Y-13169817D01*
X16962825Y-13169817D02*
X16934253Y-13169817D01*
X16934253Y-13169817D02*
X16915206Y-13160293D01*
X16915206Y-13160293D02*
X16905682Y-13141246D01*
X16905682Y-13141246D02*
X16905682Y-13131722D01*
X16905682Y-13131722D02*
X16915206Y-13112674D01*
X16915206Y-13112674D02*
X16934253Y-13103150D01*
X16934253Y-13103150D02*
X16962825Y-13103150D01*
X16962825Y-13103150D02*
X16981873Y-13112674D01*
X17058063Y-13312674D02*
X17067587Y-13303150D01*
X17067587Y-13303150D02*
X17086634Y-13274579D01*
X17086634Y-13274579D02*
X17096158Y-13255531D01*
X17096158Y-13255531D02*
X17105682Y-13226960D01*
X17105682Y-13226960D02*
X17115206Y-13179341D01*
X17115206Y-13179341D02*
X17115206Y-13141246D01*
X17115206Y-13141246D02*
X17105682Y-13093627D01*
X17105682Y-13093627D02*
X17096158Y-13065055D01*
X17096158Y-13065055D02*
X17086634Y-13046008D01*
X17086634Y-13046008D02*
X17067587Y-13017436D01*
X17067587Y-13017436D02*
X17058063Y-13007912D01*
D12*
X12245500Y-13371500D02*
X12245500Y-13446500D01*
X12208000Y-13409000D02*
X12283000Y-13409000D01*
D11*
X12581872Y-13300484D02*
X12600920Y-13300484D01*
X12600920Y-13300484D02*
X12619967Y-13310008D01*
X12619967Y-13310008D02*
X12629491Y-13319531D01*
X12629491Y-13319531D02*
X12639015Y-13338579D01*
X12639015Y-13338579D02*
X12648539Y-13376674D01*
X12648539Y-13376674D02*
X12648539Y-13424293D01*
X12648539Y-13424293D02*
X12639015Y-13462388D01*
X12639015Y-13462388D02*
X12629491Y-13481436D01*
X12629491Y-13481436D02*
X12619967Y-13490960D01*
X12619967Y-13490960D02*
X12600920Y-13500484D01*
X12600920Y-13500484D02*
X12581872Y-13500484D01*
X12581872Y-13500484D02*
X12562824Y-13490960D01*
X12562824Y-13490960D02*
X12553301Y-13481436D01*
X12553301Y-13481436D02*
X12543777Y-13462388D01*
X12543777Y-13462388D02*
X12534253Y-13424293D01*
X12534253Y-13424293D02*
X12534253Y-13376674D01*
X12534253Y-13376674D02*
X12543777Y-13338579D01*
X12543777Y-13338579D02*
X12553301Y-13319531D01*
X12553301Y-13319531D02*
X12562824Y-13310008D01*
X12562824Y-13310008D02*
X12581872Y-13300484D01*
X12734253Y-13481436D02*
X12743777Y-13490960D01*
X12743777Y-13490960D02*
X12734253Y-13500484D01*
X12734253Y-13500484D02*
X12724729Y-13490960D01*
X12724729Y-13490960D02*
X12734253Y-13481436D01*
X12734253Y-13481436D02*
X12734253Y-13500484D01*
X12810443Y-13300484D02*
X12943777Y-13300484D01*
X12943777Y-13300484D02*
X12858062Y-13500484D01*
X13115205Y-13300484D02*
X13019967Y-13300484D01*
X13019967Y-13300484D02*
X13010443Y-13395722D01*
X13010443Y-13395722D02*
X13019967Y-13386198D01*
X13019967Y-13386198D02*
X13039015Y-13376674D01*
X13039015Y-13376674D02*
X13086634Y-13376674D01*
X13086634Y-13376674D02*
X13105682Y-13386198D01*
X13105682Y-13386198D02*
X13115205Y-13395722D01*
X13115205Y-13395722D02*
X13124729Y-13414769D01*
X13124729Y-13414769D02*
X13124729Y-13462388D01*
X13124729Y-13462388D02*
X13115205Y-13481436D01*
X13115205Y-13481436D02*
X13105682Y-13490960D01*
X13105682Y-13490960D02*
X13086634Y-13500484D01*
X13086634Y-13500484D02*
X13039015Y-13500484D01*
X13039015Y-13500484D02*
X13019967Y-13490960D01*
X13019967Y-13490960D02*
X13010443Y-13481436D01*
X13248539Y-13300484D02*
X13267586Y-13300484D01*
X13267586Y-13300484D02*
X13286634Y-13310008D01*
X13286634Y-13310008D02*
X13296158Y-13319531D01*
X13296158Y-13319531D02*
X13305682Y-13338579D01*
X13305682Y-13338579D02*
X13315205Y-13376674D01*
X13315205Y-13376674D02*
X13315205Y-13424293D01*
X13315205Y-13424293D02*
X13305682Y-13462388D01*
X13305682Y-13462388D02*
X13296158Y-13481436D01*
X13296158Y-13481436D02*
X13286634Y-13490960D01*
X13286634Y-13490960D02*
X13267586Y-13500484D01*
X13267586Y-13500484D02*
X13248539Y-13500484D01*
X13248539Y-13500484D02*
X13229491Y-13490960D01*
X13229491Y-13490960D02*
X13219967Y-13481436D01*
X13219967Y-13481436D02*
X13210443Y-13462388D01*
X13210443Y-13462388D02*
X13200920Y-13424293D01*
X13200920Y-13424293D02*
X13200920Y-13376674D01*
X13200920Y-13376674D02*
X13210443Y-13338579D01*
X13210443Y-13338579D02*
X13219967Y-13319531D01*
X13219967Y-13319531D02*
X13229491Y-13310008D01*
X13229491Y-13310008D02*
X13248539Y-13300484D01*
X13400920Y-13500484D02*
X13400920Y-13367150D01*
X13400920Y-13386198D02*
X13410443Y-13376674D01*
X13410443Y-13376674D02*
X13429491Y-13367150D01*
X13429491Y-13367150D02*
X13458063Y-13367150D01*
X13458063Y-13367150D02*
X13477110Y-13376674D01*
X13477110Y-13376674D02*
X13486634Y-13395722D01*
X13486634Y-13395722D02*
X13486634Y-13500484D01*
X13486634Y-13395722D02*
X13496158Y-13376674D01*
X13496158Y-13376674D02*
X13515205Y-13367150D01*
X13515205Y-13367150D02*
X13543777Y-13367150D01*
X13543777Y-13367150D02*
X13562824Y-13376674D01*
X13562824Y-13376674D02*
X13572348Y-13395722D01*
X13572348Y-13395722D02*
X13572348Y-13500484D01*
X13667586Y-13500484D02*
X13667586Y-13367150D01*
X13667586Y-13386198D02*
X13677110Y-13376674D01*
X13677110Y-13376674D02*
X13696158Y-13367150D01*
X13696158Y-13367150D02*
X13724729Y-13367150D01*
X13724729Y-13367150D02*
X13743777Y-13376674D01*
X13743777Y-13376674D02*
X13753301Y-13395722D01*
X13753301Y-13395722D02*
X13753301Y-13500484D01*
X13753301Y-13395722D02*
X13762824Y-13376674D01*
X13762824Y-13376674D02*
X13781872Y-13367150D01*
X13781872Y-13367150D02*
X13810443Y-13367150D01*
X13810443Y-13367150D02*
X13829491Y-13376674D01*
X13829491Y-13376674D02*
X13839015Y-13395722D01*
X13839015Y-13395722D02*
X13839015Y-13500484D01*
X14229491Y-13290960D02*
X14058063Y-13548103D01*
X14486634Y-13300484D02*
X14505682Y-13300484D01*
X14505682Y-13300484D02*
X14524729Y-13310008D01*
X14524729Y-13310008D02*
X14534253Y-13319531D01*
X14534253Y-13319531D02*
X14543777Y-13338579D01*
X14543777Y-13338579D02*
X14553301Y-13376674D01*
X14553301Y-13376674D02*
X14553301Y-13424293D01*
X14553301Y-13424293D02*
X14543777Y-13462388D01*
X14543777Y-13462388D02*
X14534253Y-13481436D01*
X14534253Y-13481436D02*
X14524729Y-13490960D01*
X14524729Y-13490960D02*
X14505682Y-13500484D01*
X14505682Y-13500484D02*
X14486634Y-13500484D01*
X14486634Y-13500484D02*
X14467586Y-13490960D01*
X14467586Y-13490960D02*
X14458063Y-13481436D01*
X14458063Y-13481436D02*
X14448539Y-13462388D01*
X14448539Y-13462388D02*
X14439015Y-13424293D01*
X14439015Y-13424293D02*
X14439015Y-13376674D01*
X14439015Y-13376674D02*
X14448539Y-13338579D01*
X14448539Y-13338579D02*
X14458063Y-13319531D01*
X14458063Y-13319531D02*
X14467586Y-13310008D01*
X14467586Y-13310008D02*
X14486634Y-13300484D01*
X14639015Y-13481436D02*
X14648539Y-13490960D01*
X14648539Y-13490960D02*
X14639015Y-13500484D01*
X14639015Y-13500484D02*
X14629491Y-13490960D01*
X14629491Y-13490960D02*
X14639015Y-13481436D01*
X14639015Y-13481436D02*
X14639015Y-13500484D01*
X14772348Y-13300484D02*
X14791396Y-13300484D01*
X14791396Y-13300484D02*
X14810444Y-13310008D01*
X14810444Y-13310008D02*
X14819967Y-13319531D01*
X14819967Y-13319531D02*
X14829491Y-13338579D01*
X14829491Y-13338579D02*
X14839015Y-13376674D01*
X14839015Y-13376674D02*
X14839015Y-13424293D01*
X14839015Y-13424293D02*
X14829491Y-13462388D01*
X14829491Y-13462388D02*
X14819967Y-13481436D01*
X14819967Y-13481436D02*
X14810444Y-13490960D01*
X14810444Y-13490960D02*
X14791396Y-13500484D01*
X14791396Y-13500484D02*
X14772348Y-13500484D01*
X14772348Y-13500484D02*
X14753301Y-13490960D01*
X14753301Y-13490960D02*
X14743777Y-13481436D01*
X14743777Y-13481436D02*
X14734253Y-13462388D01*
X14734253Y-13462388D02*
X14724729Y-13424293D01*
X14724729Y-13424293D02*
X14724729Y-13376674D01*
X14724729Y-13376674D02*
X14734253Y-13338579D01*
X14734253Y-13338579D02*
X14743777Y-13319531D01*
X14743777Y-13319531D02*
X14753301Y-13310008D01*
X14753301Y-13310008D02*
X14772348Y-13300484D01*
X14915206Y-13319531D02*
X14924729Y-13310008D01*
X14924729Y-13310008D02*
X14943777Y-13300484D01*
X14943777Y-13300484D02*
X14991396Y-13300484D01*
X14991396Y-13300484D02*
X15010444Y-13310008D01*
X15010444Y-13310008D02*
X15019967Y-13319531D01*
X15019967Y-13319531D02*
X15029491Y-13338579D01*
X15029491Y-13338579D02*
X15029491Y-13357627D01*
X15029491Y-13357627D02*
X15019967Y-13386198D01*
X15019967Y-13386198D02*
X14905682Y-13500484D01*
X14905682Y-13500484D02*
X15029491Y-13500484D01*
X15124729Y-13500484D02*
X15162825Y-13500484D01*
X15162825Y-13500484D02*
X15181872Y-13490960D01*
X15181872Y-13490960D02*
X15191396Y-13481436D01*
X15191396Y-13481436D02*
X15210444Y-13452865D01*
X15210444Y-13452865D02*
X15219967Y-13414769D01*
X15219967Y-13414769D02*
X15219967Y-13338579D01*
X15219967Y-13338579D02*
X15210444Y-13319531D01*
X15210444Y-13319531D02*
X15200920Y-13310008D01*
X15200920Y-13310008D02*
X15181872Y-13300484D01*
X15181872Y-13300484D02*
X15143777Y-13300484D01*
X15143777Y-13300484D02*
X15124729Y-13310008D01*
X15124729Y-13310008D02*
X15115206Y-13319531D01*
X15115206Y-13319531D02*
X15105682Y-13338579D01*
X15105682Y-13338579D02*
X15105682Y-13386198D01*
X15105682Y-13386198D02*
X15115206Y-13405246D01*
X15115206Y-13405246D02*
X15124729Y-13414769D01*
X15124729Y-13414769D02*
X15143777Y-13424293D01*
X15143777Y-13424293D02*
X15181872Y-13424293D01*
X15181872Y-13424293D02*
X15200920Y-13414769D01*
X15200920Y-13414769D02*
X15210444Y-13405246D01*
X15210444Y-13405246D02*
X15219967Y-13386198D01*
X15400920Y-13300484D02*
X15305682Y-13300484D01*
X15305682Y-13300484D02*
X15296158Y-13395722D01*
X15296158Y-13395722D02*
X15305682Y-13386198D01*
X15305682Y-13386198D02*
X15324729Y-13376674D01*
X15324729Y-13376674D02*
X15372348Y-13376674D01*
X15372348Y-13376674D02*
X15391396Y-13386198D01*
X15391396Y-13386198D02*
X15400920Y-13395722D01*
X15400920Y-13395722D02*
X15410444Y-13414769D01*
X15410444Y-13414769D02*
X15410444Y-13462388D01*
X15410444Y-13462388D02*
X15400920Y-13481436D01*
X15400920Y-13481436D02*
X15391396Y-13490960D01*
X15391396Y-13490960D02*
X15372348Y-13500484D01*
X15372348Y-13500484D02*
X15324729Y-13500484D01*
X15324729Y-13500484D02*
X15305682Y-13490960D01*
X15305682Y-13490960D02*
X15296158Y-13481436D01*
X15486634Y-13300484D02*
X15486634Y-13338579D01*
X15562825Y-13300484D02*
X15562825Y-13338579D01*
X15858063Y-13576674D02*
X15848539Y-13567150D01*
X15848539Y-13567150D02*
X15829491Y-13538579D01*
X15829491Y-13538579D02*
X15819968Y-13519531D01*
X15819968Y-13519531D02*
X15810444Y-13490960D01*
X15810444Y-13490960D02*
X15800920Y-13443341D01*
X15800920Y-13443341D02*
X15800920Y-13405246D01*
X15800920Y-13405246D02*
X15810444Y-13357627D01*
X15810444Y-13357627D02*
X15819968Y-13329055D01*
X15819968Y-13329055D02*
X15829491Y-13310008D01*
X15829491Y-13310008D02*
X15848539Y-13281436D01*
X15848539Y-13281436D02*
X15858063Y-13271912D01*
X15924729Y-13319531D02*
X15934253Y-13310008D01*
X15934253Y-13310008D02*
X15953301Y-13300484D01*
X15953301Y-13300484D02*
X16000920Y-13300484D01*
X16000920Y-13300484D02*
X16019968Y-13310008D01*
X16019968Y-13310008D02*
X16029491Y-13319531D01*
X16029491Y-13319531D02*
X16039015Y-13338579D01*
X16039015Y-13338579D02*
X16039015Y-13357627D01*
X16039015Y-13357627D02*
X16029491Y-13386198D01*
X16029491Y-13386198D02*
X15915206Y-13500484D01*
X15915206Y-13500484D02*
X16039015Y-13500484D01*
X16277110Y-13500484D02*
X16277110Y-13300484D01*
X16362825Y-13500484D02*
X16362825Y-13395722D01*
X16362825Y-13395722D02*
X16353301Y-13376674D01*
X16353301Y-13376674D02*
X16334253Y-13367150D01*
X16334253Y-13367150D02*
X16305682Y-13367150D01*
X16305682Y-13367150D02*
X16286634Y-13376674D01*
X16286634Y-13376674D02*
X16277110Y-13386198D01*
X16486634Y-13500484D02*
X16467587Y-13490960D01*
X16467587Y-13490960D02*
X16458063Y-13481436D01*
X16458063Y-13481436D02*
X16448539Y-13462388D01*
X16448539Y-13462388D02*
X16448539Y-13405246D01*
X16448539Y-13405246D02*
X16458063Y-13386198D01*
X16458063Y-13386198D02*
X16467587Y-13376674D01*
X16467587Y-13376674D02*
X16486634Y-13367150D01*
X16486634Y-13367150D02*
X16515206Y-13367150D01*
X16515206Y-13367150D02*
X16534253Y-13376674D01*
X16534253Y-13376674D02*
X16543777Y-13386198D01*
X16543777Y-13386198D02*
X16553301Y-13405246D01*
X16553301Y-13405246D02*
X16553301Y-13462388D01*
X16553301Y-13462388D02*
X16543777Y-13481436D01*
X16543777Y-13481436D02*
X16534253Y-13490960D01*
X16534253Y-13490960D02*
X16515206Y-13500484D01*
X16515206Y-13500484D02*
X16486634Y-13500484D01*
X16667587Y-13500484D02*
X16648539Y-13490960D01*
X16648539Y-13490960D02*
X16639015Y-13471912D01*
X16639015Y-13471912D02*
X16639015Y-13300484D01*
X16819968Y-13490960D02*
X16800920Y-13500484D01*
X16800920Y-13500484D02*
X16762825Y-13500484D01*
X16762825Y-13500484D02*
X16743777Y-13490960D01*
X16743777Y-13490960D02*
X16734253Y-13471912D01*
X16734253Y-13471912D02*
X16734253Y-13395722D01*
X16734253Y-13395722D02*
X16743777Y-13376674D01*
X16743777Y-13376674D02*
X16762825Y-13367150D01*
X16762825Y-13367150D02*
X16800920Y-13367150D01*
X16800920Y-13367150D02*
X16819968Y-13376674D01*
X16819968Y-13376674D02*
X16829492Y-13395722D01*
X16829492Y-13395722D02*
X16829492Y-13414769D01*
X16829492Y-13414769D02*
X16734253Y-13433817D01*
X16905682Y-13490960D02*
X16924730Y-13500484D01*
X16924730Y-13500484D02*
X16962825Y-13500484D01*
X16962825Y-13500484D02*
X16981873Y-13490960D01*
X16981873Y-13490960D02*
X16991396Y-13471912D01*
X16991396Y-13471912D02*
X16991396Y-13462388D01*
X16991396Y-13462388D02*
X16981873Y-13443341D01*
X16981873Y-13443341D02*
X16962825Y-13433817D01*
X16962825Y-13433817D02*
X16934253Y-13433817D01*
X16934253Y-13433817D02*
X16915206Y-13424293D01*
X16915206Y-13424293D02*
X16905682Y-13405246D01*
X16905682Y-13405246D02*
X16905682Y-13395722D01*
X16905682Y-13395722D02*
X16915206Y-13376674D01*
X16915206Y-13376674D02*
X16934253Y-13367150D01*
X16934253Y-13367150D02*
X16962825Y-13367150D01*
X16962825Y-13367150D02*
X16981873Y-13376674D01*
X17058063Y-13576674D02*
X17067587Y-13567150D01*
X17067587Y-13567150D02*
X17086634Y-13538579D01*
X17086634Y-13538579D02*
X17096158Y-13519531D01*
X17096158Y-13519531D02*
X17105682Y-13490960D01*
X17105682Y-13490960D02*
X17115206Y-13443341D01*
X17115206Y-13443341D02*
X17115206Y-13405246D01*
X17115206Y-13405246D02*
X17105682Y-13357627D01*
X17105682Y-13357627D02*
X17096158Y-13329055D01*
X17096158Y-13329055D02*
X17086634Y-13310008D01*
X17086634Y-13310008D02*
X17067587Y-13281436D01*
X17067587Y-13281436D02*
X17058063Y-13271912D01*
D12*
X12271284Y-13701284D02*
X12271284Y-13644715D01*
X12214715Y-13644715D01*
X12214715Y-13701284D01*
X12271284Y-13701284D01*
D11*
X12581872Y-13564484D02*
X12600920Y-13564484D01*
X12600920Y-13564484D02*
X12619967Y-13574008D01*
X12619967Y-13574008D02*
X12629491Y-13583531D01*
X12629491Y-13583531D02*
X12639015Y-13602579D01*
X12639015Y-13602579D02*
X12648539Y-13640674D01*
X12648539Y-13640674D02*
X12648539Y-13688293D01*
X12648539Y-13688293D02*
X12639015Y-13726388D01*
X12639015Y-13726388D02*
X12629491Y-13745436D01*
X12629491Y-13745436D02*
X12619967Y-13754960D01*
X12619967Y-13754960D02*
X12600920Y-13764484D01*
X12600920Y-13764484D02*
X12581872Y-13764484D01*
X12581872Y-13764484D02*
X12562824Y-13754960D01*
X12562824Y-13754960D02*
X12553301Y-13745436D01*
X12553301Y-13745436D02*
X12543777Y-13726388D01*
X12543777Y-13726388D02*
X12534253Y-13688293D01*
X12534253Y-13688293D02*
X12534253Y-13640674D01*
X12534253Y-13640674D02*
X12543777Y-13602579D01*
X12543777Y-13602579D02*
X12553301Y-13583531D01*
X12553301Y-13583531D02*
X12562824Y-13574008D01*
X12562824Y-13574008D02*
X12581872Y-13564484D01*
X12734253Y-13745436D02*
X12743777Y-13754960D01*
X12743777Y-13754960D02*
X12734253Y-13764484D01*
X12734253Y-13764484D02*
X12724729Y-13754960D01*
X12724729Y-13754960D02*
X12734253Y-13745436D01*
X12734253Y-13745436D02*
X12734253Y-13764484D01*
X12858062Y-13650198D02*
X12839015Y-13640674D01*
X12839015Y-13640674D02*
X12829491Y-13631150D01*
X12829491Y-13631150D02*
X12819967Y-13612103D01*
X12819967Y-13612103D02*
X12819967Y-13602579D01*
X12819967Y-13602579D02*
X12829491Y-13583531D01*
X12829491Y-13583531D02*
X12839015Y-13574008D01*
X12839015Y-13574008D02*
X12858062Y-13564484D01*
X12858062Y-13564484D02*
X12896158Y-13564484D01*
X12896158Y-13564484D02*
X12915205Y-13574008D01*
X12915205Y-13574008D02*
X12924729Y-13583531D01*
X12924729Y-13583531D02*
X12934253Y-13602579D01*
X12934253Y-13602579D02*
X12934253Y-13612103D01*
X12934253Y-13612103D02*
X12924729Y-13631150D01*
X12924729Y-13631150D02*
X12915205Y-13640674D01*
X12915205Y-13640674D02*
X12896158Y-13650198D01*
X12896158Y-13650198D02*
X12858062Y-13650198D01*
X12858062Y-13650198D02*
X12839015Y-13659722D01*
X12839015Y-13659722D02*
X12829491Y-13669246D01*
X12829491Y-13669246D02*
X12819967Y-13688293D01*
X12819967Y-13688293D02*
X12819967Y-13726388D01*
X12819967Y-13726388D02*
X12829491Y-13745436D01*
X12829491Y-13745436D02*
X12839015Y-13754960D01*
X12839015Y-13754960D02*
X12858062Y-13764484D01*
X12858062Y-13764484D02*
X12896158Y-13764484D01*
X12896158Y-13764484D02*
X12915205Y-13754960D01*
X12915205Y-13754960D02*
X12924729Y-13745436D01*
X12924729Y-13745436D02*
X12934253Y-13726388D01*
X12934253Y-13726388D02*
X12934253Y-13688293D01*
X12934253Y-13688293D02*
X12924729Y-13669246D01*
X12924729Y-13669246D02*
X12915205Y-13659722D01*
X12915205Y-13659722D02*
X12896158Y-13650198D01*
X13058062Y-13564484D02*
X13077110Y-13564484D01*
X13077110Y-13564484D02*
X13096158Y-13574008D01*
X13096158Y-13574008D02*
X13105682Y-13583531D01*
X13105682Y-13583531D02*
X13115205Y-13602579D01*
X13115205Y-13602579D02*
X13124729Y-13640674D01*
X13124729Y-13640674D02*
X13124729Y-13688293D01*
X13124729Y-13688293D02*
X13115205Y-13726388D01*
X13115205Y-13726388D02*
X13105682Y-13745436D01*
X13105682Y-13745436D02*
X13096158Y-13754960D01*
X13096158Y-13754960D02*
X13077110Y-13764484D01*
X13077110Y-13764484D02*
X13058062Y-13764484D01*
X13058062Y-13764484D02*
X13039015Y-13754960D01*
X13039015Y-13754960D02*
X13029491Y-13745436D01*
X13029491Y-13745436D02*
X13019967Y-13726388D01*
X13019967Y-13726388D02*
X13010443Y-13688293D01*
X13010443Y-13688293D02*
X13010443Y-13640674D01*
X13010443Y-13640674D02*
X13019967Y-13602579D01*
X13019967Y-13602579D02*
X13029491Y-13583531D01*
X13029491Y-13583531D02*
X13039015Y-13574008D01*
X13039015Y-13574008D02*
X13058062Y-13564484D01*
X13248539Y-13564484D02*
X13267586Y-13564484D01*
X13267586Y-13564484D02*
X13286634Y-13574008D01*
X13286634Y-13574008D02*
X13296158Y-13583531D01*
X13296158Y-13583531D02*
X13305682Y-13602579D01*
X13305682Y-13602579D02*
X13315205Y-13640674D01*
X13315205Y-13640674D02*
X13315205Y-13688293D01*
X13315205Y-13688293D02*
X13305682Y-13726388D01*
X13305682Y-13726388D02*
X13296158Y-13745436D01*
X13296158Y-13745436D02*
X13286634Y-13754960D01*
X13286634Y-13754960D02*
X13267586Y-13764484D01*
X13267586Y-13764484D02*
X13248539Y-13764484D01*
X13248539Y-13764484D02*
X13229491Y-13754960D01*
X13229491Y-13754960D02*
X13219967Y-13745436D01*
X13219967Y-13745436D02*
X13210443Y-13726388D01*
X13210443Y-13726388D02*
X13200920Y-13688293D01*
X13200920Y-13688293D02*
X13200920Y-13640674D01*
X13200920Y-13640674D02*
X13210443Y-13602579D01*
X13210443Y-13602579D02*
X13219967Y-13583531D01*
X13219967Y-13583531D02*
X13229491Y-13574008D01*
X13229491Y-13574008D02*
X13248539Y-13564484D01*
X13400920Y-13764484D02*
X13400920Y-13631150D01*
X13400920Y-13650198D02*
X13410443Y-13640674D01*
X13410443Y-13640674D02*
X13429491Y-13631150D01*
X13429491Y-13631150D02*
X13458063Y-13631150D01*
X13458063Y-13631150D02*
X13477110Y-13640674D01*
X13477110Y-13640674D02*
X13486634Y-13659722D01*
X13486634Y-13659722D02*
X13486634Y-13764484D01*
X13486634Y-13659722D02*
X13496158Y-13640674D01*
X13496158Y-13640674D02*
X13515205Y-13631150D01*
X13515205Y-13631150D02*
X13543777Y-13631150D01*
X13543777Y-13631150D02*
X13562824Y-13640674D01*
X13562824Y-13640674D02*
X13572348Y-13659722D01*
X13572348Y-13659722D02*
X13572348Y-13764484D01*
X13667586Y-13764484D02*
X13667586Y-13631150D01*
X13667586Y-13650198D02*
X13677110Y-13640674D01*
X13677110Y-13640674D02*
X13696158Y-13631150D01*
X13696158Y-13631150D02*
X13724729Y-13631150D01*
X13724729Y-13631150D02*
X13743777Y-13640674D01*
X13743777Y-13640674D02*
X13753301Y-13659722D01*
X13753301Y-13659722D02*
X13753301Y-13764484D01*
X13753301Y-13659722D02*
X13762824Y-13640674D01*
X13762824Y-13640674D02*
X13781872Y-13631150D01*
X13781872Y-13631150D02*
X13810443Y-13631150D01*
X13810443Y-13631150D02*
X13829491Y-13640674D01*
X13829491Y-13640674D02*
X13839015Y-13659722D01*
X13839015Y-13659722D02*
X13839015Y-13764484D01*
X14229491Y-13554960D02*
X14058063Y-13812103D01*
X14486634Y-13564484D02*
X14505682Y-13564484D01*
X14505682Y-13564484D02*
X14524729Y-13574008D01*
X14524729Y-13574008D02*
X14534253Y-13583531D01*
X14534253Y-13583531D02*
X14543777Y-13602579D01*
X14543777Y-13602579D02*
X14553301Y-13640674D01*
X14553301Y-13640674D02*
X14553301Y-13688293D01*
X14553301Y-13688293D02*
X14543777Y-13726388D01*
X14543777Y-13726388D02*
X14534253Y-13745436D01*
X14534253Y-13745436D02*
X14524729Y-13754960D01*
X14524729Y-13754960D02*
X14505682Y-13764484D01*
X14505682Y-13764484D02*
X14486634Y-13764484D01*
X14486634Y-13764484D02*
X14467586Y-13754960D01*
X14467586Y-13754960D02*
X14458063Y-13745436D01*
X14458063Y-13745436D02*
X14448539Y-13726388D01*
X14448539Y-13726388D02*
X14439015Y-13688293D01*
X14439015Y-13688293D02*
X14439015Y-13640674D01*
X14439015Y-13640674D02*
X14448539Y-13602579D01*
X14448539Y-13602579D02*
X14458063Y-13583531D01*
X14458063Y-13583531D02*
X14467586Y-13574008D01*
X14467586Y-13574008D02*
X14486634Y-13564484D01*
X14639015Y-13745436D02*
X14648539Y-13754960D01*
X14648539Y-13754960D02*
X14639015Y-13764484D01*
X14639015Y-13764484D02*
X14629491Y-13754960D01*
X14629491Y-13754960D02*
X14639015Y-13745436D01*
X14639015Y-13745436D02*
X14639015Y-13764484D01*
X14772348Y-13564484D02*
X14791396Y-13564484D01*
X14791396Y-13564484D02*
X14810444Y-13574008D01*
X14810444Y-13574008D02*
X14819967Y-13583531D01*
X14819967Y-13583531D02*
X14829491Y-13602579D01*
X14829491Y-13602579D02*
X14839015Y-13640674D01*
X14839015Y-13640674D02*
X14839015Y-13688293D01*
X14839015Y-13688293D02*
X14829491Y-13726388D01*
X14829491Y-13726388D02*
X14819967Y-13745436D01*
X14819967Y-13745436D02*
X14810444Y-13754960D01*
X14810444Y-13754960D02*
X14791396Y-13764484D01*
X14791396Y-13764484D02*
X14772348Y-13764484D01*
X14772348Y-13764484D02*
X14753301Y-13754960D01*
X14753301Y-13754960D02*
X14743777Y-13745436D01*
X14743777Y-13745436D02*
X14734253Y-13726388D01*
X14734253Y-13726388D02*
X14724729Y-13688293D01*
X14724729Y-13688293D02*
X14724729Y-13640674D01*
X14724729Y-13640674D02*
X14734253Y-13602579D01*
X14734253Y-13602579D02*
X14743777Y-13583531D01*
X14743777Y-13583531D02*
X14753301Y-13574008D01*
X14753301Y-13574008D02*
X14772348Y-13564484D01*
X14905682Y-13564484D02*
X15029491Y-13564484D01*
X15029491Y-13564484D02*
X14962825Y-13640674D01*
X14962825Y-13640674D02*
X14991396Y-13640674D01*
X14991396Y-13640674D02*
X15010444Y-13650198D01*
X15010444Y-13650198D02*
X15019967Y-13659722D01*
X15019967Y-13659722D02*
X15029491Y-13678769D01*
X15029491Y-13678769D02*
X15029491Y-13726388D01*
X15029491Y-13726388D02*
X15019967Y-13745436D01*
X15019967Y-13745436D02*
X15010444Y-13754960D01*
X15010444Y-13754960D02*
X14991396Y-13764484D01*
X14991396Y-13764484D02*
X14934253Y-13764484D01*
X14934253Y-13764484D02*
X14915206Y-13754960D01*
X14915206Y-13754960D02*
X14905682Y-13745436D01*
X15219967Y-13764484D02*
X15105682Y-13764484D01*
X15162825Y-13764484D02*
X15162825Y-13564484D01*
X15162825Y-13564484D02*
X15143777Y-13593055D01*
X15143777Y-13593055D02*
X15124729Y-13612103D01*
X15124729Y-13612103D02*
X15105682Y-13621627D01*
X15400920Y-13564484D02*
X15305682Y-13564484D01*
X15305682Y-13564484D02*
X15296158Y-13659722D01*
X15296158Y-13659722D02*
X15305682Y-13650198D01*
X15305682Y-13650198D02*
X15324729Y-13640674D01*
X15324729Y-13640674D02*
X15372348Y-13640674D01*
X15372348Y-13640674D02*
X15391396Y-13650198D01*
X15391396Y-13650198D02*
X15400920Y-13659722D01*
X15400920Y-13659722D02*
X15410444Y-13678769D01*
X15410444Y-13678769D02*
X15410444Y-13726388D01*
X15410444Y-13726388D02*
X15400920Y-13745436D01*
X15400920Y-13745436D02*
X15391396Y-13754960D01*
X15391396Y-13754960D02*
X15372348Y-13764484D01*
X15372348Y-13764484D02*
X15324729Y-13764484D01*
X15324729Y-13764484D02*
X15305682Y-13754960D01*
X15305682Y-13754960D02*
X15296158Y-13745436D01*
X15486634Y-13564484D02*
X15486634Y-13602579D01*
X15562825Y-13564484D02*
X15562825Y-13602579D01*
X15858063Y-13840674D02*
X15848539Y-13831150D01*
X15848539Y-13831150D02*
X15829491Y-13802579D01*
X15829491Y-13802579D02*
X15819968Y-13783531D01*
X15819968Y-13783531D02*
X15810444Y-13754960D01*
X15810444Y-13754960D02*
X15800920Y-13707341D01*
X15800920Y-13707341D02*
X15800920Y-13669246D01*
X15800920Y-13669246D02*
X15810444Y-13621627D01*
X15810444Y-13621627D02*
X15819968Y-13593055D01*
X15819968Y-13593055D02*
X15829491Y-13574008D01*
X15829491Y-13574008D02*
X15848539Y-13545436D01*
X15848539Y-13545436D02*
X15858063Y-13535912D01*
X15962825Y-13650198D02*
X15943777Y-13640674D01*
X15943777Y-13640674D02*
X15934253Y-13631150D01*
X15934253Y-13631150D02*
X15924729Y-13612103D01*
X15924729Y-13612103D02*
X15924729Y-13602579D01*
X15924729Y-13602579D02*
X15934253Y-13583531D01*
X15934253Y-13583531D02*
X15943777Y-13574008D01*
X15943777Y-13574008D02*
X15962825Y-13564484D01*
X15962825Y-13564484D02*
X16000920Y-13564484D01*
X16000920Y-13564484D02*
X16019968Y-13574008D01*
X16019968Y-13574008D02*
X16029491Y-13583531D01*
X16029491Y-13583531D02*
X16039015Y-13602579D01*
X16039015Y-13602579D02*
X16039015Y-13612103D01*
X16039015Y-13612103D02*
X16029491Y-13631150D01*
X16029491Y-13631150D02*
X16019968Y-13640674D01*
X16019968Y-13640674D02*
X16000920Y-13650198D01*
X16000920Y-13650198D02*
X15962825Y-13650198D01*
X15962825Y-13650198D02*
X15943777Y-13659722D01*
X15943777Y-13659722D02*
X15934253Y-13669246D01*
X15934253Y-13669246D02*
X15924729Y-13688293D01*
X15924729Y-13688293D02*
X15924729Y-13726388D01*
X15924729Y-13726388D02*
X15934253Y-13745436D01*
X15934253Y-13745436D02*
X15943777Y-13754960D01*
X15943777Y-13754960D02*
X15962825Y-13764484D01*
X15962825Y-13764484D02*
X16000920Y-13764484D01*
X16000920Y-13764484D02*
X16019968Y-13754960D01*
X16019968Y-13754960D02*
X16029491Y-13745436D01*
X16029491Y-13745436D02*
X16039015Y-13726388D01*
X16039015Y-13726388D02*
X16039015Y-13688293D01*
X16039015Y-13688293D02*
X16029491Y-13669246D01*
X16029491Y-13669246D02*
X16019968Y-13659722D01*
X16019968Y-13659722D02*
X16000920Y-13650198D01*
X16277110Y-13764484D02*
X16277110Y-13564484D01*
X16362825Y-13764484D02*
X16362825Y-13659722D01*
X16362825Y-13659722D02*
X16353301Y-13640674D01*
X16353301Y-13640674D02*
X16334253Y-13631150D01*
X16334253Y-13631150D02*
X16305682Y-13631150D01*
X16305682Y-13631150D02*
X16286634Y-13640674D01*
X16286634Y-13640674D02*
X16277110Y-13650198D01*
X16486634Y-13764484D02*
X16467587Y-13754960D01*
X16467587Y-13754960D02*
X16458063Y-13745436D01*
X16458063Y-13745436D02*
X16448539Y-13726388D01*
X16448539Y-13726388D02*
X16448539Y-13669246D01*
X16448539Y-13669246D02*
X16458063Y-13650198D01*
X16458063Y-13650198D02*
X16467587Y-13640674D01*
X16467587Y-13640674D02*
X16486634Y-13631150D01*
X16486634Y-13631150D02*
X16515206Y-13631150D01*
X16515206Y-13631150D02*
X16534253Y-13640674D01*
X16534253Y-13640674D02*
X16543777Y-13650198D01*
X16543777Y-13650198D02*
X16553301Y-13669246D01*
X16553301Y-13669246D02*
X16553301Y-13726388D01*
X16553301Y-13726388D02*
X16543777Y-13745436D01*
X16543777Y-13745436D02*
X16534253Y-13754960D01*
X16534253Y-13754960D02*
X16515206Y-13764484D01*
X16515206Y-13764484D02*
X16486634Y-13764484D01*
X16667587Y-13764484D02*
X16648539Y-13754960D01*
X16648539Y-13754960D02*
X16639015Y-13735912D01*
X16639015Y-13735912D02*
X16639015Y-13564484D01*
X16819968Y-13754960D02*
X16800920Y-13764484D01*
X16800920Y-13764484D02*
X16762825Y-13764484D01*
X16762825Y-13764484D02*
X16743777Y-13754960D01*
X16743777Y-13754960D02*
X16734253Y-13735912D01*
X16734253Y-13735912D02*
X16734253Y-13659722D01*
X16734253Y-13659722D02*
X16743777Y-13640674D01*
X16743777Y-13640674D02*
X16762825Y-13631150D01*
X16762825Y-13631150D02*
X16800920Y-13631150D01*
X16800920Y-13631150D02*
X16819968Y-13640674D01*
X16819968Y-13640674D02*
X16829492Y-13659722D01*
X16829492Y-13659722D02*
X16829492Y-13678769D01*
X16829492Y-13678769D02*
X16734253Y-13697817D01*
X16905682Y-13754960D02*
X16924730Y-13764484D01*
X16924730Y-13764484D02*
X16962825Y-13764484D01*
X16962825Y-13764484D02*
X16981873Y-13754960D01*
X16981873Y-13754960D02*
X16991396Y-13735912D01*
X16991396Y-13735912D02*
X16991396Y-13726388D01*
X16991396Y-13726388D02*
X16981873Y-13707341D01*
X16981873Y-13707341D02*
X16962825Y-13697817D01*
X16962825Y-13697817D02*
X16934253Y-13697817D01*
X16934253Y-13697817D02*
X16915206Y-13688293D01*
X16915206Y-13688293D02*
X16905682Y-13669246D01*
X16905682Y-13669246D02*
X16905682Y-13659722D01*
X16905682Y-13659722D02*
X16915206Y-13640674D01*
X16915206Y-13640674D02*
X16934253Y-13631150D01*
X16934253Y-13631150D02*
X16962825Y-13631150D01*
X16962825Y-13631150D02*
X16981873Y-13640674D01*
X17058063Y-13840674D02*
X17067587Y-13831150D01*
X17067587Y-13831150D02*
X17086634Y-13802579D01*
X17086634Y-13802579D02*
X17096158Y-13783531D01*
X17096158Y-13783531D02*
X17105682Y-13754960D01*
X17105682Y-13754960D02*
X17115206Y-13707341D01*
X17115206Y-13707341D02*
X17115206Y-13669246D01*
X17115206Y-13669246D02*
X17105682Y-13621627D01*
X17105682Y-13621627D02*
X17096158Y-13593055D01*
X17096158Y-13593055D02*
X17086634Y-13574008D01*
X17086634Y-13574008D02*
X17067587Y-13545436D01*
X17067587Y-13545436D02*
X17058063Y-13535912D01*
D12*
X12233000Y-13987000D02*
X12283000Y-13937000D01*
X12233000Y-13887000D01*
X12183000Y-13937000D01*
X12233000Y-13987000D01*
D11*
X12648539Y-14028484D02*
X12534253Y-14028484D01*
X12591396Y-14028484D02*
X12591396Y-13828484D01*
X12591396Y-13828484D02*
X12572348Y-13857055D01*
X12572348Y-13857055D02*
X12553301Y-13876103D01*
X12553301Y-13876103D02*
X12534253Y-13885627D01*
X12734253Y-14009436D02*
X12743777Y-14018960D01*
X12743777Y-14018960D02*
X12734253Y-14028484D01*
X12734253Y-14028484D02*
X12724729Y-14018960D01*
X12724729Y-14018960D02*
X12734253Y-14009436D01*
X12734253Y-14009436D02*
X12734253Y-14028484D01*
X12867586Y-13828484D02*
X12886634Y-13828484D01*
X12886634Y-13828484D02*
X12905682Y-13838008D01*
X12905682Y-13838008D02*
X12915205Y-13847531D01*
X12915205Y-13847531D02*
X12924729Y-13866579D01*
X12924729Y-13866579D02*
X12934253Y-13904674D01*
X12934253Y-13904674D02*
X12934253Y-13952293D01*
X12934253Y-13952293D02*
X12924729Y-13990388D01*
X12924729Y-13990388D02*
X12915205Y-14009436D01*
X12915205Y-14009436D02*
X12905682Y-14018960D01*
X12905682Y-14018960D02*
X12886634Y-14028484D01*
X12886634Y-14028484D02*
X12867586Y-14028484D01*
X12867586Y-14028484D02*
X12848539Y-14018960D01*
X12848539Y-14018960D02*
X12839015Y-14009436D01*
X12839015Y-14009436D02*
X12829491Y-13990388D01*
X12829491Y-13990388D02*
X12819967Y-13952293D01*
X12819967Y-13952293D02*
X12819967Y-13904674D01*
X12819967Y-13904674D02*
X12829491Y-13866579D01*
X12829491Y-13866579D02*
X12839015Y-13847531D01*
X12839015Y-13847531D02*
X12848539Y-13838008D01*
X12848539Y-13838008D02*
X12867586Y-13828484D01*
X13058062Y-13828484D02*
X13077110Y-13828484D01*
X13077110Y-13828484D02*
X13096158Y-13838008D01*
X13096158Y-13838008D02*
X13105682Y-13847531D01*
X13105682Y-13847531D02*
X13115205Y-13866579D01*
X13115205Y-13866579D02*
X13124729Y-13904674D01*
X13124729Y-13904674D02*
X13124729Y-13952293D01*
X13124729Y-13952293D02*
X13115205Y-13990388D01*
X13115205Y-13990388D02*
X13105682Y-14009436D01*
X13105682Y-14009436D02*
X13096158Y-14018960D01*
X13096158Y-14018960D02*
X13077110Y-14028484D01*
X13077110Y-14028484D02*
X13058062Y-14028484D01*
X13058062Y-14028484D02*
X13039015Y-14018960D01*
X13039015Y-14018960D02*
X13029491Y-14009436D01*
X13029491Y-14009436D02*
X13019967Y-13990388D01*
X13019967Y-13990388D02*
X13010443Y-13952293D01*
X13010443Y-13952293D02*
X13010443Y-13904674D01*
X13010443Y-13904674D02*
X13019967Y-13866579D01*
X13019967Y-13866579D02*
X13029491Y-13847531D01*
X13029491Y-13847531D02*
X13039015Y-13838008D01*
X13039015Y-13838008D02*
X13058062Y-13828484D01*
X13248539Y-13828484D02*
X13267586Y-13828484D01*
X13267586Y-13828484D02*
X13286634Y-13838008D01*
X13286634Y-13838008D02*
X13296158Y-13847531D01*
X13296158Y-13847531D02*
X13305682Y-13866579D01*
X13305682Y-13866579D02*
X13315205Y-13904674D01*
X13315205Y-13904674D02*
X13315205Y-13952293D01*
X13315205Y-13952293D02*
X13305682Y-13990388D01*
X13305682Y-13990388D02*
X13296158Y-14009436D01*
X13296158Y-14009436D02*
X13286634Y-14018960D01*
X13286634Y-14018960D02*
X13267586Y-14028484D01*
X13267586Y-14028484D02*
X13248539Y-14028484D01*
X13248539Y-14028484D02*
X13229491Y-14018960D01*
X13229491Y-14018960D02*
X13219967Y-14009436D01*
X13219967Y-14009436D02*
X13210443Y-13990388D01*
X13210443Y-13990388D02*
X13200920Y-13952293D01*
X13200920Y-13952293D02*
X13200920Y-13904674D01*
X13200920Y-13904674D02*
X13210443Y-13866579D01*
X13210443Y-13866579D02*
X13219967Y-13847531D01*
X13219967Y-13847531D02*
X13229491Y-13838008D01*
X13229491Y-13838008D02*
X13248539Y-13828484D01*
X13400920Y-14028484D02*
X13400920Y-13895150D01*
X13400920Y-13914198D02*
X13410443Y-13904674D01*
X13410443Y-13904674D02*
X13429491Y-13895150D01*
X13429491Y-13895150D02*
X13458063Y-13895150D01*
X13458063Y-13895150D02*
X13477110Y-13904674D01*
X13477110Y-13904674D02*
X13486634Y-13923722D01*
X13486634Y-13923722D02*
X13486634Y-14028484D01*
X13486634Y-13923722D02*
X13496158Y-13904674D01*
X13496158Y-13904674D02*
X13515205Y-13895150D01*
X13515205Y-13895150D02*
X13543777Y-13895150D01*
X13543777Y-13895150D02*
X13562824Y-13904674D01*
X13562824Y-13904674D02*
X13572348Y-13923722D01*
X13572348Y-13923722D02*
X13572348Y-14028484D01*
X13667586Y-14028484D02*
X13667586Y-13895150D01*
X13667586Y-13914198D02*
X13677110Y-13904674D01*
X13677110Y-13904674D02*
X13696158Y-13895150D01*
X13696158Y-13895150D02*
X13724729Y-13895150D01*
X13724729Y-13895150D02*
X13743777Y-13904674D01*
X13743777Y-13904674D02*
X13753301Y-13923722D01*
X13753301Y-13923722D02*
X13753301Y-14028484D01*
X13753301Y-13923722D02*
X13762824Y-13904674D01*
X13762824Y-13904674D02*
X13781872Y-13895150D01*
X13781872Y-13895150D02*
X13810443Y-13895150D01*
X13810443Y-13895150D02*
X13829491Y-13904674D01*
X13829491Y-13904674D02*
X13839015Y-13923722D01*
X13839015Y-13923722D02*
X13839015Y-14028484D01*
X14229491Y-13818960D02*
X14058063Y-14076103D01*
X14486634Y-13828484D02*
X14505682Y-13828484D01*
X14505682Y-13828484D02*
X14524729Y-13838008D01*
X14524729Y-13838008D02*
X14534253Y-13847531D01*
X14534253Y-13847531D02*
X14543777Y-13866579D01*
X14543777Y-13866579D02*
X14553301Y-13904674D01*
X14553301Y-13904674D02*
X14553301Y-13952293D01*
X14553301Y-13952293D02*
X14543777Y-13990388D01*
X14543777Y-13990388D02*
X14534253Y-14009436D01*
X14534253Y-14009436D02*
X14524729Y-14018960D01*
X14524729Y-14018960D02*
X14505682Y-14028484D01*
X14505682Y-14028484D02*
X14486634Y-14028484D01*
X14486634Y-14028484D02*
X14467586Y-14018960D01*
X14467586Y-14018960D02*
X14458063Y-14009436D01*
X14458063Y-14009436D02*
X14448539Y-13990388D01*
X14448539Y-13990388D02*
X14439015Y-13952293D01*
X14439015Y-13952293D02*
X14439015Y-13904674D01*
X14439015Y-13904674D02*
X14448539Y-13866579D01*
X14448539Y-13866579D02*
X14458063Y-13847531D01*
X14458063Y-13847531D02*
X14467586Y-13838008D01*
X14467586Y-13838008D02*
X14486634Y-13828484D01*
X14639015Y-14009436D02*
X14648539Y-14018960D01*
X14648539Y-14018960D02*
X14639015Y-14028484D01*
X14639015Y-14028484D02*
X14629491Y-14018960D01*
X14629491Y-14018960D02*
X14639015Y-14009436D01*
X14639015Y-14009436D02*
X14639015Y-14028484D01*
X14772348Y-13828484D02*
X14791396Y-13828484D01*
X14791396Y-13828484D02*
X14810444Y-13838008D01*
X14810444Y-13838008D02*
X14819967Y-13847531D01*
X14819967Y-13847531D02*
X14829491Y-13866579D01*
X14829491Y-13866579D02*
X14839015Y-13904674D01*
X14839015Y-13904674D02*
X14839015Y-13952293D01*
X14839015Y-13952293D02*
X14829491Y-13990388D01*
X14829491Y-13990388D02*
X14819967Y-14009436D01*
X14819967Y-14009436D02*
X14810444Y-14018960D01*
X14810444Y-14018960D02*
X14791396Y-14028484D01*
X14791396Y-14028484D02*
X14772348Y-14028484D01*
X14772348Y-14028484D02*
X14753301Y-14018960D01*
X14753301Y-14018960D02*
X14743777Y-14009436D01*
X14743777Y-14009436D02*
X14734253Y-13990388D01*
X14734253Y-13990388D02*
X14724729Y-13952293D01*
X14724729Y-13952293D02*
X14724729Y-13904674D01*
X14724729Y-13904674D02*
X14734253Y-13866579D01*
X14734253Y-13866579D02*
X14743777Y-13847531D01*
X14743777Y-13847531D02*
X14753301Y-13838008D01*
X14753301Y-13838008D02*
X14772348Y-13828484D01*
X14905682Y-13828484D02*
X15029491Y-13828484D01*
X15029491Y-13828484D02*
X14962825Y-13904674D01*
X14962825Y-13904674D02*
X14991396Y-13904674D01*
X14991396Y-13904674D02*
X15010444Y-13914198D01*
X15010444Y-13914198D02*
X15019967Y-13923722D01*
X15019967Y-13923722D02*
X15029491Y-13942769D01*
X15029491Y-13942769D02*
X15029491Y-13990388D01*
X15029491Y-13990388D02*
X15019967Y-14009436D01*
X15019967Y-14009436D02*
X15010444Y-14018960D01*
X15010444Y-14018960D02*
X14991396Y-14028484D01*
X14991396Y-14028484D02*
X14934253Y-14028484D01*
X14934253Y-14028484D02*
X14915206Y-14018960D01*
X14915206Y-14018960D02*
X14905682Y-14009436D01*
X15124729Y-14028484D02*
X15162825Y-14028484D01*
X15162825Y-14028484D02*
X15181872Y-14018960D01*
X15181872Y-14018960D02*
X15191396Y-14009436D01*
X15191396Y-14009436D02*
X15210444Y-13980865D01*
X15210444Y-13980865D02*
X15219967Y-13942769D01*
X15219967Y-13942769D02*
X15219967Y-13866579D01*
X15219967Y-13866579D02*
X15210444Y-13847531D01*
X15210444Y-13847531D02*
X15200920Y-13838008D01*
X15200920Y-13838008D02*
X15181872Y-13828484D01*
X15181872Y-13828484D02*
X15143777Y-13828484D01*
X15143777Y-13828484D02*
X15124729Y-13838008D01*
X15124729Y-13838008D02*
X15115206Y-13847531D01*
X15115206Y-13847531D02*
X15105682Y-13866579D01*
X15105682Y-13866579D02*
X15105682Y-13914198D01*
X15105682Y-13914198D02*
X15115206Y-13933246D01*
X15115206Y-13933246D02*
X15124729Y-13942769D01*
X15124729Y-13942769D02*
X15143777Y-13952293D01*
X15143777Y-13952293D02*
X15181872Y-13952293D01*
X15181872Y-13952293D02*
X15200920Y-13942769D01*
X15200920Y-13942769D02*
X15210444Y-13933246D01*
X15210444Y-13933246D02*
X15219967Y-13914198D01*
X15391396Y-13895150D02*
X15391396Y-14028484D01*
X15343777Y-13818960D02*
X15296158Y-13961817D01*
X15296158Y-13961817D02*
X15419967Y-13961817D01*
X15486634Y-13828484D02*
X15486634Y-13866579D01*
X15562825Y-13828484D02*
X15562825Y-13866579D01*
X15858063Y-14104674D02*
X15848539Y-14095150D01*
X15848539Y-14095150D02*
X15829491Y-14066579D01*
X15829491Y-14066579D02*
X15819968Y-14047531D01*
X15819968Y-14047531D02*
X15810444Y-14018960D01*
X15810444Y-14018960D02*
X15800920Y-13971341D01*
X15800920Y-13971341D02*
X15800920Y-13933246D01*
X15800920Y-13933246D02*
X15810444Y-13885627D01*
X15810444Y-13885627D02*
X15819968Y-13857055D01*
X15819968Y-13857055D02*
X15829491Y-13838008D01*
X15829491Y-13838008D02*
X15848539Y-13809436D01*
X15848539Y-13809436D02*
X15858063Y-13799912D01*
X16039015Y-14028484D02*
X15924729Y-14028484D01*
X15981872Y-14028484D02*
X15981872Y-13828484D01*
X15981872Y-13828484D02*
X15962825Y-13857055D01*
X15962825Y-13857055D02*
X15943777Y-13876103D01*
X15943777Y-13876103D02*
X15924729Y-13885627D01*
X16134253Y-14028484D02*
X16172348Y-14028484D01*
X16172348Y-14028484D02*
X16191396Y-14018960D01*
X16191396Y-14018960D02*
X16200920Y-14009436D01*
X16200920Y-14009436D02*
X16219968Y-13980865D01*
X16219968Y-13980865D02*
X16229491Y-13942769D01*
X16229491Y-13942769D02*
X16229491Y-13866579D01*
X16229491Y-13866579D02*
X16219968Y-13847531D01*
X16219968Y-13847531D02*
X16210444Y-13838008D01*
X16210444Y-13838008D02*
X16191396Y-13828484D01*
X16191396Y-13828484D02*
X16153301Y-13828484D01*
X16153301Y-13828484D02*
X16134253Y-13838008D01*
X16134253Y-13838008D02*
X16124729Y-13847531D01*
X16124729Y-13847531D02*
X16115206Y-13866579D01*
X16115206Y-13866579D02*
X16115206Y-13914198D01*
X16115206Y-13914198D02*
X16124729Y-13933246D01*
X16124729Y-13933246D02*
X16134253Y-13942769D01*
X16134253Y-13942769D02*
X16153301Y-13952293D01*
X16153301Y-13952293D02*
X16191396Y-13952293D01*
X16191396Y-13952293D02*
X16210444Y-13942769D01*
X16210444Y-13942769D02*
X16219968Y-13933246D01*
X16219968Y-13933246D02*
X16229491Y-13914198D01*
X16467587Y-14028484D02*
X16467587Y-13828484D01*
X16553301Y-14028484D02*
X16553301Y-13923722D01*
X16553301Y-13923722D02*
X16543777Y-13904674D01*
X16543777Y-13904674D02*
X16524730Y-13895150D01*
X16524730Y-13895150D02*
X16496158Y-13895150D01*
X16496158Y-13895150D02*
X16477110Y-13904674D01*
X16477110Y-13904674D02*
X16467587Y-13914198D01*
X16677110Y-14028484D02*
X16658063Y-14018960D01*
X16658063Y-14018960D02*
X16648539Y-14009436D01*
X16648539Y-14009436D02*
X16639015Y-13990388D01*
X16639015Y-13990388D02*
X16639015Y-13933246D01*
X16639015Y-13933246D02*
X16648539Y-13914198D01*
X16648539Y-13914198D02*
X16658063Y-13904674D01*
X16658063Y-13904674D02*
X16677110Y-13895150D01*
X16677110Y-13895150D02*
X16705682Y-13895150D01*
X16705682Y-13895150D02*
X16724730Y-13904674D01*
X16724730Y-13904674D02*
X16734253Y-13914198D01*
X16734253Y-13914198D02*
X16743777Y-13933246D01*
X16743777Y-13933246D02*
X16743777Y-13990388D01*
X16743777Y-13990388D02*
X16734253Y-14009436D01*
X16734253Y-14009436D02*
X16724730Y-14018960D01*
X16724730Y-14018960D02*
X16705682Y-14028484D01*
X16705682Y-14028484D02*
X16677110Y-14028484D01*
X16858063Y-14028484D02*
X16839015Y-14018960D01*
X16839015Y-14018960D02*
X16829492Y-13999912D01*
X16829492Y-13999912D02*
X16829492Y-13828484D01*
X17010444Y-14018960D02*
X16991396Y-14028484D01*
X16991396Y-14028484D02*
X16953301Y-14028484D01*
X16953301Y-14028484D02*
X16934253Y-14018960D01*
X16934253Y-14018960D02*
X16924730Y-13999912D01*
X16924730Y-13999912D02*
X16924730Y-13923722D01*
X16924730Y-13923722D02*
X16934253Y-13904674D01*
X16934253Y-13904674D02*
X16953301Y-13895150D01*
X16953301Y-13895150D02*
X16991396Y-13895150D01*
X16991396Y-13895150D02*
X17010444Y-13904674D01*
X17010444Y-13904674D02*
X17019968Y-13923722D01*
X17019968Y-13923722D02*
X17019968Y-13942769D01*
X17019968Y-13942769D02*
X16924730Y-13961817D01*
X17096158Y-14018960D02*
X17115206Y-14028484D01*
X17115206Y-14028484D02*
X17153301Y-14028484D01*
X17153301Y-14028484D02*
X17172349Y-14018960D01*
X17172349Y-14018960D02*
X17181873Y-13999912D01*
X17181873Y-13999912D02*
X17181873Y-13990388D01*
X17181873Y-13990388D02*
X17172349Y-13971341D01*
X17172349Y-13971341D02*
X17153301Y-13961817D01*
X17153301Y-13961817D02*
X17124730Y-13961817D01*
X17124730Y-13961817D02*
X17105682Y-13952293D01*
X17105682Y-13952293D02*
X17096158Y-13933246D01*
X17096158Y-13933246D02*
X17096158Y-13923722D01*
X17096158Y-13923722D02*
X17105682Y-13904674D01*
X17105682Y-13904674D02*
X17124730Y-13895150D01*
X17124730Y-13895150D02*
X17153301Y-13895150D01*
X17153301Y-13895150D02*
X17172349Y-13904674D01*
X17248539Y-14104674D02*
X17258063Y-14095150D01*
X17258063Y-14095150D02*
X17277111Y-14066579D01*
X17277111Y-14066579D02*
X17286634Y-14047531D01*
X17286634Y-14047531D02*
X17296158Y-14018960D01*
X17296158Y-14018960D02*
X17305682Y-13971341D01*
X17305682Y-13971341D02*
X17305682Y-13933246D01*
X17305682Y-13933246D02*
X17296158Y-13885627D01*
X17296158Y-13885627D02*
X17286634Y-13857055D01*
X17286634Y-13857055D02*
X17277111Y-13838008D01*
X17277111Y-13838008D02*
X17258063Y-13809436D01*
X17258063Y-13809436D02*
X17248539Y-13799912D01*
D13*
X12133000Y-14126000D02*
X12283000Y-14276000D01*
X12283000Y-14126000D02*
X12133000Y-14276000D01*
X12283000Y-14201000D02*
G75*
G02*
X12133000Y-14201000I-75000J0D01*
G01*
X12133000Y-14201000D02*
G75*
G02*
X12283000Y-14201000I75000J0D01*
G01*
D11*
X12648539Y-14292484D02*
X12534253Y-14292484D01*
X12591396Y-14292484D02*
X12591396Y-14092484D01*
X12591396Y-14092484D02*
X12572348Y-14121055D01*
X12572348Y-14121055D02*
X12553301Y-14140103D01*
X12553301Y-14140103D02*
X12534253Y-14149627D01*
X12734253Y-14273436D02*
X12743777Y-14282960D01*
X12743777Y-14282960D02*
X12734253Y-14292484D01*
X12734253Y-14292484D02*
X12724729Y-14282960D01*
X12724729Y-14282960D02*
X12734253Y-14273436D01*
X12734253Y-14273436D02*
X12734253Y-14292484D01*
X12924729Y-14092484D02*
X12829491Y-14092484D01*
X12829491Y-14092484D02*
X12819967Y-14187722D01*
X12819967Y-14187722D02*
X12829491Y-14178198D01*
X12829491Y-14178198D02*
X12848539Y-14168674D01*
X12848539Y-14168674D02*
X12896158Y-14168674D01*
X12896158Y-14168674D02*
X12915205Y-14178198D01*
X12915205Y-14178198D02*
X12924729Y-14187722D01*
X12924729Y-14187722D02*
X12934253Y-14206769D01*
X12934253Y-14206769D02*
X12934253Y-14254388D01*
X12934253Y-14254388D02*
X12924729Y-14273436D01*
X12924729Y-14273436D02*
X12915205Y-14282960D01*
X12915205Y-14282960D02*
X12896158Y-14292484D01*
X12896158Y-14292484D02*
X12848539Y-14292484D01*
X12848539Y-14292484D02*
X12829491Y-14282960D01*
X12829491Y-14282960D02*
X12819967Y-14273436D01*
X13058062Y-14092484D02*
X13077110Y-14092484D01*
X13077110Y-14092484D02*
X13096158Y-14102008D01*
X13096158Y-14102008D02*
X13105682Y-14111531D01*
X13105682Y-14111531D02*
X13115205Y-14130579D01*
X13115205Y-14130579D02*
X13124729Y-14168674D01*
X13124729Y-14168674D02*
X13124729Y-14216293D01*
X13124729Y-14216293D02*
X13115205Y-14254388D01*
X13115205Y-14254388D02*
X13105682Y-14273436D01*
X13105682Y-14273436D02*
X13096158Y-14282960D01*
X13096158Y-14282960D02*
X13077110Y-14292484D01*
X13077110Y-14292484D02*
X13058062Y-14292484D01*
X13058062Y-14292484D02*
X13039015Y-14282960D01*
X13039015Y-14282960D02*
X13029491Y-14273436D01*
X13029491Y-14273436D02*
X13019967Y-14254388D01*
X13019967Y-14254388D02*
X13010443Y-14216293D01*
X13010443Y-14216293D02*
X13010443Y-14168674D01*
X13010443Y-14168674D02*
X13019967Y-14130579D01*
X13019967Y-14130579D02*
X13029491Y-14111531D01*
X13029491Y-14111531D02*
X13039015Y-14102008D01*
X13039015Y-14102008D02*
X13058062Y-14092484D01*
X13248539Y-14092484D02*
X13267586Y-14092484D01*
X13267586Y-14092484D02*
X13286634Y-14102008D01*
X13286634Y-14102008D02*
X13296158Y-14111531D01*
X13296158Y-14111531D02*
X13305682Y-14130579D01*
X13305682Y-14130579D02*
X13315205Y-14168674D01*
X13315205Y-14168674D02*
X13315205Y-14216293D01*
X13315205Y-14216293D02*
X13305682Y-14254388D01*
X13305682Y-14254388D02*
X13296158Y-14273436D01*
X13296158Y-14273436D02*
X13286634Y-14282960D01*
X13286634Y-14282960D02*
X13267586Y-14292484D01*
X13267586Y-14292484D02*
X13248539Y-14292484D01*
X13248539Y-14292484D02*
X13229491Y-14282960D01*
X13229491Y-14282960D02*
X13219967Y-14273436D01*
X13219967Y-14273436D02*
X13210443Y-14254388D01*
X13210443Y-14254388D02*
X13200920Y-14216293D01*
X13200920Y-14216293D02*
X13200920Y-14168674D01*
X13200920Y-14168674D02*
X13210443Y-14130579D01*
X13210443Y-14130579D02*
X13219967Y-14111531D01*
X13219967Y-14111531D02*
X13229491Y-14102008D01*
X13229491Y-14102008D02*
X13248539Y-14092484D01*
X13400920Y-14292484D02*
X13400920Y-14159150D01*
X13400920Y-14178198D02*
X13410443Y-14168674D01*
X13410443Y-14168674D02*
X13429491Y-14159150D01*
X13429491Y-14159150D02*
X13458063Y-14159150D01*
X13458063Y-14159150D02*
X13477110Y-14168674D01*
X13477110Y-14168674D02*
X13486634Y-14187722D01*
X13486634Y-14187722D02*
X13486634Y-14292484D01*
X13486634Y-14187722D02*
X13496158Y-14168674D01*
X13496158Y-14168674D02*
X13515205Y-14159150D01*
X13515205Y-14159150D02*
X13543777Y-14159150D01*
X13543777Y-14159150D02*
X13562824Y-14168674D01*
X13562824Y-14168674D02*
X13572348Y-14187722D01*
X13572348Y-14187722D02*
X13572348Y-14292484D01*
X13667586Y-14292484D02*
X13667586Y-14159150D01*
X13667586Y-14178198D02*
X13677110Y-14168674D01*
X13677110Y-14168674D02*
X13696158Y-14159150D01*
X13696158Y-14159150D02*
X13724729Y-14159150D01*
X13724729Y-14159150D02*
X13743777Y-14168674D01*
X13743777Y-14168674D02*
X13753301Y-14187722D01*
X13753301Y-14187722D02*
X13753301Y-14292484D01*
X13753301Y-14187722D02*
X13762824Y-14168674D01*
X13762824Y-14168674D02*
X13781872Y-14159150D01*
X13781872Y-14159150D02*
X13810443Y-14159150D01*
X13810443Y-14159150D02*
X13829491Y-14168674D01*
X13829491Y-14168674D02*
X13839015Y-14187722D01*
X13839015Y-14187722D02*
X13839015Y-14292484D01*
X14229491Y-14082960D02*
X14058063Y-14340103D01*
X14486634Y-14092484D02*
X14505682Y-14092484D01*
X14505682Y-14092484D02*
X14524729Y-14102008D01*
X14524729Y-14102008D02*
X14534253Y-14111531D01*
X14534253Y-14111531D02*
X14543777Y-14130579D01*
X14543777Y-14130579D02*
X14553301Y-14168674D01*
X14553301Y-14168674D02*
X14553301Y-14216293D01*
X14553301Y-14216293D02*
X14543777Y-14254388D01*
X14543777Y-14254388D02*
X14534253Y-14273436D01*
X14534253Y-14273436D02*
X14524729Y-14282960D01*
X14524729Y-14282960D02*
X14505682Y-14292484D01*
X14505682Y-14292484D02*
X14486634Y-14292484D01*
X14486634Y-14292484D02*
X14467586Y-14282960D01*
X14467586Y-14282960D02*
X14458063Y-14273436D01*
X14458063Y-14273436D02*
X14448539Y-14254388D01*
X14448539Y-14254388D02*
X14439015Y-14216293D01*
X14439015Y-14216293D02*
X14439015Y-14168674D01*
X14439015Y-14168674D02*
X14448539Y-14130579D01*
X14448539Y-14130579D02*
X14458063Y-14111531D01*
X14458063Y-14111531D02*
X14467586Y-14102008D01*
X14467586Y-14102008D02*
X14486634Y-14092484D01*
X14639015Y-14273436D02*
X14648539Y-14282960D01*
X14648539Y-14282960D02*
X14639015Y-14292484D01*
X14639015Y-14292484D02*
X14629491Y-14282960D01*
X14629491Y-14282960D02*
X14639015Y-14273436D01*
X14639015Y-14273436D02*
X14639015Y-14292484D01*
X14772348Y-14092484D02*
X14791396Y-14092484D01*
X14791396Y-14092484D02*
X14810444Y-14102008D01*
X14810444Y-14102008D02*
X14819967Y-14111531D01*
X14819967Y-14111531D02*
X14829491Y-14130579D01*
X14829491Y-14130579D02*
X14839015Y-14168674D01*
X14839015Y-14168674D02*
X14839015Y-14216293D01*
X14839015Y-14216293D02*
X14829491Y-14254388D01*
X14829491Y-14254388D02*
X14819967Y-14273436D01*
X14819967Y-14273436D02*
X14810444Y-14282960D01*
X14810444Y-14282960D02*
X14791396Y-14292484D01*
X14791396Y-14292484D02*
X14772348Y-14292484D01*
X14772348Y-14292484D02*
X14753301Y-14282960D01*
X14753301Y-14282960D02*
X14743777Y-14273436D01*
X14743777Y-14273436D02*
X14734253Y-14254388D01*
X14734253Y-14254388D02*
X14724729Y-14216293D01*
X14724729Y-14216293D02*
X14724729Y-14168674D01*
X14724729Y-14168674D02*
X14734253Y-14130579D01*
X14734253Y-14130579D02*
X14743777Y-14111531D01*
X14743777Y-14111531D02*
X14753301Y-14102008D01*
X14753301Y-14102008D02*
X14772348Y-14092484D01*
X15019967Y-14092484D02*
X14924729Y-14092484D01*
X14924729Y-14092484D02*
X14915206Y-14187722D01*
X14915206Y-14187722D02*
X14924729Y-14178198D01*
X14924729Y-14178198D02*
X14943777Y-14168674D01*
X14943777Y-14168674D02*
X14991396Y-14168674D01*
X14991396Y-14168674D02*
X15010444Y-14178198D01*
X15010444Y-14178198D02*
X15019967Y-14187722D01*
X15019967Y-14187722D02*
X15029491Y-14206769D01*
X15029491Y-14206769D02*
X15029491Y-14254388D01*
X15029491Y-14254388D02*
X15019967Y-14273436D01*
X15019967Y-14273436D02*
X15010444Y-14282960D01*
X15010444Y-14282960D02*
X14991396Y-14292484D01*
X14991396Y-14292484D02*
X14943777Y-14292484D01*
X14943777Y-14292484D02*
X14924729Y-14282960D01*
X14924729Y-14282960D02*
X14915206Y-14273436D01*
X15124729Y-14292484D02*
X15162825Y-14292484D01*
X15162825Y-14292484D02*
X15181872Y-14282960D01*
X15181872Y-14282960D02*
X15191396Y-14273436D01*
X15191396Y-14273436D02*
X15210444Y-14244865D01*
X15210444Y-14244865D02*
X15219967Y-14206769D01*
X15219967Y-14206769D02*
X15219967Y-14130579D01*
X15219967Y-14130579D02*
X15210444Y-14111531D01*
X15210444Y-14111531D02*
X15200920Y-14102008D01*
X15200920Y-14102008D02*
X15181872Y-14092484D01*
X15181872Y-14092484D02*
X15143777Y-14092484D01*
X15143777Y-14092484D02*
X15124729Y-14102008D01*
X15124729Y-14102008D02*
X15115206Y-14111531D01*
X15115206Y-14111531D02*
X15105682Y-14130579D01*
X15105682Y-14130579D02*
X15105682Y-14178198D01*
X15105682Y-14178198D02*
X15115206Y-14197246D01*
X15115206Y-14197246D02*
X15124729Y-14206769D01*
X15124729Y-14206769D02*
X15143777Y-14216293D01*
X15143777Y-14216293D02*
X15181872Y-14216293D01*
X15181872Y-14216293D02*
X15200920Y-14206769D01*
X15200920Y-14206769D02*
X15210444Y-14197246D01*
X15210444Y-14197246D02*
X15219967Y-14178198D01*
X15410444Y-14292484D02*
X15296158Y-14292484D01*
X15353301Y-14292484D02*
X15353301Y-14092484D01*
X15353301Y-14092484D02*
X15334253Y-14121055D01*
X15334253Y-14121055D02*
X15315206Y-14140103D01*
X15315206Y-14140103D02*
X15296158Y-14149627D01*
X15486634Y-14092484D02*
X15486634Y-14130579D01*
X15562825Y-14092484D02*
X15562825Y-14130579D01*
X15858063Y-14368674D02*
X15848539Y-14359150D01*
X15848539Y-14359150D02*
X15829491Y-14330579D01*
X15829491Y-14330579D02*
X15819968Y-14311531D01*
X15819968Y-14311531D02*
X15810444Y-14282960D01*
X15810444Y-14282960D02*
X15800920Y-14235341D01*
X15800920Y-14235341D02*
X15800920Y-14197246D01*
X15800920Y-14197246D02*
X15810444Y-14149627D01*
X15810444Y-14149627D02*
X15819968Y-14121055D01*
X15819968Y-14121055D02*
X15829491Y-14102008D01*
X15829491Y-14102008D02*
X15848539Y-14073436D01*
X15848539Y-14073436D02*
X15858063Y-14063912D01*
X15924729Y-14111531D02*
X15934253Y-14102008D01*
X15934253Y-14102008D02*
X15953301Y-14092484D01*
X15953301Y-14092484D02*
X16000920Y-14092484D01*
X16000920Y-14092484D02*
X16019968Y-14102008D01*
X16019968Y-14102008D02*
X16029491Y-14111531D01*
X16029491Y-14111531D02*
X16039015Y-14130579D01*
X16039015Y-14130579D02*
X16039015Y-14149627D01*
X16039015Y-14149627D02*
X16029491Y-14178198D01*
X16029491Y-14178198D02*
X15915206Y-14292484D01*
X15915206Y-14292484D02*
X16039015Y-14292484D01*
X16277110Y-14292484D02*
X16277110Y-14092484D01*
X16362825Y-14292484D02*
X16362825Y-14187722D01*
X16362825Y-14187722D02*
X16353301Y-14168674D01*
X16353301Y-14168674D02*
X16334253Y-14159150D01*
X16334253Y-14159150D02*
X16305682Y-14159150D01*
X16305682Y-14159150D02*
X16286634Y-14168674D01*
X16286634Y-14168674D02*
X16277110Y-14178198D01*
X16486634Y-14292484D02*
X16467587Y-14282960D01*
X16467587Y-14282960D02*
X16458063Y-14273436D01*
X16458063Y-14273436D02*
X16448539Y-14254388D01*
X16448539Y-14254388D02*
X16448539Y-14197246D01*
X16448539Y-14197246D02*
X16458063Y-14178198D01*
X16458063Y-14178198D02*
X16467587Y-14168674D01*
X16467587Y-14168674D02*
X16486634Y-14159150D01*
X16486634Y-14159150D02*
X16515206Y-14159150D01*
X16515206Y-14159150D02*
X16534253Y-14168674D01*
X16534253Y-14168674D02*
X16543777Y-14178198D01*
X16543777Y-14178198D02*
X16553301Y-14197246D01*
X16553301Y-14197246D02*
X16553301Y-14254388D01*
X16553301Y-14254388D02*
X16543777Y-14273436D01*
X16543777Y-14273436D02*
X16534253Y-14282960D01*
X16534253Y-14282960D02*
X16515206Y-14292484D01*
X16515206Y-14292484D02*
X16486634Y-14292484D01*
X16667587Y-14292484D02*
X16648539Y-14282960D01*
X16648539Y-14282960D02*
X16639015Y-14263912D01*
X16639015Y-14263912D02*
X16639015Y-14092484D01*
X16819968Y-14282960D02*
X16800920Y-14292484D01*
X16800920Y-14292484D02*
X16762825Y-14292484D01*
X16762825Y-14292484D02*
X16743777Y-14282960D01*
X16743777Y-14282960D02*
X16734253Y-14263912D01*
X16734253Y-14263912D02*
X16734253Y-14187722D01*
X16734253Y-14187722D02*
X16743777Y-14168674D01*
X16743777Y-14168674D02*
X16762825Y-14159150D01*
X16762825Y-14159150D02*
X16800920Y-14159150D01*
X16800920Y-14159150D02*
X16819968Y-14168674D01*
X16819968Y-14168674D02*
X16829492Y-14187722D01*
X16829492Y-14187722D02*
X16829492Y-14206769D01*
X16829492Y-14206769D02*
X16734253Y-14225817D01*
X16905682Y-14282960D02*
X16924730Y-14292484D01*
X16924730Y-14292484D02*
X16962825Y-14292484D01*
X16962825Y-14292484D02*
X16981873Y-14282960D01*
X16981873Y-14282960D02*
X16991396Y-14263912D01*
X16991396Y-14263912D02*
X16991396Y-14254388D01*
X16991396Y-14254388D02*
X16981873Y-14235341D01*
X16981873Y-14235341D02*
X16962825Y-14225817D01*
X16962825Y-14225817D02*
X16934253Y-14225817D01*
X16934253Y-14225817D02*
X16915206Y-14216293D01*
X16915206Y-14216293D02*
X16905682Y-14197246D01*
X16905682Y-14197246D02*
X16905682Y-14187722D01*
X16905682Y-14187722D02*
X16915206Y-14168674D01*
X16915206Y-14168674D02*
X16934253Y-14159150D01*
X16934253Y-14159150D02*
X16962825Y-14159150D01*
X16962825Y-14159150D02*
X16981873Y-14168674D01*
X17058063Y-14368674D02*
X17067587Y-14359150D01*
X17067587Y-14359150D02*
X17086634Y-14330579D01*
X17086634Y-14330579D02*
X17096158Y-14311531D01*
X17096158Y-14311531D02*
X17105682Y-14282960D01*
X17105682Y-14282960D02*
X17115206Y-14235341D01*
X17115206Y-14235341D02*
X17115206Y-14197246D01*
X17115206Y-14197246D02*
X17105682Y-14149627D01*
X17105682Y-14149627D02*
X17096158Y-14121055D01*
X17096158Y-14121055D02*
X17086634Y-14102008D01*
X17086634Y-14102008D02*
X17067587Y-14073436D01*
X17067587Y-14073436D02*
X17058063Y-14063912D01*
D14*
X12113000Y-14386000D02*
X12283000Y-14556000D01*
X12283000Y-14386000D02*
X12113000Y-14556000D01*
X12198000Y-14386000D02*
X12198000Y-14556000D01*
X12113000Y-14471000D02*
X12283000Y-14471000D01*
D11*
X12648539Y-14562484D02*
X12534253Y-14562484D01*
X12591396Y-14562484D02*
X12591396Y-14362484D01*
X12591396Y-14362484D02*
X12572348Y-14391055D01*
X12572348Y-14391055D02*
X12553301Y-14410103D01*
X12553301Y-14410103D02*
X12534253Y-14419627D01*
X12734253Y-14543436D02*
X12743777Y-14552960D01*
X12743777Y-14552960D02*
X12734253Y-14562484D01*
X12734253Y-14562484D02*
X12724729Y-14552960D01*
X12724729Y-14552960D02*
X12734253Y-14543436D01*
X12734253Y-14543436D02*
X12734253Y-14562484D01*
X12810443Y-14362484D02*
X12943777Y-14362484D01*
X12943777Y-14362484D02*
X12858062Y-14562484D01*
X13058062Y-14362484D02*
X13077110Y-14362484D01*
X13077110Y-14362484D02*
X13096158Y-14372008D01*
X13096158Y-14372008D02*
X13105682Y-14381531D01*
X13105682Y-14381531D02*
X13115205Y-14400579D01*
X13115205Y-14400579D02*
X13124729Y-14438674D01*
X13124729Y-14438674D02*
X13124729Y-14486293D01*
X13124729Y-14486293D02*
X13115205Y-14524388D01*
X13115205Y-14524388D02*
X13105682Y-14543436D01*
X13105682Y-14543436D02*
X13096158Y-14552960D01*
X13096158Y-14552960D02*
X13077110Y-14562484D01*
X13077110Y-14562484D02*
X13058062Y-14562484D01*
X13058062Y-14562484D02*
X13039015Y-14552960D01*
X13039015Y-14552960D02*
X13029491Y-14543436D01*
X13029491Y-14543436D02*
X13019967Y-14524388D01*
X13019967Y-14524388D02*
X13010443Y-14486293D01*
X13010443Y-14486293D02*
X13010443Y-14438674D01*
X13010443Y-14438674D02*
X13019967Y-14400579D01*
X13019967Y-14400579D02*
X13029491Y-14381531D01*
X13029491Y-14381531D02*
X13039015Y-14372008D01*
X13039015Y-14372008D02*
X13058062Y-14362484D01*
X13248539Y-14362484D02*
X13267586Y-14362484D01*
X13267586Y-14362484D02*
X13286634Y-14372008D01*
X13286634Y-14372008D02*
X13296158Y-14381531D01*
X13296158Y-14381531D02*
X13305682Y-14400579D01*
X13305682Y-14400579D02*
X13315205Y-14438674D01*
X13315205Y-14438674D02*
X13315205Y-14486293D01*
X13315205Y-14486293D02*
X13305682Y-14524388D01*
X13305682Y-14524388D02*
X13296158Y-14543436D01*
X13296158Y-14543436D02*
X13286634Y-14552960D01*
X13286634Y-14552960D02*
X13267586Y-14562484D01*
X13267586Y-14562484D02*
X13248539Y-14562484D01*
X13248539Y-14562484D02*
X13229491Y-14552960D01*
X13229491Y-14552960D02*
X13219967Y-14543436D01*
X13219967Y-14543436D02*
X13210443Y-14524388D01*
X13210443Y-14524388D02*
X13200920Y-14486293D01*
X13200920Y-14486293D02*
X13200920Y-14438674D01*
X13200920Y-14438674D02*
X13210443Y-14400579D01*
X13210443Y-14400579D02*
X13219967Y-14381531D01*
X13219967Y-14381531D02*
X13229491Y-14372008D01*
X13229491Y-14372008D02*
X13248539Y-14362484D01*
X13400920Y-14562484D02*
X13400920Y-14429150D01*
X13400920Y-14448198D02*
X13410443Y-14438674D01*
X13410443Y-14438674D02*
X13429491Y-14429150D01*
X13429491Y-14429150D02*
X13458063Y-14429150D01*
X13458063Y-14429150D02*
X13477110Y-14438674D01*
X13477110Y-14438674D02*
X13486634Y-14457722D01*
X13486634Y-14457722D02*
X13486634Y-14562484D01*
X13486634Y-14457722D02*
X13496158Y-14438674D01*
X13496158Y-14438674D02*
X13515205Y-14429150D01*
X13515205Y-14429150D02*
X13543777Y-14429150D01*
X13543777Y-14429150D02*
X13562824Y-14438674D01*
X13562824Y-14438674D02*
X13572348Y-14457722D01*
X13572348Y-14457722D02*
X13572348Y-14562484D01*
X13667586Y-14562484D02*
X13667586Y-14429150D01*
X13667586Y-14448198D02*
X13677110Y-14438674D01*
X13677110Y-14438674D02*
X13696158Y-14429150D01*
X13696158Y-14429150D02*
X13724729Y-14429150D01*
X13724729Y-14429150D02*
X13743777Y-14438674D01*
X13743777Y-14438674D02*
X13753301Y-14457722D01*
X13753301Y-14457722D02*
X13753301Y-14562484D01*
X13753301Y-14457722D02*
X13762824Y-14438674D01*
X13762824Y-14438674D02*
X13781872Y-14429150D01*
X13781872Y-14429150D02*
X13810443Y-14429150D01*
X13810443Y-14429150D02*
X13829491Y-14438674D01*
X13829491Y-14438674D02*
X13839015Y-14457722D01*
X13839015Y-14457722D02*
X13839015Y-14562484D01*
X14229491Y-14352960D02*
X14058063Y-14610103D01*
X14486634Y-14362484D02*
X14505682Y-14362484D01*
X14505682Y-14362484D02*
X14524729Y-14372008D01*
X14524729Y-14372008D02*
X14534253Y-14381531D01*
X14534253Y-14381531D02*
X14543777Y-14400579D01*
X14543777Y-14400579D02*
X14553301Y-14438674D01*
X14553301Y-14438674D02*
X14553301Y-14486293D01*
X14553301Y-14486293D02*
X14543777Y-14524388D01*
X14543777Y-14524388D02*
X14534253Y-14543436D01*
X14534253Y-14543436D02*
X14524729Y-14552960D01*
X14524729Y-14552960D02*
X14505682Y-14562484D01*
X14505682Y-14562484D02*
X14486634Y-14562484D01*
X14486634Y-14562484D02*
X14467586Y-14552960D01*
X14467586Y-14552960D02*
X14458063Y-14543436D01*
X14458063Y-14543436D02*
X14448539Y-14524388D01*
X14448539Y-14524388D02*
X14439015Y-14486293D01*
X14439015Y-14486293D02*
X14439015Y-14438674D01*
X14439015Y-14438674D02*
X14448539Y-14400579D01*
X14448539Y-14400579D02*
X14458063Y-14381531D01*
X14458063Y-14381531D02*
X14467586Y-14372008D01*
X14467586Y-14372008D02*
X14486634Y-14362484D01*
X14639015Y-14543436D02*
X14648539Y-14552960D01*
X14648539Y-14552960D02*
X14639015Y-14562484D01*
X14639015Y-14562484D02*
X14629491Y-14552960D01*
X14629491Y-14552960D02*
X14639015Y-14543436D01*
X14639015Y-14543436D02*
X14639015Y-14562484D01*
X14772348Y-14362484D02*
X14791396Y-14362484D01*
X14791396Y-14362484D02*
X14810444Y-14372008D01*
X14810444Y-14372008D02*
X14819967Y-14381531D01*
X14819967Y-14381531D02*
X14829491Y-14400579D01*
X14829491Y-14400579D02*
X14839015Y-14438674D01*
X14839015Y-14438674D02*
X14839015Y-14486293D01*
X14839015Y-14486293D02*
X14829491Y-14524388D01*
X14829491Y-14524388D02*
X14819967Y-14543436D01*
X14819967Y-14543436D02*
X14810444Y-14552960D01*
X14810444Y-14552960D02*
X14791396Y-14562484D01*
X14791396Y-14562484D02*
X14772348Y-14562484D01*
X14772348Y-14562484D02*
X14753301Y-14552960D01*
X14753301Y-14552960D02*
X14743777Y-14543436D01*
X14743777Y-14543436D02*
X14734253Y-14524388D01*
X14734253Y-14524388D02*
X14724729Y-14486293D01*
X14724729Y-14486293D02*
X14724729Y-14438674D01*
X14724729Y-14438674D02*
X14734253Y-14400579D01*
X14734253Y-14400579D02*
X14743777Y-14381531D01*
X14743777Y-14381531D02*
X14753301Y-14372008D01*
X14753301Y-14372008D02*
X14772348Y-14362484D01*
X15010444Y-14362484D02*
X14972348Y-14362484D01*
X14972348Y-14362484D02*
X14953301Y-14372008D01*
X14953301Y-14372008D02*
X14943777Y-14381531D01*
X14943777Y-14381531D02*
X14924729Y-14410103D01*
X14924729Y-14410103D02*
X14915206Y-14448198D01*
X14915206Y-14448198D02*
X14915206Y-14524388D01*
X14915206Y-14524388D02*
X14924729Y-14543436D01*
X14924729Y-14543436D02*
X14934253Y-14552960D01*
X14934253Y-14552960D02*
X14953301Y-14562484D01*
X14953301Y-14562484D02*
X14991396Y-14562484D01*
X14991396Y-14562484D02*
X15010444Y-14552960D01*
X15010444Y-14552960D02*
X15019967Y-14543436D01*
X15019967Y-14543436D02*
X15029491Y-14524388D01*
X15029491Y-14524388D02*
X15029491Y-14476769D01*
X15029491Y-14476769D02*
X15019967Y-14457722D01*
X15019967Y-14457722D02*
X15010444Y-14448198D01*
X15010444Y-14448198D02*
X14991396Y-14438674D01*
X14991396Y-14438674D02*
X14953301Y-14438674D01*
X14953301Y-14438674D02*
X14934253Y-14448198D01*
X14934253Y-14448198D02*
X14924729Y-14457722D01*
X14924729Y-14457722D02*
X14915206Y-14476769D01*
X15200920Y-14362484D02*
X15162825Y-14362484D01*
X15162825Y-14362484D02*
X15143777Y-14372008D01*
X15143777Y-14372008D02*
X15134253Y-14381531D01*
X15134253Y-14381531D02*
X15115206Y-14410103D01*
X15115206Y-14410103D02*
X15105682Y-14448198D01*
X15105682Y-14448198D02*
X15105682Y-14524388D01*
X15105682Y-14524388D02*
X15115206Y-14543436D01*
X15115206Y-14543436D02*
X15124729Y-14552960D01*
X15124729Y-14552960D02*
X15143777Y-14562484D01*
X15143777Y-14562484D02*
X15181872Y-14562484D01*
X15181872Y-14562484D02*
X15200920Y-14552960D01*
X15200920Y-14552960D02*
X15210444Y-14543436D01*
X15210444Y-14543436D02*
X15219967Y-14524388D01*
X15219967Y-14524388D02*
X15219967Y-14476769D01*
X15219967Y-14476769D02*
X15210444Y-14457722D01*
X15210444Y-14457722D02*
X15200920Y-14448198D01*
X15200920Y-14448198D02*
X15181872Y-14438674D01*
X15181872Y-14438674D02*
X15143777Y-14438674D01*
X15143777Y-14438674D02*
X15124729Y-14448198D01*
X15124729Y-14448198D02*
X15115206Y-14457722D01*
X15115206Y-14457722D02*
X15105682Y-14476769D01*
X15315206Y-14562484D02*
X15353301Y-14562484D01*
X15353301Y-14562484D02*
X15372348Y-14552960D01*
X15372348Y-14552960D02*
X15381872Y-14543436D01*
X15381872Y-14543436D02*
X15400920Y-14514865D01*
X15400920Y-14514865D02*
X15410444Y-14476769D01*
X15410444Y-14476769D02*
X15410444Y-14400579D01*
X15410444Y-14400579D02*
X15400920Y-14381531D01*
X15400920Y-14381531D02*
X15391396Y-14372008D01*
X15391396Y-14372008D02*
X15372348Y-14362484D01*
X15372348Y-14362484D02*
X15334253Y-14362484D01*
X15334253Y-14362484D02*
X15315206Y-14372008D01*
X15315206Y-14372008D02*
X15305682Y-14381531D01*
X15305682Y-14381531D02*
X15296158Y-14400579D01*
X15296158Y-14400579D02*
X15296158Y-14448198D01*
X15296158Y-14448198D02*
X15305682Y-14467246D01*
X15305682Y-14467246D02*
X15315206Y-14476769D01*
X15315206Y-14476769D02*
X15334253Y-14486293D01*
X15334253Y-14486293D02*
X15372348Y-14486293D01*
X15372348Y-14486293D02*
X15391396Y-14476769D01*
X15391396Y-14476769D02*
X15400920Y-14467246D01*
X15400920Y-14467246D02*
X15410444Y-14448198D01*
X15486634Y-14362484D02*
X15486634Y-14400579D01*
X15562825Y-14362484D02*
X15562825Y-14400579D01*
X15858063Y-14638674D02*
X15848539Y-14629150D01*
X15848539Y-14629150D02*
X15829491Y-14600579D01*
X15829491Y-14600579D02*
X15819968Y-14581531D01*
X15819968Y-14581531D02*
X15810444Y-14552960D01*
X15810444Y-14552960D02*
X15800920Y-14505341D01*
X15800920Y-14505341D02*
X15800920Y-14467246D01*
X15800920Y-14467246D02*
X15810444Y-14419627D01*
X15810444Y-14419627D02*
X15819968Y-14391055D01*
X15819968Y-14391055D02*
X15829491Y-14372008D01*
X15829491Y-14372008D02*
X15848539Y-14343436D01*
X15848539Y-14343436D02*
X15858063Y-14333912D01*
X15962825Y-14448198D02*
X15943777Y-14438674D01*
X15943777Y-14438674D02*
X15934253Y-14429150D01*
X15934253Y-14429150D02*
X15924729Y-14410103D01*
X15924729Y-14410103D02*
X15924729Y-14400579D01*
X15924729Y-14400579D02*
X15934253Y-14381531D01*
X15934253Y-14381531D02*
X15943777Y-14372008D01*
X15943777Y-14372008D02*
X15962825Y-14362484D01*
X15962825Y-14362484D02*
X16000920Y-14362484D01*
X16000920Y-14362484D02*
X16019968Y-14372008D01*
X16019968Y-14372008D02*
X16029491Y-14381531D01*
X16029491Y-14381531D02*
X16039015Y-14400579D01*
X16039015Y-14400579D02*
X16039015Y-14410103D01*
X16039015Y-14410103D02*
X16029491Y-14429150D01*
X16029491Y-14429150D02*
X16019968Y-14438674D01*
X16019968Y-14438674D02*
X16000920Y-14448198D01*
X16000920Y-14448198D02*
X15962825Y-14448198D01*
X15962825Y-14448198D02*
X15943777Y-14457722D01*
X15943777Y-14457722D02*
X15934253Y-14467246D01*
X15934253Y-14467246D02*
X15924729Y-14486293D01*
X15924729Y-14486293D02*
X15924729Y-14524388D01*
X15924729Y-14524388D02*
X15934253Y-14543436D01*
X15934253Y-14543436D02*
X15943777Y-14552960D01*
X15943777Y-14552960D02*
X15962825Y-14562484D01*
X15962825Y-14562484D02*
X16000920Y-14562484D01*
X16000920Y-14562484D02*
X16019968Y-14552960D01*
X16019968Y-14552960D02*
X16029491Y-14543436D01*
X16029491Y-14543436D02*
X16039015Y-14524388D01*
X16039015Y-14524388D02*
X16039015Y-14486293D01*
X16039015Y-14486293D02*
X16029491Y-14467246D01*
X16029491Y-14467246D02*
X16019968Y-14457722D01*
X16019968Y-14457722D02*
X16000920Y-14448198D01*
X16277110Y-14562484D02*
X16277110Y-14362484D01*
X16362825Y-14562484D02*
X16362825Y-14457722D01*
X16362825Y-14457722D02*
X16353301Y-14438674D01*
X16353301Y-14438674D02*
X16334253Y-14429150D01*
X16334253Y-14429150D02*
X16305682Y-14429150D01*
X16305682Y-14429150D02*
X16286634Y-14438674D01*
X16286634Y-14438674D02*
X16277110Y-14448198D01*
X16486634Y-14562484D02*
X16467587Y-14552960D01*
X16467587Y-14552960D02*
X16458063Y-14543436D01*
X16458063Y-14543436D02*
X16448539Y-14524388D01*
X16448539Y-14524388D02*
X16448539Y-14467246D01*
X16448539Y-14467246D02*
X16458063Y-14448198D01*
X16458063Y-14448198D02*
X16467587Y-14438674D01*
X16467587Y-14438674D02*
X16486634Y-14429150D01*
X16486634Y-14429150D02*
X16515206Y-14429150D01*
X16515206Y-14429150D02*
X16534253Y-14438674D01*
X16534253Y-14438674D02*
X16543777Y-14448198D01*
X16543777Y-14448198D02*
X16553301Y-14467246D01*
X16553301Y-14467246D02*
X16553301Y-14524388D01*
X16553301Y-14524388D02*
X16543777Y-14543436D01*
X16543777Y-14543436D02*
X16534253Y-14552960D01*
X16534253Y-14552960D02*
X16515206Y-14562484D01*
X16515206Y-14562484D02*
X16486634Y-14562484D01*
X16667587Y-14562484D02*
X16648539Y-14552960D01*
X16648539Y-14552960D02*
X16639015Y-14533912D01*
X16639015Y-14533912D02*
X16639015Y-14362484D01*
X16819968Y-14552960D02*
X16800920Y-14562484D01*
X16800920Y-14562484D02*
X16762825Y-14562484D01*
X16762825Y-14562484D02*
X16743777Y-14552960D01*
X16743777Y-14552960D02*
X16734253Y-14533912D01*
X16734253Y-14533912D02*
X16734253Y-14457722D01*
X16734253Y-14457722D02*
X16743777Y-14438674D01*
X16743777Y-14438674D02*
X16762825Y-14429150D01*
X16762825Y-14429150D02*
X16800920Y-14429150D01*
X16800920Y-14429150D02*
X16819968Y-14438674D01*
X16819968Y-14438674D02*
X16829492Y-14457722D01*
X16829492Y-14457722D02*
X16829492Y-14476769D01*
X16829492Y-14476769D02*
X16734253Y-14495817D01*
X16905682Y-14552960D02*
X16924730Y-14562484D01*
X16924730Y-14562484D02*
X16962825Y-14562484D01*
X16962825Y-14562484D02*
X16981873Y-14552960D01*
X16981873Y-14552960D02*
X16991396Y-14533912D01*
X16991396Y-14533912D02*
X16991396Y-14524388D01*
X16991396Y-14524388D02*
X16981873Y-14505341D01*
X16981873Y-14505341D02*
X16962825Y-14495817D01*
X16962825Y-14495817D02*
X16934253Y-14495817D01*
X16934253Y-14495817D02*
X16915206Y-14486293D01*
X16915206Y-14486293D02*
X16905682Y-14467246D01*
X16905682Y-14467246D02*
X16905682Y-14457722D01*
X16905682Y-14457722D02*
X16915206Y-14438674D01*
X16915206Y-14438674D02*
X16934253Y-14429150D01*
X16934253Y-14429150D02*
X16962825Y-14429150D01*
X16962825Y-14429150D02*
X16981873Y-14438674D01*
X17058063Y-14638674D02*
X17067587Y-14629150D01*
X17067587Y-14629150D02*
X17086634Y-14600579D01*
X17086634Y-14600579D02*
X17096158Y-14581531D01*
X17096158Y-14581531D02*
X17105682Y-14552960D01*
X17105682Y-14552960D02*
X17115206Y-14505341D01*
X17115206Y-14505341D02*
X17115206Y-14467246D01*
X17115206Y-14467246D02*
X17105682Y-14419627D01*
X17105682Y-14419627D02*
X17096158Y-14391055D01*
X17096158Y-14391055D02*
X17086634Y-14372008D01*
X17086634Y-14372008D02*
X17067587Y-14343436D01*
X17067587Y-14343436D02*
X17058063Y-14333912D01*
M02*
