%TF.GenerationSoftware,KiCad,Pcbnew,8.0.4*%
%TF.CreationDate,2025-05-02T23:49:30+05:30*%
%TF.ProjectId,Si4732Board,53693437-3332-4426-9f61-72642e6b6963,rev?*%
%TF.SameCoordinates,Original*%
%TF.FileFunction,Copper,L1,Top*%
%TF.FilePolarity,Positive*%
%FSLAX46Y46*%
G04 Gerber Fmt 4.6, Leading zero omitted, Abs format (unit mm)*
G04 Created by KiCad (PCBNEW 8.0.4) date 2025-05-02 23:49:30*
%MOMM*%
%LPD*%
G01*
G04 APERTURE LIST*
G04 Aperture macros list*
%AMRoundRect*
0 Rectangle with rounded corners*
0 $1 Rounding radius*
0 $2 $3 $4 $5 $6 $7 $8 $9 X,Y pos of 4 corners*
0 Add a 4 corners polygon primitive as box body*
4,1,4,$2,$3,$4,$5,$6,$7,$8,$9,$2,$3,0*
0 Add four circle primitives for the rounded corners*
1,1,$1+$1,$2,$3*
1,1,$1+$1,$4,$5*
1,1,$1+$1,$6,$7*
1,1,$1+$1,$8,$9*
0 Add four rect primitives between the rounded corners*
20,1,$1+$1,$2,$3,$4,$5,0*
20,1,$1+$1,$4,$5,$6,$7,0*
20,1,$1+$1,$6,$7,$8,$9,0*
20,1,$1+$1,$8,$9,$2,$3,0*%
G04 Aperture macros list end*
%TA.AperFunction,SMDPad,CuDef*%
%ADD10R,1.761200X0.850800*%
%TD*%
%TA.AperFunction,SMDPad,CuDef*%
%ADD11R,1.761200X3.150799*%
%TD*%
%TA.AperFunction,ComponentPad*%
%ADD12R,1.700000X1.700000*%
%TD*%
%TA.AperFunction,ComponentPad*%
%ADD13O,1.700000X1.700000*%
%TD*%
%TA.AperFunction,ComponentPad*%
%ADD14R,1.350000X1.350000*%
%TD*%
%TA.AperFunction,ComponentPad*%
%ADD15O,1.350000X1.350000*%
%TD*%
%TA.AperFunction,ComponentPad*%
%ADD16C,2.050000*%
%TD*%
%TA.AperFunction,ComponentPad*%
%ADD17C,2.250000*%
%TD*%
%TA.AperFunction,SMDPad,CuDef*%
%ADD18RoundRect,0.250000X-0.350000X-0.450000X0.350000X-0.450000X0.350000X0.450000X-0.350000X0.450000X0*%
%TD*%
%TA.AperFunction,ComponentPad*%
%ADD19C,1.000000*%
%TD*%
%TA.AperFunction,ComponentPad*%
%ADD20R,1.500000X1.500000*%
%TD*%
%TA.AperFunction,ComponentPad*%
%ADD21O,1.500000X1.500000*%
%TD*%
%TA.AperFunction,SMDPad,CuDef*%
%ADD22RoundRect,0.250000X-0.450000X0.350000X-0.450000X-0.350000X0.450000X-0.350000X0.450000X0.350000X0*%
%TD*%
%TA.AperFunction,SMDPad,CuDef*%
%ADD23RoundRect,0.250000X0.337500X0.475000X-0.337500X0.475000X-0.337500X-0.475000X0.337500X-0.475000X0*%
%TD*%
%TA.AperFunction,SMDPad,CuDef*%
%ADD24RoundRect,0.250000X0.475000X-0.337500X0.475000X0.337500X-0.475000X0.337500X-0.475000X-0.337500X0*%
%TD*%
%TA.AperFunction,SMDPad,CuDef*%
%ADD25RoundRect,0.250000X-0.337500X-0.475000X0.337500X-0.475000X0.337500X0.475000X-0.337500X0.475000X0*%
%TD*%
%TA.AperFunction,SMDPad,CuDef*%
%ADD26RoundRect,0.250000X-0.475000X0.337500X-0.475000X-0.337500X0.475000X-0.337500X0.475000X0.337500X0*%
%TD*%
%TA.AperFunction,SMDPad,CuDef*%
%ADD27RoundRect,0.250000X1.500000X0.550000X-1.500000X0.550000X-1.500000X-0.550000X1.500000X-0.550000X0*%
%TD*%
%TA.AperFunction,SMDPad,CuDef*%
%ADD28RoundRect,0.250000X-1.500000X-0.550000X1.500000X-0.550000X1.500000X0.550000X-1.500000X0.550000X0*%
%TD*%
%TA.AperFunction,ComponentPad*%
%ADD29C,1.600000*%
%TD*%
%TA.AperFunction,ComponentPad*%
%ADD30O,1.600000X1.600000*%
%TD*%
%TA.AperFunction,ViaPad*%
%ADD31C,0.600000*%
%TD*%
%TA.AperFunction,Conductor*%
%ADD32C,0.200000*%
%TD*%
G04 APERTURE END LIST*
D10*
%TO.P,U1,1,GND*%
%TO.N,GND*%
X136475000Y-104985000D03*
%TO.P,U1,2,VOUT*%
%TO.N,unconnected-(U1-VOUT-Pad2)*%
X136475000Y-107285000D03*
%TO.P,U1,3,VIN*%
%TO.N,Net-(D1-K)*%
X136475000Y-109585000D03*
D11*
%TO.P,U1,4,VOUT*%
%TO.N,3V3R2*%
X142525000Y-107285000D03*
%TD*%
D12*
%TO.P,J3,1,Pin_1*%
%TO.N,SCL*%
X152065000Y-103335000D03*
D13*
%TO.P,J3,2,Pin_2*%
%TO.N,SDA*%
X152065000Y-105875000D03*
%TO.P,J3,3,Pin_3*%
%TO.N,GND*%
X152065000Y-108415000D03*
%TO.P,J3,4,Pin_4*%
%TO.N,DOUT*%
X152065000Y-110955000D03*
%TO.P,J3,5,Pin_5*%
%TO.N,DFS*%
X152065000Y-113495000D03*
%TO.P,J3,6,Pin_6*%
%TO.N,GPIO2*%
X152065000Y-116035000D03*
%TO.P,J3,7,Pin_7*%
%TO.N,RCLK*%
X152065000Y-118575000D03*
%TD*%
D14*
%TO.P,J7,1,Pin_1*%
%TO.N,AMANT*%
X141125000Y-74385000D03*
D15*
%TO.P,J7,2,Pin_2*%
%TO.N,RFGND*%
X141125000Y-76385000D03*
%TO.P,J7,3,Pin_3*%
%TO.N,FMANT*%
X141125000Y-78385000D03*
%TD*%
D16*
%TO.P,J5,1,In*%
%TO.N,FMANT*%
X132385000Y-75645000D03*
D17*
%TO.P,J5,2,Ext*%
%TO.N,RFGND*%
X134925000Y-73105000D03*
X129845000Y-73105000D03*
X134925000Y-78185000D03*
X129845000Y-78185000D03*
%TD*%
D18*
%TO.P,R1,1*%
%TO.N,3V3R2*%
X145275000Y-106285000D03*
%TO.P,R1,2*%
%TO.N,SDA*%
X147275000Y-106285000D03*
%TD*%
D19*
%TO.P,Y1,1,1*%
%TO.N,Net-(C9-Pad1)*%
X140075000Y-87810000D03*
%TO.P,Y1,2,2*%
%TO.N,RCLK*%
X141975000Y-87810000D03*
%TD*%
D20*
%TO.P,D1,1,K*%
%TO.N,Net-(D1-K)*%
X136365000Y-114110000D03*
D21*
%TO.P,D1,2,A*%
%TO.N,9V*%
X146525000Y-114110000D03*
%TD*%
D12*
%TO.P,J4,1,Pin_1*%
%TO.N,SCL1*%
X152065000Y-84285000D03*
D13*
%TO.P,J4,2,Pin_2*%
%TO.N,SDA1*%
X152065000Y-86825000D03*
%TO.P,J4,3,Pin_3*%
%TO.N,RST*%
X152065000Y-89365000D03*
%TO.P,J4,4,Pin_4*%
%TO.N,3V3R2*%
X152065000Y-91905000D03*
%TO.P,J4,5,Pin_5*%
%TO.N,ROUT*%
X152065000Y-94445000D03*
%TO.P,J4,6,Pin_6*%
%TO.N,LOUT*%
X152065000Y-96985000D03*
%TO.P,J4,7,Pin_7*%
%TO.N,GND*%
X152065000Y-99525000D03*
%TD*%
D18*
%TO.P,R3,1*%
%TO.N,3V3R2*%
X145275000Y-86935000D03*
%TO.P,R3,2*%
%TO.N,SDA1*%
X147275000Y-86935000D03*
%TD*%
D22*
%TO.P,R5,1*%
%TO.N,Net-(C9-Pad1)*%
X134000000Y-95560000D03*
%TO.P,R5,2*%
%TO.N,DCLK*%
X134000000Y-97560000D03*
%TD*%
D23*
%TO.P,C5,1*%
%TO.N,LOUT*%
X147225000Y-97135000D03*
%TO.P,C5,2*%
%TO.N,DFS*%
X145150000Y-97135000D03*
%TD*%
D24*
%TO.P,C9,1*%
%TO.N,Net-(C9-Pad1)*%
X137650000Y-85560000D03*
%TO.P,C9,2*%
%TO.N,GND*%
X137650000Y-83485000D03*
%TD*%
D25*
%TO.P,C1,1*%
%TO.N,Net-(D1-K)*%
X131475000Y-104910000D03*
%TO.P,C1,2*%
%TO.N,GND*%
X133550000Y-104910000D03*
%TD*%
D23*
%TO.P,C3,1*%
%TO.N,3V3R2*%
X131850000Y-101085000D03*
%TO.P,C3,2*%
%TO.N,GND*%
X129775000Y-101085000D03*
%TD*%
D18*
%TO.P,R2,1*%
%TO.N,3V3R2*%
X145275000Y-102885000D03*
%TO.P,R2,2*%
%TO.N,SCL*%
X147275000Y-102885000D03*
%TD*%
D26*
%TO.P,C10,1*%
%TO.N,AMANT*%
X144025000Y-76435000D03*
%TO.P,C10,2*%
%TO.N,Net-(U2-AMI)*%
X144025000Y-78510000D03*
%TD*%
D24*
%TO.P,C7,1*%
%TO.N,Net-(U2-FMI)*%
X137825000Y-80885000D03*
%TO.P,C7,2*%
%TO.N,FMANT*%
X137825000Y-78810000D03*
%TD*%
D18*
%TO.P,R6,1*%
%TO.N,RST*%
X145300000Y-89560000D03*
%TO.P,R6,2*%
%TO.N,Net-(U2-\u002ARST)*%
X147300000Y-89560000D03*
%TD*%
D12*
%TO.P,J2,1,Pin_1*%
%TO.N,GND*%
X146625000Y-118685000D03*
D13*
%TO.P,J2,2,Pin_2*%
X144085000Y-118685000D03*
%TO.P,J2,3,Pin_3*%
%TO.N,3V3R2*%
X141545000Y-118685000D03*
%TO.P,J2,4,Pin_4*%
%TO.N,9V*%
X139005000Y-118685000D03*
%TO.P,J2,5,Pin_5*%
%TO.N,GND*%
X136465000Y-118685000D03*
%TD*%
D18*
%TO.P,R4,1*%
%TO.N,3V3R2*%
X145250000Y-83585000D03*
%TO.P,R4,2*%
%TO.N,SCL1*%
X147250000Y-83585000D03*
%TD*%
D24*
%TO.P,C8,1*%
%TO.N,RCLK*%
X142300000Y-85485000D03*
%TO.P,C8,2*%
%TO.N,GND*%
X142300000Y-83410000D03*
%TD*%
D27*
%TO.P,C4,1*%
%TO.N,3V3R2*%
X134050000Y-90110000D03*
%TO.P,C4,2*%
%TO.N,GND*%
X128450000Y-90110000D03*
%TD*%
D16*
%TO.P,J1,1,In*%
%TO.N,AMANT*%
X149475000Y-75735000D03*
D17*
%TO.P,J1,2,Ext*%
%TO.N,RFGND*%
X146935000Y-73195000D03*
X146935000Y-78275000D03*
X152015000Y-73195000D03*
X152015000Y-78275000D03*
%TD*%
D14*
%TO.P,J6,1,Pin_1*%
%TO.N,3V3R2*%
X142275000Y-101535000D03*
D15*
%TO.P,J6,2,Pin_2*%
%TO.N,SEN*%
X140275000Y-101535000D03*
%TO.P,J6,3,Pin_3*%
%TO.N,GND*%
X138275000Y-101535000D03*
%TD*%
D25*
%TO.P,C6,1*%
%TO.N,DOUT*%
X145225000Y-92335000D03*
%TO.P,C6,2*%
%TO.N,ROUT*%
X147300000Y-92335000D03*
%TD*%
D28*
%TO.P,C2,1*%
%TO.N,Net-(D1-K)*%
X127825000Y-111535000D03*
%TO.P,C2,2*%
%TO.N,GND*%
X133425000Y-111535000D03*
%TD*%
D29*
%TO.P,L1,1,1*%
%TO.N,AMANT*%
X143175000Y-81285000D03*
D30*
%TO.P,L1,2,2*%
%TO.N,RFGND*%
X133015000Y-81285000D03*
%TD*%
D31*
%TO.N,3V3R2*%
X144019800Y-96790000D03*
X134927000Y-104059300D03*
%TO.N,SDA*%
X143606800Y-100183800D03*
X144124600Y-95120600D03*
%TO.N,SCL*%
X146174000Y-95972800D03*
%TO.N,ROUT*%
X150057300Y-112321300D03*
%TO.N,DFS*%
X145354000Y-95498000D03*
X145220800Y-100210800D03*
%TO.N,DOUT*%
X142246300Y-100230700D03*
%TO.N,Net-(U2-FMI)*%
X135394600Y-92107300D03*
%TO.N,RCLK*%
X139770200Y-95456800D03*
X141634900Y-121156100D03*
%TO.N,Net-(U2-AMI)*%
X142525400Y-89148600D03*
%TO.N,GPIO2*%
X149455500Y-111445300D03*
%TO.N,SEN*%
X141000800Y-91677100D03*
%TO.N,DCLK*%
X133909800Y-98707400D03*
%TO.N,Net-(U2-\u002ARST)*%
X146866600Y-91075500D03*
%TD*%
D32*
%TO.N,AMANT*%
X144025000Y-76435000D02*
X142982800Y-76435000D01*
X141125000Y-75361700D02*
X141909500Y-75361700D01*
X142982800Y-76435000D02*
X142982800Y-81092800D01*
X142982800Y-81092800D02*
X143175000Y-81285000D01*
X141909500Y-75361700D02*
X142982800Y-76435000D01*
X141125000Y-74385000D02*
X141125000Y-75361700D01*
%TO.N,FMANT*%
X137825000Y-78810000D02*
X139723300Y-78810000D01*
X139723300Y-78810000D02*
X140148300Y-78385000D01*
X141125000Y-78385000D02*
X140148300Y-78385000D01*
%TO.N,RFGND*%
X133015000Y-81285000D02*
X133015000Y-80095000D01*
X133015000Y-80095000D02*
X134925000Y-78185000D01*
X146935000Y-73195000D02*
X146935000Y-78275000D01*
X129845000Y-73105000D02*
X129845000Y-78185000D01*
%TO.N,3V3R2*%
X145275000Y-86935000D02*
X145250000Y-86910000D01*
X142275000Y-101535000D02*
X141640800Y-100900800D01*
X145275000Y-105407900D02*
X145275000Y-102885000D01*
X131850000Y-92310000D02*
X134050000Y-90110000D01*
X142525000Y-107285000D02*
X142525000Y-109162100D01*
X145275000Y-106285000D02*
X145275000Y-105407900D01*
X141640800Y-90884100D02*
X145275000Y-87249900D01*
X141545000Y-110142100D02*
X142525000Y-109162100D01*
X142525000Y-107285000D02*
X142525000Y-105407900D01*
X131952700Y-101085000D02*
X131850000Y-101085000D01*
X134927000Y-104059300D02*
X131952700Y-101085000D01*
X145275000Y-105407900D02*
X142525000Y-105407900D01*
X142525000Y-105407900D02*
X142525000Y-102761700D01*
X144208500Y-101409000D02*
X144208500Y-96979900D01*
X131850000Y-101085000D02*
X131850000Y-92310000D01*
X142525000Y-102761700D02*
X142855800Y-102761700D01*
X144208500Y-96979900D02*
X144019800Y-96791200D01*
X145250000Y-86910000D02*
X145250000Y-83585000D01*
X142525000Y-102761700D02*
X142275000Y-102511700D01*
X145275000Y-87249900D02*
X145275000Y-86935000D01*
X141545000Y-118685000D02*
X141545000Y-110142100D01*
X141640800Y-100900800D02*
X141640800Y-90884100D01*
X142275000Y-101535000D02*
X142275000Y-102511700D01*
X144019800Y-96791200D02*
X144019800Y-96790000D01*
X142855800Y-102761700D02*
X144208500Y-101409000D01*
%TO.N,Net-(D1-K)*%
X135292700Y-110312100D02*
X135292700Y-109585000D01*
X135292700Y-109585000D02*
X133073800Y-109585000D01*
X133073800Y-109585000D02*
X131475000Y-107986200D01*
X136365000Y-111384400D02*
X135292700Y-110312100D01*
X127926200Y-111535000D02*
X131475000Y-107986200D01*
X136365000Y-114110000D02*
X136365000Y-113058300D01*
X135294200Y-109585000D02*
X135292700Y-109585000D01*
X131475000Y-107986200D02*
X131475000Y-104910000D01*
X135393600Y-109585000D02*
X135294200Y-109585000D01*
X136475000Y-109585000D02*
X135393600Y-109585000D01*
X127825000Y-111535000D02*
X127926200Y-111535000D01*
X136365000Y-113058300D02*
X136365000Y-111384400D01*
%TO.N,SDA*%
X143606800Y-100183800D02*
X143405500Y-99982500D01*
X143405500Y-99982500D02*
X143405500Y-95839700D01*
X147685000Y-105875000D02*
X147275000Y-106285000D01*
X143405500Y-95839700D02*
X144124600Y-95120600D01*
X152065000Y-105875000D02*
X147685000Y-105875000D01*
%TO.N,LOUT*%
X147375000Y-96985000D02*
X147225000Y-97135000D01*
X152065000Y-96985000D02*
X147375000Y-96985000D01*
%TO.N,SCL*%
X146174000Y-95972800D02*
X146174000Y-101784000D01*
X152065000Y-103335000D02*
X147725000Y-103335000D01*
X146174000Y-101784000D02*
X147275000Y-102885000D01*
X147725000Y-103335000D02*
X147275000Y-102885000D01*
%TO.N,ROUT*%
X152333500Y-95596700D02*
X152065000Y-95596700D01*
X150055700Y-112321300D02*
X150057300Y-112321300D01*
X152355200Y-112321300D02*
X153631300Y-111045200D01*
X151311600Y-112321300D02*
X150055700Y-112321300D01*
X149410000Y-94445000D02*
X147300000Y-92335000D01*
X153631300Y-96894500D02*
X152333500Y-95596700D01*
X152065000Y-94445000D02*
X152065000Y-95596700D01*
X150913300Y-94445000D02*
X149410000Y-94445000D01*
X152065000Y-94445000D02*
X150913300Y-94445000D01*
X150055700Y-112321300D02*
X151311600Y-112321300D01*
X150055700Y-112321300D02*
X152355200Y-112321300D01*
X153631300Y-111045200D02*
X153631300Y-96894500D01*
%TO.N,RST*%
X146342400Y-88517600D02*
X150065900Y-88517600D01*
X150065900Y-88517600D02*
X150913300Y-89365000D01*
X145300000Y-89560000D02*
X146342400Y-88517600D01*
X152065000Y-89365000D02*
X150913300Y-89365000D01*
%TO.N,GND*%
X152353000Y-107263300D02*
X153223000Y-106393300D01*
X140895500Y-83485000D02*
X140895500Y-89963000D01*
X153223000Y-106393300D02*
X153223000Y-101834700D01*
X136475000Y-104985000D02*
X137066200Y-104985000D01*
X152065000Y-108415000D02*
X152065000Y-107263300D01*
X140895500Y-83485000D02*
X142225000Y-83485000D01*
X133550000Y-104910000D02*
X135217700Y-104910000D01*
X128450000Y-99760000D02*
X129775000Y-101085000D01*
X133550000Y-104860000D02*
X133550000Y-104910000D01*
X140895500Y-89963000D02*
X138275000Y-92583500D01*
X152065000Y-99525000D02*
X152065000Y-100676700D01*
X129775000Y-101085000D02*
X133550000Y-104860000D01*
X136465000Y-117533300D02*
X133425000Y-114493300D01*
X137066200Y-104985000D02*
X137657300Y-105576100D01*
X138275000Y-101535000D02*
X138275000Y-102511700D01*
X142225000Y-83485000D02*
X142300000Y-83410000D01*
X128450000Y-90110000D02*
X128450000Y-99760000D01*
X138275000Y-92583500D02*
X138275000Y-101535000D01*
X133425000Y-114493300D02*
X133425000Y-111535000D01*
X138275000Y-102511700D02*
X137657300Y-103129400D01*
X137066200Y-104985000D02*
X137657300Y-104985000D01*
X137657300Y-116341000D02*
X136465000Y-117533300D01*
X137657300Y-105576100D02*
X137657300Y-116341000D01*
X137657300Y-103129400D02*
X137657300Y-104985000D01*
X136475000Y-104985000D02*
X135292700Y-104985000D01*
X153223000Y-101834700D02*
X152065000Y-100676700D01*
X137650000Y-83485000D02*
X140895500Y-83485000D01*
X152065000Y-107263300D02*
X152353000Y-107263300D01*
X135217700Y-104910000D02*
X135292700Y-104985000D01*
X136465000Y-118685000D02*
X136465000Y-117533300D01*
%TO.N,DFS*%
X145150000Y-97135000D02*
X145220800Y-97205800D01*
X145150000Y-95702000D02*
X145150000Y-97135000D01*
X145354000Y-95498000D02*
X145150000Y-95702000D01*
X145220800Y-97205800D02*
X145220800Y-100210800D01*
X145150000Y-95702000D02*
X145354000Y-95498000D01*
X145354000Y-95498000D02*
X145150000Y-95702000D01*
%TO.N,DOUT*%
X142246300Y-95313700D02*
X145225000Y-92335000D01*
X142246300Y-100230700D02*
X142246300Y-95313700D01*
%TO.N,Net-(U2-FMI)*%
X136113600Y-91388300D02*
X136113600Y-82596300D01*
X136113700Y-82596300D02*
X137825000Y-80885000D01*
X136113600Y-82596300D02*
X136113700Y-82596300D01*
X135394600Y-92107300D02*
X136113600Y-91388300D01*
%TO.N,RCLK*%
X141975000Y-87810000D02*
X142300000Y-87485000D01*
X142300000Y-87485000D02*
X142300000Y-85485000D01*
X140275000Y-119796200D02*
X141634900Y-121156100D01*
X139770200Y-95456800D02*
X139275100Y-95951900D01*
X141923700Y-89578500D02*
X141923700Y-87861300D01*
X139770200Y-91732000D02*
X141923700Y-89578500D01*
X140275000Y-108706200D02*
X140275000Y-119796200D01*
X139770200Y-95456800D02*
X139770200Y-91732000D01*
X139275100Y-95951900D02*
X139275100Y-107706300D01*
X141923700Y-87861300D02*
X141975000Y-87810000D01*
X139275100Y-107706300D02*
X140275000Y-108706200D01*
%TO.N,Net-(C9-Pad1)*%
X134000000Y-95560000D02*
X137650000Y-91910000D01*
X139900000Y-87810000D02*
X137650000Y-85560000D01*
X137650000Y-91910000D02*
X137650000Y-85560000D01*
X140075000Y-87810000D02*
X139900000Y-87810000D01*
%TO.N,Net-(U2-AMI)*%
X144025000Y-78510000D02*
X144286100Y-78771100D01*
X142525400Y-89148600D02*
X144148500Y-87525500D01*
X144148500Y-87525500D02*
X142525400Y-89148600D01*
X144286100Y-87387900D02*
X142525400Y-89148600D01*
X144286100Y-78771100D02*
X144286100Y-87387900D01*
%TO.N,GPIO2*%
X152065000Y-116035000D02*
X152065000Y-114883300D01*
X152065000Y-114883300D02*
X151705100Y-114883300D01*
X149455500Y-112633700D02*
X149455500Y-111445300D01*
X151705100Y-114883300D02*
X149455500Y-112633700D01*
X149455500Y-111445300D02*
X149455500Y-111527900D01*
X149455500Y-111527900D02*
X149455500Y-111445300D01*
%TO.N,SDA1*%
X152065000Y-86825000D02*
X147385000Y-86825000D01*
X147385000Y-86825000D02*
X147275000Y-86935000D01*
%TO.N,SCL1*%
X150213300Y-83585000D02*
X150913300Y-84285000D01*
X152065000Y-84285000D02*
X150913300Y-84285000D01*
X147250000Y-83585000D02*
X150213300Y-83585000D01*
%TO.N,SEN*%
X140275000Y-100558300D02*
X141000800Y-99832500D01*
X140275000Y-101535000D02*
X140275000Y-100558300D01*
X141000800Y-99832500D02*
X141000800Y-91677100D01*
%TO.N,DCLK*%
X133932400Y-98684800D02*
X133909800Y-98707400D01*
X134000000Y-98617200D02*
X134000000Y-97560000D01*
X133909800Y-98707400D02*
X134000000Y-98617200D01*
X133909800Y-98707400D02*
X133932400Y-98684800D01*
%TO.N,Net-(U2-\u002ARST)*%
X147300000Y-90642100D02*
X147300000Y-89560000D01*
X146866600Y-91075500D02*
X147300000Y-90642100D01*
%TD*%
%TA.AperFunction,NonConductor*%
G36*
X142328806Y-76922409D02*
G01*
X142372761Y-76976721D01*
X142382300Y-77024414D01*
X142382300Y-77745585D01*
X142362615Y-77812624D01*
X142309811Y-77858379D01*
X142240653Y-77868323D01*
X142177097Y-77839298D01*
X142147300Y-77800857D01*
X142134809Y-77775773D01*
X142128712Y-77763528D01*
X141997427Y-77589678D01*
X141873423Y-77476634D01*
X141837145Y-77416927D01*
X141838905Y-77347079D01*
X141873423Y-77293365D01*
X141997427Y-77180322D01*
X142128712Y-77006472D01*
X142128713Y-77006470D01*
X142147300Y-76969143D01*
X142194803Y-76917905D01*
X142262465Y-76900484D01*
X142328806Y-76922409D01*
G37*
%TD.AperFunction*%
%TA.AperFunction,NonConductor*%
G36*
X142328806Y-78922409D02*
G01*
X142372761Y-78976721D01*
X142382300Y-79024414D01*
X142382300Y-80188164D01*
X142362615Y-80255203D01*
X142338009Y-80283151D01*
X142335863Y-80284951D01*
X142174951Y-80445862D01*
X142044432Y-80632265D01*
X142044431Y-80632267D01*
X141948261Y-80838502D01*
X141948258Y-80838511D01*
X141889366Y-81058302D01*
X141889364Y-81058313D01*
X141869532Y-81284998D01*
X141869532Y-81285001D01*
X141889364Y-81511686D01*
X141889366Y-81511697D01*
X141948258Y-81731488D01*
X141948261Y-81731497D01*
X142044431Y-81937732D01*
X142044432Y-81937734D01*
X142176870Y-82126877D01*
X142199197Y-82193083D01*
X142182187Y-82260851D01*
X142131238Y-82308663D01*
X142075295Y-82322000D01*
X141774999Y-82322000D01*
X141774980Y-82322001D01*
X141672203Y-82332500D01*
X141672200Y-82332501D01*
X141505668Y-82387685D01*
X141505663Y-82387687D01*
X141356342Y-82479789D01*
X141232289Y-82603842D01*
X141140187Y-82753163D01*
X141140186Y-82753166D01*
X141124831Y-82799505D01*
X141085058Y-82856950D01*
X141020541Y-82883772D01*
X141007125Y-82884500D01*
X138913768Y-82884500D01*
X138846729Y-82864815D01*
X138808229Y-82825597D01*
X138802102Y-82815663D01*
X138717712Y-82678844D01*
X138593656Y-82554788D01*
X138500888Y-82497569D01*
X138444336Y-82462687D01*
X138444331Y-82462685D01*
X138442862Y-82462198D01*
X138277797Y-82407501D01*
X138277795Y-82407500D01*
X138175016Y-82397000D01*
X138175009Y-82397000D01*
X137461596Y-82397000D01*
X137394557Y-82377315D01*
X137348802Y-82324511D01*
X137338858Y-82255353D01*
X137367883Y-82191797D01*
X137373915Y-82185319D01*
X137549916Y-82009318D01*
X137611239Y-81975833D01*
X137637597Y-81972999D01*
X138350002Y-81972999D01*
X138350008Y-81972999D01*
X138452797Y-81962499D01*
X138619334Y-81907314D01*
X138768656Y-81815212D01*
X138892712Y-81691156D01*
X138984814Y-81541834D01*
X139039999Y-81375297D01*
X139050500Y-81272509D01*
X139050499Y-80497492D01*
X139039999Y-80394703D01*
X138984814Y-80228166D01*
X138892712Y-80078844D01*
X138768656Y-79954788D01*
X138765819Y-79953038D01*
X138764283Y-79951330D01*
X138762989Y-79950307D01*
X138763163Y-79950085D01*
X138719096Y-79901094D01*
X138707872Y-79832132D01*
X138735713Y-79768049D01*
X138765817Y-79741962D01*
X138768656Y-79740212D01*
X138892712Y-79616156D01*
X138983229Y-79469402D01*
X139035177Y-79422679D01*
X139088768Y-79410500D01*
X139636631Y-79410500D01*
X139636647Y-79410501D01*
X139644243Y-79410501D01*
X139802354Y-79410501D01*
X139802357Y-79410501D01*
X139955085Y-79369577D01*
X140022461Y-79330677D01*
X140092016Y-79290520D01*
X140142509Y-79240026D01*
X140203830Y-79206542D01*
X140273522Y-79211526D01*
X140313726Y-79236070D01*
X140413568Y-79327088D01*
X140413575Y-79327092D01*
X140413576Y-79327093D01*
X140598786Y-79441770D01*
X140598792Y-79441773D01*
X140621664Y-79450633D01*
X140801931Y-79520470D01*
X141016074Y-79560500D01*
X141016076Y-79560500D01*
X141233924Y-79560500D01*
X141233926Y-79560500D01*
X141448069Y-79520470D01*
X141651210Y-79441772D01*
X141836432Y-79327088D01*
X141997427Y-79180322D01*
X142128712Y-79006472D01*
X142136152Y-78991531D01*
X142147300Y-78969143D01*
X142194803Y-78917905D01*
X142262465Y-78900484D01*
X142328806Y-78922409D01*
G37*
%TD.AperFunction*%
%TA.AperFunction,NonConductor*%
G36*
X143641053Y-84042813D02*
G01*
X143679910Y-84100882D01*
X143685600Y-84138014D01*
X143685600Y-84756985D01*
X143665915Y-84824024D01*
X143613111Y-84869779D01*
X143543953Y-84879723D01*
X143480397Y-84850698D01*
X143456061Y-84822082D01*
X143367712Y-84678844D01*
X143243656Y-84554788D01*
X143240819Y-84553038D01*
X143239283Y-84551330D01*
X143237989Y-84550307D01*
X143238163Y-84550085D01*
X143194096Y-84501094D01*
X143182872Y-84432132D01*
X143210713Y-84368049D01*
X143240817Y-84341962D01*
X143243656Y-84340212D01*
X143367712Y-84216156D01*
X143456061Y-84072917D01*
X143508009Y-84026193D01*
X143576971Y-84014970D01*
X143641053Y-84042813D01*
G37*
%TD.AperFunction*%
%TA.AperFunction,NonConductor*%
G36*
X149980242Y-84205185D02*
G01*
X150000884Y-84221819D01*
X150428439Y-84649374D01*
X150428449Y-84649385D01*
X150432779Y-84653715D01*
X150432780Y-84653716D01*
X150544584Y-84765520D01*
X150544586Y-84765521D01*
X150544590Y-84765524D01*
X150652499Y-84827825D01*
X150700715Y-84878391D01*
X150714500Y-84935212D01*
X150714500Y-85182869D01*
X150714501Y-85182876D01*
X150720908Y-85242483D01*
X150771202Y-85377328D01*
X150771206Y-85377335D01*
X150857452Y-85492544D01*
X150857455Y-85492547D01*
X150972664Y-85578793D01*
X150972671Y-85578797D01*
X151104081Y-85627810D01*
X151160015Y-85669681D01*
X151184432Y-85735145D01*
X151169580Y-85803418D01*
X151148430Y-85831673D01*
X151026503Y-85953600D01*
X150890965Y-86147170D01*
X150890962Y-86147175D01*
X150888289Y-86152909D01*
X150842115Y-86205346D01*
X150775909Y-86224500D01*
X148415310Y-86224500D01*
X148348271Y-86204815D01*
X148309771Y-86165597D01*
X148298867Y-86147918D01*
X148217712Y-86016344D01*
X148093656Y-85892288D01*
X148000888Y-85835069D01*
X147944336Y-85800187D01*
X147944331Y-85800185D01*
X147935492Y-85797256D01*
X147777797Y-85745001D01*
X147777795Y-85745000D01*
X147675010Y-85734500D01*
X146874998Y-85734500D01*
X146874980Y-85734501D01*
X146772203Y-85745000D01*
X146772200Y-85745001D01*
X146605668Y-85800185D01*
X146605663Y-85800187D01*
X146456342Y-85892289D01*
X146362681Y-85985951D01*
X146301358Y-86019436D01*
X146231666Y-86014452D01*
X146187319Y-85985951D01*
X146093657Y-85892289D01*
X146093656Y-85892288D01*
X145944334Y-85800186D01*
X145944333Y-85800185D01*
X145944332Y-85800185D01*
X145935493Y-85797256D01*
X145878049Y-85757482D01*
X145851228Y-85692965D01*
X145850500Y-85679551D01*
X145850500Y-84830908D01*
X145870185Y-84763869D01*
X145914271Y-84725363D01*
X145913187Y-84723605D01*
X145919332Y-84719814D01*
X145919334Y-84719814D01*
X146068656Y-84627712D01*
X146162319Y-84534049D01*
X146223642Y-84500564D01*
X146293334Y-84505548D01*
X146337681Y-84534049D01*
X146431344Y-84627712D01*
X146580666Y-84719814D01*
X146747203Y-84774999D01*
X146849991Y-84785500D01*
X147650008Y-84785499D01*
X147650016Y-84785498D01*
X147650019Y-84785498D01*
X147706302Y-84779748D01*
X147752797Y-84774999D01*
X147919334Y-84719814D01*
X148068656Y-84627712D01*
X148192712Y-84503656D01*
X148284814Y-84354334D01*
X148312595Y-84270495D01*
X148352368Y-84213051D01*
X148416884Y-84186228D01*
X148430301Y-84185500D01*
X149913203Y-84185500D01*
X149980242Y-84205185D01*
G37*
%TD.AperFunction*%
%TA.AperFunction,NonConductor*%
G36*
X140238039Y-84105185D02*
G01*
X140283794Y-84157989D01*
X140295000Y-84209500D01*
X140295000Y-86689513D01*
X140275315Y-86756552D01*
X140222511Y-86802307D01*
X140158847Y-86812916D01*
X140075001Y-86804659D01*
X140075000Y-86804659D01*
X139878868Y-86823975D01*
X139878865Y-86823976D01*
X139861249Y-86829320D01*
X139791382Y-86829942D01*
X139737577Y-86798341D01*
X139328548Y-86389312D01*
X138911818Y-85972582D01*
X138878333Y-85911259D01*
X138875499Y-85884901D01*
X138875499Y-85172498D01*
X138875498Y-85172481D01*
X138864999Y-85069703D01*
X138864998Y-85069700D01*
X138840146Y-84994703D01*
X138809814Y-84903166D01*
X138717712Y-84753844D01*
X138593656Y-84629788D01*
X138590819Y-84628038D01*
X138589283Y-84626330D01*
X138587989Y-84625307D01*
X138588163Y-84625085D01*
X138544096Y-84576094D01*
X138532872Y-84507132D01*
X138560713Y-84443049D01*
X138590817Y-84416962D01*
X138593656Y-84415212D01*
X138717712Y-84291156D01*
X138808229Y-84144402D01*
X138860177Y-84097679D01*
X138913768Y-84085500D01*
X140171000Y-84085500D01*
X140238039Y-84105185D01*
G37*
%TD.AperFunction*%
%TA.AperFunction,NonConductor*%
G36*
X143641053Y-86117813D02*
G01*
X143679910Y-86175882D01*
X143685600Y-86213014D01*
X143685600Y-87087802D01*
X143665915Y-87154841D01*
X143649281Y-87175483D01*
X143165467Y-87659296D01*
X143104144Y-87692781D01*
X143034452Y-87687797D01*
X142978519Y-87645925D01*
X142959126Y-87607613D01*
X142909854Y-87445185D01*
X142905839Y-87431948D01*
X142900500Y-87395953D01*
X142900500Y-86661085D01*
X142920185Y-86594046D01*
X142972989Y-86548291D01*
X142985489Y-86543381D01*
X143094334Y-86507314D01*
X143243656Y-86415212D01*
X143367712Y-86291156D01*
X143456061Y-86147917D01*
X143508009Y-86101193D01*
X143576971Y-86089970D01*
X143641053Y-86117813D01*
G37*
%TD.AperFunction*%
%TA.AperFunction,NonConductor*%
G36*
X150842948Y-87445185D02*
G01*
X150888292Y-87497097D01*
X150890965Y-87502830D01*
X151023970Y-87692781D01*
X151026501Y-87696395D01*
X151026506Y-87696402D01*
X151193597Y-87863493D01*
X151193603Y-87863498D01*
X151379158Y-87993425D01*
X151422783Y-88048002D01*
X151429977Y-88117500D01*
X151398454Y-88179855D01*
X151379158Y-88196575D01*
X151193597Y-88326505D01*
X151046500Y-88473603D01*
X150985177Y-88507088D01*
X150915485Y-88502104D01*
X150871138Y-88473603D01*
X150553490Y-88155955D01*
X150553488Y-88155952D01*
X150434617Y-88037081D01*
X150434609Y-88037075D01*
X150331788Y-87977712D01*
X150331785Y-87977711D01*
X150297686Y-87958023D01*
X150297687Y-87958023D01*
X150236593Y-87941653D01*
X150144957Y-87917099D01*
X149986843Y-87917099D01*
X149979247Y-87917099D01*
X149979231Y-87917100D01*
X148400753Y-87917100D01*
X148333714Y-87897415D01*
X148287959Y-87844611D01*
X148278015Y-87775453D01*
X148295214Y-87728004D01*
X148309814Y-87704334D01*
X148364999Y-87537797D01*
X148365091Y-87536895D01*
X148365302Y-87536376D01*
X148366417Y-87531173D01*
X148367345Y-87531371D01*
X148391488Y-87472205D01*
X148448669Y-87432054D01*
X148488449Y-87425500D01*
X150775909Y-87425500D01*
X150842948Y-87445185D01*
G37*
%TD.AperFunction*%
%TA.AperFunction,NonConductor*%
G36*
X138455703Y-87215384D02*
G01*
X138462177Y-87221412D01*
X138771937Y-87531173D01*
X139040349Y-87799585D01*
X139073834Y-87860908D01*
X139076071Y-87875111D01*
X139088975Y-88006129D01*
X139146188Y-88194733D01*
X139239086Y-88368532D01*
X139239090Y-88368539D01*
X139364116Y-88520883D01*
X139516460Y-88645909D01*
X139516467Y-88645913D01*
X139690266Y-88738811D01*
X139690269Y-88738811D01*
X139690273Y-88738814D01*
X139878868Y-88796024D01*
X140075000Y-88815341D01*
X140158846Y-88807083D01*
X140227492Y-88820102D01*
X140278202Y-88868167D01*
X140295000Y-88930486D01*
X140295000Y-89662902D01*
X140275315Y-89729941D01*
X140258681Y-89750583D01*
X138462181Y-91547083D01*
X138400858Y-91580568D01*
X138331166Y-91575584D01*
X138275233Y-91533712D01*
X138250816Y-91468248D01*
X138250500Y-91459402D01*
X138250500Y-87309097D01*
X138270185Y-87242058D01*
X138322989Y-87196303D01*
X138392147Y-87186359D01*
X138455703Y-87215384D01*
G37*
%TD.AperFunction*%
%TA.AperFunction,NonConductor*%
G36*
X136877092Y-86589414D02*
G01*
X136964507Y-86618380D01*
X137021949Y-86658152D01*
X137048772Y-86722668D01*
X137049500Y-86736085D01*
X137049500Y-91609902D01*
X137029815Y-91676941D01*
X137013181Y-91697583D01*
X136399531Y-92311232D01*
X136338208Y-92344717D01*
X136268516Y-92339733D01*
X136212583Y-92297861D01*
X136188166Y-92232397D01*
X136188629Y-92209673D01*
X136189761Y-92199627D01*
X136216828Y-92135215D01*
X136225279Y-92125854D01*
X136594120Y-91757016D01*
X136673177Y-91620084D01*
X136714101Y-91467357D01*
X136714101Y-91309242D01*
X136714101Y-91301647D01*
X136714100Y-91301629D01*
X136714100Y-86707123D01*
X136733785Y-86640084D01*
X136786589Y-86594329D01*
X136855747Y-86584385D01*
X136877092Y-86589414D01*
G37*
%TD.AperFunction*%
%TA.AperFunction,NonConductor*%
G36*
X149832842Y-89137785D02*
G01*
X149853483Y-89154418D01*
X150544584Y-89845520D01*
X150544586Y-89845521D01*
X150544590Y-89845524D01*
X150681509Y-89924573D01*
X150681516Y-89924577D01*
X150802005Y-89956862D01*
X150861665Y-89993228D01*
X150882291Y-90024229D01*
X150890966Y-90042832D01*
X150890967Y-90042834D01*
X151026501Y-90236395D01*
X151026506Y-90236402D01*
X151193597Y-90403493D01*
X151193603Y-90403498D01*
X151379158Y-90533425D01*
X151422783Y-90588002D01*
X151429977Y-90657500D01*
X151398454Y-90719855D01*
X151379158Y-90736575D01*
X151193597Y-90866505D01*
X151026505Y-91033597D01*
X150890965Y-91227169D01*
X150890964Y-91227171D01*
X150791098Y-91441335D01*
X150791094Y-91441344D01*
X150729938Y-91669586D01*
X150729936Y-91669596D01*
X150709341Y-91904999D01*
X150709341Y-91905000D01*
X150729936Y-92140403D01*
X150729938Y-92140413D01*
X150791094Y-92368655D01*
X150791096Y-92368659D01*
X150791097Y-92368663D01*
X150875077Y-92548759D01*
X150890965Y-92582830D01*
X150890967Y-92582834D01*
X150984373Y-92716231D01*
X151017182Y-92763087D01*
X151026501Y-92776395D01*
X151026506Y-92776402D01*
X151193597Y-92943493D01*
X151193603Y-92943498D01*
X151379158Y-93073425D01*
X151422783Y-93128002D01*
X151429977Y-93197500D01*
X151398454Y-93259855D01*
X151379158Y-93276575D01*
X151193597Y-93406505D01*
X151026506Y-93573596D01*
X150890965Y-93767170D01*
X150890962Y-93767175D01*
X150888289Y-93772909D01*
X150842115Y-93825346D01*
X150775909Y-93844500D01*
X149710098Y-93844500D01*
X149643059Y-93824815D01*
X149622417Y-93808181D01*
X148424318Y-92610082D01*
X148390833Y-92548759D01*
X148387999Y-92522401D01*
X148387999Y-91809998D01*
X148387998Y-91809981D01*
X148377499Y-91707203D01*
X148377498Y-91707200D01*
X148362276Y-91661264D01*
X148322314Y-91540666D01*
X148230212Y-91391344D01*
X148106156Y-91267288D01*
X148013388Y-91210069D01*
X147956836Y-91175187D01*
X147956835Y-91175186D01*
X147956834Y-91175186D01*
X147873665Y-91147626D01*
X147816222Y-91107854D01*
X147789399Y-91043338D01*
X147801714Y-90974562D01*
X147805268Y-90967950D01*
X147833713Y-90918682D01*
X147859577Y-90873885D01*
X147884235Y-90781857D01*
X147920599Y-90722200D01*
X147965010Y-90696246D01*
X147969334Y-90694814D01*
X148118656Y-90602712D01*
X148242712Y-90478656D01*
X148334814Y-90329334D01*
X148389999Y-90162797D01*
X148400500Y-90060009D01*
X148400499Y-89242099D01*
X148420183Y-89175061D01*
X148472987Y-89129306D01*
X148524499Y-89118100D01*
X149765803Y-89118100D01*
X149832842Y-89137785D01*
G37*
%TD.AperFunction*%
%TA.AperFunction,NonConductor*%
G36*
X144118834Y-89357813D02*
G01*
X144174767Y-89399685D01*
X144199184Y-89465149D01*
X144199500Y-89473995D01*
X144199500Y-90060001D01*
X144199501Y-90060019D01*
X144210000Y-90162796D01*
X144210001Y-90162799D01*
X144234389Y-90236395D01*
X144265186Y-90329334D01*
X144357288Y-90478656D01*
X144481344Y-90602712D01*
X144630666Y-90694814D01*
X144797203Y-90749999D01*
X144899991Y-90760500D01*
X145700008Y-90760499D01*
X145700016Y-90760498D01*
X145700019Y-90760498D01*
X145756302Y-90754748D01*
X145802797Y-90749999D01*
X145936329Y-90705750D01*
X146006151Y-90703349D01*
X146066193Y-90739080D01*
X146097386Y-90801600D01*
X146092370Y-90864409D01*
X146081234Y-90896235D01*
X146081230Y-90896250D01*
X146060729Y-91078211D01*
X146033663Y-91142625D01*
X145976068Y-91182181D01*
X145906231Y-91184318D01*
X145885116Y-91176716D01*
X145881837Y-91175187D01*
X145881831Y-91175185D01*
X145715297Y-91120001D01*
X145715295Y-91120000D01*
X145612510Y-91109500D01*
X144837498Y-91109500D01*
X144837480Y-91109501D01*
X144734703Y-91120000D01*
X144734700Y-91120001D01*
X144568168Y-91175185D01*
X144568163Y-91175187D01*
X144418842Y-91267289D01*
X144294789Y-91391342D01*
X144202687Y-91540663D01*
X144202685Y-91540668D01*
X144181355Y-91605038D01*
X144147501Y-91707203D01*
X144147501Y-91707204D01*
X144147500Y-91707204D01*
X144137000Y-91809983D01*
X144137000Y-92522402D01*
X144117315Y-92589441D01*
X144100681Y-92610083D01*
X142452981Y-94257783D01*
X142391658Y-94291268D01*
X142321966Y-94286284D01*
X142266033Y-94244412D01*
X142241616Y-94178948D01*
X142241300Y-94170102D01*
X142241300Y-91184196D01*
X142260985Y-91117157D01*
X142277614Y-91096520D01*
X143987821Y-89386312D01*
X144049142Y-89352829D01*
X144118834Y-89357813D01*
G37*
%TD.AperFunction*%
%TA.AperFunction,NonConductor*%
G36*
X139089034Y-92721215D02*
G01*
X139144967Y-92763087D01*
X139169384Y-92828551D01*
X139169700Y-92837397D01*
X139169700Y-94874387D01*
X139150015Y-94941426D01*
X139142650Y-94951696D01*
X139140384Y-94954537D01*
X139104493Y-95011657D01*
X139052158Y-95057948D01*
X138983105Y-95068595D01*
X138919257Y-95040220D01*
X138880885Y-94981830D01*
X138875500Y-94945684D01*
X138875500Y-92883597D01*
X138895185Y-92816558D01*
X138911819Y-92795916D01*
X138958019Y-92749716D01*
X139019342Y-92716231D01*
X139089034Y-92721215D01*
G37*
%TD.AperFunction*%
%TA.AperFunction,NonConductor*%
G36*
X146341951Y-93245713D02*
G01*
X146368037Y-93275817D01*
X146369788Y-93278656D01*
X146493844Y-93402712D01*
X146643166Y-93494814D01*
X146809703Y-93549999D01*
X146912491Y-93560500D01*
X147624901Y-93560499D01*
X147691940Y-93580183D01*
X147712582Y-93596818D01*
X149041284Y-94925520D01*
X149041286Y-94925521D01*
X149041290Y-94925524D01*
X149162906Y-94995738D01*
X149178216Y-95004577D01*
X149330943Y-95045501D01*
X149330945Y-95045501D01*
X149496654Y-95045501D01*
X149496670Y-95045500D01*
X150775909Y-95045500D01*
X150842948Y-95065185D01*
X150888292Y-95117097D01*
X150890965Y-95122830D01*
X150999298Y-95277545D01*
X151026501Y-95316395D01*
X151026506Y-95316402D01*
X151193597Y-95483493D01*
X151193603Y-95483498D01*
X151379158Y-95613425D01*
X151422783Y-95668002D01*
X151429977Y-95737500D01*
X151398454Y-95799855D01*
X151379158Y-95816575D01*
X151193597Y-95946505D01*
X151026506Y-96113596D01*
X150890965Y-96307170D01*
X150890962Y-96307175D01*
X150888289Y-96312909D01*
X150842115Y-96365346D01*
X150775909Y-96384500D01*
X148343558Y-96384500D01*
X148276519Y-96364815D01*
X148238019Y-96325597D01*
X148230136Y-96312816D01*
X148155212Y-96191344D01*
X148031156Y-96067288D01*
X147881834Y-95975186D01*
X147715297Y-95920001D01*
X147715295Y-95920000D01*
X147612516Y-95909500D01*
X147612509Y-95909500D01*
X147083246Y-95909500D01*
X147016207Y-95889815D01*
X146970452Y-95837011D01*
X146960025Y-95799379D01*
X146959985Y-95799025D01*
X146959368Y-95793545D01*
X146899789Y-95623278D01*
X146803816Y-95470538D01*
X146676262Y-95342984D01*
X146633957Y-95316402D01*
X146523523Y-95247011D01*
X146353254Y-95187431D01*
X146353249Y-95187430D01*
X146174004Y-95167235D01*
X146167037Y-95167235D01*
X146167037Y-95165887D01*
X146105623Y-95155128D01*
X146055571Y-95109936D01*
X146022437Y-95057204D01*
X145983816Y-94995738D01*
X145856262Y-94868184D01*
X145829512Y-94851376D01*
X145703523Y-94772211D01*
X145533254Y-94712631D01*
X145533249Y-94712630D01*
X145354004Y-94692435D01*
X145353996Y-94692435D01*
X145174750Y-94712630D01*
X145174737Y-94712633D01*
X145004478Y-94772210D01*
X144999505Y-94775335D01*
X144932268Y-94794333D01*
X144865433Y-94773963D01*
X144828543Y-94736311D01*
X144813665Y-94712633D01*
X144754416Y-94618338D01*
X144626862Y-94490784D01*
X144593786Y-94470001D01*
X144474119Y-94394809D01*
X144319853Y-94340828D01*
X144263077Y-94300106D01*
X144237330Y-94235154D01*
X144250787Y-94166592D01*
X144273124Y-94136109D01*
X144812416Y-93596818D01*
X144873739Y-93563333D01*
X144900097Y-93560499D01*
X145612502Y-93560499D01*
X145612508Y-93560499D01*
X145715297Y-93549999D01*
X145881834Y-93494814D01*
X146031156Y-93402712D01*
X146155212Y-93278656D01*
X146156961Y-93275819D01*
X146158669Y-93274283D01*
X146159693Y-93272989D01*
X146159914Y-93273163D01*
X146208906Y-93229096D01*
X146277868Y-93217872D01*
X146341951Y-93245713D01*
G37*
%TD.AperFunction*%
%TA.AperFunction,NonConductor*%
G36*
X140344399Y-96127024D02*
G01*
X140389614Y-96180292D01*
X140400300Y-96230651D01*
X140400300Y-99532402D01*
X140380615Y-99599441D01*
X140363981Y-99620083D01*
X140087281Y-99896783D01*
X140025958Y-99930268D01*
X139956266Y-99925284D01*
X139900333Y-99883412D01*
X139875916Y-99817948D01*
X139875600Y-99809102D01*
X139875600Y-96355994D01*
X139895285Y-96288955D01*
X139948089Y-96243200D01*
X139958646Y-96238952D01*
X139986141Y-96229331D01*
X140119722Y-96182589D01*
X140210327Y-96125657D01*
X140277564Y-96106657D01*
X140344399Y-96127024D01*
G37*
%TD.AperFunction*%
%TA.AperFunction,NonConductor*%
G36*
X144973955Y-100972518D02*
G01*
X145041537Y-100996166D01*
X145041543Y-100996167D01*
X145041545Y-100996168D01*
X145041546Y-100996168D01*
X145041550Y-100996169D01*
X145220796Y-101016365D01*
X145220800Y-101016365D01*
X145220804Y-101016365D01*
X145400049Y-100996169D01*
X145400052Y-100996168D01*
X145400055Y-100996168D01*
X145400056Y-100996167D01*
X145400059Y-100996167D01*
X145408544Y-100993198D01*
X145478323Y-100989635D01*
X145538950Y-101024363D01*
X145571178Y-101086356D01*
X145573500Y-101110239D01*
X145573500Y-101560500D01*
X145553815Y-101627539D01*
X145501011Y-101673294D01*
X145449500Y-101684500D01*
X144917963Y-101684500D01*
X144850924Y-101664815D01*
X144805169Y-101612011D01*
X144795225Y-101542853D01*
X144798186Y-101528416D01*
X144809001Y-101488057D01*
X144809001Y-101329942D01*
X144809001Y-101322347D01*
X144809000Y-101322329D01*
X144809000Y-101089559D01*
X144828685Y-101022520D01*
X144881489Y-100976765D01*
X144950647Y-100966821D01*
X144973955Y-100972518D01*
G37*
%TD.AperFunction*%
%TA.AperFunction,NonConductor*%
G36*
X150842948Y-97605185D02*
G01*
X150888292Y-97657097D01*
X150890965Y-97662830D01*
X150960963Y-97762797D01*
X151026501Y-97856395D01*
X151026506Y-97856402D01*
X151193597Y-98023493D01*
X151193603Y-98023498D01*
X151379158Y-98153425D01*
X151422783Y-98208002D01*
X151429977Y-98277500D01*
X151398454Y-98339855D01*
X151379158Y-98356575D01*
X151193597Y-98486505D01*
X151026505Y-98653597D01*
X150890965Y-98847169D01*
X150890964Y-98847171D01*
X150791098Y-99061335D01*
X150791094Y-99061344D01*
X150729938Y-99289586D01*
X150729936Y-99289596D01*
X150709341Y-99524999D01*
X150709341Y-99525000D01*
X150729936Y-99760403D01*
X150729938Y-99760413D01*
X150791094Y-99988655D01*
X150791096Y-99988659D01*
X150791097Y-99988663D01*
X150864936Y-100147011D01*
X150890965Y-100202830D01*
X150890967Y-100202834D01*
X150922306Y-100247590D01*
X151026505Y-100396401D01*
X151193599Y-100563495D01*
X151273218Y-100619245D01*
X151387165Y-100699032D01*
X151387167Y-100699033D01*
X151387170Y-100699035D01*
X151393549Y-100702010D01*
X151405768Y-100707708D01*
X151458207Y-100753881D01*
X151473137Y-100787994D01*
X151505423Y-100908486D01*
X151520443Y-100934500D01*
X151520442Y-100934500D01*
X151520443Y-100934501D01*
X151584475Y-101045409D01*
X151584481Y-101045417D01*
X151703349Y-101164285D01*
X151703355Y-101164290D01*
X152311884Y-101772819D01*
X152345369Y-101834142D01*
X152340385Y-101903834D01*
X152298513Y-101959767D01*
X152233049Y-101984184D01*
X152224203Y-101984500D01*
X151167129Y-101984500D01*
X151167123Y-101984501D01*
X151107516Y-101990908D01*
X150972671Y-102041202D01*
X150972664Y-102041206D01*
X150857455Y-102127452D01*
X150857452Y-102127455D01*
X150771206Y-102242664D01*
X150771202Y-102242671D01*
X150720908Y-102377517D01*
X150714501Y-102437116D01*
X150714500Y-102437135D01*
X150714500Y-102610500D01*
X150694815Y-102677539D01*
X150642011Y-102723294D01*
X150590500Y-102734500D01*
X148499499Y-102734500D01*
X148432460Y-102714815D01*
X148386705Y-102662011D01*
X148375499Y-102610500D01*
X148375499Y-102384998D01*
X148375498Y-102384981D01*
X148364999Y-102282203D01*
X148364998Y-102282200D01*
X148351897Y-102242664D01*
X148309814Y-102115666D01*
X148217712Y-101966344D01*
X148093656Y-101842288D01*
X147981028Y-101772819D01*
X147944336Y-101750187D01*
X147944331Y-101750185D01*
X147942862Y-101749698D01*
X147777797Y-101695001D01*
X147777795Y-101695000D01*
X147675016Y-101684500D01*
X147675009Y-101684500D01*
X146975097Y-101684500D01*
X146908058Y-101664815D01*
X146887416Y-101648181D01*
X146810819Y-101571584D01*
X146777334Y-101510261D01*
X146774500Y-101483903D01*
X146774500Y-98484499D01*
X146794185Y-98417460D01*
X146846989Y-98371705D01*
X146898495Y-98360499D01*
X147612508Y-98360499D01*
X147612516Y-98360498D01*
X147612519Y-98360498D01*
X147705840Y-98350965D01*
X147715297Y-98349999D01*
X147881834Y-98294814D01*
X148031156Y-98202712D01*
X148155212Y-98078656D01*
X148247314Y-97929334D01*
X148302499Y-97762797D01*
X148304931Y-97738989D01*
X148309232Y-97696897D01*
X148335629Y-97632205D01*
X148392810Y-97592054D01*
X148432590Y-97585500D01*
X150775909Y-97585500D01*
X150842948Y-97605185D01*
G37*
%TD.AperFunction*%
%TA.AperFunction,NonConductor*%
G36*
X132330560Y-102320778D02*
G01*
X132362152Y-102343687D01*
X133491284Y-103472819D01*
X133524769Y-103534142D01*
X133519785Y-103603834D01*
X133477913Y-103659767D01*
X133412449Y-103684184D01*
X133403603Y-103684500D01*
X133275097Y-103684500D01*
X133208058Y-103664815D01*
X133187416Y-103648181D01*
X132061415Y-102522180D01*
X132027930Y-102460857D01*
X132032914Y-102391165D01*
X132074786Y-102335232D01*
X132140250Y-102310815D01*
X132149096Y-102310499D01*
X132237503Y-102310499D01*
X132237508Y-102310499D01*
X132261868Y-102308010D01*
X132330560Y-102320778D01*
G37*
%TD.AperFunction*%
%TA.AperFunction,NonConductor*%
G36*
X134729699Y-91430184D02*
G01*
X134775454Y-91482988D01*
X134785398Y-91552146D01*
X134767654Y-91600471D01*
X134764784Y-91605037D01*
X134764784Y-91605038D01*
X134755326Y-91620090D01*
X134668811Y-91757777D01*
X134609231Y-91928045D01*
X134609230Y-91928050D01*
X134589035Y-92107296D01*
X134589035Y-92107303D01*
X134609230Y-92286549D01*
X134609231Y-92286554D01*
X134668811Y-92456823D01*
X134747987Y-92582830D01*
X134764784Y-92609562D01*
X134892338Y-92737116D01*
X134912391Y-92749716D01*
X135043718Y-92832235D01*
X135045078Y-92833089D01*
X135057390Y-92837397D01*
X135215345Y-92892668D01*
X135215350Y-92892669D01*
X135394596Y-92912865D01*
X135394600Y-92912865D01*
X135394602Y-92912865D01*
X135445360Y-92907145D01*
X135496966Y-92901331D01*
X135565788Y-92913385D01*
X135617167Y-92960734D01*
X135634792Y-93028344D01*
X135613066Y-93094750D01*
X135598531Y-93112232D01*
X134287582Y-94423181D01*
X134226259Y-94456666D01*
X134199901Y-94459500D01*
X133499998Y-94459500D01*
X133499980Y-94459501D01*
X133397203Y-94470000D01*
X133397200Y-94470001D01*
X133230668Y-94525185D01*
X133230663Y-94525187D01*
X133081342Y-94617289D01*
X132957289Y-94741342D01*
X132865187Y-94890663D01*
X132865185Y-94890668D01*
X132853635Y-94925524D01*
X132810001Y-95057203D01*
X132810001Y-95057204D01*
X132810000Y-95057204D01*
X132799500Y-95159983D01*
X132799500Y-95960001D01*
X132799501Y-95960019D01*
X132810000Y-96062796D01*
X132810001Y-96062799D01*
X132865185Y-96229331D01*
X132865187Y-96229336D01*
X132878234Y-96250489D01*
X132949078Y-96365346D01*
X132957289Y-96378657D01*
X133050951Y-96472319D01*
X133084436Y-96533642D01*
X133079452Y-96603334D01*
X133050951Y-96647681D01*
X132957289Y-96741342D01*
X132865187Y-96890663D01*
X132865186Y-96890666D01*
X132810001Y-97057203D01*
X132810001Y-97057204D01*
X132810000Y-97057204D01*
X132799500Y-97159983D01*
X132799500Y-97960001D01*
X132799501Y-97960019D01*
X132810000Y-98062796D01*
X132810001Y-98062799D01*
X132815256Y-98078656D01*
X132865186Y-98229334D01*
X132946089Y-98360500D01*
X132957289Y-98378657D01*
X133080418Y-98501786D01*
X133113903Y-98563109D01*
X133115957Y-98603349D01*
X133104235Y-98707395D01*
X133104235Y-98707403D01*
X133124430Y-98886649D01*
X133124431Y-98886654D01*
X133184011Y-99056923D01*
X133279984Y-99209662D01*
X133407538Y-99337216D01*
X133560278Y-99433189D01*
X133711949Y-99486261D01*
X133730545Y-99492768D01*
X133730550Y-99492769D01*
X133909796Y-99512965D01*
X133909800Y-99512965D01*
X133909804Y-99512965D01*
X134089049Y-99492769D01*
X134089052Y-99492768D01*
X134089055Y-99492768D01*
X134259322Y-99433189D01*
X134412062Y-99337216D01*
X134539616Y-99209662D01*
X134635589Y-99056922D01*
X134695168Y-98886655D01*
X134715365Y-98707400D01*
X134715365Y-98700436D01*
X134717738Y-98700436D01*
X134727859Y-98642594D01*
X134773937Y-98591974D01*
X134918656Y-98502712D01*
X135042712Y-98378656D01*
X135134814Y-98229334D01*
X135189999Y-98062797D01*
X135200500Y-97960009D01*
X135200499Y-97159992D01*
X135189999Y-97057203D01*
X135134814Y-96890666D01*
X135042712Y-96741344D01*
X134949049Y-96647681D01*
X134915564Y-96586358D01*
X134920548Y-96516666D01*
X134949049Y-96472319D01*
X135042712Y-96378656D01*
X135134814Y-96229334D01*
X135189999Y-96062797D01*
X135200500Y-95960009D01*
X135200499Y-95260096D01*
X135220183Y-95193058D01*
X135236813Y-95172421D01*
X137462819Y-92946416D01*
X137524142Y-92912931D01*
X137593834Y-92917915D01*
X137649767Y-92959787D01*
X137674184Y-93025251D01*
X137674500Y-93034097D01*
X137674500Y-100455158D01*
X137654815Y-100522197D01*
X137615778Y-100560585D01*
X137563566Y-100592913D01*
X137402574Y-100739675D01*
X137271288Y-100913527D01*
X137174184Y-101108537D01*
X137114564Y-101318081D01*
X137094464Y-101534999D01*
X137094464Y-101535000D01*
X137114564Y-101751918D01*
X137114564Y-101751920D01*
X137114565Y-101751923D01*
X137173702Y-101959767D01*
X137174184Y-101961462D01*
X137250969Y-102115666D01*
X137271288Y-102156472D01*
X137402468Y-102330183D01*
X137402575Y-102330324D01*
X137413615Y-102340389D01*
X137449896Y-102400100D01*
X137448135Y-102469948D01*
X137417758Y-102519704D01*
X137288586Y-102648878D01*
X137288584Y-102648880D01*
X137259925Y-102677539D01*
X137176780Y-102760683D01*
X137170970Y-102770746D01*
X137168271Y-102775423D01*
X137097723Y-102897615D01*
X137056799Y-103050343D01*
X137056799Y-103050345D01*
X137056799Y-103218446D01*
X137056800Y-103218459D01*
X137056800Y-103935100D01*
X137037115Y-104002139D01*
X136984311Y-104047894D01*
X136932800Y-104059100D01*
X135843356Y-104059100D01*
X135776317Y-104039415D01*
X135730562Y-103986611D01*
X135720136Y-103948983D01*
X135712369Y-103880050D01*
X135712368Y-103880045D01*
X135684556Y-103800564D01*
X135652789Y-103709778D01*
X135643503Y-103695000D01*
X135556815Y-103557037D01*
X135429262Y-103429484D01*
X135276521Y-103333510D01*
X135106249Y-103273930D01*
X135019330Y-103264137D01*
X134954916Y-103237070D01*
X134945533Y-103228598D01*
X132974318Y-101257383D01*
X132940833Y-101196060D01*
X132937999Y-101169702D01*
X132937999Y-100559998D01*
X132937998Y-100559981D01*
X132927499Y-100457203D01*
X132927498Y-100457200D01*
X132926821Y-100455158D01*
X132872314Y-100290666D01*
X132780212Y-100141344D01*
X132656156Y-100017288D01*
X132509402Y-99926770D01*
X132462679Y-99874823D01*
X132450500Y-99821232D01*
X132450500Y-92610096D01*
X132470185Y-92543057D01*
X132486814Y-92522419D01*
X133562416Y-91446817D01*
X133623739Y-91413333D01*
X133650097Y-91410499D01*
X134662660Y-91410499D01*
X134729699Y-91430184D01*
G37*
%TD.AperFunction*%
%TA.AperFunction,NonConductor*%
G36*
X144093834Y-102475414D02*
G01*
X144149767Y-102517286D01*
X144174184Y-102582750D01*
X144174500Y-102591596D01*
X144174500Y-103385001D01*
X144174501Y-103385019D01*
X144185000Y-103487796D01*
X144185001Y-103487799D01*
X144240185Y-103654331D01*
X144240187Y-103654336D01*
X144258792Y-103684500D01*
X144332288Y-103803656D01*
X144456344Y-103927712D01*
X144605666Y-104019814D01*
X144605667Y-104019814D01*
X144611813Y-104023605D01*
X144610706Y-104025399D01*
X144655337Y-104064687D01*
X144674500Y-104130908D01*
X144674500Y-104683400D01*
X144654815Y-104750439D01*
X144602011Y-104796194D01*
X144550500Y-104807400D01*
X143249500Y-104807400D01*
X143182461Y-104787715D01*
X143136706Y-104734911D01*
X143125500Y-104683400D01*
X143125500Y-103370977D01*
X143145185Y-103303938D01*
X143187502Y-103263589D01*
X143224516Y-103242220D01*
X143336320Y-103130416D01*
X143336320Y-103130414D01*
X143346528Y-103120207D01*
X143346529Y-103120204D01*
X143962820Y-102503914D01*
X144024142Y-102470430D01*
X144093834Y-102475414D01*
G37*
%TD.AperFunction*%
%TA.AperFunction,NonConductor*%
G36*
X146318334Y-103805548D02*
G01*
X146362681Y-103834049D01*
X146456344Y-103927712D01*
X146605666Y-104019814D01*
X146772203Y-104074999D01*
X146874991Y-104085500D01*
X147675008Y-104085499D01*
X147675016Y-104085498D01*
X147675019Y-104085498D01*
X147731302Y-104079748D01*
X147777797Y-104074999D01*
X147944334Y-104019814D01*
X148008803Y-103980049D01*
X148051100Y-103953961D01*
X148116196Y-103935500D01*
X150590501Y-103935500D01*
X150657540Y-103955185D01*
X150703295Y-104007989D01*
X150714501Y-104059500D01*
X150714501Y-104232876D01*
X150720908Y-104292483D01*
X150771202Y-104427328D01*
X150771206Y-104427335D01*
X150857452Y-104542544D01*
X150857455Y-104542547D01*
X150972664Y-104628793D01*
X150972671Y-104628797D01*
X151104081Y-104677810D01*
X151160015Y-104719681D01*
X151184432Y-104785145D01*
X151169580Y-104853418D01*
X151148430Y-104881673D01*
X151026503Y-105003600D01*
X150890965Y-105197170D01*
X150890962Y-105197175D01*
X150888289Y-105202909D01*
X150842115Y-105255346D01*
X150775909Y-105274500D01*
X148177230Y-105274500D01*
X148110191Y-105254815D01*
X148099662Y-105246331D01*
X148099319Y-105246766D01*
X148093658Y-105242290D01*
X148093656Y-105242288D01*
X147979218Y-105171702D01*
X147944336Y-105150187D01*
X147944331Y-105150185D01*
X147942862Y-105149698D01*
X147777797Y-105095001D01*
X147777795Y-105095000D01*
X147675010Y-105084500D01*
X146874998Y-105084500D01*
X146874980Y-105084501D01*
X146772203Y-105095000D01*
X146772200Y-105095001D01*
X146605668Y-105150185D01*
X146605663Y-105150187D01*
X146456342Y-105242289D01*
X146362681Y-105335951D01*
X146301358Y-105369436D01*
X146231666Y-105364452D01*
X146187319Y-105335951D01*
X146093657Y-105242289D01*
X146093656Y-105242288D01*
X145944334Y-105150186D01*
X145944332Y-105150185D01*
X145938187Y-105146395D01*
X145939290Y-105144605D01*
X145894649Y-105105290D01*
X145875500Y-105039091D01*
X145875500Y-104130908D01*
X145895185Y-104063869D01*
X145939271Y-104025363D01*
X145938187Y-104023605D01*
X145944332Y-104019814D01*
X145944334Y-104019814D01*
X146093656Y-103927712D01*
X146187319Y-103834049D01*
X146248642Y-103800564D01*
X146318334Y-103805548D01*
G37*
%TD.AperFunction*%
%TA.AperFunction,NonConductor*%
G36*
X135030668Y-105527113D02*
G01*
X135060915Y-105544577D01*
X135060917Y-105544577D01*
X135068423Y-105547687D01*
X135067153Y-105550752D01*
X135113617Y-105579045D01*
X135138083Y-105619162D01*
X135150604Y-105652732D01*
X135150605Y-105652734D01*
X135236852Y-105767944D01*
X135236855Y-105767947D01*
X135352064Y-105854193D01*
X135352071Y-105854197D01*
X135486917Y-105904491D01*
X135486916Y-105904491D01*
X135493844Y-105905235D01*
X135546527Y-105910900D01*
X136932800Y-105910899D01*
X136999839Y-105930584D01*
X137045594Y-105983387D01*
X137056800Y-106034899D01*
X137056800Y-106235100D01*
X137037115Y-106302139D01*
X136984311Y-106347894D01*
X136932800Y-106359100D01*
X135546529Y-106359100D01*
X135546523Y-106359101D01*
X135486916Y-106365508D01*
X135352071Y-106415802D01*
X135352064Y-106415806D01*
X135236855Y-106502052D01*
X135236852Y-106502055D01*
X135150606Y-106617264D01*
X135150602Y-106617271D01*
X135100308Y-106752117D01*
X135093901Y-106811716D01*
X135093900Y-106811735D01*
X135093900Y-107758270D01*
X135093901Y-107758276D01*
X135100308Y-107817883D01*
X135150602Y-107952728D01*
X135150606Y-107952735D01*
X135236852Y-108067944D01*
X135236855Y-108067947D01*
X135352064Y-108154193D01*
X135352071Y-108154197D01*
X135486917Y-108204491D01*
X135486916Y-108204491D01*
X135493844Y-108205235D01*
X135546527Y-108210900D01*
X136932800Y-108210899D01*
X136999839Y-108230584D01*
X137045594Y-108283387D01*
X137056800Y-108334899D01*
X137056800Y-108535100D01*
X137037115Y-108602139D01*
X136984311Y-108647894D01*
X136932800Y-108659100D01*
X135546529Y-108659100D01*
X135546523Y-108659101D01*
X135486916Y-108665508D01*
X135352071Y-108715802D01*
X135352064Y-108715806D01*
X135236855Y-108802052D01*
X135236852Y-108802055D01*
X135150609Y-108917260D01*
X135149157Y-108919921D01*
X135147011Y-108922066D01*
X135145288Y-108924369D01*
X135144957Y-108924121D01*
X135099754Y-108969329D01*
X135040321Y-108984500D01*
X133373898Y-108984500D01*
X133306859Y-108964815D01*
X133286217Y-108948181D01*
X132111819Y-107773783D01*
X132078334Y-107712460D01*
X132075500Y-107686102D01*
X132075500Y-106173767D01*
X132095185Y-106106728D01*
X132134401Y-106068230D01*
X132281156Y-105977712D01*
X132405212Y-105853656D01*
X132406961Y-105850819D01*
X132408669Y-105849283D01*
X132409693Y-105847989D01*
X132409914Y-105848163D01*
X132458906Y-105804096D01*
X132527868Y-105792872D01*
X132591951Y-105820713D01*
X132618037Y-105850817D01*
X132619788Y-105853656D01*
X132743844Y-105977712D01*
X132893166Y-106069814D01*
X133059703Y-106124999D01*
X133162491Y-106135500D01*
X133937508Y-106135499D01*
X133937516Y-106135498D01*
X133937519Y-106135498D01*
X133993802Y-106129748D01*
X134040297Y-106124999D01*
X134206834Y-106069814D01*
X134356156Y-105977712D01*
X134480212Y-105853656D01*
X134572314Y-105704334D01*
X134608379Y-105595494D01*
X134648152Y-105538051D01*
X134712667Y-105511228D01*
X134726085Y-105510500D01*
X134968668Y-105510500D01*
X135030668Y-105527113D01*
G37*
%TD.AperFunction*%
%TA.AperFunction,NonConductor*%
G36*
X141129594Y-102444657D02*
G01*
X141180214Y-102484405D01*
X141242452Y-102567544D01*
X141242455Y-102567547D01*
X141357664Y-102653793D01*
X141357671Y-102653797D01*
X141402372Y-102670469D01*
X141492517Y-102704091D01*
X141552127Y-102710500D01*
X141624786Y-102710499D01*
X141691825Y-102730183D01*
X141732174Y-102772499D01*
X141794477Y-102880412D01*
X141794481Y-102880417D01*
X141888181Y-102974117D01*
X141921666Y-103035440D01*
X141924500Y-103061798D01*
X141924500Y-105085100D01*
X141904815Y-105152139D01*
X141852011Y-105197894D01*
X141800501Y-105209100D01*
X141596530Y-105209100D01*
X141596523Y-105209101D01*
X141536916Y-105215508D01*
X141402071Y-105265802D01*
X141402064Y-105265806D01*
X141286855Y-105352052D01*
X141286852Y-105352055D01*
X141200606Y-105467264D01*
X141200602Y-105467271D01*
X141150308Y-105602117D01*
X141143901Y-105661716D01*
X141143900Y-105661735D01*
X141143900Y-108908270D01*
X141143901Y-108908276D01*
X141150308Y-108967883D01*
X141200602Y-109102728D01*
X141200606Y-109102735D01*
X141286852Y-109217944D01*
X141286853Y-109217944D01*
X141286854Y-109217946D01*
X141317959Y-109241231D01*
X141362770Y-109274777D01*
X141404640Y-109330711D01*
X141409624Y-109400402D01*
X141376139Y-109461724D01*
X141176286Y-109661578D01*
X141087181Y-109750683D01*
X141025858Y-109784168D01*
X140956166Y-109779184D01*
X140900233Y-109737312D01*
X140875816Y-109671848D01*
X140875500Y-109663002D01*
X140875500Y-108627145D01*
X140875500Y-108627143D01*
X140853698Y-108545777D01*
X140834577Y-108474415D01*
X140783883Y-108386611D01*
X140755520Y-108337484D01*
X140643716Y-108225680D01*
X140643715Y-108225679D01*
X140639385Y-108221349D01*
X140639374Y-108221339D01*
X139911919Y-107493884D01*
X139878434Y-107432561D01*
X139875600Y-107406203D01*
X139875600Y-102805528D01*
X139895285Y-102738489D01*
X139948089Y-102692734D01*
X140017247Y-102682790D01*
X140022336Y-102683631D01*
X140166074Y-102710500D01*
X140166076Y-102710500D01*
X140383924Y-102710500D01*
X140383926Y-102710500D01*
X140598069Y-102670470D01*
X140801210Y-102591772D01*
X140986432Y-102477088D01*
X140997407Y-102467082D01*
X141060207Y-102436463D01*
X141129594Y-102444657D01*
G37*
%TD.AperFunction*%
%TA.AperFunction,NonConductor*%
G36*
X136999839Y-110530584D02*
G01*
X137045594Y-110583388D01*
X137056800Y-110634899D01*
X137056800Y-110927601D01*
X137037115Y-110994640D01*
X136984311Y-111040395D01*
X136915153Y-111050339D01*
X136851597Y-111021314D01*
X136845119Y-111015282D01*
X136729397Y-110899560D01*
X136729374Y-110899539D01*
X136552415Y-110722580D01*
X136518930Y-110661257D01*
X136523914Y-110591565D01*
X136565786Y-110535632D01*
X136631250Y-110511215D01*
X136640096Y-110510899D01*
X136932800Y-110510899D01*
X136999839Y-110530584D01*
G37*
%TD.AperFunction*%
%TA.AperFunction,NonConductor*%
G36*
X135248208Y-112844892D02*
G01*
X135279401Y-112907412D01*
X135271842Y-112976872D01*
X135256610Y-113003581D01*
X135171204Y-113117668D01*
X135171202Y-113117671D01*
X135120908Y-113252517D01*
X135114501Y-113312116D01*
X135114500Y-113312135D01*
X135114500Y-114907870D01*
X135114501Y-114907876D01*
X135120909Y-114967484D01*
X135143282Y-115027471D01*
X135148266Y-115097162D01*
X135114780Y-115158485D01*
X135053457Y-115191969D01*
X134983765Y-115186984D01*
X134939419Y-115158484D01*
X134061819Y-114280884D01*
X134028334Y-114219561D01*
X134025500Y-114193203D01*
X134025500Y-112959499D01*
X134045185Y-112892460D01*
X134097989Y-112846705D01*
X134149500Y-112835499D01*
X134975002Y-112835499D01*
X134975008Y-112835499D01*
X135077797Y-112824999D01*
X135118338Y-112811564D01*
X135188165Y-112809162D01*
X135248208Y-112844892D01*
G37*
%TD.AperFunction*%
%TA.AperFunction,NonConductor*%
G36*
X135447529Y-115331717D02*
G01*
X135507517Y-115354091D01*
X135507516Y-115354091D01*
X135514444Y-115354835D01*
X135567127Y-115360500D01*
X136932800Y-115360499D01*
X136999839Y-115380184D01*
X137045594Y-115432987D01*
X137056800Y-115484499D01*
X137056800Y-116040903D01*
X137037115Y-116107942D01*
X137020481Y-116128584D01*
X136552681Y-116596384D01*
X136491358Y-116629869D01*
X136421666Y-116624885D01*
X136377319Y-116596384D01*
X135316515Y-115535580D01*
X135283030Y-115474257D01*
X135288014Y-115404565D01*
X135329886Y-115348632D01*
X135395350Y-115324215D01*
X135447529Y-115331717D01*
G37*
%TD.AperFunction*%
%TA.AperFunction,NonConductor*%
G36*
X138593934Y-103144515D02*
G01*
X138649867Y-103186387D01*
X138674284Y-103251851D01*
X138674600Y-103260697D01*
X138674600Y-107619630D01*
X138674599Y-107619648D01*
X138674599Y-107785354D01*
X138674598Y-107785354D01*
X138715523Y-107938085D01*
X138723979Y-107952731D01*
X138794577Y-108075012D01*
X138794581Y-108075017D01*
X138913449Y-108193885D01*
X138913455Y-108193890D01*
X139638181Y-108918616D01*
X139671666Y-108979939D01*
X139674500Y-109006297D01*
X139674500Y-117312439D01*
X139654815Y-117379478D01*
X139602011Y-117425233D01*
X139532853Y-117435177D01*
X139498097Y-117424822D01*
X139488790Y-117420482D01*
X139468663Y-117411097D01*
X139468659Y-117411096D01*
X139468655Y-117411094D01*
X139240413Y-117349938D01*
X139240403Y-117349936D01*
X139005001Y-117329341D01*
X139004999Y-117329341D01*
X138769596Y-117349936D01*
X138769586Y-117349938D01*
X138541344Y-117411094D01*
X138541335Y-117411098D01*
X138327171Y-117510964D01*
X138327169Y-117510965D01*
X138133597Y-117646505D01*
X137966505Y-117813597D01*
X137836575Y-117999158D01*
X137781998Y-118042783D01*
X137712500Y-118049977D01*
X137650145Y-118018454D01*
X137633425Y-117999158D01*
X137503494Y-117813597D01*
X137356396Y-117666499D01*
X137322911Y-117605176D01*
X137327895Y-117535484D01*
X137356394Y-117491139D01*
X138015806Y-116831728D01*
X138015811Y-116831724D01*
X138026014Y-116821520D01*
X138026016Y-116821520D01*
X138137820Y-116709716D01*
X138204295Y-116594577D01*
X138216877Y-116572785D01*
X138257801Y-116420057D01*
X138257801Y-116261943D01*
X138257801Y-116254348D01*
X138257800Y-116254330D01*
X138257800Y-105665160D01*
X138257801Y-105665147D01*
X138257801Y-105497044D01*
X138249823Y-105467271D01*
X138216877Y-105344316D01*
X138215858Y-105342551D01*
X138215451Y-105340876D01*
X138213766Y-105336806D01*
X138214400Y-105336543D01*
X138199384Y-105274654D01*
X138214127Y-105224443D01*
X138213766Y-105224294D01*
X138215158Y-105220933D01*
X138215858Y-105218548D01*
X138216877Y-105216784D01*
X138257800Y-105064057D01*
X138257800Y-103429497D01*
X138277485Y-103362458D01*
X138294119Y-103341816D01*
X138462919Y-103173016D01*
X138524242Y-103139531D01*
X138593934Y-103144515D01*
G37*
%TD.AperFunction*%
%TA.AperFunction,NonConductor*%
G36*
X144117539Y-106028085D02*
G01*
X144163294Y-106080889D01*
X144174500Y-106132400D01*
X144174500Y-106785001D01*
X144174501Y-106785019D01*
X144185000Y-106887796D01*
X144185001Y-106887799D01*
X144193516Y-106913495D01*
X144240186Y-107054334D01*
X144332288Y-107203656D01*
X144456344Y-107327712D01*
X144605666Y-107419814D01*
X144772203Y-107474999D01*
X144874991Y-107485500D01*
X145675008Y-107485499D01*
X145675016Y-107485498D01*
X145675019Y-107485498D01*
X145731302Y-107479748D01*
X145777797Y-107474999D01*
X145944334Y-107419814D01*
X146093656Y-107327712D01*
X146187319Y-107234049D01*
X146248642Y-107200564D01*
X146318334Y-107205548D01*
X146362681Y-107234049D01*
X146456344Y-107327712D01*
X146605666Y-107419814D01*
X146772203Y-107474999D01*
X146874991Y-107485500D01*
X147675008Y-107485499D01*
X147675016Y-107485498D01*
X147675019Y-107485498D01*
X147731302Y-107479748D01*
X147777797Y-107474999D01*
X147944334Y-107419814D01*
X148093656Y-107327712D01*
X148217712Y-107203656D01*
X148309814Y-107054334D01*
X148364999Y-106887797D01*
X148375500Y-106785009D01*
X148375500Y-106599500D01*
X148395185Y-106532461D01*
X148447989Y-106486706D01*
X148499500Y-106475500D01*
X150775909Y-106475500D01*
X150842948Y-106495185D01*
X150888292Y-106547097D01*
X150890965Y-106552830D01*
X150890966Y-106552831D01*
X151026501Y-106746395D01*
X151026506Y-106746402D01*
X151193597Y-106913493D01*
X151193603Y-106913498D01*
X151379158Y-107043425D01*
X151422783Y-107098002D01*
X151429977Y-107167500D01*
X151398454Y-107229855D01*
X151379158Y-107246575D01*
X151193597Y-107376505D01*
X151026505Y-107543597D01*
X150890965Y-107737169D01*
X150890964Y-107737171D01*
X150791098Y-107951335D01*
X150791094Y-107951344D01*
X150729938Y-108179586D01*
X150729936Y-108179596D01*
X150709341Y-108414999D01*
X150709341Y-108415000D01*
X150729936Y-108650403D01*
X150729938Y-108650413D01*
X150791094Y-108878655D01*
X150791096Y-108878659D01*
X150791097Y-108878663D01*
X150838323Y-108979939D01*
X150890965Y-109092830D01*
X150890967Y-109092834D01*
X151026501Y-109286395D01*
X151026506Y-109286402D01*
X151193597Y-109453493D01*
X151193603Y-109453498D01*
X151379158Y-109583425D01*
X151422783Y-109638002D01*
X151429977Y-109707500D01*
X151398454Y-109769855D01*
X151379158Y-109786575D01*
X151193597Y-109916505D01*
X151026505Y-110083597D01*
X150890965Y-110277169D01*
X150890964Y-110277171D01*
X150791098Y-110491335D01*
X150791094Y-110491344D01*
X150729938Y-110719586D01*
X150729936Y-110719596D01*
X150709341Y-110954999D01*
X150709341Y-110955000D01*
X150729936Y-111190403D01*
X150729938Y-111190413D01*
X150791094Y-111418655D01*
X150791096Y-111418659D01*
X150791097Y-111418663D01*
X150806766Y-111452265D01*
X150849727Y-111544395D01*
X150860219Y-111613473D01*
X150831699Y-111677257D01*
X150773223Y-111715496D01*
X150737345Y-111720800D01*
X150639712Y-111720800D01*
X150572673Y-111701115D01*
X150562397Y-111693745D01*
X150559563Y-111691485D01*
X150559562Y-111691484D01*
X150406822Y-111595511D01*
X150406819Y-111595509D01*
X150343648Y-111573404D01*
X150286872Y-111532682D01*
X150261125Y-111467729D01*
X150261284Y-111452265D01*
X150261065Y-111452265D01*
X150261065Y-111445297D01*
X150240869Y-111266050D01*
X150240868Y-111266045D01*
X150181288Y-111095776D01*
X150134500Y-111021314D01*
X150085316Y-110943038D01*
X149957762Y-110815484D01*
X149805023Y-110719511D01*
X149634754Y-110659931D01*
X149634749Y-110659930D01*
X149455504Y-110639735D01*
X149455496Y-110639735D01*
X149276250Y-110659930D01*
X149276245Y-110659931D01*
X149105976Y-110719511D01*
X148953237Y-110815484D01*
X148825684Y-110943037D01*
X148729711Y-111095776D01*
X148670131Y-111266045D01*
X148670130Y-111266050D01*
X148649935Y-111445296D01*
X148649935Y-111445303D01*
X148670130Y-111624549D01*
X148670131Y-111624554D01*
X148729711Y-111794823D01*
X148825685Y-111947563D01*
X148827945Y-111950397D01*
X148828834Y-111952575D01*
X148829389Y-111953458D01*
X148829234Y-111953555D01*
X148854355Y-112015083D01*
X148855000Y-112027712D01*
X148855000Y-112547030D01*
X148854999Y-112547048D01*
X148854999Y-112712754D01*
X148854998Y-112712754D01*
X148854999Y-112712757D01*
X148894319Y-112859500D01*
X148895924Y-112865487D01*
X148896168Y-112865909D01*
X148896161Y-112865912D01*
X148896190Y-112865947D01*
X148974977Y-113002412D01*
X148974981Y-113002417D01*
X149093849Y-113121285D01*
X149093855Y-113121290D01*
X150998093Y-115025528D01*
X151031578Y-115086851D01*
X151026594Y-115156543D01*
X151011987Y-115184332D01*
X150890965Y-115357169D01*
X150890964Y-115357171D01*
X150791098Y-115571335D01*
X150791094Y-115571344D01*
X150729938Y-115799586D01*
X150729936Y-115799596D01*
X150709341Y-116034999D01*
X150709341Y-116035000D01*
X150729936Y-116270403D01*
X150729938Y-116270413D01*
X150791094Y-116498655D01*
X150791096Y-116498659D01*
X150791097Y-116498663D01*
X150852280Y-116629869D01*
X150890965Y-116712830D01*
X150890967Y-116712834D01*
X151026501Y-116906395D01*
X151026506Y-116906402D01*
X151193597Y-117073493D01*
X151193603Y-117073498D01*
X151379158Y-117203425D01*
X151422783Y-117258002D01*
X151429977Y-117327500D01*
X151398454Y-117389855D01*
X151379158Y-117406575D01*
X151193597Y-117536505D01*
X151026505Y-117703597D01*
X150890965Y-117897169D01*
X150890964Y-117897171D01*
X150791098Y-118111335D01*
X150791094Y-118111344D01*
X150729938Y-118339586D01*
X150729936Y-118339596D01*
X150709341Y-118574999D01*
X150709341Y-118575000D01*
X150729936Y-118810403D01*
X150729938Y-118810413D01*
X150791094Y-119038655D01*
X150791096Y-119038659D01*
X150791097Y-119038663D01*
X150846294Y-119157032D01*
X150890965Y-119252830D01*
X150890967Y-119252834D01*
X150973598Y-119370842D01*
X151026505Y-119446401D01*
X151193599Y-119613495D01*
X151290384Y-119681265D01*
X151387165Y-119749032D01*
X151387167Y-119749033D01*
X151387170Y-119749035D01*
X151601337Y-119848903D01*
X151601343Y-119848904D01*
X151601344Y-119848905D01*
X151653646Y-119862919D01*
X151829592Y-119910063D01*
X152017918Y-119926539D01*
X152064999Y-119930659D01*
X152065000Y-119930659D01*
X152065001Y-119930659D01*
X152109759Y-119926743D01*
X152300408Y-119910063D01*
X152528663Y-119848903D01*
X152742830Y-119749035D01*
X152936401Y-119613495D01*
X153103495Y-119446401D01*
X153239035Y-119252830D01*
X153338903Y-119038663D01*
X153400063Y-118810408D01*
X153420659Y-118575000D01*
X153400063Y-118339592D01*
X153338903Y-118111337D01*
X153239035Y-117897171D01*
X153180517Y-117813597D01*
X153103494Y-117703597D01*
X152936402Y-117536506D01*
X152936396Y-117536501D01*
X152750842Y-117406575D01*
X152707217Y-117351998D01*
X152700023Y-117282500D01*
X152731546Y-117220145D01*
X152750842Y-117203425D01*
X152773026Y-117187891D01*
X152936401Y-117073495D01*
X153103495Y-116906401D01*
X153239035Y-116712830D01*
X153338903Y-116498663D01*
X153400063Y-116270408D01*
X153420659Y-116035000D01*
X153400063Y-115799592D01*
X153338903Y-115571337D01*
X153239035Y-115357171D01*
X153236879Y-115354091D01*
X153103494Y-115163597D01*
X152936402Y-114996506D01*
X152936401Y-114996505D01*
X152822686Y-114916881D01*
X152750839Y-114866573D01*
X152707216Y-114811997D01*
X152700023Y-114742498D01*
X152731545Y-114680144D01*
X152750831Y-114663432D01*
X152936401Y-114533495D01*
X153103495Y-114366401D01*
X153239035Y-114172830D01*
X153338903Y-113958663D01*
X153400063Y-113730408D01*
X153420659Y-113495000D01*
X153400063Y-113259592D01*
X153338903Y-113031337D01*
X153239035Y-112817171D01*
X153205876Y-112769814D01*
X153103494Y-112623597D01*
X153090496Y-112610599D01*
X153057011Y-112549276D01*
X153061995Y-112479584D01*
X153090494Y-112435239D01*
X153892819Y-111632915D01*
X153954142Y-111599430D01*
X154023834Y-111604414D01*
X154079767Y-111646286D01*
X154104184Y-111711750D01*
X154104500Y-111720596D01*
X154104500Y-121108907D01*
X154103903Y-121121062D01*
X154090911Y-121252967D01*
X154086169Y-121276807D01*
X154049469Y-121397790D01*
X154040166Y-121420248D01*
X153980573Y-121531738D01*
X153967069Y-121551949D01*
X153886867Y-121649677D01*
X153869677Y-121666867D01*
X153771949Y-121747069D01*
X153751738Y-121760573D01*
X153640248Y-121820166D01*
X153617790Y-121829469D01*
X153496807Y-121866169D01*
X153472967Y-121870911D01*
X153375698Y-121880491D01*
X153341060Y-121883903D01*
X153328907Y-121884500D01*
X142337940Y-121884500D01*
X142270901Y-121864815D01*
X142225146Y-121812011D01*
X142215202Y-121742853D01*
X142244227Y-121679297D01*
X142250259Y-121672819D01*
X142256211Y-121666867D01*
X142264716Y-121658362D01*
X142360689Y-121505622D01*
X142420268Y-121335355D01*
X142426865Y-121276807D01*
X142440465Y-121156103D01*
X142440465Y-121156096D01*
X142420269Y-120976850D01*
X142420268Y-120976845D01*
X142360688Y-120806576D01*
X142264715Y-120653837D01*
X142137162Y-120526284D01*
X141984421Y-120430310D01*
X141814149Y-120370730D01*
X141727230Y-120360937D01*
X141662816Y-120333870D01*
X141653433Y-120325398D01*
X141570910Y-120242875D01*
X141537425Y-120181552D01*
X141542409Y-120111860D01*
X141584281Y-120055927D01*
X141647782Y-120031666D01*
X141780408Y-120020063D01*
X142008663Y-119958903D01*
X142222830Y-119859035D01*
X142416401Y-119723495D01*
X142583495Y-119556401D01*
X142713425Y-119370842D01*
X142768002Y-119327217D01*
X142837500Y-119320023D01*
X142899855Y-119351546D01*
X142916575Y-119370842D01*
X143046500Y-119556395D01*
X143046505Y-119556401D01*
X143213599Y-119723495D01*
X143310384Y-119791265D01*
X143407165Y-119859032D01*
X143407167Y-119859033D01*
X143407170Y-119859035D01*
X143621337Y-119958903D01*
X143849592Y-120020063D01*
X144026034Y-120035500D01*
X144084999Y-120040659D01*
X144085000Y-120040659D01*
X144085001Y-120040659D01*
X144143966Y-120035500D01*
X144320408Y-120020063D01*
X144548663Y-119958903D01*
X144762830Y-119859035D01*
X144956401Y-119723495D01*
X145078329Y-119601566D01*
X145139648Y-119568084D01*
X145209340Y-119573068D01*
X145265274Y-119614939D01*
X145282189Y-119645917D01*
X145331202Y-119777328D01*
X145331206Y-119777335D01*
X145417452Y-119892544D01*
X145417455Y-119892547D01*
X145532664Y-119978793D01*
X145532671Y-119978797D01*
X145667517Y-120029091D01*
X145667516Y-120029091D01*
X145674444Y-120029835D01*
X145727127Y-120035500D01*
X147522872Y-120035499D01*
X147582483Y-120029091D01*
X147717331Y-119978796D01*
X147832546Y-119892546D01*
X147918796Y-119777331D01*
X147969091Y-119642483D01*
X147975500Y-119582873D01*
X147975499Y-117787128D01*
X147969091Y-117727517D01*
X147967810Y-117724083D01*
X147918797Y-117592671D01*
X147918793Y-117592664D01*
X147832547Y-117477455D01*
X147832544Y-117477452D01*
X147717335Y-117391206D01*
X147717328Y-117391202D01*
X147582482Y-117340908D01*
X147582483Y-117340908D01*
X147522883Y-117334501D01*
X147522881Y-117334500D01*
X147522873Y-117334500D01*
X147522864Y-117334500D01*
X145727129Y-117334500D01*
X145727123Y-117334501D01*
X145667516Y-117340908D01*
X145532671Y-117391202D01*
X145532664Y-117391206D01*
X145417455Y-117477452D01*
X145417452Y-117477455D01*
X145331206Y-117592664D01*
X145331203Y-117592669D01*
X145282189Y-117724083D01*
X145240317Y-117780016D01*
X145174853Y-117804433D01*
X145106580Y-117789581D01*
X145078326Y-117768430D01*
X144956402Y-117646506D01*
X144956395Y-117646501D01*
X144762834Y-117510967D01*
X144762830Y-117510965D01*
X144720309Y-117491137D01*
X144548663Y-117411097D01*
X144548659Y-117411096D01*
X144548655Y-117411094D01*
X144320413Y-117349938D01*
X144320403Y-117349936D01*
X144085001Y-117329341D01*
X144084999Y-117329341D01*
X143849596Y-117349936D01*
X143849586Y-117349938D01*
X143621344Y-117411094D01*
X143621335Y-117411098D01*
X143407171Y-117510964D01*
X143407169Y-117510965D01*
X143213597Y-117646505D01*
X143046505Y-117813597D01*
X142916575Y-117999158D01*
X142861998Y-118042783D01*
X142792500Y-118049977D01*
X142730145Y-118018454D01*
X142713425Y-117999158D01*
X142583494Y-117813597D01*
X142416402Y-117646506D01*
X142416395Y-117646501D01*
X142222831Y-117510965D01*
X142222826Y-117510962D01*
X142217091Y-117508288D01*
X142164653Y-117462113D01*
X142145500Y-117395908D01*
X142145500Y-114109997D01*
X145269723Y-114109997D01*
X145269723Y-114110002D01*
X145288793Y-114327975D01*
X145288793Y-114327979D01*
X145345422Y-114539322D01*
X145345424Y-114539326D01*
X145345425Y-114539330D01*
X145391661Y-114638484D01*
X145437897Y-114737638D01*
X145437898Y-114737639D01*
X145563402Y-114916877D01*
X145718123Y-115071598D01*
X145897361Y-115197102D01*
X146095670Y-115289575D01*
X146307023Y-115346207D01*
X146489926Y-115362208D01*
X146524998Y-115365277D01*
X146525000Y-115365277D01*
X146525002Y-115365277D01*
X146553254Y-115362805D01*
X146742977Y-115346207D01*
X146954330Y-115289575D01*
X147152639Y-115197102D01*
X147331877Y-115071598D01*
X147486598Y-114916877D01*
X147612102Y-114737639D01*
X147704575Y-114539330D01*
X147761207Y-114327977D01*
X147780277Y-114110000D01*
X147761207Y-113892023D01*
X147704575Y-113680670D01*
X147612102Y-113482362D01*
X147612100Y-113482359D01*
X147612099Y-113482357D01*
X147486599Y-113303124D01*
X147435992Y-113252517D01*
X147331877Y-113148402D01*
X147164691Y-113031337D01*
X147152638Y-113022897D01*
X147016679Y-112959499D01*
X146954330Y-112930425D01*
X146954326Y-112930424D01*
X146954322Y-112930422D01*
X146742977Y-112873793D01*
X146525002Y-112854723D01*
X146524998Y-112854723D01*
X146379682Y-112867436D01*
X146307023Y-112873793D01*
X146307020Y-112873793D01*
X146095677Y-112930422D01*
X146095668Y-112930426D01*
X145897361Y-113022898D01*
X145897357Y-113022900D01*
X145718121Y-113148402D01*
X145563402Y-113303121D01*
X145437900Y-113482357D01*
X145437898Y-113482361D01*
X145345426Y-113680668D01*
X145345422Y-113680677D01*
X145288793Y-113892020D01*
X145288793Y-113892024D01*
X145269723Y-114109997D01*
X142145500Y-114109997D01*
X142145500Y-110442196D01*
X142165185Y-110375157D01*
X142181815Y-110354519D01*
X142883506Y-109652827D01*
X142883511Y-109652824D01*
X142893714Y-109642620D01*
X142893716Y-109642620D01*
X143005520Y-109530816D01*
X143067825Y-109422898D01*
X143118391Y-109374684D01*
X143175212Y-109360899D01*
X143453471Y-109360899D01*
X143453472Y-109360899D01*
X143513083Y-109354491D01*
X143647931Y-109304196D01*
X143763146Y-109217946D01*
X143849396Y-109102731D01*
X143899691Y-108967883D01*
X143906100Y-108908273D01*
X143906099Y-106132399D01*
X143925784Y-106065361D01*
X143978587Y-106019606D01*
X144030099Y-106008400D01*
X144050500Y-106008400D01*
X144117539Y-106028085D01*
G37*
%TD.AperFunction*%
%TA.AperFunction,NonConductor*%
G36*
X153341061Y-70816097D02*
G01*
X153472973Y-70829089D01*
X153496801Y-70833828D01*
X153617793Y-70870531D01*
X153640245Y-70879832D01*
X153695993Y-70909629D01*
X153751738Y-70939426D01*
X153771949Y-70952930D01*
X153869677Y-71033132D01*
X153886867Y-71050322D01*
X153967069Y-71148050D01*
X153980573Y-71168261D01*
X154040166Y-71279751D01*
X154049469Y-71302209D01*
X154086169Y-71423192D01*
X154090911Y-71447032D01*
X154103903Y-71578937D01*
X154104500Y-71591092D01*
X154104500Y-96219103D01*
X154084815Y-96286142D01*
X154032011Y-96331897D01*
X153962853Y-96341841D01*
X153899297Y-96312816D01*
X153892819Y-96306784D01*
X153090646Y-95504611D01*
X153057161Y-95443288D01*
X153062145Y-95373596D01*
X153090644Y-95329251D01*
X153103495Y-95316401D01*
X153239035Y-95122830D01*
X153338903Y-94908663D01*
X153400063Y-94680408D01*
X153420659Y-94445000D01*
X153400063Y-94209592D01*
X153338903Y-93981337D01*
X153239035Y-93767171D01*
X153239034Y-93767169D01*
X153103494Y-93573597D01*
X152936402Y-93406506D01*
X152936396Y-93406501D01*
X152750842Y-93276575D01*
X152707217Y-93221998D01*
X152700023Y-93152500D01*
X152731546Y-93090145D01*
X152750842Y-93073425D01*
X152911781Y-92960734D01*
X152936401Y-92943495D01*
X153103495Y-92776401D01*
X153239035Y-92582830D01*
X153338903Y-92368663D01*
X153400063Y-92140408D01*
X153420659Y-91905000D01*
X153400063Y-91669592D01*
X153345874Y-91467355D01*
X153338905Y-91441344D01*
X153338904Y-91441343D01*
X153338903Y-91441337D01*
X153239035Y-91227171D01*
X153230309Y-91214708D01*
X153103494Y-91033597D01*
X152936402Y-90866506D01*
X152936396Y-90866501D01*
X152750842Y-90736575D01*
X152707217Y-90681998D01*
X152700023Y-90612500D01*
X152731546Y-90550145D01*
X152750842Y-90533425D01*
X152773026Y-90517891D01*
X152936401Y-90403495D01*
X153103495Y-90236401D01*
X153239035Y-90042830D01*
X153338903Y-89828663D01*
X153400063Y-89600408D01*
X153420659Y-89365000D01*
X153400063Y-89129592D01*
X153338903Y-88901337D01*
X153239035Y-88687171D01*
X153210144Y-88645909D01*
X153103494Y-88493597D01*
X152936402Y-88326506D01*
X152936396Y-88326501D01*
X152750842Y-88196575D01*
X152707217Y-88141998D01*
X152700023Y-88072500D01*
X152731546Y-88010145D01*
X152750842Y-87993425D01*
X152859845Y-87917100D01*
X152936401Y-87863495D01*
X153103495Y-87696401D01*
X153239035Y-87502830D01*
X153338903Y-87288663D01*
X153400063Y-87060408D01*
X153420659Y-86825000D01*
X153418326Y-86798340D01*
X153404498Y-86640287D01*
X153400063Y-86589592D01*
X153338903Y-86361337D01*
X153239035Y-86147171D01*
X153239034Y-86147169D01*
X153103496Y-85953600D01*
X153061155Y-85911259D01*
X152981567Y-85831671D01*
X152948084Y-85770351D01*
X152953068Y-85700659D01*
X152994939Y-85644725D01*
X153025915Y-85627810D01*
X153157331Y-85578796D01*
X153272546Y-85492546D01*
X153358796Y-85377331D01*
X153409091Y-85242483D01*
X153415500Y-85182873D01*
X153415499Y-83387128D01*
X153409091Y-83327517D01*
X153358796Y-83192669D01*
X153358795Y-83192668D01*
X153358793Y-83192664D01*
X153272547Y-83077455D01*
X153272544Y-83077452D01*
X153157335Y-82991206D01*
X153157328Y-82991202D01*
X153022482Y-82940908D01*
X153022483Y-82940908D01*
X152962883Y-82934501D01*
X152962881Y-82934500D01*
X152962873Y-82934500D01*
X152962864Y-82934500D01*
X151167129Y-82934500D01*
X151167123Y-82934501D01*
X151107516Y-82940908D01*
X150972671Y-82991202D01*
X150972664Y-82991206D01*
X150857455Y-83077452D01*
X150857452Y-83077455D01*
X150813723Y-83135870D01*
X150757789Y-83177741D01*
X150688098Y-83182725D01*
X150626776Y-83149240D01*
X150582017Y-83104481D01*
X150582016Y-83104480D01*
X150495204Y-83054360D01*
X150495204Y-83054359D01*
X150495200Y-83054358D01*
X150445085Y-83025423D01*
X150292357Y-82984499D01*
X150134243Y-82984499D01*
X150126647Y-82984499D01*
X150126631Y-82984500D01*
X148430301Y-82984500D01*
X148363262Y-82964815D01*
X148317507Y-82912011D01*
X148312595Y-82899504D01*
X148288956Y-82828166D01*
X148284814Y-82815666D01*
X148192712Y-82666344D01*
X148068656Y-82542288D01*
X147967327Y-82479788D01*
X147919336Y-82450187D01*
X147919331Y-82450185D01*
X147917862Y-82449698D01*
X147752797Y-82395001D01*
X147752795Y-82395000D01*
X147650010Y-82384500D01*
X146849998Y-82384500D01*
X146849980Y-82384501D01*
X146747203Y-82395000D01*
X146747200Y-82395001D01*
X146580668Y-82450185D01*
X146580663Y-82450187D01*
X146431342Y-82542289D01*
X146337681Y-82635951D01*
X146276358Y-82669436D01*
X146206666Y-82664452D01*
X146162319Y-82635951D01*
X146068657Y-82542289D01*
X146068656Y-82542288D01*
X145967327Y-82479788D01*
X145919336Y-82450187D01*
X145919331Y-82450185D01*
X145917862Y-82449698D01*
X145752797Y-82395001D01*
X145752795Y-82395000D01*
X145650016Y-82384500D01*
X145650009Y-82384500D01*
X145010600Y-82384500D01*
X144943561Y-82364815D01*
X144897806Y-82312011D01*
X144886600Y-82260500D01*
X144886600Y-79560030D01*
X144906285Y-79492991D01*
X144945500Y-79454494D01*
X144968656Y-79440212D01*
X145092712Y-79316156D01*
X145184814Y-79166834D01*
X145239999Y-79000297D01*
X145239999Y-79000292D01*
X145240102Y-78999983D01*
X145279874Y-78942538D01*
X145344390Y-78915714D01*
X145413166Y-78928029D01*
X145464366Y-78975571D01*
X145472368Y-78991531D01*
X145482189Y-79015241D01*
X145482190Y-79015242D01*
X145615875Y-79233396D01*
X145615878Y-79233401D01*
X145673012Y-79300296D01*
X145782044Y-79427956D01*
X145890363Y-79520469D01*
X145976598Y-79594121D01*
X145976600Y-79594122D01*
X145976601Y-79594123D01*
X146113212Y-79677838D01*
X146194757Y-79727809D01*
X146194760Y-79727811D01*
X146431135Y-79825720D01*
X146431140Y-79825722D01*
X146679930Y-79885452D01*
X146935000Y-79905526D01*
X147190070Y-79885452D01*
X147438860Y-79825722D01*
X147633948Y-79744914D01*
X147675239Y-79727811D01*
X147675240Y-79727810D01*
X147675243Y-79727809D01*
X147893399Y-79594123D01*
X148087956Y-79427956D01*
X148254123Y-79233399D01*
X148387809Y-79015243D01*
X148403766Y-78976721D01*
X148465118Y-78828603D01*
X148485722Y-78778860D01*
X148545452Y-78530070D01*
X148565526Y-78275000D01*
X150384474Y-78275000D01*
X150404547Y-78530064D01*
X150404547Y-78530067D01*
X150404548Y-78530070D01*
X150442672Y-78688864D01*
X150464279Y-78778864D01*
X150562188Y-79015239D01*
X150562190Y-79015242D01*
X150695875Y-79233396D01*
X150695878Y-79233401D01*
X150753012Y-79300296D01*
X150862044Y-79427956D01*
X150970363Y-79520469D01*
X151056598Y-79594121D01*
X151056600Y-79594122D01*
X151056601Y-79594123D01*
X151193212Y-79677838D01*
X151274757Y-79727809D01*
X151274760Y-79727811D01*
X151511135Y-79825720D01*
X151511140Y-79825722D01*
X151759930Y-79885452D01*
X152015000Y-79905526D01*
X152270070Y-79885452D01*
X152518860Y-79825722D01*
X152713948Y-79744914D01*
X152755239Y-79727811D01*
X152755240Y-79727810D01*
X152755243Y-79727809D01*
X152973399Y-79594123D01*
X153167956Y-79427956D01*
X153334123Y-79233399D01*
X153467809Y-79015243D01*
X153483766Y-78976721D01*
X153545118Y-78828603D01*
X153565722Y-78778860D01*
X153625452Y-78530070D01*
X153645526Y-78275000D01*
X153625452Y-78019930D01*
X153565722Y-77771140D01*
X153528441Y-77681135D01*
X153467811Y-77534760D01*
X153467809Y-77534757D01*
X153411526Y-77442912D01*
X153334123Y-77316601D01*
X153334122Y-77316600D01*
X153334121Y-77316598D01*
X153269687Y-77241156D01*
X153167956Y-77122044D01*
X153053646Y-77024414D01*
X152973401Y-76955878D01*
X152973396Y-76955875D01*
X152755242Y-76822190D01*
X152755239Y-76822188D01*
X152518864Y-76724279D01*
X152518860Y-76724278D01*
X152270070Y-76664548D01*
X152270067Y-76664547D01*
X152270064Y-76664547D01*
X152015000Y-76644474D01*
X151759935Y-76664547D01*
X151759931Y-76664547D01*
X151759930Y-76664548D01*
X151671094Y-76685876D01*
X151511135Y-76724279D01*
X151274760Y-76822188D01*
X151274757Y-76822190D01*
X151056603Y-76955875D01*
X151056598Y-76955878D01*
X150862044Y-77122044D01*
X150695878Y-77316598D01*
X150695875Y-77316603D01*
X150562190Y-77534757D01*
X150562188Y-77534760D01*
X150464279Y-77771135D01*
X150454318Y-77812624D01*
X150404603Y-78019703D01*
X150404547Y-78019935D01*
X150384474Y-78275000D01*
X148565526Y-78275000D01*
X148545452Y-78019930D01*
X148485722Y-77771140D01*
X148448441Y-77681135D01*
X148387811Y-77534760D01*
X148387809Y-77534757D01*
X148331526Y-77442912D01*
X148254123Y-77316601D01*
X148254122Y-77316600D01*
X148254121Y-77316598D01*
X148189687Y-77241156D01*
X148087956Y-77122044D01*
X147973646Y-77024414D01*
X147893401Y-76955878D01*
X147893396Y-76955875D01*
X147675242Y-76822190D01*
X147675237Y-76822187D01*
X147612046Y-76796012D01*
X147557643Y-76752171D01*
X147535579Y-76685876D01*
X147535500Y-76681452D01*
X147535500Y-75735000D01*
X147944783Y-75735000D01*
X147963623Y-75974382D01*
X148019674Y-76207853D01*
X148019678Y-76207865D01*
X148111565Y-76429702D01*
X148217099Y-76601918D01*
X148237028Y-76634439D01*
X148392973Y-76817027D01*
X148575561Y-76972972D01*
X148633430Y-77008434D01*
X148780297Y-77098434D01*
X148877047Y-77138508D01*
X149002137Y-77190323D01*
X149235621Y-77246377D01*
X149475000Y-77265217D01*
X149714379Y-77246377D01*
X149947863Y-77190323D01*
X150141365Y-77110171D01*
X150169702Y-77098434D01*
X150180469Y-77091836D01*
X150374439Y-76972972D01*
X150557027Y-76817027D01*
X150712972Y-76634439D01*
X150838433Y-76429704D01*
X150930323Y-76207863D01*
X150986377Y-75974379D01*
X151005217Y-75735000D01*
X150986377Y-75495621D01*
X150930323Y-75262137D01*
X150866423Y-75107870D01*
X150838434Y-75040297D01*
X150739260Y-74878459D01*
X150712972Y-74835561D01*
X150557027Y-74652973D01*
X150374439Y-74497028D01*
X150374436Y-74497026D01*
X150169702Y-74371565D01*
X149976201Y-74291415D01*
X149947863Y-74279677D01*
X149947859Y-74279676D01*
X149947853Y-74279674D01*
X149714382Y-74223623D01*
X149475000Y-74204783D01*
X149235617Y-74223623D01*
X149002146Y-74279674D01*
X149002134Y-74279678D01*
X148780297Y-74371565D01*
X148575563Y-74497026D01*
X148392973Y-74652973D01*
X148237026Y-74835563D01*
X148111565Y-75040297D01*
X148019678Y-75262134D01*
X148019674Y-75262146D01*
X147963623Y-75495617D01*
X147944783Y-75735000D01*
X147535500Y-75735000D01*
X147535500Y-74788546D01*
X147555185Y-74721507D01*
X147607989Y-74675752D01*
X147612020Y-74673996D01*
X147675243Y-74647809D01*
X147893399Y-74514123D01*
X148087956Y-74347956D01*
X148254123Y-74153399D01*
X148387809Y-73935243D01*
X148485722Y-73698860D01*
X148545452Y-73450070D01*
X148565526Y-73195000D01*
X150384474Y-73195000D01*
X150404547Y-73450064D01*
X150404547Y-73450067D01*
X150404548Y-73450070D01*
X150455458Y-73662123D01*
X150464279Y-73698864D01*
X150562188Y-73935239D01*
X150562190Y-73935242D01*
X150695875Y-74153396D01*
X150695878Y-74153401D01*
X150726861Y-74189677D01*
X150862044Y-74347956D01*
X150986579Y-74454319D01*
X151056598Y-74514121D01*
X151056600Y-74514122D01*
X151056601Y-74514123D01*
X151136317Y-74562973D01*
X151274757Y-74647809D01*
X151274760Y-74647811D01*
X151510751Y-74745561D01*
X151511140Y-74745722D01*
X151759930Y-74805452D01*
X152015000Y-74825526D01*
X152270070Y-74805452D01*
X152518860Y-74745722D01*
X152692051Y-74673984D01*
X152755239Y-74647811D01*
X152755240Y-74647810D01*
X152755243Y-74647809D01*
X152973399Y-74514123D01*
X153167956Y-74347956D01*
X153334123Y-74153399D01*
X153467809Y-73935243D01*
X153565722Y-73698860D01*
X153625452Y-73450070D01*
X153645526Y-73195000D01*
X153625452Y-72939930D01*
X153565722Y-72691140D01*
X153528441Y-72601135D01*
X153467811Y-72454760D01*
X153467809Y-72454757D01*
X153334124Y-72236603D01*
X153334121Y-72236598D01*
X153274319Y-72166579D01*
X153167956Y-72042044D01*
X153061591Y-71951200D01*
X152973401Y-71875878D01*
X152973396Y-71875875D01*
X152755242Y-71742190D01*
X152755239Y-71742188D01*
X152518864Y-71644279D01*
X152518860Y-71644278D01*
X152270070Y-71584548D01*
X152270067Y-71584547D01*
X152270064Y-71584547D01*
X152015000Y-71564474D01*
X151759935Y-71584547D01*
X151759931Y-71584547D01*
X151759930Y-71584548D01*
X151732673Y-71591092D01*
X151511135Y-71644279D01*
X151274760Y-71742188D01*
X151274757Y-71742190D01*
X151056603Y-71875875D01*
X151056598Y-71875878D01*
X150862044Y-72042044D01*
X150695878Y-72236598D01*
X150695875Y-72236603D01*
X150562190Y-72454757D01*
X150562188Y-72454760D01*
X150464279Y-72691135D01*
X150404547Y-72939935D01*
X150384474Y-73195000D01*
X148565526Y-73195000D01*
X148545452Y-72939930D01*
X148485722Y-72691140D01*
X148448441Y-72601135D01*
X148387811Y-72454760D01*
X148387809Y-72454757D01*
X148254124Y-72236603D01*
X148254121Y-72236598D01*
X148194319Y-72166579D01*
X148087956Y-72042044D01*
X147981591Y-71951200D01*
X147893401Y-71875878D01*
X147893396Y-71875875D01*
X147675242Y-71742190D01*
X147675239Y-71742188D01*
X147438864Y-71644279D01*
X147438860Y-71644278D01*
X147190070Y-71584548D01*
X147190067Y-71584547D01*
X147190064Y-71584547D01*
X146935000Y-71564474D01*
X146679935Y-71584547D01*
X146679931Y-71584547D01*
X146679930Y-71584548D01*
X146652673Y-71591092D01*
X146431135Y-71644279D01*
X146194760Y-71742188D01*
X146194757Y-71742190D01*
X145976603Y-71875875D01*
X145976598Y-71875878D01*
X145782044Y-72042044D01*
X145615878Y-72236598D01*
X145615875Y-72236603D01*
X145482190Y-72454757D01*
X145482188Y-72454760D01*
X145384279Y-72691135D01*
X145324547Y-72939935D01*
X145304474Y-73195000D01*
X145324547Y-73450064D01*
X145324547Y-73450067D01*
X145324548Y-73450070D01*
X145375458Y-73662123D01*
X145384279Y-73698864D01*
X145482188Y-73935239D01*
X145482190Y-73935242D01*
X145615875Y-74153396D01*
X145615878Y-74153401D01*
X145646861Y-74189677D01*
X145782044Y-74347956D01*
X145906579Y-74454319D01*
X145976598Y-74514121D01*
X145976600Y-74514122D01*
X145976601Y-74514123D01*
X146056317Y-74562973D01*
X146168154Y-74631507D01*
X146194757Y-74647809D01*
X146257952Y-74673985D01*
X146312355Y-74717825D01*
X146334421Y-74784119D01*
X146334500Y-74788546D01*
X146334500Y-76681452D01*
X146314815Y-76748491D01*
X146262011Y-76794246D01*
X146257954Y-76796012D01*
X146194762Y-76822187D01*
X146194757Y-76822190D01*
X145976603Y-76955875D01*
X145976598Y-76955878D01*
X145782044Y-77122044D01*
X145615878Y-77316598D01*
X145615875Y-77316603D01*
X145482190Y-77534757D01*
X145482188Y-77534760D01*
X145384279Y-77771135D01*
X145384275Y-77771149D01*
X145383812Y-77773078D01*
X145383435Y-77773732D01*
X145382773Y-77775773D01*
X145382344Y-77775633D01*
X145349015Y-77833665D01*
X145286984Y-77865822D01*
X145217416Y-77859338D01*
X145162397Y-77816271D01*
X145157703Y-77809212D01*
X145141762Y-77783368D01*
X145092712Y-77703844D01*
X144968656Y-77579788D01*
X144965819Y-77578038D01*
X144964283Y-77576330D01*
X144962989Y-77575307D01*
X144963163Y-77575085D01*
X144919096Y-77526094D01*
X144907872Y-77457132D01*
X144935713Y-77393049D01*
X144965817Y-77366962D01*
X144968656Y-77365212D01*
X145092712Y-77241156D01*
X145184814Y-77091834D01*
X145239999Y-76925297D01*
X145250500Y-76822509D01*
X145250499Y-76047492D01*
X145239999Y-75944703D01*
X145184814Y-75778166D01*
X145092712Y-75628844D01*
X144968656Y-75504788D01*
X144875888Y-75447569D01*
X144819336Y-75412687D01*
X144819331Y-75412685D01*
X144798001Y-75405617D01*
X144652797Y-75357501D01*
X144652795Y-75357500D01*
X144550010Y-75347000D01*
X143499998Y-75347000D01*
X143499980Y-75347001D01*
X143397203Y-75357500D01*
X143397200Y-75357501D01*
X143230668Y-75412685D01*
X143230663Y-75412687D01*
X143081336Y-75504793D01*
X143079251Y-75506878D01*
X143077471Y-75507849D01*
X143075672Y-75509272D01*
X143075428Y-75508964D01*
X143017923Y-75540355D01*
X142948232Y-75535361D01*
X142903901Y-75506866D01*
X142397090Y-75000055D01*
X142397088Y-75000052D01*
X142336818Y-74939782D01*
X142303333Y-74878459D01*
X142300499Y-74852101D01*
X142300499Y-73662129D01*
X142300498Y-73662123D01*
X142300497Y-73662116D01*
X142294091Y-73602517D01*
X142243796Y-73467669D01*
X142243795Y-73467668D01*
X142243793Y-73467664D01*
X142157547Y-73352455D01*
X142157544Y-73352452D01*
X142042335Y-73266206D01*
X142042328Y-73266202D01*
X141907482Y-73215908D01*
X141907483Y-73215908D01*
X141847883Y-73209501D01*
X141847881Y-73209500D01*
X141847873Y-73209500D01*
X141847864Y-73209500D01*
X140402129Y-73209500D01*
X140402123Y-73209501D01*
X140342516Y-73215908D01*
X140207671Y-73266202D01*
X140207664Y-73266206D01*
X140092455Y-73352452D01*
X140092452Y-73352455D01*
X140006206Y-73467664D01*
X140006202Y-73467671D01*
X139955908Y-73602517D01*
X139949501Y-73662116D01*
X139949501Y-73662123D01*
X139949500Y-73662135D01*
X139949500Y-75107870D01*
X139949501Y-75107876D01*
X139955908Y-75167483D01*
X140006202Y-75302328D01*
X140006206Y-75302335D01*
X140047504Y-75357501D01*
X140092454Y-75417546D01*
X140178105Y-75481664D01*
X140219975Y-75537597D01*
X140224959Y-75607289D01*
X140202748Y-75655656D01*
X140121288Y-75763528D01*
X140024184Y-75958537D01*
X139964564Y-76168081D01*
X139944464Y-76384999D01*
X139944464Y-76385000D01*
X139964564Y-76601918D01*
X139964564Y-76601920D01*
X139964565Y-76601923D01*
X140019788Y-76796012D01*
X140024184Y-76811462D01*
X140121288Y-77006472D01*
X140252574Y-77180324D01*
X140376572Y-77293363D01*
X140412854Y-77353074D01*
X140411093Y-77422922D01*
X140376572Y-77476637D01*
X140252574Y-77589675D01*
X140140324Y-77738320D01*
X140084215Y-77779956D01*
X140073465Y-77783368D01*
X140069244Y-77784499D01*
X140069243Y-77784499D01*
X139916516Y-77825423D01*
X139916515Y-77825423D01*
X139916513Y-77825424D01*
X139916509Y-77825426D01*
X139779590Y-77904475D01*
X139779582Y-77904481D01*
X139510884Y-78173181D01*
X139449561Y-78206666D01*
X139423203Y-78209500D01*
X139088768Y-78209500D01*
X139021729Y-78189815D01*
X138983229Y-78150597D01*
X138965894Y-78122492D01*
X138892712Y-78003844D01*
X138768656Y-77879788D01*
X138659765Y-77812624D01*
X138619336Y-77787687D01*
X138619331Y-77787685D01*
X138583383Y-77775773D01*
X138452797Y-77732501D01*
X138452795Y-77732500D01*
X138350010Y-77722000D01*
X137299998Y-77722000D01*
X137299980Y-77722001D01*
X137197203Y-77732500D01*
X137197200Y-77732501D01*
X137030668Y-77787685D01*
X137030663Y-77787687D01*
X136881342Y-77879789D01*
X136757284Y-78003847D01*
X136756899Y-78004335D01*
X136756549Y-78004582D01*
X136752181Y-78008951D01*
X136751434Y-78008204D01*
X136699875Y-78044708D01*
X136630076Y-78047843D01*
X136569662Y-78012743D01*
X136537815Y-77950553D01*
X136536020Y-77937144D01*
X136535452Y-77929935D01*
X136535452Y-77929930D01*
X136475722Y-77681140D01*
X136437838Y-77589679D01*
X136377811Y-77444760D01*
X136377809Y-77444757D01*
X136376678Y-77442912D01*
X136244123Y-77226601D01*
X136244122Y-77226600D01*
X136244121Y-77226598D01*
X136136273Y-77100325D01*
X136077956Y-77032044D01*
X135923919Y-76900484D01*
X135883401Y-76865878D01*
X135883396Y-76865875D01*
X135665242Y-76732190D01*
X135665239Y-76732188D01*
X135428864Y-76634279D01*
X135428860Y-76634278D01*
X135180070Y-76574548D01*
X135180067Y-76574547D01*
X135180064Y-76574547D01*
X134925000Y-76554474D01*
X134669935Y-76574547D01*
X134669931Y-76574547D01*
X134669930Y-76574548D01*
X134545535Y-76604413D01*
X134421135Y-76634279D01*
X134184760Y-76732188D01*
X134184757Y-76732190D01*
X133966603Y-76865875D01*
X133966598Y-76865878D01*
X133772044Y-77032044D01*
X133605878Y-77226598D01*
X133605875Y-77226603D01*
X133472190Y-77444757D01*
X133472188Y-77444760D01*
X133374279Y-77681135D01*
X133374278Y-77681140D01*
X133337660Y-77833665D01*
X133314547Y-77929935D01*
X133294474Y-78185000D01*
X133314547Y-78440064D01*
X133314547Y-78440067D01*
X133314548Y-78440070D01*
X133353406Y-78601923D01*
X133374279Y-78688863D01*
X133374280Y-78688866D01*
X133400454Y-78752055D01*
X133407923Y-78821525D01*
X133376648Y-78884004D01*
X133373574Y-78887189D01*
X132646286Y-79614478D01*
X132534481Y-79726282D01*
X132534479Y-79726285D01*
X132523724Y-79744914D01*
X132493652Y-79797001D01*
X132455423Y-79863215D01*
X132414499Y-80015943D01*
X132414499Y-80015945D01*
X132414499Y-80053308D01*
X132394814Y-80120347D01*
X132361622Y-80154883D01*
X132175858Y-80284954D01*
X132014954Y-80445858D01*
X131884432Y-80632265D01*
X131884431Y-80632267D01*
X131788261Y-80838502D01*
X131788258Y-80838511D01*
X131729366Y-81058302D01*
X131729364Y-81058313D01*
X131709532Y-81284998D01*
X131709532Y-81285001D01*
X131729364Y-81511686D01*
X131729366Y-81511697D01*
X131788258Y-81731488D01*
X131788261Y-81731497D01*
X131884431Y-81937732D01*
X131884432Y-81937734D01*
X132014954Y-82124141D01*
X132175858Y-82285045D01*
X132175861Y-82285047D01*
X132362266Y-82415568D01*
X132568504Y-82511739D01*
X132788308Y-82570635D01*
X132950230Y-82584801D01*
X133014998Y-82590468D01*
X133015000Y-82590468D01*
X133015002Y-82590468D01*
X133071673Y-82585509D01*
X133241692Y-82570635D01*
X133461496Y-82511739D01*
X133667734Y-82415568D01*
X133854139Y-82285047D01*
X134015047Y-82124139D01*
X134145568Y-81937734D01*
X134241739Y-81731496D01*
X134300635Y-81511692D01*
X134320468Y-81285000D01*
X134300635Y-81058308D01*
X134241739Y-80838504D01*
X134145568Y-80632266D01*
X134015047Y-80445861D01*
X134015045Y-80445858D01*
X133851891Y-80282704D01*
X133818406Y-80221381D01*
X133823390Y-80151689D01*
X133851889Y-80107344D01*
X134222811Y-79736422D01*
X134284132Y-79702939D01*
X134353824Y-79707923D01*
X134357881Y-79709519D01*
X134421140Y-79735722D01*
X134669930Y-79795452D01*
X134925000Y-79815526D01*
X135180070Y-79795452D01*
X135428860Y-79735722D01*
X135547051Y-79686765D01*
X135665239Y-79637811D01*
X135665240Y-79637810D01*
X135665243Y-79637809D01*
X135883399Y-79504123D01*
X136077956Y-79337956D01*
X136244123Y-79143399D01*
X136369773Y-78938355D01*
X136421584Y-78891481D01*
X136490514Y-78880058D01*
X136554677Y-78907715D01*
X136593701Y-78965670D01*
X136599500Y-79003145D01*
X136599500Y-79197500D01*
X136599501Y-79197519D01*
X136610000Y-79300296D01*
X136610001Y-79300299D01*
X136665185Y-79466831D01*
X136665187Y-79466836D01*
X136698268Y-79520469D01*
X136756254Y-79614480D01*
X136757289Y-79616157D01*
X136881346Y-79740214D01*
X136884182Y-79741963D01*
X136885717Y-79743670D01*
X136887011Y-79744693D01*
X136886836Y-79744914D01*
X136930905Y-79793911D01*
X136942126Y-79862874D01*
X136914282Y-79926956D01*
X136884182Y-79953037D01*
X136881346Y-79954785D01*
X136757289Y-80078842D01*
X136665187Y-80228163D01*
X136665185Y-80228168D01*
X136656227Y-80255203D01*
X136610001Y-80394703D01*
X136610001Y-80394704D01*
X136610000Y-80394704D01*
X136599500Y-80497483D01*
X136599500Y-81209901D01*
X136579815Y-81276940D01*
X136563181Y-81297582D01*
X135751022Y-82109741D01*
X135750204Y-82110459D01*
X135633081Y-82227582D01*
X135633075Y-82227590D01*
X135554026Y-82364509D01*
X135554023Y-82364516D01*
X135513100Y-82517243D01*
X135513100Y-88685500D01*
X135493415Y-88752539D01*
X135440611Y-88798294D01*
X135389100Y-88809500D01*
X132499998Y-88809500D01*
X132499981Y-88809501D01*
X132397203Y-88820000D01*
X132397200Y-88820001D01*
X132230668Y-88875185D01*
X132230663Y-88875187D01*
X132081342Y-88967289D01*
X131957289Y-89091342D01*
X131865187Y-89240663D01*
X131865185Y-89240668D01*
X131837349Y-89324670D01*
X131810001Y-89407203D01*
X131810001Y-89407204D01*
X131810000Y-89407204D01*
X131799500Y-89509983D01*
X131799500Y-90710001D01*
X131799501Y-90710018D01*
X131810000Y-90812796D01*
X131810001Y-90812799D01*
X131845087Y-90918679D01*
X131865186Y-90979334D01*
X131950195Y-91117157D01*
X131957289Y-91128657D01*
X131982017Y-91153385D01*
X132015502Y-91214708D01*
X132010518Y-91284400D01*
X131982017Y-91328747D01*
X131369481Y-91941282D01*
X131369477Y-91941287D01*
X131321769Y-92023922D01*
X131321769Y-92023923D01*
X131290423Y-92078214D01*
X131282629Y-92107303D01*
X131249499Y-92230943D01*
X131249499Y-92230945D01*
X131249499Y-92399046D01*
X131249500Y-92399059D01*
X131249500Y-99821232D01*
X131229815Y-99888271D01*
X131190598Y-99926769D01*
X131184927Y-99930268D01*
X131043842Y-100017289D01*
X130919785Y-100141346D01*
X130918037Y-100144182D01*
X130916329Y-100145717D01*
X130915307Y-100147011D01*
X130915085Y-100146836D01*
X130866089Y-100190905D01*
X130797126Y-100202126D01*
X130733044Y-100174282D01*
X130706963Y-100144182D01*
X130705214Y-100141346D01*
X130581157Y-100017289D01*
X130581156Y-100017288D01*
X130488388Y-99960069D01*
X130431836Y-99925187D01*
X130431831Y-99925185D01*
X130430362Y-99924698D01*
X130265297Y-99870001D01*
X130265295Y-99870000D01*
X130162516Y-99859500D01*
X130162509Y-99859500D01*
X129450097Y-99859500D01*
X129383058Y-99839815D01*
X129362416Y-99823181D01*
X129086819Y-99547584D01*
X129053334Y-99486261D01*
X129050500Y-99459903D01*
X129050500Y-91534499D01*
X129070185Y-91467460D01*
X129122989Y-91421705D01*
X129174500Y-91410499D01*
X130000002Y-91410499D01*
X130000008Y-91410499D01*
X130102797Y-91399999D01*
X130269334Y-91344814D01*
X130418656Y-91252712D01*
X130542712Y-91128656D01*
X130634814Y-90979334D01*
X130689999Y-90812797D01*
X130700500Y-90710009D01*
X130700499Y-89509992D01*
X130689999Y-89407203D01*
X130634814Y-89240666D01*
X130542712Y-89091344D01*
X130418656Y-88967288D01*
X130269334Y-88875186D01*
X130102797Y-88820001D01*
X130102795Y-88820000D01*
X130000010Y-88809500D01*
X126899998Y-88809500D01*
X126899981Y-88809501D01*
X126797203Y-88820000D01*
X126797200Y-88820001D01*
X126630668Y-88875185D01*
X126630663Y-88875187D01*
X126481342Y-88967289D01*
X126357289Y-89091342D01*
X126265187Y-89240663D01*
X126265185Y-89240668D01*
X126237349Y-89324670D01*
X126210001Y-89407203D01*
X126210001Y-89407204D01*
X126210000Y-89407204D01*
X126199500Y-89509983D01*
X126199500Y-90710001D01*
X126199501Y-90710018D01*
X126210000Y-90812796D01*
X126210001Y-90812799D01*
X126245087Y-90918679D01*
X126265186Y-90979334D01*
X126357288Y-91128656D01*
X126481344Y-91252712D01*
X126630666Y-91344814D01*
X126797203Y-91399999D01*
X126899991Y-91410500D01*
X127725500Y-91410499D01*
X127792539Y-91430183D01*
X127838294Y-91482987D01*
X127849500Y-91534499D01*
X127849500Y-99673330D01*
X127849499Y-99673348D01*
X127849499Y-99839054D01*
X127849498Y-99839054D01*
X127890424Y-99991789D01*
X127890425Y-99991790D01*
X127910743Y-100026981D01*
X127910744Y-100026982D01*
X127969477Y-100128712D01*
X127969481Y-100128717D01*
X128088349Y-100247585D01*
X128088355Y-100247590D01*
X128650681Y-100809916D01*
X128684166Y-100871239D01*
X128687000Y-100897597D01*
X128687000Y-101610001D01*
X128687001Y-101610019D01*
X128697500Y-101712796D01*
X128697501Y-101712799D01*
X128752685Y-101879331D01*
X128752687Y-101879336D01*
X128787569Y-101935888D01*
X128844788Y-102028656D01*
X128968844Y-102152712D01*
X129118166Y-102244814D01*
X129284703Y-102299999D01*
X129387491Y-102310500D01*
X130099902Y-102310499D01*
X130166941Y-102330183D01*
X130187583Y-102346818D01*
X131313584Y-103472819D01*
X131347069Y-103534142D01*
X131342085Y-103603834D01*
X131300213Y-103659767D01*
X131234749Y-103684184D01*
X131225904Y-103684500D01*
X131087499Y-103684500D01*
X131087480Y-103684501D01*
X130984703Y-103695000D01*
X130984700Y-103695001D01*
X130818168Y-103750185D01*
X130818163Y-103750187D01*
X130668842Y-103842289D01*
X130544789Y-103966342D01*
X130452687Y-104115663D01*
X130452686Y-104115666D01*
X130397501Y-104282203D01*
X130397501Y-104282204D01*
X130397500Y-104282204D01*
X130387000Y-104384983D01*
X130387000Y-105435001D01*
X130387001Y-105435019D01*
X130397500Y-105537796D01*
X130397501Y-105537799D01*
X130437500Y-105658505D01*
X130452686Y-105704334D01*
X130544788Y-105853656D01*
X130668844Y-105977712D01*
X130815597Y-106068229D01*
X130862321Y-106120175D01*
X130874500Y-106173767D01*
X130874500Y-107686102D01*
X130854815Y-107753141D01*
X130838181Y-107773783D01*
X130399666Y-108212298D01*
X130338343Y-108245783D01*
X130268651Y-108240799D01*
X130212718Y-108198927D01*
X130189512Y-108144014D01*
X130173403Y-108042303D01*
X130173402Y-108042302D01*
X130173402Y-108042299D01*
X130119873Y-107877555D01*
X130041232Y-107723212D01*
X129939414Y-107583072D01*
X129816928Y-107460586D01*
X129676788Y-107358768D01*
X129522445Y-107280127D01*
X129357701Y-107226598D01*
X129357699Y-107226597D01*
X129357698Y-107226597D01*
X129212851Y-107203656D01*
X129186611Y-107199500D01*
X129013389Y-107199500D01*
X128987149Y-107203656D01*
X128842302Y-107226597D01*
X128677552Y-107280128D01*
X128523211Y-107358768D01*
X128443256Y-107416859D01*
X128383072Y-107460586D01*
X128383070Y-107460588D01*
X128383069Y-107460588D01*
X128260588Y-107583069D01*
X128260588Y-107583070D01*
X128260586Y-107583072D01*
X128234025Y-107619630D01*
X128158768Y-107723211D01*
X128080128Y-107877552D01*
X128026597Y-108042302D01*
X128021416Y-108075016D01*
X127999500Y-108213389D01*
X127999500Y-108386611D01*
X128026598Y-108557701D01*
X128080127Y-108722445D01*
X128158768Y-108876788D01*
X128260586Y-109016928D01*
X128383072Y-109139414D01*
X128523212Y-109241232D01*
X128677555Y-109319873D01*
X128842299Y-109373402D01*
X128944014Y-109389512D01*
X129007148Y-109419441D01*
X129044080Y-109478752D01*
X129043082Y-109548615D01*
X129012297Y-109599666D01*
X128413782Y-110198181D01*
X128352459Y-110231666D01*
X128326101Y-110234500D01*
X126274998Y-110234500D01*
X126274981Y-110234501D01*
X126172203Y-110245000D01*
X126172200Y-110245001D01*
X126005668Y-110300185D01*
X126005663Y-110300187D01*
X125856342Y-110392289D01*
X125732289Y-110516342D01*
X125640187Y-110665663D01*
X125640185Y-110665668D01*
X125612349Y-110749670D01*
X125585001Y-110832203D01*
X125585001Y-110832204D01*
X125585000Y-110832204D01*
X125574500Y-110934983D01*
X125574500Y-112135001D01*
X125574501Y-112135018D01*
X125585000Y-112237796D01*
X125585001Y-112237799D01*
X125640185Y-112404331D01*
X125640186Y-112404334D01*
X125732288Y-112553656D01*
X125856344Y-112677712D01*
X126005666Y-112769814D01*
X126172203Y-112824999D01*
X126274991Y-112835500D01*
X129375008Y-112835499D01*
X129477797Y-112824999D01*
X129644334Y-112769814D01*
X129793656Y-112677712D01*
X129917712Y-112553656D01*
X130009814Y-112404334D01*
X130064999Y-112237797D01*
X130075500Y-112135009D01*
X130075499Y-110934992D01*
X130071877Y-110899539D01*
X130064999Y-110832203D01*
X130064998Y-110832200D01*
X130028673Y-110722580D01*
X130009814Y-110665666D01*
X129922020Y-110523328D01*
X129903581Y-110455939D01*
X129924503Y-110389276D01*
X129939874Y-110370559D01*
X131387318Y-108923116D01*
X131448641Y-108889631D01*
X131518333Y-108894615D01*
X131562680Y-108923116D01*
X132662383Y-110022819D01*
X132695868Y-110084142D01*
X132690884Y-110153834D01*
X132649012Y-110209767D01*
X132583548Y-110234184D01*
X132574702Y-110234500D01*
X131874998Y-110234500D01*
X131874981Y-110234501D01*
X131772203Y-110245000D01*
X131772200Y-110245001D01*
X131605668Y-110300185D01*
X131605663Y-110300187D01*
X131456342Y-110392289D01*
X131332289Y-110516342D01*
X131240187Y-110665663D01*
X131240185Y-110665668D01*
X131212349Y-110749670D01*
X131185001Y-110832203D01*
X131185001Y-110832204D01*
X131185000Y-110832204D01*
X131174500Y-110934983D01*
X131174500Y-112135001D01*
X131174501Y-112135018D01*
X131185000Y-112237796D01*
X131185001Y-112237799D01*
X131240185Y-112404331D01*
X131240186Y-112404334D01*
X131332288Y-112553656D01*
X131456344Y-112677712D01*
X131605666Y-112769814D01*
X131772203Y-112824999D01*
X131874991Y-112835500D01*
X132700500Y-112835499D01*
X132767539Y-112855183D01*
X132813294Y-112907987D01*
X132824500Y-112959499D01*
X132824500Y-114406630D01*
X132824499Y-114406648D01*
X132824499Y-114572354D01*
X132824498Y-114572354D01*
X132865422Y-114725083D01*
X132886214Y-114761095D01*
X132886216Y-114761098D01*
X132944479Y-114862014D01*
X132944481Y-114862017D01*
X133063349Y-114980885D01*
X133063355Y-114980890D01*
X135573603Y-117491138D01*
X135607088Y-117552461D01*
X135602104Y-117622153D01*
X135573603Y-117666500D01*
X135426505Y-117813597D01*
X135290965Y-118007169D01*
X135290964Y-118007171D01*
X135191098Y-118221335D01*
X135191094Y-118221344D01*
X135129938Y-118449586D01*
X135129936Y-118449596D01*
X135109341Y-118684999D01*
X135109341Y-118685000D01*
X135129936Y-118920403D01*
X135129938Y-118920413D01*
X135191094Y-119148655D01*
X135191096Y-119148659D01*
X135191097Y-119148663D01*
X135195000Y-119157032D01*
X135290965Y-119362830D01*
X135290967Y-119362834D01*
X135399281Y-119517521D01*
X135426505Y-119556401D01*
X135593599Y-119723495D01*
X135690384Y-119791265D01*
X135787165Y-119859032D01*
X135787167Y-119859033D01*
X135787170Y-119859035D01*
X136001337Y-119958903D01*
X136229592Y-120020063D01*
X136406034Y-120035500D01*
X136464999Y-120040659D01*
X136465000Y-120040659D01*
X136465001Y-120040659D01*
X136523966Y-120035500D01*
X136700408Y-120020063D01*
X136928663Y-119958903D01*
X137142830Y-119859035D01*
X137336401Y-119723495D01*
X137503495Y-119556401D01*
X137633425Y-119370842D01*
X137688002Y-119327217D01*
X137757500Y-119320023D01*
X137819855Y-119351546D01*
X137836575Y-119370842D01*
X137966500Y-119556395D01*
X137966505Y-119556401D01*
X138133599Y-119723495D01*
X138230384Y-119791265D01*
X138327165Y-119859032D01*
X138327167Y-119859033D01*
X138327170Y-119859035D01*
X138541337Y-119958903D01*
X138769592Y-120020063D01*
X138946034Y-120035500D01*
X139004999Y-120040659D01*
X139005000Y-120040659D01*
X139005001Y-120040659D01*
X139063966Y-120035500D01*
X139240408Y-120020063D01*
X139468663Y-119958903D01*
X139537630Y-119926742D01*
X139606705Y-119916251D01*
X139670489Y-119944770D01*
X139708729Y-120003246D01*
X139709807Y-120007029D01*
X139713300Y-120020063D01*
X139715423Y-120027985D01*
X139719761Y-120035499D01*
X139744358Y-120078100D01*
X139744359Y-120078104D01*
X139744360Y-120078104D01*
X139794479Y-120164914D01*
X139794481Y-120164917D01*
X139913349Y-120283785D01*
X139913355Y-120283790D01*
X140804198Y-121174633D01*
X140837683Y-121235956D01*
X140839737Y-121248430D01*
X140849530Y-121335349D01*
X140909110Y-121505621D01*
X141005084Y-121658362D01*
X141019541Y-121672819D01*
X141053026Y-121734142D01*
X141048042Y-121803834D01*
X141006170Y-121859767D01*
X140940706Y-121884184D01*
X140931860Y-121884500D01*
X124131093Y-121884500D01*
X124118939Y-121883903D01*
X123987033Y-121870911D01*
X123963192Y-121866169D01*
X123842209Y-121829469D01*
X123819751Y-121820166D01*
X123708261Y-121760573D01*
X123688050Y-121747069D01*
X123590322Y-121666867D01*
X123573132Y-121649677D01*
X123492930Y-121551949D01*
X123479426Y-121531738D01*
X123419833Y-121420248D01*
X123410530Y-121397790D01*
X123373828Y-121276801D01*
X123369089Y-121252973D01*
X123356097Y-121121061D01*
X123355500Y-121108907D01*
X123355500Y-115213389D01*
X127999500Y-115213389D01*
X127999500Y-115386611D01*
X128026598Y-115557701D01*
X128080127Y-115722445D01*
X128158768Y-115876788D01*
X128260586Y-116016928D01*
X128383072Y-116139414D01*
X128523212Y-116241232D01*
X128677555Y-116319873D01*
X128842299Y-116373402D01*
X129013389Y-116400500D01*
X129013390Y-116400500D01*
X129186610Y-116400500D01*
X129186611Y-116400500D01*
X129357701Y-116373402D01*
X129522445Y-116319873D01*
X129676788Y-116241232D01*
X129816928Y-116139414D01*
X129939414Y-116016928D01*
X130041232Y-115876788D01*
X130119873Y-115722445D01*
X130173402Y-115557701D01*
X130200500Y-115386611D01*
X130200500Y-115213389D01*
X130173402Y-115042299D01*
X130119873Y-114877555D01*
X130041232Y-114723212D01*
X129939414Y-114583072D01*
X129816928Y-114460586D01*
X129676788Y-114358768D01*
X129522445Y-114280127D01*
X129357701Y-114226598D01*
X129357699Y-114226597D01*
X129357698Y-114226597D01*
X129226271Y-114205781D01*
X129186611Y-114199500D01*
X129013389Y-114199500D01*
X128973728Y-114205781D01*
X128842302Y-114226597D01*
X128677552Y-114280128D01*
X128523211Y-114358768D01*
X128457336Y-114406630D01*
X128383072Y-114460586D01*
X128383070Y-114460588D01*
X128383069Y-114460588D01*
X128260588Y-114583069D01*
X128260588Y-114583070D01*
X128260586Y-114583072D01*
X128216859Y-114643256D01*
X128158768Y-114723211D01*
X128080128Y-114877552D01*
X128026597Y-115042302D01*
X128008196Y-115158484D01*
X127999500Y-115213389D01*
X123355500Y-115213389D01*
X123355500Y-73105000D01*
X128214474Y-73105000D01*
X128234547Y-73360064D01*
X128234547Y-73360067D01*
X128234548Y-73360070D01*
X128260381Y-73467669D01*
X128294279Y-73608864D01*
X128392188Y-73845239D01*
X128392190Y-73845242D01*
X128525875Y-74063396D01*
X128525878Y-74063401D01*
X128569763Y-74114783D01*
X128692044Y-74257956D01*
X128797420Y-74347955D01*
X128886598Y-74424121D01*
X128886603Y-74424124D01*
X129033464Y-74514121D01*
X129104757Y-74557809D01*
X129167952Y-74583985D01*
X129222355Y-74627825D01*
X129244421Y-74694119D01*
X129244500Y-74698546D01*
X129244500Y-76591452D01*
X129224815Y-76658491D01*
X129172011Y-76704246D01*
X129167954Y-76706012D01*
X129104762Y-76732187D01*
X129104757Y-76732190D01*
X128886603Y-76865875D01*
X128886598Y-76865878D01*
X128692044Y-77032044D01*
X128525878Y-77226598D01*
X128525875Y-77226603D01*
X128392190Y-77444757D01*
X128392188Y-77444760D01*
X128294279Y-77681135D01*
X128294278Y-77681140D01*
X128257660Y-77833665D01*
X128234547Y-77929935D01*
X128214474Y-78185000D01*
X128234547Y-78440064D01*
X128234547Y-78440067D01*
X128234548Y-78440070D01*
X128273406Y-78601923D01*
X128294279Y-78688864D01*
X128392188Y-78925239D01*
X128392190Y-78925242D01*
X128525875Y-79143396D01*
X128525878Y-79143401D01*
X128579806Y-79206542D01*
X128692044Y-79337956D01*
X128791242Y-79422679D01*
X128886598Y-79504121D01*
X128886600Y-79504122D01*
X128886601Y-79504123D01*
X129069424Y-79616157D01*
X129104757Y-79637809D01*
X129104760Y-79637811D01*
X129318357Y-79726285D01*
X129341140Y-79735722D01*
X129589930Y-79795452D01*
X129845000Y-79815526D01*
X130100070Y-79795452D01*
X130348860Y-79735722D01*
X130467051Y-79686765D01*
X130585239Y-79637811D01*
X130585240Y-79637810D01*
X130585243Y-79637809D01*
X130803399Y-79504123D01*
X130997956Y-79337956D01*
X131164123Y-79143399D01*
X131297809Y-78925243D01*
X131300849Y-78917905D01*
X131369546Y-78752055D01*
X131395722Y-78688860D01*
X131455452Y-78440070D01*
X131475526Y-78185000D01*
X131455452Y-77929930D01*
X131395722Y-77681140D01*
X131357838Y-77589679D01*
X131297811Y-77444760D01*
X131297809Y-77444757D01*
X131296678Y-77442912D01*
X131164123Y-77226601D01*
X131164122Y-77226600D01*
X131164121Y-77226598D01*
X131056273Y-77100325D01*
X130997956Y-77032044D01*
X130843919Y-76900484D01*
X130803401Y-76865878D01*
X130803396Y-76865875D01*
X130585242Y-76732190D01*
X130585237Y-76732187D01*
X130522046Y-76706012D01*
X130467643Y-76662171D01*
X130445579Y-76595876D01*
X130445500Y-76591452D01*
X130445500Y-75645000D01*
X130854783Y-75645000D01*
X130873623Y-75884382D01*
X130929674Y-76117853D01*
X130929678Y-76117865D01*
X131021565Y-76339702D01*
X131147026Y-76544436D01*
X131147028Y-76544439D01*
X131302973Y-76727027D01*
X131485561Y-76882972D01*
X131485563Y-76882973D01*
X131690297Y-77008434D01*
X131787047Y-77048508D01*
X131912137Y-77100323D01*
X132145621Y-77156377D01*
X132385000Y-77175217D01*
X132624379Y-77156377D01*
X132857863Y-77100323D01*
X133079704Y-77008433D01*
X133284439Y-76882972D01*
X133467027Y-76727027D01*
X133622972Y-76544439D01*
X133748433Y-76339704D01*
X133840323Y-76117863D01*
X133896377Y-75884379D01*
X133915217Y-75645000D01*
X133896377Y-75405621D01*
X133840323Y-75172137D01*
X133766115Y-74992984D01*
X133748434Y-74950297D01*
X133646600Y-74784119D01*
X133622972Y-74745561D01*
X133467027Y-74562973D01*
X133284439Y-74407028D01*
X133226572Y-74371567D01*
X133079702Y-74281565D01*
X132857865Y-74189678D01*
X132857867Y-74189678D01*
X132857863Y-74189677D01*
X132857859Y-74189676D01*
X132857853Y-74189674D01*
X132624382Y-74133623D01*
X132385000Y-74114783D01*
X132145617Y-74133623D01*
X131912146Y-74189674D01*
X131912134Y-74189678D01*
X131690297Y-74281565D01*
X131485563Y-74407026D01*
X131302973Y-74562973D01*
X131147026Y-74745563D01*
X131021565Y-74950297D01*
X130929678Y-75172134D01*
X130929674Y-75172146D01*
X130873623Y-75405617D01*
X130854783Y-75645000D01*
X130445500Y-75645000D01*
X130445500Y-74698546D01*
X130465185Y-74631507D01*
X130517989Y-74585752D01*
X130522020Y-74583996D01*
X130585243Y-74557809D01*
X130803399Y-74424123D01*
X130997956Y-74257956D01*
X131164123Y-74063399D01*
X131297809Y-73845243D01*
X131395722Y-73608860D01*
X131455452Y-73360070D01*
X131475526Y-73105000D01*
X133294474Y-73105000D01*
X133314547Y-73360064D01*
X133314547Y-73360067D01*
X133314548Y-73360070D01*
X133340381Y-73467669D01*
X133374279Y-73608864D01*
X133472188Y-73845239D01*
X133472190Y-73845242D01*
X133605875Y-74063396D01*
X133605878Y-74063401D01*
X133649763Y-74114783D01*
X133772044Y-74257956D01*
X133877420Y-74347955D01*
X133966598Y-74424121D01*
X133966600Y-74424122D01*
X133966601Y-74424123D01*
X134184755Y-74557808D01*
X134184757Y-74557809D01*
X134184760Y-74557811D01*
X134402034Y-74647808D01*
X134421140Y-74655722D01*
X134669930Y-74715452D01*
X134925000Y-74735526D01*
X135180070Y-74715452D01*
X135428860Y-74655722D01*
X135602051Y-74583984D01*
X135665239Y-74557811D01*
X135665240Y-74557810D01*
X135665243Y-74557809D01*
X135883399Y-74424123D01*
X136077956Y-74257956D01*
X136244123Y-74063399D01*
X136377809Y-73845243D01*
X136475722Y-73608860D01*
X136535452Y-73360070D01*
X136555526Y-73105000D01*
X136535452Y-72849930D01*
X136475722Y-72601140D01*
X136475720Y-72601135D01*
X136377811Y-72364760D01*
X136377809Y-72364757D01*
X136244124Y-72146603D01*
X136244121Y-72146598D01*
X136154823Y-72042044D01*
X136077956Y-71952044D01*
X135971591Y-71861200D01*
X135883401Y-71785878D01*
X135883396Y-71785875D01*
X135665242Y-71652190D01*
X135665239Y-71652188D01*
X135428864Y-71554279D01*
X135428860Y-71554278D01*
X135180070Y-71494548D01*
X135180067Y-71494547D01*
X135180064Y-71494547D01*
X134925000Y-71474474D01*
X134669935Y-71494547D01*
X134669931Y-71494547D01*
X134669930Y-71494548D01*
X134567632Y-71519108D01*
X134421135Y-71554279D01*
X134184760Y-71652188D01*
X134184757Y-71652190D01*
X133966603Y-71785875D01*
X133966598Y-71785878D01*
X133772044Y-71952044D01*
X133605878Y-72146598D01*
X133605875Y-72146603D01*
X133472190Y-72364757D01*
X133472188Y-72364760D01*
X133374279Y-72601135D01*
X133314547Y-72849935D01*
X133294474Y-73105000D01*
X131475526Y-73105000D01*
X131455452Y-72849930D01*
X131395722Y-72601140D01*
X131395720Y-72601135D01*
X131297811Y-72364760D01*
X131297809Y-72364757D01*
X131164124Y-72146603D01*
X131164121Y-72146598D01*
X131074823Y-72042044D01*
X130997956Y-71952044D01*
X130891591Y-71861200D01*
X130803401Y-71785878D01*
X130803396Y-71785875D01*
X130585242Y-71652190D01*
X130585239Y-71652188D01*
X130348864Y-71554279D01*
X130348860Y-71554278D01*
X130100070Y-71494548D01*
X130100067Y-71494547D01*
X130100064Y-71494547D01*
X129845000Y-71474474D01*
X129589935Y-71494547D01*
X129589931Y-71494547D01*
X129589930Y-71494548D01*
X129487632Y-71519108D01*
X129341135Y-71554279D01*
X129104760Y-71652188D01*
X129104757Y-71652190D01*
X128886603Y-71785875D01*
X128886598Y-71785878D01*
X128692044Y-71952044D01*
X128525878Y-72146598D01*
X128525875Y-72146603D01*
X128392190Y-72364757D01*
X128392188Y-72364760D01*
X128294279Y-72601135D01*
X128234547Y-72849935D01*
X128214474Y-73105000D01*
X123355500Y-73105000D01*
X123355500Y-71591092D01*
X123356097Y-71578938D01*
X123361990Y-71519108D01*
X123369089Y-71447024D01*
X123373828Y-71423200D01*
X123410532Y-71302202D01*
X123419830Y-71279757D01*
X123479427Y-71168259D01*
X123492930Y-71148050D01*
X123573137Y-71050316D01*
X123590316Y-71033137D01*
X123688052Y-70952928D01*
X123708261Y-70939426D01*
X123819757Y-70879830D01*
X123842202Y-70870532D01*
X123963200Y-70833828D01*
X123987024Y-70829089D01*
X124118939Y-70816097D01*
X124131093Y-70815500D01*
X124190892Y-70815500D01*
X153269108Y-70815500D01*
X153328907Y-70815500D01*
X153341061Y-70816097D01*
G37*
%TD.AperFunction*%
M02*
