%TF.GenerationSoftware,KiCad,Pcbnew,8.0.4*%
%TF.CreationDate,2025-05-02T23:49:30+05:30*%
%TF.ProjectId,Si4732Board,53693437-3332-4426-9f61-72642e6b6963,rev?*%
%TF.SameCoordinates,Original*%
%TF.FileFunction,Legend,Top*%
%TF.FilePolarity,Positive*%
%FSLAX46Y46*%
G04 Gerber Fmt 4.6, Leading zero omitted, Abs format (unit mm)*
G04 Created by KiCad (PCBNEW 8.0.4) date 2025-05-02 23:49:30*
%MOMM*%
%LPD*%
G01*
G04 APERTURE LIST*
%ADD10C,0.150000*%
%ADD11C,0.152400*%
%ADD12C,0.120000*%
G04 APERTURE END LIST*
D10*
X140045180Y-106523095D02*
X139235657Y-106523095D01*
X139235657Y-106523095D02*
X139140419Y-106570714D01*
X139140419Y-106570714D02*
X139092800Y-106618333D01*
X139092800Y-106618333D02*
X139045180Y-106713571D01*
X139045180Y-106713571D02*
X139045180Y-106904047D01*
X139045180Y-106904047D02*
X139092800Y-106999285D01*
X139092800Y-106999285D02*
X139140419Y-107046904D01*
X139140419Y-107046904D02*
X139235657Y-107094523D01*
X139235657Y-107094523D02*
X140045180Y-107094523D01*
X139045180Y-108094523D02*
X139045180Y-107523095D01*
X139045180Y-107808809D02*
X140045180Y-107808809D01*
X140045180Y-107808809D02*
X139902323Y-107713571D01*
X139902323Y-107713571D02*
X139807085Y-107618333D01*
X139807085Y-107618333D02*
X139759466Y-107523095D01*
X148979819Y-113828333D02*
X149694104Y-113828333D01*
X149694104Y-113828333D02*
X149836961Y-113875952D01*
X149836961Y-113875952D02*
X149932200Y-113971190D01*
X149932200Y-113971190D02*
X149979819Y-114114047D01*
X149979819Y-114114047D02*
X149979819Y-114209285D01*
X148979819Y-113447380D02*
X148979819Y-112828333D01*
X148979819Y-112828333D02*
X149360771Y-113161666D01*
X149360771Y-113161666D02*
X149360771Y-113018809D01*
X149360771Y-113018809D02*
X149408390Y-112923571D01*
X149408390Y-112923571D02*
X149456009Y-112875952D01*
X149456009Y-112875952D02*
X149551247Y-112828333D01*
X149551247Y-112828333D02*
X149789342Y-112828333D01*
X149789342Y-112828333D02*
X149884580Y-112875952D01*
X149884580Y-112875952D02*
X149932200Y-112923571D01*
X149932200Y-112923571D02*
X149979819Y-113018809D01*
X149979819Y-113018809D02*
X149979819Y-113304523D01*
X149979819Y-113304523D02*
X149932200Y-113399761D01*
X149932200Y-113399761D02*
X149884580Y-113447380D01*
X140791666Y-71779819D02*
X140791666Y-72494104D01*
X140791666Y-72494104D02*
X140744047Y-72636961D01*
X140744047Y-72636961D02*
X140648809Y-72732200D01*
X140648809Y-72732200D02*
X140505952Y-72779819D01*
X140505952Y-72779819D02*
X140410714Y-72779819D01*
X141172619Y-71779819D02*
X141839285Y-71779819D01*
X141839285Y-71779819D02*
X141410714Y-72779819D01*
X134079819Y-75943333D02*
X134794104Y-75943333D01*
X134794104Y-75943333D02*
X134936961Y-75990952D01*
X134936961Y-75990952D02*
X135032200Y-76086190D01*
X135032200Y-76086190D02*
X135079819Y-76229047D01*
X135079819Y-76229047D02*
X135079819Y-76324285D01*
X134079819Y-74990952D02*
X134079819Y-75467142D01*
X134079819Y-75467142D02*
X134556009Y-75514761D01*
X134556009Y-75514761D02*
X134508390Y-75467142D01*
X134508390Y-75467142D02*
X134460771Y-75371904D01*
X134460771Y-75371904D02*
X134460771Y-75133809D01*
X134460771Y-75133809D02*
X134508390Y-75038571D01*
X134508390Y-75038571D02*
X134556009Y-74990952D01*
X134556009Y-74990952D02*
X134651247Y-74943333D01*
X134651247Y-74943333D02*
X134889342Y-74943333D01*
X134889342Y-74943333D02*
X134984580Y-74990952D01*
X134984580Y-74990952D02*
X135032200Y-75038571D01*
X135032200Y-75038571D02*
X135079819Y-75133809D01*
X135079819Y-75133809D02*
X135079819Y-75371904D01*
X135079819Y-75371904D02*
X135032200Y-75467142D01*
X135032200Y-75467142D02*
X134984580Y-75514761D01*
X149669819Y-106421666D02*
X149193628Y-106754999D01*
X149669819Y-106993094D02*
X148669819Y-106993094D01*
X148669819Y-106993094D02*
X148669819Y-106612142D01*
X148669819Y-106612142D02*
X148717438Y-106516904D01*
X148717438Y-106516904D02*
X148765057Y-106469285D01*
X148765057Y-106469285D02*
X148860295Y-106421666D01*
X148860295Y-106421666D02*
X149003152Y-106421666D01*
X149003152Y-106421666D02*
X149098390Y-106469285D01*
X149098390Y-106469285D02*
X149146009Y-106516904D01*
X149146009Y-106516904D02*
X149193628Y-106612142D01*
X149193628Y-106612142D02*
X149193628Y-106993094D01*
X149669819Y-105469285D02*
X149669819Y-106040713D01*
X149669819Y-105754999D02*
X148669819Y-105754999D01*
X148669819Y-105754999D02*
X148812676Y-105850237D01*
X148812676Y-105850237D02*
X148907914Y-105945475D01*
X148907914Y-105945475D02*
X148955533Y-106040713D01*
X137983628Y-90536190D02*
X138459819Y-90536190D01*
X137459819Y-90869523D02*
X137983628Y-90536190D01*
X137983628Y-90536190D02*
X137459819Y-90202857D01*
X138459819Y-89345714D02*
X138459819Y-89917142D01*
X138459819Y-89631428D02*
X137459819Y-89631428D01*
X137459819Y-89631428D02*
X137602676Y-89726666D01*
X137602676Y-89726666D02*
X137697914Y-89821904D01*
X137697914Y-89821904D02*
X137745533Y-89917142D01*
X140706905Y-112644819D02*
X140706905Y-111644819D01*
X140706905Y-111644819D02*
X140945000Y-111644819D01*
X140945000Y-111644819D02*
X141087857Y-111692438D01*
X141087857Y-111692438D02*
X141183095Y-111787676D01*
X141183095Y-111787676D02*
X141230714Y-111882914D01*
X141230714Y-111882914D02*
X141278333Y-112073390D01*
X141278333Y-112073390D02*
X141278333Y-112216247D01*
X141278333Y-112216247D02*
X141230714Y-112406723D01*
X141230714Y-112406723D02*
X141183095Y-112501961D01*
X141183095Y-112501961D02*
X141087857Y-112597200D01*
X141087857Y-112597200D02*
X140945000Y-112644819D01*
X140945000Y-112644819D02*
X140706905Y-112644819D01*
X142230714Y-112644819D02*
X141659286Y-112644819D01*
X141945000Y-112644819D02*
X141945000Y-111644819D01*
X141945000Y-111644819D02*
X141849762Y-111787676D01*
X141849762Y-111787676D02*
X141754524Y-111882914D01*
X141754524Y-111882914D02*
X141659286Y-111930533D01*
X136103095Y-112814819D02*
X136103095Y-111814819D01*
X136674523Y-112814819D02*
X136245952Y-112243390D01*
X136674523Y-111814819D02*
X136103095Y-112386247D01*
X148979819Y-82078333D02*
X149694104Y-82078333D01*
X149694104Y-82078333D02*
X149836961Y-82125952D01*
X149836961Y-82125952D02*
X149932200Y-82221190D01*
X149932200Y-82221190D02*
X149979819Y-82364047D01*
X149979819Y-82364047D02*
X149979819Y-82459285D01*
X149313152Y-81173571D02*
X149979819Y-81173571D01*
X148932200Y-81411666D02*
X149646485Y-81649761D01*
X149646485Y-81649761D02*
X149646485Y-81030714D01*
X149579819Y-87001666D02*
X149103628Y-87334999D01*
X149579819Y-87573094D02*
X148579819Y-87573094D01*
X148579819Y-87573094D02*
X148579819Y-87192142D01*
X148579819Y-87192142D02*
X148627438Y-87096904D01*
X148627438Y-87096904D02*
X148675057Y-87049285D01*
X148675057Y-87049285D02*
X148770295Y-87001666D01*
X148770295Y-87001666D02*
X148913152Y-87001666D01*
X148913152Y-87001666D02*
X149008390Y-87049285D01*
X149008390Y-87049285D02*
X149056009Y-87096904D01*
X149056009Y-87096904D02*
X149103628Y-87192142D01*
X149103628Y-87192142D02*
X149103628Y-87573094D01*
X148579819Y-86668332D02*
X148579819Y-86049285D01*
X148579819Y-86049285D02*
X148960771Y-86382618D01*
X148960771Y-86382618D02*
X148960771Y-86239761D01*
X148960771Y-86239761D02*
X149008390Y-86144523D01*
X149008390Y-86144523D02*
X149056009Y-86096904D01*
X149056009Y-86096904D02*
X149151247Y-86049285D01*
X149151247Y-86049285D02*
X149389342Y-86049285D01*
X149389342Y-86049285D02*
X149484580Y-86096904D01*
X149484580Y-86096904D02*
X149532200Y-86144523D01*
X149532200Y-86144523D02*
X149579819Y-86239761D01*
X149579819Y-86239761D02*
X149579819Y-86525475D01*
X149579819Y-86525475D02*
X149532200Y-86620713D01*
X149532200Y-86620713D02*
X149484580Y-86668332D01*
X136104819Y-96726666D02*
X135628628Y-97059999D01*
X136104819Y-97298094D02*
X135104819Y-97298094D01*
X135104819Y-97298094D02*
X135104819Y-96917142D01*
X135104819Y-96917142D02*
X135152438Y-96821904D01*
X135152438Y-96821904D02*
X135200057Y-96774285D01*
X135200057Y-96774285D02*
X135295295Y-96726666D01*
X135295295Y-96726666D02*
X135438152Y-96726666D01*
X135438152Y-96726666D02*
X135533390Y-96774285D01*
X135533390Y-96774285D02*
X135581009Y-96821904D01*
X135581009Y-96821904D02*
X135628628Y-96917142D01*
X135628628Y-96917142D02*
X135628628Y-97298094D01*
X135104819Y-95821904D02*
X135104819Y-96298094D01*
X135104819Y-96298094D02*
X135581009Y-96345713D01*
X135581009Y-96345713D02*
X135533390Y-96298094D01*
X135533390Y-96298094D02*
X135485771Y-96202856D01*
X135485771Y-96202856D02*
X135485771Y-95964761D01*
X135485771Y-95964761D02*
X135533390Y-95869523D01*
X135533390Y-95869523D02*
X135581009Y-95821904D01*
X135581009Y-95821904D02*
X135676247Y-95774285D01*
X135676247Y-95774285D02*
X135914342Y-95774285D01*
X135914342Y-95774285D02*
X136009580Y-95821904D01*
X136009580Y-95821904D02*
X136057200Y-95869523D01*
X136057200Y-95869523D02*
X136104819Y-95964761D01*
X136104819Y-95964761D02*
X136104819Y-96202856D01*
X136104819Y-96202856D02*
X136057200Y-96298094D01*
X136057200Y-96298094D02*
X136009580Y-96345713D01*
X149624580Y-97281666D02*
X149672200Y-97329285D01*
X149672200Y-97329285D02*
X149719819Y-97472142D01*
X149719819Y-97472142D02*
X149719819Y-97567380D01*
X149719819Y-97567380D02*
X149672200Y-97710237D01*
X149672200Y-97710237D02*
X149576961Y-97805475D01*
X149576961Y-97805475D02*
X149481723Y-97853094D01*
X149481723Y-97853094D02*
X149291247Y-97900713D01*
X149291247Y-97900713D02*
X149148390Y-97900713D01*
X149148390Y-97900713D02*
X148957914Y-97853094D01*
X148957914Y-97853094D02*
X148862676Y-97805475D01*
X148862676Y-97805475D02*
X148767438Y-97710237D01*
X148767438Y-97710237D02*
X148719819Y-97567380D01*
X148719819Y-97567380D02*
X148719819Y-97472142D01*
X148719819Y-97472142D02*
X148767438Y-97329285D01*
X148767438Y-97329285D02*
X148815057Y-97281666D01*
X148719819Y-96376904D02*
X148719819Y-96853094D01*
X148719819Y-96853094D02*
X149196009Y-96900713D01*
X149196009Y-96900713D02*
X149148390Y-96853094D01*
X149148390Y-96853094D02*
X149100771Y-96757856D01*
X149100771Y-96757856D02*
X149100771Y-96519761D01*
X149100771Y-96519761D02*
X149148390Y-96424523D01*
X149148390Y-96424523D02*
X149196009Y-96376904D01*
X149196009Y-96376904D02*
X149291247Y-96329285D01*
X149291247Y-96329285D02*
X149529342Y-96329285D01*
X149529342Y-96329285D02*
X149624580Y-96376904D01*
X149624580Y-96376904D02*
X149672200Y-96424523D01*
X149672200Y-96424523D02*
X149719819Y-96519761D01*
X149719819Y-96519761D02*
X149719819Y-96757856D01*
X149719819Y-96757856D02*
X149672200Y-96853094D01*
X149672200Y-96853094D02*
X149624580Y-96900713D01*
X136329580Y-84689166D02*
X136377200Y-84736785D01*
X136377200Y-84736785D02*
X136424819Y-84879642D01*
X136424819Y-84879642D02*
X136424819Y-84974880D01*
X136424819Y-84974880D02*
X136377200Y-85117737D01*
X136377200Y-85117737D02*
X136281961Y-85212975D01*
X136281961Y-85212975D02*
X136186723Y-85260594D01*
X136186723Y-85260594D02*
X135996247Y-85308213D01*
X135996247Y-85308213D02*
X135853390Y-85308213D01*
X135853390Y-85308213D02*
X135662914Y-85260594D01*
X135662914Y-85260594D02*
X135567676Y-85212975D01*
X135567676Y-85212975D02*
X135472438Y-85117737D01*
X135472438Y-85117737D02*
X135424819Y-84974880D01*
X135424819Y-84974880D02*
X135424819Y-84879642D01*
X135424819Y-84879642D02*
X135472438Y-84736785D01*
X135472438Y-84736785D02*
X135520057Y-84689166D01*
X136424819Y-84212975D02*
X136424819Y-84022499D01*
X136424819Y-84022499D02*
X136377200Y-83927261D01*
X136377200Y-83927261D02*
X136329580Y-83879642D01*
X136329580Y-83879642D02*
X136186723Y-83784404D01*
X136186723Y-83784404D02*
X135996247Y-83736785D01*
X135996247Y-83736785D02*
X135615295Y-83736785D01*
X135615295Y-83736785D02*
X135520057Y-83784404D01*
X135520057Y-83784404D02*
X135472438Y-83832023D01*
X135472438Y-83832023D02*
X135424819Y-83927261D01*
X135424819Y-83927261D02*
X135424819Y-84117737D01*
X135424819Y-84117737D02*
X135472438Y-84212975D01*
X135472438Y-84212975D02*
X135520057Y-84260594D01*
X135520057Y-84260594D02*
X135615295Y-84308213D01*
X135615295Y-84308213D02*
X135853390Y-84308213D01*
X135853390Y-84308213D02*
X135948628Y-84260594D01*
X135948628Y-84260594D02*
X135996247Y-84212975D01*
X135996247Y-84212975D02*
X136043866Y-84117737D01*
X136043866Y-84117737D02*
X136043866Y-83927261D01*
X136043866Y-83927261D02*
X135996247Y-83832023D01*
X135996247Y-83832023D02*
X135948628Y-83784404D01*
X135948628Y-83784404D02*
X135853390Y-83736785D01*
X129564580Y-104771666D02*
X129612200Y-104819285D01*
X129612200Y-104819285D02*
X129659819Y-104962142D01*
X129659819Y-104962142D02*
X129659819Y-105057380D01*
X129659819Y-105057380D02*
X129612200Y-105200237D01*
X129612200Y-105200237D02*
X129516961Y-105295475D01*
X129516961Y-105295475D02*
X129421723Y-105343094D01*
X129421723Y-105343094D02*
X129231247Y-105390713D01*
X129231247Y-105390713D02*
X129088390Y-105390713D01*
X129088390Y-105390713D02*
X128897914Y-105343094D01*
X128897914Y-105343094D02*
X128802676Y-105295475D01*
X128802676Y-105295475D02*
X128707438Y-105200237D01*
X128707438Y-105200237D02*
X128659819Y-105057380D01*
X128659819Y-105057380D02*
X128659819Y-104962142D01*
X128659819Y-104962142D02*
X128707438Y-104819285D01*
X128707438Y-104819285D02*
X128755057Y-104771666D01*
X129659819Y-103819285D02*
X129659819Y-104390713D01*
X129659819Y-104104999D02*
X128659819Y-104104999D01*
X128659819Y-104104999D02*
X128802676Y-104200237D01*
X128802676Y-104200237D02*
X128897914Y-104295475D01*
X128897914Y-104295475D02*
X128945533Y-104390713D01*
X134084580Y-101176666D02*
X134132200Y-101224285D01*
X134132200Y-101224285D02*
X134179819Y-101367142D01*
X134179819Y-101367142D02*
X134179819Y-101462380D01*
X134179819Y-101462380D02*
X134132200Y-101605237D01*
X134132200Y-101605237D02*
X134036961Y-101700475D01*
X134036961Y-101700475D02*
X133941723Y-101748094D01*
X133941723Y-101748094D02*
X133751247Y-101795713D01*
X133751247Y-101795713D02*
X133608390Y-101795713D01*
X133608390Y-101795713D02*
X133417914Y-101748094D01*
X133417914Y-101748094D02*
X133322676Y-101700475D01*
X133322676Y-101700475D02*
X133227438Y-101605237D01*
X133227438Y-101605237D02*
X133179819Y-101462380D01*
X133179819Y-101462380D02*
X133179819Y-101367142D01*
X133179819Y-101367142D02*
X133227438Y-101224285D01*
X133227438Y-101224285D02*
X133275057Y-101176666D01*
X133179819Y-100843332D02*
X133179819Y-100224285D01*
X133179819Y-100224285D02*
X133560771Y-100557618D01*
X133560771Y-100557618D02*
X133560771Y-100414761D01*
X133560771Y-100414761D02*
X133608390Y-100319523D01*
X133608390Y-100319523D02*
X133656009Y-100271904D01*
X133656009Y-100271904D02*
X133751247Y-100224285D01*
X133751247Y-100224285D02*
X133989342Y-100224285D01*
X133989342Y-100224285D02*
X134084580Y-100271904D01*
X134084580Y-100271904D02*
X134132200Y-100319523D01*
X134132200Y-100319523D02*
X134179819Y-100414761D01*
X134179819Y-100414761D02*
X134179819Y-100700475D01*
X134179819Y-100700475D02*
X134132200Y-100795713D01*
X134132200Y-100795713D02*
X134084580Y-100843332D01*
X149669819Y-102901666D02*
X149193628Y-103234999D01*
X149669819Y-103473094D02*
X148669819Y-103473094D01*
X148669819Y-103473094D02*
X148669819Y-103092142D01*
X148669819Y-103092142D02*
X148717438Y-102996904D01*
X148717438Y-102996904D02*
X148765057Y-102949285D01*
X148765057Y-102949285D02*
X148860295Y-102901666D01*
X148860295Y-102901666D02*
X149003152Y-102901666D01*
X149003152Y-102901666D02*
X149098390Y-102949285D01*
X149098390Y-102949285D02*
X149146009Y-102996904D01*
X149146009Y-102996904D02*
X149193628Y-103092142D01*
X149193628Y-103092142D02*
X149193628Y-103473094D01*
X148765057Y-102520713D02*
X148717438Y-102473094D01*
X148717438Y-102473094D02*
X148669819Y-102377856D01*
X148669819Y-102377856D02*
X148669819Y-102139761D01*
X148669819Y-102139761D02*
X148717438Y-102044523D01*
X148717438Y-102044523D02*
X148765057Y-101996904D01*
X148765057Y-101996904D02*
X148860295Y-101949285D01*
X148860295Y-101949285D02*
X148955533Y-101949285D01*
X148955533Y-101949285D02*
X149098390Y-101996904D01*
X149098390Y-101996904D02*
X149669819Y-102568332D01*
X149669819Y-102568332D02*
X149669819Y-101949285D01*
X144359580Y-74702857D02*
X144407200Y-74750476D01*
X144407200Y-74750476D02*
X144454819Y-74893333D01*
X144454819Y-74893333D02*
X144454819Y-74988571D01*
X144454819Y-74988571D02*
X144407200Y-75131428D01*
X144407200Y-75131428D02*
X144311961Y-75226666D01*
X144311961Y-75226666D02*
X144216723Y-75274285D01*
X144216723Y-75274285D02*
X144026247Y-75321904D01*
X144026247Y-75321904D02*
X143883390Y-75321904D01*
X143883390Y-75321904D02*
X143692914Y-75274285D01*
X143692914Y-75274285D02*
X143597676Y-75226666D01*
X143597676Y-75226666D02*
X143502438Y-75131428D01*
X143502438Y-75131428D02*
X143454819Y-74988571D01*
X143454819Y-74988571D02*
X143454819Y-74893333D01*
X143454819Y-74893333D02*
X143502438Y-74750476D01*
X143502438Y-74750476D02*
X143550057Y-74702857D01*
X144454819Y-73750476D02*
X144454819Y-74321904D01*
X144454819Y-74036190D02*
X143454819Y-74036190D01*
X143454819Y-74036190D02*
X143597676Y-74131428D01*
X143597676Y-74131428D02*
X143692914Y-74226666D01*
X143692914Y-74226666D02*
X143740533Y-74321904D01*
X143454819Y-73131428D02*
X143454819Y-73036190D01*
X143454819Y-73036190D02*
X143502438Y-72940952D01*
X143502438Y-72940952D02*
X143550057Y-72893333D01*
X143550057Y-72893333D02*
X143645295Y-72845714D01*
X143645295Y-72845714D02*
X143835771Y-72798095D01*
X143835771Y-72798095D02*
X144073866Y-72798095D01*
X144073866Y-72798095D02*
X144264342Y-72845714D01*
X144264342Y-72845714D02*
X144359580Y-72893333D01*
X144359580Y-72893333D02*
X144407200Y-72940952D01*
X144407200Y-72940952D02*
X144454819Y-73036190D01*
X144454819Y-73036190D02*
X144454819Y-73131428D01*
X144454819Y-73131428D02*
X144407200Y-73226666D01*
X144407200Y-73226666D02*
X144359580Y-73274285D01*
X144359580Y-73274285D02*
X144264342Y-73321904D01*
X144264342Y-73321904D02*
X144073866Y-73369523D01*
X144073866Y-73369523D02*
X143835771Y-73369523D01*
X143835771Y-73369523D02*
X143645295Y-73321904D01*
X143645295Y-73321904D02*
X143550057Y-73274285D01*
X143550057Y-73274285D02*
X143502438Y-73226666D01*
X143502438Y-73226666D02*
X143454819Y-73131428D01*
X140259580Y-81564166D02*
X140307200Y-81611785D01*
X140307200Y-81611785D02*
X140354819Y-81754642D01*
X140354819Y-81754642D02*
X140354819Y-81849880D01*
X140354819Y-81849880D02*
X140307200Y-81992737D01*
X140307200Y-81992737D02*
X140211961Y-82087975D01*
X140211961Y-82087975D02*
X140116723Y-82135594D01*
X140116723Y-82135594D02*
X139926247Y-82183213D01*
X139926247Y-82183213D02*
X139783390Y-82183213D01*
X139783390Y-82183213D02*
X139592914Y-82135594D01*
X139592914Y-82135594D02*
X139497676Y-82087975D01*
X139497676Y-82087975D02*
X139402438Y-81992737D01*
X139402438Y-81992737D02*
X139354819Y-81849880D01*
X139354819Y-81849880D02*
X139354819Y-81754642D01*
X139354819Y-81754642D02*
X139402438Y-81611785D01*
X139402438Y-81611785D02*
X139450057Y-81564166D01*
X139354819Y-81230832D02*
X139354819Y-80564166D01*
X139354819Y-80564166D02*
X140354819Y-80992737D01*
X149654819Y-89776666D02*
X149178628Y-90109999D01*
X149654819Y-90348094D02*
X148654819Y-90348094D01*
X148654819Y-90348094D02*
X148654819Y-89967142D01*
X148654819Y-89967142D02*
X148702438Y-89871904D01*
X148702438Y-89871904D02*
X148750057Y-89824285D01*
X148750057Y-89824285D02*
X148845295Y-89776666D01*
X148845295Y-89776666D02*
X148988152Y-89776666D01*
X148988152Y-89776666D02*
X149083390Y-89824285D01*
X149083390Y-89824285D02*
X149131009Y-89871904D01*
X149131009Y-89871904D02*
X149178628Y-89967142D01*
X149178628Y-89967142D02*
X149178628Y-90348094D01*
X148654819Y-88919523D02*
X148654819Y-89109999D01*
X148654819Y-89109999D02*
X148702438Y-89205237D01*
X148702438Y-89205237D02*
X148750057Y-89252856D01*
X148750057Y-89252856D02*
X148892914Y-89348094D01*
X148892914Y-89348094D02*
X149083390Y-89395713D01*
X149083390Y-89395713D02*
X149464342Y-89395713D01*
X149464342Y-89395713D02*
X149559580Y-89348094D01*
X149559580Y-89348094D02*
X149607200Y-89300475D01*
X149607200Y-89300475D02*
X149654819Y-89205237D01*
X149654819Y-89205237D02*
X149654819Y-89014761D01*
X149654819Y-89014761D02*
X149607200Y-88919523D01*
X149607200Y-88919523D02*
X149559580Y-88871904D01*
X149559580Y-88871904D02*
X149464342Y-88824285D01*
X149464342Y-88824285D02*
X149226247Y-88824285D01*
X149226247Y-88824285D02*
X149131009Y-88871904D01*
X149131009Y-88871904D02*
X149083390Y-88919523D01*
X149083390Y-88919523D02*
X149035771Y-89014761D01*
X149035771Y-89014761D02*
X149035771Y-89205237D01*
X149035771Y-89205237D02*
X149083390Y-89300475D01*
X149083390Y-89300475D02*
X149131009Y-89348094D01*
X149131009Y-89348094D02*
X149226247Y-89395713D01*
X148849819Y-119018333D02*
X149564104Y-119018333D01*
X149564104Y-119018333D02*
X149706961Y-119065952D01*
X149706961Y-119065952D02*
X149802200Y-119161190D01*
X149802200Y-119161190D02*
X149849819Y-119304047D01*
X149849819Y-119304047D02*
X149849819Y-119399285D01*
X148945057Y-118589761D02*
X148897438Y-118542142D01*
X148897438Y-118542142D02*
X148849819Y-118446904D01*
X148849819Y-118446904D02*
X148849819Y-118208809D01*
X148849819Y-118208809D02*
X148897438Y-118113571D01*
X148897438Y-118113571D02*
X148945057Y-118065952D01*
X148945057Y-118065952D02*
X149040295Y-118018333D01*
X149040295Y-118018333D02*
X149135533Y-118018333D01*
X149135533Y-118018333D02*
X149278390Y-118065952D01*
X149278390Y-118065952D02*
X149849819Y-118637380D01*
X149849819Y-118637380D02*
X149849819Y-118018333D01*
X149479819Y-83776666D02*
X149003628Y-84109999D01*
X149479819Y-84348094D02*
X148479819Y-84348094D01*
X148479819Y-84348094D02*
X148479819Y-83967142D01*
X148479819Y-83967142D02*
X148527438Y-83871904D01*
X148527438Y-83871904D02*
X148575057Y-83824285D01*
X148575057Y-83824285D02*
X148670295Y-83776666D01*
X148670295Y-83776666D02*
X148813152Y-83776666D01*
X148813152Y-83776666D02*
X148908390Y-83824285D01*
X148908390Y-83824285D02*
X148956009Y-83871904D01*
X148956009Y-83871904D02*
X149003628Y-83967142D01*
X149003628Y-83967142D02*
X149003628Y-84348094D01*
X148813152Y-82919523D02*
X149479819Y-82919523D01*
X148432200Y-83157618D02*
X149146485Y-83395713D01*
X149146485Y-83395713D02*
X149146485Y-82776666D01*
X140979580Y-84614166D02*
X141027200Y-84661785D01*
X141027200Y-84661785D02*
X141074819Y-84804642D01*
X141074819Y-84804642D02*
X141074819Y-84899880D01*
X141074819Y-84899880D02*
X141027200Y-85042737D01*
X141027200Y-85042737D02*
X140931961Y-85137975D01*
X140931961Y-85137975D02*
X140836723Y-85185594D01*
X140836723Y-85185594D02*
X140646247Y-85233213D01*
X140646247Y-85233213D02*
X140503390Y-85233213D01*
X140503390Y-85233213D02*
X140312914Y-85185594D01*
X140312914Y-85185594D02*
X140217676Y-85137975D01*
X140217676Y-85137975D02*
X140122438Y-85042737D01*
X140122438Y-85042737D02*
X140074819Y-84899880D01*
X140074819Y-84899880D02*
X140074819Y-84804642D01*
X140074819Y-84804642D02*
X140122438Y-84661785D01*
X140122438Y-84661785D02*
X140170057Y-84614166D01*
X140503390Y-84042737D02*
X140455771Y-84137975D01*
X140455771Y-84137975D02*
X140408152Y-84185594D01*
X140408152Y-84185594D02*
X140312914Y-84233213D01*
X140312914Y-84233213D02*
X140265295Y-84233213D01*
X140265295Y-84233213D02*
X140170057Y-84185594D01*
X140170057Y-84185594D02*
X140122438Y-84137975D01*
X140122438Y-84137975D02*
X140074819Y-84042737D01*
X140074819Y-84042737D02*
X140074819Y-83852261D01*
X140074819Y-83852261D02*
X140122438Y-83757023D01*
X140122438Y-83757023D02*
X140170057Y-83709404D01*
X140170057Y-83709404D02*
X140265295Y-83661785D01*
X140265295Y-83661785D02*
X140312914Y-83661785D01*
X140312914Y-83661785D02*
X140408152Y-83709404D01*
X140408152Y-83709404D02*
X140455771Y-83757023D01*
X140455771Y-83757023D02*
X140503390Y-83852261D01*
X140503390Y-83852261D02*
X140503390Y-84042737D01*
X140503390Y-84042737D02*
X140551009Y-84137975D01*
X140551009Y-84137975D02*
X140598628Y-84185594D01*
X140598628Y-84185594D02*
X140693866Y-84233213D01*
X140693866Y-84233213D02*
X140884342Y-84233213D01*
X140884342Y-84233213D02*
X140979580Y-84185594D01*
X140979580Y-84185594D02*
X141027200Y-84137975D01*
X141027200Y-84137975D02*
X141074819Y-84042737D01*
X141074819Y-84042737D02*
X141074819Y-83852261D01*
X141074819Y-83852261D02*
X141027200Y-83757023D01*
X141027200Y-83757023D02*
X140979580Y-83709404D01*
X140979580Y-83709404D02*
X140884342Y-83661785D01*
X140884342Y-83661785D02*
X140693866Y-83661785D01*
X140693866Y-83661785D02*
X140598628Y-83709404D01*
X140598628Y-83709404D02*
X140551009Y-83757023D01*
X140551009Y-83757023D02*
X140503390Y-83852261D01*
X131609580Y-90276666D02*
X131657200Y-90324285D01*
X131657200Y-90324285D02*
X131704819Y-90467142D01*
X131704819Y-90467142D02*
X131704819Y-90562380D01*
X131704819Y-90562380D02*
X131657200Y-90705237D01*
X131657200Y-90705237D02*
X131561961Y-90800475D01*
X131561961Y-90800475D02*
X131466723Y-90848094D01*
X131466723Y-90848094D02*
X131276247Y-90895713D01*
X131276247Y-90895713D02*
X131133390Y-90895713D01*
X131133390Y-90895713D02*
X130942914Y-90848094D01*
X130942914Y-90848094D02*
X130847676Y-90800475D01*
X130847676Y-90800475D02*
X130752438Y-90705237D01*
X130752438Y-90705237D02*
X130704819Y-90562380D01*
X130704819Y-90562380D02*
X130704819Y-90467142D01*
X130704819Y-90467142D02*
X130752438Y-90324285D01*
X130752438Y-90324285D02*
X130800057Y-90276666D01*
X131038152Y-89419523D02*
X131704819Y-89419523D01*
X130657200Y-89657618D02*
X131371485Y-89895713D01*
X131371485Y-89895713D02*
X131371485Y-89276666D01*
X149216666Y-73139819D02*
X149216666Y-73854104D01*
X149216666Y-73854104D02*
X149169047Y-73996961D01*
X149169047Y-73996961D02*
X149073809Y-74092200D01*
X149073809Y-74092200D02*
X148930952Y-74139819D01*
X148930952Y-74139819D02*
X148835714Y-74139819D01*
X150216666Y-74139819D02*
X149645238Y-74139819D01*
X149930952Y-74139819D02*
X149930952Y-73139819D01*
X149930952Y-73139819D02*
X149835714Y-73282676D01*
X149835714Y-73282676D02*
X149740476Y-73377914D01*
X149740476Y-73377914D02*
X149645238Y-73425533D01*
X142554819Y-104343333D02*
X143269104Y-104343333D01*
X143269104Y-104343333D02*
X143411961Y-104390952D01*
X143411961Y-104390952D02*
X143507200Y-104486190D01*
X143507200Y-104486190D02*
X143554819Y-104629047D01*
X143554819Y-104629047D02*
X143554819Y-104724285D01*
X142554819Y-103438571D02*
X142554819Y-103629047D01*
X142554819Y-103629047D02*
X142602438Y-103724285D01*
X142602438Y-103724285D02*
X142650057Y-103771904D01*
X142650057Y-103771904D02*
X142792914Y-103867142D01*
X142792914Y-103867142D02*
X142983390Y-103914761D01*
X142983390Y-103914761D02*
X143364342Y-103914761D01*
X143364342Y-103914761D02*
X143459580Y-103867142D01*
X143459580Y-103867142D02*
X143507200Y-103819523D01*
X143507200Y-103819523D02*
X143554819Y-103724285D01*
X143554819Y-103724285D02*
X143554819Y-103533809D01*
X143554819Y-103533809D02*
X143507200Y-103438571D01*
X143507200Y-103438571D02*
X143459580Y-103390952D01*
X143459580Y-103390952D02*
X143364342Y-103343333D01*
X143364342Y-103343333D02*
X143126247Y-103343333D01*
X143126247Y-103343333D02*
X143031009Y-103390952D01*
X143031009Y-103390952D02*
X142983390Y-103438571D01*
X142983390Y-103438571D02*
X142935771Y-103533809D01*
X142935771Y-103533809D02*
X142935771Y-103724285D01*
X142935771Y-103724285D02*
X142983390Y-103819523D01*
X142983390Y-103819523D02*
X143031009Y-103867142D01*
X143031009Y-103867142D02*
X143126247Y-103914761D01*
X149534580Y-92526666D02*
X149582200Y-92574285D01*
X149582200Y-92574285D02*
X149629819Y-92717142D01*
X149629819Y-92717142D02*
X149629819Y-92812380D01*
X149629819Y-92812380D02*
X149582200Y-92955237D01*
X149582200Y-92955237D02*
X149486961Y-93050475D01*
X149486961Y-93050475D02*
X149391723Y-93098094D01*
X149391723Y-93098094D02*
X149201247Y-93145713D01*
X149201247Y-93145713D02*
X149058390Y-93145713D01*
X149058390Y-93145713D02*
X148867914Y-93098094D01*
X148867914Y-93098094D02*
X148772676Y-93050475D01*
X148772676Y-93050475D02*
X148677438Y-92955237D01*
X148677438Y-92955237D02*
X148629819Y-92812380D01*
X148629819Y-92812380D02*
X148629819Y-92717142D01*
X148629819Y-92717142D02*
X148677438Y-92574285D01*
X148677438Y-92574285D02*
X148725057Y-92526666D01*
X148629819Y-91669523D02*
X148629819Y-91859999D01*
X148629819Y-91859999D02*
X148677438Y-91955237D01*
X148677438Y-91955237D02*
X148725057Y-92002856D01*
X148725057Y-92002856D02*
X148867914Y-92098094D01*
X148867914Y-92098094D02*
X149058390Y-92145713D01*
X149058390Y-92145713D02*
X149439342Y-92145713D01*
X149439342Y-92145713D02*
X149534580Y-92098094D01*
X149534580Y-92098094D02*
X149582200Y-92050475D01*
X149582200Y-92050475D02*
X149629819Y-91955237D01*
X149629819Y-91955237D02*
X149629819Y-91764761D01*
X149629819Y-91764761D02*
X149582200Y-91669523D01*
X149582200Y-91669523D02*
X149534580Y-91621904D01*
X149534580Y-91621904D02*
X149439342Y-91574285D01*
X149439342Y-91574285D02*
X149201247Y-91574285D01*
X149201247Y-91574285D02*
X149106009Y-91621904D01*
X149106009Y-91621904D02*
X149058390Y-91669523D01*
X149058390Y-91669523D02*
X149010771Y-91764761D01*
X149010771Y-91764761D02*
X149010771Y-91955237D01*
X149010771Y-91955237D02*
X149058390Y-92050475D01*
X149058390Y-92050475D02*
X149106009Y-92098094D01*
X149106009Y-92098094D02*
X149201247Y-92145713D01*
X130984580Y-109851666D02*
X131032200Y-109899285D01*
X131032200Y-109899285D02*
X131079819Y-110042142D01*
X131079819Y-110042142D02*
X131079819Y-110137380D01*
X131079819Y-110137380D02*
X131032200Y-110280237D01*
X131032200Y-110280237D02*
X130936961Y-110375475D01*
X130936961Y-110375475D02*
X130841723Y-110423094D01*
X130841723Y-110423094D02*
X130651247Y-110470713D01*
X130651247Y-110470713D02*
X130508390Y-110470713D01*
X130508390Y-110470713D02*
X130317914Y-110423094D01*
X130317914Y-110423094D02*
X130222676Y-110375475D01*
X130222676Y-110375475D02*
X130127438Y-110280237D01*
X130127438Y-110280237D02*
X130079819Y-110137380D01*
X130079819Y-110137380D02*
X130079819Y-110042142D01*
X130079819Y-110042142D02*
X130127438Y-109899285D01*
X130127438Y-109899285D02*
X130175057Y-109851666D01*
X130175057Y-109470713D02*
X130127438Y-109423094D01*
X130127438Y-109423094D02*
X130079819Y-109327856D01*
X130079819Y-109327856D02*
X130079819Y-109089761D01*
X130079819Y-109089761D02*
X130127438Y-108994523D01*
X130127438Y-108994523D02*
X130175057Y-108946904D01*
X130175057Y-108946904D02*
X130270295Y-108899285D01*
X130270295Y-108899285D02*
X130365533Y-108899285D01*
X130365533Y-108899285D02*
X130508390Y-108946904D01*
X130508390Y-108946904D02*
X131079819Y-109518332D01*
X131079819Y-109518332D02*
X131079819Y-108899285D01*
D11*
%TO.C,U1*%
X137598000Y-103883000D02*
X137598000Y-104331657D01*
X137598000Y-105638343D02*
X137598000Y-106631657D01*
X137598000Y-107938343D02*
X137598000Y-108931657D01*
X137598000Y-110238344D02*
X137598000Y-110687000D01*
X137598000Y-110687000D02*
X141402000Y-110687000D01*
X141402000Y-103883000D02*
X137598000Y-103883000D01*
X141402000Y-105481657D02*
X141402000Y-103883000D01*
X141402000Y-110687000D02*
X141402000Y-109088343D01*
X136077000Y-102740000D02*
G75*
G02*
X135823000Y-102740000I-127000J0D01*
G01*
X135823000Y-102740000D02*
G75*
G02*
X136077000Y-102740000I127000J0D01*
G01*
D12*
%TO.C,J3*%
X150735000Y-104605000D02*
X150735000Y-119905000D01*
X150735000Y-104605000D02*
X153395000Y-104605000D01*
X150735000Y-119905000D02*
X153395000Y-119905000D01*
X152065000Y-102005000D02*
X153395000Y-102005000D01*
X153395000Y-102005000D02*
X153395000Y-103335000D01*
X153395000Y-104605000D02*
X153395000Y-119905000D01*
%TO.C,J7*%
X140065000Y-73325000D02*
X141125000Y-73325000D01*
X140065000Y-74385000D02*
X140065000Y-73325000D01*
X140065000Y-75385000D02*
X140065000Y-79445000D01*
X140065000Y-75385000D02*
X142185000Y-75385000D01*
X140065000Y-79445000D02*
X142185000Y-79445000D01*
X142185000Y-75385000D02*
X142185000Y-79445000D01*
%TO.C,J5*%
X129030000Y-74195000D02*
X129030000Y-77095000D01*
X133835000Y-72290000D02*
X130935000Y-72290000D01*
X133835000Y-79000000D02*
X130935000Y-79000000D01*
X135740000Y-74195000D02*
X135740000Y-77095000D01*
%TO.C,R1*%
X146047936Y-105550000D02*
X146502064Y-105550000D01*
X146047936Y-107020000D02*
X146502064Y-107020000D01*
%TO.C,Y1*%
X139325000Y-90110000D02*
X139325000Y-98510000D01*
X139325000Y-98510000D02*
X142725000Y-98510000D01*
X140075000Y-88960000D02*
X140075000Y-88510000D01*
X140480000Y-90110000D02*
X140075000Y-88960000D01*
X141570000Y-90110000D02*
X141975000Y-88960000D01*
X141975000Y-88960000D02*
X141975000Y-88510000D01*
X142725000Y-90110000D02*
X139325000Y-90110000D01*
X142725000Y-98510000D02*
X142725000Y-90110000D01*
%TO.C,D1*%
X137355000Y-114110000D02*
X139805000Y-114110000D01*
X139805000Y-113190000D02*
X139805000Y-115030000D01*
X139805000Y-115030000D02*
X143085000Y-115030000D01*
X140261000Y-113190000D02*
X140261000Y-115030000D01*
X140381000Y-113190000D02*
X140381000Y-115030000D01*
X140501000Y-113190000D02*
X140501000Y-115030000D01*
X143085000Y-113190000D02*
X139805000Y-113190000D01*
X143085000Y-115030000D02*
X143085000Y-113190000D01*
X145535000Y-114110000D02*
X143085000Y-114110000D01*
%TO.C,J4*%
X150735000Y-85555000D02*
X150735000Y-100855000D01*
X150735000Y-85555000D02*
X153395000Y-85555000D01*
X150735000Y-100855000D02*
X153395000Y-100855000D01*
X152065000Y-82955000D02*
X153395000Y-82955000D01*
X153395000Y-82955000D02*
X153395000Y-84285000D01*
X153395000Y-85555000D02*
X153395000Y-100855000D01*
%TO.C,R3*%
X146047936Y-86200000D02*
X146502064Y-86200000D01*
X146047936Y-87670000D02*
X146502064Y-87670000D01*
%TO.C,R5*%
X133265000Y-96332936D02*
X133265000Y-96787064D01*
X134735000Y-96332936D02*
X134735000Y-96787064D01*
%TO.C,C5*%
X146448752Y-96400000D02*
X145926248Y-96400000D01*
X146448752Y-97870000D02*
X145926248Y-97870000D01*
%TO.C,C9*%
X136915000Y-84783752D02*
X136915000Y-84261248D01*
X138385000Y-84783752D02*
X138385000Y-84261248D01*
%TO.C,C1*%
X132251248Y-104175000D02*
X132773752Y-104175000D01*
X132251248Y-105645000D02*
X132773752Y-105645000D01*
%TO.C,C3*%
X131073752Y-100350000D02*
X130551248Y-100350000D01*
X131073752Y-101820000D02*
X130551248Y-101820000D01*
%TO.C,R2*%
X146047936Y-102150000D02*
X146502064Y-102150000D01*
X146047936Y-103620000D02*
X146502064Y-103620000D01*
%TO.C,C10*%
X143290000Y-77211248D02*
X143290000Y-77733752D01*
X144760000Y-77211248D02*
X144760000Y-77733752D01*
%TO.C,C7*%
X137090000Y-80108752D02*
X137090000Y-79586248D01*
X138560000Y-80108752D02*
X138560000Y-79586248D01*
%TO.C,R6*%
X146072936Y-88825000D02*
X146527064Y-88825000D01*
X146072936Y-90295000D02*
X146527064Y-90295000D01*
%TO.C,J2*%
X135135000Y-117355000D02*
X135135000Y-120015000D01*
X145355000Y-117355000D02*
X135135000Y-117355000D01*
X145355000Y-117355000D02*
X145355000Y-120015000D01*
X145355000Y-120015000D02*
X135135000Y-120015000D01*
X147955000Y-118685000D02*
X147955000Y-120015000D01*
X147955000Y-120015000D02*
X146625000Y-120015000D01*
%TO.C,R4*%
X146022936Y-82850000D02*
X146477064Y-82850000D01*
X146022936Y-84320000D02*
X146477064Y-84320000D01*
%TO.C,C8*%
X141565000Y-84708752D02*
X141565000Y-84186248D01*
X143035000Y-84708752D02*
X143035000Y-84186248D01*
%TO.C,C4*%
X127840000Y-86700000D02*
X127840000Y-89050000D01*
X127840000Y-93520000D02*
X127840000Y-91170000D01*
X133595563Y-86700000D02*
X127840000Y-86700000D01*
X133595563Y-93520000D02*
X127840000Y-93520000D01*
X134660000Y-87764437D02*
X133595563Y-86700000D01*
X134660000Y-87764437D02*
X134660000Y-89050000D01*
X134660000Y-92455563D02*
X133595563Y-93520000D01*
X134660000Y-92455563D02*
X134660000Y-91170000D01*
X135293750Y-92351250D02*
X135293750Y-91563750D01*
X135687500Y-91957500D02*
X134900000Y-91957500D01*
%TO.C,J1*%
X146120000Y-74285000D02*
X146120000Y-77185000D01*
X148025000Y-72380000D02*
X150925000Y-72380000D01*
X148025000Y-79090000D02*
X150925000Y-79090000D01*
X152830000Y-74285000D02*
X152830000Y-77185000D01*
%TO.C,J6*%
X137215000Y-100475000D02*
X137215000Y-102595000D01*
X141275000Y-100475000D02*
X137215000Y-100475000D01*
X141275000Y-100475000D02*
X141275000Y-102595000D01*
X141275000Y-102595000D02*
X137215000Y-102595000D01*
X142275000Y-100475000D02*
X143335000Y-100475000D01*
X143335000Y-100475000D02*
X143335000Y-101535000D01*
%TO.C,C6*%
X146001248Y-91600000D02*
X146523752Y-91600000D01*
X146001248Y-93070000D02*
X146523752Y-93070000D01*
%TO.C,C2*%
X126187500Y-109687500D02*
X126975000Y-109687500D01*
X126581250Y-109293750D02*
X126581250Y-110081250D01*
X127215000Y-109189437D02*
X127215000Y-110475000D01*
X127215000Y-109189437D02*
X128279437Y-108125000D01*
X127215000Y-113880563D02*
X127215000Y-112595000D01*
X127215000Y-113880563D02*
X128279437Y-114945000D01*
X128279437Y-108125000D02*
X134035000Y-108125000D01*
X128279437Y-114945000D02*
X134035000Y-114945000D01*
X134035000Y-108125000D02*
X134035000Y-110475000D01*
X134035000Y-114945000D02*
X134035000Y-112595000D01*
%TD*%
M02*
