M48
; DRILL file {KiCad 8.0.4} date 2025-05-02T23:49:35+0530
; FORMAT={-:-/ absolute / inch / decimal}
; #@! TF.CreationDate,2025-05-02T23:49:35+05:30
; #@! TF.GenerationSoftware,Kicad,Pcbnew,8.0.4
; #@! TF.FileFunction,Plated,1,2,PTH
FMAT,2
INCH
; #@! TA.AperFunction,Plated,PTH,ViaDrill
T1C0.0118
; #@! TA.AperFunction,Plated,PTH,ComponentDrill
T2C0.0197
; #@! TA.AperFunction,Plated,PTH,ComponentDrill
T3C0.0295
; #@! TA.AperFunction,Plated,PTH,ComponentDrill
T4C0.0315
; #@! TA.AperFunction,Plated,PTH,ComponentDrill
T5C0.0394
; #@! TA.AperFunction,Plated,PTH,ComponentDrill
T6C0.0591
; #@! TA.AperFunction,Plated,PTH,ComponentDrill
T7C0.0669
%
G90
G05
T1
X5.272Y-3.8861
X5.3121Y-4.0968
X5.3305Y-3.6263
X5.5028Y-3.7581
X5.5512Y-3.6093
X5.5762Y-4.7699
X5.6002Y-3.9461
X5.6112Y-3.5098
X5.6538Y-3.9442
X5.6701Y-3.8106
X5.6742Y-3.7449
X5.7174Y-3.9453
X5.7226Y-3.7598
X5.7549Y-3.7785
X5.7821Y-3.5856
X5.8841Y-4.3876
X5.9078Y-4.4221
T2
X5.5148Y-3.4571
X5.5896Y-3.4571
T3
X5.3687Y-4.4925
X5.7687Y-4.4925
T4
X5.2368Y-3.2002
X5.4439Y-3.9974
X5.5226Y-3.9974
X5.5561Y-2.9285
X5.5561Y-3.0073
X5.5561Y-3.086
X5.6014Y-3.9974
X5.6368Y-3.2002
T5
X5.3726Y-4.6726
X5.4726Y-4.6726
X5.5726Y-4.6726
X5.6726Y-4.6726
X5.7726Y-4.6726
X5.9868Y-3.3183
X5.9868Y-3.4183
X5.9868Y-3.5183
X5.9868Y-3.6183
X5.9868Y-3.7183
X5.9868Y-3.8183
X5.9868Y-3.9183
X5.9868Y-4.0683
X5.9868Y-4.1683
X5.9868Y-4.2683
X5.9868Y-4.3683
X5.9868Y-4.4683
X5.9868Y-4.5683
X5.9868Y-4.6683
T6
X5.212Y-2.9781
X5.8848Y-2.9817
T7
X5.112Y-2.8781
X5.112Y-3.0781
X5.312Y-2.8781
X5.312Y-3.0781
X5.7848Y-2.8817
X5.7848Y-3.0817
X5.9848Y-2.8817
X5.9848Y-3.0817
M30
