%TF.GenerationSoftware,KiCad,Pcbnew,8.0.4*%
%TF.CreationDate,2025-05-02T23:49:30+05:30*%
%TF.ProjectId,Si4732Board,53693437-3332-4426-9f61-72642e6b6963,rev?*%
%TF.SameCoordinates,Original*%
%TF.FileFunction,Soldermask,Bot*%
%TF.FilePolarity,Negative*%
%FSLAX46Y46*%
G04 Gerber Fmt 4.6, Leading zero omitted, Abs format (unit mm)*
G04 Created by KiCad (PCBNEW 8.0.4) date 2025-05-02 23:49:30*
%MOMM*%
%LPD*%
G01*
G04 APERTURE LIST*
G04 Aperture macros list*
%AMRoundRect*
0 Rectangle with rounded corners*
0 $1 Rounding radius*
0 $2 $3 $4 $5 $6 $7 $8 $9 X,Y pos of 4 corners*
0 Add a 4 corners polygon primitive as box body*
4,1,4,$2,$3,$4,$5,$6,$7,$8,$9,$2,$3,0*
0 Add four circle primitives for the rounded corners*
1,1,$1+$1,$2,$3*
1,1,$1+$1,$4,$5*
1,1,$1+$1,$6,$7*
1,1,$1+$1,$8,$9*
0 Add four rect primitives between the rounded corners*
20,1,$1+$1,$2,$3,$4,$5,0*
20,1,$1+$1,$4,$5,$6,$7,0*
20,1,$1+$1,$6,$7,$8,$9,0*
20,1,$1+$1,$8,$9,$2,$3,0*%
G04 Aperture macros list end*
%ADD10R,1.700000X1.700000*%
%ADD11O,1.700000X1.700000*%
%ADD12R,1.350000X1.350000*%
%ADD13O,1.350000X1.350000*%
%ADD14C,2.050000*%
%ADD15C,2.250000*%
%ADD16C,1.000000*%
%ADD17R,1.500000X1.500000*%
%ADD18O,1.500000X1.500000*%
%ADD19C,1.700000*%
%ADD20R,2.800000X2.200000*%
%ADD21R,2.800000X2.800000*%
%ADD22C,1.600000*%
%ADD23O,1.600000X1.600000*%
%ADD24RoundRect,0.150000X-0.825000X-0.150000X0.825000X-0.150000X0.825000X0.150000X-0.825000X0.150000X0*%
G04 APERTURE END LIST*
D10*
%TO.C,J3*%
X152065000Y-103335000D03*
D11*
X152065000Y-105875000D03*
X152065000Y-108415000D03*
X152065000Y-110955000D03*
X152065000Y-113495000D03*
X152065000Y-116035000D03*
X152065000Y-118575000D03*
%TD*%
D12*
%TO.C,J7*%
X141125000Y-74385000D03*
D13*
X141125000Y-76385000D03*
X141125000Y-78385000D03*
%TD*%
D14*
%TO.C,J5*%
X132385000Y-75645000D03*
D15*
X134925000Y-73105000D03*
X129845000Y-73105000D03*
X134925000Y-78185000D03*
X129845000Y-78185000D03*
%TD*%
D16*
%TO.C,Y1*%
X140075000Y-87810000D03*
X141975000Y-87810000D03*
%TD*%
D17*
%TO.C,D1*%
X136365000Y-114110000D03*
D18*
X146525000Y-114110000D03*
%TD*%
D10*
%TO.C,J4*%
X152065000Y-84285000D03*
D11*
X152065000Y-86825000D03*
X152065000Y-89365000D03*
X152065000Y-91905000D03*
X152065000Y-94445000D03*
X152065000Y-96985000D03*
X152065000Y-99525000D03*
%TD*%
D10*
%TO.C,J2*%
X146625000Y-118685000D03*
D11*
X144085000Y-118685000D03*
X141545000Y-118685000D03*
X139005000Y-118685000D03*
X136465000Y-118685000D03*
%TD*%
D14*
%TO.C,J1*%
X149475000Y-75735000D03*
D15*
X146935000Y-73195000D03*
X146935000Y-78275000D03*
X152015000Y-73195000D03*
X152015000Y-78275000D03*
%TD*%
D12*
%TO.C,J6*%
X142275000Y-101535000D03*
D13*
X140275000Y-101535000D03*
X138275000Y-101535000D03*
%TD*%
D19*
%TO.C,J8*%
X129100000Y-108300000D03*
X129100000Y-115300000D03*
D20*
X132800000Y-114400000D03*
X125400000Y-116400000D03*
D21*
X125400000Y-107000000D03*
%TD*%
D22*
%TO.C,L1*%
X143175000Y-81285000D03*
D23*
X133015000Y-81285000D03*
%TD*%
D24*
%TO.C,U2*%
X137550000Y-99030000D03*
X137550000Y-97760000D03*
X137550000Y-96490000D03*
X137550000Y-95220000D03*
X137550000Y-93950000D03*
X137550000Y-92680000D03*
X137550000Y-91410000D03*
X137550000Y-90140000D03*
X142500000Y-90140000D03*
X142500000Y-91410000D03*
X142500000Y-92680000D03*
X142500000Y-93950000D03*
X142500000Y-95220000D03*
X142500000Y-96490000D03*
X142500000Y-97760000D03*
X142500000Y-99030000D03*
%TD*%
M02*
