%TF.GenerationSoftware,KiCad,Pcbnew,8.0.4*%
%TF.CreationDate,2025-05-02T23:51:08+05:30*%
%TF.ProjectId,Si4735Board,53693437-3335-4426-9f61-72642e6b6963,rev?*%
%TF.SameCoordinates,Original*%
%TF.FileFunction,Legend,Top*%
%TF.FilePolarity,Positive*%
%FSLAX46Y46*%
G04 Gerber Fmt 4.6, Leading zero omitted, Abs format (unit mm)*
G04 Created by KiCad (PCBNEW 8.0.4) date 2025-05-02 23:51:08*
%MOMM*%
%LPD*%
G01*
G04 APERTURE LIST*
%ADD10C,0.150000*%
%ADD11C,0.120000*%
%ADD12C,0.152400*%
G04 APERTURE END LIST*
D10*
X134844033Y-101986080D02*
X134796414Y-102033700D01*
X134796414Y-102033700D02*
X134653557Y-102081319D01*
X134653557Y-102081319D02*
X134558319Y-102081319D01*
X134558319Y-102081319D02*
X134415462Y-102033700D01*
X134415462Y-102033700D02*
X134320224Y-101938461D01*
X134320224Y-101938461D02*
X134272605Y-101843223D01*
X134272605Y-101843223D02*
X134224986Y-101652747D01*
X134224986Y-101652747D02*
X134224986Y-101509890D01*
X134224986Y-101509890D02*
X134272605Y-101319414D01*
X134272605Y-101319414D02*
X134320224Y-101224176D01*
X134320224Y-101224176D02*
X134415462Y-101128938D01*
X134415462Y-101128938D02*
X134558319Y-101081319D01*
X134558319Y-101081319D02*
X134653557Y-101081319D01*
X134653557Y-101081319D02*
X134796414Y-101128938D01*
X134796414Y-101128938D02*
X134844033Y-101176557D01*
X135177367Y-101081319D02*
X135844033Y-101081319D01*
X135844033Y-101081319D02*
X135415462Y-102081319D01*
X126455519Y-99983166D02*
X126455519Y-100459356D01*
X126455519Y-100459356D02*
X125455519Y-100459356D01*
X125550757Y-99697451D02*
X125503138Y-99649832D01*
X125503138Y-99649832D02*
X125455519Y-99554594D01*
X125455519Y-99554594D02*
X125455519Y-99316499D01*
X125455519Y-99316499D02*
X125503138Y-99221261D01*
X125503138Y-99221261D02*
X125550757Y-99173642D01*
X125550757Y-99173642D02*
X125645995Y-99126023D01*
X125645995Y-99126023D02*
X125741233Y-99126023D01*
X125741233Y-99126023D02*
X125884090Y-99173642D01*
X125884090Y-99173642D02*
X126455519Y-99745070D01*
X126455519Y-99745070D02*
X126455519Y-99126023D01*
X131314509Y-104355128D02*
X131314509Y-104831319D01*
X130981176Y-103831319D02*
X131314509Y-104355128D01*
X131314509Y-104355128D02*
X131647842Y-103831319D01*
X132504985Y-104831319D02*
X131933557Y-104831319D01*
X132219271Y-104831319D02*
X132219271Y-103831319D01*
X132219271Y-103831319D02*
X132124033Y-103974176D01*
X132124033Y-103974176D02*
X132028795Y-104069414D01*
X132028795Y-104069414D02*
X131933557Y-104117033D01*
X129830280Y-93403166D02*
X129877900Y-93450785D01*
X129877900Y-93450785D02*
X129925519Y-93593642D01*
X129925519Y-93593642D02*
X129925519Y-93688880D01*
X129925519Y-93688880D02*
X129877900Y-93831737D01*
X129877900Y-93831737D02*
X129782661Y-93926975D01*
X129782661Y-93926975D02*
X129687423Y-93974594D01*
X129687423Y-93974594D02*
X129496947Y-94022213D01*
X129496947Y-94022213D02*
X129354090Y-94022213D01*
X129354090Y-94022213D02*
X129163614Y-93974594D01*
X129163614Y-93974594D02*
X129068376Y-93926975D01*
X129068376Y-93926975D02*
X128973138Y-93831737D01*
X128973138Y-93831737D02*
X128925519Y-93688880D01*
X128925519Y-93688880D02*
X128925519Y-93593642D01*
X128925519Y-93593642D02*
X128973138Y-93450785D01*
X128973138Y-93450785D02*
X129020757Y-93403166D01*
X129925519Y-92926975D02*
X129925519Y-92736499D01*
X129925519Y-92736499D02*
X129877900Y-92641261D01*
X129877900Y-92641261D02*
X129830280Y-92593642D01*
X129830280Y-92593642D02*
X129687423Y-92498404D01*
X129687423Y-92498404D02*
X129496947Y-92450785D01*
X129496947Y-92450785D02*
X129115995Y-92450785D01*
X129115995Y-92450785D02*
X129020757Y-92498404D01*
X129020757Y-92498404D02*
X128973138Y-92546023D01*
X128973138Y-92546023D02*
X128925519Y-92641261D01*
X128925519Y-92641261D02*
X128925519Y-92831737D01*
X128925519Y-92831737D02*
X128973138Y-92926975D01*
X128973138Y-92926975D02*
X129020757Y-92974594D01*
X129020757Y-92974594D02*
X129115995Y-93022213D01*
X129115995Y-93022213D02*
X129354090Y-93022213D01*
X129354090Y-93022213D02*
X129449328Y-92974594D01*
X129449328Y-92974594D02*
X129496947Y-92926975D01*
X129496947Y-92926975D02*
X129544566Y-92831737D01*
X129544566Y-92831737D02*
X129544566Y-92641261D01*
X129544566Y-92641261D02*
X129496947Y-92546023D01*
X129496947Y-92546023D02*
X129449328Y-92498404D01*
X129449328Y-92498404D02*
X129354090Y-92450785D01*
X132480280Y-99983166D02*
X132527900Y-100030785D01*
X132527900Y-100030785D02*
X132575519Y-100173642D01*
X132575519Y-100173642D02*
X132575519Y-100268880D01*
X132575519Y-100268880D02*
X132527900Y-100411737D01*
X132527900Y-100411737D02*
X132432661Y-100506975D01*
X132432661Y-100506975D02*
X132337423Y-100554594D01*
X132337423Y-100554594D02*
X132146947Y-100602213D01*
X132146947Y-100602213D02*
X132004090Y-100602213D01*
X132004090Y-100602213D02*
X131813614Y-100554594D01*
X131813614Y-100554594D02*
X131718376Y-100506975D01*
X131718376Y-100506975D02*
X131623138Y-100411737D01*
X131623138Y-100411737D02*
X131575519Y-100268880D01*
X131575519Y-100268880D02*
X131575519Y-100173642D01*
X131575519Y-100173642D02*
X131623138Y-100030785D01*
X131623138Y-100030785D02*
X131670757Y-99983166D01*
X132575519Y-99030785D02*
X132575519Y-99602213D01*
X132575519Y-99316499D02*
X131575519Y-99316499D01*
X131575519Y-99316499D02*
X131718376Y-99411737D01*
X131718376Y-99411737D02*
X131813614Y-99506975D01*
X131813614Y-99506975D02*
X131861233Y-99602213D01*
X132480280Y-84993166D02*
X132527900Y-85040785D01*
X132527900Y-85040785D02*
X132575519Y-85183642D01*
X132575519Y-85183642D02*
X132575519Y-85278880D01*
X132575519Y-85278880D02*
X132527900Y-85421737D01*
X132527900Y-85421737D02*
X132432661Y-85516975D01*
X132432661Y-85516975D02*
X132337423Y-85564594D01*
X132337423Y-85564594D02*
X132146947Y-85612213D01*
X132146947Y-85612213D02*
X132004090Y-85612213D01*
X132004090Y-85612213D02*
X131813614Y-85564594D01*
X131813614Y-85564594D02*
X131718376Y-85516975D01*
X131718376Y-85516975D02*
X131623138Y-85421737D01*
X131623138Y-85421737D02*
X131575519Y-85278880D01*
X131575519Y-85278880D02*
X131575519Y-85183642D01*
X131575519Y-85183642D02*
X131623138Y-85040785D01*
X131623138Y-85040785D02*
X131670757Y-84993166D01*
X131575519Y-84136023D02*
X131575519Y-84326499D01*
X131575519Y-84326499D02*
X131623138Y-84421737D01*
X131623138Y-84421737D02*
X131670757Y-84469356D01*
X131670757Y-84469356D02*
X131813614Y-84564594D01*
X131813614Y-84564594D02*
X132004090Y-84612213D01*
X132004090Y-84612213D02*
X132385042Y-84612213D01*
X132385042Y-84612213D02*
X132480280Y-84564594D01*
X132480280Y-84564594D02*
X132527900Y-84516975D01*
X132527900Y-84516975D02*
X132575519Y-84421737D01*
X132575519Y-84421737D02*
X132575519Y-84231261D01*
X132575519Y-84231261D02*
X132527900Y-84136023D01*
X132527900Y-84136023D02*
X132480280Y-84088404D01*
X132480280Y-84088404D02*
X132385042Y-84040785D01*
X132385042Y-84040785D02*
X132146947Y-84040785D01*
X132146947Y-84040785D02*
X132051709Y-84088404D01*
X132051709Y-84088404D02*
X132004090Y-84136023D01*
X132004090Y-84136023D02*
X131956471Y-84231261D01*
X131956471Y-84231261D02*
X131956471Y-84421737D01*
X131956471Y-84421737D02*
X132004090Y-84516975D01*
X132004090Y-84516975D02*
X132051709Y-84564594D01*
X132051709Y-84564594D02*
X132146947Y-84612213D01*
X142870342Y-98486080D02*
X142822723Y-98533700D01*
X142822723Y-98533700D02*
X142679866Y-98581319D01*
X142679866Y-98581319D02*
X142584628Y-98581319D01*
X142584628Y-98581319D02*
X142441771Y-98533700D01*
X142441771Y-98533700D02*
X142346533Y-98438461D01*
X142346533Y-98438461D02*
X142298914Y-98343223D01*
X142298914Y-98343223D02*
X142251295Y-98152747D01*
X142251295Y-98152747D02*
X142251295Y-98009890D01*
X142251295Y-98009890D02*
X142298914Y-97819414D01*
X142298914Y-97819414D02*
X142346533Y-97724176D01*
X142346533Y-97724176D02*
X142441771Y-97628938D01*
X142441771Y-97628938D02*
X142584628Y-97581319D01*
X142584628Y-97581319D02*
X142679866Y-97581319D01*
X142679866Y-97581319D02*
X142822723Y-97628938D01*
X142822723Y-97628938D02*
X142870342Y-97676557D01*
X143822723Y-98581319D02*
X143251295Y-98581319D01*
X143537009Y-98581319D02*
X143537009Y-97581319D01*
X143537009Y-97581319D02*
X143441771Y-97724176D01*
X143441771Y-97724176D02*
X143346533Y-97819414D01*
X143346533Y-97819414D02*
X143251295Y-97867033D01*
X144775104Y-98581319D02*
X144203676Y-98581319D01*
X144489390Y-98581319D02*
X144489390Y-97581319D01*
X144489390Y-97581319D02*
X144394152Y-97724176D01*
X144394152Y-97724176D02*
X144298914Y-97819414D01*
X144298914Y-97819414D02*
X144203676Y-97867033D01*
X149061533Y-101996080D02*
X149013914Y-102043700D01*
X149013914Y-102043700D02*
X148871057Y-102091319D01*
X148871057Y-102091319D02*
X148775819Y-102091319D01*
X148775819Y-102091319D02*
X148632962Y-102043700D01*
X148632962Y-102043700D02*
X148537724Y-101948461D01*
X148537724Y-101948461D02*
X148490105Y-101853223D01*
X148490105Y-101853223D02*
X148442486Y-101662747D01*
X148442486Y-101662747D02*
X148442486Y-101519890D01*
X148442486Y-101519890D02*
X148490105Y-101329414D01*
X148490105Y-101329414D02*
X148537724Y-101234176D01*
X148537724Y-101234176D02*
X148632962Y-101138938D01*
X148632962Y-101138938D02*
X148775819Y-101091319D01*
X148775819Y-101091319D02*
X148871057Y-101091319D01*
X148871057Y-101091319D02*
X149013914Y-101138938D01*
X149013914Y-101138938D02*
X149061533Y-101186557D01*
X149394867Y-101091319D02*
X150013914Y-101091319D01*
X150013914Y-101091319D02*
X149680581Y-101472271D01*
X149680581Y-101472271D02*
X149823438Y-101472271D01*
X149823438Y-101472271D02*
X149918676Y-101519890D01*
X149918676Y-101519890D02*
X149966295Y-101567509D01*
X149966295Y-101567509D02*
X150013914Y-101662747D01*
X150013914Y-101662747D02*
X150013914Y-101900842D01*
X150013914Y-101900842D02*
X149966295Y-101996080D01*
X149966295Y-101996080D02*
X149918676Y-102043700D01*
X149918676Y-102043700D02*
X149823438Y-102091319D01*
X149823438Y-102091319D02*
X149537724Y-102091319D01*
X149537724Y-102091319D02*
X149442486Y-102043700D01*
X149442486Y-102043700D02*
X149394867Y-101996080D01*
X144800280Y-104626857D02*
X144847900Y-104674476D01*
X144847900Y-104674476D02*
X144895519Y-104817333D01*
X144895519Y-104817333D02*
X144895519Y-104912571D01*
X144895519Y-104912571D02*
X144847900Y-105055428D01*
X144847900Y-105055428D02*
X144752661Y-105150666D01*
X144752661Y-105150666D02*
X144657423Y-105198285D01*
X144657423Y-105198285D02*
X144466947Y-105245904D01*
X144466947Y-105245904D02*
X144324090Y-105245904D01*
X144324090Y-105245904D02*
X144133614Y-105198285D01*
X144133614Y-105198285D02*
X144038376Y-105150666D01*
X144038376Y-105150666D02*
X143943138Y-105055428D01*
X143943138Y-105055428D02*
X143895519Y-104912571D01*
X143895519Y-104912571D02*
X143895519Y-104817333D01*
X143895519Y-104817333D02*
X143943138Y-104674476D01*
X143943138Y-104674476D02*
X143990757Y-104626857D01*
X144895519Y-103674476D02*
X144895519Y-104245904D01*
X144895519Y-103960190D02*
X143895519Y-103960190D01*
X143895519Y-103960190D02*
X144038376Y-104055428D01*
X144038376Y-104055428D02*
X144133614Y-104150666D01*
X144133614Y-104150666D02*
X144181233Y-104245904D01*
X143895519Y-103055428D02*
X143895519Y-102960190D01*
X143895519Y-102960190D02*
X143943138Y-102864952D01*
X143943138Y-102864952D02*
X143990757Y-102817333D01*
X143990757Y-102817333D02*
X144085995Y-102769714D01*
X144085995Y-102769714D02*
X144276471Y-102722095D01*
X144276471Y-102722095D02*
X144514566Y-102722095D01*
X144514566Y-102722095D02*
X144705042Y-102769714D01*
X144705042Y-102769714D02*
X144800280Y-102817333D01*
X144800280Y-102817333D02*
X144847900Y-102864952D01*
X144847900Y-102864952D02*
X144895519Y-102960190D01*
X144895519Y-102960190D02*
X144895519Y-103055428D01*
X144895519Y-103055428D02*
X144847900Y-103150666D01*
X144847900Y-103150666D02*
X144800280Y-103198285D01*
X144800280Y-103198285D02*
X144705042Y-103245904D01*
X144705042Y-103245904D02*
X144514566Y-103293523D01*
X144514566Y-103293523D02*
X144276471Y-103293523D01*
X144276471Y-103293523D02*
X144085995Y-103245904D01*
X144085995Y-103245904D02*
X143990757Y-103198285D01*
X143990757Y-103198285D02*
X143943138Y-103150666D01*
X143943138Y-103150666D02*
X143895519Y-103055428D01*
X140231119Y-80419833D02*
X140945404Y-80419833D01*
X140945404Y-80419833D02*
X141088261Y-80467452D01*
X141088261Y-80467452D02*
X141183500Y-80562690D01*
X141183500Y-80562690D02*
X141231119Y-80705547D01*
X141231119Y-80705547D02*
X141231119Y-80800785D01*
X140231119Y-80038880D02*
X140231119Y-79419833D01*
X140231119Y-79419833D02*
X140612071Y-79753166D01*
X140612071Y-79753166D02*
X140612071Y-79610309D01*
X140612071Y-79610309D02*
X140659690Y-79515071D01*
X140659690Y-79515071D02*
X140707309Y-79467452D01*
X140707309Y-79467452D02*
X140802547Y-79419833D01*
X140802547Y-79419833D02*
X141040642Y-79419833D01*
X141040642Y-79419833D02*
X141135880Y-79467452D01*
X141135880Y-79467452D02*
X141183500Y-79515071D01*
X141183500Y-79515071D02*
X141231119Y-79610309D01*
X141231119Y-79610309D02*
X141231119Y-79896023D01*
X141231119Y-79896023D02*
X141183500Y-79991261D01*
X141183500Y-79991261D02*
X141135880Y-80038880D01*
X133217366Y-96011319D02*
X133217366Y-96725604D01*
X133217366Y-96725604D02*
X133169747Y-96868461D01*
X133169747Y-96868461D02*
X133074509Y-96963700D01*
X133074509Y-96963700D02*
X132931652Y-97011319D01*
X132931652Y-97011319D02*
X132836414Y-97011319D01*
X133598319Y-96011319D02*
X134264985Y-96011319D01*
X134264985Y-96011319D02*
X133836414Y-97011319D01*
X149638795Y-92541319D02*
X149638795Y-93350842D01*
X149638795Y-93350842D02*
X149686414Y-93446080D01*
X149686414Y-93446080D02*
X149734033Y-93493700D01*
X149734033Y-93493700D02*
X149829271Y-93541319D01*
X149829271Y-93541319D02*
X150019747Y-93541319D01*
X150019747Y-93541319D02*
X150114985Y-93493700D01*
X150114985Y-93493700D02*
X150162604Y-93446080D01*
X150162604Y-93446080D02*
X150210223Y-93350842D01*
X150210223Y-93350842D02*
X150210223Y-92541319D01*
X151210223Y-93541319D02*
X150638795Y-93541319D01*
X150924509Y-93541319D02*
X150924509Y-92541319D01*
X150924509Y-92541319D02*
X150829271Y-92684176D01*
X150829271Y-92684176D02*
X150734033Y-92779414D01*
X150734033Y-92779414D02*
X150638795Y-92827033D01*
X123935519Y-84533166D02*
X123459328Y-84866499D01*
X123935519Y-85104594D02*
X122935519Y-85104594D01*
X122935519Y-85104594D02*
X122935519Y-84723642D01*
X122935519Y-84723642D02*
X122983138Y-84628404D01*
X122983138Y-84628404D02*
X123030757Y-84580785D01*
X123030757Y-84580785D02*
X123125995Y-84533166D01*
X123125995Y-84533166D02*
X123268852Y-84533166D01*
X123268852Y-84533166D02*
X123364090Y-84580785D01*
X123364090Y-84580785D02*
X123411709Y-84628404D01*
X123411709Y-84628404D02*
X123459328Y-84723642D01*
X123459328Y-84723642D02*
X123459328Y-85104594D01*
X123268852Y-83676023D02*
X123935519Y-83676023D01*
X122887900Y-83914118D02*
X123602185Y-84152213D01*
X123602185Y-84152213D02*
X123602185Y-83533166D01*
X116054819Y-99166666D02*
X116054819Y-99642856D01*
X116054819Y-99642856D02*
X115054819Y-99642856D01*
X116054819Y-98309523D02*
X116054819Y-98880951D01*
X116054819Y-98595237D02*
X115054819Y-98595237D01*
X115054819Y-98595237D02*
X115197676Y-98690475D01*
X115197676Y-98690475D02*
X115292914Y-98785713D01*
X115292914Y-98785713D02*
X115340533Y-98880951D01*
X149105519Y-84223166D02*
X148629328Y-84556499D01*
X149105519Y-84794594D02*
X148105519Y-84794594D01*
X148105519Y-84794594D02*
X148105519Y-84413642D01*
X148105519Y-84413642D02*
X148153138Y-84318404D01*
X148153138Y-84318404D02*
X148200757Y-84270785D01*
X148200757Y-84270785D02*
X148295995Y-84223166D01*
X148295995Y-84223166D02*
X148438852Y-84223166D01*
X148438852Y-84223166D02*
X148534090Y-84270785D01*
X148534090Y-84270785D02*
X148581709Y-84318404D01*
X148581709Y-84318404D02*
X148629328Y-84413642D01*
X148629328Y-84413642D02*
X148629328Y-84794594D01*
X149105519Y-83270785D02*
X149105519Y-83842213D01*
X149105519Y-83556499D02*
X148105519Y-83556499D01*
X148105519Y-83556499D02*
X148248376Y-83651737D01*
X148248376Y-83651737D02*
X148343614Y-83746975D01*
X148343614Y-83746975D02*
X148391233Y-83842213D01*
X125006533Y-93406080D02*
X124958914Y-93453700D01*
X124958914Y-93453700D02*
X124816057Y-93501319D01*
X124816057Y-93501319D02*
X124720819Y-93501319D01*
X124720819Y-93501319D02*
X124577962Y-93453700D01*
X124577962Y-93453700D02*
X124482724Y-93358461D01*
X124482724Y-93358461D02*
X124435105Y-93263223D01*
X124435105Y-93263223D02*
X124387486Y-93072747D01*
X124387486Y-93072747D02*
X124387486Y-92929890D01*
X124387486Y-92929890D02*
X124435105Y-92739414D01*
X124435105Y-92739414D02*
X124482724Y-92644176D01*
X124482724Y-92644176D02*
X124577962Y-92548938D01*
X124577962Y-92548938D02*
X124720819Y-92501319D01*
X124720819Y-92501319D02*
X124816057Y-92501319D01*
X124816057Y-92501319D02*
X124958914Y-92548938D01*
X124958914Y-92548938D02*
X125006533Y-92596557D01*
X125577962Y-92929890D02*
X125482724Y-92882271D01*
X125482724Y-92882271D02*
X125435105Y-92834652D01*
X125435105Y-92834652D02*
X125387486Y-92739414D01*
X125387486Y-92739414D02*
X125387486Y-92691795D01*
X125387486Y-92691795D02*
X125435105Y-92596557D01*
X125435105Y-92596557D02*
X125482724Y-92548938D01*
X125482724Y-92548938D02*
X125577962Y-92501319D01*
X125577962Y-92501319D02*
X125768438Y-92501319D01*
X125768438Y-92501319D02*
X125863676Y-92548938D01*
X125863676Y-92548938D02*
X125911295Y-92596557D01*
X125911295Y-92596557D02*
X125958914Y-92691795D01*
X125958914Y-92691795D02*
X125958914Y-92739414D01*
X125958914Y-92739414D02*
X125911295Y-92834652D01*
X125911295Y-92834652D02*
X125863676Y-92882271D01*
X125863676Y-92882271D02*
X125768438Y-92929890D01*
X125768438Y-92929890D02*
X125577962Y-92929890D01*
X125577962Y-92929890D02*
X125482724Y-92977509D01*
X125482724Y-92977509D02*
X125435105Y-93025128D01*
X125435105Y-93025128D02*
X125387486Y-93120366D01*
X125387486Y-93120366D02*
X125387486Y-93310842D01*
X125387486Y-93310842D02*
X125435105Y-93406080D01*
X125435105Y-93406080D02*
X125482724Y-93453700D01*
X125482724Y-93453700D02*
X125577962Y-93501319D01*
X125577962Y-93501319D02*
X125768438Y-93501319D01*
X125768438Y-93501319D02*
X125863676Y-93453700D01*
X125863676Y-93453700D02*
X125911295Y-93406080D01*
X125911295Y-93406080D02*
X125958914Y-93310842D01*
X125958914Y-93310842D02*
X125958914Y-93120366D01*
X125958914Y-93120366D02*
X125911295Y-93025128D01*
X125911295Y-93025128D02*
X125863676Y-92977509D01*
X125863676Y-92977509D02*
X125768438Y-92929890D01*
X108216716Y-79754819D02*
X108216716Y-80469104D01*
X108216716Y-80469104D02*
X108169097Y-80611961D01*
X108169097Y-80611961D02*
X108073859Y-80707200D01*
X108073859Y-80707200D02*
X107931002Y-80754819D01*
X107931002Y-80754819D02*
X107835764Y-80754819D01*
X109216716Y-80754819D02*
X108645288Y-80754819D01*
X108931002Y-80754819D02*
X108931002Y-79754819D01*
X108931002Y-79754819D02*
X108835764Y-79897676D01*
X108835764Y-79897676D02*
X108740526Y-79992914D01*
X108740526Y-79992914D02*
X108645288Y-80040533D01*
X130915519Y-87363166D02*
X130439328Y-87696499D01*
X130915519Y-87934594D02*
X129915519Y-87934594D01*
X129915519Y-87934594D02*
X129915519Y-87553642D01*
X129915519Y-87553642D02*
X129963138Y-87458404D01*
X129963138Y-87458404D02*
X130010757Y-87410785D01*
X130010757Y-87410785D02*
X130105995Y-87363166D01*
X130105995Y-87363166D02*
X130248852Y-87363166D01*
X130248852Y-87363166D02*
X130344090Y-87410785D01*
X130344090Y-87410785D02*
X130391709Y-87458404D01*
X130391709Y-87458404D02*
X130439328Y-87553642D01*
X130439328Y-87553642D02*
X130439328Y-87934594D01*
X129915519Y-87029832D02*
X129915519Y-86363166D01*
X129915519Y-86363166D02*
X130915519Y-86791737D01*
X108166716Y-101054819D02*
X108166716Y-101769104D01*
X108166716Y-101769104D02*
X108119097Y-101911961D01*
X108119097Y-101911961D02*
X108023859Y-102007200D01*
X108023859Y-102007200D02*
X107881002Y-102054819D01*
X107881002Y-102054819D02*
X107785764Y-102054819D01*
X109119097Y-101054819D02*
X108642907Y-101054819D01*
X108642907Y-101054819D02*
X108595288Y-101531009D01*
X108595288Y-101531009D02*
X108642907Y-101483390D01*
X108642907Y-101483390D02*
X108738145Y-101435771D01*
X108738145Y-101435771D02*
X108976240Y-101435771D01*
X108976240Y-101435771D02*
X109071478Y-101483390D01*
X109071478Y-101483390D02*
X109119097Y-101531009D01*
X109119097Y-101531009D02*
X109166716Y-101626247D01*
X109166716Y-101626247D02*
X109166716Y-101864342D01*
X109166716Y-101864342D02*
X109119097Y-101959580D01*
X109119097Y-101959580D02*
X109071478Y-102007200D01*
X109071478Y-102007200D02*
X108976240Y-102054819D01*
X108976240Y-102054819D02*
X108738145Y-102054819D01*
X108738145Y-102054819D02*
X108642907Y-102007200D01*
X108642907Y-102007200D02*
X108595288Y-101959580D01*
X139520280Y-84590666D02*
X139567900Y-84638285D01*
X139567900Y-84638285D02*
X139615519Y-84781142D01*
X139615519Y-84781142D02*
X139615519Y-84876380D01*
X139615519Y-84876380D02*
X139567900Y-85019237D01*
X139567900Y-85019237D02*
X139472661Y-85114475D01*
X139472661Y-85114475D02*
X139377423Y-85162094D01*
X139377423Y-85162094D02*
X139186947Y-85209713D01*
X139186947Y-85209713D02*
X139044090Y-85209713D01*
X139044090Y-85209713D02*
X138853614Y-85162094D01*
X138853614Y-85162094D02*
X138758376Y-85114475D01*
X138758376Y-85114475D02*
X138663138Y-85019237D01*
X138663138Y-85019237D02*
X138615519Y-84876380D01*
X138615519Y-84876380D02*
X138615519Y-84781142D01*
X138615519Y-84781142D02*
X138663138Y-84638285D01*
X138663138Y-84638285D02*
X138710757Y-84590666D01*
X138615519Y-83685904D02*
X138615519Y-84162094D01*
X138615519Y-84162094D02*
X139091709Y-84209713D01*
X139091709Y-84209713D02*
X139044090Y-84162094D01*
X139044090Y-84162094D02*
X138996471Y-84066856D01*
X138996471Y-84066856D02*
X138996471Y-83828761D01*
X138996471Y-83828761D02*
X139044090Y-83733523D01*
X139044090Y-83733523D02*
X139091709Y-83685904D01*
X139091709Y-83685904D02*
X139186947Y-83638285D01*
X139186947Y-83638285D02*
X139425042Y-83638285D01*
X139425042Y-83638285D02*
X139520280Y-83685904D01*
X139520280Y-83685904D02*
X139567900Y-83733523D01*
X139567900Y-83733523D02*
X139615519Y-83828761D01*
X139615519Y-83828761D02*
X139615519Y-84066856D01*
X139615519Y-84066856D02*
X139567900Y-84162094D01*
X139567900Y-84162094D02*
X139520280Y-84209713D01*
X128035519Y-87513166D02*
X127559328Y-87846499D01*
X128035519Y-88084594D02*
X127035519Y-88084594D01*
X127035519Y-88084594D02*
X127035519Y-87703642D01*
X127035519Y-87703642D02*
X127083138Y-87608404D01*
X127083138Y-87608404D02*
X127130757Y-87560785D01*
X127130757Y-87560785D02*
X127225995Y-87513166D01*
X127225995Y-87513166D02*
X127368852Y-87513166D01*
X127368852Y-87513166D02*
X127464090Y-87560785D01*
X127464090Y-87560785D02*
X127511709Y-87608404D01*
X127511709Y-87608404D02*
X127559328Y-87703642D01*
X127559328Y-87703642D02*
X127559328Y-88084594D01*
X127035519Y-87179832D02*
X127035519Y-86560785D01*
X127035519Y-86560785D02*
X127416471Y-86894118D01*
X127416471Y-86894118D02*
X127416471Y-86751261D01*
X127416471Y-86751261D02*
X127464090Y-86656023D01*
X127464090Y-86656023D02*
X127511709Y-86608404D01*
X127511709Y-86608404D02*
X127606947Y-86560785D01*
X127606947Y-86560785D02*
X127845042Y-86560785D01*
X127845042Y-86560785D02*
X127940280Y-86608404D01*
X127940280Y-86608404D02*
X127987900Y-86656023D01*
X127987900Y-86656023D02*
X128035519Y-86751261D01*
X128035519Y-86751261D02*
X128035519Y-87036975D01*
X128035519Y-87036975D02*
X127987900Y-87132213D01*
X127987900Y-87132213D02*
X127940280Y-87179832D01*
X139044033Y-98571319D02*
X138710700Y-98095128D01*
X138472605Y-98571319D02*
X138472605Y-97571319D01*
X138472605Y-97571319D02*
X138853557Y-97571319D01*
X138853557Y-97571319D02*
X138948795Y-97618938D01*
X138948795Y-97618938D02*
X138996414Y-97666557D01*
X138996414Y-97666557D02*
X139044033Y-97761795D01*
X139044033Y-97761795D02*
X139044033Y-97904652D01*
X139044033Y-97904652D02*
X138996414Y-97999890D01*
X138996414Y-97999890D02*
X138948795Y-98047509D01*
X138948795Y-98047509D02*
X138853557Y-98095128D01*
X138853557Y-98095128D02*
X138472605Y-98095128D01*
X139948795Y-97571319D02*
X139472605Y-97571319D01*
X139472605Y-97571319D02*
X139424986Y-98047509D01*
X139424986Y-98047509D02*
X139472605Y-97999890D01*
X139472605Y-97999890D02*
X139567843Y-97952271D01*
X139567843Y-97952271D02*
X139805938Y-97952271D01*
X139805938Y-97952271D02*
X139901176Y-97999890D01*
X139901176Y-97999890D02*
X139948795Y-98047509D01*
X139948795Y-98047509D02*
X139996414Y-98142747D01*
X139996414Y-98142747D02*
X139996414Y-98380842D01*
X139996414Y-98380842D02*
X139948795Y-98476080D01*
X139948795Y-98476080D02*
X139901176Y-98523700D01*
X139901176Y-98523700D02*
X139805938Y-98571319D01*
X139805938Y-98571319D02*
X139567843Y-98571319D01*
X139567843Y-98571319D02*
X139472605Y-98523700D01*
X139472605Y-98523700D02*
X139424986Y-98476080D01*
X117934033Y-87286080D02*
X117886414Y-87333700D01*
X117886414Y-87333700D02*
X117743557Y-87381319D01*
X117743557Y-87381319D02*
X117648319Y-87381319D01*
X117648319Y-87381319D02*
X117505462Y-87333700D01*
X117505462Y-87333700D02*
X117410224Y-87238461D01*
X117410224Y-87238461D02*
X117362605Y-87143223D01*
X117362605Y-87143223D02*
X117314986Y-86952747D01*
X117314986Y-86952747D02*
X117314986Y-86809890D01*
X117314986Y-86809890D02*
X117362605Y-86619414D01*
X117362605Y-86619414D02*
X117410224Y-86524176D01*
X117410224Y-86524176D02*
X117505462Y-86428938D01*
X117505462Y-86428938D02*
X117648319Y-86381319D01*
X117648319Y-86381319D02*
X117743557Y-86381319D01*
X117743557Y-86381319D02*
X117886414Y-86428938D01*
X117886414Y-86428938D02*
X117934033Y-86476557D01*
X118791176Y-86714652D02*
X118791176Y-87381319D01*
X118553081Y-86333700D02*
X118314986Y-87047985D01*
X118314986Y-87047985D02*
X118934033Y-87047985D01*
X106215519Y-94029833D02*
X106929804Y-94029833D01*
X106929804Y-94029833D02*
X107072661Y-94077452D01*
X107072661Y-94077452D02*
X107167900Y-94172690D01*
X107167900Y-94172690D02*
X107215519Y-94315547D01*
X107215519Y-94315547D02*
X107215519Y-94410785D01*
X106215519Y-93125071D02*
X106215519Y-93315547D01*
X106215519Y-93315547D02*
X106263138Y-93410785D01*
X106263138Y-93410785D02*
X106310757Y-93458404D01*
X106310757Y-93458404D02*
X106453614Y-93553642D01*
X106453614Y-93553642D02*
X106644090Y-93601261D01*
X106644090Y-93601261D02*
X107025042Y-93601261D01*
X107025042Y-93601261D02*
X107120280Y-93553642D01*
X107120280Y-93553642D02*
X107167900Y-93506023D01*
X107167900Y-93506023D02*
X107215519Y-93410785D01*
X107215519Y-93410785D02*
X107215519Y-93220309D01*
X107215519Y-93220309D02*
X107167900Y-93125071D01*
X107167900Y-93125071D02*
X107120280Y-93077452D01*
X107120280Y-93077452D02*
X107025042Y-93029833D01*
X107025042Y-93029833D02*
X106786947Y-93029833D01*
X106786947Y-93029833D02*
X106691709Y-93077452D01*
X106691709Y-93077452D02*
X106644090Y-93125071D01*
X106644090Y-93125071D02*
X106596471Y-93220309D01*
X106596471Y-93220309D02*
X106596471Y-93410785D01*
X106596471Y-93410785D02*
X106644090Y-93506023D01*
X106644090Y-93506023D02*
X106691709Y-93553642D01*
X106691709Y-93553642D02*
X106786947Y-93601261D01*
X162845714Y-102964819D02*
X162274286Y-102964819D01*
X162560000Y-102964819D02*
X162560000Y-101964819D01*
X162560000Y-101964819D02*
X162464762Y-102107676D01*
X162464762Y-102107676D02*
X162369524Y-102202914D01*
X162369524Y-102202914D02*
X162274286Y-102250533D01*
X160560280Y-101753166D02*
X160607900Y-101800785D01*
X160607900Y-101800785D02*
X160655519Y-101943642D01*
X160655519Y-101943642D02*
X160655519Y-102038880D01*
X160655519Y-102038880D02*
X160607900Y-102181737D01*
X160607900Y-102181737D02*
X160512661Y-102276975D01*
X160512661Y-102276975D02*
X160417423Y-102324594D01*
X160417423Y-102324594D02*
X160226947Y-102372213D01*
X160226947Y-102372213D02*
X160084090Y-102372213D01*
X160084090Y-102372213D02*
X159893614Y-102324594D01*
X159893614Y-102324594D02*
X159798376Y-102276975D01*
X159798376Y-102276975D02*
X159703138Y-102181737D01*
X159703138Y-102181737D02*
X159655519Y-102038880D01*
X159655519Y-102038880D02*
X159655519Y-101943642D01*
X159655519Y-101943642D02*
X159703138Y-101800785D01*
X159703138Y-101800785D02*
X159750757Y-101753166D01*
X159750757Y-101372213D02*
X159703138Y-101324594D01*
X159703138Y-101324594D02*
X159655519Y-101229356D01*
X159655519Y-101229356D02*
X159655519Y-100991261D01*
X159655519Y-100991261D02*
X159703138Y-100896023D01*
X159703138Y-100896023D02*
X159750757Y-100848404D01*
X159750757Y-100848404D02*
X159845995Y-100800785D01*
X159845995Y-100800785D02*
X159941233Y-100800785D01*
X159941233Y-100800785D02*
X160084090Y-100848404D01*
X160084090Y-100848404D02*
X160655519Y-101419832D01*
X160655519Y-101419832D02*
X160655519Y-100800785D01*
X118838919Y-80419833D02*
X119553204Y-80419833D01*
X119553204Y-80419833D02*
X119696061Y-80467452D01*
X119696061Y-80467452D02*
X119791300Y-80562690D01*
X119791300Y-80562690D02*
X119838919Y-80705547D01*
X119838919Y-80705547D02*
X119838919Y-80800785D01*
X119172252Y-79515071D02*
X119838919Y-79515071D01*
X118791300Y-79753166D02*
X119505585Y-79991261D01*
X119505585Y-79991261D02*
X119505585Y-79372214D01*
X120665519Y-99793166D02*
X120665519Y-100269356D01*
X120665519Y-100269356D02*
X119665519Y-100269356D01*
X119665519Y-99555070D02*
X119665519Y-98936023D01*
X119665519Y-98936023D02*
X120046471Y-99269356D01*
X120046471Y-99269356D02*
X120046471Y-99126499D01*
X120046471Y-99126499D02*
X120094090Y-99031261D01*
X120094090Y-99031261D02*
X120141709Y-98983642D01*
X120141709Y-98983642D02*
X120236947Y-98936023D01*
X120236947Y-98936023D02*
X120475042Y-98936023D01*
X120475042Y-98936023D02*
X120570280Y-98983642D01*
X120570280Y-98983642D02*
X120617900Y-99031261D01*
X120617900Y-99031261D02*
X120665519Y-99126499D01*
X120665519Y-99126499D02*
X120665519Y-99412213D01*
X120665519Y-99412213D02*
X120617900Y-99507451D01*
X120617900Y-99507451D02*
X120570280Y-99555070D01*
X160067366Y-82771319D02*
X160067366Y-83485604D01*
X160067366Y-83485604D02*
X160019747Y-83628461D01*
X160019747Y-83628461D02*
X159924509Y-83723700D01*
X159924509Y-83723700D02*
X159781652Y-83771319D01*
X159781652Y-83771319D02*
X159686414Y-83771319D01*
X160495938Y-82866557D02*
X160543557Y-82818938D01*
X160543557Y-82818938D02*
X160638795Y-82771319D01*
X160638795Y-82771319D02*
X160876890Y-82771319D01*
X160876890Y-82771319D02*
X160972128Y-82818938D01*
X160972128Y-82818938D02*
X161019747Y-82866557D01*
X161019747Y-82866557D02*
X161067366Y-82961795D01*
X161067366Y-82961795D02*
X161067366Y-83057033D01*
X161067366Y-83057033D02*
X161019747Y-83199890D01*
X161019747Y-83199890D02*
X160448319Y-83771319D01*
X160448319Y-83771319D02*
X161067366Y-83771319D01*
X117824286Y-80830057D02*
X117871905Y-80782438D01*
X117871905Y-80782438D02*
X117967143Y-80734819D01*
X117967143Y-80734819D02*
X118205238Y-80734819D01*
X118205238Y-80734819D02*
X118300476Y-80782438D01*
X118300476Y-80782438D02*
X118348095Y-80830057D01*
X118348095Y-80830057D02*
X118395714Y-80925295D01*
X118395714Y-80925295D02*
X118395714Y-81020533D01*
X118395714Y-81020533D02*
X118348095Y-81163390D01*
X118348095Y-81163390D02*
X117776667Y-81734819D01*
X117776667Y-81734819D02*
X118395714Y-81734819D01*
X144195519Y-84383166D02*
X143719328Y-84716499D01*
X144195519Y-84954594D02*
X143195519Y-84954594D01*
X143195519Y-84954594D02*
X143195519Y-84573642D01*
X143195519Y-84573642D02*
X143243138Y-84478404D01*
X143243138Y-84478404D02*
X143290757Y-84430785D01*
X143290757Y-84430785D02*
X143385995Y-84383166D01*
X143385995Y-84383166D02*
X143528852Y-84383166D01*
X143528852Y-84383166D02*
X143624090Y-84430785D01*
X143624090Y-84430785D02*
X143671709Y-84478404D01*
X143671709Y-84478404D02*
X143719328Y-84573642D01*
X143719328Y-84573642D02*
X143719328Y-84954594D01*
X143290757Y-84002213D02*
X143243138Y-83954594D01*
X143243138Y-83954594D02*
X143195519Y-83859356D01*
X143195519Y-83859356D02*
X143195519Y-83621261D01*
X143195519Y-83621261D02*
X143243138Y-83526023D01*
X143243138Y-83526023D02*
X143290757Y-83478404D01*
X143290757Y-83478404D02*
X143385995Y-83430785D01*
X143385995Y-83430785D02*
X143481233Y-83430785D01*
X143481233Y-83430785D02*
X143624090Y-83478404D01*
X143624090Y-83478404D02*
X144195519Y-84049832D01*
X144195519Y-84049832D02*
X144195519Y-83430785D01*
X156245519Y-90694594D02*
X155245519Y-90694594D01*
X155245519Y-90694594D02*
X155245519Y-90456499D01*
X155245519Y-90456499D02*
X155293138Y-90313642D01*
X155293138Y-90313642D02*
X155388376Y-90218404D01*
X155388376Y-90218404D02*
X155483614Y-90170785D01*
X155483614Y-90170785D02*
X155674090Y-90123166D01*
X155674090Y-90123166D02*
X155816947Y-90123166D01*
X155816947Y-90123166D02*
X156007423Y-90170785D01*
X156007423Y-90170785D02*
X156102661Y-90218404D01*
X156102661Y-90218404D02*
X156197900Y-90313642D01*
X156197900Y-90313642D02*
X156245519Y-90456499D01*
X156245519Y-90456499D02*
X156245519Y-90694594D01*
X156245519Y-89170785D02*
X156245519Y-89742213D01*
X156245519Y-89456499D02*
X155245519Y-89456499D01*
X155245519Y-89456499D02*
X155388376Y-89551737D01*
X155388376Y-89551737D02*
X155483614Y-89646975D01*
X155483614Y-89646975D02*
X155531233Y-89742213D01*
X158155519Y-95518404D02*
X157155519Y-95518404D01*
X158155519Y-94946976D02*
X157584090Y-95375547D01*
X157155519Y-94946976D02*
X157726947Y-95518404D01*
D11*
%TO.C,C7*%
X135194452Y-99071500D02*
X134671948Y-99071500D01*
X135194452Y-100541500D02*
X134671948Y-100541500D01*
%TO.C,L2*%
X124770700Y-97006500D02*
X124770700Y-102546500D01*
X124770700Y-102546500D02*
X127210700Y-102546500D01*
X125990700Y-95736500D02*
X125990700Y-97006500D01*
X125990700Y-103816500D02*
X125990700Y-102546500D01*
X127210700Y-97006500D02*
X124770700Y-97006500D01*
X127210700Y-102546500D02*
X127210700Y-97006500D01*
%TO.C,Y1*%
X130410700Y-102606500D02*
X130410700Y-106006500D01*
X130410700Y-106006500D02*
X138810700Y-106006500D01*
X138810700Y-102606500D02*
X130410700Y-102606500D01*
X138810700Y-103761500D02*
X139960700Y-103356500D01*
X138810700Y-104851500D02*
X139960700Y-105256500D01*
X138810700Y-106006500D02*
X138810700Y-102606500D01*
X139960700Y-103356500D02*
X140410700Y-103356500D01*
X139960700Y-105256500D02*
X140410700Y-105256500D01*
%TO.C,C9*%
X128715700Y-90052748D02*
X128715700Y-90575252D01*
X130185700Y-90052748D02*
X130185700Y-90575252D01*
%TO.C,C1*%
X129784452Y-99121500D02*
X129261948Y-99121500D01*
X129784452Y-100591500D02*
X129261948Y-100591500D01*
%TO.C,C6*%
X133135700Y-84055248D02*
X133135700Y-84577752D01*
X134605700Y-84055248D02*
X134605700Y-84577752D01*
%TO.C,C11*%
X143251948Y-99071500D02*
X143774452Y-99071500D01*
X143251948Y-100541500D02*
X143774452Y-100541500D01*
%TO.C,C3*%
X149489452Y-99221500D02*
X148966948Y-99221500D01*
X149489452Y-100691500D02*
X148966948Y-100691500D01*
%TO.C,C10*%
X145385700Y-104245252D02*
X145385700Y-103722748D01*
X146855700Y-104245252D02*
X146855700Y-103722748D01*
%TO.C,J3*%
X142216300Y-78756500D02*
X143546300Y-78756500D01*
X142216300Y-80086500D02*
X142216300Y-78756500D01*
X144816300Y-78756500D02*
X160116300Y-78756500D01*
X144816300Y-81416500D02*
X144816300Y-78756500D01*
X144816300Y-81416500D02*
X160116300Y-81416500D01*
X160116300Y-81416500D02*
X160116300Y-78756500D01*
%TO.C,J7*%
X132490700Y-93496500D02*
X132490700Y-89436500D01*
X134610700Y-89436500D02*
X132490700Y-89436500D01*
X134610700Y-93496500D02*
X132490700Y-93496500D01*
X134610700Y-93496500D02*
X134610700Y-89436500D01*
X134610700Y-94496500D02*
X134610700Y-95556500D01*
X134610700Y-95556500D02*
X133550700Y-95556500D01*
D12*
%TO.C,U1*%
X146998700Y-91184500D02*
X146998700Y-94988500D01*
X146998700Y-94988500D02*
X147447357Y-94988500D01*
X148597357Y-91184500D02*
X146998700Y-91184500D01*
X148754043Y-94988500D02*
X149747357Y-94988500D01*
X151054043Y-94988500D02*
X152047357Y-94988500D01*
X153354044Y-94988500D02*
X153802700Y-94988500D01*
X153802700Y-91184500D02*
X152204043Y-91184500D01*
X153802700Y-94988500D02*
X153802700Y-91184500D01*
X145982700Y-96636500D02*
G75*
G02*
X145728700Y-96636500I-127000J0D01*
G01*
X145728700Y-96636500D02*
G75*
G02*
X145982700Y-96636500I127000J0D01*
G01*
D11*
%TO.C,R4*%
X124395700Y-84593564D02*
X124395700Y-84139436D01*
X125865700Y-84593564D02*
X125865700Y-84139436D01*
%TO.C,L1*%
X114350000Y-96290000D02*
X114350000Y-101830000D01*
X114350000Y-101830000D02*
X116790000Y-101830000D01*
X115570000Y-95020000D02*
X115570000Y-96290000D01*
X115570000Y-103100000D02*
X115570000Y-101830000D01*
X116790000Y-96290000D02*
X114350000Y-96290000D01*
X116790000Y-101830000D02*
X116790000Y-96290000D01*
%TO.C,R1*%
X149565700Y-84283564D02*
X149565700Y-83829436D01*
X151035700Y-84283564D02*
X151035700Y-83829436D01*
%TO.C,C8*%
X124241952Y-90641500D02*
X123719448Y-90641500D01*
X124241952Y-92111500D02*
X123719448Y-92111500D01*
%TO.C,J1*%
X104895500Y-83636500D02*
X104895500Y-81636500D01*
X107400700Y-79131300D02*
X109400700Y-79131300D01*
X109400700Y-86141700D02*
X107400700Y-86141700D01*
X111905900Y-81636500D02*
X111905900Y-83636500D01*
%TO.C,R7*%
X129465700Y-84049436D02*
X129465700Y-84503564D01*
X130935700Y-84049436D02*
X130935700Y-84503564D01*
%TO.C,J5*%
X104925500Y-105016500D02*
X104925500Y-103016500D01*
X107430700Y-100511300D02*
X109430700Y-100511300D01*
X109430700Y-107521700D02*
X107430700Y-107521700D01*
X111935900Y-103016500D02*
X111935900Y-105016500D01*
%TO.C,C5*%
X136745700Y-84162748D02*
X136745700Y-84685252D01*
X138215700Y-84162748D02*
X138215700Y-84685252D01*
%TO.C,R3*%
X126855700Y-84573564D02*
X126855700Y-84119436D01*
X128325700Y-84573564D02*
X128325700Y-84119436D01*
%TO.C,R5*%
X138983636Y-99031500D02*
X139437764Y-99031500D01*
X138983636Y-100501500D02*
X139437764Y-100501500D01*
%TO.C,C4*%
X114690700Y-83506500D02*
X114690700Y-85856500D01*
X114690700Y-90326500D02*
X114690700Y-87976500D01*
X120446263Y-83506500D02*
X114690700Y-83506500D01*
X120446263Y-90326500D02*
X114690700Y-90326500D01*
X121510700Y-84570937D02*
X120446263Y-83506500D01*
X121510700Y-84570937D02*
X121510700Y-85856500D01*
X121510700Y-89262063D02*
X120446263Y-90326500D01*
X121510700Y-89262063D02*
X121510700Y-87976500D01*
X122144450Y-89157750D02*
X122144450Y-88370250D01*
X122538200Y-88764000D02*
X121750700Y-88764000D01*
%TO.C,J6*%
X109370700Y-90336500D02*
X110430700Y-90336500D01*
X109370700Y-91396500D02*
X109370700Y-90336500D01*
X109370700Y-92396500D02*
X109370700Y-96456500D01*
X109370700Y-92396500D02*
X111490700Y-92396500D01*
X109370700Y-96456500D02*
X111490700Y-96456500D01*
X111490700Y-92396500D02*
X111490700Y-96456500D01*
%TO.C,C2*%
X152440700Y-99240937D02*
X152440700Y-104996500D01*
X152440700Y-104996500D02*
X154790700Y-104996500D01*
X153505137Y-98176500D02*
X152440700Y-99240937D01*
X153505137Y-98176500D02*
X154790700Y-98176500D01*
X157698200Y-97149000D02*
X157698200Y-97936500D01*
X158091950Y-97542750D02*
X157304450Y-97542750D01*
X158196263Y-98176500D02*
X156910700Y-98176500D01*
X158196263Y-98176500D02*
X159260700Y-99240937D01*
X159260700Y-99240937D02*
X159260700Y-104996500D01*
X159260700Y-104996500D02*
X156910700Y-104996500D01*
%TO.C,J4*%
X120824100Y-78756500D02*
X122154100Y-78756500D01*
X120824100Y-80086500D02*
X120824100Y-78756500D01*
X123424100Y-78756500D02*
X138724100Y-78756500D01*
X123424100Y-81416500D02*
X123424100Y-78756500D01*
X123424100Y-81416500D02*
X138724100Y-81416500D01*
X138724100Y-81416500D02*
X138724100Y-78756500D01*
%TO.C,L3*%
X118970700Y-96906500D02*
X118970700Y-102446500D01*
X118970700Y-102446500D02*
X121410700Y-102446500D01*
X120190700Y-95636500D02*
X120190700Y-96906500D01*
X120190700Y-103716500D02*
X120190700Y-102446500D01*
X121410700Y-96906500D02*
X118970700Y-96906500D01*
X121410700Y-102446500D02*
X121410700Y-96906500D01*
%TO.C,J2*%
X159070700Y-87356500D02*
X159070700Y-97576500D01*
X159070700Y-87356500D02*
X161730700Y-87356500D01*
X159070700Y-97576500D02*
X161730700Y-97576500D01*
X160400700Y-84756500D02*
X161730700Y-84756500D01*
X161730700Y-84756500D02*
X161730700Y-86086500D01*
X161730700Y-87356500D02*
X161730700Y-97576500D01*
%TO.C,R2*%
X144655700Y-84443564D02*
X144655700Y-83989436D01*
X146125700Y-84443564D02*
X146125700Y-83989436D01*
%TO.C,D1*%
X154920700Y-88586500D02*
X154920700Y-91866500D01*
X154920700Y-91170500D02*
X156760700Y-91170500D01*
X154920700Y-91290500D02*
X156760700Y-91290500D01*
X154920700Y-91410500D02*
X156760700Y-91410500D01*
X154920700Y-91866500D02*
X156760700Y-91866500D01*
X155840700Y-86136500D02*
X155840700Y-88586500D01*
X155840700Y-94316500D02*
X155840700Y-91866500D01*
X156760700Y-88586500D02*
X154920700Y-88586500D01*
X156760700Y-91866500D02*
X156760700Y-88586500D01*
%TD*%
M02*
