%TF.GenerationSoftware,KiCad,Pcbnew,8.0.4*%
%TF.CreationDate,2025-05-02T23:51:08+05:30*%
%TF.ProjectId,Si4735Board,53693437-3335-4426-9f61-72642e6b6963,rev?*%
%TF.SameCoordinates,Original*%
%TF.FileFunction,Copper,L2,Bot*%
%TF.FilePolarity,Positive*%
%FSLAX46Y46*%
G04 Gerber Fmt 4.6, Leading zero omitted, Abs format (unit mm)*
G04 Created by KiCad (PCBNEW 8.0.4) date 2025-05-02 23:51:08*
%MOMM*%
%LPD*%
G01*
G04 APERTURE LIST*
%TA.AperFunction,ComponentPad*%
%ADD10C,1.600000*%
%TD*%
%TA.AperFunction,ComponentPad*%
%ADD11O,1.600000X1.600000*%
%TD*%
%TA.AperFunction,ComponentPad*%
%ADD12C,1.000000*%
%TD*%
%TA.AperFunction,ComponentPad*%
%ADD13R,1.700000X1.700000*%
%TD*%
%TA.AperFunction,ComponentPad*%
%ADD14O,1.700000X1.700000*%
%TD*%
%TA.AperFunction,ComponentPad*%
%ADD15R,1.350000X1.350000*%
%TD*%
%TA.AperFunction,ComponentPad*%
%ADD16O,1.350000X1.350000*%
%TD*%
%TA.AperFunction,ComponentPad*%
%ADD17C,2.240000*%
%TD*%
%TA.AperFunction,ComponentPad*%
%ADD18C,2.740000*%
%TD*%
%TA.AperFunction,ComponentPad*%
%ADD19C,2.600000*%
%TD*%
%TA.AperFunction,ConnectorPad*%
%ADD20C,3.800000*%
%TD*%
%TA.AperFunction,ComponentPad*%
%ADD21R,1.500000X1.500000*%
%TD*%
%TA.AperFunction,ComponentPad*%
%ADD22O,1.500000X1.500000*%
%TD*%
%TA.AperFunction,SMDPad,CuDef*%
%ADD23R,1.200000X0.400000*%
%TD*%
%TA.AperFunction,ViaPad*%
%ADD24C,0.600000*%
%TD*%
%TA.AperFunction,Conductor*%
%ADD25C,0.200000*%
%TD*%
G04 APERTURE END LIST*
D10*
%TO.P,L2,1,1*%
%TO.N,Net-(U2-FMI)*%
X125990700Y-94696500D03*
D11*
%TO.P,L2,2,2*%
%TO.N,GND*%
X125990700Y-104856500D03*
%TD*%
D12*
%TO.P,Y1,1,1*%
%TO.N,Net-(C11-Pad1)*%
X141110700Y-103356500D03*
%TO.P,Y1,2,2*%
%TO.N,RCLK*%
X141110700Y-105256500D03*
%TD*%
D13*
%TO.P,J3,1,Pin_1*%
%TO.N,SCL*%
X143546300Y-80086500D03*
D14*
%TO.P,J3,2,Pin_2*%
%TO.N,SDA*%
X146086300Y-80086500D03*
%TO.P,J3,3,Pin_3*%
%TO.N,GND*%
X148626300Y-80086500D03*
%TO.P,J3,4,Pin_4*%
%TO.N,DOUT*%
X151166300Y-80086500D03*
%TO.P,J3,5,Pin_5*%
%TO.N,DFS*%
X153706300Y-80086500D03*
%TO.P,J3,6,Pin_6*%
%TO.N,GPIO2*%
X156246300Y-80086500D03*
%TO.P,J3,7,Pin_7*%
%TO.N,RCLK*%
X158786300Y-80086500D03*
%TD*%
D15*
%TO.P,J7,1,Pin_1*%
%TO.N,3V3R2*%
X133550700Y-94496500D03*
D16*
%TO.P,J7,2,Pin_2*%
%TO.N,SEN*%
X133550700Y-92496500D03*
%TO.P,J7,3,Pin_3*%
%TO.N,GND*%
X133550700Y-90496500D03*
%TD*%
D10*
%TO.P,L1,1,1*%
%TO.N,FMI*%
X115570000Y-104140000D03*
D11*
%TO.P,L1,2,2*%
%TO.N,GND*%
X115570000Y-93980000D03*
%TD*%
D17*
%TO.P,J1,1,In*%
%TO.N,FMI*%
X108400700Y-82636500D03*
D18*
%TO.P,J1,2,Ext*%
%TO.N,GND*%
X105860700Y-80096500D03*
X105860700Y-85176500D03*
X110940700Y-80096500D03*
X110940700Y-85176500D03*
%TD*%
D17*
%TO.P,J5,1,In*%
%TO.N,AMI*%
X108430700Y-104016500D03*
D18*
%TO.P,J5,2,Ext*%
%TO.N,GND*%
X110970700Y-106556500D03*
X110970700Y-101476500D03*
X105890700Y-106556500D03*
X105890700Y-101476500D03*
%TD*%
D15*
%TO.P,J6,1,Pin_1*%
%TO.N,FMI*%
X110430700Y-91396500D03*
D16*
%TO.P,J6,2,Pin_2*%
%TO.N,GND*%
X110430700Y-93396500D03*
%TO.P,J6,3,Pin_3*%
%TO.N,AMI*%
X110430700Y-95396500D03*
%TD*%
D19*
%TO.P,1,1*%
%TO.N,N/C*%
X162560000Y-105410000D03*
D20*
X162560000Y-105410000D03*
%TD*%
D13*
%TO.P,J4,1,Pin_1*%
%TO.N,SCL1*%
X122154100Y-80086500D03*
D14*
%TO.P,J4,2,Pin_2*%
%TO.N,SDA1*%
X124694100Y-80086500D03*
%TO.P,J4,3,Pin_3*%
%TO.N,RST*%
X127234100Y-80086500D03*
%TO.P,J4,4,Pin_4*%
%TO.N,3V3R2*%
X129774100Y-80086500D03*
%TO.P,J4,5,Pin_5*%
%TO.N,ROUT*%
X132314100Y-80086500D03*
%TO.P,J4,6,Pin_6*%
%TO.N,LOUT*%
X134854100Y-80086500D03*
%TO.P,J4,7,Pin_7*%
%TO.N,GND*%
X137394100Y-80086500D03*
%TD*%
D10*
%TO.P,L3,1,1*%
%TO.N,AMI*%
X120190700Y-104756500D03*
D11*
%TO.P,L3,2,2*%
%TO.N,GND*%
X120190700Y-94596500D03*
%TD*%
D13*
%TO.P,J2,1,Pin_1*%
%TO.N,GND*%
X160400700Y-86086500D03*
D14*
%TO.P,J2,2,Pin_2*%
X160400700Y-88626500D03*
%TO.P,J2,3,Pin_3*%
%TO.N,3V3R2*%
X160400700Y-91166500D03*
%TO.P,J2,4,Pin_4*%
%TO.N,9V*%
X160400700Y-93706500D03*
%TO.P,J2,5,Pin_5*%
%TO.N,GND*%
X160400700Y-96246500D03*
%TD*%
D19*
%TO.P,2,1*%
%TO.N,N/C*%
X115570000Y-80010000D03*
D20*
X115570000Y-80010000D03*
%TD*%
D21*
%TO.P,D1,1,K*%
%TO.N,Net-(D1-K)*%
X155840700Y-95306500D03*
D22*
%TO.P,D1,2,A*%
%TO.N,9V*%
X155840700Y-85146500D03*
%TD*%
D23*
%TO.P,U2,1,DOUT*%
%TO.N,DOUT*%
X138130700Y-95936500D03*
%TO.P,U2,2,DFS*%
%TO.N,DFS*%
X138130700Y-95301500D03*
%TO.P,U2,3,GPO3/(DCLK)*%
%TO.N,Net-(U2-GPO3{slash}(DCLK))*%
X138130700Y-94666500D03*
%TO.P,U2,4,GPO2(~{INT})*%
%TO.N,GPIO2*%
X138130700Y-94031500D03*
%TO.P,U2,5,GPO1*%
%TO.N,unconnected-(U2-GPO1-Pad5)*%
X138130700Y-93396500D03*
%TO.P,U2,6,NC*%
%TO.N,unconnected-(U2-NC-Pad6)*%
X138130700Y-92761500D03*
%TO.P,U2,7,NC@1*%
%TO.N,unconnected-(U2-NC@1-Pad7)*%
X138130700Y-92126500D03*
%TO.P,U2,8,FMI*%
%TO.N,Net-(U2-FMI)*%
X138130700Y-91491500D03*
%TO.P,U2,9,RFGND*%
%TO.N,GND*%
X138130700Y-90856500D03*
%TO.P,U2,10,NC@2*%
%TO.N,unconnected-(U2-NC@2-Pad10)*%
X138130700Y-90221500D03*
%TO.P,U2,11,NC@3*%
%TO.N,unconnected-(U2-NC@3-Pad11)*%
X138130700Y-89586500D03*
%TO.P,U2,12,AMI*%
%TO.N,Net-(U2-AMI)*%
X138130700Y-88951500D03*
%TO.P,U2,13,GND*%
%TO.N,GND*%
X143330700Y-88951500D03*
%TO.P,U2,14,GND@1*%
X143330700Y-89586500D03*
%TO.P,U2,15,~{RST}*%
%TO.N,Net-(U2-~{RST})*%
X143330700Y-90221500D03*
%TO.P,U2,16,~{SEN}*%
%TO.N,SEN*%
X143330700Y-90856500D03*
%TO.P,U2,17,SCLK*%
%TO.N,SCL1*%
X143330700Y-91491500D03*
%TO.P,U2,18,SDIO*%
%TO.N,SDA1*%
X143330700Y-92126500D03*
%TO.P,U2,19,RCLK*%
%TO.N,RCLK*%
X143330700Y-92761500D03*
%TO.P,U2,20,VD*%
%TO.N,3V3R2*%
X143330700Y-93396500D03*
%TO.P,U2,21,VA*%
X143330700Y-94031500D03*
%TO.P,U2,22,DBYP*%
%TO.N,Net-(U2-DBYP)*%
X143330700Y-94666500D03*
%TO.P,U2,23,ROUT(DOUT)*%
%TO.N,Net-(U2-ROUT(DOUT))*%
X143330700Y-95301500D03*
%TO.P,U2,24,LOUT(DFS)*%
%TO.N,Net-(U2-LOUT(DFS))*%
X143330700Y-95936500D03*
%TD*%
D24*
%TO.N,Net-(D1-K)*%
X154083600Y-97293800D03*
%TO.N,3V3R2*%
X143294900Y-98381400D03*
X130808400Y-87589700D03*
%TO.N,Net-(U2-LOUT(DFS))*%
X145197700Y-93013500D03*
%TO.N,Net-(U2-ROUT(DOUT))*%
X146446200Y-93265600D03*
%TO.N,Net-(U2-DBYP)*%
X137084500Y-99909400D03*
%TO.N,Net-(U2-FMI)*%
X132198800Y-92192600D03*
%TO.N,Net-(U2-AMI)*%
X132314300Y-89876100D03*
%TO.N,SDA1*%
X145342600Y-89419500D03*
%TO.N,SCL1*%
X141783800Y-93242800D03*
X125204300Y-87652200D03*
%TO.N,Net-(U2-GPO3{slash}(DCLK))*%
X139233300Y-94696700D03*
%TO.N,Net-(U2-~{RST})*%
X142264300Y-88285100D03*
%TD*%
D25*
%TO.N,Net-(D1-K)*%
X154789000Y-96588400D02*
X154083600Y-97293800D01*
X154789000Y-95306500D02*
X154789000Y-96588400D01*
X155840700Y-95306500D02*
X154789000Y-95306500D01*
%TO.N,GND*%
X143330700Y-88951500D02*
X142429000Y-88951500D01*
X160688600Y-95094800D02*
X161558800Y-94224600D01*
X110970700Y-101476500D02*
X110970700Y-106556500D01*
X135461600Y-83170700D02*
X137394100Y-81238200D01*
X148626300Y-84557600D02*
X148626300Y-80086500D01*
X134527400Y-90496500D02*
X135461600Y-90496500D01*
X144232400Y-88951500D02*
X148626300Y-84557600D01*
X110430700Y-93396500D02*
X105860700Y-88826500D01*
X160400700Y-88626500D02*
X160400700Y-89778200D01*
X160400700Y-95094800D02*
X160688600Y-95094800D01*
X110430700Y-94373200D02*
X110797000Y-94373200D01*
X135461600Y-90496500D02*
X135461600Y-83170700D01*
X160400700Y-96246500D02*
X160400700Y-95094800D01*
X138130700Y-90856500D02*
X135821600Y-90856500D01*
X111458300Y-100988900D02*
X110970700Y-101476500D01*
X105860700Y-80096500D02*
X105860700Y-85176500D01*
X143330700Y-88951500D02*
X144232400Y-88951500D01*
X160669200Y-89778200D02*
X160400700Y-89778200D01*
X111458300Y-95034500D02*
X111458300Y-100988900D01*
X143330700Y-89586500D02*
X142429000Y-89586500D01*
X110797000Y-94373200D02*
X111458300Y-95034500D01*
X135821600Y-90856500D02*
X135461600Y-90496500D01*
X105890700Y-101476500D02*
X105890700Y-106556500D01*
X133550700Y-90496500D02*
X134527400Y-90496500D01*
X161558800Y-90667800D02*
X160669200Y-89778200D01*
X142429000Y-89586500D02*
X142429000Y-88951500D01*
X161558800Y-94224600D02*
X161558800Y-90667800D01*
X160400700Y-86086500D02*
X160400700Y-88626500D01*
X137394100Y-80086500D02*
X137394100Y-81238200D01*
X110940700Y-85176500D02*
X110940700Y-80096500D01*
X110430700Y-93396500D02*
X110430700Y-94373200D01*
X105860700Y-88826500D02*
X105860700Y-85176500D01*
%TO.N,3V3R2*%
X143330700Y-93396500D02*
X142429000Y-93396500D01*
X144232400Y-97443900D02*
X143294900Y-98381400D01*
X143330700Y-94031500D02*
X144232400Y-94031500D01*
X136906300Y-96875400D02*
X139609500Y-96875400D01*
X144232400Y-94031500D02*
X144232400Y-97443900D01*
X130808400Y-82272500D02*
X129774100Y-81238200D01*
X132675200Y-93519800D02*
X133550700Y-93519800D01*
X133550700Y-94496500D02*
X134527400Y-94496500D01*
X143263200Y-94031500D02*
X143330700Y-94031500D01*
X143263200Y-94031500D02*
X142429000Y-94031500D01*
X134527400Y-94496500D02*
X136906300Y-96875400D01*
X142429000Y-94055900D02*
X142429000Y-94031500D01*
X130808400Y-87589700D02*
X130808400Y-91653000D01*
X129774100Y-80086500D02*
X129774100Y-81238200D01*
X130808400Y-91653000D02*
X132675200Y-93519800D01*
X133550700Y-94496500D02*
X133550700Y-93519800D01*
X142429000Y-94031500D02*
X142429000Y-93396500D01*
X139609500Y-96875400D02*
X142429000Y-94055900D01*
X130808400Y-87589700D02*
X130808400Y-82272500D01*
%TO.N,Net-(U2-LOUT(DFS))*%
X142967600Y-98983200D02*
X143599100Y-98983200D01*
X143599100Y-98983200D02*
X144956600Y-97625700D01*
X142429000Y-98444600D02*
X142967600Y-98983200D01*
X144956600Y-97625700D02*
X144956600Y-93254600D01*
X142429000Y-95936500D02*
X142429000Y-98444600D01*
X143330700Y-95936500D02*
X142429000Y-95936500D01*
X144956600Y-93254600D02*
X145197700Y-93013500D01*
%TO.N,Net-(U2-ROUT(DOUT))*%
X143765400Y-99384900D02*
X146446200Y-96704100D01*
X142801300Y-99384900D02*
X143765400Y-99384900D01*
X146446200Y-96704100D02*
X146446200Y-93265600D01*
X142027300Y-98610900D02*
X142801300Y-99384900D01*
X142027300Y-95703200D02*
X142027300Y-98610900D01*
X142429000Y-95301500D02*
X142027300Y-95703200D01*
X143330700Y-95301500D02*
X142429000Y-95301500D01*
%TO.N,Net-(U2-DBYP)*%
X143330700Y-94666500D02*
X142429000Y-94666500D01*
X142429000Y-94666500D02*
X137186100Y-99909400D01*
X137186100Y-99909400D02*
X137084500Y-99909400D01*
%TO.N,FMI*%
X110430700Y-91396500D02*
X110430700Y-92373200D01*
X110430700Y-91396500D02*
X110430700Y-90419800D01*
X110797000Y-92373200D02*
X110430700Y-92373200D01*
X108400700Y-88389800D02*
X110430700Y-90419800D01*
X115570000Y-97146200D02*
X110797000Y-92373200D01*
X115570000Y-104140000D02*
X115570000Y-97146200D01*
X108400700Y-82636500D02*
X108400700Y-88389800D01*
%TO.N,Net-(U2-FMI)*%
X138130700Y-91491500D02*
X132899900Y-91491500D01*
X132899900Y-91491500D02*
X132198800Y-92192600D01*
%TO.N,AMI*%
X108430700Y-104016500D02*
X108430700Y-98373200D01*
X108430700Y-98373200D02*
X110430700Y-96373200D01*
X110430700Y-95396500D02*
X110430700Y-96373200D01*
%TO.N,Net-(U2-AMI)*%
X132314300Y-84526300D02*
X136124100Y-80716500D01*
X136124100Y-80716500D02*
X136124100Y-79663200D01*
X138569500Y-79560200D02*
X138569500Y-88512700D01*
X132314300Y-89876100D02*
X132314300Y-84526300D01*
X137916100Y-78906800D02*
X138569500Y-79560200D01*
X138569500Y-88512700D02*
X138130700Y-88951500D01*
X136880500Y-78906800D02*
X137916100Y-78906800D01*
X136124100Y-79663200D02*
X136880500Y-78906800D01*
%TO.N,RCLK*%
X158786300Y-80086500D02*
X157634600Y-80086500D01*
X157634600Y-80395300D02*
X146049000Y-91980900D01*
X146049000Y-91980900D02*
X145618100Y-92411800D01*
X147048000Y-92980000D02*
X147048000Y-99319200D01*
X157634600Y-80086500D02*
X157634600Y-80395300D01*
X145618100Y-92411800D02*
X144948600Y-92411800D01*
X147048000Y-99319200D02*
X141110700Y-105256500D01*
X143330700Y-92761500D02*
X144232400Y-92761500D01*
X144948600Y-92411800D02*
X144598900Y-92761500D01*
X144598900Y-92761500D02*
X144232400Y-92761500D01*
X146049000Y-91980900D02*
X147048000Y-92980000D01*
%TO.N,9V*%
X155840700Y-88282700D02*
X155840700Y-85146500D01*
X160400700Y-92554800D02*
X160112800Y-92554800D01*
X160400700Y-93706500D02*
X160400700Y-92554800D01*
X160112800Y-92554800D02*
X155840700Y-88282700D01*
%TO.N,DOUT*%
X148157800Y-78903700D02*
X147414800Y-79646700D01*
X138130700Y-95936500D02*
X139032400Y-95936500D01*
X147414800Y-79646700D02*
X147414800Y-82283800D01*
X147414800Y-82283800D02*
X140236700Y-89461900D01*
X150014600Y-80086500D02*
X150014600Y-79798600D01*
X149119700Y-78903700D02*
X148157800Y-78903700D01*
X151166300Y-80086500D02*
X150014600Y-80086500D01*
X140236700Y-95112200D02*
X139648800Y-95700100D01*
X139648800Y-95700100D02*
X139268800Y-95700100D01*
X150014600Y-79798600D02*
X149119700Y-78903700D01*
X140236700Y-89461900D02*
X140236700Y-95112200D01*
X139268800Y-95700100D02*
X139032400Y-95936500D01*
%TO.N,DFS*%
X152554600Y-79800500D02*
X151250500Y-78496400D01*
X139835000Y-81669500D02*
X139835000Y-94945900D01*
X139835000Y-94945900D02*
X139482500Y-95298400D01*
X138130700Y-95301500D02*
X139032400Y-95301500D01*
X151250500Y-78496400D02*
X143008100Y-78496400D01*
X139035500Y-95298400D02*
X139032400Y-95301500D01*
X152554600Y-80086500D02*
X152554600Y-79800500D01*
X143008100Y-78496400D02*
X139835000Y-81669500D01*
X153706300Y-80086500D02*
X152554600Y-80086500D01*
X139482500Y-95298400D02*
X139035500Y-95298400D01*
%TO.N,GPIO2*%
X138130700Y-94031500D02*
X139032400Y-94031500D01*
X139032400Y-81881300D02*
X142836700Y-78077000D01*
X153353600Y-78077000D02*
X155094600Y-79818000D01*
X142836700Y-78077000D02*
X153353600Y-78077000D01*
X156246300Y-80086500D02*
X155094600Y-80086500D01*
X155094600Y-79818000D02*
X155094600Y-80086500D01*
X139032400Y-94031500D02*
X139032400Y-81881300D01*
%TO.N,SDA1*%
X144995400Y-89072300D02*
X145342600Y-89419500D01*
X144232400Y-92126500D02*
X143330700Y-92126500D01*
X145342600Y-91016300D02*
X144232400Y-92126500D01*
X145342600Y-89419500D02*
X145342600Y-91016300D01*
X145342600Y-89419500D02*
X144995400Y-89072300D01*
%TO.N,SCL1*%
X142674900Y-91491500D02*
X143330700Y-91491500D01*
X125898000Y-88345900D02*
X125204300Y-87652200D01*
X141783800Y-93242800D02*
X141513200Y-92972200D01*
X125204300Y-87652200D02*
X125898000Y-88345900D01*
X141783800Y-92382600D02*
X142674900Y-91491500D01*
X141783800Y-93242800D02*
X141783800Y-92382600D01*
X122154100Y-84602000D02*
X125204300Y-87652200D01*
X141513200Y-92972200D02*
X141783800Y-93242800D01*
X122154100Y-80086500D02*
X122154100Y-84602000D01*
%TO.N,SEN*%
X140638400Y-95278500D02*
X139815100Y-96101800D01*
X142429000Y-90856500D02*
X140638400Y-92647100D01*
X143330700Y-90856500D02*
X142429000Y-90856500D01*
X139815100Y-96101800D02*
X139450300Y-96101800D01*
X137400000Y-96473700D02*
X133550700Y-92624400D01*
X139078400Y-96473700D02*
X137400000Y-96473700D01*
X139450300Y-96101800D02*
X139078400Y-96473700D01*
X140638400Y-92647100D02*
X140638400Y-95278500D01*
X133550700Y-92624400D02*
X133550700Y-92496500D01*
%TO.N,Net-(U2-GPO3{slash}(DCLK))*%
X139062600Y-94696700D02*
X139032400Y-94666500D01*
X138130700Y-94666500D02*
X139032400Y-94666500D01*
X139233300Y-94696700D02*
X139062600Y-94696700D01*
%TO.N,Net-(U2-~{RST})*%
X141980600Y-88568800D02*
X141980600Y-89814000D01*
X141980600Y-89814000D02*
X142388100Y-90221500D01*
X142388100Y-90221500D02*
X143330700Y-90221500D01*
X142264300Y-88285100D02*
X141980600Y-88568800D01*
%TD*%
%TA.AperFunction,NonConductor*%
G36*
X153040066Y-78697185D02*
G01*
X153085821Y-78749989D01*
X153095765Y-78819147D01*
X153066740Y-78882703D01*
X153032473Y-78908566D01*
X153033161Y-78909757D01*
X153028469Y-78912465D01*
X152834894Y-79048008D01*
X152834893Y-79048008D01*
X152830788Y-79052113D01*
X152769461Y-79085591D01*
X152699770Y-79080597D01*
X152655437Y-79052102D01*
X152492516Y-78889181D01*
X152459031Y-78827858D01*
X152464015Y-78758166D01*
X152505887Y-78702233D01*
X152571351Y-78677816D01*
X152580197Y-78677500D01*
X152973027Y-78677500D01*
X153040066Y-78697185D01*
G37*
%TD.AperFunction*%
%TA.AperFunction,NonConductor*%
G36*
X133668955Y-80753046D02*
G01*
X133685675Y-80772342D01*
X133815600Y-80957895D01*
X133815605Y-80957901D01*
X133982699Y-81124995D01*
X134072919Y-81188168D01*
X134176265Y-81260532D01*
X134176267Y-81260533D01*
X134176270Y-81260535D01*
X134390437Y-81360403D01*
X134390441Y-81360404D01*
X134393973Y-81362051D01*
X134446412Y-81408223D01*
X134465564Y-81475417D01*
X134445348Y-81542298D01*
X134429249Y-81562114D01*
X131945586Y-84045778D01*
X131833781Y-84157582D01*
X131833779Y-84157585D01*
X131816539Y-84187446D01*
X131790075Y-84233284D01*
X131754723Y-84294515D01*
X131713799Y-84447243D01*
X131713799Y-84447245D01*
X131713799Y-84615346D01*
X131713800Y-84615359D01*
X131713800Y-87095613D01*
X131694115Y-87162652D01*
X131641311Y-87208407D01*
X131572153Y-87218351D01*
X131508597Y-87189326D01*
X131484807Y-87161586D01*
X131454734Y-87113727D01*
X131438216Y-87087438D01*
X131438215Y-87087437D01*
X131435950Y-87084596D01*
X131435059Y-87082413D01*
X131434512Y-87081543D01*
X131434664Y-87081447D01*
X131409544Y-87019909D01*
X131408900Y-87007287D01*
X131408900Y-82193445D01*
X131408900Y-82193443D01*
X131376194Y-82071384D01*
X131367977Y-82040715D01*
X131364715Y-82035065D01*
X131321582Y-81960357D01*
X131288920Y-81903784D01*
X131177116Y-81791980D01*
X131172785Y-81787649D01*
X131172774Y-81787639D01*
X130665496Y-81280361D01*
X130632011Y-81219038D01*
X130636995Y-81149346D01*
X130665492Y-81105003D01*
X130812595Y-80957901D01*
X130942526Y-80772341D01*
X130997102Y-80728717D01*
X131066600Y-80721523D01*
X131128955Y-80753046D01*
X131145675Y-80772342D01*
X131275600Y-80957895D01*
X131275605Y-80957901D01*
X131442699Y-81124995D01*
X131532919Y-81188168D01*
X131636265Y-81260532D01*
X131636267Y-81260533D01*
X131636270Y-81260535D01*
X131850437Y-81360403D01*
X132078692Y-81421563D01*
X132255134Y-81437000D01*
X132314099Y-81442159D01*
X132314100Y-81442159D01*
X132314101Y-81442159D01*
X132373066Y-81437000D01*
X132549508Y-81421563D01*
X132777763Y-81360403D01*
X132991930Y-81260535D01*
X133185501Y-81124995D01*
X133352595Y-80957901D01*
X133482526Y-80772341D01*
X133537102Y-80728717D01*
X133606600Y-80721523D01*
X133668955Y-80753046D01*
G37*
%TD.AperFunction*%
%TA.AperFunction,NonConductor*%
G36*
X142115134Y-80341113D02*
G01*
X142171067Y-80382985D01*
X142195484Y-80448449D01*
X142195800Y-80457295D01*
X142195800Y-80984370D01*
X142195801Y-80984376D01*
X142202208Y-81043983D01*
X142252502Y-81178828D01*
X142252506Y-81178835D01*
X142338752Y-81294044D01*
X142338755Y-81294047D01*
X142453964Y-81380293D01*
X142453971Y-81380297D01*
X142588817Y-81430591D01*
X142588816Y-81430591D01*
X142595744Y-81431335D01*
X142648427Y-81437000D01*
X144444172Y-81436999D01*
X144503783Y-81430591D01*
X144638631Y-81380296D01*
X144753846Y-81294046D01*
X144840096Y-81178831D01*
X144889110Y-81047416D01*
X144930981Y-80991484D01*
X144996445Y-80967066D01*
X145064718Y-80981917D01*
X145092973Y-81003069D01*
X145214899Y-81124995D01*
X145305119Y-81188168D01*
X145408465Y-81260532D01*
X145408467Y-81260533D01*
X145408470Y-81260535D01*
X145622637Y-81360403D01*
X145850892Y-81421563D01*
X146027334Y-81437000D01*
X146086299Y-81442159D01*
X146086300Y-81442159D01*
X146086301Y-81442159D01*
X146145266Y-81437000D01*
X146321708Y-81421563D01*
X146549963Y-81360403D01*
X146637896Y-81319398D01*
X146706972Y-81308907D01*
X146770756Y-81337426D01*
X146808996Y-81395903D01*
X146814300Y-81431781D01*
X146814300Y-81983703D01*
X146794615Y-82050742D01*
X146777981Y-82071384D01*
X140647181Y-88202184D01*
X140585858Y-88235669D01*
X140516166Y-88230685D01*
X140460233Y-88188813D01*
X140435816Y-88123349D01*
X140435500Y-88114503D01*
X140435500Y-81969596D01*
X140455185Y-81902557D01*
X140471814Y-81881920D01*
X141984121Y-80369612D01*
X142045442Y-80336129D01*
X142115134Y-80341113D01*
G37*
%TD.AperFunction*%
%TA.AperFunction,NonConductor*%
G36*
X147945134Y-82705216D02*
G01*
X148001067Y-82747088D01*
X148025484Y-82812552D01*
X148025800Y-82821398D01*
X148025800Y-84257502D01*
X148006115Y-84324541D01*
X147989481Y-84345183D01*
X144115412Y-88219251D01*
X144054089Y-88252736D01*
X144014479Y-88254860D01*
X143985469Y-88251741D01*
X143978573Y-88251000D01*
X143978572Y-88251000D01*
X143176836Y-88251000D01*
X143109797Y-88231315D01*
X143064042Y-88178511D01*
X143053616Y-88140882D01*
X143049669Y-88105847D01*
X143006543Y-87982602D01*
X142990089Y-87935578D01*
X142896901Y-87787270D01*
X142877901Y-87720036D01*
X142898268Y-87653201D01*
X142914209Y-87633624D01*
X147773306Y-82774528D01*
X147773311Y-82774524D01*
X147783514Y-82764320D01*
X147783516Y-82764320D01*
X147814119Y-82733717D01*
X147875442Y-82700232D01*
X147945134Y-82705216D01*
G37*
%TD.AperFunction*%
%TA.AperFunction,NonConductor*%
G36*
X131670043Y-87989250D02*
G01*
X131708415Y-88047639D01*
X131713800Y-88083786D01*
X131713800Y-89293687D01*
X131694115Y-89360726D01*
X131686750Y-89370996D01*
X131684484Y-89373837D01*
X131637893Y-89447986D01*
X131585559Y-89494276D01*
X131516505Y-89504924D01*
X131452657Y-89476549D01*
X131414285Y-89418159D01*
X131408900Y-89382013D01*
X131408900Y-88172112D01*
X131428585Y-88105073D01*
X131435955Y-88094797D01*
X131438210Y-88091967D01*
X131438216Y-88091962D01*
X131484806Y-88017813D01*
X131537141Y-87971523D01*
X131606194Y-87960875D01*
X131670043Y-87989250D01*
G37*
%TD.AperFunction*%
%TA.AperFunction,NonConductor*%
G36*
X134780433Y-83011915D02*
G01*
X134836366Y-83053787D01*
X134860783Y-83119251D01*
X134861099Y-83128097D01*
X134861099Y-83259746D01*
X134861100Y-83259759D01*
X134861100Y-89772000D01*
X134841415Y-89839039D01*
X134788611Y-89884794D01*
X134737100Y-89896000D01*
X134631994Y-89896000D01*
X134564955Y-89876315D01*
X134533040Y-89846727D01*
X134523710Y-89834372D01*
X134423127Y-89701178D01*
X134262132Y-89554412D01*
X134262128Y-89554409D01*
X134262123Y-89554406D01*
X134076913Y-89439729D01*
X134076907Y-89439726D01*
X133955742Y-89392787D01*
X133873769Y-89361030D01*
X133659626Y-89321000D01*
X133441774Y-89321000D01*
X133227631Y-89361030D01*
X133157475Y-89388209D01*
X133088173Y-89415057D01*
X133018549Y-89420919D01*
X132956809Y-89388209D01*
X132946425Y-89376734D01*
X132941846Y-89370991D01*
X132915443Y-89306301D01*
X132914800Y-89293687D01*
X132914800Y-84826396D01*
X132934485Y-84759357D01*
X132951114Y-84738720D01*
X134649419Y-83040415D01*
X134710741Y-83006931D01*
X134780433Y-83011915D01*
G37*
%TD.AperFunction*%
%TA.AperFunction,NonConductor*%
G36*
X137888334Y-81695715D02*
G01*
X137944267Y-81737587D01*
X137968684Y-81803051D01*
X137969000Y-81811897D01*
X137969000Y-88127000D01*
X137949315Y-88194039D01*
X137896511Y-88239794D01*
X137845000Y-88251000D01*
X137482830Y-88251000D01*
X137482823Y-88251001D01*
X137423216Y-88257408D01*
X137288371Y-88307702D01*
X137288364Y-88307706D01*
X137173155Y-88393952D01*
X137173152Y-88393955D01*
X137086906Y-88509164D01*
X137086902Y-88509171D01*
X137036610Y-88644013D01*
X137036609Y-88644017D01*
X137030200Y-88703627D01*
X137030200Y-88703634D01*
X137030200Y-88703635D01*
X137030200Y-89199370D01*
X137030201Y-89199376D01*
X137036261Y-89255749D01*
X137036261Y-89282253D01*
X137030200Y-89338627D01*
X137030200Y-89338632D01*
X137030200Y-89338633D01*
X137030200Y-89834370D01*
X137030201Y-89834376D01*
X137036261Y-89890749D01*
X137036261Y-89917253D01*
X137030200Y-89973627D01*
X137030200Y-90095904D01*
X137030201Y-90131999D01*
X137010517Y-90199039D01*
X136957713Y-90244794D01*
X136906201Y-90256000D01*
X136186100Y-90256000D01*
X136119061Y-90236315D01*
X136073306Y-90183511D01*
X136062100Y-90132000D01*
X136062100Y-83470797D01*
X136081785Y-83403758D01*
X136098419Y-83383116D01*
X136965951Y-82515584D01*
X137757321Y-81724214D01*
X137818642Y-81690731D01*
X137888334Y-81695715D01*
G37*
%TD.AperFunction*%
%TA.AperFunction,NonConductor*%
G36*
X144640169Y-89810333D02*
G01*
X144654407Y-89828856D01*
X144707917Y-89914017D01*
X144712785Y-89921763D01*
X144715045Y-89924597D01*
X144715934Y-89926775D01*
X144716489Y-89927658D01*
X144716334Y-89927755D01*
X144741455Y-89989283D01*
X144742100Y-90001912D01*
X144742100Y-90716202D01*
X144722415Y-90783241D01*
X144705781Y-90803883D01*
X144642880Y-90866784D01*
X144581557Y-90900269D01*
X144511865Y-90895285D01*
X144455932Y-90853413D01*
X144431515Y-90787949D01*
X144431199Y-90779103D01*
X144431199Y-90608629D01*
X144431197Y-90608610D01*
X144425139Y-90552255D01*
X144425139Y-90525744D01*
X144427271Y-90505915D01*
X144431200Y-90469373D01*
X144431199Y-89973628D01*
X144425139Y-89917254D01*
X144425139Y-89890745D01*
X144426125Y-89881574D01*
X144452863Y-89817023D01*
X144510255Y-89777175D01*
X144580080Y-89774681D01*
X144640169Y-89810333D01*
G37*
%TD.AperFunction*%
%TA.AperFunction,NonConductor*%
G36*
X155061154Y-80753044D02*
G01*
X155077872Y-80772338D01*
X155207805Y-80957901D01*
X155374899Y-81124995D01*
X155465119Y-81188168D01*
X155568465Y-81260532D01*
X155568466Y-81260532D01*
X155568470Y-81260535D01*
X155635299Y-81291698D01*
X155647797Y-81297526D01*
X155700236Y-81343699D01*
X155719388Y-81410892D01*
X155699172Y-81477773D01*
X155683073Y-81497589D01*
X146154782Y-91025881D01*
X146093459Y-91059366D01*
X146023767Y-91054382D01*
X145967834Y-91012510D01*
X145943417Y-90947046D01*
X145943101Y-90938200D01*
X145943101Y-90929648D01*
X145943100Y-90929630D01*
X145943100Y-90001912D01*
X145962785Y-89934873D01*
X145970155Y-89924597D01*
X145972410Y-89921767D01*
X145972416Y-89921762D01*
X146068389Y-89769022D01*
X146127968Y-89598755D01*
X146132964Y-89554413D01*
X146148165Y-89419503D01*
X146148165Y-89419496D01*
X146127969Y-89240250D01*
X146127968Y-89240245D01*
X146080987Y-89105981D01*
X146068389Y-89069978D01*
X146061044Y-89058289D01*
X145972415Y-88917237D01*
X145844862Y-88789684D01*
X145692121Y-88693710D01*
X145644995Y-88677220D01*
X145617115Y-88667465D01*
X145560341Y-88626745D01*
X145534593Y-88561792D01*
X145548049Y-88493230D01*
X145570387Y-88462746D01*
X148984806Y-85048328D01*
X148984811Y-85048324D01*
X148995014Y-85038120D01*
X148995016Y-85038120D01*
X149106820Y-84926316D01*
X149175254Y-84807784D01*
X149185877Y-84789385D01*
X149226801Y-84636657D01*
X149226801Y-84478543D01*
X149226801Y-84470948D01*
X149226800Y-84470930D01*
X149226800Y-81375590D01*
X149246485Y-81308551D01*
X149298401Y-81263206D01*
X149304130Y-81260535D01*
X149497701Y-81124995D01*
X149664795Y-80957901D01*
X149794727Y-80772338D01*
X149849300Y-80728716D01*
X149918799Y-80721522D01*
X149981154Y-80753044D01*
X149997872Y-80772338D01*
X150127805Y-80957901D01*
X150294899Y-81124995D01*
X150385119Y-81188168D01*
X150488465Y-81260532D01*
X150488467Y-81260533D01*
X150488470Y-81260535D01*
X150702637Y-81360403D01*
X150930892Y-81421563D01*
X151107334Y-81437000D01*
X151166299Y-81442159D01*
X151166300Y-81442159D01*
X151166301Y-81442159D01*
X151225266Y-81437000D01*
X151401708Y-81421563D01*
X151629963Y-81360403D01*
X151844130Y-81260535D01*
X152037701Y-81124995D01*
X152204795Y-80957901D01*
X152334727Y-80772338D01*
X152389300Y-80728716D01*
X152458799Y-80721522D01*
X152521154Y-80753044D01*
X152537872Y-80772338D01*
X152667805Y-80957901D01*
X152834899Y-81124995D01*
X152925119Y-81188168D01*
X153028465Y-81260532D01*
X153028467Y-81260533D01*
X153028470Y-81260535D01*
X153242637Y-81360403D01*
X153470892Y-81421563D01*
X153647334Y-81437000D01*
X153706299Y-81442159D01*
X153706300Y-81442159D01*
X153706301Y-81442159D01*
X153765266Y-81437000D01*
X153941708Y-81421563D01*
X154169963Y-81360403D01*
X154384130Y-81260535D01*
X154577701Y-81124995D01*
X154744795Y-80957901D01*
X154874727Y-80772338D01*
X154929300Y-80728716D01*
X154998799Y-80721522D01*
X155061154Y-80753044D01*
G37*
%TD.AperFunction*%
%TA.AperFunction,NonConductor*%
G36*
X141299434Y-89350915D02*
G01*
X141355367Y-89392787D01*
X141379784Y-89458251D01*
X141380100Y-89467097D01*
X141380100Y-89727330D01*
X141380099Y-89727348D01*
X141380099Y-89893054D01*
X141380098Y-89893054D01*
X141421023Y-90045785D01*
X141449958Y-90095900D01*
X141449959Y-90095904D01*
X141449960Y-90095904D01*
X141500079Y-90182714D01*
X141500081Y-90182717D01*
X141618949Y-90301585D01*
X141618955Y-90301590D01*
X141789133Y-90471768D01*
X141822618Y-90533091D01*
X141817634Y-90602783D01*
X141789133Y-90647130D01*
X141048881Y-91387382D01*
X140987558Y-91420867D01*
X140917866Y-91415883D01*
X140861933Y-91374011D01*
X140837516Y-91308547D01*
X140837200Y-91299701D01*
X140837200Y-89761997D01*
X140856885Y-89694958D01*
X140873519Y-89674316D01*
X141168419Y-89379416D01*
X141229742Y-89345931D01*
X141299434Y-89350915D01*
G37*
%TD.AperFunction*%
%TA.AperFunction,NonConductor*%
G36*
X131614103Y-90276473D02*
G01*
X131637892Y-90304212D01*
X131684484Y-90378362D01*
X131812038Y-90505916D01*
X131843594Y-90525744D01*
X131944298Y-90589021D01*
X131964778Y-90601889D01*
X132135045Y-90661468D01*
X132135050Y-90661469D01*
X132300817Y-90680146D01*
X132365231Y-90707212D01*
X132404786Y-90764807D01*
X132406200Y-90769432D01*
X132449880Y-90922954D01*
X132449885Y-90922965D01*
X132466399Y-90956130D01*
X132478660Y-91024915D01*
X132451787Y-91089410D01*
X132443082Y-91099080D01*
X132419381Y-91122782D01*
X132419378Y-91122786D01*
X132180265Y-91361898D01*
X132118942Y-91395383D01*
X132106468Y-91397437D01*
X132019550Y-91407230D01*
X131849277Y-91466810D01*
X131700972Y-91559997D01*
X131633735Y-91578997D01*
X131566900Y-91558629D01*
X131547319Y-91542684D01*
X131445219Y-91440584D01*
X131411734Y-91379261D01*
X131408900Y-91352903D01*
X131408900Y-90370186D01*
X131428585Y-90303147D01*
X131481389Y-90257392D01*
X131550547Y-90247448D01*
X131614103Y-90276473D01*
G37*
%TD.AperFunction*%
%TA.AperFunction,NonConductor*%
G36*
X136973239Y-92111685D02*
G01*
X137018994Y-92164489D01*
X137030200Y-92215999D01*
X137030200Y-92374369D01*
X137030201Y-92374376D01*
X137036261Y-92430749D01*
X137036261Y-92457253D01*
X137030200Y-92513627D01*
X137030200Y-92513632D01*
X137030200Y-92513633D01*
X137030200Y-93009370D01*
X137030201Y-93009376D01*
X137036261Y-93065749D01*
X137036261Y-93092253D01*
X137030200Y-93148627D01*
X137030200Y-93148632D01*
X137030200Y-93148633D01*
X137030200Y-93644370D01*
X137030201Y-93644376D01*
X137036261Y-93700749D01*
X137036261Y-93727253D01*
X137030200Y-93783627D01*
X137030200Y-93783632D01*
X137030200Y-93783633D01*
X137030200Y-94279370D01*
X137030201Y-94279376D01*
X137036261Y-94335749D01*
X137036261Y-94362253D01*
X137030200Y-94418627D01*
X137030200Y-94418632D01*
X137030200Y-94418633D01*
X137030200Y-94914370D01*
X137030201Y-94914376D01*
X137033620Y-94946180D01*
X137021213Y-95014939D01*
X136973602Y-95066076D01*
X136905902Y-95083354D01*
X136839608Y-95061288D01*
X136822649Y-95047114D01*
X134713449Y-92937914D01*
X134679964Y-92876591D01*
X134681864Y-92816298D01*
X134699800Y-92753261D01*
X134711135Y-92713423D01*
X134731236Y-92496500D01*
X134727599Y-92457256D01*
X134711135Y-92279577D01*
X134711134Y-92279574D01*
X134702701Y-92249934D01*
X134703288Y-92180067D01*
X134741554Y-92121608D01*
X134805352Y-92093118D01*
X134821967Y-92092000D01*
X136906200Y-92092000D01*
X136973239Y-92111685D01*
G37*
%TD.AperFunction*%
%TA.AperFunction,NonConductor*%
G36*
X145756398Y-93693461D02*
G01*
X145793294Y-93731115D01*
X145816385Y-93767864D01*
X145818645Y-93770697D01*
X145819533Y-93772874D01*
X145820088Y-93773756D01*
X145819933Y-93773853D01*
X145845055Y-93835383D01*
X145845700Y-93848012D01*
X145845700Y-96404002D01*
X145826015Y-96471041D01*
X145809381Y-96491683D01*
X145768781Y-96532283D01*
X145707458Y-96565768D01*
X145637766Y-96560784D01*
X145581833Y-96518912D01*
X145557416Y-96453448D01*
X145557100Y-96444602D01*
X145557100Y-93801614D01*
X145576785Y-93734575D01*
X145615123Y-93696623D01*
X145622328Y-93692096D01*
X145689562Y-93673095D01*
X145756398Y-93693461D01*
G37*
%TD.AperFunction*%
%TA.AperFunction,NonConductor*%
G36*
X143574939Y-96656684D02*
G01*
X143620694Y-96709488D01*
X143631900Y-96760999D01*
X143631900Y-97143802D01*
X143612215Y-97210841D01*
X143595581Y-97231483D01*
X143276365Y-97550698D01*
X143215042Y-97584183D01*
X143202570Y-97586237D01*
X143167386Y-97590202D01*
X143098564Y-97578149D01*
X143047184Y-97530801D01*
X143029500Y-97466982D01*
X143029500Y-96760999D01*
X143049185Y-96693960D01*
X143101989Y-96648205D01*
X143153500Y-96636999D01*
X143507900Y-96636999D01*
X143574939Y-96656684D01*
G37*
%TD.AperFunction*%
%TA.AperFunction,NonConductor*%
G36*
X113988999Y-77990185D02*
G01*
X114034754Y-78042989D01*
X114044698Y-78112147D01*
X114015673Y-78175703D01*
X114006844Y-78184892D01*
X113816652Y-78363494D01*
X113624111Y-78596236D01*
X113462268Y-78851261D01*
X113462265Y-78851267D01*
X113333661Y-79124563D01*
X113333659Y-79124568D01*
X113240320Y-79411835D01*
X113240319Y-79411839D01*
X113240319Y-79411840D01*
X113234802Y-79440760D01*
X113183719Y-79708546D01*
X113183718Y-79708553D01*
X113164754Y-80009994D01*
X113164754Y-80010005D01*
X113183718Y-80311446D01*
X113183719Y-80311453D01*
X113240320Y-80608164D01*
X113333659Y-80895431D01*
X113333661Y-80895436D01*
X113462265Y-81168732D01*
X113462268Y-81168738D01*
X113624111Y-81423763D01*
X113624114Y-81423767D01*
X113624115Y-81423768D01*
X113816651Y-81656504D01*
X113997557Y-81826387D01*
X114036836Y-81863272D01*
X114036846Y-81863280D01*
X114281193Y-82040808D01*
X114281198Y-82040810D01*
X114281205Y-82040816D01*
X114545896Y-82186332D01*
X114545901Y-82186334D01*
X114545903Y-82186335D01*
X114545904Y-82186336D01*
X114826734Y-82297524D01*
X114826737Y-82297525D01*
X114924259Y-82322564D01*
X115119302Y-82372642D01*
X115266039Y-82391179D01*
X115418963Y-82410499D01*
X115418969Y-82410499D01*
X115418973Y-82410500D01*
X115418975Y-82410500D01*
X115721025Y-82410500D01*
X115721027Y-82410500D01*
X115721032Y-82410499D01*
X115721036Y-82410499D01*
X115800591Y-82400448D01*
X116020698Y-82372642D01*
X116313262Y-82297525D01*
X116313265Y-82297524D01*
X116594095Y-82186336D01*
X116594096Y-82186335D01*
X116594094Y-82186335D01*
X116594104Y-82186332D01*
X116858795Y-82040816D01*
X117103162Y-81863274D01*
X117323349Y-81656504D01*
X117515885Y-81423768D01*
X117677733Y-81168736D01*
X117806341Y-80895430D01*
X117899681Y-80608160D01*
X117956280Y-80311457D01*
X117975246Y-80010000D01*
X117965248Y-79851092D01*
X117956281Y-79708553D01*
X117956280Y-79708546D01*
X117956280Y-79708543D01*
X117899681Y-79411840D01*
X117806341Y-79124570D01*
X117793320Y-79096900D01*
X117706532Y-78912465D01*
X117677733Y-78851264D01*
X117640570Y-78792704D01*
X117515888Y-78596236D01*
X117515885Y-78596232D01*
X117323349Y-78363496D01*
X117171843Y-78221222D01*
X117133156Y-78184892D01*
X117097761Y-78124651D01*
X117100555Y-78054837D01*
X117140648Y-77997616D01*
X117205314Y-77971155D01*
X117218040Y-77970500D01*
X141794602Y-77970500D01*
X141861641Y-77990185D01*
X141907396Y-78042989D01*
X141917340Y-78112147D01*
X141888315Y-78175703D01*
X141882283Y-78182181D01*
X139381681Y-80682783D01*
X139320358Y-80716268D01*
X139250666Y-80711284D01*
X139194733Y-80669412D01*
X139170316Y-80603948D01*
X139170000Y-80595102D01*
X139170000Y-79481145D01*
X139169999Y-79481141D01*
X139156676Y-79431416D01*
X139129077Y-79328415D01*
X139065040Y-79217500D01*
X139050020Y-79191484D01*
X138938216Y-79079680D01*
X138938215Y-79079679D01*
X138933885Y-79075349D01*
X138933874Y-79075339D01*
X138403690Y-78545155D01*
X138403688Y-78545152D01*
X138284817Y-78426281D01*
X138284816Y-78426280D01*
X138176070Y-78363496D01*
X138176069Y-78363495D01*
X138147883Y-78347222D01*
X138091981Y-78332243D01*
X137995157Y-78306299D01*
X137837043Y-78306299D01*
X137829447Y-78306299D01*
X137829431Y-78306300D01*
X136959557Y-78306300D01*
X136801443Y-78306300D01*
X136648715Y-78347223D01*
X136626485Y-78360057D01*
X136620528Y-78363497D01*
X136620527Y-78363496D01*
X136511787Y-78426277D01*
X136511782Y-78426281D01*
X136399978Y-78538086D01*
X135895323Y-79042740D01*
X135834000Y-79076225D01*
X135764308Y-79071241D01*
X135727935Y-79050047D01*
X135725501Y-79048004D01*
X135531934Y-78912467D01*
X135531930Y-78912465D01*
X135468105Y-78882703D01*
X135317763Y-78812597D01*
X135317759Y-78812596D01*
X135317755Y-78812594D01*
X135089513Y-78751438D01*
X135089503Y-78751436D01*
X134854101Y-78730841D01*
X134854099Y-78730841D01*
X134618696Y-78751436D01*
X134618686Y-78751438D01*
X134390444Y-78812594D01*
X134390435Y-78812598D01*
X134176271Y-78912464D01*
X134176269Y-78912465D01*
X133982697Y-79048005D01*
X133815605Y-79215097D01*
X133685675Y-79400658D01*
X133631098Y-79444283D01*
X133561600Y-79451477D01*
X133499245Y-79419954D01*
X133482525Y-79400658D01*
X133352594Y-79215097D01*
X133185502Y-79048006D01*
X133185499Y-79048004D01*
X133108618Y-78994171D01*
X132991934Y-78912467D01*
X132991930Y-78912465D01*
X132928105Y-78882703D01*
X132777763Y-78812597D01*
X132777759Y-78812596D01*
X132777755Y-78812594D01*
X132549513Y-78751438D01*
X132549503Y-78751436D01*
X132314101Y-78730841D01*
X132314099Y-78730841D01*
X132078696Y-78751436D01*
X132078686Y-78751438D01*
X131850444Y-78812594D01*
X131850435Y-78812598D01*
X131636271Y-78912464D01*
X131636269Y-78912465D01*
X131442697Y-79048005D01*
X131275605Y-79215097D01*
X131145675Y-79400658D01*
X131091098Y-79444283D01*
X131021600Y-79451477D01*
X130959245Y-79419954D01*
X130942525Y-79400658D01*
X130812594Y-79215097D01*
X130645502Y-79048006D01*
X130645499Y-79048004D01*
X130568618Y-78994171D01*
X130451934Y-78912467D01*
X130451930Y-78912465D01*
X130388105Y-78882703D01*
X130237763Y-78812597D01*
X130237759Y-78812596D01*
X130237755Y-78812594D01*
X130009513Y-78751438D01*
X130009503Y-78751436D01*
X129774101Y-78730841D01*
X129774099Y-78730841D01*
X129538696Y-78751436D01*
X129538686Y-78751438D01*
X129310444Y-78812594D01*
X129310435Y-78812598D01*
X129096271Y-78912464D01*
X129096269Y-78912465D01*
X128902697Y-79048005D01*
X128735605Y-79215097D01*
X128605675Y-79400658D01*
X128551098Y-79444283D01*
X128481600Y-79451477D01*
X128419245Y-79419954D01*
X128402525Y-79400658D01*
X128272594Y-79215097D01*
X128105502Y-79048006D01*
X128105499Y-79048004D01*
X128028618Y-78994171D01*
X127911934Y-78912467D01*
X127911930Y-78912465D01*
X127848105Y-78882703D01*
X127697763Y-78812597D01*
X127697759Y-78812596D01*
X127697755Y-78812594D01*
X127469513Y-78751438D01*
X127469503Y-78751436D01*
X127234101Y-78730841D01*
X127234099Y-78730841D01*
X126998696Y-78751436D01*
X126998686Y-78751438D01*
X126770444Y-78812594D01*
X126770435Y-78812598D01*
X126556271Y-78912464D01*
X126556269Y-78912465D01*
X126362697Y-79048005D01*
X126195605Y-79215097D01*
X126065675Y-79400658D01*
X126011098Y-79444283D01*
X125941600Y-79451477D01*
X125879245Y-79419954D01*
X125862525Y-79400658D01*
X125732594Y-79215097D01*
X125565502Y-79048006D01*
X125565499Y-79048004D01*
X125488618Y-78994171D01*
X125371934Y-78912467D01*
X125371930Y-78912465D01*
X125308105Y-78882703D01*
X125157763Y-78812597D01*
X125157759Y-78812596D01*
X125157755Y-78812594D01*
X124929513Y-78751438D01*
X124929503Y-78751436D01*
X124694101Y-78730841D01*
X124694099Y-78730841D01*
X124458696Y-78751436D01*
X124458686Y-78751438D01*
X124230444Y-78812594D01*
X124230435Y-78812598D01*
X124016271Y-78912464D01*
X124016269Y-78912465D01*
X123822700Y-79048003D01*
X123700773Y-79169930D01*
X123639450Y-79203414D01*
X123569758Y-79198430D01*
X123513825Y-79156558D01*
X123496910Y-79125581D01*
X123447897Y-78994171D01*
X123447893Y-78994164D01*
X123361647Y-78878955D01*
X123361644Y-78878952D01*
X123246435Y-78792706D01*
X123246428Y-78792702D01*
X123111582Y-78742408D01*
X123111583Y-78742408D01*
X123051983Y-78736001D01*
X123051981Y-78736000D01*
X123051973Y-78736000D01*
X123051964Y-78736000D01*
X121256229Y-78736000D01*
X121256223Y-78736001D01*
X121196616Y-78742408D01*
X121061771Y-78792702D01*
X121061764Y-78792706D01*
X120946555Y-78878952D01*
X120946552Y-78878955D01*
X120860306Y-78994164D01*
X120860302Y-78994171D01*
X120810008Y-79129017D01*
X120803601Y-79188616D01*
X120803600Y-79188635D01*
X120803600Y-80984370D01*
X120803601Y-80984376D01*
X120810008Y-81043983D01*
X120860302Y-81178828D01*
X120860306Y-81178835D01*
X120946552Y-81294044D01*
X120946555Y-81294047D01*
X121061764Y-81380293D01*
X121061771Y-81380297D01*
X121103614Y-81395903D01*
X121196617Y-81430591D01*
X121256227Y-81437000D01*
X121429600Y-81436999D01*
X121496639Y-81456683D01*
X121542394Y-81509487D01*
X121553600Y-81560999D01*
X121553600Y-84515330D01*
X121553599Y-84515348D01*
X121553599Y-84681054D01*
X121553598Y-84681054D01*
X121587553Y-84807776D01*
X121594523Y-84833785D01*
X121609806Y-84860256D01*
X121609807Y-84860258D01*
X121609808Y-84860258D01*
X121649220Y-84928523D01*
X121673579Y-84970714D01*
X121673581Y-84970717D01*
X121792449Y-85089585D01*
X121792455Y-85089590D01*
X124373598Y-87670733D01*
X124407083Y-87732056D01*
X124409137Y-87744530D01*
X124418930Y-87831449D01*
X124478510Y-88001721D01*
X124535213Y-88091963D01*
X124574484Y-88154462D01*
X124702038Y-88282016D01*
X124854778Y-88377989D01*
X125025045Y-88437568D01*
X125111969Y-88447361D01*
X125176380Y-88474426D01*
X125185765Y-88482900D01*
X125529284Y-88826419D01*
X125666215Y-88905477D01*
X125818943Y-88946401D01*
X125818946Y-88946401D01*
X125977054Y-88946401D01*
X125977057Y-88946401D01*
X126129785Y-88905477D01*
X126266716Y-88826419D01*
X126378519Y-88714616D01*
X126457577Y-88577685D01*
X126498501Y-88424957D01*
X126498501Y-88266843D01*
X126457577Y-88114115D01*
X126378519Y-87977184D01*
X126035000Y-87633665D01*
X126001515Y-87572342D01*
X125999463Y-87559886D01*
X125989668Y-87472945D01*
X125930089Y-87302678D01*
X125834116Y-87149938D01*
X125706562Y-87022384D01*
X125646068Y-86984373D01*
X125553821Y-86926410D01*
X125383549Y-86866830D01*
X125296630Y-86857037D01*
X125232216Y-86829970D01*
X125222833Y-86821498D01*
X122790919Y-84389584D01*
X122757434Y-84328261D01*
X122754600Y-84301903D01*
X122754600Y-81560999D01*
X122774285Y-81493960D01*
X122827089Y-81448205D01*
X122878600Y-81436999D01*
X123051971Y-81436999D01*
X123051972Y-81436999D01*
X123111583Y-81430591D01*
X123246431Y-81380296D01*
X123361646Y-81294046D01*
X123447896Y-81178831D01*
X123496910Y-81047416D01*
X123538781Y-80991484D01*
X123604245Y-80967066D01*
X123672518Y-80981917D01*
X123700773Y-81003069D01*
X123822699Y-81124995D01*
X123912919Y-81188168D01*
X124016265Y-81260532D01*
X124016267Y-81260533D01*
X124016270Y-81260535D01*
X124230437Y-81360403D01*
X124458692Y-81421563D01*
X124635134Y-81437000D01*
X124694099Y-81442159D01*
X124694100Y-81442159D01*
X124694101Y-81442159D01*
X124753066Y-81437000D01*
X124929508Y-81421563D01*
X125157763Y-81360403D01*
X125371930Y-81260535D01*
X125565501Y-81124995D01*
X125732595Y-80957901D01*
X125862526Y-80772341D01*
X125917102Y-80728717D01*
X125986600Y-80721523D01*
X126048955Y-80753046D01*
X126065675Y-80772342D01*
X126195600Y-80957895D01*
X126195605Y-80957901D01*
X126362699Y-81124995D01*
X126452919Y-81188168D01*
X126556265Y-81260532D01*
X126556267Y-81260533D01*
X126556270Y-81260535D01*
X126770437Y-81360403D01*
X126998692Y-81421563D01*
X127175134Y-81437000D01*
X127234099Y-81442159D01*
X127234100Y-81442159D01*
X127234101Y-81442159D01*
X127293066Y-81437000D01*
X127469508Y-81421563D01*
X127697763Y-81360403D01*
X127911930Y-81260535D01*
X128105501Y-81124995D01*
X128272595Y-80957901D01*
X128402526Y-80772341D01*
X128457102Y-80728717D01*
X128526600Y-80721523D01*
X128588955Y-80753046D01*
X128605675Y-80772342D01*
X128735600Y-80957895D01*
X128735605Y-80957901D01*
X128902699Y-81124995D01*
X128992919Y-81188168D01*
X129096265Y-81260532D01*
X129096267Y-81260533D01*
X129096270Y-81260535D01*
X129101994Y-81263204D01*
X129114868Y-81269208D01*
X129167307Y-81315381D01*
X129182237Y-81349494D01*
X129214523Y-81469986D01*
X129224399Y-81487090D01*
X129224400Y-81487093D01*
X129293575Y-81606909D01*
X129293581Y-81606917D01*
X129412449Y-81725785D01*
X129412455Y-81725790D01*
X130171581Y-82484916D01*
X130205066Y-82546239D01*
X130207900Y-82572597D01*
X130207900Y-87007287D01*
X130188215Y-87074326D01*
X130180850Y-87084596D01*
X130178586Y-87087434D01*
X130082611Y-87240176D01*
X130023031Y-87410445D01*
X130023030Y-87410450D01*
X130002835Y-87589696D01*
X130002835Y-87589703D01*
X130023030Y-87768949D01*
X130023031Y-87768954D01*
X130082611Y-87939223D01*
X130178585Y-88091963D01*
X130180845Y-88094797D01*
X130181734Y-88096975D01*
X130182289Y-88097858D01*
X130182134Y-88097955D01*
X130207255Y-88159483D01*
X130207900Y-88172112D01*
X130207900Y-91566330D01*
X130207899Y-91566348D01*
X130207899Y-91732054D01*
X130207898Y-91732054D01*
X130207899Y-91732057D01*
X130248823Y-91884785D01*
X130270578Y-91922465D01*
X130319543Y-92007276D01*
X130327879Y-92021714D01*
X130327881Y-92021717D01*
X130446749Y-92140585D01*
X130446755Y-92140590D01*
X132190339Y-93884174D01*
X132190349Y-93884185D01*
X132194679Y-93888515D01*
X132194680Y-93888516D01*
X132306484Y-94000320D01*
X132313196Y-94004195D01*
X132361413Y-94054759D01*
X132375200Y-94111584D01*
X132375200Y-95219370D01*
X132375201Y-95219376D01*
X132381608Y-95278983D01*
X132431902Y-95413828D01*
X132431906Y-95413835D01*
X132518152Y-95529044D01*
X132518155Y-95529047D01*
X132633364Y-95615293D01*
X132633371Y-95615297D01*
X132768217Y-95665591D01*
X132768216Y-95665591D01*
X132775144Y-95666335D01*
X132827827Y-95672000D01*
X134273572Y-95671999D01*
X134333183Y-95665591D01*
X134468031Y-95615296D01*
X134470540Y-95613418D01*
X134570126Y-95538868D01*
X134635590Y-95514450D01*
X134703863Y-95529301D01*
X134732117Y-95550452D01*
X136537584Y-97355920D01*
X136537586Y-97355921D01*
X136537590Y-97355924D01*
X136648469Y-97419939D01*
X136674516Y-97434977D01*
X136827243Y-97475901D01*
X136827245Y-97475901D01*
X136992954Y-97475901D01*
X136992970Y-97475900D01*
X138471003Y-97475900D01*
X138538042Y-97495585D01*
X138583797Y-97548389D01*
X138593741Y-97617547D01*
X138564716Y-97681103D01*
X138558685Y-97687579D01*
X137794007Y-98452257D01*
X137178748Y-99067516D01*
X137117425Y-99101001D01*
X137091067Y-99103835D01*
X137084496Y-99103835D01*
X136905250Y-99124030D01*
X136905245Y-99124031D01*
X136734976Y-99183611D01*
X136582237Y-99279584D01*
X136454684Y-99407137D01*
X136358711Y-99559876D01*
X136299131Y-99730145D01*
X136299130Y-99730150D01*
X136278935Y-99909396D01*
X136278935Y-99909403D01*
X136299130Y-100088649D01*
X136299131Y-100088654D01*
X136358711Y-100258923D01*
X136454684Y-100411662D01*
X136582238Y-100539216D01*
X136734978Y-100635189D01*
X136871474Y-100682951D01*
X136905245Y-100694768D01*
X136905250Y-100694769D01*
X137084496Y-100714965D01*
X137084500Y-100714965D01*
X137084504Y-100714965D01*
X137263749Y-100694769D01*
X137263752Y-100694768D01*
X137263755Y-100694768D01*
X137434022Y-100635189D01*
X137586762Y-100539216D01*
X137714316Y-100411662D01*
X137810289Y-100258922D01*
X137867943Y-100094154D01*
X137897301Y-100047432D01*
X141215121Y-96729613D01*
X141276442Y-96696130D01*
X141346134Y-96701114D01*
X141402067Y-96742986D01*
X141426484Y-96808450D01*
X141426800Y-96817296D01*
X141426800Y-98524230D01*
X141426799Y-98524248D01*
X141426799Y-98689954D01*
X141426798Y-98689954D01*
X141467723Y-98842684D01*
X141467724Y-98842687D01*
X141474095Y-98853721D01*
X141474096Y-98853723D01*
X141546777Y-98979612D01*
X141546781Y-98979617D01*
X141665649Y-99098485D01*
X141665655Y-99098490D01*
X142316439Y-99749274D01*
X142316449Y-99749285D01*
X142320779Y-99753615D01*
X142320780Y-99753616D01*
X142432584Y-99865420D01*
X142490604Y-99898917D01*
X142519395Y-99915539D01*
X142519397Y-99915541D01*
X142569513Y-99944476D01*
X142569515Y-99944477D01*
X142722242Y-99985400D01*
X142722243Y-99985400D01*
X143678731Y-99985400D01*
X143678747Y-99985401D01*
X143686343Y-99985401D01*
X143844454Y-99985401D01*
X143844457Y-99985401D01*
X143997185Y-99944477D01*
X144047304Y-99915539D01*
X144134116Y-99865420D01*
X144245920Y-99753616D01*
X144245920Y-99753614D01*
X144256128Y-99743407D01*
X144256129Y-99743404D01*
X146235820Y-97763713D01*
X146297142Y-97730230D01*
X146366834Y-97735214D01*
X146422767Y-97777086D01*
X146447184Y-97842550D01*
X146447500Y-97851396D01*
X146447500Y-99019102D01*
X146427815Y-99086141D01*
X146411181Y-99106783D01*
X142303727Y-103214236D01*
X142242404Y-103247721D01*
X142172712Y-103242737D01*
X142116779Y-103200865D01*
X142097385Y-103162550D01*
X142096724Y-103160370D01*
X142096724Y-103160368D01*
X142039514Y-102971773D01*
X142039512Y-102971770D01*
X142039512Y-102971768D01*
X141946613Y-102797967D01*
X141946609Y-102797960D01*
X141821583Y-102645616D01*
X141669239Y-102520590D01*
X141669232Y-102520586D01*
X141495433Y-102427688D01*
X141495427Y-102427686D01*
X141306832Y-102370476D01*
X141306829Y-102370475D01*
X141110700Y-102351159D01*
X140914570Y-102370475D01*
X140725966Y-102427688D01*
X140552167Y-102520586D01*
X140552160Y-102520590D01*
X140399816Y-102645616D01*
X140274790Y-102797960D01*
X140274786Y-102797967D01*
X140181888Y-102971766D01*
X140124675Y-103160370D01*
X140105359Y-103356500D01*
X140124675Y-103552629D01*
X140124676Y-103552632D01*
X140167411Y-103693511D01*
X140181888Y-103741233D01*
X140274786Y-103915032D01*
X140274790Y-103915039D01*
X140399816Y-104067383D01*
X140552160Y-104192409D01*
X140552164Y-104192411D01*
X140561014Y-104197142D01*
X140610858Y-104246105D01*
X140626318Y-104314243D01*
X140602486Y-104379922D01*
X140561014Y-104415858D01*
X140552164Y-104420588D01*
X140552160Y-104420590D01*
X140399816Y-104545616D01*
X140274790Y-104697960D01*
X140274786Y-104697967D01*
X140181888Y-104871766D01*
X140124675Y-105060370D01*
X140105359Y-105256500D01*
X140124675Y-105452629D01*
X140181888Y-105641233D01*
X140274786Y-105815032D01*
X140274790Y-105815039D01*
X140399816Y-105967383D01*
X140552160Y-106092409D01*
X140552167Y-106092413D01*
X140725966Y-106185311D01*
X140725969Y-106185311D01*
X140725973Y-106185314D01*
X140914568Y-106242524D01*
X141110700Y-106261841D01*
X141306832Y-106242524D01*
X141495427Y-106185314D01*
X141669238Y-106092410D01*
X141821583Y-105967383D01*
X141946610Y-105815038D01*
X142039095Y-105642011D01*
X142039511Y-105641233D01*
X142039511Y-105641232D01*
X142039514Y-105641227D01*
X142096724Y-105452632D01*
X142116041Y-105256500D01*
X142107792Y-105172752D01*
X142120810Y-105104109D01*
X142143511Y-105072922D01*
X147406506Y-99809928D01*
X147406511Y-99809924D01*
X147416714Y-99799720D01*
X147416716Y-99799720D01*
X147528520Y-99687916D01*
X147588689Y-99583700D01*
X147607577Y-99550985D01*
X147648500Y-99398257D01*
X147648500Y-99240143D01*
X147648500Y-97293796D01*
X153278035Y-97293796D01*
X153278035Y-97293803D01*
X153298230Y-97473049D01*
X153298231Y-97473054D01*
X153357811Y-97643323D01*
X153453784Y-97796062D01*
X153581338Y-97923616D01*
X153671680Y-97980382D01*
X153710038Y-98004484D01*
X153734078Y-98019589D01*
X153804984Y-98044400D01*
X153904345Y-98079168D01*
X153904350Y-98079169D01*
X154083596Y-98099365D01*
X154083600Y-98099365D01*
X154083604Y-98099365D01*
X154262849Y-98079169D01*
X154262852Y-98079168D01*
X154262855Y-98079168D01*
X154433122Y-98019589D01*
X154585862Y-97923616D01*
X154713416Y-97796062D01*
X154809389Y-97643322D01*
X154868968Y-97473055D01*
X154878761Y-97386129D01*
X154905826Y-97321718D01*
X154914290Y-97312343D01*
X155147506Y-97079128D01*
X155147511Y-97079124D01*
X155157714Y-97068920D01*
X155157716Y-97068920D01*
X155269520Y-96957116D01*
X155333095Y-96847000D01*
X155348577Y-96820185D01*
X155389500Y-96667458D01*
X155389500Y-96667448D01*
X155389848Y-96664813D01*
X155390761Y-96662747D01*
X155391603Y-96659608D01*
X155392092Y-96659739D01*
X155418115Y-96600917D01*
X155476439Y-96562446D01*
X155512787Y-96556999D01*
X156638571Y-96556999D01*
X156638572Y-96556999D01*
X156698183Y-96550591D01*
X156833031Y-96500296D01*
X156948246Y-96414046D01*
X157034496Y-96298831D01*
X157084791Y-96163983D01*
X157091200Y-96104373D01*
X157091199Y-94508628D01*
X157084791Y-94449017D01*
X157079347Y-94434422D01*
X157034497Y-94314171D01*
X157034493Y-94314164D01*
X156948247Y-94198955D01*
X156948244Y-94198952D01*
X156833035Y-94112706D01*
X156833028Y-94112702D01*
X156698182Y-94062408D01*
X156698183Y-94062408D01*
X156638583Y-94056001D01*
X156638581Y-94056000D01*
X156638573Y-94056000D01*
X156638564Y-94056000D01*
X155042829Y-94056000D01*
X155042823Y-94056001D01*
X154983216Y-94062408D01*
X154848371Y-94112702D01*
X154848364Y-94112706D01*
X154733155Y-94198952D01*
X154733152Y-94198955D01*
X154646906Y-94314164D01*
X154646902Y-94314171D01*
X154596608Y-94449017D01*
X154592403Y-94488137D01*
X154590201Y-94508623D01*
X154590200Y-94508635D01*
X154590200Y-94656287D01*
X154570515Y-94723326D01*
X154528200Y-94763674D01*
X154420287Y-94825977D01*
X154420282Y-94825981D01*
X154308481Y-94937782D01*
X154308475Y-94937790D01*
X154229426Y-95074709D01*
X154229423Y-95074716D01*
X154188500Y-95227443D01*
X154188500Y-96288301D01*
X154168815Y-96355340D01*
X154152181Y-96375983D01*
X154065064Y-96463099D01*
X154003740Y-96496583D01*
X153991267Y-96498637D01*
X153904350Y-96508430D01*
X153734078Y-96568010D01*
X153581337Y-96663984D01*
X153453784Y-96791537D01*
X153357811Y-96944276D01*
X153298231Y-97114545D01*
X153298230Y-97114550D01*
X153278035Y-97293796D01*
X147648500Y-97293796D01*
X147648500Y-92983101D01*
X147648504Y-92900973D01*
X147648502Y-92900966D01*
X147648500Y-92900950D01*
X147648500Y-92900943D01*
X147626776Y-92819868D01*
X147608366Y-92751147D01*
X147607707Y-92748409D01*
X147607683Y-92748352D01*
X147606781Y-92746838D01*
X147561268Y-92668004D01*
X147561266Y-92668002D01*
X147528538Y-92611308D01*
X147528536Y-92611306D01*
X147528534Y-92611302D01*
X147528520Y-92611284D01*
X147468498Y-92551262D01*
X147468495Y-92551256D01*
X147468494Y-92551258D01*
X146985886Y-92068601D01*
X146952404Y-92007276D01*
X146957392Y-91937585D01*
X146985889Y-91893245D01*
X154670065Y-84209068D01*
X154731386Y-84175585D01*
X154801078Y-84180569D01*
X154857011Y-84222441D01*
X154881428Y-84287905D01*
X154866576Y-84356178D01*
X154859319Y-84367874D01*
X154753601Y-84518857D01*
X154753598Y-84518861D01*
X154661126Y-84717168D01*
X154661122Y-84717177D01*
X154604493Y-84928520D01*
X154604493Y-84928524D01*
X154585423Y-85146497D01*
X154585423Y-85146502D01*
X154604493Y-85364475D01*
X154604493Y-85364479D01*
X154661122Y-85575822D01*
X154661124Y-85575826D01*
X154661125Y-85575830D01*
X154707361Y-85674984D01*
X154753597Y-85774138D01*
X154753598Y-85774139D01*
X154879102Y-85953377D01*
X155033823Y-86108098D01*
X155187325Y-86215581D01*
X155230949Y-86270157D01*
X155240200Y-86317155D01*
X155240200Y-88196030D01*
X155240199Y-88196048D01*
X155240199Y-88361754D01*
X155240198Y-88361754D01*
X155281123Y-88514485D01*
X155300150Y-88547439D01*
X155300151Y-88547443D01*
X155360175Y-88651409D01*
X155360180Y-88651416D01*
X155479049Y-88770285D01*
X155479055Y-88770290D01*
X159365352Y-92656587D01*
X159398837Y-92717910D01*
X159393853Y-92787602D01*
X159365365Y-92831937D01*
X159362206Y-92835096D01*
X159226665Y-93028669D01*
X159226664Y-93028671D01*
X159126798Y-93242835D01*
X159126794Y-93242844D01*
X159065638Y-93471086D01*
X159065636Y-93471096D01*
X159045041Y-93706499D01*
X159045041Y-93706500D01*
X159065636Y-93941903D01*
X159065638Y-93941913D01*
X159126794Y-94170155D01*
X159126796Y-94170159D01*
X159126797Y-94170163D01*
X159189609Y-94304863D01*
X159226665Y-94384330D01*
X159226667Y-94384334D01*
X159362201Y-94577895D01*
X159362206Y-94577902D01*
X159529297Y-94744993D01*
X159529303Y-94744998D01*
X159714858Y-94874925D01*
X159758483Y-94929502D01*
X159765677Y-94999000D01*
X159734154Y-95061355D01*
X159714858Y-95078075D01*
X159529297Y-95208005D01*
X159362205Y-95375097D01*
X159226665Y-95568669D01*
X159226664Y-95568671D01*
X159126798Y-95782835D01*
X159126794Y-95782844D01*
X159065638Y-96011086D01*
X159065636Y-96011096D01*
X159045041Y-96246499D01*
X159045041Y-96246500D01*
X159065636Y-96481903D01*
X159065638Y-96481913D01*
X159126794Y-96710155D01*
X159126796Y-96710159D01*
X159126797Y-96710163D01*
X159222039Y-96914409D01*
X159226665Y-96924330D01*
X159226667Y-96924334D01*
X159293924Y-97020386D01*
X159362205Y-97117901D01*
X159529299Y-97284995D01*
X159568342Y-97312333D01*
X159722865Y-97420532D01*
X159722867Y-97420533D01*
X159722870Y-97420535D01*
X159937037Y-97520403D01*
X160165292Y-97581563D01*
X160330670Y-97596032D01*
X160400699Y-97602159D01*
X160400700Y-97602159D01*
X160400701Y-97602159D01*
X160470730Y-97596032D01*
X160636108Y-97581563D01*
X160864363Y-97520403D01*
X161078530Y-97420535D01*
X161272101Y-97284995D01*
X161439195Y-97117901D01*
X161574735Y-96924330D01*
X161674603Y-96710163D01*
X161735763Y-96481908D01*
X161756359Y-96246500D01*
X161735763Y-96011092D01*
X161674603Y-95782837D01*
X161574735Y-95568671D01*
X161551608Y-95535641D01*
X161439194Y-95375097D01*
X161436046Y-95371949D01*
X161402561Y-95310626D01*
X161407545Y-95240934D01*
X161436043Y-95196590D01*
X162039320Y-94593316D01*
X162118377Y-94456384D01*
X162159301Y-94303657D01*
X162159301Y-94145542D01*
X162159301Y-94137947D01*
X162159300Y-94137929D01*
X162159300Y-90588745D01*
X162159300Y-90588743D01*
X162118377Y-90436016D01*
X162084346Y-90377072D01*
X162039324Y-90299090D01*
X162039321Y-90299086D01*
X162039320Y-90299084D01*
X161927516Y-90187280D01*
X161927515Y-90187279D01*
X161923185Y-90182949D01*
X161923174Y-90182939D01*
X161426346Y-89686111D01*
X161392861Y-89624788D01*
X161397845Y-89555096D01*
X161426344Y-89510751D01*
X161439195Y-89497901D01*
X161574735Y-89304330D01*
X161674603Y-89090163D01*
X161735763Y-88861908D01*
X161748650Y-88714618D01*
X161756359Y-88626500D01*
X161756359Y-88626499D01*
X161750698Y-88561792D01*
X161735763Y-88391092D01*
X161683497Y-88196030D01*
X161674605Y-88162844D01*
X161674604Y-88162843D01*
X161674603Y-88162837D01*
X161574735Y-87948671D01*
X161568119Y-87939223D01*
X161439196Y-87755100D01*
X161385511Y-87701415D01*
X161317267Y-87633171D01*
X161283784Y-87571851D01*
X161288768Y-87502159D01*
X161330639Y-87446225D01*
X161361615Y-87429310D01*
X161493031Y-87380296D01*
X161608246Y-87294046D01*
X161694496Y-87178831D01*
X161744791Y-87043983D01*
X161751200Y-86984373D01*
X161751199Y-85188628D01*
X161744791Y-85129017D01*
X161714697Y-85048332D01*
X161694497Y-84994171D01*
X161694493Y-84994164D01*
X161608247Y-84878955D01*
X161608244Y-84878952D01*
X161493035Y-84792706D01*
X161493028Y-84792702D01*
X161358182Y-84742408D01*
X161358183Y-84742408D01*
X161298583Y-84736001D01*
X161298581Y-84736000D01*
X161298573Y-84736000D01*
X161298564Y-84736000D01*
X159502829Y-84736000D01*
X159502823Y-84736001D01*
X159443216Y-84742408D01*
X159308371Y-84792702D01*
X159308364Y-84792706D01*
X159193155Y-84878952D01*
X159193152Y-84878955D01*
X159106906Y-84994164D01*
X159106902Y-84994171D01*
X159056608Y-85129017D01*
X159050201Y-85188616D01*
X159050201Y-85188623D01*
X159050200Y-85188635D01*
X159050200Y-86984370D01*
X159050201Y-86984376D01*
X159056608Y-87043983D01*
X159106902Y-87178828D01*
X159106906Y-87178835D01*
X159193152Y-87294044D01*
X159193155Y-87294047D01*
X159308364Y-87380293D01*
X159308371Y-87380297D01*
X159439781Y-87429310D01*
X159495715Y-87471181D01*
X159520132Y-87536645D01*
X159505280Y-87604918D01*
X159484130Y-87633173D01*
X159362203Y-87755100D01*
X159226665Y-87948669D01*
X159226664Y-87948671D01*
X159126798Y-88162835D01*
X159126794Y-88162844D01*
X159065638Y-88391086D01*
X159065636Y-88391096D01*
X159045041Y-88626499D01*
X159045041Y-88626500D01*
X159065636Y-88861897D01*
X159065638Y-88861913D01*
X159126794Y-89090155D01*
X159126796Y-89090159D01*
X159126797Y-89090163D01*
X159162970Y-89167735D01*
X159226665Y-89304330D01*
X159226667Y-89304334D01*
X159362201Y-89497895D01*
X159362206Y-89497902D01*
X159529297Y-89664993D01*
X159529303Y-89664998D01*
X159714858Y-89794925D01*
X159758483Y-89849502D01*
X159765677Y-89919000D01*
X159734154Y-89981355D01*
X159714858Y-89998075D01*
X159529297Y-90128005D01*
X159362205Y-90295097D01*
X159226665Y-90488669D01*
X159226661Y-90488676D01*
X159196318Y-90553746D01*
X159150145Y-90606185D01*
X159082951Y-90625336D01*
X159016070Y-90605119D01*
X158996256Y-90589021D01*
X157781073Y-89373838D01*
X156477519Y-88070283D01*
X156444034Y-88008960D01*
X156441200Y-87982602D01*
X156441200Y-86317155D01*
X156460885Y-86250116D01*
X156494073Y-86215582D01*
X156647577Y-86108098D01*
X156802298Y-85953377D01*
X156927802Y-85774139D01*
X157020275Y-85575830D01*
X157076907Y-85364477D01*
X157095977Y-85146500D01*
X157094447Y-85129017D01*
X157090380Y-85082521D01*
X157076907Y-84928523D01*
X157025321Y-84736001D01*
X157020277Y-84717177D01*
X157020276Y-84717176D01*
X157020275Y-84717170D01*
X156927802Y-84518862D01*
X156927800Y-84518859D01*
X156927799Y-84518857D01*
X156802299Y-84339624D01*
X156750580Y-84287905D01*
X156647577Y-84184902D01*
X156504675Y-84084841D01*
X156468338Y-84059397D01*
X156369184Y-84013161D01*
X156270030Y-83966925D01*
X156270026Y-83966924D01*
X156270022Y-83966922D01*
X156058677Y-83910293D01*
X155840702Y-83891223D01*
X155840698Y-83891223D01*
X155695382Y-83903936D01*
X155622723Y-83910293D01*
X155622720Y-83910293D01*
X155411377Y-83966922D01*
X155411370Y-83966924D01*
X155411370Y-83966925D01*
X155386331Y-83978600D01*
X155213061Y-84059398D01*
X155213057Y-84059401D01*
X155062074Y-84165119D01*
X154995867Y-84187446D01*
X154928100Y-84170435D01*
X154880288Y-84119487D01*
X154867610Y-84050777D01*
X154894092Y-83986121D01*
X154903259Y-83975875D01*
X157747143Y-81131990D01*
X157808464Y-81098507D01*
X157878156Y-81103491D01*
X157910251Y-81122192D01*
X157910464Y-81121890D01*
X157914092Y-81124430D01*
X157914529Y-81124685D01*
X157914898Y-81124995D01*
X158108465Y-81260532D01*
X158108467Y-81260533D01*
X158108470Y-81260535D01*
X158322637Y-81360403D01*
X158550892Y-81421563D01*
X158727334Y-81437000D01*
X158786299Y-81442159D01*
X158786300Y-81442159D01*
X158786301Y-81442159D01*
X158845266Y-81437000D01*
X159021708Y-81421563D01*
X159249963Y-81360403D01*
X159464130Y-81260535D01*
X159657701Y-81124995D01*
X159824795Y-80957901D01*
X159960335Y-80764330D01*
X160060203Y-80550163D01*
X160121363Y-80321908D01*
X160141959Y-80086500D01*
X160121363Y-79851092D01*
X160060203Y-79622837D01*
X159960335Y-79408671D01*
X159954725Y-79400658D01*
X159824794Y-79215097D01*
X159657702Y-79048006D01*
X159657699Y-79048004D01*
X159580818Y-78994171D01*
X159464134Y-78912467D01*
X159464130Y-78912465D01*
X159400305Y-78882703D01*
X159249963Y-78812597D01*
X159249959Y-78812596D01*
X159249955Y-78812594D01*
X159021713Y-78751438D01*
X159021703Y-78751436D01*
X158786301Y-78730841D01*
X158786299Y-78730841D01*
X158550896Y-78751436D01*
X158550886Y-78751438D01*
X158322644Y-78812594D01*
X158322635Y-78812598D01*
X158108471Y-78912464D01*
X158108469Y-78912465D01*
X157914897Y-79048005D01*
X157747806Y-79215096D01*
X157617875Y-79400659D01*
X157563298Y-79444284D01*
X157493800Y-79451478D01*
X157431445Y-79419955D01*
X157414725Y-79400659D01*
X157284794Y-79215097D01*
X157117702Y-79048006D01*
X157117699Y-79048004D01*
X157040818Y-78994171D01*
X156924134Y-78912467D01*
X156924130Y-78912465D01*
X156860305Y-78882703D01*
X156709963Y-78812597D01*
X156709959Y-78812596D01*
X156709955Y-78812594D01*
X156481713Y-78751438D01*
X156481703Y-78751436D01*
X156246301Y-78730841D01*
X156246299Y-78730841D01*
X156010896Y-78751436D01*
X156010886Y-78751438D01*
X155782644Y-78812594D01*
X155782635Y-78812598D01*
X155568471Y-78912464D01*
X155568469Y-78912465D01*
X155374895Y-79048007D01*
X155362044Y-79060857D01*
X155300719Y-79094339D01*
X155231027Y-79089350D01*
X155186687Y-79060852D01*
X154308016Y-78182181D01*
X154274531Y-78120858D01*
X154279515Y-78051166D01*
X154321387Y-77995233D01*
X154386851Y-77970816D01*
X154395697Y-77970500D01*
X163764108Y-77970500D01*
X163823907Y-77970500D01*
X163836061Y-77971097D01*
X163967973Y-77984089D01*
X163991801Y-77988828D01*
X164112793Y-78025531D01*
X164135245Y-78034832D01*
X164190993Y-78064629D01*
X164246738Y-78094426D01*
X164266949Y-78107930D01*
X164287324Y-78124651D01*
X164357425Y-78182181D01*
X164364677Y-78188132D01*
X164381867Y-78205322D01*
X164462069Y-78303050D01*
X164475573Y-78323261D01*
X164535166Y-78434751D01*
X164544469Y-78457209D01*
X164581169Y-78578192D01*
X164585911Y-78602032D01*
X164598903Y-78733937D01*
X164599500Y-78746092D01*
X164599500Y-103764969D01*
X164579815Y-103832008D01*
X164527011Y-103877763D01*
X164457853Y-103887707D01*
X164394297Y-103858682D01*
X164379957Y-103844010D01*
X164313352Y-103763499D01*
X164313350Y-103763497D01*
X164311980Y-103762210D01*
X164093162Y-103556726D01*
X164093159Y-103556724D01*
X164093153Y-103556719D01*
X163848806Y-103379191D01*
X163848799Y-103379186D01*
X163848795Y-103379184D01*
X163584104Y-103233668D01*
X163584101Y-103233666D01*
X163584096Y-103233664D01*
X163584095Y-103233663D01*
X163303265Y-103122475D01*
X163303262Y-103122474D01*
X163010695Y-103047357D01*
X162711036Y-103009500D01*
X162711027Y-103009500D01*
X162408973Y-103009500D01*
X162408963Y-103009500D01*
X162109304Y-103047357D01*
X161816737Y-103122474D01*
X161816734Y-103122475D01*
X161535904Y-103233663D01*
X161535903Y-103233664D01*
X161271205Y-103379184D01*
X161271193Y-103379191D01*
X161026846Y-103556719D01*
X161026836Y-103556727D01*
X160806652Y-103763494D01*
X160614111Y-103996236D01*
X160452268Y-104251261D01*
X160452265Y-104251267D01*
X160323661Y-104524563D01*
X160323659Y-104524568D01*
X160230320Y-104811835D01*
X160173719Y-105108546D01*
X160173718Y-105108553D01*
X160154754Y-105409994D01*
X160154754Y-105410005D01*
X160173718Y-105711446D01*
X160173719Y-105711453D01*
X160186314Y-105777479D01*
X160226295Y-105987068D01*
X160230320Y-106008164D01*
X160323659Y-106295431D01*
X160323661Y-106295436D01*
X160452265Y-106568732D01*
X160452268Y-106568738D01*
X160614111Y-106823763D01*
X160614114Y-106823767D01*
X160614115Y-106823768D01*
X160806649Y-107056502D01*
X160806652Y-107056505D01*
X161026836Y-107263272D01*
X161026846Y-107263280D01*
X161271193Y-107440808D01*
X161271198Y-107440810D01*
X161271205Y-107440816D01*
X161535896Y-107586332D01*
X161535901Y-107586334D01*
X161535903Y-107586335D01*
X161535904Y-107586336D01*
X161816734Y-107697524D01*
X161816737Y-107697525D01*
X161914259Y-107722564D01*
X162109302Y-107772642D01*
X162256039Y-107791179D01*
X162408963Y-107810499D01*
X162408969Y-107810499D01*
X162408973Y-107810500D01*
X162408975Y-107810500D01*
X162711025Y-107810500D01*
X162711027Y-107810500D01*
X162711032Y-107810499D01*
X162711036Y-107810499D01*
X162790591Y-107800448D01*
X163010698Y-107772642D01*
X163303262Y-107697525D01*
X163316055Y-107692460D01*
X163584095Y-107586336D01*
X163584096Y-107586335D01*
X163584094Y-107586335D01*
X163584104Y-107586332D01*
X163848795Y-107440816D01*
X164093162Y-107263274D01*
X164313349Y-107056504D01*
X164325286Y-107042073D01*
X164383183Y-107002965D01*
X164453034Y-107001365D01*
X164512662Y-107037784D01*
X164543134Y-107100659D01*
X164542449Y-107145303D01*
X164531591Y-107199888D01*
X164527393Y-107215554D01*
X164446864Y-107452786D01*
X164440657Y-107467772D01*
X164329853Y-107692460D01*
X164321743Y-107706507D01*
X164182559Y-107914811D01*
X164172685Y-107927679D01*
X164007502Y-108116033D01*
X163996033Y-108127502D01*
X163807679Y-108292685D01*
X163794811Y-108302559D01*
X163586507Y-108441743D01*
X163572460Y-108449853D01*
X163347772Y-108560657D01*
X163332786Y-108566864D01*
X163095554Y-108647393D01*
X163079888Y-108651591D01*
X162834186Y-108700465D01*
X162818104Y-108702583D01*
X162564043Y-108719235D01*
X162555933Y-108719500D01*
X104146093Y-108719500D01*
X104133939Y-108718903D01*
X104002033Y-108705911D01*
X103978192Y-108701169D01*
X103857209Y-108664469D01*
X103834751Y-108655166D01*
X103723261Y-108595573D01*
X103703050Y-108582069D01*
X103605322Y-108501867D01*
X103588132Y-108484677D01*
X103507930Y-108386949D01*
X103494426Y-108366738D01*
X103454844Y-108292685D01*
X103434832Y-108255245D01*
X103425530Y-108232790D01*
X103395588Y-108134084D01*
X103388828Y-108111801D01*
X103384089Y-108087973D01*
X103371097Y-107956061D01*
X103370500Y-107943907D01*
X103370500Y-80096498D01*
X103985422Y-80096498D01*
X103985422Y-80096501D01*
X104004510Y-80363381D01*
X104004511Y-80363388D01*
X104061382Y-80624822D01*
X104154887Y-80875520D01*
X104154889Y-80875524D01*
X104283112Y-81110346D01*
X104283117Y-81110354D01*
X104443452Y-81324538D01*
X104443468Y-81324556D01*
X104632643Y-81513731D01*
X104632661Y-81513747D01*
X104846845Y-81674082D01*
X104846853Y-81674087D01*
X105081675Y-81802310D01*
X105081678Y-81802312D01*
X105107377Y-81811897D01*
X105179533Y-81838809D01*
X105235467Y-81880680D01*
X105259884Y-81946144D01*
X105260200Y-81954991D01*
X105260200Y-83318008D01*
X105240515Y-83385047D01*
X105187711Y-83430802D01*
X105179538Y-83434187D01*
X105146218Y-83446616D01*
X105081675Y-83470689D01*
X104846853Y-83598912D01*
X104846845Y-83598917D01*
X104632661Y-83759252D01*
X104632643Y-83759268D01*
X104443468Y-83948443D01*
X104443452Y-83948461D01*
X104283117Y-84162645D01*
X104283112Y-84162653D01*
X104154889Y-84397475D01*
X104154887Y-84397479D01*
X104061382Y-84648177D01*
X104004511Y-84909611D01*
X104004510Y-84909618D01*
X103985422Y-85176498D01*
X103985422Y-85176501D01*
X104004510Y-85443381D01*
X104004511Y-85443388D01*
X104061382Y-85704822D01*
X104154887Y-85955520D01*
X104154889Y-85955524D01*
X104283112Y-86190346D01*
X104283117Y-86190354D01*
X104443452Y-86404538D01*
X104443468Y-86404556D01*
X104632643Y-86593731D01*
X104632661Y-86593747D01*
X104846845Y-86754082D01*
X104846853Y-86754087D01*
X105081675Y-86882310D01*
X105081678Y-86882312D01*
X105081681Y-86882313D01*
X105179533Y-86918809D01*
X105235467Y-86960680D01*
X105259884Y-87026144D01*
X105260200Y-87034991D01*
X105260200Y-88739830D01*
X105260199Y-88739848D01*
X105260199Y-88905554D01*
X105260198Y-88905554D01*
X105301124Y-89058289D01*
X105301125Y-89058290D01*
X105328659Y-89105979D01*
X105328661Y-89105981D01*
X105380179Y-89195214D01*
X105380181Y-89195217D01*
X105499049Y-89314085D01*
X105499055Y-89314090D01*
X109239620Y-93054655D01*
X109273105Y-93115978D01*
X109271281Y-93173939D01*
X109271318Y-93173946D01*
X109271274Y-93174179D01*
X109271209Y-93176257D01*
X109270266Y-93179572D01*
X109270264Y-93179578D01*
X109250164Y-93396499D01*
X109250164Y-93396500D01*
X109270264Y-93613418D01*
X109270264Y-93613420D01*
X109270265Y-93613423D01*
X109296748Y-93706500D01*
X109329884Y-93822962D01*
X109426988Y-94017972D01*
X109558274Y-94191824D01*
X109682272Y-94304863D01*
X109718554Y-94364574D01*
X109716793Y-94434422D01*
X109682272Y-94488137D01*
X109558274Y-94601175D01*
X109426988Y-94775027D01*
X109329884Y-94970037D01*
X109327036Y-94980047D01*
X109280676Y-95142988D01*
X109270264Y-95179581D01*
X109250164Y-95396499D01*
X109250164Y-95396500D01*
X109270264Y-95613418D01*
X109270264Y-95613420D01*
X109270265Y-95613423D01*
X109329883Y-95822959D01*
X109329884Y-95822962D01*
X109409142Y-95982133D01*
X109426988Y-96017972D01*
X109537249Y-96163982D01*
X109558275Y-96191824D01*
X109569315Y-96201889D01*
X109605596Y-96261600D01*
X109603835Y-96331448D01*
X109573457Y-96381206D01*
X108061986Y-97892678D01*
X107950181Y-98004482D01*
X107950177Y-98004487D01*
X107927136Y-98044398D01*
X107927135Y-98044400D01*
X107871123Y-98141415D01*
X107830199Y-98294143D01*
X107830199Y-98294145D01*
X107830199Y-98462246D01*
X107830200Y-98462259D01*
X107830200Y-100639618D01*
X107810515Y-100706657D01*
X107757711Y-100752412D01*
X107688553Y-100762356D01*
X107624997Y-100733331D01*
X107597368Y-100699045D01*
X107468287Y-100462653D01*
X107468282Y-100462645D01*
X107307947Y-100248461D01*
X107307931Y-100248443D01*
X107118756Y-100059268D01*
X107118738Y-100059252D01*
X106904554Y-99898917D01*
X106904546Y-99898912D01*
X106669724Y-99770689D01*
X106669720Y-99770687D01*
X106419022Y-99677182D01*
X106157588Y-99620311D01*
X106157581Y-99620310D01*
X105890701Y-99601222D01*
X105890699Y-99601222D01*
X105623818Y-99620310D01*
X105623811Y-99620311D01*
X105362377Y-99677182D01*
X105111679Y-99770687D01*
X105111675Y-99770689D01*
X104876853Y-99898912D01*
X104876845Y-99898917D01*
X104662661Y-100059252D01*
X104662643Y-100059268D01*
X104473468Y-100248443D01*
X104473452Y-100248461D01*
X104313117Y-100462645D01*
X104313112Y-100462653D01*
X104184889Y-100697475D01*
X104184887Y-100697479D01*
X104091382Y-100948177D01*
X104034511Y-101209611D01*
X104034510Y-101209618D01*
X104015422Y-101476498D01*
X104015422Y-101476501D01*
X104034510Y-101743381D01*
X104034511Y-101743388D01*
X104091382Y-102004822D01*
X104184887Y-102255520D01*
X104184889Y-102255524D01*
X104313112Y-102490346D01*
X104313117Y-102490354D01*
X104473452Y-102704538D01*
X104473468Y-102704556D01*
X104662643Y-102893731D01*
X104662661Y-102893747D01*
X104876845Y-103054082D01*
X104876853Y-103054087D01*
X105111675Y-103182310D01*
X105111678Y-103182312D01*
X105111681Y-103182313D01*
X105209533Y-103218809D01*
X105265467Y-103260680D01*
X105289884Y-103326144D01*
X105290200Y-103334991D01*
X105290200Y-104698008D01*
X105270515Y-104765047D01*
X105217711Y-104810802D01*
X105209538Y-104814187D01*
X105176218Y-104826616D01*
X105111675Y-104850689D01*
X104876853Y-104978912D01*
X104876845Y-104978917D01*
X104662661Y-105139252D01*
X104662643Y-105139268D01*
X104473468Y-105328443D01*
X104473452Y-105328461D01*
X104313117Y-105542645D01*
X104313112Y-105542653D01*
X104184889Y-105777475D01*
X104184887Y-105777479D01*
X104091382Y-106028177D01*
X104034511Y-106289611D01*
X104034510Y-106289618D01*
X104015422Y-106556498D01*
X104015422Y-106556501D01*
X104034510Y-106823381D01*
X104034511Y-106823388D01*
X104091382Y-107084822D01*
X104184887Y-107335520D01*
X104184889Y-107335524D01*
X104313112Y-107570346D01*
X104313117Y-107570354D01*
X104473452Y-107784538D01*
X104473468Y-107784556D01*
X104662643Y-107973731D01*
X104662661Y-107973747D01*
X104876845Y-108134082D01*
X104876853Y-108134087D01*
X105111675Y-108262310D01*
X105111679Y-108262312D01*
X105111681Y-108262313D01*
X105362373Y-108355816D01*
X105362376Y-108355816D01*
X105362377Y-108355817D01*
X105462104Y-108377511D01*
X105623820Y-108412690D01*
X105870140Y-108430307D01*
X105890699Y-108431778D01*
X105890700Y-108431778D01*
X105890701Y-108431778D01*
X105909789Y-108430412D01*
X106157580Y-108412690D01*
X106419027Y-108355816D01*
X106669719Y-108262313D01*
X106904552Y-108134084D01*
X107118746Y-107973741D01*
X107307941Y-107784546D01*
X107468284Y-107570352D01*
X107596513Y-107335519D01*
X107690016Y-107084827D01*
X107746890Y-106823380D01*
X107765978Y-106556500D01*
X107746890Y-106289620D01*
X107714806Y-106142133D01*
X107690017Y-106028177D01*
X107682551Y-106008160D01*
X107596513Y-105777481D01*
X107522116Y-105641233D01*
X107514405Y-105627111D01*
X107499553Y-105558838D01*
X107523970Y-105493374D01*
X107579903Y-105451502D01*
X107649595Y-105446518D01*
X107688032Y-105461960D01*
X107692736Y-105464843D01*
X107928381Y-105562450D01*
X107928383Y-105562450D01*
X107928389Y-105562453D01*
X108176414Y-105621998D01*
X108430700Y-105642011D01*
X108684986Y-105621998D01*
X108933011Y-105562453D01*
X109168667Y-105464841D01*
X109173364Y-105461962D01*
X109240806Y-105443712D01*
X109307410Y-105464822D01*
X109352029Y-105518589D01*
X109360496Y-105587944D01*
X109346994Y-105627110D01*
X109264892Y-105777468D01*
X109264887Y-105777479D01*
X109171382Y-106028177D01*
X109114511Y-106289611D01*
X109114510Y-106289618D01*
X109095422Y-106556498D01*
X109095422Y-106556501D01*
X109114510Y-106823381D01*
X109114511Y-106823388D01*
X109171382Y-107084822D01*
X109264887Y-107335520D01*
X109264889Y-107335524D01*
X109393112Y-107570346D01*
X109393117Y-107570354D01*
X109553452Y-107784538D01*
X109553468Y-107784556D01*
X109742643Y-107973731D01*
X109742661Y-107973747D01*
X109956845Y-108134082D01*
X109956853Y-108134087D01*
X110191675Y-108262310D01*
X110191679Y-108262312D01*
X110191681Y-108262313D01*
X110442373Y-108355816D01*
X110442376Y-108355816D01*
X110442377Y-108355817D01*
X110542104Y-108377511D01*
X110703820Y-108412690D01*
X110950140Y-108430307D01*
X110970699Y-108431778D01*
X110970700Y-108431778D01*
X110970701Y-108431778D01*
X110989789Y-108430412D01*
X111237580Y-108412690D01*
X111499027Y-108355816D01*
X111749719Y-108262313D01*
X111984552Y-108134084D01*
X112198746Y-107973741D01*
X112387941Y-107784546D01*
X112548284Y-107570352D01*
X112676513Y-107335519D01*
X112770016Y-107084827D01*
X112826890Y-106823380D01*
X112845978Y-106556500D01*
X112826890Y-106289620D01*
X112794806Y-106142133D01*
X112770017Y-106028177D01*
X112762551Y-106008160D01*
X112676513Y-105777481D01*
X112602112Y-105641227D01*
X112548287Y-105542653D01*
X112548282Y-105542645D01*
X112387947Y-105328461D01*
X112387931Y-105328443D01*
X112198756Y-105139268D01*
X112198738Y-105139252D01*
X111984554Y-104978917D01*
X111984546Y-104978912D01*
X111749724Y-104850689D01*
X111749725Y-104850689D01*
X111685182Y-104826616D01*
X111651865Y-104814189D01*
X111595933Y-104772318D01*
X111571516Y-104706854D01*
X111571200Y-104698008D01*
X111571200Y-103334991D01*
X111590885Y-103267952D01*
X111643689Y-103222197D01*
X111651860Y-103218811D01*
X111749719Y-103182313D01*
X111984552Y-103054084D01*
X112198746Y-102893741D01*
X112387941Y-102704546D01*
X112548284Y-102490352D01*
X112676513Y-102255519D01*
X112770016Y-102004827D01*
X112826890Y-101743380D01*
X112845978Y-101476500D01*
X112826890Y-101209620D01*
X112770016Y-100948173D01*
X112676513Y-100697481D01*
X112644917Y-100639618D01*
X112548287Y-100462653D01*
X112548282Y-100462645D01*
X112387947Y-100248461D01*
X112387931Y-100248443D01*
X112198756Y-100059268D01*
X112198738Y-100059252D01*
X112108490Y-99991694D01*
X112066618Y-99935761D01*
X112058800Y-99892427D01*
X112058800Y-94955445D01*
X112058800Y-94955443D01*
X112017877Y-94802716D01*
X111997857Y-94768041D01*
X111981385Y-94700142D01*
X112004238Y-94634115D01*
X112059159Y-94590924D01*
X112128712Y-94584283D01*
X112190815Y-94616299D01*
X112192926Y-94618361D01*
X114933181Y-97358616D01*
X114966666Y-97419939D01*
X114969500Y-97446297D01*
X114969500Y-102908306D01*
X114949815Y-102975345D01*
X114916623Y-103009881D01*
X114730859Y-103139953D01*
X114569954Y-103300858D01*
X114439432Y-103487265D01*
X114439431Y-103487267D01*
X114343261Y-103693502D01*
X114343258Y-103693511D01*
X114284366Y-103913302D01*
X114284364Y-103913313D01*
X114264532Y-104139998D01*
X114264532Y-104140001D01*
X114284364Y-104366686D01*
X114284366Y-104366697D01*
X114343258Y-104586488D01*
X114343261Y-104586497D01*
X114439431Y-104792732D01*
X114439432Y-104792734D01*
X114569954Y-104979141D01*
X114730858Y-105140045D01*
X114777573Y-105172755D01*
X114917266Y-105270568D01*
X115123504Y-105366739D01*
X115343308Y-105425635D01*
X115505230Y-105439801D01*
X115569998Y-105445468D01*
X115570000Y-105445468D01*
X115570002Y-105445468D01*
X115626673Y-105440509D01*
X115796692Y-105425635D01*
X116016496Y-105366739D01*
X116222734Y-105270568D01*
X116409139Y-105140047D01*
X116570047Y-104979139D01*
X116700568Y-104792734D01*
X116717465Y-104756498D01*
X118885232Y-104756498D01*
X118885232Y-104756501D01*
X118905064Y-104983186D01*
X118905066Y-104983197D01*
X118963958Y-105202988D01*
X118963961Y-105202997D01*
X119060131Y-105409232D01*
X119060132Y-105409234D01*
X119190654Y-105595641D01*
X119351558Y-105756545D01*
X119351561Y-105756547D01*
X119537966Y-105887068D01*
X119744204Y-105983239D01*
X119964008Y-106042135D01*
X120125930Y-106056301D01*
X120190698Y-106061968D01*
X120190700Y-106061968D01*
X120190702Y-106061968D01*
X120247373Y-106057009D01*
X120417392Y-106042135D01*
X120637196Y-105983239D01*
X120843434Y-105887068D01*
X121029839Y-105756547D01*
X121190747Y-105595639D01*
X121321268Y-105409234D01*
X121417439Y-105202996D01*
X121476335Y-104983192D01*
X121487419Y-104856498D01*
X124685232Y-104856498D01*
X124685232Y-104856501D01*
X124705064Y-105083186D01*
X124705066Y-105083197D01*
X124763958Y-105302988D01*
X124763961Y-105302997D01*
X124860131Y-105509232D01*
X124860132Y-105509234D01*
X124990654Y-105695641D01*
X125151558Y-105856545D01*
X125151561Y-105856547D01*
X125337966Y-105987068D01*
X125544204Y-106083239D01*
X125764008Y-106142135D01*
X125925930Y-106156301D01*
X125990698Y-106161968D01*
X125990700Y-106161968D01*
X125990702Y-106161968D01*
X126047373Y-106157009D01*
X126217392Y-106142135D01*
X126437196Y-106083239D01*
X126643434Y-105987068D01*
X126829839Y-105856547D01*
X126990747Y-105695639D01*
X127121268Y-105509234D01*
X127217439Y-105302996D01*
X127276335Y-105083192D01*
X127296168Y-104856500D01*
X127295659Y-104850687D01*
X127287241Y-104754461D01*
X127276335Y-104629808D01*
X127231616Y-104462915D01*
X127217441Y-104410011D01*
X127217438Y-104410002D01*
X127179053Y-104327686D01*
X127121268Y-104203766D01*
X126990747Y-104017361D01*
X126990745Y-104017358D01*
X126829841Y-103856454D01*
X126643434Y-103725932D01*
X126643432Y-103725931D01*
X126437197Y-103629761D01*
X126437188Y-103629758D01*
X126217397Y-103570866D01*
X126217393Y-103570865D01*
X126217392Y-103570865D01*
X126217391Y-103570864D01*
X126217386Y-103570864D01*
X125990702Y-103551032D01*
X125990698Y-103551032D01*
X125764013Y-103570864D01*
X125764002Y-103570866D01*
X125544211Y-103629758D01*
X125544202Y-103629761D01*
X125337967Y-103725931D01*
X125337965Y-103725932D01*
X125151558Y-103856454D01*
X124990654Y-104017358D01*
X124860132Y-104203765D01*
X124860131Y-104203767D01*
X124763961Y-104410002D01*
X124763958Y-104410011D01*
X124705066Y-104629802D01*
X124705064Y-104629813D01*
X124685232Y-104856498D01*
X121487419Y-104856498D01*
X121496168Y-104756500D01*
X121476335Y-104529808D01*
X121417439Y-104310004D01*
X121321268Y-104103766D01*
X121190747Y-103917361D01*
X121190745Y-103917358D01*
X121029841Y-103756454D01*
X120843434Y-103625932D01*
X120843432Y-103625931D01*
X120637197Y-103529761D01*
X120637188Y-103529758D01*
X120417397Y-103470866D01*
X120417393Y-103470865D01*
X120417392Y-103470865D01*
X120417391Y-103470864D01*
X120417386Y-103470864D01*
X120190702Y-103451032D01*
X120190698Y-103451032D01*
X119964013Y-103470864D01*
X119964002Y-103470866D01*
X119744211Y-103529758D01*
X119744202Y-103529761D01*
X119537967Y-103625931D01*
X119537965Y-103625932D01*
X119351558Y-103756454D01*
X119190654Y-103917358D01*
X119060132Y-104103765D01*
X119060131Y-104103767D01*
X118963961Y-104310002D01*
X118963958Y-104310011D01*
X118905066Y-104529802D01*
X118905064Y-104529813D01*
X118885232Y-104756498D01*
X116717465Y-104756498D01*
X116796739Y-104586496D01*
X116855635Y-104366692D01*
X116875468Y-104140000D01*
X116855635Y-103913308D01*
X116796739Y-103693504D01*
X116700568Y-103487266D01*
X116570047Y-103300861D01*
X116570045Y-103300858D01*
X116409140Y-103139953D01*
X116223377Y-103009881D01*
X116179752Y-102955304D01*
X116170500Y-102908306D01*
X116170500Y-97067145D01*
X116170500Y-97067143D01*
X116129577Y-96914416D01*
X116094535Y-96853721D01*
X116050524Y-96777490D01*
X116050521Y-96777486D01*
X116050520Y-96777484D01*
X115938716Y-96665680D01*
X115938715Y-96665679D01*
X115934385Y-96661349D01*
X115934374Y-96661339D01*
X113253033Y-93979998D01*
X114264532Y-93979998D01*
X114264532Y-93980001D01*
X114284364Y-94206686D01*
X114284366Y-94206697D01*
X114343258Y-94426488D01*
X114343261Y-94426497D01*
X114439431Y-94632732D01*
X114439432Y-94632734D01*
X114569954Y-94819141D01*
X114730858Y-94980045D01*
X114750812Y-94994017D01*
X114917266Y-95110568D01*
X115123504Y-95206739D01*
X115123509Y-95206740D01*
X115123511Y-95206741D01*
X115170644Y-95219370D01*
X115343308Y-95265635D01*
X115495876Y-95278983D01*
X115569998Y-95285468D01*
X115570000Y-95285468D01*
X115570002Y-95285468D01*
X115626673Y-95280509D01*
X115796692Y-95265635D01*
X116016496Y-95206739D01*
X116222734Y-95110568D01*
X116409139Y-94980047D01*
X116570047Y-94819139D01*
X116700568Y-94632734D01*
X116717465Y-94596498D01*
X118885232Y-94596498D01*
X118885232Y-94596501D01*
X118905064Y-94823186D01*
X118905066Y-94823197D01*
X118963958Y-95042988D01*
X118963961Y-95042997D01*
X119060131Y-95249232D01*
X119060132Y-95249234D01*
X119190654Y-95435641D01*
X119351558Y-95596545D01*
X119375663Y-95613423D01*
X119537966Y-95727068D01*
X119744204Y-95823239D01*
X119964008Y-95882135D01*
X120125930Y-95896301D01*
X120190698Y-95901968D01*
X120190700Y-95901968D01*
X120190702Y-95901968D01*
X120247373Y-95897009D01*
X120417392Y-95882135D01*
X120637196Y-95823239D01*
X120843434Y-95727068D01*
X121029839Y-95596547D01*
X121190747Y-95435639D01*
X121321268Y-95249234D01*
X121417439Y-95042996D01*
X121476335Y-94823192D01*
X121487419Y-94696498D01*
X124685232Y-94696498D01*
X124685232Y-94696501D01*
X124705064Y-94923186D01*
X124705066Y-94923197D01*
X124763958Y-95142988D01*
X124763961Y-95142997D01*
X124860131Y-95349232D01*
X124860132Y-95349234D01*
X124990654Y-95535641D01*
X125151558Y-95696545D01*
X125151561Y-95696547D01*
X125337966Y-95827068D01*
X125544204Y-95923239D01*
X125764008Y-95982135D01*
X125925930Y-95996301D01*
X125990698Y-96001968D01*
X125990700Y-96001968D01*
X125990702Y-96001968D01*
X126047373Y-95997009D01*
X126217392Y-95982135D01*
X126437196Y-95923239D01*
X126643434Y-95827068D01*
X126829839Y-95696547D01*
X126990747Y-95535639D01*
X127121268Y-95349234D01*
X127217439Y-95142996D01*
X127276335Y-94923192D01*
X127296168Y-94696500D01*
X127276335Y-94469808D01*
X127217439Y-94250004D01*
X127121268Y-94043766D01*
X127009529Y-93884185D01*
X126990745Y-93857358D01*
X126829841Y-93696454D01*
X126643434Y-93565932D01*
X126643432Y-93565931D01*
X126437197Y-93469761D01*
X126437188Y-93469758D01*
X126217397Y-93410866D01*
X126217393Y-93410865D01*
X126217392Y-93410865D01*
X126217391Y-93410864D01*
X126217386Y-93410864D01*
X125990702Y-93391032D01*
X125990698Y-93391032D01*
X125764013Y-93410864D01*
X125764002Y-93410866D01*
X125544211Y-93469758D01*
X125544202Y-93469761D01*
X125337967Y-93565931D01*
X125337965Y-93565932D01*
X125151558Y-93696454D01*
X124990654Y-93857358D01*
X124860132Y-94043765D01*
X124860131Y-94043767D01*
X124763961Y-94250002D01*
X124763958Y-94250011D01*
X124705066Y-94469802D01*
X124705064Y-94469813D01*
X124685232Y-94696498D01*
X121487419Y-94696498D01*
X121496168Y-94596500D01*
X121495889Y-94593316D01*
X121483910Y-94456390D01*
X121476335Y-94369808D01*
X121417439Y-94150004D01*
X121321268Y-93943766D01*
X121209143Y-93783633D01*
X121190745Y-93757358D01*
X121029841Y-93596454D01*
X120843434Y-93465932D01*
X120843432Y-93465931D01*
X120637197Y-93369761D01*
X120637188Y-93369758D01*
X120417397Y-93310866D01*
X120417393Y-93310865D01*
X120417392Y-93310865D01*
X120417391Y-93310864D01*
X120417386Y-93310864D01*
X120190702Y-93291032D01*
X120190698Y-93291032D01*
X119964013Y-93310864D01*
X119964002Y-93310866D01*
X119744211Y-93369758D01*
X119744202Y-93369761D01*
X119537967Y-93465931D01*
X119537965Y-93465932D01*
X119351558Y-93596454D01*
X119190654Y-93757358D01*
X119060132Y-93943765D01*
X119060131Y-93943767D01*
X118963961Y-94150002D01*
X118963958Y-94150011D01*
X118905066Y-94369802D01*
X118905064Y-94369813D01*
X118885232Y-94596498D01*
X116717465Y-94596498D01*
X116796739Y-94426496D01*
X116855635Y-94206692D01*
X116875468Y-93980000D01*
X116855635Y-93753308D01*
X116796739Y-93533504D01*
X116700568Y-93327266D01*
X116597156Y-93179577D01*
X116570045Y-93140858D01*
X116409141Y-92979954D01*
X116222734Y-92849432D01*
X116222732Y-92849431D01*
X116016497Y-92753261D01*
X116016488Y-92753258D01*
X115796697Y-92694366D01*
X115796693Y-92694365D01*
X115796692Y-92694365D01*
X115796691Y-92694364D01*
X115796686Y-92694364D01*
X115570002Y-92674532D01*
X115569998Y-92674532D01*
X115343313Y-92694364D01*
X115343302Y-92694366D01*
X115123511Y-92753258D01*
X115123502Y-92753261D01*
X114917267Y-92849431D01*
X114917265Y-92849432D01*
X114730858Y-92979954D01*
X114569954Y-93140858D01*
X114439432Y-93327265D01*
X114439431Y-93327267D01*
X114343261Y-93533502D01*
X114343258Y-93533511D01*
X114284366Y-93753302D01*
X114284364Y-93753313D01*
X114264532Y-93979998D01*
X113253033Y-93979998D01*
X111615996Y-92342961D01*
X111582511Y-92281638D01*
X111587494Y-92211950D01*
X111599791Y-92178983D01*
X111606200Y-92119373D01*
X111606199Y-90673628D01*
X111599791Y-90614017D01*
X111597781Y-90608629D01*
X111549497Y-90479171D01*
X111549493Y-90479164D01*
X111463247Y-90363955D01*
X111463244Y-90363952D01*
X111348035Y-90277706D01*
X111348028Y-90277702D01*
X111213182Y-90227408D01*
X111213183Y-90227408D01*
X111153583Y-90221001D01*
X111153581Y-90221000D01*
X111153573Y-90221000D01*
X111153565Y-90221000D01*
X111080912Y-90221000D01*
X111013873Y-90201315D01*
X110973525Y-90158999D01*
X110911224Y-90051090D01*
X110911218Y-90051082D01*
X109037519Y-88177383D01*
X109004034Y-88116060D01*
X109001200Y-88089702D01*
X109001200Y-86013381D01*
X109020885Y-85946342D01*
X109073689Y-85900587D01*
X109142847Y-85890643D01*
X109206403Y-85919668D01*
X109234032Y-85953954D01*
X109363112Y-86190346D01*
X109363117Y-86190354D01*
X109523452Y-86404538D01*
X109523468Y-86404556D01*
X109712643Y-86593731D01*
X109712661Y-86593747D01*
X109926845Y-86754082D01*
X109926853Y-86754087D01*
X110161675Y-86882310D01*
X110161679Y-86882312D01*
X110161681Y-86882313D01*
X110412373Y-86975816D01*
X110412376Y-86975816D01*
X110412377Y-86975817D01*
X110609712Y-87018744D01*
X110673820Y-87032690D01*
X110920140Y-87050307D01*
X110940699Y-87051778D01*
X110940700Y-87051778D01*
X110940701Y-87051778D01*
X110959789Y-87050412D01*
X111207580Y-87032690D01*
X111469027Y-86975816D01*
X111719719Y-86882313D01*
X111954552Y-86754084D01*
X112168746Y-86593741D01*
X112357941Y-86404546D01*
X112518284Y-86190352D01*
X112646513Y-85955519D01*
X112740016Y-85704827D01*
X112796890Y-85443380D01*
X112815978Y-85176500D01*
X112796890Y-84909620D01*
X112767613Y-84775035D01*
X112740017Y-84648177D01*
X112735720Y-84636657D01*
X112646513Y-84397481D01*
X112630346Y-84367874D01*
X112518287Y-84162653D01*
X112518282Y-84162645D01*
X112357947Y-83948461D01*
X112357931Y-83948443D01*
X112168756Y-83759268D01*
X112168738Y-83759252D01*
X111954554Y-83598917D01*
X111954546Y-83598912D01*
X111719724Y-83470689D01*
X111719725Y-83470689D01*
X111655182Y-83446616D01*
X111621865Y-83434189D01*
X111565933Y-83392318D01*
X111541516Y-83326854D01*
X111541200Y-83318008D01*
X111541200Y-81954991D01*
X111560885Y-81887952D01*
X111613689Y-81842197D01*
X111621860Y-81838811D01*
X111719719Y-81802313D01*
X111954552Y-81674084D01*
X112168746Y-81513741D01*
X112357941Y-81324546D01*
X112518284Y-81110352D01*
X112646513Y-80875519D01*
X112740016Y-80624827D01*
X112796890Y-80363380D01*
X112815978Y-80096500D01*
X112796890Y-79829620D01*
X112740016Y-79568173D01*
X112646513Y-79317481D01*
X112590606Y-79215096D01*
X112518287Y-79082653D01*
X112518282Y-79082645D01*
X112357947Y-78868461D01*
X112357931Y-78868443D01*
X112168756Y-78679268D01*
X112168738Y-78679252D01*
X111954554Y-78518917D01*
X111954546Y-78518912D01*
X111719724Y-78390689D01*
X111719720Y-78390687D01*
X111469022Y-78297182D01*
X111207588Y-78240311D01*
X111207581Y-78240310D01*
X110940701Y-78221222D01*
X110940699Y-78221222D01*
X110673818Y-78240310D01*
X110673811Y-78240311D01*
X110412377Y-78297182D01*
X110161679Y-78390687D01*
X110161675Y-78390689D01*
X109926853Y-78518912D01*
X109926845Y-78518917D01*
X109712661Y-78679252D01*
X109712643Y-78679268D01*
X109523468Y-78868443D01*
X109523452Y-78868461D01*
X109363117Y-79082645D01*
X109363112Y-79082653D01*
X109234889Y-79317475D01*
X109234887Y-79317479D01*
X109141382Y-79568177D01*
X109084511Y-79829611D01*
X109084510Y-79829618D01*
X109065422Y-80096498D01*
X109065422Y-80096501D01*
X109084510Y-80363381D01*
X109084511Y-80363388D01*
X109141382Y-80624822D01*
X109234887Y-80875520D01*
X109234889Y-80875524D01*
X109316994Y-81025888D01*
X109331846Y-81094161D01*
X109307429Y-81159626D01*
X109251495Y-81201497D01*
X109181804Y-81206481D01*
X109143370Y-81191041D01*
X109138663Y-81188156D01*
X108903018Y-81090549D01*
X108903001Y-81090544D01*
X108654989Y-81031002D01*
X108400700Y-81010989D01*
X108146410Y-81031002D01*
X107898398Y-81090544D01*
X107898381Y-81090549D01*
X107662736Y-81188156D01*
X107658023Y-81191045D01*
X107590577Y-81209286D01*
X107523975Y-81188168D01*
X107479364Y-81134395D01*
X107470906Y-81065039D01*
X107484405Y-81025888D01*
X107566513Y-80875519D01*
X107660016Y-80624827D01*
X107716890Y-80363380D01*
X107735978Y-80096500D01*
X107716890Y-79829620D01*
X107660016Y-79568173D01*
X107566513Y-79317481D01*
X107510606Y-79215096D01*
X107438287Y-79082653D01*
X107438282Y-79082645D01*
X107277947Y-78868461D01*
X107277931Y-78868443D01*
X107088756Y-78679268D01*
X107088738Y-78679252D01*
X106874554Y-78518917D01*
X106874546Y-78518912D01*
X106639724Y-78390689D01*
X106639720Y-78390687D01*
X106389022Y-78297182D01*
X106127588Y-78240311D01*
X106127581Y-78240310D01*
X105860701Y-78221222D01*
X105860699Y-78221222D01*
X105593818Y-78240310D01*
X105593811Y-78240311D01*
X105332377Y-78297182D01*
X105081679Y-78390687D01*
X105081675Y-78390689D01*
X104846853Y-78518912D01*
X104846845Y-78518917D01*
X104632661Y-78679252D01*
X104632643Y-78679268D01*
X104443468Y-78868443D01*
X104443452Y-78868461D01*
X104283117Y-79082645D01*
X104283112Y-79082653D01*
X104154889Y-79317475D01*
X104154887Y-79317479D01*
X104061382Y-79568177D01*
X104004511Y-79829611D01*
X104004510Y-79829618D01*
X103985422Y-80096498D01*
X103370500Y-80096498D01*
X103370500Y-78746092D01*
X103371097Y-78733938D01*
X103374717Y-78697185D01*
X103384089Y-78602024D01*
X103388828Y-78578200D01*
X103425532Y-78457202D01*
X103434830Y-78434757D01*
X103494427Y-78323259D01*
X103507930Y-78303050D01*
X103512746Y-78297182D01*
X103588137Y-78205316D01*
X103605316Y-78188137D01*
X103703052Y-78107928D01*
X103723261Y-78094426D01*
X103834757Y-78034830D01*
X103857202Y-78025532D01*
X103978200Y-77988828D01*
X104002024Y-77984089D01*
X104133939Y-77971097D01*
X104146093Y-77970500D01*
X104205892Y-77970500D01*
X113921960Y-77970500D01*
X113988999Y-77990185D01*
G37*
%TD.AperFunction*%
%TA.AperFunction,NonConductor*%
G36*
X106923825Y-81729770D02*
G01*
X106965697Y-81785703D01*
X106970681Y-81855395D01*
X106955245Y-81893823D01*
X106952356Y-81898536D01*
X106854749Y-82134181D01*
X106854744Y-82134198D01*
X106795202Y-82382210D01*
X106775189Y-82636500D01*
X106795202Y-82890789D01*
X106854744Y-83138801D01*
X106854749Y-83138818D01*
X106952356Y-83374463D01*
X106955241Y-83379170D01*
X106973487Y-83446616D01*
X106952372Y-83513219D01*
X106898601Y-83557833D01*
X106829245Y-83566294D01*
X106790088Y-83552794D01*
X106639724Y-83470689D01*
X106639725Y-83470689D01*
X106575182Y-83446616D01*
X106541865Y-83434189D01*
X106485933Y-83392318D01*
X106461516Y-83326854D01*
X106461200Y-83318008D01*
X106461200Y-81954991D01*
X106480885Y-81887952D01*
X106533689Y-81842197D01*
X106541860Y-81838811D01*
X106639719Y-81802313D01*
X106790088Y-81720204D01*
X106858361Y-81705353D01*
X106923825Y-81729770D01*
G37*
%TD.AperFunction*%
%TA.AperFunction,NonConductor*%
G36*
X110011311Y-81720205D02*
G01*
X110161675Y-81802310D01*
X110161678Y-81802312D01*
X110187377Y-81811897D01*
X110259533Y-81838809D01*
X110315467Y-81880680D01*
X110339884Y-81946144D01*
X110340200Y-81954991D01*
X110340200Y-83318008D01*
X110320515Y-83385047D01*
X110267711Y-83430802D01*
X110259538Y-83434187D01*
X110235140Y-83443288D01*
X110161674Y-83470689D01*
X110161668Y-83470692D01*
X110011310Y-83552794D01*
X109943038Y-83567646D01*
X109877573Y-83543229D01*
X109835702Y-83487295D01*
X109830718Y-83417603D01*
X109846161Y-83379166D01*
X109849041Y-83374467D01*
X109946653Y-83138811D01*
X110006198Y-82890786D01*
X110026211Y-82636500D01*
X110006198Y-82382214D01*
X109946653Y-82134189D01*
X109946650Y-82134181D01*
X109849043Y-81898536D01*
X109846160Y-81893832D01*
X109827912Y-81826387D01*
X109849025Y-81759784D01*
X109902795Y-81715168D01*
X109972150Y-81706704D01*
X110011311Y-81720205D01*
G37*
%TD.AperFunction*%
%TA.AperFunction,NonConductor*%
G36*
X107750511Y-85914114D02*
G01*
X107792382Y-85970048D01*
X107800200Y-86013381D01*
X107800200Y-88303130D01*
X107800199Y-88303148D01*
X107800199Y-88468854D01*
X107800198Y-88468854D01*
X107841124Y-88621589D01*
X107841125Y-88621590D01*
X107858345Y-88651415D01*
X107858346Y-88651416D01*
X107920177Y-88758512D01*
X107920181Y-88758517D01*
X108039049Y-88877385D01*
X108039055Y-88877390D01*
X109376746Y-90215081D01*
X109410231Y-90276404D01*
X109405247Y-90346096D01*
X109388332Y-90377072D01*
X109311906Y-90479165D01*
X109311902Y-90479171D01*
X109261608Y-90614017D01*
X109256507Y-90661468D01*
X109255201Y-90673623D01*
X109255200Y-90673635D01*
X109255200Y-91072403D01*
X109235515Y-91139442D01*
X109182711Y-91185197D01*
X109113553Y-91195141D01*
X109049997Y-91166116D01*
X109043519Y-91160084D01*
X106497519Y-88614084D01*
X106464034Y-88552761D01*
X106461200Y-88526403D01*
X106461200Y-87034991D01*
X106480885Y-86967952D01*
X106533689Y-86922197D01*
X106541860Y-86918811D01*
X106639719Y-86882313D01*
X106874552Y-86754084D01*
X107088746Y-86593741D01*
X107277941Y-86404546D01*
X107438284Y-86190352D01*
X107558580Y-85970048D01*
X107567368Y-85953954D01*
X107616773Y-85904549D01*
X107685046Y-85889697D01*
X107750511Y-85914114D01*
G37*
%TD.AperFunction*%
%TA.AperFunction,NonConductor*%
G36*
X110777134Y-96978514D02*
G01*
X110833067Y-97020386D01*
X110857484Y-97085850D01*
X110857800Y-97094696D01*
X110857800Y-99493848D01*
X110838115Y-99560887D01*
X110785311Y-99606642D01*
X110742649Y-99617532D01*
X110703817Y-99620310D01*
X110703811Y-99620311D01*
X110442377Y-99677182D01*
X110191679Y-99770687D01*
X110191675Y-99770689D01*
X109956853Y-99898912D01*
X109956845Y-99898917D01*
X109742661Y-100059252D01*
X109742643Y-100059268D01*
X109553468Y-100248443D01*
X109553452Y-100248461D01*
X109393117Y-100462645D01*
X109393112Y-100462653D01*
X109264032Y-100699045D01*
X109214627Y-100748450D01*
X109146354Y-100763302D01*
X109080889Y-100738885D01*
X109039018Y-100682951D01*
X109031200Y-100639618D01*
X109031200Y-98673296D01*
X109050885Y-98606257D01*
X109067514Y-98585620D01*
X110646119Y-97007014D01*
X110707442Y-96973530D01*
X110777134Y-96978514D01*
G37*
%TD.AperFunction*%
%TA.AperFunction,NonConductor*%
G36*
X106953825Y-103109770D02*
G01*
X106995697Y-103165703D01*
X107000681Y-103235395D01*
X106985245Y-103273823D01*
X106982356Y-103278536D01*
X106884749Y-103514181D01*
X106884744Y-103514198D01*
X106825202Y-103762210D01*
X106805189Y-104016500D01*
X106825202Y-104270789D01*
X106884744Y-104518801D01*
X106884749Y-104518818D01*
X106982356Y-104754463D01*
X106985241Y-104759170D01*
X107003487Y-104826616D01*
X106982372Y-104893219D01*
X106928601Y-104937833D01*
X106859245Y-104946294D01*
X106820088Y-104932794D01*
X106669724Y-104850689D01*
X106669725Y-104850689D01*
X106605182Y-104826616D01*
X106571865Y-104814189D01*
X106515933Y-104772318D01*
X106491516Y-104706854D01*
X106491200Y-104698008D01*
X106491200Y-103334991D01*
X106510885Y-103267952D01*
X106563689Y-103222197D01*
X106571860Y-103218811D01*
X106669719Y-103182313D01*
X106820088Y-103100204D01*
X106888361Y-103085353D01*
X106953825Y-103109770D01*
G37*
%TD.AperFunction*%
%TA.AperFunction,NonConductor*%
G36*
X110041311Y-103100205D02*
G01*
X110191675Y-103182310D01*
X110191678Y-103182312D01*
X110191681Y-103182313D01*
X110289533Y-103218809D01*
X110345467Y-103260680D01*
X110369884Y-103326144D01*
X110370200Y-103334991D01*
X110370200Y-104698008D01*
X110350515Y-104765047D01*
X110297711Y-104810802D01*
X110289538Y-104814187D01*
X110265140Y-104823288D01*
X110191674Y-104850689D01*
X110191668Y-104850692D01*
X110041310Y-104932794D01*
X109973038Y-104947646D01*
X109907573Y-104923229D01*
X109865702Y-104867295D01*
X109860718Y-104797603D01*
X109876161Y-104759166D01*
X109879041Y-104754467D01*
X109976653Y-104518811D01*
X110036198Y-104270786D01*
X110056211Y-104016500D01*
X110036198Y-103762214D01*
X109976653Y-103514189D01*
X109958708Y-103470865D01*
X109879043Y-103278536D01*
X109876160Y-103273832D01*
X109857912Y-103206387D01*
X109879025Y-103139784D01*
X109932795Y-103095168D01*
X110002150Y-103086704D01*
X110041311Y-103100205D01*
G37*
%TD.AperFunction*%
M02*
