%TF.GenerationSoftware,KiCad,Pcbnew,8.0.4*%
%TF.CreationDate,2025-05-02T23:51:14+05:30*%
%TF.ProjectId,Si4735Board,53693437-3335-4426-9f61-72642e6b6963,rev?*%
%TF.SameCoordinates,Original*%
%TF.FileFunction,Drillmap*%
%TF.FilePolarity,Positive*%
%FSLAX45Y45*%
G04 Gerber Fmt 4.5, Leading zero omitted, Abs format (unit mm)*
G04 Created by KiCad (PCBNEW 8.0.4) date 2025-05-02 23:51:14*
%MOMM*%
%LPD*%
G01*
G04 APERTURE LIST*
%ADD10C,0.050000*%
%ADD11C,0.200000*%
G04 APERTURE END LIST*
D10*
X16383000Y-7747000D02*
G75*
G02*
X16510000Y-7874000I0J-127000D01*
G01*
X16510000Y-7874000D02*
X16510000Y-10668000D01*
X10414000Y-7747000D02*
X16383000Y-7747000D01*
X10287000Y-10795000D02*
X10287000Y-7874000D01*
X16256000Y-10922000D02*
X10414000Y-10922000D01*
X10287000Y-7874000D02*
G75*
G02*
X10414000Y-7747000I127000J0D01*
G01*
X16510000Y-10668000D02*
G75*
G02*
X16256000Y-10922000I-254000J0D01*
G01*
X10414000Y-10922000D02*
G75*
G02*
X10287000Y-10795000I0J127000D01*
G01*
D11*
X10545277Y-11235984D02*
X10545277Y-11035984D01*
X10545277Y-11035984D02*
X10592896Y-11035984D01*
X10592896Y-11035984D02*
X10621467Y-11045508D01*
X10621467Y-11045508D02*
X10640515Y-11064555D01*
X10640515Y-11064555D02*
X10650039Y-11083603D01*
X10650039Y-11083603D02*
X10659563Y-11121698D01*
X10659563Y-11121698D02*
X10659563Y-11150270D01*
X10659563Y-11150270D02*
X10650039Y-11188365D01*
X10650039Y-11188365D02*
X10640515Y-11207412D01*
X10640515Y-11207412D02*
X10621467Y-11226460D01*
X10621467Y-11226460D02*
X10592896Y-11235984D01*
X10592896Y-11235984D02*
X10545277Y-11235984D01*
X10745277Y-11235984D02*
X10745277Y-11102650D01*
X10745277Y-11140746D02*
X10754801Y-11121698D01*
X10754801Y-11121698D02*
X10764324Y-11112174D01*
X10764324Y-11112174D02*
X10783372Y-11102650D01*
X10783372Y-11102650D02*
X10802420Y-11102650D01*
X10869086Y-11235984D02*
X10869086Y-11102650D01*
X10869086Y-11035984D02*
X10859563Y-11045508D01*
X10859563Y-11045508D02*
X10869086Y-11055031D01*
X10869086Y-11055031D02*
X10878610Y-11045508D01*
X10878610Y-11045508D02*
X10869086Y-11035984D01*
X10869086Y-11035984D02*
X10869086Y-11055031D01*
X10992896Y-11235984D02*
X10973848Y-11226460D01*
X10973848Y-11226460D02*
X10964324Y-11207412D01*
X10964324Y-11207412D02*
X10964324Y-11035984D01*
X11097658Y-11235984D02*
X11078610Y-11226460D01*
X11078610Y-11226460D02*
X11069086Y-11207412D01*
X11069086Y-11207412D02*
X11069086Y-11035984D01*
X11326229Y-11235984D02*
X11326229Y-11035984D01*
X11326229Y-11035984D02*
X11392896Y-11178841D01*
X11392896Y-11178841D02*
X11459562Y-11035984D01*
X11459562Y-11035984D02*
X11459562Y-11235984D01*
X11640515Y-11235984D02*
X11640515Y-11131222D01*
X11640515Y-11131222D02*
X11630991Y-11112174D01*
X11630991Y-11112174D02*
X11611943Y-11102650D01*
X11611943Y-11102650D02*
X11573848Y-11102650D01*
X11573848Y-11102650D02*
X11554801Y-11112174D01*
X11640515Y-11226460D02*
X11621467Y-11235984D01*
X11621467Y-11235984D02*
X11573848Y-11235984D01*
X11573848Y-11235984D02*
X11554801Y-11226460D01*
X11554801Y-11226460D02*
X11545277Y-11207412D01*
X11545277Y-11207412D02*
X11545277Y-11188365D01*
X11545277Y-11188365D02*
X11554801Y-11169317D01*
X11554801Y-11169317D02*
X11573848Y-11159793D01*
X11573848Y-11159793D02*
X11621467Y-11159793D01*
X11621467Y-11159793D02*
X11640515Y-11150270D01*
X11735753Y-11102650D02*
X11735753Y-11302650D01*
X11735753Y-11112174D02*
X11754801Y-11102650D01*
X11754801Y-11102650D02*
X11792896Y-11102650D01*
X11792896Y-11102650D02*
X11811943Y-11112174D01*
X11811943Y-11112174D02*
X11821467Y-11121698D01*
X11821467Y-11121698D02*
X11830991Y-11140746D01*
X11830991Y-11140746D02*
X11830991Y-11197888D01*
X11830991Y-11197888D02*
X11821467Y-11216936D01*
X11821467Y-11216936D02*
X11811943Y-11226460D01*
X11811943Y-11226460D02*
X11792896Y-11235984D01*
X11792896Y-11235984D02*
X11754801Y-11235984D01*
X11754801Y-11235984D02*
X11735753Y-11226460D01*
X11916705Y-11216936D02*
X11926229Y-11226460D01*
X11926229Y-11226460D02*
X11916705Y-11235984D01*
X11916705Y-11235984D02*
X11907182Y-11226460D01*
X11907182Y-11226460D02*
X11916705Y-11216936D01*
X11916705Y-11216936D02*
X11916705Y-11235984D01*
X11916705Y-11112174D02*
X11926229Y-11121698D01*
X11926229Y-11121698D02*
X11916705Y-11131222D01*
X11916705Y-11131222D02*
X11907182Y-11121698D01*
X11907182Y-11121698D02*
X11916705Y-11112174D01*
X11916705Y-11112174D02*
X11916705Y-11131222D01*
M02*
