M48
; DRILL file {KiCad 8.0.4} date 2025-05-02T23:51:12+0530
; FORMAT={-:-/ absolute / inch / decimal}
; #@! TF.CreationDate,2025-05-02T23:51:12+05:30
; #@! TF.GenerationSoftware,Kicad,Pcbnew,8.0.4
; #@! TF.FileFunction,Plated,1,2,PTH
FMAT,2
INCH
; #@! TA.AperFunction,Plated,PTH,ViaDrill
T1C0.0118
; #@! TA.AperFunction,Plated,PTH,ComponentDrill
T2C0.0197
; #@! TA.AperFunction,Plated,PTH,ComponentDrill
T3C0.0295
; #@! TA.AperFunction,Plated,PTH,ComponentDrill
T4C0.0315
; #@! TA.AperFunction,Plated,PTH,ComponentDrill
T5C0.0394
; #@! TA.AperFunction,Plated,PTH,ComponentDrill
T6C0.0472
; #@! TA.AperFunction,Plated,PTH,ComponentDrill
T7C0.0669
; #@! TA.AperFunction,Plated,PTH,ComponentDrill
T8C0.0866
%
G90
G05
T1
X4.9293Y-3.4509
X5.1499Y-3.4484
X5.2047Y-3.6296
X5.2092Y-3.5384
X5.397Y-3.9334
X5.4816Y-3.7282
X5.582Y-3.671
X5.601Y-3.4758
X5.6415Y-3.8733
X5.7164Y-3.6619
X5.7221Y-3.5205
X5.7656Y-3.6719
X6.0663Y-3.8305
T2
X5.5555Y-4.0692
X5.5555Y-4.144
T3
X6.1355Y-3.3522
X6.1355Y-3.7522
T4
X4.3477Y-3.5983
X4.3477Y-3.677
X4.3477Y-3.7558
X4.55Y-3.7
X4.55Y-4.1
X4.7319Y-3.7243
X4.7319Y-4.1243
X4.9603Y-3.7282
X4.9603Y-4.1282
X5.2579Y-3.5629
X5.2579Y-3.6416
X5.2579Y-3.7203
T5
X4.8092Y-3.153
X4.9092Y-3.153
X5.0092Y-3.153
X5.1092Y-3.153
X5.2092Y-3.153
X5.3092Y-3.153
X5.4092Y-3.153
X5.6514Y-3.153
X5.7514Y-3.153
X5.8514Y-3.153
X5.9514Y-3.153
X6.0514Y-3.153
X6.1514Y-3.153
X6.2514Y-3.153
X6.315Y-3.3892
X6.315Y-3.4892
X6.315Y-3.5892
X6.315Y-3.6892
X6.315Y-3.7892
T6
X4.2677Y-3.2534
X4.2689Y-4.0951
T7
X4.1677Y-3.1534
X4.1677Y-3.3534
X4.1689Y-3.9951
X4.1689Y-4.1951
X4.3677Y-3.1534
X4.3677Y-3.3534
X4.3689Y-3.9951
X4.3689Y-4.1951
T8
X4.55Y-3.15
X6.4Y-4.15
M30
