%TF.GenerationSoftware,KiCad,Pcbnew,8.0.4*%
%TF.CreationDate,2025-05-02T23:51:14+05:30*%
%TF.ProjectId,Si4735Board,53693437-3335-4426-9f61-72642e6b6963,rev?*%
%TF.SameCoordinates,Original*%
%TF.FileFunction,Drillmap*%
%TF.FilePolarity,Positive*%
%FSLAX45Y45*%
G04 Gerber Fmt 4.5, Leading zero omitted, Abs format (unit mm)*
G04 Created by KiCad (PCBNEW 8.0.4) date 2025-05-02 23:51:14*
%MOMM*%
%LPD*%
G01*
G04 APERTURE LIST*
%ADD10C,0.050000*%
%ADD11C,0.200000*%
%ADD12C,0.100000*%
%ADD13C,0.120000*%
%ADD14C,0.170000*%
%ADD15C,0.220000*%
G04 APERTURE END LIST*
D10*
X16383000Y-7747000D02*
G75*
G02*
X16510000Y-7874000I0J-127000D01*
G01*
X16510000Y-7874000D02*
X16510000Y-10668000D01*
X10414000Y-7747000D02*
X16383000Y-7747000D01*
X10287000Y-10795000D02*
X10287000Y-7874000D01*
X16256000Y-10922000D02*
X10414000Y-10922000D01*
X10287000Y-7874000D02*
G75*
G02*
X10414000Y-7747000I127000J0D01*
G01*
X16510000Y-10668000D02*
G75*
G02*
X16256000Y-10922000I-254000J0D01*
G01*
X10414000Y-10922000D02*
G75*
G02*
X10287000Y-10795000I0J127000D01*
G01*
D11*
D12*
X12505430Y-8750220D02*
X12535430Y-8780220D01*
X12535430Y-8750220D02*
X12505430Y-8780220D01*
X13065840Y-8743970D02*
X13095840Y-8773970D01*
X13095840Y-8743970D02*
X13065840Y-8773970D01*
X13204880Y-9204260D02*
X13234880Y-9234260D01*
X13234880Y-9204260D02*
X13204880Y-9234260D01*
X13216430Y-8972610D02*
X13246430Y-9002610D01*
X13246430Y-8972610D02*
X13216430Y-9002610D01*
X13693450Y-9975940D02*
X13723450Y-10005940D01*
X13723450Y-9975940D02*
X13693450Y-10005940D01*
X13908330Y-9454670D02*
X13938330Y-9484670D01*
X13938330Y-9454670D02*
X13908330Y-9484670D01*
X14163380Y-9309280D02*
X14193380Y-9339280D01*
X14193380Y-9309280D02*
X14163380Y-9339280D01*
X14211430Y-8813510D02*
X14241430Y-8843510D01*
X14241430Y-8813510D02*
X14211430Y-8843510D01*
X14314490Y-9823140D02*
X14344490Y-9853140D01*
X14344490Y-9823140D02*
X14314490Y-9853140D01*
X14504770Y-9286350D02*
X14534770Y-9316350D01*
X14534770Y-9286350D02*
X14504770Y-9316350D01*
X14519260Y-8926950D02*
X14549260Y-8956950D01*
X14549260Y-8926950D02*
X14519260Y-8956950D01*
X14629620Y-9311560D02*
X14659620Y-9341560D01*
X14659620Y-9311560D02*
X14629620Y-9341560D01*
X15393360Y-9714380D02*
X15423360Y-9744380D01*
X15423360Y-9714380D02*
X15393360Y-9744380D01*
X14136070Y-10335650D02*
G75*
G02*
X14086070Y-10335650I-25000J0D01*
G01*
X14086070Y-10335650D02*
G75*
G02*
X14136070Y-10335650I25000J0D01*
G01*
X14136070Y-10525650D02*
G75*
G02*
X14086070Y-10525650I-25000J0D01*
G01*
X14086070Y-10525650D02*
G75*
G02*
X14136070Y-10525650I25000J0D01*
G01*
X15584070Y-8477150D02*
X15584070Y-8552150D01*
X15546570Y-8514650D02*
X15621570Y-8514650D01*
X15584070Y-9493150D02*
X15584070Y-9568150D01*
X15546570Y-9530650D02*
X15621570Y-9530650D01*
X11071355Y-9167935D02*
X11071355Y-9111366D01*
X11014786Y-9111366D01*
X11014786Y-9167935D01*
X11071355Y-9167935D01*
X11071355Y-9367935D02*
X11071355Y-9311366D01*
X11014786Y-9311366D01*
X11014786Y-9367935D01*
X11071355Y-9367935D01*
X11071355Y-9567935D02*
X11071355Y-9511366D01*
X11014786Y-9511366D01*
X11014786Y-9567935D01*
X11071355Y-9567935D01*
X11585284Y-9426285D02*
X11585284Y-9369716D01*
X11528715Y-9369716D01*
X11528715Y-9426285D01*
X11585284Y-9426285D01*
X11585284Y-10442285D02*
X11585284Y-10385716D01*
X11528715Y-10385716D01*
X11528715Y-10442285D01*
X11585284Y-10442285D01*
X12047354Y-9487935D02*
X12047354Y-9431366D01*
X11990785Y-9431366D01*
X11990785Y-9487935D01*
X12047354Y-9487935D01*
X12047354Y-10503935D02*
X12047354Y-10447366D01*
X11990785Y-10447366D01*
X11990785Y-10503935D01*
X12047354Y-10503935D01*
X12627354Y-9497935D02*
X12627354Y-9441366D01*
X12570785Y-9441366D01*
X12570785Y-9497935D01*
X12627354Y-9497935D01*
X12627354Y-10513935D02*
X12627354Y-10457366D01*
X12570785Y-10457366D01*
X12570785Y-10513935D01*
X12627354Y-10513935D01*
X13383354Y-9077935D02*
X13383354Y-9021366D01*
X13326785Y-9021366D01*
X13326785Y-9077935D01*
X13383354Y-9077935D01*
X13383354Y-9277935D02*
X13383354Y-9221366D01*
X13326785Y-9221366D01*
X13326785Y-9277935D01*
X13383354Y-9277935D01*
X13383354Y-9477935D02*
X13383354Y-9421366D01*
X13326785Y-9421366D01*
X13326785Y-9477935D01*
X13383354Y-9477935D01*
X12215410Y-8058650D02*
X12265410Y-8008650D01*
X12215410Y-7958650D01*
X12165410Y-8008650D01*
X12215410Y-8058650D01*
X12469410Y-8058650D02*
X12519410Y-8008650D01*
X12469410Y-7958650D01*
X12419410Y-8008650D01*
X12469410Y-8058650D01*
X12723410Y-8058650D02*
X12773410Y-8008650D01*
X12723410Y-7958650D01*
X12673410Y-8008650D01*
X12723410Y-8058650D01*
X12977410Y-8058650D02*
X13027410Y-8008650D01*
X12977410Y-7958650D01*
X12927410Y-8008650D01*
X12977410Y-8058650D01*
X13231410Y-8058650D02*
X13281410Y-8008650D01*
X13231410Y-7958650D01*
X13181410Y-8008650D01*
X13231410Y-8058650D01*
X13485410Y-8058650D02*
X13535410Y-8008650D01*
X13485410Y-7958650D01*
X13435410Y-8008650D01*
X13485410Y-8058650D01*
X13739410Y-8058650D02*
X13789410Y-8008650D01*
X13739410Y-7958650D01*
X13689410Y-8008650D01*
X13739410Y-8058650D01*
X14354630Y-8058650D02*
X14404630Y-8008650D01*
X14354630Y-7958650D01*
X14304630Y-8008650D01*
X14354630Y-8058650D01*
X14608630Y-8058650D02*
X14658630Y-8008650D01*
X14608630Y-7958650D01*
X14558630Y-8008650D01*
X14608630Y-8058650D01*
X14862630Y-8058650D02*
X14912630Y-8008650D01*
X14862630Y-7958650D01*
X14812630Y-8008650D01*
X14862630Y-8058650D01*
X15116630Y-8058650D02*
X15166630Y-8008650D01*
X15116630Y-7958650D01*
X15066630Y-8008650D01*
X15116630Y-8058650D01*
X15370630Y-8058650D02*
X15420630Y-8008650D01*
X15370630Y-7958650D01*
X15320630Y-8008650D01*
X15370630Y-8058650D01*
X15624630Y-8058650D02*
X15674630Y-8008650D01*
X15624630Y-7958650D01*
X15574630Y-8008650D01*
X15624630Y-8058650D01*
X15878630Y-8058650D02*
X15928630Y-8008650D01*
X15878630Y-7958650D01*
X15828630Y-8008650D01*
X15878630Y-8058650D01*
X16040070Y-8658650D02*
X16090070Y-8608650D01*
X16040070Y-8558650D01*
X15990070Y-8608650D01*
X16040070Y-8658650D01*
X16040070Y-8912650D02*
X16090070Y-8862650D01*
X16040070Y-8812650D01*
X15990070Y-8862650D01*
X16040070Y-8912650D01*
X16040070Y-9166650D02*
X16090070Y-9116650D01*
X16040070Y-9066650D01*
X15990070Y-9116650D01*
X16040070Y-9166650D01*
X16040070Y-9420650D02*
X16090070Y-9370650D01*
X16040070Y-9320650D01*
X15990070Y-9370650D01*
X16040070Y-9420650D01*
X16040070Y-9674650D02*
X16090070Y-9624650D01*
X16040070Y-9574650D01*
X15990070Y-9624650D01*
X16040070Y-9674650D01*
D13*
X10780070Y-8203650D02*
X10900070Y-8323650D01*
X10900070Y-8203650D02*
X10780070Y-8323650D01*
X10900070Y-8263650D02*
G75*
G02*
X10780070Y-8263650I-60000J0D01*
G01*
X10780070Y-8263650D02*
G75*
G02*
X10900070Y-8263650I60000J0D01*
G01*
X10783070Y-10341650D02*
X10903070Y-10461650D01*
X10903070Y-10341650D02*
X10783070Y-10461650D01*
X10903070Y-10401650D02*
G75*
G02*
X10783070Y-10401650I-60000J0D01*
G01*
X10783070Y-10401650D02*
G75*
G02*
X10903070Y-10401650I60000J0D01*
G01*
D14*
X10501070Y-7924650D02*
X10671070Y-8094650D01*
X10671070Y-7924650D02*
X10501070Y-8094650D01*
X10586070Y-7924650D02*
X10586070Y-8094650D01*
X10501070Y-8009650D02*
X10671070Y-8009650D01*
X10501070Y-8432650D02*
X10671070Y-8602650D01*
X10671070Y-8432650D02*
X10501070Y-8602650D01*
X10586070Y-8432650D02*
X10586070Y-8602650D01*
X10501070Y-8517650D02*
X10671070Y-8517650D01*
X10504070Y-10062650D02*
X10674070Y-10232650D01*
X10674070Y-10062650D02*
X10504070Y-10232650D01*
X10589070Y-10062650D02*
X10589070Y-10232650D01*
X10504070Y-10147650D02*
X10674070Y-10147650D01*
X10504070Y-10570650D02*
X10674070Y-10740650D01*
X10674070Y-10570650D02*
X10504070Y-10740650D01*
X10589070Y-10570650D02*
X10589070Y-10740650D01*
X10504070Y-10655650D02*
X10674070Y-10655650D01*
X11009070Y-7924650D02*
X11179070Y-8094650D01*
X11179070Y-7924650D02*
X11009070Y-8094650D01*
X11094070Y-7924650D02*
X11094070Y-8094650D01*
X11009070Y-8009650D02*
X11179070Y-8009650D01*
X11009070Y-8432650D02*
X11179070Y-8602650D01*
X11179070Y-8432650D02*
X11009070Y-8602650D01*
X11094070Y-8432650D02*
X11094070Y-8602650D01*
X11009070Y-8517650D02*
X11179070Y-8517650D01*
X11012070Y-10062650D02*
X11182070Y-10232650D01*
X11182070Y-10062650D02*
X11012070Y-10232650D01*
X11097070Y-10062650D02*
X11097070Y-10232650D01*
X11012070Y-10147650D02*
X11182070Y-10147650D01*
X11012070Y-10570650D02*
X11182070Y-10740650D01*
X11182070Y-10570650D02*
X11012070Y-10740650D01*
X11097070Y-10570650D02*
X11097070Y-10740650D01*
X11012070Y-10655650D02*
X11182070Y-10655650D01*
D15*
X11447000Y-7891000D02*
X11667000Y-8111000D01*
X11667000Y-7891000D02*
X11447000Y-8111000D01*
X11634782Y-8078782D02*
X11634782Y-7923217D01*
X11479217Y-7923217D01*
X11479217Y-8078782D01*
X11634782Y-8078782D01*
X16146000Y-10431000D02*
X16366000Y-10651000D01*
X16366000Y-10431000D02*
X16146000Y-10651000D01*
X16333782Y-10618783D02*
X16333782Y-10463218D01*
X16178217Y-10463218D01*
X16178217Y-10618783D01*
X16333782Y-10618783D01*
D11*
X10545277Y-11235984D02*
X10545277Y-11035984D01*
X10545277Y-11035984D02*
X10592896Y-11035984D01*
X10592896Y-11035984D02*
X10621467Y-11045508D01*
X10621467Y-11045508D02*
X10640515Y-11064555D01*
X10640515Y-11064555D02*
X10650039Y-11083603D01*
X10650039Y-11083603D02*
X10659563Y-11121698D01*
X10659563Y-11121698D02*
X10659563Y-11150270D01*
X10659563Y-11150270D02*
X10650039Y-11188365D01*
X10650039Y-11188365D02*
X10640515Y-11207412D01*
X10640515Y-11207412D02*
X10621467Y-11226460D01*
X10621467Y-11226460D02*
X10592896Y-11235984D01*
X10592896Y-11235984D02*
X10545277Y-11235984D01*
X10745277Y-11235984D02*
X10745277Y-11102650D01*
X10745277Y-11140746D02*
X10754801Y-11121698D01*
X10754801Y-11121698D02*
X10764324Y-11112174D01*
X10764324Y-11112174D02*
X10783372Y-11102650D01*
X10783372Y-11102650D02*
X10802420Y-11102650D01*
X10869086Y-11235984D02*
X10869086Y-11102650D01*
X10869086Y-11035984D02*
X10859563Y-11045508D01*
X10859563Y-11045508D02*
X10869086Y-11055031D01*
X10869086Y-11055031D02*
X10878610Y-11045508D01*
X10878610Y-11045508D02*
X10869086Y-11035984D01*
X10869086Y-11035984D02*
X10869086Y-11055031D01*
X10992896Y-11235984D02*
X10973848Y-11226460D01*
X10973848Y-11226460D02*
X10964324Y-11207412D01*
X10964324Y-11207412D02*
X10964324Y-11035984D01*
X11097658Y-11235984D02*
X11078610Y-11226460D01*
X11078610Y-11226460D02*
X11069086Y-11207412D01*
X11069086Y-11207412D02*
X11069086Y-11035984D01*
X11326229Y-11235984D02*
X11326229Y-11035984D01*
X11326229Y-11035984D02*
X11392896Y-11178841D01*
X11392896Y-11178841D02*
X11459562Y-11035984D01*
X11459562Y-11035984D02*
X11459562Y-11235984D01*
X11640515Y-11235984D02*
X11640515Y-11131222D01*
X11640515Y-11131222D02*
X11630991Y-11112174D01*
X11630991Y-11112174D02*
X11611943Y-11102650D01*
X11611943Y-11102650D02*
X11573848Y-11102650D01*
X11573848Y-11102650D02*
X11554801Y-11112174D01*
X11640515Y-11226460D02*
X11621467Y-11235984D01*
X11621467Y-11235984D02*
X11573848Y-11235984D01*
X11573848Y-11235984D02*
X11554801Y-11226460D01*
X11554801Y-11226460D02*
X11545277Y-11207412D01*
X11545277Y-11207412D02*
X11545277Y-11188365D01*
X11545277Y-11188365D02*
X11554801Y-11169317D01*
X11554801Y-11169317D02*
X11573848Y-11159793D01*
X11573848Y-11159793D02*
X11621467Y-11159793D01*
X11621467Y-11159793D02*
X11640515Y-11150270D01*
X11735753Y-11102650D02*
X11735753Y-11302650D01*
X11735753Y-11112174D02*
X11754801Y-11102650D01*
X11754801Y-11102650D02*
X11792896Y-11102650D01*
X11792896Y-11102650D02*
X11811943Y-11112174D01*
X11811943Y-11112174D02*
X11821467Y-11121698D01*
X11821467Y-11121698D02*
X11830991Y-11140746D01*
X11830991Y-11140746D02*
X11830991Y-11197888D01*
X11830991Y-11197888D02*
X11821467Y-11216936D01*
X11821467Y-11216936D02*
X11811943Y-11226460D01*
X11811943Y-11226460D02*
X11792896Y-11235984D01*
X11792896Y-11235984D02*
X11754801Y-11235984D01*
X11754801Y-11235984D02*
X11735753Y-11226460D01*
X11916705Y-11216936D02*
X11926229Y-11226460D01*
X11926229Y-11226460D02*
X11916705Y-11235984D01*
X11916705Y-11235984D02*
X11907182Y-11226460D01*
X11907182Y-11226460D02*
X11916705Y-11216936D01*
X11916705Y-11216936D02*
X11916705Y-11235984D01*
X11916705Y-11112174D02*
X11926229Y-11121698D01*
X11926229Y-11121698D02*
X11916705Y-11131222D01*
X11916705Y-11131222D02*
X11907182Y-11121698D01*
X11907182Y-11121698D02*
X11916705Y-11112174D01*
X11916705Y-11112174D02*
X11916705Y-11131222D01*
D12*
X10254500Y-11549500D02*
X10284500Y-11579500D01*
X10284500Y-11549500D02*
X10254500Y-11579500D01*
D11*
X10583372Y-11455984D02*
X10602420Y-11455984D01*
X10602420Y-11455984D02*
X10621467Y-11465508D01*
X10621467Y-11465508D02*
X10630991Y-11475031D01*
X10630991Y-11475031D02*
X10640515Y-11494079D01*
X10640515Y-11494079D02*
X10650039Y-11532174D01*
X10650039Y-11532174D02*
X10650039Y-11579793D01*
X10650039Y-11579793D02*
X10640515Y-11617888D01*
X10640515Y-11617888D02*
X10630991Y-11636936D01*
X10630991Y-11636936D02*
X10621467Y-11646460D01*
X10621467Y-11646460D02*
X10602420Y-11655984D01*
X10602420Y-11655984D02*
X10583372Y-11655984D01*
X10583372Y-11655984D02*
X10564324Y-11646460D01*
X10564324Y-11646460D02*
X10554801Y-11636936D01*
X10554801Y-11636936D02*
X10545277Y-11617888D01*
X10545277Y-11617888D02*
X10535753Y-11579793D01*
X10535753Y-11579793D02*
X10535753Y-11532174D01*
X10535753Y-11532174D02*
X10545277Y-11494079D01*
X10545277Y-11494079D02*
X10554801Y-11475031D01*
X10554801Y-11475031D02*
X10564324Y-11465508D01*
X10564324Y-11465508D02*
X10583372Y-11455984D01*
X10735753Y-11636936D02*
X10745277Y-11646460D01*
X10745277Y-11646460D02*
X10735753Y-11655984D01*
X10735753Y-11655984D02*
X10726229Y-11646460D01*
X10726229Y-11646460D02*
X10735753Y-11636936D01*
X10735753Y-11636936D02*
X10735753Y-11655984D01*
X10811944Y-11455984D02*
X10935753Y-11455984D01*
X10935753Y-11455984D02*
X10869086Y-11532174D01*
X10869086Y-11532174D02*
X10897658Y-11532174D01*
X10897658Y-11532174D02*
X10916705Y-11541698D01*
X10916705Y-11541698D02*
X10926229Y-11551222D01*
X10926229Y-11551222D02*
X10935753Y-11570269D01*
X10935753Y-11570269D02*
X10935753Y-11617888D01*
X10935753Y-11617888D02*
X10926229Y-11636936D01*
X10926229Y-11636936D02*
X10916705Y-11646460D01*
X10916705Y-11646460D02*
X10897658Y-11655984D01*
X10897658Y-11655984D02*
X10840515Y-11655984D01*
X10840515Y-11655984D02*
X10821467Y-11646460D01*
X10821467Y-11646460D02*
X10811944Y-11636936D01*
X11059563Y-11455984D02*
X11078610Y-11455984D01*
X11078610Y-11455984D02*
X11097658Y-11465508D01*
X11097658Y-11465508D02*
X11107182Y-11475031D01*
X11107182Y-11475031D02*
X11116705Y-11494079D01*
X11116705Y-11494079D02*
X11126229Y-11532174D01*
X11126229Y-11532174D02*
X11126229Y-11579793D01*
X11126229Y-11579793D02*
X11116705Y-11617888D01*
X11116705Y-11617888D02*
X11107182Y-11636936D01*
X11107182Y-11636936D02*
X11097658Y-11646460D01*
X11097658Y-11646460D02*
X11078610Y-11655984D01*
X11078610Y-11655984D02*
X11059563Y-11655984D01*
X11059563Y-11655984D02*
X11040515Y-11646460D01*
X11040515Y-11646460D02*
X11030991Y-11636936D01*
X11030991Y-11636936D02*
X11021467Y-11617888D01*
X11021467Y-11617888D02*
X11011944Y-11579793D01*
X11011944Y-11579793D02*
X11011944Y-11532174D01*
X11011944Y-11532174D02*
X11021467Y-11494079D01*
X11021467Y-11494079D02*
X11030991Y-11475031D01*
X11030991Y-11475031D02*
X11040515Y-11465508D01*
X11040515Y-11465508D02*
X11059563Y-11455984D01*
X11250039Y-11455984D02*
X11269086Y-11455984D01*
X11269086Y-11455984D02*
X11288134Y-11465508D01*
X11288134Y-11465508D02*
X11297658Y-11475031D01*
X11297658Y-11475031D02*
X11307182Y-11494079D01*
X11307182Y-11494079D02*
X11316705Y-11532174D01*
X11316705Y-11532174D02*
X11316705Y-11579793D01*
X11316705Y-11579793D02*
X11307182Y-11617888D01*
X11307182Y-11617888D02*
X11297658Y-11636936D01*
X11297658Y-11636936D02*
X11288134Y-11646460D01*
X11288134Y-11646460D02*
X11269086Y-11655984D01*
X11269086Y-11655984D02*
X11250039Y-11655984D01*
X11250039Y-11655984D02*
X11230991Y-11646460D01*
X11230991Y-11646460D02*
X11221467Y-11636936D01*
X11221467Y-11636936D02*
X11211943Y-11617888D01*
X11211943Y-11617888D02*
X11202420Y-11579793D01*
X11202420Y-11579793D02*
X11202420Y-11532174D01*
X11202420Y-11532174D02*
X11211943Y-11494079D01*
X11211943Y-11494079D02*
X11221467Y-11475031D01*
X11221467Y-11475031D02*
X11230991Y-11465508D01*
X11230991Y-11465508D02*
X11250039Y-11455984D01*
X11402420Y-11655984D02*
X11402420Y-11522650D01*
X11402420Y-11541698D02*
X11411943Y-11532174D01*
X11411943Y-11532174D02*
X11430991Y-11522650D01*
X11430991Y-11522650D02*
X11459563Y-11522650D01*
X11459563Y-11522650D02*
X11478610Y-11532174D01*
X11478610Y-11532174D02*
X11488134Y-11551222D01*
X11488134Y-11551222D02*
X11488134Y-11655984D01*
X11488134Y-11551222D02*
X11497658Y-11532174D01*
X11497658Y-11532174D02*
X11516705Y-11522650D01*
X11516705Y-11522650D02*
X11545277Y-11522650D01*
X11545277Y-11522650D02*
X11564324Y-11532174D01*
X11564324Y-11532174D02*
X11573848Y-11551222D01*
X11573848Y-11551222D02*
X11573848Y-11655984D01*
X11669086Y-11655984D02*
X11669086Y-11522650D01*
X11669086Y-11541698D02*
X11678610Y-11532174D01*
X11678610Y-11532174D02*
X11697658Y-11522650D01*
X11697658Y-11522650D02*
X11726229Y-11522650D01*
X11726229Y-11522650D02*
X11745277Y-11532174D01*
X11745277Y-11532174D02*
X11754801Y-11551222D01*
X11754801Y-11551222D02*
X11754801Y-11655984D01*
X11754801Y-11551222D02*
X11764324Y-11532174D01*
X11764324Y-11532174D02*
X11783372Y-11522650D01*
X11783372Y-11522650D02*
X11811943Y-11522650D01*
X11811943Y-11522650D02*
X11830991Y-11532174D01*
X11830991Y-11532174D02*
X11840515Y-11551222D01*
X11840515Y-11551222D02*
X11840515Y-11655984D01*
X12230991Y-11446460D02*
X12059563Y-11703603D01*
X12488134Y-11455984D02*
X12507182Y-11455984D01*
X12507182Y-11455984D02*
X12526229Y-11465508D01*
X12526229Y-11465508D02*
X12535753Y-11475031D01*
X12535753Y-11475031D02*
X12545277Y-11494079D01*
X12545277Y-11494079D02*
X12554801Y-11532174D01*
X12554801Y-11532174D02*
X12554801Y-11579793D01*
X12554801Y-11579793D02*
X12545277Y-11617888D01*
X12545277Y-11617888D02*
X12535753Y-11636936D01*
X12535753Y-11636936D02*
X12526229Y-11646460D01*
X12526229Y-11646460D02*
X12507182Y-11655984D01*
X12507182Y-11655984D02*
X12488134Y-11655984D01*
X12488134Y-11655984D02*
X12469086Y-11646460D01*
X12469086Y-11646460D02*
X12459563Y-11636936D01*
X12459563Y-11636936D02*
X12450039Y-11617888D01*
X12450039Y-11617888D02*
X12440515Y-11579793D01*
X12440515Y-11579793D02*
X12440515Y-11532174D01*
X12440515Y-11532174D02*
X12450039Y-11494079D01*
X12450039Y-11494079D02*
X12459563Y-11475031D01*
X12459563Y-11475031D02*
X12469086Y-11465508D01*
X12469086Y-11465508D02*
X12488134Y-11455984D01*
X12640515Y-11636936D02*
X12650039Y-11646460D01*
X12650039Y-11646460D02*
X12640515Y-11655984D01*
X12640515Y-11655984D02*
X12630991Y-11646460D01*
X12630991Y-11646460D02*
X12640515Y-11636936D01*
X12640515Y-11636936D02*
X12640515Y-11655984D01*
X12773848Y-11455984D02*
X12792896Y-11455984D01*
X12792896Y-11455984D02*
X12811944Y-11465508D01*
X12811944Y-11465508D02*
X12821467Y-11475031D01*
X12821467Y-11475031D02*
X12830991Y-11494079D01*
X12830991Y-11494079D02*
X12840515Y-11532174D01*
X12840515Y-11532174D02*
X12840515Y-11579793D01*
X12840515Y-11579793D02*
X12830991Y-11617888D01*
X12830991Y-11617888D02*
X12821467Y-11636936D01*
X12821467Y-11636936D02*
X12811944Y-11646460D01*
X12811944Y-11646460D02*
X12792896Y-11655984D01*
X12792896Y-11655984D02*
X12773848Y-11655984D01*
X12773848Y-11655984D02*
X12754801Y-11646460D01*
X12754801Y-11646460D02*
X12745277Y-11636936D01*
X12745277Y-11636936D02*
X12735753Y-11617888D01*
X12735753Y-11617888D02*
X12726229Y-11579793D01*
X12726229Y-11579793D02*
X12726229Y-11532174D01*
X12726229Y-11532174D02*
X12735753Y-11494079D01*
X12735753Y-11494079D02*
X12745277Y-11475031D01*
X12745277Y-11475031D02*
X12754801Y-11465508D01*
X12754801Y-11465508D02*
X12773848Y-11455984D01*
X13030991Y-11655984D02*
X12916706Y-11655984D01*
X12973848Y-11655984D02*
X12973848Y-11455984D01*
X12973848Y-11455984D02*
X12954801Y-11484555D01*
X12954801Y-11484555D02*
X12935753Y-11503603D01*
X12935753Y-11503603D02*
X12916706Y-11513127D01*
X13221467Y-11655984D02*
X13107182Y-11655984D01*
X13164325Y-11655984D02*
X13164325Y-11455984D01*
X13164325Y-11455984D02*
X13145277Y-11484555D01*
X13145277Y-11484555D02*
X13126229Y-11503603D01*
X13126229Y-11503603D02*
X13107182Y-11513127D01*
X13335753Y-11541698D02*
X13316706Y-11532174D01*
X13316706Y-11532174D02*
X13307182Y-11522650D01*
X13307182Y-11522650D02*
X13297658Y-11503603D01*
X13297658Y-11503603D02*
X13297658Y-11494079D01*
X13297658Y-11494079D02*
X13307182Y-11475031D01*
X13307182Y-11475031D02*
X13316706Y-11465508D01*
X13316706Y-11465508D02*
X13335753Y-11455984D01*
X13335753Y-11455984D02*
X13373848Y-11455984D01*
X13373848Y-11455984D02*
X13392896Y-11465508D01*
X13392896Y-11465508D02*
X13402420Y-11475031D01*
X13402420Y-11475031D02*
X13411944Y-11494079D01*
X13411944Y-11494079D02*
X13411944Y-11503603D01*
X13411944Y-11503603D02*
X13402420Y-11522650D01*
X13402420Y-11522650D02*
X13392896Y-11532174D01*
X13392896Y-11532174D02*
X13373848Y-11541698D01*
X13373848Y-11541698D02*
X13335753Y-11541698D01*
X13335753Y-11541698D02*
X13316706Y-11551222D01*
X13316706Y-11551222D02*
X13307182Y-11560746D01*
X13307182Y-11560746D02*
X13297658Y-11579793D01*
X13297658Y-11579793D02*
X13297658Y-11617888D01*
X13297658Y-11617888D02*
X13307182Y-11636936D01*
X13307182Y-11636936D02*
X13316706Y-11646460D01*
X13316706Y-11646460D02*
X13335753Y-11655984D01*
X13335753Y-11655984D02*
X13373848Y-11655984D01*
X13373848Y-11655984D02*
X13392896Y-11646460D01*
X13392896Y-11646460D02*
X13402420Y-11636936D01*
X13402420Y-11636936D02*
X13411944Y-11617888D01*
X13411944Y-11617888D02*
X13411944Y-11579793D01*
X13411944Y-11579793D02*
X13402420Y-11560746D01*
X13402420Y-11560746D02*
X13392896Y-11551222D01*
X13392896Y-11551222D02*
X13373848Y-11541698D01*
X13488134Y-11455984D02*
X13488134Y-11494079D01*
X13564325Y-11455984D02*
X13564325Y-11494079D01*
X13859563Y-11732174D02*
X13850039Y-11722650D01*
X13850039Y-11722650D02*
X13830991Y-11694079D01*
X13830991Y-11694079D02*
X13821468Y-11675031D01*
X13821468Y-11675031D02*
X13811944Y-11646460D01*
X13811944Y-11646460D02*
X13802420Y-11598841D01*
X13802420Y-11598841D02*
X13802420Y-11560746D01*
X13802420Y-11560746D02*
X13811944Y-11513127D01*
X13811944Y-11513127D02*
X13821468Y-11484555D01*
X13821468Y-11484555D02*
X13830991Y-11465508D01*
X13830991Y-11465508D02*
X13850039Y-11436936D01*
X13850039Y-11436936D02*
X13859563Y-11427412D01*
X14040515Y-11655984D02*
X13926229Y-11655984D01*
X13983372Y-11655984D02*
X13983372Y-11455984D01*
X13983372Y-11455984D02*
X13964325Y-11484555D01*
X13964325Y-11484555D02*
X13945277Y-11503603D01*
X13945277Y-11503603D02*
X13926229Y-11513127D01*
X14107182Y-11455984D02*
X14230991Y-11455984D01*
X14230991Y-11455984D02*
X14164325Y-11532174D01*
X14164325Y-11532174D02*
X14192896Y-11532174D01*
X14192896Y-11532174D02*
X14211944Y-11541698D01*
X14211944Y-11541698D02*
X14221468Y-11551222D01*
X14221468Y-11551222D02*
X14230991Y-11570269D01*
X14230991Y-11570269D02*
X14230991Y-11617888D01*
X14230991Y-11617888D02*
X14221468Y-11636936D01*
X14221468Y-11636936D02*
X14211944Y-11646460D01*
X14211944Y-11646460D02*
X14192896Y-11655984D01*
X14192896Y-11655984D02*
X14135753Y-11655984D01*
X14135753Y-11655984D02*
X14116706Y-11646460D01*
X14116706Y-11646460D02*
X14107182Y-11636936D01*
X14469087Y-11655984D02*
X14469087Y-11455984D01*
X14554801Y-11655984D02*
X14554801Y-11551222D01*
X14554801Y-11551222D02*
X14545277Y-11532174D01*
X14545277Y-11532174D02*
X14526230Y-11522650D01*
X14526230Y-11522650D02*
X14497658Y-11522650D01*
X14497658Y-11522650D02*
X14478610Y-11532174D01*
X14478610Y-11532174D02*
X14469087Y-11541698D01*
X14678610Y-11655984D02*
X14659563Y-11646460D01*
X14659563Y-11646460D02*
X14650039Y-11636936D01*
X14650039Y-11636936D02*
X14640515Y-11617888D01*
X14640515Y-11617888D02*
X14640515Y-11560746D01*
X14640515Y-11560746D02*
X14650039Y-11541698D01*
X14650039Y-11541698D02*
X14659563Y-11532174D01*
X14659563Y-11532174D02*
X14678610Y-11522650D01*
X14678610Y-11522650D02*
X14707182Y-11522650D01*
X14707182Y-11522650D02*
X14726230Y-11532174D01*
X14726230Y-11532174D02*
X14735753Y-11541698D01*
X14735753Y-11541698D02*
X14745277Y-11560746D01*
X14745277Y-11560746D02*
X14745277Y-11617888D01*
X14745277Y-11617888D02*
X14735753Y-11636936D01*
X14735753Y-11636936D02*
X14726230Y-11646460D01*
X14726230Y-11646460D02*
X14707182Y-11655984D01*
X14707182Y-11655984D02*
X14678610Y-11655984D01*
X14859563Y-11655984D02*
X14840515Y-11646460D01*
X14840515Y-11646460D02*
X14830991Y-11627412D01*
X14830991Y-11627412D02*
X14830991Y-11455984D01*
X15011944Y-11646460D02*
X14992896Y-11655984D01*
X14992896Y-11655984D02*
X14954801Y-11655984D01*
X14954801Y-11655984D02*
X14935753Y-11646460D01*
X14935753Y-11646460D02*
X14926230Y-11627412D01*
X14926230Y-11627412D02*
X14926230Y-11551222D01*
X14926230Y-11551222D02*
X14935753Y-11532174D01*
X14935753Y-11532174D02*
X14954801Y-11522650D01*
X14954801Y-11522650D02*
X14992896Y-11522650D01*
X14992896Y-11522650D02*
X15011944Y-11532174D01*
X15011944Y-11532174D02*
X15021468Y-11551222D01*
X15021468Y-11551222D02*
X15021468Y-11570269D01*
X15021468Y-11570269D02*
X14926230Y-11589317D01*
X15097658Y-11646460D02*
X15116706Y-11655984D01*
X15116706Y-11655984D02*
X15154801Y-11655984D01*
X15154801Y-11655984D02*
X15173849Y-11646460D01*
X15173849Y-11646460D02*
X15183372Y-11627412D01*
X15183372Y-11627412D02*
X15183372Y-11617888D01*
X15183372Y-11617888D02*
X15173849Y-11598841D01*
X15173849Y-11598841D02*
X15154801Y-11589317D01*
X15154801Y-11589317D02*
X15126230Y-11589317D01*
X15126230Y-11589317D02*
X15107182Y-11579793D01*
X15107182Y-11579793D02*
X15097658Y-11560746D01*
X15097658Y-11560746D02*
X15097658Y-11551222D01*
X15097658Y-11551222D02*
X15107182Y-11532174D01*
X15107182Y-11532174D02*
X15126230Y-11522650D01*
X15126230Y-11522650D02*
X15154801Y-11522650D01*
X15154801Y-11522650D02*
X15173849Y-11532174D01*
X15250039Y-11732174D02*
X15259563Y-11722650D01*
X15259563Y-11722650D02*
X15278611Y-11694079D01*
X15278611Y-11694079D02*
X15288134Y-11675031D01*
X15288134Y-11675031D02*
X15297658Y-11646460D01*
X15297658Y-11646460D02*
X15307182Y-11598841D01*
X15307182Y-11598841D02*
X15307182Y-11560746D01*
X15307182Y-11560746D02*
X15297658Y-11513127D01*
X15297658Y-11513127D02*
X15288134Y-11484555D01*
X15288134Y-11484555D02*
X15278611Y-11465508D01*
X15278611Y-11465508D02*
X15259563Y-11436936D01*
X15259563Y-11436936D02*
X15250039Y-11427412D01*
D12*
X10284500Y-11828500D02*
G75*
G02*
X10234500Y-11828500I-25000J0D01*
G01*
X10234500Y-11828500D02*
G75*
G02*
X10284500Y-11828500I25000J0D01*
G01*
D11*
X10583372Y-11719984D02*
X10602420Y-11719984D01*
X10602420Y-11719984D02*
X10621467Y-11729508D01*
X10621467Y-11729508D02*
X10630991Y-11739031D01*
X10630991Y-11739031D02*
X10640515Y-11758079D01*
X10640515Y-11758079D02*
X10650039Y-11796174D01*
X10650039Y-11796174D02*
X10650039Y-11843793D01*
X10650039Y-11843793D02*
X10640515Y-11881888D01*
X10640515Y-11881888D02*
X10630991Y-11900936D01*
X10630991Y-11900936D02*
X10621467Y-11910460D01*
X10621467Y-11910460D02*
X10602420Y-11919984D01*
X10602420Y-11919984D02*
X10583372Y-11919984D01*
X10583372Y-11919984D02*
X10564324Y-11910460D01*
X10564324Y-11910460D02*
X10554801Y-11900936D01*
X10554801Y-11900936D02*
X10545277Y-11881888D01*
X10545277Y-11881888D02*
X10535753Y-11843793D01*
X10535753Y-11843793D02*
X10535753Y-11796174D01*
X10535753Y-11796174D02*
X10545277Y-11758079D01*
X10545277Y-11758079D02*
X10554801Y-11739031D01*
X10554801Y-11739031D02*
X10564324Y-11729508D01*
X10564324Y-11729508D02*
X10583372Y-11719984D01*
X10735753Y-11900936D02*
X10745277Y-11910460D01*
X10745277Y-11910460D02*
X10735753Y-11919984D01*
X10735753Y-11919984D02*
X10726229Y-11910460D01*
X10726229Y-11910460D02*
X10735753Y-11900936D01*
X10735753Y-11900936D02*
X10735753Y-11919984D01*
X10926229Y-11719984D02*
X10830991Y-11719984D01*
X10830991Y-11719984D02*
X10821467Y-11815222D01*
X10821467Y-11815222D02*
X10830991Y-11805698D01*
X10830991Y-11805698D02*
X10850039Y-11796174D01*
X10850039Y-11796174D02*
X10897658Y-11796174D01*
X10897658Y-11796174D02*
X10916705Y-11805698D01*
X10916705Y-11805698D02*
X10926229Y-11815222D01*
X10926229Y-11815222D02*
X10935753Y-11834269D01*
X10935753Y-11834269D02*
X10935753Y-11881888D01*
X10935753Y-11881888D02*
X10926229Y-11900936D01*
X10926229Y-11900936D02*
X10916705Y-11910460D01*
X10916705Y-11910460D02*
X10897658Y-11919984D01*
X10897658Y-11919984D02*
X10850039Y-11919984D01*
X10850039Y-11919984D02*
X10830991Y-11910460D01*
X10830991Y-11910460D02*
X10821467Y-11900936D01*
X11059563Y-11719984D02*
X11078610Y-11719984D01*
X11078610Y-11719984D02*
X11097658Y-11729508D01*
X11097658Y-11729508D02*
X11107182Y-11739031D01*
X11107182Y-11739031D02*
X11116705Y-11758079D01*
X11116705Y-11758079D02*
X11126229Y-11796174D01*
X11126229Y-11796174D02*
X11126229Y-11843793D01*
X11126229Y-11843793D02*
X11116705Y-11881888D01*
X11116705Y-11881888D02*
X11107182Y-11900936D01*
X11107182Y-11900936D02*
X11097658Y-11910460D01*
X11097658Y-11910460D02*
X11078610Y-11919984D01*
X11078610Y-11919984D02*
X11059563Y-11919984D01*
X11059563Y-11919984D02*
X11040515Y-11910460D01*
X11040515Y-11910460D02*
X11030991Y-11900936D01*
X11030991Y-11900936D02*
X11021467Y-11881888D01*
X11021467Y-11881888D02*
X11011944Y-11843793D01*
X11011944Y-11843793D02*
X11011944Y-11796174D01*
X11011944Y-11796174D02*
X11021467Y-11758079D01*
X11021467Y-11758079D02*
X11030991Y-11739031D01*
X11030991Y-11739031D02*
X11040515Y-11729508D01*
X11040515Y-11729508D02*
X11059563Y-11719984D01*
X11250039Y-11719984D02*
X11269086Y-11719984D01*
X11269086Y-11719984D02*
X11288134Y-11729508D01*
X11288134Y-11729508D02*
X11297658Y-11739031D01*
X11297658Y-11739031D02*
X11307182Y-11758079D01*
X11307182Y-11758079D02*
X11316705Y-11796174D01*
X11316705Y-11796174D02*
X11316705Y-11843793D01*
X11316705Y-11843793D02*
X11307182Y-11881888D01*
X11307182Y-11881888D02*
X11297658Y-11900936D01*
X11297658Y-11900936D02*
X11288134Y-11910460D01*
X11288134Y-11910460D02*
X11269086Y-11919984D01*
X11269086Y-11919984D02*
X11250039Y-11919984D01*
X11250039Y-11919984D02*
X11230991Y-11910460D01*
X11230991Y-11910460D02*
X11221467Y-11900936D01*
X11221467Y-11900936D02*
X11211943Y-11881888D01*
X11211943Y-11881888D02*
X11202420Y-11843793D01*
X11202420Y-11843793D02*
X11202420Y-11796174D01*
X11202420Y-11796174D02*
X11211943Y-11758079D01*
X11211943Y-11758079D02*
X11221467Y-11739031D01*
X11221467Y-11739031D02*
X11230991Y-11729508D01*
X11230991Y-11729508D02*
X11250039Y-11719984D01*
X11402420Y-11919984D02*
X11402420Y-11786650D01*
X11402420Y-11805698D02*
X11411943Y-11796174D01*
X11411943Y-11796174D02*
X11430991Y-11786650D01*
X11430991Y-11786650D02*
X11459563Y-11786650D01*
X11459563Y-11786650D02*
X11478610Y-11796174D01*
X11478610Y-11796174D02*
X11488134Y-11815222D01*
X11488134Y-11815222D02*
X11488134Y-11919984D01*
X11488134Y-11815222D02*
X11497658Y-11796174D01*
X11497658Y-11796174D02*
X11516705Y-11786650D01*
X11516705Y-11786650D02*
X11545277Y-11786650D01*
X11545277Y-11786650D02*
X11564324Y-11796174D01*
X11564324Y-11796174D02*
X11573848Y-11815222D01*
X11573848Y-11815222D02*
X11573848Y-11919984D01*
X11669086Y-11919984D02*
X11669086Y-11786650D01*
X11669086Y-11805698D02*
X11678610Y-11796174D01*
X11678610Y-11796174D02*
X11697658Y-11786650D01*
X11697658Y-11786650D02*
X11726229Y-11786650D01*
X11726229Y-11786650D02*
X11745277Y-11796174D01*
X11745277Y-11796174D02*
X11754801Y-11815222D01*
X11754801Y-11815222D02*
X11754801Y-11919984D01*
X11754801Y-11815222D02*
X11764324Y-11796174D01*
X11764324Y-11796174D02*
X11783372Y-11786650D01*
X11783372Y-11786650D02*
X11811943Y-11786650D01*
X11811943Y-11786650D02*
X11830991Y-11796174D01*
X11830991Y-11796174D02*
X11840515Y-11815222D01*
X11840515Y-11815222D02*
X11840515Y-11919984D01*
X12230991Y-11710460D02*
X12059563Y-11967603D01*
X12488134Y-11719984D02*
X12507182Y-11719984D01*
X12507182Y-11719984D02*
X12526229Y-11729508D01*
X12526229Y-11729508D02*
X12535753Y-11739031D01*
X12535753Y-11739031D02*
X12545277Y-11758079D01*
X12545277Y-11758079D02*
X12554801Y-11796174D01*
X12554801Y-11796174D02*
X12554801Y-11843793D01*
X12554801Y-11843793D02*
X12545277Y-11881888D01*
X12545277Y-11881888D02*
X12535753Y-11900936D01*
X12535753Y-11900936D02*
X12526229Y-11910460D01*
X12526229Y-11910460D02*
X12507182Y-11919984D01*
X12507182Y-11919984D02*
X12488134Y-11919984D01*
X12488134Y-11919984D02*
X12469086Y-11910460D01*
X12469086Y-11910460D02*
X12459563Y-11900936D01*
X12459563Y-11900936D02*
X12450039Y-11881888D01*
X12450039Y-11881888D02*
X12440515Y-11843793D01*
X12440515Y-11843793D02*
X12440515Y-11796174D01*
X12440515Y-11796174D02*
X12450039Y-11758079D01*
X12450039Y-11758079D02*
X12459563Y-11739031D01*
X12459563Y-11739031D02*
X12469086Y-11729508D01*
X12469086Y-11729508D02*
X12488134Y-11719984D01*
X12640515Y-11900936D02*
X12650039Y-11910460D01*
X12650039Y-11910460D02*
X12640515Y-11919984D01*
X12640515Y-11919984D02*
X12630991Y-11910460D01*
X12630991Y-11910460D02*
X12640515Y-11900936D01*
X12640515Y-11900936D02*
X12640515Y-11919984D01*
X12773848Y-11719984D02*
X12792896Y-11719984D01*
X12792896Y-11719984D02*
X12811944Y-11729508D01*
X12811944Y-11729508D02*
X12821467Y-11739031D01*
X12821467Y-11739031D02*
X12830991Y-11758079D01*
X12830991Y-11758079D02*
X12840515Y-11796174D01*
X12840515Y-11796174D02*
X12840515Y-11843793D01*
X12840515Y-11843793D02*
X12830991Y-11881888D01*
X12830991Y-11881888D02*
X12821467Y-11900936D01*
X12821467Y-11900936D02*
X12811944Y-11910460D01*
X12811944Y-11910460D02*
X12792896Y-11919984D01*
X12792896Y-11919984D02*
X12773848Y-11919984D01*
X12773848Y-11919984D02*
X12754801Y-11910460D01*
X12754801Y-11910460D02*
X12745277Y-11900936D01*
X12745277Y-11900936D02*
X12735753Y-11881888D01*
X12735753Y-11881888D02*
X12726229Y-11843793D01*
X12726229Y-11843793D02*
X12726229Y-11796174D01*
X12726229Y-11796174D02*
X12735753Y-11758079D01*
X12735753Y-11758079D02*
X12745277Y-11739031D01*
X12745277Y-11739031D02*
X12754801Y-11729508D01*
X12754801Y-11729508D02*
X12773848Y-11719984D01*
X13030991Y-11919984D02*
X12916706Y-11919984D01*
X12973848Y-11919984D02*
X12973848Y-11719984D01*
X12973848Y-11719984D02*
X12954801Y-11748555D01*
X12954801Y-11748555D02*
X12935753Y-11767603D01*
X12935753Y-11767603D02*
X12916706Y-11777127D01*
X13126229Y-11919984D02*
X13164325Y-11919984D01*
X13164325Y-11919984D02*
X13183372Y-11910460D01*
X13183372Y-11910460D02*
X13192896Y-11900936D01*
X13192896Y-11900936D02*
X13211944Y-11872365D01*
X13211944Y-11872365D02*
X13221467Y-11834269D01*
X13221467Y-11834269D02*
X13221467Y-11758079D01*
X13221467Y-11758079D02*
X13211944Y-11739031D01*
X13211944Y-11739031D02*
X13202420Y-11729508D01*
X13202420Y-11729508D02*
X13183372Y-11719984D01*
X13183372Y-11719984D02*
X13145277Y-11719984D01*
X13145277Y-11719984D02*
X13126229Y-11729508D01*
X13126229Y-11729508D02*
X13116706Y-11739031D01*
X13116706Y-11739031D02*
X13107182Y-11758079D01*
X13107182Y-11758079D02*
X13107182Y-11805698D01*
X13107182Y-11805698D02*
X13116706Y-11824746D01*
X13116706Y-11824746D02*
X13126229Y-11834269D01*
X13126229Y-11834269D02*
X13145277Y-11843793D01*
X13145277Y-11843793D02*
X13183372Y-11843793D01*
X13183372Y-11843793D02*
X13202420Y-11834269D01*
X13202420Y-11834269D02*
X13211944Y-11824746D01*
X13211944Y-11824746D02*
X13221467Y-11805698D01*
X13288134Y-11719984D02*
X13421467Y-11719984D01*
X13421467Y-11719984D02*
X13335753Y-11919984D01*
X13488134Y-11719984D02*
X13488134Y-11758079D01*
X13564325Y-11719984D02*
X13564325Y-11758079D01*
X13859563Y-11996174D02*
X13850039Y-11986650D01*
X13850039Y-11986650D02*
X13830991Y-11958079D01*
X13830991Y-11958079D02*
X13821468Y-11939031D01*
X13821468Y-11939031D02*
X13811944Y-11910460D01*
X13811944Y-11910460D02*
X13802420Y-11862841D01*
X13802420Y-11862841D02*
X13802420Y-11824746D01*
X13802420Y-11824746D02*
X13811944Y-11777127D01*
X13811944Y-11777127D02*
X13821468Y-11748555D01*
X13821468Y-11748555D02*
X13830991Y-11729508D01*
X13830991Y-11729508D02*
X13850039Y-11700936D01*
X13850039Y-11700936D02*
X13859563Y-11691412D01*
X13926229Y-11739031D02*
X13935753Y-11729508D01*
X13935753Y-11729508D02*
X13954801Y-11719984D01*
X13954801Y-11719984D02*
X14002420Y-11719984D01*
X14002420Y-11719984D02*
X14021468Y-11729508D01*
X14021468Y-11729508D02*
X14030991Y-11739031D01*
X14030991Y-11739031D02*
X14040515Y-11758079D01*
X14040515Y-11758079D02*
X14040515Y-11777127D01*
X14040515Y-11777127D02*
X14030991Y-11805698D01*
X14030991Y-11805698D02*
X13916706Y-11919984D01*
X13916706Y-11919984D02*
X14040515Y-11919984D01*
X14278610Y-11919984D02*
X14278610Y-11719984D01*
X14364325Y-11919984D02*
X14364325Y-11815222D01*
X14364325Y-11815222D02*
X14354801Y-11796174D01*
X14354801Y-11796174D02*
X14335753Y-11786650D01*
X14335753Y-11786650D02*
X14307182Y-11786650D01*
X14307182Y-11786650D02*
X14288134Y-11796174D01*
X14288134Y-11796174D02*
X14278610Y-11805698D01*
X14488134Y-11919984D02*
X14469087Y-11910460D01*
X14469087Y-11910460D02*
X14459563Y-11900936D01*
X14459563Y-11900936D02*
X14450039Y-11881888D01*
X14450039Y-11881888D02*
X14450039Y-11824746D01*
X14450039Y-11824746D02*
X14459563Y-11805698D01*
X14459563Y-11805698D02*
X14469087Y-11796174D01*
X14469087Y-11796174D02*
X14488134Y-11786650D01*
X14488134Y-11786650D02*
X14516706Y-11786650D01*
X14516706Y-11786650D02*
X14535753Y-11796174D01*
X14535753Y-11796174D02*
X14545277Y-11805698D01*
X14545277Y-11805698D02*
X14554801Y-11824746D01*
X14554801Y-11824746D02*
X14554801Y-11881888D01*
X14554801Y-11881888D02*
X14545277Y-11900936D01*
X14545277Y-11900936D02*
X14535753Y-11910460D01*
X14535753Y-11910460D02*
X14516706Y-11919984D01*
X14516706Y-11919984D02*
X14488134Y-11919984D01*
X14669087Y-11919984D02*
X14650039Y-11910460D01*
X14650039Y-11910460D02*
X14640515Y-11891412D01*
X14640515Y-11891412D02*
X14640515Y-11719984D01*
X14821468Y-11910460D02*
X14802420Y-11919984D01*
X14802420Y-11919984D02*
X14764325Y-11919984D01*
X14764325Y-11919984D02*
X14745277Y-11910460D01*
X14745277Y-11910460D02*
X14735753Y-11891412D01*
X14735753Y-11891412D02*
X14735753Y-11815222D01*
X14735753Y-11815222D02*
X14745277Y-11796174D01*
X14745277Y-11796174D02*
X14764325Y-11786650D01*
X14764325Y-11786650D02*
X14802420Y-11786650D01*
X14802420Y-11786650D02*
X14821468Y-11796174D01*
X14821468Y-11796174D02*
X14830991Y-11815222D01*
X14830991Y-11815222D02*
X14830991Y-11834269D01*
X14830991Y-11834269D02*
X14735753Y-11853317D01*
X14907182Y-11910460D02*
X14926230Y-11919984D01*
X14926230Y-11919984D02*
X14964325Y-11919984D01*
X14964325Y-11919984D02*
X14983372Y-11910460D01*
X14983372Y-11910460D02*
X14992896Y-11891412D01*
X14992896Y-11891412D02*
X14992896Y-11881888D01*
X14992896Y-11881888D02*
X14983372Y-11862841D01*
X14983372Y-11862841D02*
X14964325Y-11853317D01*
X14964325Y-11853317D02*
X14935753Y-11853317D01*
X14935753Y-11853317D02*
X14916706Y-11843793D01*
X14916706Y-11843793D02*
X14907182Y-11824746D01*
X14907182Y-11824746D02*
X14907182Y-11815222D01*
X14907182Y-11815222D02*
X14916706Y-11796174D01*
X14916706Y-11796174D02*
X14935753Y-11786650D01*
X14935753Y-11786650D02*
X14964325Y-11786650D01*
X14964325Y-11786650D02*
X14983372Y-11796174D01*
X15059563Y-11996174D02*
X15069087Y-11986650D01*
X15069087Y-11986650D02*
X15088134Y-11958079D01*
X15088134Y-11958079D02*
X15097658Y-11939031D01*
X15097658Y-11939031D02*
X15107182Y-11910460D01*
X15107182Y-11910460D02*
X15116706Y-11862841D01*
X15116706Y-11862841D02*
X15116706Y-11824746D01*
X15116706Y-11824746D02*
X15107182Y-11777127D01*
X15107182Y-11777127D02*
X15097658Y-11748555D01*
X15097658Y-11748555D02*
X15088134Y-11729508D01*
X15088134Y-11729508D02*
X15069087Y-11700936D01*
X15069087Y-11700936D02*
X15059563Y-11691412D01*
D12*
X10247000Y-12055000D02*
X10247000Y-12130000D01*
X10209500Y-12092500D02*
X10284500Y-12092500D01*
D11*
X10583372Y-11983984D02*
X10602420Y-11983984D01*
X10602420Y-11983984D02*
X10621467Y-11993508D01*
X10621467Y-11993508D02*
X10630991Y-12003031D01*
X10630991Y-12003031D02*
X10640515Y-12022079D01*
X10640515Y-12022079D02*
X10650039Y-12060174D01*
X10650039Y-12060174D02*
X10650039Y-12107793D01*
X10650039Y-12107793D02*
X10640515Y-12145888D01*
X10640515Y-12145888D02*
X10630991Y-12164936D01*
X10630991Y-12164936D02*
X10621467Y-12174460D01*
X10621467Y-12174460D02*
X10602420Y-12183984D01*
X10602420Y-12183984D02*
X10583372Y-12183984D01*
X10583372Y-12183984D02*
X10564324Y-12174460D01*
X10564324Y-12174460D02*
X10554801Y-12164936D01*
X10554801Y-12164936D02*
X10545277Y-12145888D01*
X10545277Y-12145888D02*
X10535753Y-12107793D01*
X10535753Y-12107793D02*
X10535753Y-12060174D01*
X10535753Y-12060174D02*
X10545277Y-12022079D01*
X10545277Y-12022079D02*
X10554801Y-12003031D01*
X10554801Y-12003031D02*
X10564324Y-11993508D01*
X10564324Y-11993508D02*
X10583372Y-11983984D01*
X10735753Y-12164936D02*
X10745277Y-12174460D01*
X10745277Y-12174460D02*
X10735753Y-12183984D01*
X10735753Y-12183984D02*
X10726229Y-12174460D01*
X10726229Y-12174460D02*
X10735753Y-12164936D01*
X10735753Y-12164936D02*
X10735753Y-12183984D01*
X10811944Y-11983984D02*
X10945277Y-11983984D01*
X10945277Y-11983984D02*
X10859563Y-12183984D01*
X11116705Y-11983984D02*
X11021467Y-11983984D01*
X11021467Y-11983984D02*
X11011944Y-12079222D01*
X11011944Y-12079222D02*
X11021467Y-12069698D01*
X11021467Y-12069698D02*
X11040515Y-12060174D01*
X11040515Y-12060174D02*
X11088134Y-12060174D01*
X11088134Y-12060174D02*
X11107182Y-12069698D01*
X11107182Y-12069698D02*
X11116705Y-12079222D01*
X11116705Y-12079222D02*
X11126229Y-12098269D01*
X11126229Y-12098269D02*
X11126229Y-12145888D01*
X11126229Y-12145888D02*
X11116705Y-12164936D01*
X11116705Y-12164936D02*
X11107182Y-12174460D01*
X11107182Y-12174460D02*
X11088134Y-12183984D01*
X11088134Y-12183984D02*
X11040515Y-12183984D01*
X11040515Y-12183984D02*
X11021467Y-12174460D01*
X11021467Y-12174460D02*
X11011944Y-12164936D01*
X11250039Y-11983984D02*
X11269086Y-11983984D01*
X11269086Y-11983984D02*
X11288134Y-11993508D01*
X11288134Y-11993508D02*
X11297658Y-12003031D01*
X11297658Y-12003031D02*
X11307182Y-12022079D01*
X11307182Y-12022079D02*
X11316705Y-12060174D01*
X11316705Y-12060174D02*
X11316705Y-12107793D01*
X11316705Y-12107793D02*
X11307182Y-12145888D01*
X11307182Y-12145888D02*
X11297658Y-12164936D01*
X11297658Y-12164936D02*
X11288134Y-12174460D01*
X11288134Y-12174460D02*
X11269086Y-12183984D01*
X11269086Y-12183984D02*
X11250039Y-12183984D01*
X11250039Y-12183984D02*
X11230991Y-12174460D01*
X11230991Y-12174460D02*
X11221467Y-12164936D01*
X11221467Y-12164936D02*
X11211943Y-12145888D01*
X11211943Y-12145888D02*
X11202420Y-12107793D01*
X11202420Y-12107793D02*
X11202420Y-12060174D01*
X11202420Y-12060174D02*
X11211943Y-12022079D01*
X11211943Y-12022079D02*
X11221467Y-12003031D01*
X11221467Y-12003031D02*
X11230991Y-11993508D01*
X11230991Y-11993508D02*
X11250039Y-11983984D01*
X11402420Y-12183984D02*
X11402420Y-12050650D01*
X11402420Y-12069698D02*
X11411943Y-12060174D01*
X11411943Y-12060174D02*
X11430991Y-12050650D01*
X11430991Y-12050650D02*
X11459563Y-12050650D01*
X11459563Y-12050650D02*
X11478610Y-12060174D01*
X11478610Y-12060174D02*
X11488134Y-12079222D01*
X11488134Y-12079222D02*
X11488134Y-12183984D01*
X11488134Y-12079222D02*
X11497658Y-12060174D01*
X11497658Y-12060174D02*
X11516705Y-12050650D01*
X11516705Y-12050650D02*
X11545277Y-12050650D01*
X11545277Y-12050650D02*
X11564324Y-12060174D01*
X11564324Y-12060174D02*
X11573848Y-12079222D01*
X11573848Y-12079222D02*
X11573848Y-12183984D01*
X11669086Y-12183984D02*
X11669086Y-12050650D01*
X11669086Y-12069698D02*
X11678610Y-12060174D01*
X11678610Y-12060174D02*
X11697658Y-12050650D01*
X11697658Y-12050650D02*
X11726229Y-12050650D01*
X11726229Y-12050650D02*
X11745277Y-12060174D01*
X11745277Y-12060174D02*
X11754801Y-12079222D01*
X11754801Y-12079222D02*
X11754801Y-12183984D01*
X11754801Y-12079222D02*
X11764324Y-12060174D01*
X11764324Y-12060174D02*
X11783372Y-12050650D01*
X11783372Y-12050650D02*
X11811943Y-12050650D01*
X11811943Y-12050650D02*
X11830991Y-12060174D01*
X11830991Y-12060174D02*
X11840515Y-12079222D01*
X11840515Y-12079222D02*
X11840515Y-12183984D01*
X12230991Y-11974460D02*
X12059563Y-12231603D01*
X12488134Y-11983984D02*
X12507182Y-11983984D01*
X12507182Y-11983984D02*
X12526229Y-11993508D01*
X12526229Y-11993508D02*
X12535753Y-12003031D01*
X12535753Y-12003031D02*
X12545277Y-12022079D01*
X12545277Y-12022079D02*
X12554801Y-12060174D01*
X12554801Y-12060174D02*
X12554801Y-12107793D01*
X12554801Y-12107793D02*
X12545277Y-12145888D01*
X12545277Y-12145888D02*
X12535753Y-12164936D01*
X12535753Y-12164936D02*
X12526229Y-12174460D01*
X12526229Y-12174460D02*
X12507182Y-12183984D01*
X12507182Y-12183984D02*
X12488134Y-12183984D01*
X12488134Y-12183984D02*
X12469086Y-12174460D01*
X12469086Y-12174460D02*
X12459563Y-12164936D01*
X12459563Y-12164936D02*
X12450039Y-12145888D01*
X12450039Y-12145888D02*
X12440515Y-12107793D01*
X12440515Y-12107793D02*
X12440515Y-12060174D01*
X12440515Y-12060174D02*
X12450039Y-12022079D01*
X12450039Y-12022079D02*
X12459563Y-12003031D01*
X12459563Y-12003031D02*
X12469086Y-11993508D01*
X12469086Y-11993508D02*
X12488134Y-11983984D01*
X12640515Y-12164936D02*
X12650039Y-12174460D01*
X12650039Y-12174460D02*
X12640515Y-12183984D01*
X12640515Y-12183984D02*
X12630991Y-12174460D01*
X12630991Y-12174460D02*
X12640515Y-12164936D01*
X12640515Y-12164936D02*
X12640515Y-12183984D01*
X12773848Y-11983984D02*
X12792896Y-11983984D01*
X12792896Y-11983984D02*
X12811944Y-11993508D01*
X12811944Y-11993508D02*
X12821467Y-12003031D01*
X12821467Y-12003031D02*
X12830991Y-12022079D01*
X12830991Y-12022079D02*
X12840515Y-12060174D01*
X12840515Y-12060174D02*
X12840515Y-12107793D01*
X12840515Y-12107793D02*
X12830991Y-12145888D01*
X12830991Y-12145888D02*
X12821467Y-12164936D01*
X12821467Y-12164936D02*
X12811944Y-12174460D01*
X12811944Y-12174460D02*
X12792896Y-12183984D01*
X12792896Y-12183984D02*
X12773848Y-12183984D01*
X12773848Y-12183984D02*
X12754801Y-12174460D01*
X12754801Y-12174460D02*
X12745277Y-12164936D01*
X12745277Y-12164936D02*
X12735753Y-12145888D01*
X12735753Y-12145888D02*
X12726229Y-12107793D01*
X12726229Y-12107793D02*
X12726229Y-12060174D01*
X12726229Y-12060174D02*
X12735753Y-12022079D01*
X12735753Y-12022079D02*
X12745277Y-12003031D01*
X12745277Y-12003031D02*
X12754801Y-11993508D01*
X12754801Y-11993508D02*
X12773848Y-11983984D01*
X12916706Y-12003031D02*
X12926229Y-11993508D01*
X12926229Y-11993508D02*
X12945277Y-11983984D01*
X12945277Y-11983984D02*
X12992896Y-11983984D01*
X12992896Y-11983984D02*
X13011944Y-11993508D01*
X13011944Y-11993508D02*
X13021467Y-12003031D01*
X13021467Y-12003031D02*
X13030991Y-12022079D01*
X13030991Y-12022079D02*
X13030991Y-12041127D01*
X13030991Y-12041127D02*
X13021467Y-12069698D01*
X13021467Y-12069698D02*
X12907182Y-12183984D01*
X12907182Y-12183984D02*
X13030991Y-12183984D01*
X13126229Y-12183984D02*
X13164325Y-12183984D01*
X13164325Y-12183984D02*
X13183372Y-12174460D01*
X13183372Y-12174460D02*
X13192896Y-12164936D01*
X13192896Y-12164936D02*
X13211944Y-12136365D01*
X13211944Y-12136365D02*
X13221467Y-12098269D01*
X13221467Y-12098269D02*
X13221467Y-12022079D01*
X13221467Y-12022079D02*
X13211944Y-12003031D01*
X13211944Y-12003031D02*
X13202420Y-11993508D01*
X13202420Y-11993508D02*
X13183372Y-11983984D01*
X13183372Y-11983984D02*
X13145277Y-11983984D01*
X13145277Y-11983984D02*
X13126229Y-11993508D01*
X13126229Y-11993508D02*
X13116706Y-12003031D01*
X13116706Y-12003031D02*
X13107182Y-12022079D01*
X13107182Y-12022079D02*
X13107182Y-12069698D01*
X13107182Y-12069698D02*
X13116706Y-12088746D01*
X13116706Y-12088746D02*
X13126229Y-12098269D01*
X13126229Y-12098269D02*
X13145277Y-12107793D01*
X13145277Y-12107793D02*
X13183372Y-12107793D01*
X13183372Y-12107793D02*
X13202420Y-12098269D01*
X13202420Y-12098269D02*
X13211944Y-12088746D01*
X13211944Y-12088746D02*
X13221467Y-12069698D01*
X13402420Y-11983984D02*
X13307182Y-11983984D01*
X13307182Y-11983984D02*
X13297658Y-12079222D01*
X13297658Y-12079222D02*
X13307182Y-12069698D01*
X13307182Y-12069698D02*
X13326229Y-12060174D01*
X13326229Y-12060174D02*
X13373848Y-12060174D01*
X13373848Y-12060174D02*
X13392896Y-12069698D01*
X13392896Y-12069698D02*
X13402420Y-12079222D01*
X13402420Y-12079222D02*
X13411944Y-12098269D01*
X13411944Y-12098269D02*
X13411944Y-12145888D01*
X13411944Y-12145888D02*
X13402420Y-12164936D01*
X13402420Y-12164936D02*
X13392896Y-12174460D01*
X13392896Y-12174460D02*
X13373848Y-12183984D01*
X13373848Y-12183984D02*
X13326229Y-12183984D01*
X13326229Y-12183984D02*
X13307182Y-12174460D01*
X13307182Y-12174460D02*
X13297658Y-12164936D01*
X13488134Y-11983984D02*
X13488134Y-12022079D01*
X13564325Y-11983984D02*
X13564325Y-12022079D01*
X13859563Y-12260174D02*
X13850039Y-12250650D01*
X13850039Y-12250650D02*
X13830991Y-12222079D01*
X13830991Y-12222079D02*
X13821468Y-12203031D01*
X13821468Y-12203031D02*
X13811944Y-12174460D01*
X13811944Y-12174460D02*
X13802420Y-12126841D01*
X13802420Y-12126841D02*
X13802420Y-12088746D01*
X13802420Y-12088746D02*
X13811944Y-12041127D01*
X13811944Y-12041127D02*
X13821468Y-12012555D01*
X13821468Y-12012555D02*
X13830991Y-11993508D01*
X13830991Y-11993508D02*
X13850039Y-11964936D01*
X13850039Y-11964936D02*
X13859563Y-11955412D01*
X13926229Y-12003031D02*
X13935753Y-11993508D01*
X13935753Y-11993508D02*
X13954801Y-11983984D01*
X13954801Y-11983984D02*
X14002420Y-11983984D01*
X14002420Y-11983984D02*
X14021468Y-11993508D01*
X14021468Y-11993508D02*
X14030991Y-12003031D01*
X14030991Y-12003031D02*
X14040515Y-12022079D01*
X14040515Y-12022079D02*
X14040515Y-12041127D01*
X14040515Y-12041127D02*
X14030991Y-12069698D01*
X14030991Y-12069698D02*
X13916706Y-12183984D01*
X13916706Y-12183984D02*
X14040515Y-12183984D01*
X14278610Y-12183984D02*
X14278610Y-11983984D01*
X14364325Y-12183984D02*
X14364325Y-12079222D01*
X14364325Y-12079222D02*
X14354801Y-12060174D01*
X14354801Y-12060174D02*
X14335753Y-12050650D01*
X14335753Y-12050650D02*
X14307182Y-12050650D01*
X14307182Y-12050650D02*
X14288134Y-12060174D01*
X14288134Y-12060174D02*
X14278610Y-12069698D01*
X14488134Y-12183984D02*
X14469087Y-12174460D01*
X14469087Y-12174460D02*
X14459563Y-12164936D01*
X14459563Y-12164936D02*
X14450039Y-12145888D01*
X14450039Y-12145888D02*
X14450039Y-12088746D01*
X14450039Y-12088746D02*
X14459563Y-12069698D01*
X14459563Y-12069698D02*
X14469087Y-12060174D01*
X14469087Y-12060174D02*
X14488134Y-12050650D01*
X14488134Y-12050650D02*
X14516706Y-12050650D01*
X14516706Y-12050650D02*
X14535753Y-12060174D01*
X14535753Y-12060174D02*
X14545277Y-12069698D01*
X14545277Y-12069698D02*
X14554801Y-12088746D01*
X14554801Y-12088746D02*
X14554801Y-12145888D01*
X14554801Y-12145888D02*
X14545277Y-12164936D01*
X14545277Y-12164936D02*
X14535753Y-12174460D01*
X14535753Y-12174460D02*
X14516706Y-12183984D01*
X14516706Y-12183984D02*
X14488134Y-12183984D01*
X14669087Y-12183984D02*
X14650039Y-12174460D01*
X14650039Y-12174460D02*
X14640515Y-12155412D01*
X14640515Y-12155412D02*
X14640515Y-11983984D01*
X14821468Y-12174460D02*
X14802420Y-12183984D01*
X14802420Y-12183984D02*
X14764325Y-12183984D01*
X14764325Y-12183984D02*
X14745277Y-12174460D01*
X14745277Y-12174460D02*
X14735753Y-12155412D01*
X14735753Y-12155412D02*
X14735753Y-12079222D01*
X14735753Y-12079222D02*
X14745277Y-12060174D01*
X14745277Y-12060174D02*
X14764325Y-12050650D01*
X14764325Y-12050650D02*
X14802420Y-12050650D01*
X14802420Y-12050650D02*
X14821468Y-12060174D01*
X14821468Y-12060174D02*
X14830991Y-12079222D01*
X14830991Y-12079222D02*
X14830991Y-12098269D01*
X14830991Y-12098269D02*
X14735753Y-12117317D01*
X14907182Y-12174460D02*
X14926230Y-12183984D01*
X14926230Y-12183984D02*
X14964325Y-12183984D01*
X14964325Y-12183984D02*
X14983372Y-12174460D01*
X14983372Y-12174460D02*
X14992896Y-12155412D01*
X14992896Y-12155412D02*
X14992896Y-12145888D01*
X14992896Y-12145888D02*
X14983372Y-12126841D01*
X14983372Y-12126841D02*
X14964325Y-12117317D01*
X14964325Y-12117317D02*
X14935753Y-12117317D01*
X14935753Y-12117317D02*
X14916706Y-12107793D01*
X14916706Y-12107793D02*
X14907182Y-12088746D01*
X14907182Y-12088746D02*
X14907182Y-12079222D01*
X14907182Y-12079222D02*
X14916706Y-12060174D01*
X14916706Y-12060174D02*
X14935753Y-12050650D01*
X14935753Y-12050650D02*
X14964325Y-12050650D01*
X14964325Y-12050650D02*
X14983372Y-12060174D01*
X15059563Y-12260174D02*
X15069087Y-12250650D01*
X15069087Y-12250650D02*
X15088134Y-12222079D01*
X15088134Y-12222079D02*
X15097658Y-12203031D01*
X15097658Y-12203031D02*
X15107182Y-12174460D01*
X15107182Y-12174460D02*
X15116706Y-12126841D01*
X15116706Y-12126841D02*
X15116706Y-12088746D01*
X15116706Y-12088746D02*
X15107182Y-12041127D01*
X15107182Y-12041127D02*
X15097658Y-12012555D01*
X15097658Y-12012555D02*
X15088134Y-11993508D01*
X15088134Y-11993508D02*
X15069087Y-11964936D01*
X15069087Y-11964936D02*
X15059563Y-11955412D01*
D12*
X10272785Y-12384784D02*
X10272785Y-12328215D01*
X10216216Y-12328215D01*
X10216216Y-12384784D01*
X10272785Y-12384784D01*
D11*
X10583372Y-12247984D02*
X10602420Y-12247984D01*
X10602420Y-12247984D02*
X10621467Y-12257508D01*
X10621467Y-12257508D02*
X10630991Y-12267031D01*
X10630991Y-12267031D02*
X10640515Y-12286079D01*
X10640515Y-12286079D02*
X10650039Y-12324174D01*
X10650039Y-12324174D02*
X10650039Y-12371793D01*
X10650039Y-12371793D02*
X10640515Y-12409888D01*
X10640515Y-12409888D02*
X10630991Y-12428936D01*
X10630991Y-12428936D02*
X10621467Y-12438460D01*
X10621467Y-12438460D02*
X10602420Y-12447984D01*
X10602420Y-12447984D02*
X10583372Y-12447984D01*
X10583372Y-12447984D02*
X10564324Y-12438460D01*
X10564324Y-12438460D02*
X10554801Y-12428936D01*
X10554801Y-12428936D02*
X10545277Y-12409888D01*
X10545277Y-12409888D02*
X10535753Y-12371793D01*
X10535753Y-12371793D02*
X10535753Y-12324174D01*
X10535753Y-12324174D02*
X10545277Y-12286079D01*
X10545277Y-12286079D02*
X10554801Y-12267031D01*
X10554801Y-12267031D02*
X10564324Y-12257508D01*
X10564324Y-12257508D02*
X10583372Y-12247984D01*
X10735753Y-12428936D02*
X10745277Y-12438460D01*
X10745277Y-12438460D02*
X10735753Y-12447984D01*
X10735753Y-12447984D02*
X10726229Y-12438460D01*
X10726229Y-12438460D02*
X10735753Y-12428936D01*
X10735753Y-12428936D02*
X10735753Y-12447984D01*
X10859563Y-12333698D02*
X10840515Y-12324174D01*
X10840515Y-12324174D02*
X10830991Y-12314650D01*
X10830991Y-12314650D02*
X10821467Y-12295603D01*
X10821467Y-12295603D02*
X10821467Y-12286079D01*
X10821467Y-12286079D02*
X10830991Y-12267031D01*
X10830991Y-12267031D02*
X10840515Y-12257508D01*
X10840515Y-12257508D02*
X10859563Y-12247984D01*
X10859563Y-12247984D02*
X10897658Y-12247984D01*
X10897658Y-12247984D02*
X10916705Y-12257508D01*
X10916705Y-12257508D02*
X10926229Y-12267031D01*
X10926229Y-12267031D02*
X10935753Y-12286079D01*
X10935753Y-12286079D02*
X10935753Y-12295603D01*
X10935753Y-12295603D02*
X10926229Y-12314650D01*
X10926229Y-12314650D02*
X10916705Y-12324174D01*
X10916705Y-12324174D02*
X10897658Y-12333698D01*
X10897658Y-12333698D02*
X10859563Y-12333698D01*
X10859563Y-12333698D02*
X10840515Y-12343222D01*
X10840515Y-12343222D02*
X10830991Y-12352746D01*
X10830991Y-12352746D02*
X10821467Y-12371793D01*
X10821467Y-12371793D02*
X10821467Y-12409888D01*
X10821467Y-12409888D02*
X10830991Y-12428936D01*
X10830991Y-12428936D02*
X10840515Y-12438460D01*
X10840515Y-12438460D02*
X10859563Y-12447984D01*
X10859563Y-12447984D02*
X10897658Y-12447984D01*
X10897658Y-12447984D02*
X10916705Y-12438460D01*
X10916705Y-12438460D02*
X10926229Y-12428936D01*
X10926229Y-12428936D02*
X10935753Y-12409888D01*
X10935753Y-12409888D02*
X10935753Y-12371793D01*
X10935753Y-12371793D02*
X10926229Y-12352746D01*
X10926229Y-12352746D02*
X10916705Y-12343222D01*
X10916705Y-12343222D02*
X10897658Y-12333698D01*
X11059563Y-12247984D02*
X11078610Y-12247984D01*
X11078610Y-12247984D02*
X11097658Y-12257508D01*
X11097658Y-12257508D02*
X11107182Y-12267031D01*
X11107182Y-12267031D02*
X11116705Y-12286079D01*
X11116705Y-12286079D02*
X11126229Y-12324174D01*
X11126229Y-12324174D02*
X11126229Y-12371793D01*
X11126229Y-12371793D02*
X11116705Y-12409888D01*
X11116705Y-12409888D02*
X11107182Y-12428936D01*
X11107182Y-12428936D02*
X11097658Y-12438460D01*
X11097658Y-12438460D02*
X11078610Y-12447984D01*
X11078610Y-12447984D02*
X11059563Y-12447984D01*
X11059563Y-12447984D02*
X11040515Y-12438460D01*
X11040515Y-12438460D02*
X11030991Y-12428936D01*
X11030991Y-12428936D02*
X11021467Y-12409888D01*
X11021467Y-12409888D02*
X11011944Y-12371793D01*
X11011944Y-12371793D02*
X11011944Y-12324174D01*
X11011944Y-12324174D02*
X11021467Y-12286079D01*
X11021467Y-12286079D02*
X11030991Y-12267031D01*
X11030991Y-12267031D02*
X11040515Y-12257508D01*
X11040515Y-12257508D02*
X11059563Y-12247984D01*
X11250039Y-12247984D02*
X11269086Y-12247984D01*
X11269086Y-12247984D02*
X11288134Y-12257508D01*
X11288134Y-12257508D02*
X11297658Y-12267031D01*
X11297658Y-12267031D02*
X11307182Y-12286079D01*
X11307182Y-12286079D02*
X11316705Y-12324174D01*
X11316705Y-12324174D02*
X11316705Y-12371793D01*
X11316705Y-12371793D02*
X11307182Y-12409888D01*
X11307182Y-12409888D02*
X11297658Y-12428936D01*
X11297658Y-12428936D02*
X11288134Y-12438460D01*
X11288134Y-12438460D02*
X11269086Y-12447984D01*
X11269086Y-12447984D02*
X11250039Y-12447984D01*
X11250039Y-12447984D02*
X11230991Y-12438460D01*
X11230991Y-12438460D02*
X11221467Y-12428936D01*
X11221467Y-12428936D02*
X11211943Y-12409888D01*
X11211943Y-12409888D02*
X11202420Y-12371793D01*
X11202420Y-12371793D02*
X11202420Y-12324174D01*
X11202420Y-12324174D02*
X11211943Y-12286079D01*
X11211943Y-12286079D02*
X11221467Y-12267031D01*
X11221467Y-12267031D02*
X11230991Y-12257508D01*
X11230991Y-12257508D02*
X11250039Y-12247984D01*
X11402420Y-12447984D02*
X11402420Y-12314650D01*
X11402420Y-12333698D02*
X11411943Y-12324174D01*
X11411943Y-12324174D02*
X11430991Y-12314650D01*
X11430991Y-12314650D02*
X11459563Y-12314650D01*
X11459563Y-12314650D02*
X11478610Y-12324174D01*
X11478610Y-12324174D02*
X11488134Y-12343222D01*
X11488134Y-12343222D02*
X11488134Y-12447984D01*
X11488134Y-12343222D02*
X11497658Y-12324174D01*
X11497658Y-12324174D02*
X11516705Y-12314650D01*
X11516705Y-12314650D02*
X11545277Y-12314650D01*
X11545277Y-12314650D02*
X11564324Y-12324174D01*
X11564324Y-12324174D02*
X11573848Y-12343222D01*
X11573848Y-12343222D02*
X11573848Y-12447984D01*
X11669086Y-12447984D02*
X11669086Y-12314650D01*
X11669086Y-12333698D02*
X11678610Y-12324174D01*
X11678610Y-12324174D02*
X11697658Y-12314650D01*
X11697658Y-12314650D02*
X11726229Y-12314650D01*
X11726229Y-12314650D02*
X11745277Y-12324174D01*
X11745277Y-12324174D02*
X11754801Y-12343222D01*
X11754801Y-12343222D02*
X11754801Y-12447984D01*
X11754801Y-12343222D02*
X11764324Y-12324174D01*
X11764324Y-12324174D02*
X11783372Y-12314650D01*
X11783372Y-12314650D02*
X11811943Y-12314650D01*
X11811943Y-12314650D02*
X11830991Y-12324174D01*
X11830991Y-12324174D02*
X11840515Y-12343222D01*
X11840515Y-12343222D02*
X11840515Y-12447984D01*
X12230991Y-12238460D02*
X12059563Y-12495603D01*
X12488134Y-12247984D02*
X12507182Y-12247984D01*
X12507182Y-12247984D02*
X12526229Y-12257508D01*
X12526229Y-12257508D02*
X12535753Y-12267031D01*
X12535753Y-12267031D02*
X12545277Y-12286079D01*
X12545277Y-12286079D02*
X12554801Y-12324174D01*
X12554801Y-12324174D02*
X12554801Y-12371793D01*
X12554801Y-12371793D02*
X12545277Y-12409888D01*
X12545277Y-12409888D02*
X12535753Y-12428936D01*
X12535753Y-12428936D02*
X12526229Y-12438460D01*
X12526229Y-12438460D02*
X12507182Y-12447984D01*
X12507182Y-12447984D02*
X12488134Y-12447984D01*
X12488134Y-12447984D02*
X12469086Y-12438460D01*
X12469086Y-12438460D02*
X12459563Y-12428936D01*
X12459563Y-12428936D02*
X12450039Y-12409888D01*
X12450039Y-12409888D02*
X12440515Y-12371793D01*
X12440515Y-12371793D02*
X12440515Y-12324174D01*
X12440515Y-12324174D02*
X12450039Y-12286079D01*
X12450039Y-12286079D02*
X12459563Y-12267031D01*
X12459563Y-12267031D02*
X12469086Y-12257508D01*
X12469086Y-12257508D02*
X12488134Y-12247984D01*
X12640515Y-12428936D02*
X12650039Y-12438460D01*
X12650039Y-12438460D02*
X12640515Y-12447984D01*
X12640515Y-12447984D02*
X12630991Y-12438460D01*
X12630991Y-12438460D02*
X12640515Y-12428936D01*
X12640515Y-12428936D02*
X12640515Y-12447984D01*
X12773848Y-12247984D02*
X12792896Y-12247984D01*
X12792896Y-12247984D02*
X12811944Y-12257508D01*
X12811944Y-12257508D02*
X12821467Y-12267031D01*
X12821467Y-12267031D02*
X12830991Y-12286079D01*
X12830991Y-12286079D02*
X12840515Y-12324174D01*
X12840515Y-12324174D02*
X12840515Y-12371793D01*
X12840515Y-12371793D02*
X12830991Y-12409888D01*
X12830991Y-12409888D02*
X12821467Y-12428936D01*
X12821467Y-12428936D02*
X12811944Y-12438460D01*
X12811944Y-12438460D02*
X12792896Y-12447984D01*
X12792896Y-12447984D02*
X12773848Y-12447984D01*
X12773848Y-12447984D02*
X12754801Y-12438460D01*
X12754801Y-12438460D02*
X12745277Y-12428936D01*
X12745277Y-12428936D02*
X12735753Y-12409888D01*
X12735753Y-12409888D02*
X12726229Y-12371793D01*
X12726229Y-12371793D02*
X12726229Y-12324174D01*
X12726229Y-12324174D02*
X12735753Y-12286079D01*
X12735753Y-12286079D02*
X12745277Y-12267031D01*
X12745277Y-12267031D02*
X12754801Y-12257508D01*
X12754801Y-12257508D02*
X12773848Y-12247984D01*
X12907182Y-12247984D02*
X13030991Y-12247984D01*
X13030991Y-12247984D02*
X12964325Y-12324174D01*
X12964325Y-12324174D02*
X12992896Y-12324174D01*
X12992896Y-12324174D02*
X13011944Y-12333698D01*
X13011944Y-12333698D02*
X13021467Y-12343222D01*
X13021467Y-12343222D02*
X13030991Y-12362269D01*
X13030991Y-12362269D02*
X13030991Y-12409888D01*
X13030991Y-12409888D02*
X13021467Y-12428936D01*
X13021467Y-12428936D02*
X13011944Y-12438460D01*
X13011944Y-12438460D02*
X12992896Y-12447984D01*
X12992896Y-12447984D02*
X12935753Y-12447984D01*
X12935753Y-12447984D02*
X12916706Y-12438460D01*
X12916706Y-12438460D02*
X12907182Y-12428936D01*
X13221467Y-12447984D02*
X13107182Y-12447984D01*
X13164325Y-12447984D02*
X13164325Y-12247984D01*
X13164325Y-12247984D02*
X13145277Y-12276555D01*
X13145277Y-12276555D02*
X13126229Y-12295603D01*
X13126229Y-12295603D02*
X13107182Y-12305127D01*
X13402420Y-12247984D02*
X13307182Y-12247984D01*
X13307182Y-12247984D02*
X13297658Y-12343222D01*
X13297658Y-12343222D02*
X13307182Y-12333698D01*
X13307182Y-12333698D02*
X13326229Y-12324174D01*
X13326229Y-12324174D02*
X13373848Y-12324174D01*
X13373848Y-12324174D02*
X13392896Y-12333698D01*
X13392896Y-12333698D02*
X13402420Y-12343222D01*
X13402420Y-12343222D02*
X13411944Y-12362269D01*
X13411944Y-12362269D02*
X13411944Y-12409888D01*
X13411944Y-12409888D02*
X13402420Y-12428936D01*
X13402420Y-12428936D02*
X13392896Y-12438460D01*
X13392896Y-12438460D02*
X13373848Y-12447984D01*
X13373848Y-12447984D02*
X13326229Y-12447984D01*
X13326229Y-12447984D02*
X13307182Y-12438460D01*
X13307182Y-12438460D02*
X13297658Y-12428936D01*
X13488134Y-12247984D02*
X13488134Y-12286079D01*
X13564325Y-12247984D02*
X13564325Y-12286079D01*
X13859563Y-12524174D02*
X13850039Y-12514650D01*
X13850039Y-12514650D02*
X13830991Y-12486079D01*
X13830991Y-12486079D02*
X13821468Y-12467031D01*
X13821468Y-12467031D02*
X13811944Y-12438460D01*
X13811944Y-12438460D02*
X13802420Y-12390841D01*
X13802420Y-12390841D02*
X13802420Y-12352746D01*
X13802420Y-12352746D02*
X13811944Y-12305127D01*
X13811944Y-12305127D02*
X13821468Y-12276555D01*
X13821468Y-12276555D02*
X13830991Y-12257508D01*
X13830991Y-12257508D02*
X13850039Y-12228936D01*
X13850039Y-12228936D02*
X13859563Y-12219412D01*
X14040515Y-12447984D02*
X13926229Y-12447984D01*
X13983372Y-12447984D02*
X13983372Y-12247984D01*
X13983372Y-12247984D02*
X13964325Y-12276555D01*
X13964325Y-12276555D02*
X13945277Y-12295603D01*
X13945277Y-12295603D02*
X13926229Y-12305127D01*
X14116706Y-12267031D02*
X14126229Y-12257508D01*
X14126229Y-12257508D02*
X14145277Y-12247984D01*
X14145277Y-12247984D02*
X14192896Y-12247984D01*
X14192896Y-12247984D02*
X14211944Y-12257508D01*
X14211944Y-12257508D02*
X14221468Y-12267031D01*
X14221468Y-12267031D02*
X14230991Y-12286079D01*
X14230991Y-12286079D02*
X14230991Y-12305127D01*
X14230991Y-12305127D02*
X14221468Y-12333698D01*
X14221468Y-12333698D02*
X14107182Y-12447984D01*
X14107182Y-12447984D02*
X14230991Y-12447984D01*
X14469087Y-12447984D02*
X14469087Y-12247984D01*
X14554801Y-12447984D02*
X14554801Y-12343222D01*
X14554801Y-12343222D02*
X14545277Y-12324174D01*
X14545277Y-12324174D02*
X14526230Y-12314650D01*
X14526230Y-12314650D02*
X14497658Y-12314650D01*
X14497658Y-12314650D02*
X14478610Y-12324174D01*
X14478610Y-12324174D02*
X14469087Y-12333698D01*
X14678610Y-12447984D02*
X14659563Y-12438460D01*
X14659563Y-12438460D02*
X14650039Y-12428936D01*
X14650039Y-12428936D02*
X14640515Y-12409888D01*
X14640515Y-12409888D02*
X14640515Y-12352746D01*
X14640515Y-12352746D02*
X14650039Y-12333698D01*
X14650039Y-12333698D02*
X14659563Y-12324174D01*
X14659563Y-12324174D02*
X14678610Y-12314650D01*
X14678610Y-12314650D02*
X14707182Y-12314650D01*
X14707182Y-12314650D02*
X14726230Y-12324174D01*
X14726230Y-12324174D02*
X14735753Y-12333698D01*
X14735753Y-12333698D02*
X14745277Y-12352746D01*
X14745277Y-12352746D02*
X14745277Y-12409888D01*
X14745277Y-12409888D02*
X14735753Y-12428936D01*
X14735753Y-12428936D02*
X14726230Y-12438460D01*
X14726230Y-12438460D02*
X14707182Y-12447984D01*
X14707182Y-12447984D02*
X14678610Y-12447984D01*
X14859563Y-12447984D02*
X14840515Y-12438460D01*
X14840515Y-12438460D02*
X14830991Y-12419412D01*
X14830991Y-12419412D02*
X14830991Y-12247984D01*
X15011944Y-12438460D02*
X14992896Y-12447984D01*
X14992896Y-12447984D02*
X14954801Y-12447984D01*
X14954801Y-12447984D02*
X14935753Y-12438460D01*
X14935753Y-12438460D02*
X14926230Y-12419412D01*
X14926230Y-12419412D02*
X14926230Y-12343222D01*
X14926230Y-12343222D02*
X14935753Y-12324174D01*
X14935753Y-12324174D02*
X14954801Y-12314650D01*
X14954801Y-12314650D02*
X14992896Y-12314650D01*
X14992896Y-12314650D02*
X15011944Y-12324174D01*
X15011944Y-12324174D02*
X15021468Y-12343222D01*
X15021468Y-12343222D02*
X15021468Y-12362269D01*
X15021468Y-12362269D02*
X14926230Y-12381317D01*
X15097658Y-12438460D02*
X15116706Y-12447984D01*
X15116706Y-12447984D02*
X15154801Y-12447984D01*
X15154801Y-12447984D02*
X15173849Y-12438460D01*
X15173849Y-12438460D02*
X15183372Y-12419412D01*
X15183372Y-12419412D02*
X15183372Y-12409888D01*
X15183372Y-12409888D02*
X15173849Y-12390841D01*
X15173849Y-12390841D02*
X15154801Y-12381317D01*
X15154801Y-12381317D02*
X15126230Y-12381317D01*
X15126230Y-12381317D02*
X15107182Y-12371793D01*
X15107182Y-12371793D02*
X15097658Y-12352746D01*
X15097658Y-12352746D02*
X15097658Y-12343222D01*
X15097658Y-12343222D02*
X15107182Y-12324174D01*
X15107182Y-12324174D02*
X15126230Y-12314650D01*
X15126230Y-12314650D02*
X15154801Y-12314650D01*
X15154801Y-12314650D02*
X15173849Y-12324174D01*
X15250039Y-12524174D02*
X15259563Y-12514650D01*
X15259563Y-12514650D02*
X15278611Y-12486079D01*
X15278611Y-12486079D02*
X15288134Y-12467031D01*
X15288134Y-12467031D02*
X15297658Y-12438460D01*
X15297658Y-12438460D02*
X15307182Y-12390841D01*
X15307182Y-12390841D02*
X15307182Y-12352746D01*
X15307182Y-12352746D02*
X15297658Y-12305127D01*
X15297658Y-12305127D02*
X15288134Y-12276555D01*
X15288134Y-12276555D02*
X15278611Y-12257508D01*
X15278611Y-12257508D02*
X15259563Y-12228936D01*
X15259563Y-12228936D02*
X15250039Y-12219412D01*
D12*
X10234500Y-12670500D02*
X10284500Y-12620500D01*
X10234500Y-12570500D01*
X10184500Y-12620500D01*
X10234500Y-12670500D01*
D11*
X10650039Y-12711984D02*
X10535753Y-12711984D01*
X10592896Y-12711984D02*
X10592896Y-12511984D01*
X10592896Y-12511984D02*
X10573848Y-12540555D01*
X10573848Y-12540555D02*
X10554801Y-12559603D01*
X10554801Y-12559603D02*
X10535753Y-12569127D01*
X10735753Y-12692936D02*
X10745277Y-12702460D01*
X10745277Y-12702460D02*
X10735753Y-12711984D01*
X10735753Y-12711984D02*
X10726229Y-12702460D01*
X10726229Y-12702460D02*
X10735753Y-12692936D01*
X10735753Y-12692936D02*
X10735753Y-12711984D01*
X10869086Y-12511984D02*
X10888134Y-12511984D01*
X10888134Y-12511984D02*
X10907182Y-12521508D01*
X10907182Y-12521508D02*
X10916705Y-12531031D01*
X10916705Y-12531031D02*
X10926229Y-12550079D01*
X10926229Y-12550079D02*
X10935753Y-12588174D01*
X10935753Y-12588174D02*
X10935753Y-12635793D01*
X10935753Y-12635793D02*
X10926229Y-12673888D01*
X10926229Y-12673888D02*
X10916705Y-12692936D01*
X10916705Y-12692936D02*
X10907182Y-12702460D01*
X10907182Y-12702460D02*
X10888134Y-12711984D01*
X10888134Y-12711984D02*
X10869086Y-12711984D01*
X10869086Y-12711984D02*
X10850039Y-12702460D01*
X10850039Y-12702460D02*
X10840515Y-12692936D01*
X10840515Y-12692936D02*
X10830991Y-12673888D01*
X10830991Y-12673888D02*
X10821467Y-12635793D01*
X10821467Y-12635793D02*
X10821467Y-12588174D01*
X10821467Y-12588174D02*
X10830991Y-12550079D01*
X10830991Y-12550079D02*
X10840515Y-12531031D01*
X10840515Y-12531031D02*
X10850039Y-12521508D01*
X10850039Y-12521508D02*
X10869086Y-12511984D01*
X11059563Y-12511984D02*
X11078610Y-12511984D01*
X11078610Y-12511984D02*
X11097658Y-12521508D01*
X11097658Y-12521508D02*
X11107182Y-12531031D01*
X11107182Y-12531031D02*
X11116705Y-12550079D01*
X11116705Y-12550079D02*
X11126229Y-12588174D01*
X11126229Y-12588174D02*
X11126229Y-12635793D01*
X11126229Y-12635793D02*
X11116705Y-12673888D01*
X11116705Y-12673888D02*
X11107182Y-12692936D01*
X11107182Y-12692936D02*
X11097658Y-12702460D01*
X11097658Y-12702460D02*
X11078610Y-12711984D01*
X11078610Y-12711984D02*
X11059563Y-12711984D01*
X11059563Y-12711984D02*
X11040515Y-12702460D01*
X11040515Y-12702460D02*
X11030991Y-12692936D01*
X11030991Y-12692936D02*
X11021467Y-12673888D01*
X11021467Y-12673888D02*
X11011944Y-12635793D01*
X11011944Y-12635793D02*
X11011944Y-12588174D01*
X11011944Y-12588174D02*
X11021467Y-12550079D01*
X11021467Y-12550079D02*
X11030991Y-12531031D01*
X11030991Y-12531031D02*
X11040515Y-12521508D01*
X11040515Y-12521508D02*
X11059563Y-12511984D01*
X11250039Y-12511984D02*
X11269086Y-12511984D01*
X11269086Y-12511984D02*
X11288134Y-12521508D01*
X11288134Y-12521508D02*
X11297658Y-12531031D01*
X11297658Y-12531031D02*
X11307182Y-12550079D01*
X11307182Y-12550079D02*
X11316705Y-12588174D01*
X11316705Y-12588174D02*
X11316705Y-12635793D01*
X11316705Y-12635793D02*
X11307182Y-12673888D01*
X11307182Y-12673888D02*
X11297658Y-12692936D01*
X11297658Y-12692936D02*
X11288134Y-12702460D01*
X11288134Y-12702460D02*
X11269086Y-12711984D01*
X11269086Y-12711984D02*
X11250039Y-12711984D01*
X11250039Y-12711984D02*
X11230991Y-12702460D01*
X11230991Y-12702460D02*
X11221467Y-12692936D01*
X11221467Y-12692936D02*
X11211943Y-12673888D01*
X11211943Y-12673888D02*
X11202420Y-12635793D01*
X11202420Y-12635793D02*
X11202420Y-12588174D01*
X11202420Y-12588174D02*
X11211943Y-12550079D01*
X11211943Y-12550079D02*
X11221467Y-12531031D01*
X11221467Y-12531031D02*
X11230991Y-12521508D01*
X11230991Y-12521508D02*
X11250039Y-12511984D01*
X11402420Y-12711984D02*
X11402420Y-12578650D01*
X11402420Y-12597698D02*
X11411943Y-12588174D01*
X11411943Y-12588174D02*
X11430991Y-12578650D01*
X11430991Y-12578650D02*
X11459563Y-12578650D01*
X11459563Y-12578650D02*
X11478610Y-12588174D01*
X11478610Y-12588174D02*
X11488134Y-12607222D01*
X11488134Y-12607222D02*
X11488134Y-12711984D01*
X11488134Y-12607222D02*
X11497658Y-12588174D01*
X11497658Y-12588174D02*
X11516705Y-12578650D01*
X11516705Y-12578650D02*
X11545277Y-12578650D01*
X11545277Y-12578650D02*
X11564324Y-12588174D01*
X11564324Y-12588174D02*
X11573848Y-12607222D01*
X11573848Y-12607222D02*
X11573848Y-12711984D01*
X11669086Y-12711984D02*
X11669086Y-12578650D01*
X11669086Y-12597698D02*
X11678610Y-12588174D01*
X11678610Y-12588174D02*
X11697658Y-12578650D01*
X11697658Y-12578650D02*
X11726229Y-12578650D01*
X11726229Y-12578650D02*
X11745277Y-12588174D01*
X11745277Y-12588174D02*
X11754801Y-12607222D01*
X11754801Y-12607222D02*
X11754801Y-12711984D01*
X11754801Y-12607222D02*
X11764324Y-12588174D01*
X11764324Y-12588174D02*
X11783372Y-12578650D01*
X11783372Y-12578650D02*
X11811943Y-12578650D01*
X11811943Y-12578650D02*
X11830991Y-12588174D01*
X11830991Y-12588174D02*
X11840515Y-12607222D01*
X11840515Y-12607222D02*
X11840515Y-12711984D01*
X12230991Y-12502460D02*
X12059563Y-12759603D01*
X12488134Y-12511984D02*
X12507182Y-12511984D01*
X12507182Y-12511984D02*
X12526229Y-12521508D01*
X12526229Y-12521508D02*
X12535753Y-12531031D01*
X12535753Y-12531031D02*
X12545277Y-12550079D01*
X12545277Y-12550079D02*
X12554801Y-12588174D01*
X12554801Y-12588174D02*
X12554801Y-12635793D01*
X12554801Y-12635793D02*
X12545277Y-12673888D01*
X12545277Y-12673888D02*
X12535753Y-12692936D01*
X12535753Y-12692936D02*
X12526229Y-12702460D01*
X12526229Y-12702460D02*
X12507182Y-12711984D01*
X12507182Y-12711984D02*
X12488134Y-12711984D01*
X12488134Y-12711984D02*
X12469086Y-12702460D01*
X12469086Y-12702460D02*
X12459563Y-12692936D01*
X12459563Y-12692936D02*
X12450039Y-12673888D01*
X12450039Y-12673888D02*
X12440515Y-12635793D01*
X12440515Y-12635793D02*
X12440515Y-12588174D01*
X12440515Y-12588174D02*
X12450039Y-12550079D01*
X12450039Y-12550079D02*
X12459563Y-12531031D01*
X12459563Y-12531031D02*
X12469086Y-12521508D01*
X12469086Y-12521508D02*
X12488134Y-12511984D01*
X12640515Y-12692936D02*
X12650039Y-12702460D01*
X12650039Y-12702460D02*
X12640515Y-12711984D01*
X12640515Y-12711984D02*
X12630991Y-12702460D01*
X12630991Y-12702460D02*
X12640515Y-12692936D01*
X12640515Y-12692936D02*
X12640515Y-12711984D01*
X12773848Y-12511984D02*
X12792896Y-12511984D01*
X12792896Y-12511984D02*
X12811944Y-12521508D01*
X12811944Y-12521508D02*
X12821467Y-12531031D01*
X12821467Y-12531031D02*
X12830991Y-12550079D01*
X12830991Y-12550079D02*
X12840515Y-12588174D01*
X12840515Y-12588174D02*
X12840515Y-12635793D01*
X12840515Y-12635793D02*
X12830991Y-12673888D01*
X12830991Y-12673888D02*
X12821467Y-12692936D01*
X12821467Y-12692936D02*
X12811944Y-12702460D01*
X12811944Y-12702460D02*
X12792896Y-12711984D01*
X12792896Y-12711984D02*
X12773848Y-12711984D01*
X12773848Y-12711984D02*
X12754801Y-12702460D01*
X12754801Y-12702460D02*
X12745277Y-12692936D01*
X12745277Y-12692936D02*
X12735753Y-12673888D01*
X12735753Y-12673888D02*
X12726229Y-12635793D01*
X12726229Y-12635793D02*
X12726229Y-12588174D01*
X12726229Y-12588174D02*
X12735753Y-12550079D01*
X12735753Y-12550079D02*
X12745277Y-12531031D01*
X12745277Y-12531031D02*
X12754801Y-12521508D01*
X12754801Y-12521508D02*
X12773848Y-12511984D01*
X12907182Y-12511984D02*
X13030991Y-12511984D01*
X13030991Y-12511984D02*
X12964325Y-12588174D01*
X12964325Y-12588174D02*
X12992896Y-12588174D01*
X12992896Y-12588174D02*
X13011944Y-12597698D01*
X13011944Y-12597698D02*
X13021467Y-12607222D01*
X13021467Y-12607222D02*
X13030991Y-12626269D01*
X13030991Y-12626269D02*
X13030991Y-12673888D01*
X13030991Y-12673888D02*
X13021467Y-12692936D01*
X13021467Y-12692936D02*
X13011944Y-12702460D01*
X13011944Y-12702460D02*
X12992896Y-12711984D01*
X12992896Y-12711984D02*
X12935753Y-12711984D01*
X12935753Y-12711984D02*
X12916706Y-12702460D01*
X12916706Y-12702460D02*
X12907182Y-12692936D01*
X13126229Y-12711984D02*
X13164325Y-12711984D01*
X13164325Y-12711984D02*
X13183372Y-12702460D01*
X13183372Y-12702460D02*
X13192896Y-12692936D01*
X13192896Y-12692936D02*
X13211944Y-12664365D01*
X13211944Y-12664365D02*
X13221467Y-12626269D01*
X13221467Y-12626269D02*
X13221467Y-12550079D01*
X13221467Y-12550079D02*
X13211944Y-12531031D01*
X13211944Y-12531031D02*
X13202420Y-12521508D01*
X13202420Y-12521508D02*
X13183372Y-12511984D01*
X13183372Y-12511984D02*
X13145277Y-12511984D01*
X13145277Y-12511984D02*
X13126229Y-12521508D01*
X13126229Y-12521508D02*
X13116706Y-12531031D01*
X13116706Y-12531031D02*
X13107182Y-12550079D01*
X13107182Y-12550079D02*
X13107182Y-12597698D01*
X13107182Y-12597698D02*
X13116706Y-12616746D01*
X13116706Y-12616746D02*
X13126229Y-12626269D01*
X13126229Y-12626269D02*
X13145277Y-12635793D01*
X13145277Y-12635793D02*
X13183372Y-12635793D01*
X13183372Y-12635793D02*
X13202420Y-12626269D01*
X13202420Y-12626269D02*
X13211944Y-12616746D01*
X13211944Y-12616746D02*
X13221467Y-12597698D01*
X13392896Y-12578650D02*
X13392896Y-12711984D01*
X13345277Y-12502460D02*
X13297658Y-12645317D01*
X13297658Y-12645317D02*
X13421467Y-12645317D01*
X13488134Y-12511984D02*
X13488134Y-12550079D01*
X13564325Y-12511984D02*
X13564325Y-12550079D01*
X13859563Y-12788174D02*
X13850039Y-12778650D01*
X13850039Y-12778650D02*
X13830991Y-12750079D01*
X13830991Y-12750079D02*
X13821468Y-12731031D01*
X13821468Y-12731031D02*
X13811944Y-12702460D01*
X13811944Y-12702460D02*
X13802420Y-12654841D01*
X13802420Y-12654841D02*
X13802420Y-12616746D01*
X13802420Y-12616746D02*
X13811944Y-12569127D01*
X13811944Y-12569127D02*
X13821468Y-12540555D01*
X13821468Y-12540555D02*
X13830991Y-12521508D01*
X13830991Y-12521508D02*
X13850039Y-12492936D01*
X13850039Y-12492936D02*
X13859563Y-12483412D01*
X14040515Y-12711984D02*
X13926229Y-12711984D01*
X13983372Y-12711984D02*
X13983372Y-12511984D01*
X13983372Y-12511984D02*
X13964325Y-12540555D01*
X13964325Y-12540555D02*
X13945277Y-12559603D01*
X13945277Y-12559603D02*
X13926229Y-12569127D01*
X14135753Y-12711984D02*
X14173848Y-12711984D01*
X14173848Y-12711984D02*
X14192896Y-12702460D01*
X14192896Y-12702460D02*
X14202420Y-12692936D01*
X14202420Y-12692936D02*
X14221468Y-12664365D01*
X14221468Y-12664365D02*
X14230991Y-12626269D01*
X14230991Y-12626269D02*
X14230991Y-12550079D01*
X14230991Y-12550079D02*
X14221468Y-12531031D01*
X14221468Y-12531031D02*
X14211944Y-12521508D01*
X14211944Y-12521508D02*
X14192896Y-12511984D01*
X14192896Y-12511984D02*
X14154801Y-12511984D01*
X14154801Y-12511984D02*
X14135753Y-12521508D01*
X14135753Y-12521508D02*
X14126229Y-12531031D01*
X14126229Y-12531031D02*
X14116706Y-12550079D01*
X14116706Y-12550079D02*
X14116706Y-12597698D01*
X14116706Y-12597698D02*
X14126229Y-12616746D01*
X14126229Y-12616746D02*
X14135753Y-12626269D01*
X14135753Y-12626269D02*
X14154801Y-12635793D01*
X14154801Y-12635793D02*
X14192896Y-12635793D01*
X14192896Y-12635793D02*
X14211944Y-12626269D01*
X14211944Y-12626269D02*
X14221468Y-12616746D01*
X14221468Y-12616746D02*
X14230991Y-12597698D01*
X14469087Y-12711984D02*
X14469087Y-12511984D01*
X14554801Y-12711984D02*
X14554801Y-12607222D01*
X14554801Y-12607222D02*
X14545277Y-12588174D01*
X14545277Y-12588174D02*
X14526230Y-12578650D01*
X14526230Y-12578650D02*
X14497658Y-12578650D01*
X14497658Y-12578650D02*
X14478610Y-12588174D01*
X14478610Y-12588174D02*
X14469087Y-12597698D01*
X14678610Y-12711984D02*
X14659563Y-12702460D01*
X14659563Y-12702460D02*
X14650039Y-12692936D01*
X14650039Y-12692936D02*
X14640515Y-12673888D01*
X14640515Y-12673888D02*
X14640515Y-12616746D01*
X14640515Y-12616746D02*
X14650039Y-12597698D01*
X14650039Y-12597698D02*
X14659563Y-12588174D01*
X14659563Y-12588174D02*
X14678610Y-12578650D01*
X14678610Y-12578650D02*
X14707182Y-12578650D01*
X14707182Y-12578650D02*
X14726230Y-12588174D01*
X14726230Y-12588174D02*
X14735753Y-12597698D01*
X14735753Y-12597698D02*
X14745277Y-12616746D01*
X14745277Y-12616746D02*
X14745277Y-12673888D01*
X14745277Y-12673888D02*
X14735753Y-12692936D01*
X14735753Y-12692936D02*
X14726230Y-12702460D01*
X14726230Y-12702460D02*
X14707182Y-12711984D01*
X14707182Y-12711984D02*
X14678610Y-12711984D01*
X14859563Y-12711984D02*
X14840515Y-12702460D01*
X14840515Y-12702460D02*
X14830991Y-12683412D01*
X14830991Y-12683412D02*
X14830991Y-12511984D01*
X15011944Y-12702460D02*
X14992896Y-12711984D01*
X14992896Y-12711984D02*
X14954801Y-12711984D01*
X14954801Y-12711984D02*
X14935753Y-12702460D01*
X14935753Y-12702460D02*
X14926230Y-12683412D01*
X14926230Y-12683412D02*
X14926230Y-12607222D01*
X14926230Y-12607222D02*
X14935753Y-12588174D01*
X14935753Y-12588174D02*
X14954801Y-12578650D01*
X14954801Y-12578650D02*
X14992896Y-12578650D01*
X14992896Y-12578650D02*
X15011944Y-12588174D01*
X15011944Y-12588174D02*
X15021468Y-12607222D01*
X15021468Y-12607222D02*
X15021468Y-12626269D01*
X15021468Y-12626269D02*
X14926230Y-12645317D01*
X15097658Y-12702460D02*
X15116706Y-12711984D01*
X15116706Y-12711984D02*
X15154801Y-12711984D01*
X15154801Y-12711984D02*
X15173849Y-12702460D01*
X15173849Y-12702460D02*
X15183372Y-12683412D01*
X15183372Y-12683412D02*
X15183372Y-12673888D01*
X15183372Y-12673888D02*
X15173849Y-12654841D01*
X15173849Y-12654841D02*
X15154801Y-12645317D01*
X15154801Y-12645317D02*
X15126230Y-12645317D01*
X15126230Y-12645317D02*
X15107182Y-12635793D01*
X15107182Y-12635793D02*
X15097658Y-12616746D01*
X15097658Y-12616746D02*
X15097658Y-12607222D01*
X15097658Y-12607222D02*
X15107182Y-12588174D01*
X15107182Y-12588174D02*
X15126230Y-12578650D01*
X15126230Y-12578650D02*
X15154801Y-12578650D01*
X15154801Y-12578650D02*
X15173849Y-12588174D01*
X15250039Y-12788174D02*
X15259563Y-12778650D01*
X15259563Y-12778650D02*
X15278611Y-12750079D01*
X15278611Y-12750079D02*
X15288134Y-12731031D01*
X15288134Y-12731031D02*
X15297658Y-12702460D01*
X15297658Y-12702460D02*
X15307182Y-12654841D01*
X15307182Y-12654841D02*
X15307182Y-12616746D01*
X15307182Y-12616746D02*
X15297658Y-12569127D01*
X15297658Y-12569127D02*
X15288134Y-12540555D01*
X15288134Y-12540555D02*
X15278611Y-12521508D01*
X15278611Y-12521508D02*
X15259563Y-12492936D01*
X15259563Y-12492936D02*
X15250039Y-12483412D01*
D13*
X10164500Y-12824500D02*
X10284500Y-12944500D01*
X10284500Y-12824500D02*
X10164500Y-12944500D01*
X10284500Y-12884500D02*
G75*
G02*
X10164500Y-12884500I-60000J0D01*
G01*
X10164500Y-12884500D02*
G75*
G02*
X10284500Y-12884500I60000J0D01*
G01*
D11*
X10650039Y-12975984D02*
X10535753Y-12975984D01*
X10592896Y-12975984D02*
X10592896Y-12775984D01*
X10592896Y-12775984D02*
X10573848Y-12804555D01*
X10573848Y-12804555D02*
X10554801Y-12823603D01*
X10554801Y-12823603D02*
X10535753Y-12833127D01*
X10735753Y-12956936D02*
X10745277Y-12966460D01*
X10745277Y-12966460D02*
X10735753Y-12975984D01*
X10735753Y-12975984D02*
X10726229Y-12966460D01*
X10726229Y-12966460D02*
X10735753Y-12956936D01*
X10735753Y-12956936D02*
X10735753Y-12975984D01*
X10821467Y-12795031D02*
X10830991Y-12785508D01*
X10830991Y-12785508D02*
X10850039Y-12775984D01*
X10850039Y-12775984D02*
X10897658Y-12775984D01*
X10897658Y-12775984D02*
X10916705Y-12785508D01*
X10916705Y-12785508D02*
X10926229Y-12795031D01*
X10926229Y-12795031D02*
X10935753Y-12814079D01*
X10935753Y-12814079D02*
X10935753Y-12833127D01*
X10935753Y-12833127D02*
X10926229Y-12861698D01*
X10926229Y-12861698D02*
X10811944Y-12975984D01*
X10811944Y-12975984D02*
X10935753Y-12975984D01*
X11059563Y-12775984D02*
X11078610Y-12775984D01*
X11078610Y-12775984D02*
X11097658Y-12785508D01*
X11097658Y-12785508D02*
X11107182Y-12795031D01*
X11107182Y-12795031D02*
X11116705Y-12814079D01*
X11116705Y-12814079D02*
X11126229Y-12852174D01*
X11126229Y-12852174D02*
X11126229Y-12899793D01*
X11126229Y-12899793D02*
X11116705Y-12937888D01*
X11116705Y-12937888D02*
X11107182Y-12956936D01*
X11107182Y-12956936D02*
X11097658Y-12966460D01*
X11097658Y-12966460D02*
X11078610Y-12975984D01*
X11078610Y-12975984D02*
X11059563Y-12975984D01*
X11059563Y-12975984D02*
X11040515Y-12966460D01*
X11040515Y-12966460D02*
X11030991Y-12956936D01*
X11030991Y-12956936D02*
X11021467Y-12937888D01*
X11021467Y-12937888D02*
X11011944Y-12899793D01*
X11011944Y-12899793D02*
X11011944Y-12852174D01*
X11011944Y-12852174D02*
X11021467Y-12814079D01*
X11021467Y-12814079D02*
X11030991Y-12795031D01*
X11030991Y-12795031D02*
X11040515Y-12785508D01*
X11040515Y-12785508D02*
X11059563Y-12775984D01*
X11250039Y-12775984D02*
X11269086Y-12775984D01*
X11269086Y-12775984D02*
X11288134Y-12785508D01*
X11288134Y-12785508D02*
X11297658Y-12795031D01*
X11297658Y-12795031D02*
X11307182Y-12814079D01*
X11307182Y-12814079D02*
X11316705Y-12852174D01*
X11316705Y-12852174D02*
X11316705Y-12899793D01*
X11316705Y-12899793D02*
X11307182Y-12937888D01*
X11307182Y-12937888D02*
X11297658Y-12956936D01*
X11297658Y-12956936D02*
X11288134Y-12966460D01*
X11288134Y-12966460D02*
X11269086Y-12975984D01*
X11269086Y-12975984D02*
X11250039Y-12975984D01*
X11250039Y-12975984D02*
X11230991Y-12966460D01*
X11230991Y-12966460D02*
X11221467Y-12956936D01*
X11221467Y-12956936D02*
X11211943Y-12937888D01*
X11211943Y-12937888D02*
X11202420Y-12899793D01*
X11202420Y-12899793D02*
X11202420Y-12852174D01*
X11202420Y-12852174D02*
X11211943Y-12814079D01*
X11211943Y-12814079D02*
X11221467Y-12795031D01*
X11221467Y-12795031D02*
X11230991Y-12785508D01*
X11230991Y-12785508D02*
X11250039Y-12775984D01*
X11402420Y-12975984D02*
X11402420Y-12842650D01*
X11402420Y-12861698D02*
X11411943Y-12852174D01*
X11411943Y-12852174D02*
X11430991Y-12842650D01*
X11430991Y-12842650D02*
X11459563Y-12842650D01*
X11459563Y-12842650D02*
X11478610Y-12852174D01*
X11478610Y-12852174D02*
X11488134Y-12871222D01*
X11488134Y-12871222D02*
X11488134Y-12975984D01*
X11488134Y-12871222D02*
X11497658Y-12852174D01*
X11497658Y-12852174D02*
X11516705Y-12842650D01*
X11516705Y-12842650D02*
X11545277Y-12842650D01*
X11545277Y-12842650D02*
X11564324Y-12852174D01*
X11564324Y-12852174D02*
X11573848Y-12871222D01*
X11573848Y-12871222D02*
X11573848Y-12975984D01*
X11669086Y-12975984D02*
X11669086Y-12842650D01*
X11669086Y-12861698D02*
X11678610Y-12852174D01*
X11678610Y-12852174D02*
X11697658Y-12842650D01*
X11697658Y-12842650D02*
X11726229Y-12842650D01*
X11726229Y-12842650D02*
X11745277Y-12852174D01*
X11745277Y-12852174D02*
X11754801Y-12871222D01*
X11754801Y-12871222D02*
X11754801Y-12975984D01*
X11754801Y-12871222D02*
X11764324Y-12852174D01*
X11764324Y-12852174D02*
X11783372Y-12842650D01*
X11783372Y-12842650D02*
X11811943Y-12842650D01*
X11811943Y-12842650D02*
X11830991Y-12852174D01*
X11830991Y-12852174D02*
X11840515Y-12871222D01*
X11840515Y-12871222D02*
X11840515Y-12975984D01*
X12230991Y-12766460D02*
X12059563Y-13023603D01*
X12488134Y-12775984D02*
X12507182Y-12775984D01*
X12507182Y-12775984D02*
X12526229Y-12785508D01*
X12526229Y-12785508D02*
X12535753Y-12795031D01*
X12535753Y-12795031D02*
X12545277Y-12814079D01*
X12545277Y-12814079D02*
X12554801Y-12852174D01*
X12554801Y-12852174D02*
X12554801Y-12899793D01*
X12554801Y-12899793D02*
X12545277Y-12937888D01*
X12545277Y-12937888D02*
X12535753Y-12956936D01*
X12535753Y-12956936D02*
X12526229Y-12966460D01*
X12526229Y-12966460D02*
X12507182Y-12975984D01*
X12507182Y-12975984D02*
X12488134Y-12975984D01*
X12488134Y-12975984D02*
X12469086Y-12966460D01*
X12469086Y-12966460D02*
X12459563Y-12956936D01*
X12459563Y-12956936D02*
X12450039Y-12937888D01*
X12450039Y-12937888D02*
X12440515Y-12899793D01*
X12440515Y-12899793D02*
X12440515Y-12852174D01*
X12440515Y-12852174D02*
X12450039Y-12814079D01*
X12450039Y-12814079D02*
X12459563Y-12795031D01*
X12459563Y-12795031D02*
X12469086Y-12785508D01*
X12469086Y-12785508D02*
X12488134Y-12775984D01*
X12640515Y-12956936D02*
X12650039Y-12966460D01*
X12650039Y-12966460D02*
X12640515Y-12975984D01*
X12640515Y-12975984D02*
X12630991Y-12966460D01*
X12630991Y-12966460D02*
X12640515Y-12956936D01*
X12640515Y-12956936D02*
X12640515Y-12975984D01*
X12773848Y-12775984D02*
X12792896Y-12775984D01*
X12792896Y-12775984D02*
X12811944Y-12785508D01*
X12811944Y-12785508D02*
X12821467Y-12795031D01*
X12821467Y-12795031D02*
X12830991Y-12814079D01*
X12830991Y-12814079D02*
X12840515Y-12852174D01*
X12840515Y-12852174D02*
X12840515Y-12899793D01*
X12840515Y-12899793D02*
X12830991Y-12937888D01*
X12830991Y-12937888D02*
X12821467Y-12956936D01*
X12821467Y-12956936D02*
X12811944Y-12966460D01*
X12811944Y-12966460D02*
X12792896Y-12975984D01*
X12792896Y-12975984D02*
X12773848Y-12975984D01*
X12773848Y-12975984D02*
X12754801Y-12966460D01*
X12754801Y-12966460D02*
X12745277Y-12956936D01*
X12745277Y-12956936D02*
X12735753Y-12937888D01*
X12735753Y-12937888D02*
X12726229Y-12899793D01*
X12726229Y-12899793D02*
X12726229Y-12852174D01*
X12726229Y-12852174D02*
X12735753Y-12814079D01*
X12735753Y-12814079D02*
X12745277Y-12795031D01*
X12745277Y-12795031D02*
X12754801Y-12785508D01*
X12754801Y-12785508D02*
X12773848Y-12775984D01*
X13011944Y-12842650D02*
X13011944Y-12975984D01*
X12964325Y-12766460D02*
X12916706Y-12909317D01*
X12916706Y-12909317D02*
X13040515Y-12909317D01*
X13097658Y-12775984D02*
X13230991Y-12775984D01*
X13230991Y-12775984D02*
X13145277Y-12975984D01*
X13297658Y-12795031D02*
X13307182Y-12785508D01*
X13307182Y-12785508D02*
X13326229Y-12775984D01*
X13326229Y-12775984D02*
X13373848Y-12775984D01*
X13373848Y-12775984D02*
X13392896Y-12785508D01*
X13392896Y-12785508D02*
X13402420Y-12795031D01*
X13402420Y-12795031D02*
X13411944Y-12814079D01*
X13411944Y-12814079D02*
X13411944Y-12833127D01*
X13411944Y-12833127D02*
X13402420Y-12861698D01*
X13402420Y-12861698D02*
X13288134Y-12975984D01*
X13288134Y-12975984D02*
X13411944Y-12975984D01*
X13488134Y-12775984D02*
X13488134Y-12814079D01*
X13564325Y-12775984D02*
X13564325Y-12814079D01*
X13859563Y-13052174D02*
X13850039Y-13042650D01*
X13850039Y-13042650D02*
X13830991Y-13014079D01*
X13830991Y-13014079D02*
X13821468Y-12995031D01*
X13821468Y-12995031D02*
X13811944Y-12966460D01*
X13811944Y-12966460D02*
X13802420Y-12918841D01*
X13802420Y-12918841D02*
X13802420Y-12880746D01*
X13802420Y-12880746D02*
X13811944Y-12833127D01*
X13811944Y-12833127D02*
X13821468Y-12804555D01*
X13821468Y-12804555D02*
X13830991Y-12785508D01*
X13830991Y-12785508D02*
X13850039Y-12756936D01*
X13850039Y-12756936D02*
X13859563Y-12747412D01*
X13926229Y-12795031D02*
X13935753Y-12785508D01*
X13935753Y-12785508D02*
X13954801Y-12775984D01*
X13954801Y-12775984D02*
X14002420Y-12775984D01*
X14002420Y-12775984D02*
X14021468Y-12785508D01*
X14021468Y-12785508D02*
X14030991Y-12795031D01*
X14030991Y-12795031D02*
X14040515Y-12814079D01*
X14040515Y-12814079D02*
X14040515Y-12833127D01*
X14040515Y-12833127D02*
X14030991Y-12861698D01*
X14030991Y-12861698D02*
X13916706Y-12975984D01*
X13916706Y-12975984D02*
X14040515Y-12975984D01*
X14278610Y-12975984D02*
X14278610Y-12775984D01*
X14364325Y-12975984D02*
X14364325Y-12871222D01*
X14364325Y-12871222D02*
X14354801Y-12852174D01*
X14354801Y-12852174D02*
X14335753Y-12842650D01*
X14335753Y-12842650D02*
X14307182Y-12842650D01*
X14307182Y-12842650D02*
X14288134Y-12852174D01*
X14288134Y-12852174D02*
X14278610Y-12861698D01*
X14488134Y-12975984D02*
X14469087Y-12966460D01*
X14469087Y-12966460D02*
X14459563Y-12956936D01*
X14459563Y-12956936D02*
X14450039Y-12937888D01*
X14450039Y-12937888D02*
X14450039Y-12880746D01*
X14450039Y-12880746D02*
X14459563Y-12861698D01*
X14459563Y-12861698D02*
X14469087Y-12852174D01*
X14469087Y-12852174D02*
X14488134Y-12842650D01*
X14488134Y-12842650D02*
X14516706Y-12842650D01*
X14516706Y-12842650D02*
X14535753Y-12852174D01*
X14535753Y-12852174D02*
X14545277Y-12861698D01*
X14545277Y-12861698D02*
X14554801Y-12880746D01*
X14554801Y-12880746D02*
X14554801Y-12937888D01*
X14554801Y-12937888D02*
X14545277Y-12956936D01*
X14545277Y-12956936D02*
X14535753Y-12966460D01*
X14535753Y-12966460D02*
X14516706Y-12975984D01*
X14516706Y-12975984D02*
X14488134Y-12975984D01*
X14669087Y-12975984D02*
X14650039Y-12966460D01*
X14650039Y-12966460D02*
X14640515Y-12947412D01*
X14640515Y-12947412D02*
X14640515Y-12775984D01*
X14821468Y-12966460D02*
X14802420Y-12975984D01*
X14802420Y-12975984D02*
X14764325Y-12975984D01*
X14764325Y-12975984D02*
X14745277Y-12966460D01*
X14745277Y-12966460D02*
X14735753Y-12947412D01*
X14735753Y-12947412D02*
X14735753Y-12871222D01*
X14735753Y-12871222D02*
X14745277Y-12852174D01*
X14745277Y-12852174D02*
X14764325Y-12842650D01*
X14764325Y-12842650D02*
X14802420Y-12842650D01*
X14802420Y-12842650D02*
X14821468Y-12852174D01*
X14821468Y-12852174D02*
X14830991Y-12871222D01*
X14830991Y-12871222D02*
X14830991Y-12890269D01*
X14830991Y-12890269D02*
X14735753Y-12909317D01*
X14907182Y-12966460D02*
X14926230Y-12975984D01*
X14926230Y-12975984D02*
X14964325Y-12975984D01*
X14964325Y-12975984D02*
X14983372Y-12966460D01*
X14983372Y-12966460D02*
X14992896Y-12947412D01*
X14992896Y-12947412D02*
X14992896Y-12937888D01*
X14992896Y-12937888D02*
X14983372Y-12918841D01*
X14983372Y-12918841D02*
X14964325Y-12909317D01*
X14964325Y-12909317D02*
X14935753Y-12909317D01*
X14935753Y-12909317D02*
X14916706Y-12899793D01*
X14916706Y-12899793D02*
X14907182Y-12880746D01*
X14907182Y-12880746D02*
X14907182Y-12871222D01*
X14907182Y-12871222D02*
X14916706Y-12852174D01*
X14916706Y-12852174D02*
X14935753Y-12842650D01*
X14935753Y-12842650D02*
X14964325Y-12842650D01*
X14964325Y-12842650D02*
X14983372Y-12852174D01*
X15059563Y-13052174D02*
X15069087Y-13042650D01*
X15069087Y-13042650D02*
X15088134Y-13014079D01*
X15088134Y-13014079D02*
X15097658Y-12995031D01*
X15097658Y-12995031D02*
X15107182Y-12966460D01*
X15107182Y-12966460D02*
X15116706Y-12918841D01*
X15116706Y-12918841D02*
X15116706Y-12880746D01*
X15116706Y-12880746D02*
X15107182Y-12833127D01*
X15107182Y-12833127D02*
X15097658Y-12804555D01*
X15097658Y-12804555D02*
X15088134Y-12785508D01*
X15088134Y-12785508D02*
X15069087Y-12756936D01*
X15069087Y-12756936D02*
X15059563Y-12747412D01*
D14*
X10114500Y-13063500D02*
X10284500Y-13233500D01*
X10284500Y-13063500D02*
X10114500Y-13233500D01*
X10199500Y-13063500D02*
X10199500Y-13233500D01*
X10114500Y-13148500D02*
X10284500Y-13148500D01*
D11*
X10650039Y-13239984D02*
X10535753Y-13239984D01*
X10592896Y-13239984D02*
X10592896Y-13039984D01*
X10592896Y-13039984D02*
X10573848Y-13068555D01*
X10573848Y-13068555D02*
X10554801Y-13087603D01*
X10554801Y-13087603D02*
X10535753Y-13097127D01*
X10735753Y-13220936D02*
X10745277Y-13230460D01*
X10745277Y-13230460D02*
X10735753Y-13239984D01*
X10735753Y-13239984D02*
X10726229Y-13230460D01*
X10726229Y-13230460D02*
X10735753Y-13220936D01*
X10735753Y-13220936D02*
X10735753Y-13239984D01*
X10811944Y-13039984D02*
X10945277Y-13039984D01*
X10945277Y-13039984D02*
X10859563Y-13239984D01*
X11059563Y-13039984D02*
X11078610Y-13039984D01*
X11078610Y-13039984D02*
X11097658Y-13049508D01*
X11097658Y-13049508D02*
X11107182Y-13059031D01*
X11107182Y-13059031D02*
X11116705Y-13078079D01*
X11116705Y-13078079D02*
X11126229Y-13116174D01*
X11126229Y-13116174D02*
X11126229Y-13163793D01*
X11126229Y-13163793D02*
X11116705Y-13201888D01*
X11116705Y-13201888D02*
X11107182Y-13220936D01*
X11107182Y-13220936D02*
X11097658Y-13230460D01*
X11097658Y-13230460D02*
X11078610Y-13239984D01*
X11078610Y-13239984D02*
X11059563Y-13239984D01*
X11059563Y-13239984D02*
X11040515Y-13230460D01*
X11040515Y-13230460D02*
X11030991Y-13220936D01*
X11030991Y-13220936D02*
X11021467Y-13201888D01*
X11021467Y-13201888D02*
X11011944Y-13163793D01*
X11011944Y-13163793D02*
X11011944Y-13116174D01*
X11011944Y-13116174D02*
X11021467Y-13078079D01*
X11021467Y-13078079D02*
X11030991Y-13059031D01*
X11030991Y-13059031D02*
X11040515Y-13049508D01*
X11040515Y-13049508D02*
X11059563Y-13039984D01*
X11250039Y-13039984D02*
X11269086Y-13039984D01*
X11269086Y-13039984D02*
X11288134Y-13049508D01*
X11288134Y-13049508D02*
X11297658Y-13059031D01*
X11297658Y-13059031D02*
X11307182Y-13078079D01*
X11307182Y-13078079D02*
X11316705Y-13116174D01*
X11316705Y-13116174D02*
X11316705Y-13163793D01*
X11316705Y-13163793D02*
X11307182Y-13201888D01*
X11307182Y-13201888D02*
X11297658Y-13220936D01*
X11297658Y-13220936D02*
X11288134Y-13230460D01*
X11288134Y-13230460D02*
X11269086Y-13239984D01*
X11269086Y-13239984D02*
X11250039Y-13239984D01*
X11250039Y-13239984D02*
X11230991Y-13230460D01*
X11230991Y-13230460D02*
X11221467Y-13220936D01*
X11221467Y-13220936D02*
X11211943Y-13201888D01*
X11211943Y-13201888D02*
X11202420Y-13163793D01*
X11202420Y-13163793D02*
X11202420Y-13116174D01*
X11202420Y-13116174D02*
X11211943Y-13078079D01*
X11211943Y-13078079D02*
X11221467Y-13059031D01*
X11221467Y-13059031D02*
X11230991Y-13049508D01*
X11230991Y-13049508D02*
X11250039Y-13039984D01*
X11402420Y-13239984D02*
X11402420Y-13106650D01*
X11402420Y-13125698D02*
X11411943Y-13116174D01*
X11411943Y-13116174D02*
X11430991Y-13106650D01*
X11430991Y-13106650D02*
X11459563Y-13106650D01*
X11459563Y-13106650D02*
X11478610Y-13116174D01*
X11478610Y-13116174D02*
X11488134Y-13135222D01*
X11488134Y-13135222D02*
X11488134Y-13239984D01*
X11488134Y-13135222D02*
X11497658Y-13116174D01*
X11497658Y-13116174D02*
X11516705Y-13106650D01*
X11516705Y-13106650D02*
X11545277Y-13106650D01*
X11545277Y-13106650D02*
X11564324Y-13116174D01*
X11564324Y-13116174D02*
X11573848Y-13135222D01*
X11573848Y-13135222D02*
X11573848Y-13239984D01*
X11669086Y-13239984D02*
X11669086Y-13106650D01*
X11669086Y-13125698D02*
X11678610Y-13116174D01*
X11678610Y-13116174D02*
X11697658Y-13106650D01*
X11697658Y-13106650D02*
X11726229Y-13106650D01*
X11726229Y-13106650D02*
X11745277Y-13116174D01*
X11745277Y-13116174D02*
X11754801Y-13135222D01*
X11754801Y-13135222D02*
X11754801Y-13239984D01*
X11754801Y-13135222D02*
X11764324Y-13116174D01*
X11764324Y-13116174D02*
X11783372Y-13106650D01*
X11783372Y-13106650D02*
X11811943Y-13106650D01*
X11811943Y-13106650D02*
X11830991Y-13116174D01*
X11830991Y-13116174D02*
X11840515Y-13135222D01*
X11840515Y-13135222D02*
X11840515Y-13239984D01*
X12230991Y-13030460D02*
X12059563Y-13287603D01*
X12488134Y-13039984D02*
X12507182Y-13039984D01*
X12507182Y-13039984D02*
X12526229Y-13049508D01*
X12526229Y-13049508D02*
X12535753Y-13059031D01*
X12535753Y-13059031D02*
X12545277Y-13078079D01*
X12545277Y-13078079D02*
X12554801Y-13116174D01*
X12554801Y-13116174D02*
X12554801Y-13163793D01*
X12554801Y-13163793D02*
X12545277Y-13201888D01*
X12545277Y-13201888D02*
X12535753Y-13220936D01*
X12535753Y-13220936D02*
X12526229Y-13230460D01*
X12526229Y-13230460D02*
X12507182Y-13239984D01*
X12507182Y-13239984D02*
X12488134Y-13239984D01*
X12488134Y-13239984D02*
X12469086Y-13230460D01*
X12469086Y-13230460D02*
X12459563Y-13220936D01*
X12459563Y-13220936D02*
X12450039Y-13201888D01*
X12450039Y-13201888D02*
X12440515Y-13163793D01*
X12440515Y-13163793D02*
X12440515Y-13116174D01*
X12440515Y-13116174D02*
X12450039Y-13078079D01*
X12450039Y-13078079D02*
X12459563Y-13059031D01*
X12459563Y-13059031D02*
X12469086Y-13049508D01*
X12469086Y-13049508D02*
X12488134Y-13039984D01*
X12640515Y-13220936D02*
X12650039Y-13230460D01*
X12650039Y-13230460D02*
X12640515Y-13239984D01*
X12640515Y-13239984D02*
X12630991Y-13230460D01*
X12630991Y-13230460D02*
X12640515Y-13220936D01*
X12640515Y-13220936D02*
X12640515Y-13239984D01*
X12773848Y-13039984D02*
X12792896Y-13039984D01*
X12792896Y-13039984D02*
X12811944Y-13049508D01*
X12811944Y-13049508D02*
X12821467Y-13059031D01*
X12821467Y-13059031D02*
X12830991Y-13078079D01*
X12830991Y-13078079D02*
X12840515Y-13116174D01*
X12840515Y-13116174D02*
X12840515Y-13163793D01*
X12840515Y-13163793D02*
X12830991Y-13201888D01*
X12830991Y-13201888D02*
X12821467Y-13220936D01*
X12821467Y-13220936D02*
X12811944Y-13230460D01*
X12811944Y-13230460D02*
X12792896Y-13239984D01*
X12792896Y-13239984D02*
X12773848Y-13239984D01*
X12773848Y-13239984D02*
X12754801Y-13230460D01*
X12754801Y-13230460D02*
X12745277Y-13220936D01*
X12745277Y-13220936D02*
X12735753Y-13201888D01*
X12735753Y-13201888D02*
X12726229Y-13163793D01*
X12726229Y-13163793D02*
X12726229Y-13116174D01*
X12726229Y-13116174D02*
X12735753Y-13078079D01*
X12735753Y-13078079D02*
X12745277Y-13059031D01*
X12745277Y-13059031D02*
X12754801Y-13049508D01*
X12754801Y-13049508D02*
X12773848Y-13039984D01*
X13011944Y-13039984D02*
X12973848Y-13039984D01*
X12973848Y-13039984D02*
X12954801Y-13049508D01*
X12954801Y-13049508D02*
X12945277Y-13059031D01*
X12945277Y-13059031D02*
X12926229Y-13087603D01*
X12926229Y-13087603D02*
X12916706Y-13125698D01*
X12916706Y-13125698D02*
X12916706Y-13201888D01*
X12916706Y-13201888D02*
X12926229Y-13220936D01*
X12926229Y-13220936D02*
X12935753Y-13230460D01*
X12935753Y-13230460D02*
X12954801Y-13239984D01*
X12954801Y-13239984D02*
X12992896Y-13239984D01*
X12992896Y-13239984D02*
X13011944Y-13230460D01*
X13011944Y-13230460D02*
X13021467Y-13220936D01*
X13021467Y-13220936D02*
X13030991Y-13201888D01*
X13030991Y-13201888D02*
X13030991Y-13154269D01*
X13030991Y-13154269D02*
X13021467Y-13135222D01*
X13021467Y-13135222D02*
X13011944Y-13125698D01*
X13011944Y-13125698D02*
X12992896Y-13116174D01*
X12992896Y-13116174D02*
X12954801Y-13116174D01*
X12954801Y-13116174D02*
X12935753Y-13125698D01*
X12935753Y-13125698D02*
X12926229Y-13135222D01*
X12926229Y-13135222D02*
X12916706Y-13154269D01*
X13202420Y-13039984D02*
X13164325Y-13039984D01*
X13164325Y-13039984D02*
X13145277Y-13049508D01*
X13145277Y-13049508D02*
X13135753Y-13059031D01*
X13135753Y-13059031D02*
X13116706Y-13087603D01*
X13116706Y-13087603D02*
X13107182Y-13125698D01*
X13107182Y-13125698D02*
X13107182Y-13201888D01*
X13107182Y-13201888D02*
X13116706Y-13220936D01*
X13116706Y-13220936D02*
X13126229Y-13230460D01*
X13126229Y-13230460D02*
X13145277Y-13239984D01*
X13145277Y-13239984D02*
X13183372Y-13239984D01*
X13183372Y-13239984D02*
X13202420Y-13230460D01*
X13202420Y-13230460D02*
X13211944Y-13220936D01*
X13211944Y-13220936D02*
X13221467Y-13201888D01*
X13221467Y-13201888D02*
X13221467Y-13154269D01*
X13221467Y-13154269D02*
X13211944Y-13135222D01*
X13211944Y-13135222D02*
X13202420Y-13125698D01*
X13202420Y-13125698D02*
X13183372Y-13116174D01*
X13183372Y-13116174D02*
X13145277Y-13116174D01*
X13145277Y-13116174D02*
X13126229Y-13125698D01*
X13126229Y-13125698D02*
X13116706Y-13135222D01*
X13116706Y-13135222D02*
X13107182Y-13154269D01*
X13316706Y-13239984D02*
X13354801Y-13239984D01*
X13354801Y-13239984D02*
X13373848Y-13230460D01*
X13373848Y-13230460D02*
X13383372Y-13220936D01*
X13383372Y-13220936D02*
X13402420Y-13192365D01*
X13402420Y-13192365D02*
X13411944Y-13154269D01*
X13411944Y-13154269D02*
X13411944Y-13078079D01*
X13411944Y-13078079D02*
X13402420Y-13059031D01*
X13402420Y-13059031D02*
X13392896Y-13049508D01*
X13392896Y-13049508D02*
X13373848Y-13039984D01*
X13373848Y-13039984D02*
X13335753Y-13039984D01*
X13335753Y-13039984D02*
X13316706Y-13049508D01*
X13316706Y-13049508D02*
X13307182Y-13059031D01*
X13307182Y-13059031D02*
X13297658Y-13078079D01*
X13297658Y-13078079D02*
X13297658Y-13125698D01*
X13297658Y-13125698D02*
X13307182Y-13144746D01*
X13307182Y-13144746D02*
X13316706Y-13154269D01*
X13316706Y-13154269D02*
X13335753Y-13163793D01*
X13335753Y-13163793D02*
X13373848Y-13163793D01*
X13373848Y-13163793D02*
X13392896Y-13154269D01*
X13392896Y-13154269D02*
X13402420Y-13144746D01*
X13402420Y-13144746D02*
X13411944Y-13125698D01*
X13488134Y-13039984D02*
X13488134Y-13078079D01*
X13564325Y-13039984D02*
X13564325Y-13078079D01*
X13859563Y-13316174D02*
X13850039Y-13306650D01*
X13850039Y-13306650D02*
X13830991Y-13278079D01*
X13830991Y-13278079D02*
X13821468Y-13259031D01*
X13821468Y-13259031D02*
X13811944Y-13230460D01*
X13811944Y-13230460D02*
X13802420Y-13182841D01*
X13802420Y-13182841D02*
X13802420Y-13144746D01*
X13802420Y-13144746D02*
X13811944Y-13097127D01*
X13811944Y-13097127D02*
X13821468Y-13068555D01*
X13821468Y-13068555D02*
X13830991Y-13049508D01*
X13830991Y-13049508D02*
X13850039Y-13020936D01*
X13850039Y-13020936D02*
X13859563Y-13011412D01*
X13964325Y-13125698D02*
X13945277Y-13116174D01*
X13945277Y-13116174D02*
X13935753Y-13106650D01*
X13935753Y-13106650D02*
X13926229Y-13087603D01*
X13926229Y-13087603D02*
X13926229Y-13078079D01*
X13926229Y-13078079D02*
X13935753Y-13059031D01*
X13935753Y-13059031D02*
X13945277Y-13049508D01*
X13945277Y-13049508D02*
X13964325Y-13039984D01*
X13964325Y-13039984D02*
X14002420Y-13039984D01*
X14002420Y-13039984D02*
X14021468Y-13049508D01*
X14021468Y-13049508D02*
X14030991Y-13059031D01*
X14030991Y-13059031D02*
X14040515Y-13078079D01*
X14040515Y-13078079D02*
X14040515Y-13087603D01*
X14040515Y-13087603D02*
X14030991Y-13106650D01*
X14030991Y-13106650D02*
X14021468Y-13116174D01*
X14021468Y-13116174D02*
X14002420Y-13125698D01*
X14002420Y-13125698D02*
X13964325Y-13125698D01*
X13964325Y-13125698D02*
X13945277Y-13135222D01*
X13945277Y-13135222D02*
X13935753Y-13144746D01*
X13935753Y-13144746D02*
X13926229Y-13163793D01*
X13926229Y-13163793D02*
X13926229Y-13201888D01*
X13926229Y-13201888D02*
X13935753Y-13220936D01*
X13935753Y-13220936D02*
X13945277Y-13230460D01*
X13945277Y-13230460D02*
X13964325Y-13239984D01*
X13964325Y-13239984D02*
X14002420Y-13239984D01*
X14002420Y-13239984D02*
X14021468Y-13230460D01*
X14021468Y-13230460D02*
X14030991Y-13220936D01*
X14030991Y-13220936D02*
X14040515Y-13201888D01*
X14040515Y-13201888D02*
X14040515Y-13163793D01*
X14040515Y-13163793D02*
X14030991Y-13144746D01*
X14030991Y-13144746D02*
X14021468Y-13135222D01*
X14021468Y-13135222D02*
X14002420Y-13125698D01*
X14278610Y-13239984D02*
X14278610Y-13039984D01*
X14364325Y-13239984D02*
X14364325Y-13135222D01*
X14364325Y-13135222D02*
X14354801Y-13116174D01*
X14354801Y-13116174D02*
X14335753Y-13106650D01*
X14335753Y-13106650D02*
X14307182Y-13106650D01*
X14307182Y-13106650D02*
X14288134Y-13116174D01*
X14288134Y-13116174D02*
X14278610Y-13125698D01*
X14488134Y-13239984D02*
X14469087Y-13230460D01*
X14469087Y-13230460D02*
X14459563Y-13220936D01*
X14459563Y-13220936D02*
X14450039Y-13201888D01*
X14450039Y-13201888D02*
X14450039Y-13144746D01*
X14450039Y-13144746D02*
X14459563Y-13125698D01*
X14459563Y-13125698D02*
X14469087Y-13116174D01*
X14469087Y-13116174D02*
X14488134Y-13106650D01*
X14488134Y-13106650D02*
X14516706Y-13106650D01*
X14516706Y-13106650D02*
X14535753Y-13116174D01*
X14535753Y-13116174D02*
X14545277Y-13125698D01*
X14545277Y-13125698D02*
X14554801Y-13144746D01*
X14554801Y-13144746D02*
X14554801Y-13201888D01*
X14554801Y-13201888D02*
X14545277Y-13220936D01*
X14545277Y-13220936D02*
X14535753Y-13230460D01*
X14535753Y-13230460D02*
X14516706Y-13239984D01*
X14516706Y-13239984D02*
X14488134Y-13239984D01*
X14669087Y-13239984D02*
X14650039Y-13230460D01*
X14650039Y-13230460D02*
X14640515Y-13211412D01*
X14640515Y-13211412D02*
X14640515Y-13039984D01*
X14821468Y-13230460D02*
X14802420Y-13239984D01*
X14802420Y-13239984D02*
X14764325Y-13239984D01*
X14764325Y-13239984D02*
X14745277Y-13230460D01*
X14745277Y-13230460D02*
X14735753Y-13211412D01*
X14735753Y-13211412D02*
X14735753Y-13135222D01*
X14735753Y-13135222D02*
X14745277Y-13116174D01*
X14745277Y-13116174D02*
X14764325Y-13106650D01*
X14764325Y-13106650D02*
X14802420Y-13106650D01*
X14802420Y-13106650D02*
X14821468Y-13116174D01*
X14821468Y-13116174D02*
X14830991Y-13135222D01*
X14830991Y-13135222D02*
X14830991Y-13154269D01*
X14830991Y-13154269D02*
X14735753Y-13173317D01*
X14907182Y-13230460D02*
X14926230Y-13239984D01*
X14926230Y-13239984D02*
X14964325Y-13239984D01*
X14964325Y-13239984D02*
X14983372Y-13230460D01*
X14983372Y-13230460D02*
X14992896Y-13211412D01*
X14992896Y-13211412D02*
X14992896Y-13201888D01*
X14992896Y-13201888D02*
X14983372Y-13182841D01*
X14983372Y-13182841D02*
X14964325Y-13173317D01*
X14964325Y-13173317D02*
X14935753Y-13173317D01*
X14935753Y-13173317D02*
X14916706Y-13163793D01*
X14916706Y-13163793D02*
X14907182Y-13144746D01*
X14907182Y-13144746D02*
X14907182Y-13135222D01*
X14907182Y-13135222D02*
X14916706Y-13116174D01*
X14916706Y-13116174D02*
X14935753Y-13106650D01*
X14935753Y-13106650D02*
X14964325Y-13106650D01*
X14964325Y-13106650D02*
X14983372Y-13116174D01*
X15059563Y-13316174D02*
X15069087Y-13306650D01*
X15069087Y-13306650D02*
X15088134Y-13278079D01*
X15088134Y-13278079D02*
X15097658Y-13259031D01*
X15097658Y-13259031D02*
X15107182Y-13230460D01*
X15107182Y-13230460D02*
X15116706Y-13182841D01*
X15116706Y-13182841D02*
X15116706Y-13144746D01*
X15116706Y-13144746D02*
X15107182Y-13097127D01*
X15107182Y-13097127D02*
X15097658Y-13068555D01*
X15097658Y-13068555D02*
X15088134Y-13049508D01*
X15088134Y-13049508D02*
X15069087Y-13020936D01*
X15069087Y-13020936D02*
X15059563Y-13011412D01*
X10084500Y-13338500D02*
X10284500Y-13538500D01*
X10284500Y-13338500D02*
X10084500Y-13538500D01*
X10255211Y-13509211D02*
X10255211Y-13367789D01*
X10113789Y-13367789D01*
X10113789Y-13509211D01*
X10255211Y-13509211D01*
X10535753Y-13349031D02*
X10545277Y-13339508D01*
X10545277Y-13339508D02*
X10564324Y-13329984D01*
X10564324Y-13329984D02*
X10611944Y-13329984D01*
X10611944Y-13329984D02*
X10630991Y-13339508D01*
X10630991Y-13339508D02*
X10640515Y-13349031D01*
X10640515Y-13349031D02*
X10650039Y-13368079D01*
X10650039Y-13368079D02*
X10650039Y-13387127D01*
X10650039Y-13387127D02*
X10640515Y-13415698D01*
X10640515Y-13415698D02*
X10526229Y-13529984D01*
X10526229Y-13529984D02*
X10650039Y-13529984D01*
X10735753Y-13510936D02*
X10745277Y-13520460D01*
X10745277Y-13520460D02*
X10735753Y-13529984D01*
X10735753Y-13529984D02*
X10726229Y-13520460D01*
X10726229Y-13520460D02*
X10735753Y-13510936D01*
X10735753Y-13510936D02*
X10735753Y-13529984D01*
X10821467Y-13349031D02*
X10830991Y-13339508D01*
X10830991Y-13339508D02*
X10850039Y-13329984D01*
X10850039Y-13329984D02*
X10897658Y-13329984D01*
X10897658Y-13329984D02*
X10916705Y-13339508D01*
X10916705Y-13339508D02*
X10926229Y-13349031D01*
X10926229Y-13349031D02*
X10935753Y-13368079D01*
X10935753Y-13368079D02*
X10935753Y-13387127D01*
X10935753Y-13387127D02*
X10926229Y-13415698D01*
X10926229Y-13415698D02*
X10811944Y-13529984D01*
X10811944Y-13529984D02*
X10935753Y-13529984D01*
X11059563Y-13329984D02*
X11078610Y-13329984D01*
X11078610Y-13329984D02*
X11097658Y-13339508D01*
X11097658Y-13339508D02*
X11107182Y-13349031D01*
X11107182Y-13349031D02*
X11116705Y-13368079D01*
X11116705Y-13368079D02*
X11126229Y-13406174D01*
X11126229Y-13406174D02*
X11126229Y-13453793D01*
X11126229Y-13453793D02*
X11116705Y-13491888D01*
X11116705Y-13491888D02*
X11107182Y-13510936D01*
X11107182Y-13510936D02*
X11097658Y-13520460D01*
X11097658Y-13520460D02*
X11078610Y-13529984D01*
X11078610Y-13529984D02*
X11059563Y-13529984D01*
X11059563Y-13529984D02*
X11040515Y-13520460D01*
X11040515Y-13520460D02*
X11030991Y-13510936D01*
X11030991Y-13510936D02*
X11021467Y-13491888D01*
X11021467Y-13491888D02*
X11011944Y-13453793D01*
X11011944Y-13453793D02*
X11011944Y-13406174D01*
X11011944Y-13406174D02*
X11021467Y-13368079D01*
X11021467Y-13368079D02*
X11030991Y-13349031D01*
X11030991Y-13349031D02*
X11040515Y-13339508D01*
X11040515Y-13339508D02*
X11059563Y-13329984D01*
X11250039Y-13329984D02*
X11269086Y-13329984D01*
X11269086Y-13329984D02*
X11288134Y-13339508D01*
X11288134Y-13339508D02*
X11297658Y-13349031D01*
X11297658Y-13349031D02*
X11307182Y-13368079D01*
X11307182Y-13368079D02*
X11316705Y-13406174D01*
X11316705Y-13406174D02*
X11316705Y-13453793D01*
X11316705Y-13453793D02*
X11307182Y-13491888D01*
X11307182Y-13491888D02*
X11297658Y-13510936D01*
X11297658Y-13510936D02*
X11288134Y-13520460D01*
X11288134Y-13520460D02*
X11269086Y-13529984D01*
X11269086Y-13529984D02*
X11250039Y-13529984D01*
X11250039Y-13529984D02*
X11230991Y-13520460D01*
X11230991Y-13520460D02*
X11221467Y-13510936D01*
X11221467Y-13510936D02*
X11211943Y-13491888D01*
X11211943Y-13491888D02*
X11202420Y-13453793D01*
X11202420Y-13453793D02*
X11202420Y-13406174D01*
X11202420Y-13406174D02*
X11211943Y-13368079D01*
X11211943Y-13368079D02*
X11221467Y-13349031D01*
X11221467Y-13349031D02*
X11230991Y-13339508D01*
X11230991Y-13339508D02*
X11250039Y-13329984D01*
X11402420Y-13529984D02*
X11402420Y-13396650D01*
X11402420Y-13415698D02*
X11411943Y-13406174D01*
X11411943Y-13406174D02*
X11430991Y-13396650D01*
X11430991Y-13396650D02*
X11459563Y-13396650D01*
X11459563Y-13396650D02*
X11478610Y-13406174D01*
X11478610Y-13406174D02*
X11488134Y-13425222D01*
X11488134Y-13425222D02*
X11488134Y-13529984D01*
X11488134Y-13425222D02*
X11497658Y-13406174D01*
X11497658Y-13406174D02*
X11516705Y-13396650D01*
X11516705Y-13396650D02*
X11545277Y-13396650D01*
X11545277Y-13396650D02*
X11564324Y-13406174D01*
X11564324Y-13406174D02*
X11573848Y-13425222D01*
X11573848Y-13425222D02*
X11573848Y-13529984D01*
X11669086Y-13529984D02*
X11669086Y-13396650D01*
X11669086Y-13415698D02*
X11678610Y-13406174D01*
X11678610Y-13406174D02*
X11697658Y-13396650D01*
X11697658Y-13396650D02*
X11726229Y-13396650D01*
X11726229Y-13396650D02*
X11745277Y-13406174D01*
X11745277Y-13406174D02*
X11754801Y-13425222D01*
X11754801Y-13425222D02*
X11754801Y-13529984D01*
X11754801Y-13425222D02*
X11764324Y-13406174D01*
X11764324Y-13406174D02*
X11783372Y-13396650D01*
X11783372Y-13396650D02*
X11811943Y-13396650D01*
X11811943Y-13396650D02*
X11830991Y-13406174D01*
X11830991Y-13406174D02*
X11840515Y-13425222D01*
X11840515Y-13425222D02*
X11840515Y-13529984D01*
X12230991Y-13320460D02*
X12059563Y-13577603D01*
X12488134Y-13329984D02*
X12507182Y-13329984D01*
X12507182Y-13329984D02*
X12526229Y-13339508D01*
X12526229Y-13339508D02*
X12535753Y-13349031D01*
X12535753Y-13349031D02*
X12545277Y-13368079D01*
X12545277Y-13368079D02*
X12554801Y-13406174D01*
X12554801Y-13406174D02*
X12554801Y-13453793D01*
X12554801Y-13453793D02*
X12545277Y-13491888D01*
X12545277Y-13491888D02*
X12535753Y-13510936D01*
X12535753Y-13510936D02*
X12526229Y-13520460D01*
X12526229Y-13520460D02*
X12507182Y-13529984D01*
X12507182Y-13529984D02*
X12488134Y-13529984D01*
X12488134Y-13529984D02*
X12469086Y-13520460D01*
X12469086Y-13520460D02*
X12459563Y-13510936D01*
X12459563Y-13510936D02*
X12450039Y-13491888D01*
X12450039Y-13491888D02*
X12440515Y-13453793D01*
X12440515Y-13453793D02*
X12440515Y-13406174D01*
X12440515Y-13406174D02*
X12450039Y-13368079D01*
X12450039Y-13368079D02*
X12459563Y-13349031D01*
X12459563Y-13349031D02*
X12469086Y-13339508D01*
X12469086Y-13339508D02*
X12488134Y-13329984D01*
X12640515Y-13510936D02*
X12650039Y-13520460D01*
X12650039Y-13520460D02*
X12640515Y-13529984D01*
X12640515Y-13529984D02*
X12630991Y-13520460D01*
X12630991Y-13520460D02*
X12640515Y-13510936D01*
X12640515Y-13510936D02*
X12640515Y-13529984D01*
X12773848Y-13329984D02*
X12792896Y-13329984D01*
X12792896Y-13329984D02*
X12811944Y-13339508D01*
X12811944Y-13339508D02*
X12821467Y-13349031D01*
X12821467Y-13349031D02*
X12830991Y-13368079D01*
X12830991Y-13368079D02*
X12840515Y-13406174D01*
X12840515Y-13406174D02*
X12840515Y-13453793D01*
X12840515Y-13453793D02*
X12830991Y-13491888D01*
X12830991Y-13491888D02*
X12821467Y-13510936D01*
X12821467Y-13510936D02*
X12811944Y-13520460D01*
X12811944Y-13520460D02*
X12792896Y-13529984D01*
X12792896Y-13529984D02*
X12773848Y-13529984D01*
X12773848Y-13529984D02*
X12754801Y-13520460D01*
X12754801Y-13520460D02*
X12745277Y-13510936D01*
X12745277Y-13510936D02*
X12735753Y-13491888D01*
X12735753Y-13491888D02*
X12726229Y-13453793D01*
X12726229Y-13453793D02*
X12726229Y-13406174D01*
X12726229Y-13406174D02*
X12735753Y-13368079D01*
X12735753Y-13368079D02*
X12745277Y-13349031D01*
X12745277Y-13349031D02*
X12754801Y-13339508D01*
X12754801Y-13339508D02*
X12773848Y-13329984D01*
X12954801Y-13415698D02*
X12935753Y-13406174D01*
X12935753Y-13406174D02*
X12926229Y-13396650D01*
X12926229Y-13396650D02*
X12916706Y-13377603D01*
X12916706Y-13377603D02*
X12916706Y-13368079D01*
X12916706Y-13368079D02*
X12926229Y-13349031D01*
X12926229Y-13349031D02*
X12935753Y-13339508D01*
X12935753Y-13339508D02*
X12954801Y-13329984D01*
X12954801Y-13329984D02*
X12992896Y-13329984D01*
X12992896Y-13329984D02*
X13011944Y-13339508D01*
X13011944Y-13339508D02*
X13021467Y-13349031D01*
X13021467Y-13349031D02*
X13030991Y-13368079D01*
X13030991Y-13368079D02*
X13030991Y-13377603D01*
X13030991Y-13377603D02*
X13021467Y-13396650D01*
X13021467Y-13396650D02*
X13011944Y-13406174D01*
X13011944Y-13406174D02*
X12992896Y-13415698D01*
X12992896Y-13415698D02*
X12954801Y-13415698D01*
X12954801Y-13415698D02*
X12935753Y-13425222D01*
X12935753Y-13425222D02*
X12926229Y-13434746D01*
X12926229Y-13434746D02*
X12916706Y-13453793D01*
X12916706Y-13453793D02*
X12916706Y-13491888D01*
X12916706Y-13491888D02*
X12926229Y-13510936D01*
X12926229Y-13510936D02*
X12935753Y-13520460D01*
X12935753Y-13520460D02*
X12954801Y-13529984D01*
X12954801Y-13529984D02*
X12992896Y-13529984D01*
X12992896Y-13529984D02*
X13011944Y-13520460D01*
X13011944Y-13520460D02*
X13021467Y-13510936D01*
X13021467Y-13510936D02*
X13030991Y-13491888D01*
X13030991Y-13491888D02*
X13030991Y-13453793D01*
X13030991Y-13453793D02*
X13021467Y-13434746D01*
X13021467Y-13434746D02*
X13011944Y-13425222D01*
X13011944Y-13425222D02*
X12992896Y-13415698D01*
X13202420Y-13329984D02*
X13164325Y-13329984D01*
X13164325Y-13329984D02*
X13145277Y-13339508D01*
X13145277Y-13339508D02*
X13135753Y-13349031D01*
X13135753Y-13349031D02*
X13116706Y-13377603D01*
X13116706Y-13377603D02*
X13107182Y-13415698D01*
X13107182Y-13415698D02*
X13107182Y-13491888D01*
X13107182Y-13491888D02*
X13116706Y-13510936D01*
X13116706Y-13510936D02*
X13126229Y-13520460D01*
X13126229Y-13520460D02*
X13145277Y-13529984D01*
X13145277Y-13529984D02*
X13183372Y-13529984D01*
X13183372Y-13529984D02*
X13202420Y-13520460D01*
X13202420Y-13520460D02*
X13211944Y-13510936D01*
X13211944Y-13510936D02*
X13221467Y-13491888D01*
X13221467Y-13491888D02*
X13221467Y-13444269D01*
X13221467Y-13444269D02*
X13211944Y-13425222D01*
X13211944Y-13425222D02*
X13202420Y-13415698D01*
X13202420Y-13415698D02*
X13183372Y-13406174D01*
X13183372Y-13406174D02*
X13145277Y-13406174D01*
X13145277Y-13406174D02*
X13126229Y-13415698D01*
X13126229Y-13415698D02*
X13116706Y-13425222D01*
X13116706Y-13425222D02*
X13107182Y-13444269D01*
X13392896Y-13329984D02*
X13354801Y-13329984D01*
X13354801Y-13329984D02*
X13335753Y-13339508D01*
X13335753Y-13339508D02*
X13326229Y-13349031D01*
X13326229Y-13349031D02*
X13307182Y-13377603D01*
X13307182Y-13377603D02*
X13297658Y-13415698D01*
X13297658Y-13415698D02*
X13297658Y-13491888D01*
X13297658Y-13491888D02*
X13307182Y-13510936D01*
X13307182Y-13510936D02*
X13316706Y-13520460D01*
X13316706Y-13520460D02*
X13335753Y-13529984D01*
X13335753Y-13529984D02*
X13373848Y-13529984D01*
X13373848Y-13529984D02*
X13392896Y-13520460D01*
X13392896Y-13520460D02*
X13402420Y-13510936D01*
X13402420Y-13510936D02*
X13411944Y-13491888D01*
X13411944Y-13491888D02*
X13411944Y-13444269D01*
X13411944Y-13444269D02*
X13402420Y-13425222D01*
X13402420Y-13425222D02*
X13392896Y-13415698D01*
X13392896Y-13415698D02*
X13373848Y-13406174D01*
X13373848Y-13406174D02*
X13335753Y-13406174D01*
X13335753Y-13406174D02*
X13316706Y-13415698D01*
X13316706Y-13415698D02*
X13307182Y-13425222D01*
X13307182Y-13425222D02*
X13297658Y-13444269D01*
X13488134Y-13329984D02*
X13488134Y-13368079D01*
X13564325Y-13329984D02*
X13564325Y-13368079D01*
X13859563Y-13606174D02*
X13850039Y-13596650D01*
X13850039Y-13596650D02*
X13830991Y-13568079D01*
X13830991Y-13568079D02*
X13821468Y-13549031D01*
X13821468Y-13549031D02*
X13811944Y-13520460D01*
X13811944Y-13520460D02*
X13802420Y-13472841D01*
X13802420Y-13472841D02*
X13802420Y-13434746D01*
X13802420Y-13434746D02*
X13811944Y-13387127D01*
X13811944Y-13387127D02*
X13821468Y-13358555D01*
X13821468Y-13358555D02*
X13830991Y-13339508D01*
X13830991Y-13339508D02*
X13850039Y-13310936D01*
X13850039Y-13310936D02*
X13859563Y-13301412D01*
X13926229Y-13349031D02*
X13935753Y-13339508D01*
X13935753Y-13339508D02*
X13954801Y-13329984D01*
X13954801Y-13329984D02*
X14002420Y-13329984D01*
X14002420Y-13329984D02*
X14021468Y-13339508D01*
X14021468Y-13339508D02*
X14030991Y-13349031D01*
X14030991Y-13349031D02*
X14040515Y-13368079D01*
X14040515Y-13368079D02*
X14040515Y-13387127D01*
X14040515Y-13387127D02*
X14030991Y-13415698D01*
X14030991Y-13415698D02*
X13916706Y-13529984D01*
X13916706Y-13529984D02*
X14040515Y-13529984D01*
X14278610Y-13529984D02*
X14278610Y-13329984D01*
X14364325Y-13529984D02*
X14364325Y-13425222D01*
X14364325Y-13425222D02*
X14354801Y-13406174D01*
X14354801Y-13406174D02*
X14335753Y-13396650D01*
X14335753Y-13396650D02*
X14307182Y-13396650D01*
X14307182Y-13396650D02*
X14288134Y-13406174D01*
X14288134Y-13406174D02*
X14278610Y-13415698D01*
X14488134Y-13529984D02*
X14469087Y-13520460D01*
X14469087Y-13520460D02*
X14459563Y-13510936D01*
X14459563Y-13510936D02*
X14450039Y-13491888D01*
X14450039Y-13491888D02*
X14450039Y-13434746D01*
X14450039Y-13434746D02*
X14459563Y-13415698D01*
X14459563Y-13415698D02*
X14469087Y-13406174D01*
X14469087Y-13406174D02*
X14488134Y-13396650D01*
X14488134Y-13396650D02*
X14516706Y-13396650D01*
X14516706Y-13396650D02*
X14535753Y-13406174D01*
X14535753Y-13406174D02*
X14545277Y-13415698D01*
X14545277Y-13415698D02*
X14554801Y-13434746D01*
X14554801Y-13434746D02*
X14554801Y-13491888D01*
X14554801Y-13491888D02*
X14545277Y-13510936D01*
X14545277Y-13510936D02*
X14535753Y-13520460D01*
X14535753Y-13520460D02*
X14516706Y-13529984D01*
X14516706Y-13529984D02*
X14488134Y-13529984D01*
X14669087Y-13529984D02*
X14650039Y-13520460D01*
X14650039Y-13520460D02*
X14640515Y-13501412D01*
X14640515Y-13501412D02*
X14640515Y-13329984D01*
X14821468Y-13520460D02*
X14802420Y-13529984D01*
X14802420Y-13529984D02*
X14764325Y-13529984D01*
X14764325Y-13529984D02*
X14745277Y-13520460D01*
X14745277Y-13520460D02*
X14735753Y-13501412D01*
X14735753Y-13501412D02*
X14735753Y-13425222D01*
X14735753Y-13425222D02*
X14745277Y-13406174D01*
X14745277Y-13406174D02*
X14764325Y-13396650D01*
X14764325Y-13396650D02*
X14802420Y-13396650D01*
X14802420Y-13396650D02*
X14821468Y-13406174D01*
X14821468Y-13406174D02*
X14830991Y-13425222D01*
X14830991Y-13425222D02*
X14830991Y-13444269D01*
X14830991Y-13444269D02*
X14735753Y-13463317D01*
X14907182Y-13520460D02*
X14926230Y-13529984D01*
X14926230Y-13529984D02*
X14964325Y-13529984D01*
X14964325Y-13529984D02*
X14983372Y-13520460D01*
X14983372Y-13520460D02*
X14992896Y-13501412D01*
X14992896Y-13501412D02*
X14992896Y-13491888D01*
X14992896Y-13491888D02*
X14983372Y-13472841D01*
X14983372Y-13472841D02*
X14964325Y-13463317D01*
X14964325Y-13463317D02*
X14935753Y-13463317D01*
X14935753Y-13463317D02*
X14916706Y-13453793D01*
X14916706Y-13453793D02*
X14907182Y-13434746D01*
X14907182Y-13434746D02*
X14907182Y-13425222D01*
X14907182Y-13425222D02*
X14916706Y-13406174D01*
X14916706Y-13406174D02*
X14935753Y-13396650D01*
X14935753Y-13396650D02*
X14964325Y-13396650D01*
X14964325Y-13396650D02*
X14983372Y-13406174D01*
X15059563Y-13606174D02*
X15069087Y-13596650D01*
X15069087Y-13596650D02*
X15088134Y-13568079D01*
X15088134Y-13568079D02*
X15097658Y-13549031D01*
X15097658Y-13549031D02*
X15107182Y-13520460D01*
X15107182Y-13520460D02*
X15116706Y-13472841D01*
X15116706Y-13472841D02*
X15116706Y-13434746D01*
X15116706Y-13434746D02*
X15107182Y-13387127D01*
X15107182Y-13387127D02*
X15097658Y-13358555D01*
X15097658Y-13358555D02*
X15088134Y-13339508D01*
X15088134Y-13339508D02*
X15069087Y-13310936D01*
X15069087Y-13310936D02*
X15059563Y-13301412D01*
M02*
