%TF.GenerationSoftware,KiCad,Pcbnew,8.0.4*%
%TF.CreationDate,2025-05-02T23:51:08+05:30*%
%TF.ProjectId,Si4735Board,53693437-3335-4426-9f61-72642e6b6963,rev?*%
%TF.SameCoordinates,Original*%
%TF.FileFunction,Soldermask,Top*%
%TF.FilePolarity,Negative*%
%FSLAX46Y46*%
G04 Gerber Fmt 4.6, Leading zero omitted, Abs format (unit mm)*
G04 Created by KiCad (PCBNEW 8.0.4) date 2025-05-02 23:51:08*
%MOMM*%
%LPD*%
G01*
G04 APERTURE LIST*
G04 Aperture macros list*
%AMRoundRect*
0 Rectangle with rounded corners*
0 $1 Rounding radius*
0 $2 $3 $4 $5 $6 $7 $8 $9 X,Y pos of 4 corners*
0 Add a 4 corners polygon primitive as box body*
4,1,4,$2,$3,$4,$5,$6,$7,$8,$9,$2,$3,0*
0 Add four circle primitives for the rounded corners*
1,1,$1+$1,$2,$3*
1,1,$1+$1,$4,$5*
1,1,$1+$1,$6,$7*
1,1,$1+$1,$8,$9*
0 Add four rect primitives between the rounded corners*
20,1,$1+$1,$2,$3,$4,$5,0*
20,1,$1+$1,$4,$5,$6,$7,0*
20,1,$1+$1,$6,$7,$8,$9,0*
20,1,$1+$1,$8,$9,$2,$3,0*%
G04 Aperture macros list end*
%ADD10RoundRect,0.250000X0.337500X0.475000X-0.337500X0.475000X-0.337500X-0.475000X0.337500X-0.475000X0*%
%ADD11C,1.600000*%
%ADD12O,1.600000X1.600000*%
%ADD13C,1.000000*%
%ADD14RoundRect,0.250000X-0.475000X0.337500X-0.475000X-0.337500X0.475000X-0.337500X0.475000X0.337500X0*%
%ADD15RoundRect,0.250000X-0.337500X-0.475000X0.337500X-0.475000X0.337500X0.475000X-0.337500X0.475000X0*%
%ADD16RoundRect,0.250000X0.475000X-0.337500X0.475000X0.337500X-0.475000X0.337500X-0.475000X-0.337500X0*%
%ADD17R,1.700000X1.700000*%
%ADD18O,1.700000X1.700000*%
%ADD19R,1.350000X1.350000*%
%ADD20O,1.350000X1.350000*%
%ADD21R,0.850800X1.761200*%
%ADD22R,3.150799X1.761200*%
%ADD23RoundRect,0.250000X0.450000X-0.350000X0.450000X0.350000X-0.450000X0.350000X-0.450000X-0.350000X0*%
%ADD24C,2.240000*%
%ADD25C,2.740000*%
%ADD26RoundRect,0.250000X-0.450000X0.350000X-0.450000X-0.350000X0.450000X-0.350000X0.450000X0.350000X0*%
%ADD27RoundRect,0.250000X-0.350000X-0.450000X0.350000X-0.450000X0.350000X0.450000X-0.350000X0.450000X0*%
%ADD28RoundRect,0.250000X1.500000X0.550000X-1.500000X0.550000X-1.500000X-0.550000X1.500000X-0.550000X0*%
%ADD29C,2.600000*%
%ADD30C,3.800000*%
%ADD31RoundRect,0.250000X-0.550000X1.500000X-0.550000X-1.500000X0.550000X-1.500000X0.550000X1.500000X0*%
%ADD32R,1.500000X1.500000*%
%ADD33O,1.500000X1.500000*%
G04 APERTURE END LIST*
D10*
%TO.C,C7*%
X135970700Y-99806500D03*
X133895700Y-99806500D03*
%TD*%
D11*
%TO.C,L2*%
X125990700Y-94696500D03*
D12*
X125990700Y-104856500D03*
%TD*%
D13*
%TO.C,Y1*%
X141110700Y-103356500D03*
X141110700Y-105256500D03*
%TD*%
D14*
%TO.C,C9*%
X129450700Y-89276500D03*
X129450700Y-91351500D03*
%TD*%
D10*
%TO.C,C1*%
X130560700Y-99856500D03*
X128485700Y-99856500D03*
%TD*%
D14*
%TO.C,C6*%
X133870700Y-83279000D03*
X133870700Y-85354000D03*
%TD*%
D15*
%TO.C,C11*%
X142475700Y-99806500D03*
X144550700Y-99806500D03*
%TD*%
D10*
%TO.C,C3*%
X150265700Y-99956500D03*
X148190700Y-99956500D03*
%TD*%
D16*
%TO.C,C10*%
X146120700Y-105021500D03*
X146120700Y-102946500D03*
%TD*%
D17*
%TO.C,J3*%
X143546300Y-80086500D03*
D18*
X146086300Y-80086500D03*
X148626300Y-80086500D03*
X151166300Y-80086500D03*
X153706300Y-80086500D03*
X156246300Y-80086500D03*
X158786300Y-80086500D03*
%TD*%
D19*
%TO.C,J7*%
X133550700Y-94496500D03*
D20*
X133550700Y-92496500D03*
X133550700Y-90496500D03*
%TD*%
D21*
%TO.C,U1*%
X148100700Y-96111500D03*
X150400700Y-96111500D03*
X152700700Y-96111500D03*
D22*
X150400700Y-90061500D03*
%TD*%
D23*
%TO.C,R4*%
X125130700Y-85366500D03*
X125130700Y-83366500D03*
%TD*%
D11*
%TO.C,L1*%
X115570000Y-104140000D03*
D12*
X115570000Y-93980000D03*
%TD*%
D23*
%TO.C,R1*%
X150300700Y-85056500D03*
X150300700Y-83056500D03*
%TD*%
D10*
%TO.C,C8*%
X125018200Y-91376500D03*
X122943200Y-91376500D03*
%TD*%
D24*
%TO.C,J1*%
X108400700Y-82636500D03*
D25*
X105860700Y-80096500D03*
X105860700Y-85176500D03*
X110940700Y-80096500D03*
X110940700Y-85176500D03*
%TD*%
D26*
%TO.C,R7*%
X130200700Y-83276500D03*
X130200700Y-85276500D03*
%TD*%
D24*
%TO.C,J5*%
X108430700Y-104016500D03*
D25*
X110970700Y-106556500D03*
X110970700Y-101476500D03*
X105890700Y-106556500D03*
X105890700Y-101476500D03*
%TD*%
D14*
%TO.C,C5*%
X137480700Y-83386500D03*
X137480700Y-85461500D03*
%TD*%
D23*
%TO.C,R3*%
X127590700Y-85346500D03*
X127590700Y-83346500D03*
%TD*%
D27*
%TO.C,R5*%
X138210700Y-99766500D03*
X140210700Y-99766500D03*
%TD*%
D28*
%TO.C,C4*%
X120900700Y-86916500D03*
X115300700Y-86916500D03*
%TD*%
D19*
%TO.C,J6*%
X110430700Y-91396500D03*
D20*
X110430700Y-93396500D03*
X110430700Y-95396500D03*
%TD*%
D29*
%TO.C,1*%
X162560000Y-105410000D03*
D30*
X162560000Y-105410000D03*
%TD*%
D31*
%TO.C,C2*%
X155850700Y-98786500D03*
X155850700Y-104386500D03*
%TD*%
D17*
%TO.C,J4*%
X122154100Y-80086500D03*
D18*
X124694100Y-80086500D03*
X127234100Y-80086500D03*
X129774100Y-80086500D03*
X132314100Y-80086500D03*
X134854100Y-80086500D03*
X137394100Y-80086500D03*
%TD*%
D11*
%TO.C,L3*%
X120190700Y-104756500D03*
D12*
X120190700Y-94596500D03*
%TD*%
D17*
%TO.C,J2*%
X160400700Y-86086500D03*
D18*
X160400700Y-88626500D03*
X160400700Y-91166500D03*
X160400700Y-93706500D03*
X160400700Y-96246500D03*
%TD*%
D29*
%TO.C,2*%
X115570000Y-80010000D03*
D30*
X115570000Y-80010000D03*
%TD*%
D23*
%TO.C,R2*%
X145390700Y-85216500D03*
X145390700Y-83216500D03*
%TD*%
D32*
%TO.C,D1*%
X155840700Y-95306500D03*
D33*
X155840700Y-85146500D03*
%TD*%
M02*
