%TF.GenerationSoftware,KiCad,Pcbnew,8.0.4*%
%TF.CreationDate,2025-05-02T23:50:39+05:30*%
%TF.ProjectId,Si4735Board,53693437-3335-4426-9f61-72642e6b6963,rev?*%
%TF.SameCoordinates,Original*%
%TF.FileFunction,Copper,L1,Top*%
%TF.FilePolarity,Positive*%
%FSLAX46Y46*%
G04 Gerber Fmt 4.6, Leading zero omitted, Abs format (unit mm)*
G04 Created by KiCad (PCBNEW 8.0.4) date 2025-05-02 23:50:39*
%MOMM*%
%LPD*%
G01*
G04 APERTURE LIST*
G04 Aperture macros list*
%AMRoundRect*
0 Rectangle with rounded corners*
0 $1 Rounding radius*
0 $2 $3 $4 $5 $6 $7 $8 $9 X,Y pos of 4 corners*
0 Add a 4 corners polygon primitive as box body*
4,1,4,$2,$3,$4,$5,$6,$7,$8,$9,$2,$3,0*
0 Add four circle primitives for the rounded corners*
1,1,$1+$1,$2,$3*
1,1,$1+$1,$4,$5*
1,1,$1+$1,$6,$7*
1,1,$1+$1,$8,$9*
0 Add four rect primitives between the rounded corners*
20,1,$1+$1,$2,$3,$4,$5,0*
20,1,$1+$1,$4,$5,$6,$7,0*
20,1,$1+$1,$6,$7,$8,$9,0*
20,1,$1+$1,$8,$9,$2,$3,0*%
G04 Aperture macros list end*
%TA.AperFunction,SMDPad,CuDef*%
%ADD10RoundRect,0.250000X0.337500X0.475000X-0.337500X0.475000X-0.337500X-0.475000X0.337500X-0.475000X0*%
%TD*%
%TA.AperFunction,ComponentPad*%
%ADD11C,1.600000*%
%TD*%
%TA.AperFunction,ComponentPad*%
%ADD12O,1.600000X1.600000*%
%TD*%
%TA.AperFunction,ComponentPad*%
%ADD13C,1.000000*%
%TD*%
%TA.AperFunction,SMDPad,CuDef*%
%ADD14RoundRect,0.250000X-0.475000X0.337500X-0.475000X-0.337500X0.475000X-0.337500X0.475000X0.337500X0*%
%TD*%
%TA.AperFunction,SMDPad,CuDef*%
%ADD15RoundRect,0.250000X-0.337500X-0.475000X0.337500X-0.475000X0.337500X0.475000X-0.337500X0.475000X0*%
%TD*%
%TA.AperFunction,SMDPad,CuDef*%
%ADD16RoundRect,0.250000X0.475000X-0.337500X0.475000X0.337500X-0.475000X0.337500X-0.475000X-0.337500X0*%
%TD*%
%TA.AperFunction,ComponentPad*%
%ADD17R,1.700000X1.700000*%
%TD*%
%TA.AperFunction,ComponentPad*%
%ADD18O,1.700000X1.700000*%
%TD*%
%TA.AperFunction,ComponentPad*%
%ADD19R,1.350000X1.350000*%
%TD*%
%TA.AperFunction,ComponentPad*%
%ADD20O,1.350000X1.350000*%
%TD*%
%TA.AperFunction,SMDPad,CuDef*%
%ADD21R,0.850800X1.761200*%
%TD*%
%TA.AperFunction,SMDPad,CuDef*%
%ADD22R,3.150799X1.761200*%
%TD*%
%TA.AperFunction,SMDPad,CuDef*%
%ADD23RoundRect,0.250000X0.450000X-0.350000X0.450000X0.350000X-0.450000X0.350000X-0.450000X-0.350000X0*%
%TD*%
%TA.AperFunction,ComponentPad*%
%ADD24C,2.240000*%
%TD*%
%TA.AperFunction,ComponentPad*%
%ADD25C,2.740000*%
%TD*%
%TA.AperFunction,SMDPad,CuDef*%
%ADD26RoundRect,0.250000X-0.450000X0.350000X-0.450000X-0.350000X0.450000X-0.350000X0.450000X0.350000X0*%
%TD*%
%TA.AperFunction,SMDPad,CuDef*%
%ADD27RoundRect,0.250000X-0.350000X-0.450000X0.350000X-0.450000X0.350000X0.450000X-0.350000X0.450000X0*%
%TD*%
%TA.AperFunction,SMDPad,CuDef*%
%ADD28RoundRect,0.250000X1.500000X0.550000X-1.500000X0.550000X-1.500000X-0.550000X1.500000X-0.550000X0*%
%TD*%
%TA.AperFunction,ComponentPad*%
%ADD29C,2.600000*%
%TD*%
%TA.AperFunction,ConnectorPad*%
%ADD30C,3.800000*%
%TD*%
%TA.AperFunction,SMDPad,CuDef*%
%ADD31RoundRect,0.250000X-0.550000X1.500000X-0.550000X-1.500000X0.550000X-1.500000X0.550000X1.500000X0*%
%TD*%
%TA.AperFunction,ComponentPad*%
%ADD32R,1.500000X1.500000*%
%TD*%
%TA.AperFunction,ComponentPad*%
%ADD33O,1.500000X1.500000*%
%TD*%
%TA.AperFunction,ViaPad*%
%ADD34C,0.600000*%
%TD*%
%TA.AperFunction,Conductor*%
%ADD35C,0.200000*%
%TD*%
G04 APERTURE END LIST*
D10*
%TO.P,C7,1*%
%TO.N,Net-(U2-DBYP)*%
X135970700Y-99806500D03*
%TO.P,C7,2*%
%TO.N,3V3R2*%
X133895700Y-99806500D03*
%TD*%
D11*
%TO.P,L2,1,1*%
%TO.N,Net-(U2-FMI)*%
X125990700Y-94696500D03*
D12*
%TO.P,L2,2,2*%
%TO.N,GND*%
X125990700Y-104856500D03*
%TD*%
D13*
%TO.P,Y1,1,1*%
%TO.N,Net-(C11-Pad1)*%
X141110700Y-103356500D03*
%TO.P,Y1,2,2*%
%TO.N,RCLK*%
X141110700Y-105256500D03*
%TD*%
D14*
%TO.P,C9,1*%
%TO.N,Net-(U2-AMI)*%
X129450700Y-89276500D03*
%TO.P,C9,2*%
%TO.N,AMI*%
X129450700Y-91351500D03*
%TD*%
D10*
%TO.P,C1,1*%
%TO.N,Net-(D1-K)*%
X130560700Y-99856500D03*
%TO.P,C1,2*%
%TO.N,GND*%
X128485700Y-99856500D03*
%TD*%
D14*
%TO.P,C6,1*%
%TO.N,ROUT*%
X133870700Y-83279000D03*
%TO.P,C6,2*%
%TO.N,Net-(U2-ROUT(DOUT))*%
X133870700Y-85354000D03*
%TD*%
D15*
%TO.P,C11,1*%
%TO.N,Net-(C11-Pad1)*%
X142475700Y-99806500D03*
%TO.P,C11,2*%
%TO.N,Net-(C10-Pad2)*%
X144550700Y-99806500D03*
%TD*%
D10*
%TO.P,C3,1*%
%TO.N,3V3R2*%
X150265700Y-99956500D03*
%TO.P,C3,2*%
%TO.N,GND*%
X148190700Y-99956500D03*
%TD*%
D16*
%TO.P,C10,1*%
%TO.N,RCLK*%
X146120700Y-105021500D03*
%TO.P,C10,2*%
%TO.N,Net-(C10-Pad2)*%
X146120700Y-102946500D03*
%TD*%
D17*
%TO.P,J3,1,Pin_1*%
%TO.N,SCL*%
X143546300Y-80086500D03*
D18*
%TO.P,J3,2,Pin_2*%
%TO.N,SDA*%
X146086300Y-80086500D03*
%TO.P,J3,3,Pin_3*%
%TO.N,GND*%
X148626300Y-80086500D03*
%TO.P,J3,4,Pin_4*%
%TO.N,DOUT*%
X151166300Y-80086500D03*
%TO.P,J3,5,Pin_5*%
%TO.N,DFS*%
X153706300Y-80086500D03*
%TO.P,J3,6,Pin_6*%
%TO.N,GPIO2*%
X156246300Y-80086500D03*
%TO.P,J3,7,Pin_7*%
%TO.N,RCLK*%
X158786300Y-80086500D03*
%TD*%
D19*
%TO.P,J7,1,Pin_1*%
%TO.N,3V3R2*%
X133550700Y-94496500D03*
D20*
%TO.P,J7,2,Pin_2*%
%TO.N,SEN*%
X133550700Y-92496500D03*
%TO.P,J7,3,Pin_3*%
%TO.N,GND*%
X133550700Y-90496500D03*
%TD*%
D21*
%TO.P,U1,1,GND*%
%TO.N,GND*%
X148100700Y-96111500D03*
%TO.P,U1,2,VOUT*%
%TO.N,unconnected-(U1-VOUT-Pad2)*%
X150400700Y-96111500D03*
%TO.P,U1,3,VIN*%
%TO.N,Net-(D1-K)*%
X152700700Y-96111500D03*
D22*
%TO.P,U1,4,VOUT*%
%TO.N,3V3R2*%
X150400700Y-90061500D03*
%TD*%
D23*
%TO.P,R4,1*%
%TO.N,3V3R2*%
X125130700Y-85366500D03*
%TO.P,R4,2*%
%TO.N,SCL1*%
X125130700Y-83366500D03*
%TD*%
D11*
%TO.P,L1,1,1*%
%TO.N,FMI*%
X115570000Y-104140000D03*
D12*
%TO.P,L1,2,2*%
%TO.N,GND*%
X115570000Y-93980000D03*
%TD*%
D23*
%TO.P,R1,1*%
%TO.N,3V3R2*%
X150300700Y-85056500D03*
%TO.P,R1,2*%
%TO.N,SDA*%
X150300700Y-83056500D03*
%TD*%
D10*
%TO.P,C8,1*%
%TO.N,Net-(U2-FMI)*%
X125018200Y-91376500D03*
%TO.P,C8,2*%
%TO.N,FMI*%
X122943200Y-91376500D03*
%TD*%
D24*
%TO.P,J1,1,In*%
%TO.N,FMI*%
X108400700Y-82636500D03*
D25*
%TO.P,J1,2,Ext*%
%TO.N,GND*%
X105860700Y-80096500D03*
X105860700Y-85176500D03*
X110940700Y-80096500D03*
X110940700Y-85176500D03*
%TD*%
D26*
%TO.P,R7,1*%
%TO.N,RST*%
X130200700Y-83276500D03*
%TO.P,R7,2*%
%TO.N,Net-(U2-~{RST})*%
X130200700Y-85276500D03*
%TD*%
D24*
%TO.P,J5,1,In*%
%TO.N,AMI*%
X108430700Y-104016500D03*
D25*
%TO.P,J5,2,Ext*%
%TO.N,GND*%
X110970700Y-106556500D03*
X110970700Y-101476500D03*
X105890700Y-106556500D03*
X105890700Y-101476500D03*
%TD*%
D14*
%TO.P,C5,1*%
%TO.N,LOUT*%
X137480700Y-83386500D03*
%TO.P,C5,2*%
%TO.N,Net-(U2-LOUT(DFS))*%
X137480700Y-85461500D03*
%TD*%
D23*
%TO.P,R3,1*%
%TO.N,3V3R2*%
X127590700Y-85346500D03*
%TO.P,R3,2*%
%TO.N,SDA1*%
X127590700Y-83346500D03*
%TD*%
D27*
%TO.P,R5,1*%
%TO.N,Net-(U2-GPO3{slash}(DCLK))*%
X138210700Y-99766500D03*
%TO.P,R5,2*%
%TO.N,Net-(C11-Pad1)*%
X140210700Y-99766500D03*
%TD*%
D28*
%TO.P,C4,1*%
%TO.N,3V3R2*%
X120900700Y-86916500D03*
%TO.P,C4,2*%
%TO.N,GND*%
X115300700Y-86916500D03*
%TD*%
D19*
%TO.P,J6,1,Pin_1*%
%TO.N,FMI*%
X110430700Y-91396500D03*
D20*
%TO.P,J6,2,Pin_2*%
%TO.N,GND*%
X110430700Y-93396500D03*
%TO.P,J6,3,Pin_3*%
%TO.N,AMI*%
X110430700Y-95396500D03*
%TD*%
D29*
%TO.P,1,1*%
%TO.N,N/C*%
X162560000Y-105410000D03*
D30*
X162560000Y-105410000D03*
%TD*%
D31*
%TO.P,C2,1*%
%TO.N,Net-(D1-K)*%
X155850700Y-98786500D03*
%TO.P,C2,2*%
%TO.N,GND*%
X155850700Y-104386500D03*
%TD*%
D17*
%TO.P,J4,1,Pin_1*%
%TO.N,SCL1*%
X122154100Y-80086500D03*
D18*
%TO.P,J4,2,Pin_2*%
%TO.N,SDA1*%
X124694100Y-80086500D03*
%TO.P,J4,3,Pin_3*%
%TO.N,RST*%
X127234100Y-80086500D03*
%TO.P,J4,4,Pin_4*%
%TO.N,3V3R2*%
X129774100Y-80086500D03*
%TO.P,J4,5,Pin_5*%
%TO.N,ROUT*%
X132314100Y-80086500D03*
%TO.P,J4,6,Pin_6*%
%TO.N,LOUT*%
X134854100Y-80086500D03*
%TO.P,J4,7,Pin_7*%
%TO.N,GND*%
X137394100Y-80086500D03*
%TD*%
D11*
%TO.P,L3,1,1*%
%TO.N,AMI*%
X120190700Y-104756500D03*
D12*
%TO.P,L3,2,2*%
%TO.N,GND*%
X120190700Y-94596500D03*
%TD*%
D17*
%TO.P,J2,1,Pin_1*%
%TO.N,GND*%
X160400700Y-86086500D03*
D18*
%TO.P,J2,2,Pin_2*%
X160400700Y-88626500D03*
%TO.P,J2,3,Pin_3*%
%TO.N,3V3R2*%
X160400700Y-91166500D03*
%TO.P,J2,4,Pin_4*%
%TO.N,9V*%
X160400700Y-93706500D03*
%TO.P,J2,5,Pin_5*%
%TO.N,GND*%
X160400700Y-96246500D03*
%TD*%
D29*
%TO.P,2,1*%
%TO.N,N/C*%
X115570000Y-80010000D03*
D30*
X115570000Y-80010000D03*
%TD*%
D23*
%TO.P,R2,1*%
%TO.N,3V3R2*%
X145390700Y-85216500D03*
%TO.P,R2,2*%
%TO.N,SCL*%
X145390700Y-83216500D03*
%TD*%
D32*
%TO.P,D1,1,K*%
%TO.N,Net-(D1-K)*%
X155840700Y-95306500D03*
D33*
%TO.P,D1,2,A*%
%TO.N,9V*%
X155840700Y-85146500D03*
%TD*%
D34*
%TO.N,Net-(D1-K)*%
X154083600Y-97293800D03*
%TO.N,3V3R2*%
X143294900Y-98381400D03*
X130808400Y-87589700D03*
%TO.N,Net-(U2-LOUT(DFS))*%
X145197700Y-93013500D03*
%TO.N,Net-(U2-ROUT(DOUT))*%
X146446200Y-93265600D03*
%TO.N,Net-(U2-DBYP)*%
X137084500Y-99909400D03*
%TO.N,Net-(U2-FMI)*%
X132198800Y-92192600D03*
%TO.N,Net-(U2-AMI)*%
X132314300Y-89876100D03*
%TO.N,SDA1*%
X145342600Y-89419500D03*
%TO.N,SCL1*%
X141783800Y-93242800D03*
X125204300Y-87652200D03*
%TO.N,Net-(U2-GPO3{slash}(DCLK))*%
X139233300Y-94696700D03*
%TO.N,Net-(U2-~{RST})*%
X142264300Y-88285100D03*
%TD*%
D35*
%TO.N,Net-(D1-K)*%
X138679800Y-100893000D02*
X139210700Y-100362100D01*
X154083600Y-97293800D02*
X154358000Y-97293800D01*
X154358000Y-97293800D02*
X155850700Y-98786500D01*
X139210700Y-100362100D02*
X139210700Y-99164500D01*
X152700700Y-96111500D02*
X152700700Y-97293800D01*
X131597200Y-100893000D02*
X138679800Y-100893000D01*
X152700700Y-97293800D02*
X154083600Y-97293800D01*
X130560700Y-99856500D02*
X131597200Y-100893000D01*
X141081400Y-97293800D02*
X152700700Y-97293800D01*
X139210700Y-99164500D02*
X141081400Y-97293800D01*
%TO.N,GND*%
X138545800Y-80086500D02*
X139768300Y-78864000D01*
X125990700Y-104856500D02*
X125990700Y-104305600D01*
X131901400Y-90314000D02*
X132083900Y-90496500D01*
X153536700Y-94929200D02*
X154967500Y-96360000D01*
X148100700Y-94929200D02*
X153536700Y-94929200D01*
X148626300Y-80086500D02*
X149778000Y-80086500D01*
X160400700Y-86086500D02*
X159249000Y-86086500D01*
X115300700Y-86916500D02*
X112680700Y-86916500D01*
X149450100Y-101215900D02*
X148190700Y-99956500D01*
X126045500Y-104185800D02*
X143188600Y-104185800D01*
X128485700Y-101259800D02*
X125990700Y-103754800D01*
X110430700Y-93396500D02*
X111407400Y-93396500D01*
X143390400Y-103984000D02*
X146682000Y-103984000D01*
X123739800Y-106556500D02*
X110970700Y-106556500D01*
X105860700Y-85176500D02*
X110940700Y-85176500D01*
X133550700Y-90496500D02*
X132574000Y-90496500D01*
X112680700Y-86916500D02*
X110940700Y-85176500D01*
X143188600Y-104185800D02*
X143390400Y-103984000D01*
X118698200Y-90314000D02*
X131901400Y-90314000D01*
X128485700Y-99856500D02*
X128485700Y-101259800D01*
X110970700Y-106556500D02*
X105890700Y-106556500D01*
X149778000Y-80355000D02*
X149778000Y-80086500D01*
X147403800Y-78864000D02*
X148626300Y-80086500D01*
X159249000Y-86086500D02*
X155316300Y-82153800D01*
X146682000Y-103984000D02*
X149450100Y-101215900D01*
X132083900Y-90496500D02*
X132574000Y-90496500D01*
X120190700Y-94596500D02*
X119089000Y-94596500D01*
X154967500Y-96360000D02*
X159135500Y-96360000D01*
X118472500Y-93980000D02*
X115570000Y-93980000D01*
X125990700Y-104131000D02*
X126045500Y-104185800D01*
X159135500Y-96360000D02*
X159249000Y-96246500D01*
X125990700Y-104131000D02*
X125990700Y-103754800D01*
X152620700Y-104386500D02*
X149450100Y-101215900D01*
X137394100Y-80086500D02*
X138545800Y-80086500D01*
X125990700Y-104305600D02*
X123739800Y-106556500D01*
X115300700Y-86916500D02*
X118698200Y-90314000D01*
X125990700Y-104305600D02*
X125990700Y-104131000D01*
X115570000Y-93980000D02*
X111990900Y-93980000D01*
X111990900Y-93980000D02*
X111407400Y-93396500D01*
X148100700Y-96111500D02*
X148100700Y-94929200D01*
X155850700Y-104386500D02*
X152620700Y-104386500D01*
X139768300Y-78864000D02*
X147403800Y-78864000D01*
X155316300Y-82153800D02*
X151576800Y-82153800D01*
X151576800Y-82153800D02*
X149778000Y-80355000D01*
X160400700Y-96246500D02*
X159249000Y-96246500D01*
X119089000Y-94596500D02*
X118472500Y-93980000D01*
%TO.N,3V3R2*%
X150300700Y-85056500D02*
X145550700Y-85056500D01*
X148244300Y-94095000D02*
X152277800Y-90061500D01*
X134527400Y-94496500D02*
X138582800Y-94496500D01*
X133550700Y-99461500D02*
X133550700Y-94496500D01*
X128565200Y-85346500D02*
X127590700Y-85346500D01*
X123580700Y-86916500D02*
X120900700Y-86916500D01*
X145550700Y-85056500D02*
X145390700Y-85216500D01*
X151850700Y-90061500D02*
X152277800Y-90061500D01*
X153382800Y-91166500D02*
X152277800Y-90061500D01*
X125130700Y-85366500D02*
X123580700Y-86916500D01*
X160400700Y-91166500D02*
X153382800Y-91166500D01*
X133895700Y-99806500D02*
X133550700Y-99461500D01*
X133550700Y-94496500D02*
X134527400Y-94496500D01*
X150400700Y-90061500D02*
X151850700Y-90061500D01*
X127570700Y-85366500D02*
X127590700Y-85346500D01*
X138582800Y-94496500D02*
X138582800Y-94496400D01*
X130808400Y-87589700D02*
X128565200Y-85346500D01*
X125130700Y-85366500D02*
X127570700Y-85366500D01*
X138984200Y-94095000D02*
X148244300Y-94095000D01*
X138582800Y-94496400D02*
X138984200Y-94095000D01*
X148690600Y-98381400D02*
X150265700Y-99956500D01*
X151850700Y-90061500D02*
X151850700Y-86606500D01*
X143294900Y-98381400D02*
X148690600Y-98381400D01*
X151850700Y-86606500D02*
X150300700Y-85056500D01*
%TO.N,LOUT*%
X134854100Y-81238200D02*
X135332400Y-81238200D01*
X135332400Y-81238200D02*
X137480700Y-83386500D01*
X134854100Y-80086500D02*
X134854100Y-81238200D01*
%TO.N,Net-(U2-LOUT(DFS))*%
X137645700Y-85461500D02*
X137480700Y-85461500D01*
X145197700Y-93013500D02*
X137645700Y-85461500D01*
%TO.N,ROUT*%
X132314100Y-81722400D02*
X132314100Y-80086500D01*
X133870700Y-83279000D02*
X132314100Y-81722400D01*
%TO.N,Net-(U2-ROUT(DOUT))*%
X145796500Y-93265600D02*
X145446900Y-93615200D01*
X143052900Y-93615200D02*
X134791700Y-85354000D01*
X134791700Y-85354000D02*
X133870700Y-85354000D01*
X145446900Y-93615200D02*
X143052900Y-93615200D01*
X146446200Y-93265600D02*
X145796500Y-93265600D01*
X145796500Y-93265600D02*
X146446200Y-93265600D01*
X145796500Y-93265600D02*
X146446200Y-93265600D01*
%TO.N,Net-(U2-DBYP)*%
X137084500Y-99909400D02*
X136073600Y-99909400D01*
X136073600Y-99909400D02*
X135970700Y-99806500D01*
%TO.N,FMI*%
X122943200Y-91376500D02*
X111427400Y-91376500D01*
X111427400Y-91376500D02*
X111407400Y-91396500D01*
X110430700Y-91396500D02*
X111407400Y-91396500D01*
%TO.N,Net-(U2-FMI)*%
X125990700Y-94696500D02*
X125990700Y-92245800D01*
X132145600Y-92245800D02*
X125990700Y-92245800D01*
X125887500Y-92245800D02*
X125018200Y-91376500D01*
X125990700Y-92245800D02*
X125887500Y-92245800D01*
X132198800Y-92192600D02*
X132145600Y-92245800D01*
%TO.N,AMI*%
X129450700Y-91351500D02*
X129595700Y-91496500D01*
X134583500Y-92875300D02*
X133962300Y-93496500D01*
X120190700Y-104756500D02*
X119703300Y-105243900D01*
X112376200Y-105243900D02*
X111148800Y-104016500D01*
X110430700Y-95396500D02*
X111407400Y-95396500D01*
X111812000Y-95801100D02*
X111407400Y-95396500D01*
X129595700Y-91496500D02*
X133950100Y-91496500D01*
X128723600Y-95801100D02*
X111812000Y-95801100D01*
X134583500Y-92129900D02*
X134583500Y-92875300D01*
X111148800Y-104016500D02*
X108430700Y-104016500D01*
X133962300Y-93496500D02*
X131028200Y-93496500D01*
X133950100Y-91496500D02*
X134583500Y-92129900D01*
X119703300Y-105243900D02*
X112376200Y-105243900D01*
X131028200Y-93496500D02*
X128723600Y-95801100D01*
%TO.N,Net-(U2-AMI)*%
X130050300Y-89876100D02*
X132314300Y-89876100D01*
X129450700Y-89276500D02*
X130050300Y-89876100D01*
%TO.N,RCLK*%
X146120700Y-105021500D02*
X141345700Y-105021500D01*
X141345700Y-105021500D02*
X141110700Y-105256500D01*
%TO.N,Net-(C10-Pad2)*%
X146120700Y-101376500D02*
X146120700Y-102946500D01*
X144550700Y-99806500D02*
X146120700Y-101376500D01*
%TO.N,Net-(C11-Pad1)*%
X142475700Y-101991500D02*
X141110700Y-103356500D01*
X142475700Y-99806500D02*
X142475700Y-101991500D01*
X140210700Y-99766500D02*
X142435700Y-99766500D01*
X142435700Y-99766500D02*
X142475700Y-99806500D01*
%TO.N,SCL*%
X143546300Y-80086500D02*
X143546300Y-81372100D01*
X143546300Y-81372100D02*
X145390700Y-83216500D01*
%TO.N,SDA*%
X146086300Y-80086500D02*
X147238000Y-80086500D01*
X149920100Y-83056500D02*
X150300700Y-83056500D01*
X147238000Y-80374400D02*
X149920100Y-83056500D01*
X147238000Y-80086500D02*
X147238000Y-80374400D01*
%TO.N,SDA1*%
X125873900Y-78906700D02*
X124694100Y-80086500D01*
X145342600Y-89419500D02*
X137653800Y-81730700D01*
X136242400Y-80563600D02*
X136242400Y-79749100D01*
X124694100Y-80086500D02*
X124694100Y-81238200D01*
X125482400Y-81238200D02*
X127590700Y-83346500D01*
X137409500Y-81730700D02*
X136242400Y-80563600D01*
X124694100Y-81238200D02*
X125482400Y-81238200D01*
X136242400Y-79749100D02*
X135400000Y-78906700D01*
X144995400Y-89072300D02*
X145342600Y-89419500D01*
X135400000Y-78906700D02*
X125873900Y-78906700D01*
X137653800Y-81730700D02*
X137409500Y-81730700D01*
X145342600Y-89419500D02*
X144995400Y-89072300D01*
%TO.N,SCL1*%
X123002400Y-81238200D02*
X125130700Y-83366500D01*
X141783800Y-93242800D02*
X136886900Y-88345900D01*
X125898000Y-88345900D02*
X125204300Y-87652200D01*
X122154100Y-80086500D02*
X122154100Y-81238200D01*
X122154100Y-81238200D02*
X123002400Y-81238200D01*
X136886900Y-88345900D02*
X125898000Y-88345900D01*
%TO.N,RST*%
X127234100Y-81238200D02*
X128162400Y-81238200D01*
X128162400Y-81238200D02*
X130200700Y-83276500D01*
X127234100Y-80086500D02*
X127234100Y-81238200D01*
%TO.N,Net-(U2-GPO3{slash}(DCLK))*%
X138210700Y-99766500D02*
X138210700Y-95719300D01*
X138210700Y-95719300D02*
X139233300Y-94696700D01*
%TO.N,Net-(U2-~{RST})*%
X131053500Y-84423700D02*
X138402900Y-84423700D01*
X130200700Y-85276500D02*
X131053500Y-84423700D01*
X138402900Y-84423700D02*
X142264300Y-88285100D01*
%TD*%
%TA.AperFunction,NonConductor*%
G36*
X113988999Y-77990185D02*
G01*
X114034754Y-78042989D01*
X114044698Y-78112147D01*
X114015673Y-78175703D01*
X114006844Y-78184892D01*
X113816652Y-78363494D01*
X113624111Y-78596236D01*
X113462268Y-78851261D01*
X113462265Y-78851267D01*
X113333661Y-79124563D01*
X113333659Y-79124568D01*
X113240320Y-79411835D01*
X113183719Y-79708546D01*
X113183718Y-79708553D01*
X113164754Y-80009994D01*
X113164754Y-80010005D01*
X113183718Y-80311446D01*
X113183719Y-80311453D01*
X113240320Y-80608164D01*
X113333659Y-80895431D01*
X113333661Y-80895436D01*
X113462265Y-81168732D01*
X113462268Y-81168738D01*
X113624111Y-81423763D01*
X113624114Y-81423767D01*
X113624115Y-81423768D01*
X113778592Y-81610499D01*
X113816652Y-81656505D01*
X113834516Y-81673280D01*
X114033021Y-81859690D01*
X114036836Y-81863272D01*
X114036846Y-81863280D01*
X114281193Y-82040808D01*
X114281198Y-82040810D01*
X114281205Y-82040816D01*
X114545896Y-82186332D01*
X114545901Y-82186334D01*
X114545903Y-82186335D01*
X114545904Y-82186336D01*
X114826734Y-82297524D01*
X114826737Y-82297525D01*
X114881892Y-82311686D01*
X115119302Y-82372642D01*
X115266039Y-82391179D01*
X115418963Y-82410499D01*
X115418969Y-82410499D01*
X115418973Y-82410500D01*
X115418975Y-82410500D01*
X115721025Y-82410500D01*
X115721027Y-82410500D01*
X115721032Y-82410499D01*
X115721036Y-82410499D01*
X115800591Y-82400448D01*
X116020698Y-82372642D01*
X116313262Y-82297525D01*
X116313265Y-82297524D01*
X116594095Y-82186336D01*
X116594096Y-82186335D01*
X116594094Y-82186335D01*
X116594104Y-82186332D01*
X116858795Y-82040816D01*
X117103162Y-81863274D01*
X117323349Y-81656504D01*
X117515885Y-81423768D01*
X117677733Y-81168736D01*
X117806341Y-80895430D01*
X117899681Y-80608160D01*
X117956280Y-80311457D01*
X117975246Y-80010000D01*
X117965248Y-79851092D01*
X117956281Y-79708553D01*
X117956280Y-79708546D01*
X117956280Y-79708543D01*
X117899681Y-79411840D01*
X117806341Y-79124570D01*
X117786616Y-79082653D01*
X117706532Y-78912465D01*
X117677733Y-78851264D01*
X117640570Y-78792704D01*
X117515888Y-78596236D01*
X117515885Y-78596232D01*
X117323349Y-78363496D01*
X117252732Y-78297182D01*
X117133156Y-78184892D01*
X117097761Y-78124651D01*
X117100555Y-78054837D01*
X117140648Y-77997616D01*
X117205314Y-77971155D01*
X117218040Y-77970500D01*
X163764108Y-77970500D01*
X163823907Y-77970500D01*
X163836061Y-77971097D01*
X163967973Y-77984089D01*
X163991801Y-77988828D01*
X164112793Y-78025531D01*
X164135245Y-78034832D01*
X164190993Y-78064629D01*
X164246738Y-78094426D01*
X164266949Y-78107930D01*
X164364677Y-78188132D01*
X164381867Y-78205322D01*
X164462069Y-78303050D01*
X164475573Y-78323261D01*
X164535166Y-78434751D01*
X164544469Y-78457209D01*
X164581169Y-78578192D01*
X164585911Y-78602032D01*
X164598903Y-78733937D01*
X164599500Y-78746092D01*
X164599500Y-103764969D01*
X164579815Y-103832008D01*
X164527011Y-103877763D01*
X164457853Y-103887707D01*
X164394297Y-103858682D01*
X164379957Y-103844010D01*
X164313352Y-103763499D01*
X164313350Y-103763497D01*
X164311980Y-103762210D01*
X164093162Y-103556726D01*
X164093159Y-103556724D01*
X164093153Y-103556719D01*
X163848806Y-103379191D01*
X163848799Y-103379186D01*
X163848795Y-103379184D01*
X163584104Y-103233668D01*
X163584101Y-103233666D01*
X163584096Y-103233664D01*
X163584095Y-103233663D01*
X163303265Y-103122475D01*
X163303262Y-103122474D01*
X163010695Y-103047357D01*
X162711036Y-103009500D01*
X162711027Y-103009500D01*
X162408973Y-103009500D01*
X162408963Y-103009500D01*
X162109304Y-103047357D01*
X161816737Y-103122474D01*
X161816734Y-103122475D01*
X161535904Y-103233663D01*
X161535903Y-103233664D01*
X161271205Y-103379184D01*
X161271193Y-103379191D01*
X161026846Y-103556719D01*
X161026836Y-103556727D01*
X160806652Y-103763494D01*
X160614111Y-103996236D01*
X160452268Y-104251261D01*
X160452265Y-104251267D01*
X160323661Y-104524563D01*
X160323659Y-104524568D01*
X160230320Y-104811835D01*
X160173719Y-105108546D01*
X160173718Y-105108553D01*
X160154754Y-105409994D01*
X160154754Y-105410005D01*
X160173718Y-105711446D01*
X160173719Y-105711453D01*
X160186314Y-105777479D01*
X160226295Y-105987068D01*
X160230320Y-106008164D01*
X160323659Y-106295431D01*
X160323661Y-106295436D01*
X160452265Y-106568732D01*
X160452268Y-106568738D01*
X160614111Y-106823763D01*
X160614114Y-106823767D01*
X160614115Y-106823768D01*
X160806649Y-107056502D01*
X160806652Y-107056505D01*
X161026836Y-107263272D01*
X161026846Y-107263280D01*
X161271193Y-107440808D01*
X161271198Y-107440810D01*
X161271205Y-107440816D01*
X161535896Y-107586332D01*
X161535901Y-107586334D01*
X161535903Y-107586335D01*
X161535904Y-107586336D01*
X161816734Y-107697524D01*
X161816737Y-107697525D01*
X161914259Y-107722564D01*
X162109302Y-107772642D01*
X162256039Y-107791179D01*
X162408963Y-107810499D01*
X162408969Y-107810499D01*
X162408973Y-107810500D01*
X162408975Y-107810500D01*
X162711025Y-107810500D01*
X162711027Y-107810500D01*
X162711032Y-107810499D01*
X162711036Y-107810499D01*
X162790591Y-107800448D01*
X163010698Y-107772642D01*
X163303262Y-107697525D01*
X163316055Y-107692460D01*
X163584095Y-107586336D01*
X163584096Y-107586335D01*
X163584094Y-107586335D01*
X163584104Y-107586332D01*
X163848795Y-107440816D01*
X164093162Y-107263274D01*
X164313349Y-107056504D01*
X164325286Y-107042073D01*
X164383183Y-107002965D01*
X164453034Y-107001365D01*
X164512662Y-107037784D01*
X164543134Y-107100659D01*
X164542449Y-107145303D01*
X164531591Y-107199888D01*
X164527393Y-107215554D01*
X164446864Y-107452786D01*
X164440657Y-107467772D01*
X164329853Y-107692460D01*
X164321743Y-107706507D01*
X164182559Y-107914811D01*
X164172685Y-107927679D01*
X164007502Y-108116033D01*
X163996033Y-108127502D01*
X163807679Y-108292685D01*
X163794811Y-108302559D01*
X163586507Y-108441743D01*
X163572460Y-108449853D01*
X163347772Y-108560657D01*
X163332786Y-108566864D01*
X163095554Y-108647393D01*
X163079888Y-108651591D01*
X162834186Y-108700465D01*
X162818104Y-108702583D01*
X162564043Y-108719235D01*
X162555933Y-108719500D01*
X104146093Y-108719500D01*
X104133939Y-108718903D01*
X104002033Y-108705911D01*
X103978192Y-108701169D01*
X103857209Y-108664469D01*
X103834751Y-108655166D01*
X103723261Y-108595573D01*
X103703050Y-108582069D01*
X103605322Y-108501867D01*
X103588132Y-108484677D01*
X103507930Y-108386949D01*
X103494426Y-108366738D01*
X103454844Y-108292685D01*
X103434832Y-108255245D01*
X103425530Y-108232790D01*
X103395588Y-108134084D01*
X103388828Y-108111801D01*
X103384089Y-108087973D01*
X103371097Y-107956061D01*
X103370500Y-107943907D01*
X103370500Y-80096498D01*
X103985422Y-80096498D01*
X103985422Y-80096501D01*
X104004510Y-80363381D01*
X104004511Y-80363388D01*
X104061382Y-80624822D01*
X104154887Y-80875520D01*
X104154889Y-80875524D01*
X104283112Y-81110346D01*
X104283117Y-81110354D01*
X104443452Y-81324538D01*
X104443468Y-81324556D01*
X104632643Y-81513731D01*
X104632661Y-81513747D01*
X104846845Y-81674082D01*
X104846853Y-81674087D01*
X105081675Y-81802310D01*
X105081679Y-81802312D01*
X105081681Y-81802313D01*
X105332373Y-81895816D01*
X105332376Y-81895816D01*
X105332377Y-81895817D01*
X105529712Y-81938744D01*
X105593820Y-81952690D01*
X105840140Y-81970307D01*
X105860699Y-81971778D01*
X105860700Y-81971778D01*
X105860701Y-81971778D01*
X105879789Y-81970412D01*
X106127580Y-81952690D01*
X106389027Y-81895816D01*
X106639719Y-81802313D01*
X106790088Y-81720204D01*
X106858361Y-81705353D01*
X106923825Y-81729770D01*
X106965697Y-81785703D01*
X106970681Y-81855395D01*
X106955245Y-81893823D01*
X106952356Y-81898536D01*
X106854749Y-82134181D01*
X106854744Y-82134198D01*
X106795202Y-82382210D01*
X106775189Y-82636500D01*
X106795202Y-82890789D01*
X106854744Y-83138801D01*
X106854749Y-83138818D01*
X106952356Y-83374463D01*
X106955241Y-83379170D01*
X106973487Y-83446616D01*
X106952372Y-83513219D01*
X106898601Y-83557833D01*
X106829245Y-83566294D01*
X106790088Y-83552794D01*
X106639724Y-83470689D01*
X106639720Y-83470687D01*
X106389022Y-83377182D01*
X106127588Y-83320311D01*
X106127581Y-83320310D01*
X105860701Y-83301222D01*
X105860699Y-83301222D01*
X105593818Y-83320310D01*
X105593811Y-83320311D01*
X105332377Y-83377182D01*
X105081679Y-83470687D01*
X105081675Y-83470689D01*
X104846853Y-83598912D01*
X104846845Y-83598917D01*
X104632661Y-83759252D01*
X104632643Y-83759268D01*
X104443468Y-83948443D01*
X104443452Y-83948461D01*
X104283117Y-84162645D01*
X104283112Y-84162653D01*
X104154889Y-84397475D01*
X104154887Y-84397479D01*
X104061382Y-84648177D01*
X104004511Y-84909611D01*
X104004510Y-84909618D01*
X103985422Y-85176498D01*
X103985422Y-85176501D01*
X104004510Y-85443381D01*
X104004511Y-85443388D01*
X104061382Y-85704822D01*
X104154887Y-85955520D01*
X104154889Y-85955524D01*
X104283112Y-86190346D01*
X104283117Y-86190354D01*
X104443452Y-86404538D01*
X104443468Y-86404556D01*
X104632643Y-86593731D01*
X104632661Y-86593747D01*
X104846845Y-86754082D01*
X104846853Y-86754087D01*
X105081675Y-86882310D01*
X105081679Y-86882312D01*
X105081681Y-86882313D01*
X105332373Y-86975816D01*
X105332376Y-86975816D01*
X105332377Y-86975817D01*
X105371755Y-86984383D01*
X105593820Y-87032690D01*
X105840140Y-87050307D01*
X105860699Y-87051778D01*
X105860700Y-87051778D01*
X105860701Y-87051778D01*
X105879789Y-87050412D01*
X106127580Y-87032690D01*
X106389027Y-86975816D01*
X106639719Y-86882313D01*
X106874552Y-86754084D01*
X107088746Y-86593741D01*
X107277941Y-86404546D01*
X107438284Y-86190352D01*
X107566513Y-85955519D01*
X107603010Y-85857665D01*
X107644882Y-85801733D01*
X107710346Y-85777316D01*
X107719192Y-85777000D01*
X109082208Y-85777000D01*
X109149247Y-85796685D01*
X109195002Y-85849489D01*
X109198387Y-85857661D01*
X109233499Y-85951797D01*
X109234889Y-85955524D01*
X109363112Y-86190346D01*
X109363117Y-86190354D01*
X109523452Y-86404538D01*
X109523468Y-86404556D01*
X109712643Y-86593731D01*
X109712661Y-86593747D01*
X109926845Y-86754082D01*
X109926853Y-86754087D01*
X110161675Y-86882310D01*
X110161679Y-86882312D01*
X110161681Y-86882313D01*
X110412373Y-86975816D01*
X110412376Y-86975816D01*
X110412377Y-86975817D01*
X110451755Y-86984383D01*
X110673820Y-87032690D01*
X110920140Y-87050307D01*
X110940699Y-87051778D01*
X110940700Y-87051778D01*
X110940701Y-87051778D01*
X110959789Y-87050412D01*
X111207580Y-87032690D01*
X111469027Y-86975816D01*
X111701543Y-86889091D01*
X111771234Y-86884108D01*
X111832557Y-86917593D01*
X112311984Y-87397020D01*
X112311986Y-87397021D01*
X112311990Y-87397024D01*
X112448909Y-87476073D01*
X112448912Y-87476075D01*
X112448916Y-87476077D01*
X112601643Y-87517001D01*
X112601645Y-87517001D01*
X112767354Y-87517001D01*
X112767370Y-87517000D01*
X112938537Y-87517000D01*
X113005576Y-87536685D01*
X113051331Y-87589489D01*
X113059789Y-87615041D01*
X113060699Y-87619292D01*
X113094292Y-87720667D01*
X113115886Y-87785834D01*
X113207988Y-87935156D01*
X113332044Y-88059212D01*
X113481366Y-88151314D01*
X113647903Y-88206499D01*
X113750691Y-88217000D01*
X115700602Y-88216999D01*
X115767641Y-88236684D01*
X115788283Y-88253318D01*
X118099283Y-90564319D01*
X118132768Y-90625642D01*
X118127784Y-90695334D01*
X118085912Y-90751267D01*
X118020448Y-90775684D01*
X118011602Y-90776000D01*
X111728589Y-90776000D01*
X111661550Y-90756315D01*
X111615795Y-90703511D01*
X111605299Y-90665254D01*
X111604377Y-90656679D01*
X111599791Y-90614017D01*
X111549496Y-90479169D01*
X111549495Y-90479168D01*
X111549493Y-90479164D01*
X111463247Y-90363955D01*
X111463244Y-90363952D01*
X111348035Y-90277706D01*
X111348028Y-90277702D01*
X111213182Y-90227408D01*
X111213183Y-90227408D01*
X111153583Y-90221001D01*
X111153581Y-90221000D01*
X111153573Y-90221000D01*
X111153564Y-90221000D01*
X109707829Y-90221000D01*
X109707823Y-90221001D01*
X109648216Y-90227408D01*
X109513371Y-90277702D01*
X109513364Y-90277706D01*
X109398155Y-90363952D01*
X109398152Y-90363955D01*
X109311906Y-90479164D01*
X109311902Y-90479171D01*
X109261608Y-90614017D01*
X109255201Y-90673616D01*
X109255200Y-90673635D01*
X109255200Y-92119370D01*
X109255201Y-92119376D01*
X109261608Y-92178983D01*
X109311902Y-92313828D01*
X109311906Y-92313835D01*
X109364196Y-92383684D01*
X109398154Y-92429046D01*
X109483805Y-92493164D01*
X109525675Y-92549097D01*
X109530659Y-92618789D01*
X109508448Y-92667156D01*
X109426988Y-92775028D01*
X109329884Y-92970037D01*
X109322777Y-92995015D01*
X109281282Y-93140858D01*
X109270264Y-93179581D01*
X109250164Y-93396499D01*
X109250164Y-93396500D01*
X109270264Y-93613418D01*
X109270264Y-93613420D01*
X109270265Y-93613423D01*
X109329883Y-93822959D01*
X109329884Y-93822962D01*
X109426988Y-94017972D01*
X109558274Y-94191824D01*
X109682272Y-94304863D01*
X109718554Y-94364574D01*
X109716793Y-94434422D01*
X109682272Y-94488137D01*
X109558274Y-94601175D01*
X109426988Y-94775027D01*
X109329884Y-94970037D01*
X109270264Y-95179581D01*
X109250164Y-95396498D01*
X109270264Y-95613418D01*
X109270264Y-95613420D01*
X109270265Y-95613423D01*
X109322212Y-95795999D01*
X109329884Y-95822962D01*
X109402122Y-95968035D01*
X109426988Y-96017972D01*
X109558273Y-96191822D01*
X109719268Y-96338588D01*
X109719275Y-96338592D01*
X109719276Y-96338593D01*
X109904486Y-96453270D01*
X109904492Y-96453273D01*
X109908274Y-96454738D01*
X110107631Y-96531970D01*
X110321774Y-96572000D01*
X110321776Y-96572000D01*
X110539624Y-96572000D01*
X110539626Y-96572000D01*
X110753769Y-96531970D01*
X110956910Y-96453272D01*
X111142132Y-96338588D01*
X111241974Y-96247569D01*
X111304776Y-96216954D01*
X111374163Y-96225151D01*
X111413191Y-96251527D01*
X111443284Y-96281620D01*
X111509416Y-96319801D01*
X111580215Y-96360677D01*
X111732943Y-96401601D01*
X111732946Y-96401601D01*
X111898654Y-96401601D01*
X111898670Y-96401600D01*
X128636931Y-96401600D01*
X128636947Y-96401601D01*
X128644543Y-96401601D01*
X128802654Y-96401601D01*
X128802657Y-96401601D01*
X128955385Y-96360677D01*
X129026184Y-96319801D01*
X129092316Y-96281620D01*
X129204120Y-96169816D01*
X129204120Y-96169814D01*
X129214324Y-96159611D01*
X129214327Y-96159606D01*
X131240617Y-94133319D01*
X131301940Y-94099834D01*
X131328298Y-94097000D01*
X132251200Y-94097000D01*
X132318239Y-94116685D01*
X132363994Y-94169489D01*
X132375200Y-94221000D01*
X132375200Y-95219370D01*
X132375201Y-95219376D01*
X132381608Y-95278983D01*
X132431902Y-95413828D01*
X132431906Y-95413835D01*
X132518152Y-95529044D01*
X132518155Y-95529047D01*
X132633364Y-95615293D01*
X132633371Y-95615297D01*
X132768216Y-95665591D01*
X132827813Y-95671999D01*
X132827822Y-95671999D01*
X132827827Y-95672000D01*
X132827831Y-95671999D01*
X132831134Y-95672177D01*
X132831124Y-95672355D01*
X132831131Y-95672356D01*
X132831117Y-95672477D01*
X132831066Y-95673446D01*
X132893178Y-95691644D01*
X132938964Y-95744421D01*
X132950200Y-95795999D01*
X132950200Y-98852463D01*
X132931739Y-98917559D01*
X132873389Y-99012159D01*
X132873385Y-99012168D01*
X132856817Y-99062168D01*
X132818201Y-99178703D01*
X132818201Y-99178704D01*
X132818200Y-99178704D01*
X132807700Y-99281483D01*
X132807700Y-99281491D01*
X132807700Y-99770689D01*
X132807701Y-100168500D01*
X132788017Y-100235539D01*
X132735213Y-100281294D01*
X132683701Y-100292500D01*
X131897297Y-100292500D01*
X131830258Y-100272815D01*
X131809616Y-100256181D01*
X131685018Y-100131583D01*
X131651533Y-100070260D01*
X131648699Y-100043902D01*
X131648699Y-99331498D01*
X131648698Y-99331481D01*
X131638199Y-99228703D01*
X131638198Y-99228700D01*
X131621631Y-99178704D01*
X131583014Y-99062166D01*
X131490912Y-98912844D01*
X131366856Y-98788788D01*
X131217534Y-98696686D01*
X131050997Y-98641501D01*
X131050995Y-98641500D01*
X130948210Y-98631000D01*
X130173198Y-98631000D01*
X130173180Y-98631001D01*
X130070403Y-98641500D01*
X130070400Y-98641501D01*
X129903868Y-98696685D01*
X129903863Y-98696687D01*
X129754542Y-98788789D01*
X129630485Y-98912846D01*
X129628737Y-98915682D01*
X129627029Y-98917217D01*
X129626007Y-98918511D01*
X129625785Y-98918336D01*
X129576789Y-98962405D01*
X129507826Y-98973626D01*
X129443744Y-98945782D01*
X129417663Y-98915682D01*
X129415914Y-98912846D01*
X129291857Y-98788789D01*
X129291856Y-98788788D01*
X129142534Y-98696686D01*
X128975997Y-98641501D01*
X128975995Y-98641500D01*
X128873210Y-98631000D01*
X128098198Y-98631000D01*
X128098180Y-98631001D01*
X127995403Y-98641500D01*
X127995400Y-98641501D01*
X127828868Y-98696685D01*
X127828863Y-98696687D01*
X127679542Y-98788789D01*
X127555489Y-98912842D01*
X127463387Y-99062163D01*
X127463385Y-99062168D01*
X127447379Y-99110472D01*
X127408201Y-99228703D01*
X127408201Y-99228704D01*
X127408200Y-99228704D01*
X127397700Y-99331483D01*
X127397700Y-100381501D01*
X127397701Y-100381519D01*
X127408200Y-100484296D01*
X127408201Y-100484299D01*
X127446818Y-100600836D01*
X127463386Y-100650834D01*
X127555488Y-100800156D01*
X127679544Y-100924212D01*
X127726986Y-100953474D01*
X127773710Y-101005420D01*
X127784933Y-101074382D01*
X127757090Y-101138465D01*
X127749570Y-101146693D01*
X125621986Y-103274278D01*
X125510181Y-103386082D01*
X125510180Y-103386084D01*
X125461232Y-103470865D01*
X125452575Y-103485860D01*
X125431123Y-103523013D01*
X125397143Y-103649829D01*
X125360777Y-103709489D01*
X125339380Y-103725115D01*
X125337972Y-103725927D01*
X125151558Y-103856454D01*
X124990654Y-104017358D01*
X124860132Y-104203765D01*
X124860131Y-104203767D01*
X124763961Y-104410002D01*
X124763958Y-104410011D01*
X124705066Y-104629802D01*
X124705064Y-104629812D01*
X124698241Y-104707797D01*
X124672788Y-104772865D01*
X124662394Y-104784669D01*
X123527384Y-105919681D01*
X123466061Y-105953166D01*
X123439703Y-105956000D01*
X121129749Y-105956000D01*
X121062710Y-105936315D01*
X121016955Y-105883511D01*
X121007011Y-105814353D01*
X121036036Y-105750797D01*
X121042068Y-105744319D01*
X121190745Y-105595641D01*
X121190747Y-105595639D01*
X121321268Y-105409234D01*
X121417439Y-105202996D01*
X121476335Y-104983192D01*
X121496168Y-104756500D01*
X121495840Y-104752756D01*
X121483790Y-104615019D01*
X121476335Y-104529808D01*
X121417439Y-104310004D01*
X121321268Y-104103766D01*
X121190747Y-103917361D01*
X121190745Y-103917358D01*
X121029841Y-103756454D01*
X120843434Y-103625932D01*
X120843432Y-103625931D01*
X120637197Y-103529761D01*
X120637188Y-103529758D01*
X120417397Y-103470866D01*
X120417393Y-103470865D01*
X120417392Y-103470865D01*
X120417391Y-103470864D01*
X120417386Y-103470864D01*
X120190702Y-103451032D01*
X120190698Y-103451032D01*
X119964013Y-103470864D01*
X119964002Y-103470866D01*
X119744211Y-103529758D01*
X119744202Y-103529761D01*
X119537967Y-103625931D01*
X119537965Y-103625932D01*
X119351558Y-103756454D01*
X119190654Y-103917358D01*
X119060132Y-104103765D01*
X119060131Y-104103767D01*
X118963961Y-104310002D01*
X118963958Y-104310011D01*
X118905066Y-104529802D01*
X118905064Y-104529811D01*
X118905030Y-104530211D01*
X118904965Y-104530376D01*
X118904126Y-104535137D01*
X118903168Y-104534968D01*
X118879575Y-104595279D01*
X118822983Y-104636256D01*
X118781502Y-104643400D01*
X116943092Y-104643400D01*
X116876053Y-104623715D01*
X116830298Y-104570911D01*
X116820354Y-104501753D01*
X116823317Y-104487307D01*
X116844028Y-104410011D01*
X116855635Y-104366692D01*
X116875468Y-104140000D01*
X116855635Y-103913308D01*
X116796739Y-103693504D01*
X116700568Y-103487266D01*
X116570047Y-103300861D01*
X116570045Y-103300858D01*
X116409141Y-103139954D01*
X116222734Y-103009432D01*
X116222732Y-103009431D01*
X116016497Y-102913261D01*
X116016488Y-102913258D01*
X115796697Y-102854366D01*
X115796693Y-102854365D01*
X115796692Y-102854365D01*
X115796691Y-102854364D01*
X115796686Y-102854364D01*
X115570002Y-102834532D01*
X115569998Y-102834532D01*
X115343313Y-102854364D01*
X115343302Y-102854366D01*
X115123511Y-102913258D01*
X115123502Y-102913261D01*
X114917267Y-103009431D01*
X114917265Y-103009432D01*
X114730858Y-103139954D01*
X114569954Y-103300858D01*
X114439432Y-103487265D01*
X114439431Y-103487267D01*
X114343261Y-103693502D01*
X114343258Y-103693511D01*
X114284366Y-103913302D01*
X114284364Y-103913313D01*
X114264532Y-104139998D01*
X114264532Y-104140001D01*
X114284364Y-104366686D01*
X114284366Y-104366697D01*
X114316683Y-104487307D01*
X114315020Y-104557157D01*
X114275857Y-104615019D01*
X114211628Y-104642523D01*
X114196908Y-104643400D01*
X112676298Y-104643400D01*
X112609259Y-104623715D01*
X112588617Y-104607081D01*
X111636390Y-103654855D01*
X111636388Y-103654852D01*
X111517517Y-103535981D01*
X111517512Y-103535977D01*
X111462934Y-103504467D01*
X111414719Y-103453901D01*
X111401495Y-103385294D01*
X111427463Y-103320429D01*
X111484377Y-103279900D01*
X111498582Y-103275912D01*
X111499027Y-103275816D01*
X111749719Y-103182313D01*
X111984552Y-103054084D01*
X112198746Y-102893741D01*
X112387941Y-102704546D01*
X112548284Y-102490352D01*
X112676513Y-102255519D01*
X112770016Y-102004827D01*
X112826890Y-101743380D01*
X112845978Y-101476500D01*
X112826890Y-101209620D01*
X112787055Y-101026499D01*
X112770017Y-100948177D01*
X112761078Y-100924211D01*
X112676513Y-100697481D01*
X112669782Y-100685155D01*
X112548287Y-100462653D01*
X112548282Y-100462645D01*
X112387947Y-100248461D01*
X112387931Y-100248443D01*
X112198756Y-100059268D01*
X112198738Y-100059252D01*
X111984554Y-99898917D01*
X111984546Y-99898912D01*
X111749724Y-99770689D01*
X111749720Y-99770687D01*
X111499022Y-99677182D01*
X111237588Y-99620311D01*
X111237581Y-99620310D01*
X110970701Y-99601222D01*
X110970699Y-99601222D01*
X110703818Y-99620310D01*
X110703811Y-99620311D01*
X110442377Y-99677182D01*
X110191679Y-99770687D01*
X110191675Y-99770689D01*
X109956853Y-99898912D01*
X109956845Y-99898917D01*
X109742661Y-100059252D01*
X109742643Y-100059268D01*
X109553468Y-100248443D01*
X109553452Y-100248461D01*
X109393117Y-100462645D01*
X109393112Y-100462653D01*
X109264889Y-100697475D01*
X109264887Y-100697479D01*
X109171382Y-100948177D01*
X109114511Y-101209611D01*
X109114510Y-101209618D01*
X109095422Y-101476498D01*
X109095422Y-101476501D01*
X109114510Y-101743381D01*
X109114511Y-101743388D01*
X109171382Y-102004822D01*
X109264887Y-102255520D01*
X109264889Y-102255524D01*
X109346994Y-102405888D01*
X109361846Y-102474161D01*
X109337429Y-102539626D01*
X109281495Y-102581497D01*
X109211804Y-102586481D01*
X109173370Y-102571041D01*
X109168663Y-102568156D01*
X108933018Y-102470549D01*
X108933001Y-102470544D01*
X108684989Y-102411002D01*
X108430700Y-102390989D01*
X108176410Y-102411002D01*
X107928398Y-102470544D01*
X107928381Y-102470549D01*
X107692736Y-102568156D01*
X107688023Y-102571045D01*
X107620577Y-102589286D01*
X107553975Y-102568168D01*
X107509364Y-102514395D01*
X107500906Y-102445039D01*
X107514405Y-102405888D01*
X107596513Y-102255519D01*
X107690016Y-102004827D01*
X107746890Y-101743380D01*
X107765978Y-101476500D01*
X107746890Y-101209620D01*
X107707055Y-101026499D01*
X107690017Y-100948177D01*
X107681078Y-100924211D01*
X107596513Y-100697481D01*
X107589782Y-100685155D01*
X107468287Y-100462653D01*
X107468282Y-100462645D01*
X107307947Y-100248461D01*
X107307931Y-100248443D01*
X107118756Y-100059268D01*
X107118738Y-100059252D01*
X106904554Y-99898917D01*
X106904546Y-99898912D01*
X106669724Y-99770689D01*
X106669720Y-99770687D01*
X106419022Y-99677182D01*
X106157588Y-99620311D01*
X106157581Y-99620310D01*
X105890701Y-99601222D01*
X105890699Y-99601222D01*
X105623818Y-99620310D01*
X105623811Y-99620311D01*
X105362377Y-99677182D01*
X105111679Y-99770687D01*
X105111675Y-99770689D01*
X104876853Y-99898912D01*
X104876845Y-99898917D01*
X104662661Y-100059252D01*
X104662643Y-100059268D01*
X104473468Y-100248443D01*
X104473452Y-100248461D01*
X104313117Y-100462645D01*
X104313112Y-100462653D01*
X104184889Y-100697475D01*
X104184887Y-100697479D01*
X104091382Y-100948177D01*
X104034511Y-101209611D01*
X104034510Y-101209618D01*
X104015422Y-101476498D01*
X104015422Y-101476501D01*
X104034510Y-101743381D01*
X104034511Y-101743388D01*
X104091382Y-102004822D01*
X104184887Y-102255520D01*
X104184889Y-102255524D01*
X104313112Y-102490346D01*
X104313117Y-102490354D01*
X104473452Y-102704538D01*
X104473468Y-102704556D01*
X104662643Y-102893731D01*
X104662661Y-102893747D01*
X104876845Y-103054082D01*
X104876853Y-103054087D01*
X105111675Y-103182310D01*
X105111679Y-103182312D01*
X105111681Y-103182313D01*
X105362373Y-103275816D01*
X105362376Y-103275816D01*
X105362377Y-103275817D01*
X105559712Y-103318744D01*
X105623820Y-103332690D01*
X105870140Y-103350307D01*
X105890699Y-103351778D01*
X105890700Y-103351778D01*
X105890701Y-103351778D01*
X105909789Y-103350412D01*
X106157580Y-103332690D01*
X106419027Y-103275816D01*
X106669719Y-103182313D01*
X106820088Y-103100204D01*
X106888361Y-103085353D01*
X106953825Y-103109770D01*
X106995697Y-103165703D01*
X107000681Y-103235395D01*
X106985245Y-103273823D01*
X106982356Y-103278536D01*
X106884749Y-103514181D01*
X106884744Y-103514198D01*
X106825202Y-103762210D01*
X106805189Y-104016500D01*
X106825202Y-104270789D01*
X106884744Y-104518801D01*
X106884749Y-104518818D01*
X106982356Y-104754463D01*
X106985241Y-104759170D01*
X107003487Y-104826616D01*
X106982372Y-104893219D01*
X106928601Y-104937833D01*
X106859245Y-104946294D01*
X106820088Y-104932794D01*
X106669724Y-104850689D01*
X106669720Y-104850687D01*
X106419022Y-104757182D01*
X106157588Y-104700311D01*
X106157581Y-104700310D01*
X105890701Y-104681222D01*
X105890699Y-104681222D01*
X105623818Y-104700310D01*
X105623811Y-104700311D01*
X105362377Y-104757182D01*
X105111679Y-104850687D01*
X105111675Y-104850689D01*
X104876853Y-104978912D01*
X104876845Y-104978917D01*
X104662661Y-105139252D01*
X104662643Y-105139268D01*
X104473468Y-105328443D01*
X104473452Y-105328461D01*
X104313117Y-105542645D01*
X104313112Y-105542653D01*
X104184889Y-105777475D01*
X104184887Y-105777479D01*
X104091382Y-106028177D01*
X104034511Y-106289611D01*
X104034510Y-106289618D01*
X104015422Y-106556498D01*
X104015422Y-106556501D01*
X104034510Y-106823381D01*
X104034511Y-106823388D01*
X104091382Y-107084822D01*
X104184887Y-107335520D01*
X104184889Y-107335524D01*
X104313112Y-107570346D01*
X104313117Y-107570354D01*
X104473452Y-107784538D01*
X104473468Y-107784556D01*
X104662643Y-107973731D01*
X104662661Y-107973747D01*
X104876845Y-108134082D01*
X104876853Y-108134087D01*
X105111675Y-108262310D01*
X105111679Y-108262312D01*
X105111681Y-108262313D01*
X105362373Y-108355816D01*
X105362376Y-108355816D01*
X105362377Y-108355817D01*
X105462104Y-108377511D01*
X105623820Y-108412690D01*
X105870140Y-108430307D01*
X105890699Y-108431778D01*
X105890700Y-108431778D01*
X105890701Y-108431778D01*
X105909789Y-108430412D01*
X106157580Y-108412690D01*
X106419027Y-108355816D01*
X106669719Y-108262313D01*
X106904552Y-108134084D01*
X107118746Y-107973741D01*
X107307941Y-107784546D01*
X107468284Y-107570352D01*
X107596513Y-107335519D01*
X107633010Y-107237665D01*
X107674882Y-107181733D01*
X107740346Y-107157316D01*
X107749192Y-107157000D01*
X109112208Y-107157000D01*
X109179247Y-107176685D01*
X109225002Y-107229489D01*
X109228387Y-107237661D01*
X109237941Y-107263274D01*
X109264889Y-107335524D01*
X109393112Y-107570346D01*
X109393117Y-107570354D01*
X109553452Y-107784538D01*
X109553468Y-107784556D01*
X109742643Y-107973731D01*
X109742661Y-107973747D01*
X109956845Y-108134082D01*
X109956853Y-108134087D01*
X110191675Y-108262310D01*
X110191679Y-108262312D01*
X110191681Y-108262313D01*
X110442373Y-108355816D01*
X110442376Y-108355816D01*
X110442377Y-108355817D01*
X110542104Y-108377511D01*
X110703820Y-108412690D01*
X110950140Y-108430307D01*
X110970699Y-108431778D01*
X110970700Y-108431778D01*
X110970701Y-108431778D01*
X110989789Y-108430412D01*
X111237580Y-108412690D01*
X111499027Y-108355816D01*
X111749719Y-108262313D01*
X111984552Y-108134084D01*
X112198746Y-107973741D01*
X112387941Y-107784546D01*
X112548284Y-107570352D01*
X112676513Y-107335519D01*
X112713010Y-107237665D01*
X112754882Y-107181733D01*
X112820346Y-107157316D01*
X112829192Y-107157000D01*
X123653131Y-107157000D01*
X123653147Y-107157001D01*
X123660743Y-107157001D01*
X123818854Y-107157001D01*
X123818857Y-107157001D01*
X123971585Y-107116077D01*
X124033206Y-107080500D01*
X124108516Y-107037020D01*
X124220320Y-106925216D01*
X124220320Y-106925214D01*
X124230524Y-106915011D01*
X124230528Y-106915006D01*
X125158819Y-105986714D01*
X125220140Y-105953231D01*
X125289832Y-105958215D01*
X125317618Y-105972820D01*
X125337966Y-105987068D01*
X125544204Y-106083239D01*
X125764008Y-106142135D01*
X125925930Y-106156301D01*
X125990698Y-106161968D01*
X125990700Y-106161968D01*
X125990702Y-106161968D01*
X126047373Y-106157009D01*
X126217392Y-106142135D01*
X126437196Y-106083239D01*
X126643434Y-105987068D01*
X126829839Y-105856547D01*
X126990747Y-105695639D01*
X127121268Y-105509234D01*
X127217439Y-105302996D01*
X127276335Y-105083192D01*
X127292407Y-104899492D01*
X127317860Y-104834424D01*
X127374451Y-104793445D01*
X127415935Y-104786300D01*
X140040619Y-104786300D01*
X140107658Y-104805985D01*
X140153413Y-104858789D01*
X140163357Y-104927947D01*
X140159280Y-104946295D01*
X140124675Y-105060369D01*
X140105359Y-105256500D01*
X140124675Y-105452629D01*
X140181888Y-105641233D01*
X140274786Y-105815032D01*
X140274790Y-105815039D01*
X140399816Y-105967383D01*
X140552160Y-106092409D01*
X140552167Y-106092413D01*
X140725966Y-106185311D01*
X140725969Y-106185311D01*
X140725973Y-106185314D01*
X140914568Y-106242524D01*
X141110700Y-106261841D01*
X141306832Y-106242524D01*
X141495427Y-106185314D01*
X141669238Y-106092410D01*
X141821583Y-105967383D01*
X141946610Y-105815038D01*
X141984410Y-105744319D01*
X142014756Y-105687547D01*
X142063718Y-105637703D01*
X142124114Y-105622000D01*
X144856932Y-105622000D01*
X144923971Y-105641685D01*
X144962469Y-105680901D01*
X145052988Y-105827656D01*
X145177044Y-105951712D01*
X145326366Y-106043814D01*
X145492903Y-106098999D01*
X145595691Y-106109500D01*
X146645708Y-106109499D01*
X146645716Y-106109498D01*
X146645719Y-106109498D01*
X146702002Y-106103748D01*
X146748497Y-106098999D01*
X146915034Y-106043814D01*
X147064356Y-105951712D01*
X147188412Y-105827656D01*
X147280514Y-105678334D01*
X147335699Y-105511797D01*
X147346200Y-105409009D01*
X147346199Y-104633992D01*
X147342244Y-104595279D01*
X147335699Y-104531203D01*
X147335698Y-104531200D01*
X147321153Y-104487307D01*
X147280514Y-104364666D01*
X147280510Y-104364659D01*
X147277460Y-104358118D01*
X147279514Y-104357160D01*
X147263971Y-104300343D01*
X147284897Y-104233681D01*
X147300264Y-104214969D01*
X149362422Y-102152812D01*
X149423741Y-102119330D01*
X149493433Y-102124314D01*
X149537779Y-102152814D01*
X152251984Y-104867020D01*
X152251986Y-104867021D01*
X152251990Y-104867024D01*
X152365909Y-104932794D01*
X152388916Y-104946077D01*
X152541643Y-104987001D01*
X152541645Y-104987001D01*
X152707354Y-104987001D01*
X152707370Y-104987000D01*
X154426201Y-104987000D01*
X154493240Y-105006685D01*
X154538995Y-105059489D01*
X154550201Y-105111000D01*
X154550201Y-105936518D01*
X154560700Y-106039296D01*
X154560701Y-106039299D01*
X154594778Y-106142135D01*
X154615886Y-106205834D01*
X154707988Y-106355156D01*
X154832044Y-106479212D01*
X154981366Y-106571314D01*
X155147903Y-106626499D01*
X155250691Y-106637000D01*
X156450708Y-106636999D01*
X156553497Y-106626499D01*
X156720034Y-106571314D01*
X156869356Y-106479212D01*
X156993412Y-106355156D01*
X157085514Y-106205834D01*
X157140699Y-106039297D01*
X157151200Y-105936509D01*
X157151199Y-102836492D01*
X157140699Y-102733703D01*
X157085514Y-102567166D01*
X156993412Y-102417844D01*
X156869356Y-102293788D01*
X156720034Y-102201686D01*
X156553497Y-102146501D01*
X156553495Y-102146500D01*
X156450710Y-102136000D01*
X155250698Y-102136000D01*
X155250681Y-102136001D01*
X155147903Y-102146500D01*
X155147900Y-102146501D01*
X154981368Y-102201685D01*
X154981363Y-102201687D01*
X154832042Y-102293789D01*
X154707989Y-102417842D01*
X154615887Y-102567163D01*
X154615885Y-102567168D01*
X154608556Y-102589286D01*
X154560701Y-102733703D01*
X154560701Y-102733704D01*
X154560700Y-102733704D01*
X154550200Y-102836483D01*
X154550200Y-103662000D01*
X154530515Y-103729039D01*
X154477711Y-103774794D01*
X154426200Y-103786000D01*
X152920798Y-103786000D01*
X152853759Y-103766315D01*
X152833117Y-103749681D01*
X151664933Y-102581497D01*
X150477114Y-101393679D01*
X150443630Y-101332357D01*
X150448614Y-101262665D01*
X150490486Y-101206732D01*
X150555950Y-101182315D01*
X150564796Y-101181999D01*
X150653202Y-101181999D01*
X150653208Y-101181999D01*
X150755997Y-101171499D01*
X150922534Y-101116314D01*
X151071856Y-101024212D01*
X151195912Y-100900156D01*
X151288014Y-100750834D01*
X151343199Y-100584297D01*
X151353700Y-100481509D01*
X151353699Y-99431492D01*
X151343199Y-99328703D01*
X151288014Y-99162166D01*
X151195912Y-99012844D01*
X151071856Y-98888788D01*
X150922534Y-98796686D01*
X150755997Y-98741501D01*
X150755995Y-98741500D01*
X150653216Y-98731000D01*
X150653209Y-98731000D01*
X149940798Y-98731000D01*
X149873759Y-98711315D01*
X149853117Y-98694681D01*
X149573838Y-98415402D01*
X149264415Y-98105980D01*
X149230931Y-98044658D01*
X149235915Y-97974967D01*
X149277786Y-97919033D01*
X149343251Y-97894616D01*
X149352097Y-97894300D01*
X152621643Y-97894300D01*
X153501188Y-97894300D01*
X153568227Y-97913985D01*
X153578503Y-97921355D01*
X153581336Y-97923614D01*
X153581338Y-97923616D01*
X153663063Y-97974967D01*
X153723088Y-98012684D01*
X153734078Y-98019589D01*
X153847434Y-98059254D01*
X153904345Y-98079168D01*
X153904350Y-98079169D01*
X154083596Y-98099365D01*
X154083600Y-98099365D01*
X154083604Y-98099365D01*
X154231627Y-98082687D01*
X154300448Y-98094742D01*
X154333191Y-98118226D01*
X154513881Y-98298916D01*
X154547366Y-98360239D01*
X154550200Y-98386597D01*
X154550200Y-100336501D01*
X154550201Y-100336518D01*
X154560700Y-100439296D01*
X154560701Y-100439299D01*
X154614229Y-100600834D01*
X154615886Y-100605834D01*
X154707988Y-100755156D01*
X154832044Y-100879212D01*
X154981366Y-100971314D01*
X155147903Y-101026499D01*
X155250691Y-101037000D01*
X156450708Y-101036999D01*
X156553497Y-101026499D01*
X156720034Y-100971314D01*
X156869356Y-100879212D01*
X156993412Y-100755156D01*
X157085514Y-100605834D01*
X157140699Y-100439297D01*
X157151200Y-100336509D01*
X157151199Y-97236492D01*
X157140699Y-97133703D01*
X157137319Y-97123502D01*
X157134919Y-97053673D01*
X157170652Y-96993632D01*
X157233172Y-96962441D01*
X157255026Y-96960500D01*
X159048831Y-96960500D01*
X159048847Y-96960501D01*
X159187442Y-96960501D01*
X159254481Y-96980186D01*
X159289017Y-97013378D01*
X159362205Y-97117902D01*
X159480785Y-97236481D01*
X159529299Y-97284995D01*
X159626084Y-97352765D01*
X159722865Y-97420532D01*
X159722867Y-97420533D01*
X159722870Y-97420535D01*
X159937037Y-97520403D01*
X160165292Y-97581563D01*
X160353618Y-97598039D01*
X160400699Y-97602159D01*
X160400700Y-97602159D01*
X160400701Y-97602159D01*
X160439934Y-97598726D01*
X160636108Y-97581563D01*
X160864363Y-97520403D01*
X161078530Y-97420535D01*
X161272101Y-97284995D01*
X161439195Y-97117901D01*
X161574735Y-96924330D01*
X161674603Y-96710163D01*
X161735763Y-96481908D01*
X161756359Y-96246500D01*
X161735763Y-96011092D01*
X161674603Y-95782837D01*
X161574735Y-95568671D01*
X161574734Y-95568669D01*
X161439194Y-95375097D01*
X161272102Y-95208006D01*
X161272096Y-95208001D01*
X161086542Y-95078075D01*
X161042917Y-95023498D01*
X161035723Y-94954000D01*
X161067246Y-94891645D01*
X161086542Y-94874925D01*
X161160433Y-94823186D01*
X161272101Y-94744995D01*
X161439195Y-94577901D01*
X161574735Y-94384330D01*
X161674603Y-94170163D01*
X161735763Y-93941908D01*
X161756359Y-93706500D01*
X161735763Y-93471092D01*
X161674603Y-93242837D01*
X161574735Y-93028671D01*
X161564953Y-93014700D01*
X161439194Y-92835097D01*
X161272102Y-92668006D01*
X161272096Y-92668001D01*
X161086542Y-92538075D01*
X161042917Y-92483498D01*
X161035723Y-92414000D01*
X161067246Y-92351645D01*
X161086542Y-92334925D01*
X161115479Y-92314663D01*
X161272101Y-92204995D01*
X161439195Y-92037901D01*
X161574735Y-91844330D01*
X161674603Y-91630163D01*
X161735763Y-91401908D01*
X161756359Y-91166500D01*
X161735763Y-90931092D01*
X161687580Y-90751267D01*
X161674605Y-90702844D01*
X161674604Y-90702843D01*
X161674603Y-90702837D01*
X161574735Y-90488671D01*
X161574734Y-90488669D01*
X161439194Y-90295097D01*
X161272102Y-90128006D01*
X161272096Y-90128001D01*
X161086542Y-89998075D01*
X161042917Y-89943498D01*
X161035723Y-89874000D01*
X161067246Y-89811645D01*
X161086542Y-89794925D01*
X161123537Y-89769021D01*
X161272101Y-89664995D01*
X161439195Y-89497901D01*
X161574735Y-89304330D01*
X161674603Y-89090163D01*
X161735763Y-88861908D01*
X161756359Y-88626500D01*
X161735763Y-88391092D01*
X161674603Y-88162837D01*
X161574735Y-87948671D01*
X161565567Y-87935578D01*
X161439196Y-87755100D01*
X161393177Y-87709081D01*
X161317267Y-87633171D01*
X161283784Y-87571851D01*
X161288768Y-87502159D01*
X161330639Y-87446225D01*
X161361615Y-87429310D01*
X161493031Y-87380296D01*
X161608246Y-87294046D01*
X161694496Y-87178831D01*
X161744791Y-87043983D01*
X161751200Y-86984373D01*
X161751199Y-85188628D01*
X161744791Y-85129017D01*
X161735783Y-85104866D01*
X161694497Y-84994171D01*
X161694493Y-84994164D01*
X161608247Y-84878955D01*
X161608244Y-84878952D01*
X161493035Y-84792706D01*
X161493028Y-84792702D01*
X161358182Y-84742408D01*
X161358183Y-84742408D01*
X161298583Y-84736001D01*
X161298581Y-84736000D01*
X161298573Y-84736000D01*
X161298564Y-84736000D01*
X159502829Y-84736000D01*
X159502823Y-84736001D01*
X159443216Y-84742408D01*
X159308371Y-84792702D01*
X159308364Y-84792706D01*
X159193155Y-84878952D01*
X159193152Y-84878955D01*
X159149423Y-84937370D01*
X159093489Y-84979241D01*
X159023798Y-84984225D01*
X158962476Y-84950740D01*
X155803890Y-81792155D01*
X155803888Y-81792152D01*
X155685017Y-81673281D01*
X155685016Y-81673280D01*
X155576277Y-81610500D01*
X155576276Y-81610499D01*
X155548083Y-81594222D01*
X155492181Y-81579243D01*
X155395357Y-81553299D01*
X155237243Y-81553299D01*
X155229647Y-81553299D01*
X155229631Y-81553300D01*
X154315621Y-81553300D01*
X154248582Y-81533615D01*
X154202827Y-81480811D01*
X154192883Y-81411653D01*
X154221908Y-81348097D01*
X154263215Y-81316918D01*
X154384130Y-81260535D01*
X154577701Y-81124995D01*
X154744795Y-80957901D01*
X154874725Y-80772342D01*
X154929302Y-80728717D01*
X154998800Y-80721523D01*
X155061155Y-80753046D01*
X155077875Y-80772342D01*
X155207800Y-80957895D01*
X155207805Y-80957901D01*
X155374899Y-81124995D01*
X155465119Y-81188168D01*
X155568465Y-81260532D01*
X155568467Y-81260533D01*
X155568470Y-81260535D01*
X155782637Y-81360403D01*
X155782643Y-81360404D01*
X155782644Y-81360405D01*
X155792665Y-81363090D01*
X156010892Y-81421563D01*
X156187334Y-81437000D01*
X156246299Y-81442159D01*
X156246300Y-81442159D01*
X156246301Y-81442159D01*
X156305266Y-81437000D01*
X156481708Y-81421563D01*
X156709963Y-81360403D01*
X156924130Y-81260535D01*
X157117701Y-81124995D01*
X157284795Y-80957901D01*
X157414725Y-80772342D01*
X157469302Y-80728717D01*
X157538800Y-80721523D01*
X157601155Y-80753046D01*
X157617875Y-80772342D01*
X157747800Y-80957895D01*
X157747805Y-80957901D01*
X157914899Y-81124995D01*
X158005119Y-81188168D01*
X158108465Y-81260532D01*
X158108467Y-81260533D01*
X158108470Y-81260535D01*
X158322637Y-81360403D01*
X158322643Y-81360404D01*
X158322644Y-81360405D01*
X158332665Y-81363090D01*
X158550892Y-81421563D01*
X158727334Y-81437000D01*
X158786299Y-81442159D01*
X158786300Y-81442159D01*
X158786301Y-81442159D01*
X158845266Y-81437000D01*
X159021708Y-81421563D01*
X159249963Y-81360403D01*
X159464130Y-81260535D01*
X159657701Y-81124995D01*
X159824795Y-80957901D01*
X159960335Y-80764330D01*
X160060203Y-80550163D01*
X160121363Y-80321908D01*
X160141959Y-80086500D01*
X160121363Y-79851092D01*
X160060203Y-79622837D01*
X159960335Y-79408671D01*
X159954725Y-79400658D01*
X159824794Y-79215097D01*
X159657702Y-79048006D01*
X159657695Y-79048001D01*
X159464134Y-78912467D01*
X159464130Y-78912465D01*
X159464128Y-78912464D01*
X159249963Y-78812597D01*
X159249959Y-78812596D01*
X159249955Y-78812594D01*
X159021713Y-78751438D01*
X159021703Y-78751436D01*
X158786301Y-78730841D01*
X158786299Y-78730841D01*
X158550896Y-78751436D01*
X158550886Y-78751438D01*
X158322644Y-78812594D01*
X158322635Y-78812598D01*
X158108471Y-78912464D01*
X158108469Y-78912465D01*
X157914897Y-79048005D01*
X157747805Y-79215097D01*
X157617875Y-79400658D01*
X157563298Y-79444283D01*
X157493800Y-79451477D01*
X157431445Y-79419954D01*
X157414725Y-79400658D01*
X157284794Y-79215097D01*
X157117702Y-79048006D01*
X157117695Y-79048001D01*
X156924134Y-78912467D01*
X156924130Y-78912465D01*
X156924128Y-78912464D01*
X156709963Y-78812597D01*
X156709959Y-78812596D01*
X156709955Y-78812594D01*
X156481713Y-78751438D01*
X156481703Y-78751436D01*
X156246301Y-78730841D01*
X156246299Y-78730841D01*
X156010896Y-78751436D01*
X156010886Y-78751438D01*
X155782644Y-78812594D01*
X155782635Y-78812598D01*
X155568471Y-78912464D01*
X155568469Y-78912465D01*
X155374897Y-79048005D01*
X155207805Y-79215097D01*
X155077875Y-79400658D01*
X155023298Y-79444283D01*
X154953800Y-79451477D01*
X154891445Y-79419954D01*
X154874725Y-79400658D01*
X154744794Y-79215097D01*
X154577702Y-79048006D01*
X154577695Y-79048001D01*
X154384134Y-78912467D01*
X154384130Y-78912465D01*
X154384128Y-78912464D01*
X154169963Y-78812597D01*
X154169959Y-78812596D01*
X154169955Y-78812594D01*
X153941713Y-78751438D01*
X153941703Y-78751436D01*
X153706301Y-78730841D01*
X153706299Y-78730841D01*
X153470896Y-78751436D01*
X153470886Y-78751438D01*
X153242644Y-78812594D01*
X153242635Y-78812598D01*
X153028471Y-78912464D01*
X153028469Y-78912465D01*
X152834897Y-79048005D01*
X152667805Y-79215097D01*
X152537875Y-79400658D01*
X152483298Y-79444283D01*
X152413800Y-79451477D01*
X152351445Y-79419954D01*
X152334725Y-79400658D01*
X152204794Y-79215097D01*
X152037702Y-79048006D01*
X152037695Y-79048001D01*
X151844134Y-78912467D01*
X151844130Y-78912465D01*
X151844128Y-78912464D01*
X151629963Y-78812597D01*
X151629959Y-78812596D01*
X151629955Y-78812594D01*
X151401713Y-78751438D01*
X151401703Y-78751436D01*
X151166301Y-78730841D01*
X151166299Y-78730841D01*
X150930896Y-78751436D01*
X150930886Y-78751438D01*
X150702644Y-78812594D01*
X150702635Y-78812598D01*
X150488471Y-78912464D01*
X150488469Y-78912465D01*
X150294897Y-79048005D01*
X150127808Y-79215094D01*
X149997874Y-79400660D01*
X149943297Y-79444284D01*
X149873798Y-79451477D01*
X149811444Y-79419955D01*
X149794729Y-79400664D01*
X149664795Y-79215099D01*
X149664793Y-79215096D01*
X149497702Y-79048006D01*
X149497695Y-79048001D01*
X149304134Y-78912467D01*
X149304130Y-78912465D01*
X149304128Y-78912464D01*
X149089963Y-78812597D01*
X149089959Y-78812596D01*
X149089955Y-78812594D01*
X148861713Y-78751438D01*
X148861703Y-78751436D01*
X148626301Y-78730841D01*
X148626299Y-78730841D01*
X148390896Y-78751436D01*
X148390883Y-78751439D01*
X148262541Y-78785827D01*
X148192692Y-78784164D01*
X148142768Y-78753733D01*
X147891390Y-78502355D01*
X147891388Y-78502352D01*
X147772517Y-78383481D01*
X147772516Y-78383480D01*
X147678607Y-78329262D01*
X147678606Y-78329261D01*
X147635590Y-78304425D01*
X147635589Y-78304424D01*
X147608569Y-78297184D01*
X147482857Y-78263499D01*
X147324743Y-78263499D01*
X147317147Y-78263499D01*
X147317131Y-78263500D01*
X139847357Y-78263500D01*
X139689243Y-78263500D01*
X139536515Y-78304423D01*
X139536514Y-78304423D01*
X139536512Y-78304424D01*
X139536509Y-78304425D01*
X139493494Y-78329261D01*
X139493493Y-78329262D01*
X139462557Y-78347123D01*
X139399585Y-78383479D01*
X139399582Y-78383481D01*
X139287778Y-78495286D01*
X138587961Y-79195102D01*
X138526638Y-79228587D01*
X138456946Y-79223603D01*
X138412599Y-79195103D01*
X138342059Y-79124563D01*
X138265501Y-79048005D01*
X138265497Y-79048002D01*
X138265496Y-79048001D01*
X138071934Y-78912467D01*
X138071930Y-78912465D01*
X138071928Y-78912464D01*
X137857763Y-78812597D01*
X137857759Y-78812596D01*
X137857755Y-78812594D01*
X137629513Y-78751438D01*
X137629503Y-78751436D01*
X137394101Y-78730841D01*
X137394099Y-78730841D01*
X137158696Y-78751436D01*
X137158686Y-78751438D01*
X136930444Y-78812594D01*
X136930435Y-78812598D01*
X136716271Y-78912464D01*
X136716269Y-78912465D01*
X136530198Y-79042753D01*
X136463992Y-79065080D01*
X136396224Y-79048070D01*
X136371394Y-79028859D01*
X135887590Y-78545055D01*
X135887588Y-78545052D01*
X135768717Y-78426181D01*
X135768716Y-78426180D01*
X135681904Y-78376060D01*
X135681904Y-78376059D01*
X135681900Y-78376058D01*
X135631785Y-78347123D01*
X135479057Y-78306199D01*
X135320943Y-78306199D01*
X135313347Y-78306199D01*
X135313331Y-78306200D01*
X125952957Y-78306200D01*
X125794843Y-78306200D01*
X125642115Y-78347123D01*
X125642114Y-78347123D01*
X125642112Y-78347124D01*
X125642109Y-78347125D01*
X125591996Y-78376059D01*
X125591995Y-78376060D01*
X125566660Y-78390687D01*
X125505185Y-78426179D01*
X125505182Y-78426181D01*
X125393378Y-78537986D01*
X125177630Y-78753733D01*
X125116307Y-78787218D01*
X125057856Y-78785827D01*
X124929513Y-78751438D01*
X124929503Y-78751436D01*
X124694101Y-78730841D01*
X124694099Y-78730841D01*
X124458696Y-78751436D01*
X124458686Y-78751438D01*
X124230444Y-78812594D01*
X124230435Y-78812598D01*
X124016271Y-78912464D01*
X124016269Y-78912465D01*
X123822700Y-79048003D01*
X123700773Y-79169930D01*
X123639450Y-79203414D01*
X123569758Y-79198430D01*
X123513825Y-79156558D01*
X123496910Y-79125581D01*
X123447897Y-78994171D01*
X123447893Y-78994164D01*
X123361647Y-78878955D01*
X123361644Y-78878952D01*
X123246435Y-78792706D01*
X123246428Y-78792702D01*
X123111582Y-78742408D01*
X123111583Y-78742408D01*
X123051983Y-78736001D01*
X123051981Y-78736000D01*
X123051973Y-78736000D01*
X123051964Y-78736000D01*
X121256229Y-78736000D01*
X121256223Y-78736001D01*
X121196616Y-78742408D01*
X121061771Y-78792702D01*
X121061764Y-78792706D01*
X120946555Y-78878952D01*
X120946552Y-78878955D01*
X120860306Y-78994164D01*
X120860302Y-78994171D01*
X120810008Y-79129017D01*
X120803601Y-79188616D01*
X120803600Y-79188635D01*
X120803600Y-80984370D01*
X120803601Y-80984376D01*
X120810008Y-81043983D01*
X120860302Y-81178828D01*
X120860306Y-81178835D01*
X120946552Y-81294044D01*
X120946555Y-81294047D01*
X121061764Y-81380293D01*
X121061771Y-81380297D01*
X121071362Y-81383874D01*
X121196617Y-81430591D01*
X121256227Y-81437000D01*
X121503887Y-81436999D01*
X121570926Y-81456683D01*
X121611274Y-81498999D01*
X121673577Y-81606912D01*
X121673579Y-81606915D01*
X121673580Y-81606916D01*
X121785384Y-81718720D01*
X121785386Y-81718721D01*
X121785390Y-81718724D01*
X121900331Y-81785084D01*
X121922316Y-81797777D01*
X122075043Y-81838700D01*
X122702303Y-81838700D01*
X122769342Y-81858385D01*
X122789984Y-81875019D01*
X123893881Y-82978916D01*
X123927366Y-83040239D01*
X123930200Y-83066597D01*
X123930200Y-83766501D01*
X123930201Y-83766519D01*
X123940700Y-83869296D01*
X123940701Y-83869299D01*
X123995885Y-84035831D01*
X123995887Y-84035836D01*
X124013081Y-84063712D01*
X124087987Y-84185155D01*
X124087989Y-84185157D01*
X124181651Y-84278819D01*
X124215136Y-84340142D01*
X124210152Y-84409834D01*
X124181651Y-84454181D01*
X124087989Y-84547842D01*
X123995887Y-84697163D01*
X123995885Y-84697168D01*
X123983017Y-84736001D01*
X123940701Y-84863703D01*
X123940701Y-84863704D01*
X123940700Y-84863704D01*
X123930200Y-84966483D01*
X123930200Y-85666402D01*
X123910515Y-85733441D01*
X123893881Y-85754083D01*
X123368284Y-86279681D01*
X123306961Y-86313166D01*
X123280603Y-86316000D01*
X123262863Y-86316000D01*
X123195824Y-86296315D01*
X123150069Y-86243511D01*
X123141611Y-86217959D01*
X123140700Y-86213707D01*
X123131239Y-86185155D01*
X123085514Y-86047166D01*
X122993412Y-85897844D01*
X122869356Y-85773788D01*
X122720034Y-85681686D01*
X122553497Y-85626501D01*
X122553495Y-85626500D01*
X122450710Y-85616000D01*
X119350698Y-85616000D01*
X119350681Y-85616001D01*
X119247903Y-85626500D01*
X119247900Y-85626501D01*
X119081368Y-85681685D01*
X119081363Y-85681687D01*
X118932042Y-85773789D01*
X118807989Y-85897842D01*
X118715887Y-86047163D01*
X118715886Y-86047166D01*
X118660701Y-86213703D01*
X118660701Y-86213704D01*
X118660700Y-86213704D01*
X118650200Y-86316483D01*
X118650200Y-87516501D01*
X118650201Y-87516518D01*
X118660700Y-87619296D01*
X118660701Y-87619299D01*
X118695964Y-87725715D01*
X118715886Y-87785834D01*
X118807988Y-87935156D01*
X118932044Y-88059212D01*
X119081366Y-88151314D01*
X119247903Y-88206499D01*
X119350691Y-88217000D01*
X122450708Y-88216999D01*
X122553497Y-88206499D01*
X122720034Y-88151314D01*
X122869356Y-88059212D01*
X122993412Y-87935156D01*
X123085514Y-87785834D01*
X123140699Y-87619297D01*
X123140700Y-87619292D01*
X123141612Y-87615033D01*
X123174899Y-87553602D01*
X123236114Y-87519919D01*
X123262863Y-87517000D01*
X123494031Y-87517000D01*
X123494047Y-87517001D01*
X123501643Y-87517001D01*
X123659754Y-87517001D01*
X123659757Y-87517001D01*
X123812485Y-87476077D01*
X123880168Y-87437000D01*
X123949416Y-87397020D01*
X124061220Y-87285216D01*
X124061220Y-87285214D01*
X124071424Y-87275011D01*
X124071428Y-87275006D01*
X124843116Y-86503318D01*
X124904439Y-86469833D01*
X124930797Y-86466999D01*
X125630702Y-86466999D01*
X125630708Y-86466999D01*
X125733497Y-86456499D01*
X125900034Y-86401314D01*
X126049356Y-86309212D01*
X126173412Y-86185156D01*
X126261329Y-86042618D01*
X126313277Y-85995894D01*
X126382239Y-85984671D01*
X126446322Y-86012515D01*
X126472407Y-86042619D01*
X126544904Y-86160157D01*
X126547988Y-86165156D01*
X126672044Y-86289212D01*
X126821366Y-86381314D01*
X126987903Y-86436499D01*
X127090691Y-86447000D01*
X128090708Y-86446999D01*
X128090716Y-86446998D01*
X128090719Y-86446998D01*
X128147002Y-86441248D01*
X128193497Y-86436499D01*
X128360034Y-86381314D01*
X128509356Y-86289212D01*
X128509357Y-86289210D01*
X128515503Y-86285420D01*
X128516762Y-86287461D01*
X128570936Y-86265585D01*
X128639582Y-86278603D01*
X128670772Y-86301307D01*
X129903184Y-87533719D01*
X129936669Y-87595042D01*
X129931685Y-87664734D01*
X129889813Y-87720667D01*
X129824349Y-87745084D01*
X129815503Y-87745400D01*
X126198097Y-87745400D01*
X126131058Y-87725715D01*
X126110416Y-87709081D01*
X126035000Y-87633665D01*
X126001515Y-87572342D01*
X125999463Y-87559886D01*
X125989668Y-87472945D01*
X125930089Y-87302678D01*
X125834116Y-87149938D01*
X125706562Y-87022384D01*
X125646068Y-86984373D01*
X125553823Y-86926411D01*
X125383554Y-86866831D01*
X125383549Y-86866830D01*
X125204304Y-86846635D01*
X125204296Y-86846635D01*
X125025050Y-86866830D01*
X125025045Y-86866831D01*
X124854776Y-86926411D01*
X124702037Y-87022384D01*
X124574484Y-87149937D01*
X124478511Y-87302676D01*
X124418931Y-87472945D01*
X124418930Y-87472950D01*
X124398735Y-87652196D01*
X124398735Y-87652203D01*
X124418930Y-87831449D01*
X124418931Y-87831454D01*
X124478511Y-88001723D01*
X124543936Y-88105845D01*
X124574484Y-88154462D01*
X124702038Y-88282016D01*
X124854778Y-88377989D01*
X125025045Y-88437568D01*
X125111969Y-88447361D01*
X125176380Y-88474426D01*
X125185765Y-88482900D01*
X125413139Y-88710274D01*
X125413149Y-88710285D01*
X125417479Y-88714615D01*
X125417480Y-88714616D01*
X125529284Y-88826420D01*
X125590752Y-88861908D01*
X125666215Y-88905477D01*
X125818943Y-88946401D01*
X125818946Y-88946401D01*
X125984653Y-88946401D01*
X125984669Y-88946400D01*
X128101200Y-88946400D01*
X128168239Y-88966085D01*
X128213994Y-89018889D01*
X128225200Y-89070400D01*
X128225201Y-89589500D01*
X128205517Y-89656539D01*
X128152713Y-89702294D01*
X128101201Y-89713500D01*
X118998298Y-89713500D01*
X118931259Y-89693815D01*
X118910617Y-89677181D01*
X118148351Y-88914915D01*
X117368681Y-88135246D01*
X117335197Y-88073924D01*
X117340181Y-88004232D01*
X117368683Y-87959884D01*
X117393412Y-87935156D01*
X117485514Y-87785834D01*
X117540699Y-87619297D01*
X117551200Y-87516509D01*
X117551199Y-86316492D01*
X117548233Y-86287461D01*
X117540699Y-86213703D01*
X117540698Y-86213700D01*
X117524612Y-86165155D01*
X117485514Y-86047166D01*
X117393412Y-85897844D01*
X117269356Y-85773788D01*
X117120034Y-85681686D01*
X116953497Y-85626501D01*
X116953495Y-85626500D01*
X116850710Y-85616000D01*
X113750698Y-85616000D01*
X113750681Y-85616001D01*
X113647903Y-85626500D01*
X113647900Y-85626501D01*
X113481368Y-85681685D01*
X113481363Y-85681687D01*
X113332042Y-85773789D01*
X113207989Y-85897842D01*
X113115887Y-86047163D01*
X113115886Y-86047166D01*
X113078445Y-86160157D01*
X113065804Y-86198304D01*
X113026031Y-86255749D01*
X112961515Y-86282572D01*
X112892740Y-86270257D01*
X112860417Y-86246981D01*
X112681793Y-86068357D01*
X112648308Y-86007034D01*
X112653292Y-85937343D01*
X112740016Y-85704827D01*
X112796890Y-85443380D01*
X112815978Y-85176500D01*
X112796890Y-84909620D01*
X112775712Y-84812266D01*
X112740017Y-84648177D01*
X112705754Y-84556315D01*
X112646513Y-84397481D01*
X112642337Y-84389834D01*
X112518287Y-84162653D01*
X112518282Y-84162645D01*
X112357947Y-83948461D01*
X112357931Y-83948443D01*
X112168756Y-83759268D01*
X112168738Y-83759252D01*
X111954554Y-83598917D01*
X111954546Y-83598912D01*
X111719724Y-83470689D01*
X111719720Y-83470687D01*
X111469022Y-83377182D01*
X111207588Y-83320311D01*
X111207581Y-83320310D01*
X110940701Y-83301222D01*
X110940699Y-83301222D01*
X110673818Y-83320310D01*
X110673811Y-83320311D01*
X110412377Y-83377182D01*
X110161679Y-83470687D01*
X110161668Y-83470692D01*
X110011310Y-83552794D01*
X109943038Y-83567646D01*
X109877573Y-83543229D01*
X109835702Y-83487295D01*
X109830718Y-83417603D01*
X109846161Y-83379166D01*
X109849041Y-83374467D01*
X109946653Y-83138811D01*
X110006198Y-82890786D01*
X110026211Y-82636500D01*
X110006198Y-82382214D01*
X109946653Y-82134189D01*
X109930965Y-82096315D01*
X109849043Y-81898536D01*
X109846160Y-81893832D01*
X109827912Y-81826387D01*
X109849025Y-81759784D01*
X109902795Y-81715168D01*
X109972150Y-81706704D01*
X110011311Y-81720205D01*
X110161675Y-81802310D01*
X110161679Y-81802312D01*
X110161681Y-81802313D01*
X110412373Y-81895816D01*
X110412376Y-81895816D01*
X110412377Y-81895817D01*
X110609712Y-81938744D01*
X110673820Y-81952690D01*
X110920140Y-81970307D01*
X110940699Y-81971778D01*
X110940700Y-81971778D01*
X110940701Y-81971778D01*
X110959789Y-81970412D01*
X111207580Y-81952690D01*
X111469027Y-81895816D01*
X111719719Y-81802313D01*
X111954552Y-81674084D01*
X112168746Y-81513741D01*
X112357941Y-81324546D01*
X112518284Y-81110352D01*
X112646513Y-80875519D01*
X112740016Y-80624827D01*
X112796890Y-80363380D01*
X112815978Y-80096500D01*
X112796890Y-79829620D01*
X112740016Y-79568173D01*
X112646513Y-79317481D01*
X112590606Y-79215096D01*
X112518287Y-79082653D01*
X112518282Y-79082645D01*
X112357947Y-78868461D01*
X112357931Y-78868443D01*
X112168756Y-78679268D01*
X112168738Y-78679252D01*
X111954554Y-78518917D01*
X111954546Y-78518912D01*
X111719724Y-78390689D01*
X111719720Y-78390687D01*
X111469022Y-78297182D01*
X111207588Y-78240311D01*
X111207581Y-78240310D01*
X110940701Y-78221222D01*
X110940699Y-78221222D01*
X110673818Y-78240310D01*
X110673811Y-78240311D01*
X110412377Y-78297182D01*
X110161679Y-78390687D01*
X110161675Y-78390689D01*
X109926853Y-78518912D01*
X109926845Y-78518917D01*
X109712661Y-78679252D01*
X109712643Y-78679268D01*
X109523468Y-78868443D01*
X109523452Y-78868461D01*
X109363117Y-79082645D01*
X109363112Y-79082653D01*
X109234889Y-79317475D01*
X109234887Y-79317479D01*
X109141382Y-79568177D01*
X109084511Y-79829611D01*
X109084510Y-79829618D01*
X109065422Y-80096498D01*
X109065422Y-80096501D01*
X109084510Y-80363381D01*
X109084511Y-80363388D01*
X109141382Y-80624822D01*
X109234887Y-80875520D01*
X109234889Y-80875524D01*
X109316994Y-81025888D01*
X109331846Y-81094161D01*
X109307429Y-81159626D01*
X109251495Y-81201497D01*
X109181804Y-81206481D01*
X109143370Y-81191041D01*
X109138663Y-81188156D01*
X108903018Y-81090549D01*
X108903001Y-81090544D01*
X108654989Y-81031002D01*
X108400700Y-81010989D01*
X108146410Y-81031002D01*
X107898398Y-81090544D01*
X107898381Y-81090549D01*
X107662736Y-81188156D01*
X107658023Y-81191045D01*
X107590577Y-81209286D01*
X107523975Y-81188168D01*
X107479364Y-81134395D01*
X107470906Y-81065039D01*
X107484405Y-81025888D01*
X107485182Y-81024465D01*
X107566513Y-80875519D01*
X107660016Y-80624827D01*
X107716890Y-80363380D01*
X107735978Y-80096500D01*
X107716890Y-79829620D01*
X107660016Y-79568173D01*
X107566513Y-79317481D01*
X107510606Y-79215096D01*
X107438287Y-79082653D01*
X107438282Y-79082645D01*
X107277947Y-78868461D01*
X107277931Y-78868443D01*
X107088756Y-78679268D01*
X107088738Y-78679252D01*
X106874554Y-78518917D01*
X106874546Y-78518912D01*
X106639724Y-78390689D01*
X106639720Y-78390687D01*
X106389022Y-78297182D01*
X106127588Y-78240311D01*
X106127581Y-78240310D01*
X105860701Y-78221222D01*
X105860699Y-78221222D01*
X105593818Y-78240310D01*
X105593811Y-78240311D01*
X105332377Y-78297182D01*
X105081679Y-78390687D01*
X105081675Y-78390689D01*
X104846853Y-78518912D01*
X104846845Y-78518917D01*
X104632661Y-78679252D01*
X104632643Y-78679268D01*
X104443468Y-78868443D01*
X104443452Y-78868461D01*
X104283117Y-79082645D01*
X104283112Y-79082653D01*
X104154889Y-79317475D01*
X104154887Y-79317479D01*
X104061382Y-79568177D01*
X104004511Y-79829611D01*
X104004510Y-79829618D01*
X103985422Y-80096498D01*
X103370500Y-80096498D01*
X103370500Y-78746092D01*
X103371097Y-78733938D01*
X103371402Y-78730841D01*
X103384089Y-78602024D01*
X103388828Y-78578200D01*
X103425532Y-78457202D01*
X103434830Y-78434757D01*
X103494427Y-78323259D01*
X103507930Y-78303050D01*
X103512746Y-78297182D01*
X103588137Y-78205316D01*
X103605316Y-78188137D01*
X103703052Y-78107928D01*
X103723261Y-78094426D01*
X103834757Y-78034830D01*
X103857202Y-78025532D01*
X103978200Y-77988828D01*
X104002024Y-77984089D01*
X104133939Y-77971097D01*
X104146093Y-77970500D01*
X104205892Y-77970500D01*
X113921960Y-77970500D01*
X113988999Y-77990185D01*
G37*
%TD.AperFunction*%
%TA.AperFunction,NonConductor*%
G36*
X152521155Y-80753046D02*
G01*
X152537875Y-80772342D01*
X152667800Y-80957895D01*
X152667805Y-80957901D01*
X152834899Y-81124995D01*
X152925119Y-81188168D01*
X153028465Y-81260532D01*
X153028467Y-81260533D01*
X153028470Y-81260535D01*
X153149384Y-81316918D01*
X153201823Y-81363090D01*
X153220975Y-81430284D01*
X153200759Y-81497165D01*
X153147594Y-81542500D01*
X153096979Y-81553300D01*
X151876897Y-81553300D01*
X151809858Y-81533615D01*
X151789216Y-81516981D01*
X151757008Y-81484773D01*
X151723523Y-81423450D01*
X151728507Y-81353758D01*
X151770379Y-81297825D01*
X151792276Y-81284714D01*
X151844130Y-81260535D01*
X152037701Y-81124995D01*
X152204795Y-80957901D01*
X152334725Y-80772342D01*
X152389302Y-80728717D01*
X152458800Y-80721523D01*
X152521155Y-80753046D01*
G37*
%TD.AperFunction*%
%TA.AperFunction,NonConductor*%
G36*
X149641560Y-81083644D02*
G01*
X149685911Y-81112146D01*
X150318084Y-81744319D01*
X150351569Y-81805642D01*
X150346585Y-81875334D01*
X150304713Y-81931267D01*
X150239249Y-81955684D01*
X150230403Y-81956000D01*
X149800698Y-81956000D01*
X149800675Y-81956002D01*
X149739671Y-81962233D01*
X149670979Y-81949462D01*
X149639391Y-81926556D01*
X149203778Y-81490943D01*
X149170293Y-81429620D01*
X149175277Y-81359928D01*
X149217149Y-81303995D01*
X149239055Y-81290880D01*
X149304130Y-81260535D01*
X149497701Y-81124995D01*
X149510550Y-81112145D01*
X149571868Y-81078662D01*
X149641560Y-81083644D01*
G37*
%TD.AperFunction*%
%TA.AperFunction,NonConductor*%
G36*
X127929342Y-81858385D02*
G01*
X127949984Y-81875019D01*
X128109284Y-82034319D01*
X128142769Y-82095642D01*
X128137785Y-82165334D01*
X128095913Y-82221267D01*
X128030449Y-82245684D01*
X128021603Y-82246000D01*
X127390797Y-82246000D01*
X127323758Y-82226315D01*
X127303116Y-82209681D01*
X127143816Y-82050381D01*
X127110331Y-81989058D01*
X127115315Y-81919366D01*
X127157187Y-81863433D01*
X127222651Y-81839016D01*
X127231497Y-81838700D01*
X127313157Y-81838700D01*
X127862303Y-81838700D01*
X127929342Y-81858385D01*
G37*
%TD.AperFunction*%
%TA.AperFunction,NonConductor*%
G36*
X125249342Y-81858385D02*
G01*
X125269984Y-81875019D01*
X125449284Y-82054319D01*
X125482769Y-82115642D01*
X125477785Y-82185334D01*
X125435913Y-82241267D01*
X125370449Y-82265684D01*
X125361603Y-82266000D01*
X124930798Y-82266000D01*
X124863759Y-82246315D01*
X124843117Y-82229681D01*
X124663817Y-82050381D01*
X124630332Y-81989058D01*
X124635316Y-81919366D01*
X124677188Y-81863433D01*
X124742652Y-81839016D01*
X124751498Y-81838700D01*
X125182303Y-81838700D01*
X125249342Y-81858385D01*
G37*
%TD.AperFunction*%
%TA.AperFunction,NonConductor*%
G36*
X133668955Y-80753046D02*
G01*
X133685675Y-80772342D01*
X133815600Y-80957895D01*
X133815605Y-80957901D01*
X133982699Y-81124995D01*
X134072919Y-81188168D01*
X134176265Y-81260532D01*
X134176267Y-81260533D01*
X134176270Y-81260535D01*
X134181994Y-81263204D01*
X134194867Y-81269207D01*
X134247307Y-81315379D01*
X134262238Y-81349495D01*
X134294523Y-81469985D01*
X134294526Y-81469990D01*
X134373575Y-81606909D01*
X134373579Y-81606914D01*
X134373580Y-81606916D01*
X134485384Y-81718720D01*
X134485386Y-81718721D01*
X134485390Y-81718724D01*
X134600331Y-81785084D01*
X134622316Y-81797777D01*
X134775043Y-81838700D01*
X134933157Y-81838700D01*
X135032303Y-81838700D01*
X135099342Y-81858385D01*
X135119984Y-81875019D01*
X136218881Y-82973916D01*
X136252366Y-83035239D01*
X136255200Y-83061597D01*
X136255201Y-83699200D01*
X136235517Y-83766239D01*
X136182713Y-83811994D01*
X136131201Y-83823200D01*
X135217506Y-83823200D01*
X135150467Y-83803515D01*
X135104712Y-83750711D01*
X135094148Y-83686598D01*
X135096199Y-83666518D01*
X135096200Y-83666509D01*
X135096199Y-82891492D01*
X135094851Y-82878300D01*
X135085699Y-82788703D01*
X135085698Y-82788700D01*
X135048739Y-82677166D01*
X135030514Y-82622166D01*
X134938412Y-82472844D01*
X134814356Y-82348788D01*
X134685715Y-82269442D01*
X134665036Y-82256687D01*
X134665031Y-82256685D01*
X134633736Y-82246315D01*
X134498497Y-82201501D01*
X134498495Y-82201500D01*
X134395716Y-82191000D01*
X134395709Y-82191000D01*
X133683297Y-82191000D01*
X133616258Y-82171315D01*
X133595616Y-82154681D01*
X132950919Y-81509984D01*
X132917434Y-81448661D01*
X132914600Y-81422303D01*
X132914600Y-81375590D01*
X132934285Y-81308551D01*
X132986201Y-81263206D01*
X132991930Y-81260535D01*
X133185501Y-81124995D01*
X133352595Y-80957901D01*
X133482525Y-80772342D01*
X133537102Y-80728717D01*
X133606600Y-80721523D01*
X133668955Y-80753046D01*
G37*
%TD.AperFunction*%
%TA.AperFunction,NonConductor*%
G36*
X131128955Y-80753046D02*
G01*
X131145675Y-80772342D01*
X131275600Y-80957895D01*
X131275605Y-80957901D01*
X131442699Y-81124995D01*
X131532919Y-81188168D01*
X131636265Y-81260532D01*
X131636267Y-81260533D01*
X131636270Y-81260535D01*
X131641998Y-81263206D01*
X131694439Y-81309372D01*
X131713600Y-81375590D01*
X131713600Y-81635730D01*
X131713599Y-81635748D01*
X131713599Y-81801454D01*
X131713598Y-81801454D01*
X131713828Y-81802312D01*
X131754523Y-81954185D01*
X131764680Y-81971778D01*
X131765154Y-81972598D01*
X131765155Y-81972600D01*
X131833577Y-82091112D01*
X131833581Y-82091117D01*
X131952449Y-82209985D01*
X131952455Y-82209990D01*
X132608881Y-82866416D01*
X132642366Y-82927739D01*
X132645200Y-82954097D01*
X132645200Y-83666501D01*
X132645201Y-83666519D01*
X132647253Y-83686599D01*
X132634483Y-83755292D01*
X132586602Y-83806176D01*
X132523895Y-83823200D01*
X131523527Y-83823200D01*
X131456488Y-83803515D01*
X131410733Y-83750711D01*
X131400170Y-83686593D01*
X131401198Y-83676525D01*
X131401200Y-83676509D01*
X131401199Y-82876492D01*
X131390699Y-82773703D01*
X131335514Y-82607166D01*
X131243412Y-82457844D01*
X131119356Y-82333788D01*
X130994353Y-82256686D01*
X130970036Y-82241687D01*
X130970031Y-82241685D01*
X130923647Y-82226315D01*
X130803497Y-82186501D01*
X130803495Y-82186500D01*
X130700716Y-82176000D01*
X130700709Y-82176000D01*
X130000798Y-82176000D01*
X129933759Y-82156315D01*
X129913117Y-82139681D01*
X129667259Y-81893823D01*
X129396427Y-81622991D01*
X129362943Y-81561670D01*
X129367927Y-81491979D01*
X129409798Y-81436045D01*
X129475263Y-81411628D01*
X129516201Y-81415537D01*
X129524909Y-81417870D01*
X129538692Y-81421563D01*
X129715134Y-81437000D01*
X129774099Y-81442159D01*
X129774100Y-81442159D01*
X129774101Y-81442159D01*
X129833066Y-81437000D01*
X130009508Y-81421563D01*
X130237763Y-81360403D01*
X130451930Y-81260535D01*
X130645501Y-81124995D01*
X130812595Y-80957901D01*
X130942525Y-80772342D01*
X130997102Y-80728717D01*
X131066600Y-80721523D01*
X131128955Y-80753046D01*
G37*
%TD.AperFunction*%
%TA.AperFunction,NonConductor*%
G36*
X145064718Y-80981917D02*
G01*
X145092973Y-81003069D01*
X145214899Y-81124995D01*
X145305119Y-81188168D01*
X145408465Y-81260532D01*
X145408467Y-81260533D01*
X145408470Y-81260535D01*
X145622637Y-81360403D01*
X145622643Y-81360404D01*
X145622644Y-81360405D01*
X145632665Y-81363090D01*
X145850892Y-81421563D01*
X146027334Y-81437000D01*
X146086299Y-81442159D01*
X146086300Y-81442159D01*
X146086301Y-81442159D01*
X146145266Y-81437000D01*
X146321708Y-81421563D01*
X146549963Y-81360403D01*
X146764130Y-81260535D01*
X146957701Y-81124995D01*
X146960846Y-81121849D01*
X147022163Y-81088363D01*
X147091855Y-81093342D01*
X147136211Y-81121846D01*
X149063881Y-83049516D01*
X149097366Y-83110839D01*
X149100200Y-83137197D01*
X149100200Y-83456500D01*
X149100201Y-83456519D01*
X149110700Y-83559296D01*
X149110701Y-83559299D01*
X149165885Y-83725831D01*
X149165887Y-83725836D01*
X149192580Y-83769112D01*
X149254375Y-83869299D01*
X149257989Y-83875157D01*
X149351651Y-83968819D01*
X149385136Y-84030142D01*
X149380152Y-84099834D01*
X149351651Y-84144181D01*
X149257989Y-84237842D01*
X149243082Y-84262010D01*
X149174712Y-84372858D01*
X149162095Y-84393313D01*
X149160300Y-84392206D01*
X149121013Y-84436837D01*
X149054792Y-84456000D01*
X146538490Y-84456000D01*
X146471451Y-84436315D01*
X146438655Y-84402907D01*
X146437893Y-84403511D01*
X146433411Y-84397843D01*
X146339749Y-84304181D01*
X146306264Y-84242858D01*
X146311248Y-84173166D01*
X146339749Y-84128819D01*
X146385710Y-84082858D01*
X146433412Y-84035156D01*
X146525514Y-83885834D01*
X146580699Y-83719297D01*
X146584040Y-83686599D01*
X146591199Y-83616516D01*
X146591200Y-83616509D01*
X146591199Y-82816492D01*
X146580699Y-82713703D01*
X146525514Y-82547166D01*
X146433412Y-82397844D01*
X146309356Y-82273788D01*
X146194460Y-82202920D01*
X146160036Y-82181687D01*
X146160031Y-82181685D01*
X146128736Y-82171315D01*
X145993497Y-82126501D01*
X145993495Y-82126500D01*
X145890716Y-82116000D01*
X145890709Y-82116000D01*
X145190797Y-82116000D01*
X145123758Y-82096315D01*
X145103116Y-82079681D01*
X144603823Y-81580388D01*
X144570338Y-81519065D01*
X144575322Y-81449373D01*
X144617194Y-81393440D01*
X144632078Y-81383874D01*
X144638636Y-81380293D01*
X144733373Y-81309372D01*
X144753846Y-81294046D01*
X144840096Y-81178831D01*
X144889110Y-81047416D01*
X144930981Y-80991484D01*
X144996445Y-80967066D01*
X145064718Y-80981917D01*
G37*
%TD.AperFunction*%
%TA.AperFunction,NonConductor*%
G36*
X109277410Y-84084822D02*
G01*
X109322029Y-84138589D01*
X109330496Y-84207944D01*
X109316994Y-84247110D01*
X109234892Y-84397468D01*
X109234889Y-84397474D01*
X109198390Y-84495334D01*
X109156518Y-84551267D01*
X109091054Y-84575684D01*
X109082208Y-84576000D01*
X107719192Y-84576000D01*
X107652153Y-84556315D01*
X107606398Y-84503511D01*
X107603010Y-84495334D01*
X107587661Y-84454181D01*
X107566513Y-84397481D01*
X107563633Y-84392206D01*
X107484405Y-84247111D01*
X107469553Y-84178838D01*
X107493970Y-84113374D01*
X107549903Y-84071502D01*
X107619595Y-84066518D01*
X107658032Y-84081960D01*
X107662736Y-84084843D01*
X107898381Y-84182450D01*
X107898383Y-84182450D01*
X107898389Y-84182453D01*
X108146414Y-84241998D01*
X108400700Y-84262011D01*
X108654986Y-84241998D01*
X108903011Y-84182453D01*
X109138667Y-84084841D01*
X109143364Y-84081962D01*
X109210806Y-84063712D01*
X109277410Y-84084822D01*
G37*
%TD.AperFunction*%
%TA.AperFunction,NonConductor*%
G36*
X126446322Y-84012515D02*
G01*
X126472407Y-84042619D01*
X126547987Y-84165155D01*
X126641651Y-84258819D01*
X126675136Y-84320142D01*
X126670152Y-84389834D01*
X126641651Y-84434181D01*
X126547988Y-84527843D01*
X126547985Y-84527847D01*
X126460069Y-84670381D01*
X126408121Y-84717106D01*
X126339159Y-84728327D01*
X126275077Y-84700484D01*
X126248992Y-84670380D01*
X126235297Y-84648177D01*
X126173412Y-84547844D01*
X126079749Y-84454181D01*
X126046264Y-84392858D01*
X126051248Y-84323166D01*
X126079749Y-84278819D01*
X126120726Y-84237842D01*
X126173412Y-84185156D01*
X126261329Y-84042618D01*
X126313277Y-83995894D01*
X126382239Y-83984671D01*
X126446322Y-84012515D01*
G37*
%TD.AperFunction*%
%TA.AperFunction,NonConductor*%
G36*
X128995156Y-83769112D02*
G01*
X129022560Y-83815086D01*
X129065886Y-83945833D01*
X129065887Y-83945836D01*
X129080063Y-83968819D01*
X129138593Y-84063712D01*
X129157989Y-84095157D01*
X129251651Y-84188819D01*
X129285136Y-84250142D01*
X129280152Y-84319834D01*
X129251651Y-84364181D01*
X129157989Y-84457842D01*
X129065887Y-84607163D01*
X129065885Y-84607168D01*
X129020583Y-84743881D01*
X128980810Y-84801326D01*
X128916294Y-84828149D01*
X128847518Y-84815834D01*
X128840894Y-84812274D01*
X128833117Y-84807784D01*
X128833116Y-84807783D01*
X128794442Y-84785454D01*
X128746227Y-84734887D01*
X128738736Y-84717069D01*
X128725515Y-84677168D01*
X128712755Y-84656481D01*
X128633412Y-84527844D01*
X128539749Y-84434181D01*
X128506264Y-84372858D01*
X128511248Y-84303166D01*
X128539749Y-84258819D01*
X128582068Y-84216500D01*
X128633412Y-84165156D01*
X128725514Y-84015834D01*
X128780699Y-83849297D01*
X128781496Y-83841491D01*
X128807888Y-83776802D01*
X128865067Y-83736647D01*
X128934878Y-83733781D01*
X128995156Y-83769112D01*
G37*
%TD.AperFunction*%
%TA.AperFunction,NonConductor*%
G36*
X136198239Y-85043885D02*
G01*
X136243994Y-85096689D01*
X136255200Y-85148200D01*
X136255200Y-85668903D01*
X136235515Y-85735942D01*
X136182711Y-85781697D01*
X136113553Y-85791641D01*
X136049997Y-85762616D01*
X136043519Y-85756584D01*
X135522816Y-85235881D01*
X135489331Y-85174558D01*
X135494315Y-85104866D01*
X135536187Y-85048933D01*
X135601651Y-85024516D01*
X135610497Y-85024200D01*
X136131200Y-85024200D01*
X136198239Y-85043885D01*
G37*
%TD.AperFunction*%
%TA.AperFunction,NonConductor*%
G36*
X132588239Y-85043885D02*
G01*
X132633994Y-85096689D01*
X132645200Y-85148200D01*
X132645200Y-85741501D01*
X132645201Y-85741519D01*
X132655700Y-85844296D01*
X132655701Y-85844299D01*
X132692558Y-85955524D01*
X132710886Y-86010834D01*
X132802988Y-86160156D01*
X132927044Y-86284212D01*
X133076366Y-86376314D01*
X133242903Y-86431499D01*
X133345691Y-86442000D01*
X134395708Y-86441999D01*
X134395716Y-86441998D01*
X134395719Y-86441998D01*
X134452002Y-86436248D01*
X134498497Y-86431499D01*
X134665034Y-86376314D01*
X134766980Y-86313433D01*
X134834370Y-86294993D01*
X134901034Y-86315915D01*
X134919756Y-86331291D01*
X136122184Y-87533719D01*
X136155669Y-87595042D01*
X136150685Y-87664734D01*
X136108813Y-87720667D01*
X136043349Y-87745084D01*
X136034503Y-87745400D01*
X131735178Y-87745400D01*
X131668139Y-87725715D01*
X131622384Y-87672911D01*
X131611958Y-87607517D01*
X131613965Y-87589703D01*
X131613965Y-87589696D01*
X131593769Y-87410450D01*
X131593768Y-87410445D01*
X131556058Y-87302676D01*
X131534189Y-87240178D01*
X131438216Y-87087438D01*
X131310662Y-86959884D01*
X131257390Y-86926411D01*
X131157921Y-86863910D01*
X130987649Y-86804330D01*
X130900730Y-86794537D01*
X130836316Y-86767470D01*
X130826933Y-86758998D01*
X130653160Y-86585225D01*
X130619675Y-86523902D01*
X130624659Y-86454210D01*
X130666531Y-86398277D01*
X130728239Y-86374186D01*
X130803497Y-86366499D01*
X130970034Y-86311314D01*
X131119356Y-86219212D01*
X131243412Y-86095156D01*
X131335514Y-85945834D01*
X131390699Y-85779297D01*
X131401200Y-85676509D01*
X131401199Y-85148199D01*
X131420883Y-85081161D01*
X131473687Y-85035406D01*
X131525199Y-85024200D01*
X132521200Y-85024200D01*
X132588239Y-85043885D01*
G37*
%TD.AperFunction*%
%TA.AperFunction,NonConductor*%
G36*
X131925925Y-88966085D02*
G01*
X131971680Y-89018889D01*
X131981624Y-89088047D01*
X131952599Y-89151603D01*
X131924858Y-89175393D01*
X131812042Y-89246280D01*
X131809203Y-89248545D01*
X131807020Y-89249436D01*
X131806142Y-89249988D01*
X131806045Y-89249834D01*
X131744517Y-89274955D01*
X131731888Y-89275600D01*
X130800199Y-89275600D01*
X130733160Y-89255915D01*
X130687405Y-89203111D01*
X130676199Y-89151600D01*
X130676199Y-89070400D01*
X130695884Y-89003361D01*
X130748688Y-88957606D01*
X130800199Y-88946400D01*
X131858886Y-88946400D01*
X131925925Y-88966085D01*
G37*
%TD.AperFunction*%
%TA.AperFunction,NonConductor*%
G36*
X155083242Y-82773985D02*
G01*
X155103884Y-82790619D01*
X155998464Y-83685199D01*
X156031949Y-83746522D01*
X156026965Y-83816214D01*
X155985093Y-83872147D01*
X155919629Y-83896564D01*
X155899977Y-83896408D01*
X155840704Y-83891223D01*
X155840698Y-83891223D01*
X155695382Y-83903936D01*
X155622723Y-83910293D01*
X155622720Y-83910293D01*
X155411377Y-83966922D01*
X155411368Y-83966926D01*
X155213061Y-84059398D01*
X155213057Y-84059400D01*
X155033821Y-84184902D01*
X154879102Y-84339621D01*
X154753600Y-84518857D01*
X154753598Y-84518861D01*
X154661126Y-84717168D01*
X154661122Y-84717177D01*
X154604493Y-84928520D01*
X154604493Y-84928524D01*
X154585423Y-85146497D01*
X154585423Y-85146502D01*
X154604493Y-85364475D01*
X154604493Y-85364479D01*
X154661122Y-85575822D01*
X154661124Y-85575826D01*
X154661125Y-85575830D01*
X154698975Y-85657000D01*
X154753597Y-85774138D01*
X154778698Y-85809986D01*
X154879102Y-85953377D01*
X155033823Y-86108098D01*
X155213061Y-86233602D01*
X155411370Y-86326075D01*
X155622723Y-86382707D01*
X155800694Y-86398277D01*
X155840698Y-86401777D01*
X155840700Y-86401777D01*
X155840702Y-86401777D01*
X155868954Y-86399305D01*
X156058677Y-86382707D01*
X156270030Y-86326075D01*
X156468339Y-86233602D01*
X156647577Y-86108098D01*
X156802298Y-85953377D01*
X156927802Y-85774139D01*
X157020275Y-85575830D01*
X157076907Y-85364477D01*
X157095977Y-85146500D01*
X157090791Y-85087223D01*
X157104558Y-85018724D01*
X157153173Y-84968540D01*
X157221201Y-84952607D01*
X157287045Y-84975982D01*
X157301998Y-84988734D01*
X158880284Y-86567020D01*
X158880286Y-86567021D01*
X158880290Y-86567024D01*
X158988199Y-86629325D01*
X159036415Y-86679891D01*
X159050200Y-86736712D01*
X159050200Y-86984369D01*
X159050201Y-86984376D01*
X159056608Y-87043983D01*
X159106902Y-87178828D01*
X159106906Y-87178835D01*
X159193152Y-87294044D01*
X159193155Y-87294047D01*
X159308364Y-87380293D01*
X159308371Y-87380297D01*
X159439781Y-87429310D01*
X159495715Y-87471181D01*
X159520132Y-87536645D01*
X159505280Y-87604918D01*
X159484130Y-87633173D01*
X159362203Y-87755100D01*
X159226665Y-87948669D01*
X159226664Y-87948671D01*
X159126798Y-88162835D01*
X159126794Y-88162844D01*
X159065638Y-88391086D01*
X159065636Y-88391096D01*
X159045041Y-88626499D01*
X159045041Y-88626500D01*
X159065636Y-88861903D01*
X159065638Y-88861913D01*
X159126794Y-89090155D01*
X159126796Y-89090159D01*
X159126797Y-89090163D01*
X159201253Y-89249834D01*
X159226665Y-89304330D01*
X159226667Y-89304334D01*
X159362201Y-89497895D01*
X159362206Y-89497902D01*
X159529297Y-89664993D01*
X159529303Y-89664998D01*
X159714858Y-89794925D01*
X159758483Y-89849502D01*
X159765677Y-89919000D01*
X159734154Y-89981355D01*
X159714858Y-89998075D01*
X159529297Y-90128005D01*
X159362206Y-90295096D01*
X159226665Y-90488670D01*
X159226662Y-90488675D01*
X159223989Y-90494409D01*
X159177815Y-90546846D01*
X159111609Y-90566000D01*
X153682897Y-90566000D01*
X153615858Y-90546315D01*
X153595216Y-90529681D01*
X152765390Y-89699855D01*
X152765388Y-89699852D01*
X152646517Y-89580981D01*
X152646512Y-89580977D01*
X152538599Y-89518674D01*
X152490384Y-89468107D01*
X152476599Y-89411287D01*
X152476599Y-89133029D01*
X152476598Y-89133023D01*
X152476597Y-89133016D01*
X152470191Y-89073417D01*
X152469091Y-89070469D01*
X152459018Y-89043460D01*
X152451200Y-89000127D01*
X152451200Y-86695559D01*
X152451201Y-86695546D01*
X152451201Y-86527445D01*
X152451201Y-86527443D01*
X152410277Y-86374715D01*
X152373672Y-86311314D01*
X152373672Y-86311313D01*
X152331222Y-86237787D01*
X152331221Y-86237786D01*
X152331220Y-86237784D01*
X152219416Y-86125980D01*
X152219415Y-86125979D01*
X152215085Y-86121649D01*
X152215074Y-86121639D01*
X151537518Y-85444083D01*
X151504033Y-85382760D01*
X151501199Y-85356402D01*
X151501199Y-84656498D01*
X151501198Y-84656481D01*
X151490699Y-84553703D01*
X151490698Y-84553700D01*
X151489892Y-84551267D01*
X151435514Y-84387166D01*
X151343412Y-84237844D01*
X151249749Y-84144181D01*
X151216264Y-84082858D01*
X151221248Y-84013166D01*
X151249749Y-83968819D01*
X151275388Y-83943180D01*
X151343412Y-83875156D01*
X151435514Y-83725834D01*
X151490699Y-83559297D01*
X151501200Y-83456509D01*
X151501199Y-82878299D01*
X151520883Y-82811261D01*
X151573687Y-82765506D01*
X151625199Y-82754300D01*
X155016203Y-82754300D01*
X155083242Y-82773985D01*
G37*
%TD.AperFunction*%
%TA.AperFunction,NonConductor*%
G36*
X128168239Y-90934185D02*
G01*
X128213994Y-90986989D01*
X128225200Y-91038500D01*
X128225200Y-91299647D01*
X128225201Y-91521300D01*
X128205517Y-91588339D01*
X128152713Y-91634094D01*
X128101201Y-91645300D01*
X126230199Y-91645300D01*
X126163160Y-91625615D01*
X126117405Y-91572811D01*
X126106199Y-91521300D01*
X126106199Y-91038500D01*
X126125884Y-90971461D01*
X126178688Y-90925706D01*
X126230199Y-90914500D01*
X128101200Y-90914500D01*
X128168239Y-90934185D01*
G37*
%TD.AperFunction*%
%TA.AperFunction,NonConductor*%
G36*
X137900141Y-86569184D02*
G01*
X137920783Y-86585818D01*
X144137984Y-92803019D01*
X144171469Y-92864342D01*
X144166485Y-92934034D01*
X144124613Y-92989967D01*
X144059149Y-93014384D01*
X144050303Y-93014700D01*
X143352997Y-93014700D01*
X143285958Y-92995015D01*
X143265316Y-92978381D01*
X137048115Y-86761180D01*
X137014630Y-86699857D01*
X137019614Y-86630165D01*
X137061486Y-86574232D01*
X137126950Y-86549815D01*
X137135773Y-86549499D01*
X137833102Y-86549499D01*
X137900141Y-86569184D01*
G37*
%TD.AperFunction*%
%TA.AperFunction,NonConductor*%
G36*
X142138839Y-79484185D02*
G01*
X142184594Y-79536989D01*
X142195800Y-79588500D01*
X142195800Y-80984370D01*
X142195801Y-80984376D01*
X142202208Y-81043983D01*
X142252502Y-81178828D01*
X142252506Y-81178835D01*
X142338752Y-81294044D01*
X142338755Y-81294047D01*
X142453964Y-81380293D01*
X142453971Y-81380297D01*
X142463562Y-81383874D01*
X142588817Y-81430591D01*
X142648427Y-81437000D01*
X142846857Y-81436999D01*
X142913896Y-81456683D01*
X142959651Y-81509487D01*
X142966632Y-81528905D01*
X142986723Y-81603887D01*
X142994079Y-81616627D01*
X142994081Y-81616629D01*
X143065777Y-81740812D01*
X143065781Y-81740817D01*
X143184649Y-81859685D01*
X143184655Y-81859690D01*
X144153881Y-82828916D01*
X144187366Y-82890239D01*
X144190200Y-82916597D01*
X144190200Y-83616501D01*
X144190201Y-83616519D01*
X144200700Y-83719291D01*
X144200701Y-83719299D01*
X144219756Y-83776802D01*
X144255886Y-83885834D01*
X144344895Y-84030142D01*
X144347989Y-84035157D01*
X144441651Y-84128819D01*
X144475136Y-84190142D01*
X144470152Y-84259834D01*
X144441651Y-84304181D01*
X144347989Y-84397842D01*
X144255887Y-84547163D01*
X144255886Y-84547166D01*
X144200701Y-84713703D01*
X144200701Y-84713704D01*
X144200700Y-84713704D01*
X144190200Y-84816483D01*
X144190200Y-85616501D01*
X144190201Y-85616519D01*
X144200700Y-85719296D01*
X144200701Y-85719299D01*
X144255885Y-85885831D01*
X144255887Y-85885836D01*
X144263294Y-85897844D01*
X144347988Y-86035156D01*
X144472044Y-86159212D01*
X144621366Y-86251314D01*
X144787903Y-86306499D01*
X144890691Y-86317000D01*
X145890708Y-86316999D01*
X145890716Y-86316998D01*
X145890719Y-86316998D01*
X145966938Y-86309212D01*
X145993497Y-86306499D01*
X146160034Y-86251314D01*
X146309356Y-86159212D01*
X146433412Y-86035156D01*
X146525514Y-85885834D01*
X146573177Y-85741995D01*
X146612950Y-85684551D01*
X146677466Y-85657728D01*
X146690883Y-85657000D01*
X149054792Y-85657000D01*
X149121831Y-85676685D01*
X149160336Y-85720771D01*
X149162095Y-85719687D01*
X149165885Y-85725832D01*
X149165886Y-85725834D01*
X149257988Y-85875156D01*
X149382044Y-85999212D01*
X149531366Y-86091314D01*
X149697903Y-86146499D01*
X149800691Y-86157000D01*
X150500602Y-86156999D01*
X150567641Y-86176683D01*
X150588283Y-86193318D01*
X151213881Y-86818916D01*
X151247366Y-86880239D01*
X151250200Y-86906597D01*
X151250200Y-88556400D01*
X151230515Y-88623439D01*
X151177711Y-88669194D01*
X151126200Y-88680400D01*
X148777429Y-88680400D01*
X148777423Y-88680401D01*
X148717816Y-88686808D01*
X148582971Y-88737102D01*
X148582964Y-88737106D01*
X148467755Y-88823352D01*
X148467752Y-88823355D01*
X148381506Y-88938564D01*
X148381502Y-88938571D01*
X148331208Y-89073417D01*
X148324801Y-89133016D01*
X148324801Y-89133023D01*
X148324800Y-89133035D01*
X148324800Y-90989970D01*
X148324801Y-90989976D01*
X148331208Y-91049583D01*
X148381502Y-91184428D01*
X148381506Y-91184435D01*
X148467752Y-91299644D01*
X148467755Y-91299647D01*
X148582964Y-91385893D01*
X148582971Y-91385897D01*
X148717817Y-91436191D01*
X148717816Y-91436191D01*
X148724744Y-91436935D01*
X148777427Y-91442600D01*
X149748102Y-91442599D01*
X149815141Y-91462283D01*
X149860896Y-91515087D01*
X149870840Y-91584246D01*
X149841815Y-91647802D01*
X149835783Y-91654280D01*
X148031884Y-93458181D01*
X147970561Y-93491666D01*
X147944203Y-93494500D01*
X147364731Y-93494500D01*
X147297692Y-93474815D01*
X147251937Y-93422011D01*
X147241511Y-93356617D01*
X147251765Y-93265604D01*
X147251765Y-93265596D01*
X147231569Y-93086350D01*
X147231568Y-93086345D01*
X147178272Y-92934034D01*
X147171989Y-92916078D01*
X147171927Y-92915980D01*
X147132782Y-92853680D01*
X147076016Y-92763338D01*
X146948462Y-92635784D01*
X146795723Y-92539811D01*
X146625454Y-92480231D01*
X146625449Y-92480230D01*
X146446204Y-92460035D01*
X146446196Y-92460035D01*
X146266950Y-92480230D01*
X146266945Y-92480231D01*
X146096674Y-92539812D01*
X146021568Y-92587004D01*
X145954331Y-92606004D01*
X145887496Y-92585636D01*
X145850603Y-92547981D01*
X145845470Y-92539812D01*
X145827516Y-92511238D01*
X145699962Y-92383684D01*
X145598861Y-92320158D01*
X145547221Y-92287710D01*
X145376949Y-92228130D01*
X145290030Y-92218337D01*
X145225616Y-92191270D01*
X145216233Y-92182798D01*
X142320369Y-89286934D01*
X142286884Y-89225611D01*
X142291868Y-89155919D01*
X142333740Y-89099986D01*
X142394167Y-89076033D01*
X142443549Y-89070469D01*
X142443552Y-89070468D01*
X142443555Y-89070468D01*
X142613822Y-89010889D01*
X142766562Y-88914916D01*
X142894116Y-88787362D01*
X142990089Y-88634622D01*
X143049668Y-88464355D01*
X143049669Y-88464349D01*
X143070311Y-88281145D01*
X143097377Y-88216731D01*
X143154972Y-88177176D01*
X143224809Y-88175038D01*
X143281212Y-88207347D01*
X144511898Y-89438033D01*
X144545383Y-89499356D01*
X144547437Y-89511830D01*
X144557230Y-89598749D01*
X144616810Y-89769021D01*
X144633087Y-89794925D01*
X144712784Y-89921762D01*
X144840338Y-90049316D01*
X144873322Y-90070041D01*
X144965570Y-90128005D01*
X144993078Y-90145289D01*
X145163345Y-90204868D01*
X145163350Y-90204869D01*
X145342596Y-90225065D01*
X145342600Y-90225065D01*
X145342604Y-90225065D01*
X145521849Y-90204869D01*
X145521852Y-90204868D01*
X145521855Y-90204868D01*
X145692122Y-90145289D01*
X145844862Y-90049316D01*
X145972416Y-89921762D01*
X146068389Y-89769022D01*
X146127968Y-89598755D01*
X146132964Y-89554413D01*
X146148165Y-89419503D01*
X146148165Y-89419496D01*
X146127969Y-89240250D01*
X146127968Y-89240245D01*
X146096499Y-89150311D01*
X146068389Y-89069978D01*
X146058352Y-89054005D01*
X146013560Y-88982719D01*
X145972416Y-88917238D01*
X145844862Y-88789684D01*
X145761185Y-88737106D01*
X145692121Y-88693710D01*
X145521849Y-88634130D01*
X145434930Y-88624337D01*
X145370516Y-88597270D01*
X145361133Y-88588798D01*
X138153450Y-81381115D01*
X138119965Y-81319792D01*
X138124949Y-81250100D01*
X138166821Y-81194167D01*
X138169967Y-81191888D01*
X138265501Y-81124995D01*
X138432595Y-80957901D01*
X138568135Y-80764330D01*
X138576807Y-80745733D01*
X138622979Y-80693293D01*
X138657090Y-80678363D01*
X138777585Y-80646077D01*
X138831564Y-80614912D01*
X138914516Y-80567020D01*
X139026320Y-80455216D01*
X139026320Y-80455214D01*
X139036524Y-80445011D01*
X139036527Y-80445006D01*
X139980716Y-79500819D01*
X140042039Y-79467334D01*
X140068397Y-79464500D01*
X142071800Y-79464500D01*
X142138839Y-79484185D01*
G37*
%TD.AperFunction*%
%TA.AperFunction,NonConductor*%
G36*
X136653842Y-88966085D02*
G01*
X136674484Y-88982719D01*
X140953098Y-93261333D01*
X140986583Y-93322656D01*
X140988637Y-93335130D01*
X140991058Y-93356616D01*
X140979004Y-93425438D01*
X140931655Y-93476817D01*
X140867838Y-93494500D01*
X139063257Y-93494500D01*
X138905142Y-93494500D01*
X138752415Y-93535423D01*
X138752414Y-93535423D01*
X138752412Y-93535424D01*
X138752409Y-93535425D01*
X138702296Y-93564359D01*
X138702295Y-93564360D01*
X138698795Y-93566381D01*
X138615485Y-93614479D01*
X138615482Y-93614481D01*
X138503678Y-93726285D01*
X138503678Y-93726286D01*
X138370282Y-93859682D01*
X138308962Y-93893166D01*
X138282603Y-93896000D01*
X134850199Y-93896000D01*
X134783160Y-93876315D01*
X134737405Y-93823511D01*
X134727262Y-93776888D01*
X134726600Y-93776923D01*
X134726554Y-93776929D01*
X134726553Y-93776926D01*
X134726376Y-93776936D01*
X134726199Y-93773641D01*
X134726199Y-93773628D01*
X134719791Y-93714017D01*
X134716987Y-93706500D01*
X134713472Y-93697074D01*
X134708488Y-93627382D01*
X134741971Y-93566062D01*
X134942006Y-93366028D01*
X134942011Y-93366024D01*
X134952214Y-93355820D01*
X134952216Y-93355820D01*
X135064020Y-93244016D01*
X135143077Y-93107084D01*
X135177142Y-92979953D01*
X135184000Y-92954358D01*
X135184000Y-92796243D01*
X135184000Y-92218959D01*
X135184001Y-92218946D01*
X135184001Y-92050845D01*
X135184001Y-92050843D01*
X135143077Y-91898115D01*
X135111301Y-91843078D01*
X135064020Y-91761184D01*
X134952216Y-91649380D01*
X134952215Y-91649379D01*
X134947885Y-91645049D01*
X134947874Y-91645039D01*
X134572772Y-91269937D01*
X134539287Y-91208614D01*
X134544271Y-91138922D01*
X134551992Y-91123170D01*
X134551857Y-91123103D01*
X134569047Y-91088580D01*
X134651517Y-90922959D01*
X134711135Y-90713423D01*
X134731236Y-90496500D01*
X134730510Y-90488670D01*
X134718954Y-90363954D01*
X134711135Y-90279577D01*
X134651517Y-90070041D01*
X134554412Y-89875028D01*
X134423127Y-89701178D01*
X134421672Y-89699852D01*
X134262133Y-89554413D01*
X134262123Y-89554406D01*
X134076913Y-89439729D01*
X134076907Y-89439726D01*
X133991813Y-89406760D01*
X133873769Y-89361030D01*
X133659626Y-89321000D01*
X133441774Y-89321000D01*
X133227631Y-89361030D01*
X133157475Y-89388209D01*
X133088173Y-89415057D01*
X133018549Y-89420919D01*
X132956809Y-89388209D01*
X132946431Y-89376742D01*
X132944119Y-89373843D01*
X132944116Y-89373838D01*
X132816562Y-89246284D01*
X132816556Y-89246279D01*
X132703742Y-89175393D01*
X132657451Y-89123059D01*
X132646803Y-89054005D01*
X132675178Y-88990157D01*
X132733568Y-88951785D01*
X132769714Y-88946400D01*
X136586803Y-88946400D01*
X136653842Y-88966085D01*
G37*
%TD.AperFunction*%
%TA.AperFunction,NonConductor*%
G36*
X130596841Y-92865985D02*
G01*
X130642596Y-92918789D01*
X130652540Y-92987947D01*
X130623515Y-93051503D01*
X130617483Y-93057981D01*
X128511184Y-95164281D01*
X128449861Y-95197766D01*
X128423503Y-95200600D01*
X127363604Y-95200600D01*
X127296565Y-95180915D01*
X127250810Y-95128111D01*
X127240866Y-95058953D01*
X127243829Y-95044507D01*
X127256988Y-94995397D01*
X127276335Y-94923192D01*
X127296168Y-94696500D01*
X127276335Y-94469808D01*
X127217439Y-94250004D01*
X127121268Y-94043766D01*
X127004019Y-93876315D01*
X126990745Y-93857358D01*
X126829840Y-93696453D01*
X126644077Y-93566381D01*
X126600452Y-93511804D01*
X126591200Y-93464806D01*
X126591200Y-92970300D01*
X126610885Y-92903261D01*
X126663689Y-92857506D01*
X126715200Y-92846300D01*
X130529802Y-92846300D01*
X130596841Y-92865985D01*
G37*
%TD.AperFunction*%
%TA.AperFunction,NonConductor*%
G36*
X121834154Y-91996685D02*
G01*
X121879909Y-92049489D01*
X121884818Y-92061989D01*
X121903837Y-92119383D01*
X121920885Y-92170831D01*
X121920887Y-92170836D01*
X121941958Y-92204998D01*
X122012988Y-92320156D01*
X122137044Y-92444212D01*
X122286366Y-92536314D01*
X122452903Y-92591499D01*
X122555691Y-92602000D01*
X123330708Y-92601999D01*
X123330716Y-92601998D01*
X123330719Y-92601998D01*
X123387002Y-92596248D01*
X123433497Y-92591499D01*
X123600034Y-92536314D01*
X123749356Y-92444212D01*
X123873412Y-92320156D01*
X123875161Y-92317319D01*
X123876869Y-92315783D01*
X123877893Y-92314489D01*
X123878114Y-92314663D01*
X123927106Y-92270596D01*
X123996068Y-92259372D01*
X124060151Y-92287213D01*
X124086237Y-92317317D01*
X124087988Y-92320156D01*
X124212044Y-92444212D01*
X124361366Y-92536314D01*
X124527903Y-92591499D01*
X124630691Y-92602000D01*
X125266200Y-92601999D01*
X125333239Y-92621683D01*
X125378994Y-92674487D01*
X125390200Y-92725999D01*
X125390200Y-93464806D01*
X125370515Y-93531845D01*
X125337323Y-93566381D01*
X125151559Y-93696453D01*
X124990654Y-93857358D01*
X124860132Y-94043765D01*
X124860131Y-94043767D01*
X124763961Y-94250002D01*
X124763958Y-94250011D01*
X124705066Y-94469802D01*
X124705064Y-94469813D01*
X124685232Y-94696498D01*
X124685232Y-94696501D01*
X124705064Y-94923186D01*
X124705066Y-94923197D01*
X124737571Y-95044507D01*
X124735908Y-95114357D01*
X124696745Y-95172219D01*
X124632517Y-95199723D01*
X124617796Y-95200600D01*
X121536809Y-95200600D01*
X121469770Y-95180915D01*
X121424015Y-95128111D01*
X121414071Y-95058953D01*
X121417034Y-95044507D01*
X121422663Y-95023498D01*
X121476335Y-94823192D01*
X121494390Y-94616819D01*
X121496168Y-94596501D01*
X121496168Y-94596498D01*
X121488479Y-94508616D01*
X121476335Y-94369808D01*
X121417439Y-94150004D01*
X121321268Y-93943766D01*
X121190747Y-93757361D01*
X121190745Y-93757358D01*
X121029841Y-93596454D01*
X120843434Y-93465932D01*
X120843432Y-93465931D01*
X120637197Y-93369761D01*
X120637188Y-93369758D01*
X120417397Y-93310866D01*
X120417393Y-93310865D01*
X120417392Y-93310865D01*
X120417391Y-93310864D01*
X120417386Y-93310864D01*
X120190702Y-93291032D01*
X120190698Y-93291032D01*
X119964013Y-93310864D01*
X119964002Y-93310866D01*
X119744211Y-93369758D01*
X119744202Y-93369761D01*
X119537967Y-93465931D01*
X119537965Y-93465932D01*
X119351558Y-93596454D01*
X119232555Y-93715458D01*
X119171232Y-93748943D01*
X119101540Y-93743959D01*
X119057193Y-93715458D01*
X118960090Y-93618355D01*
X118960088Y-93618352D01*
X118841217Y-93499481D01*
X118841216Y-93499480D01*
X118735747Y-93438588D01*
X118735746Y-93438587D01*
X118712714Y-93425290D01*
X118704285Y-93420423D01*
X118704284Y-93420422D01*
X118704283Y-93420422D01*
X118648381Y-93405443D01*
X118551557Y-93379499D01*
X118393443Y-93379499D01*
X118385847Y-93379499D01*
X118385831Y-93379500D01*
X116801692Y-93379500D01*
X116734653Y-93359815D01*
X116700119Y-93326625D01*
X116570047Y-93140861D01*
X116570045Y-93140858D01*
X116409141Y-92979954D01*
X116222734Y-92849432D01*
X116222732Y-92849431D01*
X116016497Y-92753261D01*
X116016488Y-92753258D01*
X115796697Y-92694366D01*
X115796693Y-92694365D01*
X115796692Y-92694365D01*
X115796691Y-92694364D01*
X115796686Y-92694364D01*
X115570002Y-92674532D01*
X115569998Y-92674532D01*
X115343313Y-92694364D01*
X115343302Y-92694366D01*
X115123511Y-92753258D01*
X115123502Y-92753261D01*
X114917267Y-92849431D01*
X114917265Y-92849432D01*
X114730858Y-92979954D01*
X114569954Y-93140858D01*
X114498551Y-93242835D01*
X114439881Y-93326624D01*
X114385307Y-93370248D01*
X114338308Y-93379500D01*
X112290998Y-93379500D01*
X112223959Y-93359815D01*
X112203317Y-93343181D01*
X111776117Y-92915981D01*
X111776116Y-92915980D01*
X111673408Y-92856682D01*
X111673407Y-92856681D01*
X111639183Y-92836922D01*
X111543808Y-92811366D01*
X111486457Y-92795999D01*
X111486456Y-92795999D01*
X111482235Y-92794868D01*
X111422575Y-92758503D01*
X111415384Y-92749831D01*
X111352949Y-92667153D01*
X111328259Y-92601797D01*
X111342824Y-92533462D01*
X111377591Y-92493167D01*
X111463246Y-92429046D01*
X111549496Y-92313831D01*
X111599791Y-92178983D01*
X111606200Y-92119373D01*
X111606200Y-92101000D01*
X111625885Y-92033961D01*
X111678689Y-91988206D01*
X111730200Y-91977000D01*
X121767115Y-91977000D01*
X121834154Y-91996685D01*
G37*
%TD.AperFunction*%
%TA.AperFunction,NonConductor*%
G36*
X118239442Y-94600185D02*
G01*
X118260084Y-94616819D01*
X118632183Y-94988919D01*
X118665668Y-95050242D01*
X118660684Y-95119934D01*
X118618812Y-95175867D01*
X118553348Y-95200284D01*
X118544502Y-95200600D01*
X116486982Y-95200600D01*
X116419943Y-95180915D01*
X116374188Y-95128111D01*
X116364244Y-95058953D01*
X116393269Y-94995397D01*
X116407276Y-94981611D01*
X116409140Y-94980046D01*
X116570045Y-94819141D01*
X116570047Y-94819139D01*
X116700118Y-94633375D01*
X116754693Y-94589752D01*
X116801692Y-94580500D01*
X118172403Y-94580500D01*
X118239442Y-94600185D01*
G37*
%TD.AperFunction*%
%TA.AperFunction,NonConductor*%
G36*
X111374163Y-94225151D02*
G01*
X111413191Y-94251527D01*
X111475828Y-94314164D01*
X111622184Y-94460520D01*
X111622186Y-94460521D01*
X111622190Y-94460524D01*
X111705510Y-94508628D01*
X111759116Y-94539577D01*
X111911843Y-94580501D01*
X111911845Y-94580501D01*
X112077554Y-94580501D01*
X112077570Y-94580500D01*
X114338308Y-94580500D01*
X114405347Y-94600185D01*
X114439880Y-94633374D01*
X114518036Y-94744993D01*
X114569954Y-94819141D01*
X114730859Y-94980046D01*
X114732724Y-94981611D01*
X114733320Y-94982507D01*
X114734689Y-94983876D01*
X114734413Y-94984151D01*
X114771426Y-95039782D01*
X114772534Y-95109643D01*
X114735697Y-95169013D01*
X114672610Y-95199042D01*
X114653018Y-95200600D01*
X112112097Y-95200600D01*
X112045058Y-95180915D01*
X112024416Y-95164281D01*
X111894990Y-95034855D01*
X111894988Y-95034852D01*
X111776117Y-94915981D01*
X111776116Y-94915980D01*
X111688016Y-94865116D01*
X111639185Y-94836923D01*
X111486457Y-94795999D01*
X111486456Y-94795999D01*
X111482235Y-94794868D01*
X111422575Y-94758503D01*
X111415375Y-94749819D01*
X111303130Y-94601181D01*
X111303127Y-94601178D01*
X111179123Y-94488134D01*
X111142845Y-94428427D01*
X111144605Y-94358579D01*
X111179125Y-94304864D01*
X111241974Y-94247569D01*
X111304776Y-94216954D01*
X111374163Y-94225151D01*
G37*
%TD.AperFunction*%
%TA.AperFunction,NonConductor*%
G36*
X152577424Y-91210359D02*
G01*
X152897939Y-91530874D01*
X152897949Y-91530885D01*
X152902279Y-91535215D01*
X152902280Y-91535216D01*
X153014084Y-91647020D01*
X153089114Y-91690338D01*
X153151015Y-91726077D01*
X153303743Y-91767001D01*
X153303746Y-91767001D01*
X153469453Y-91767001D01*
X153469469Y-91767000D01*
X159111609Y-91767000D01*
X159178648Y-91786685D01*
X159223992Y-91838597D01*
X159226665Y-91844330D01*
X159226666Y-91844331D01*
X159362201Y-92037895D01*
X159362206Y-92037902D01*
X159529297Y-92204993D01*
X159529303Y-92204998D01*
X159714858Y-92334925D01*
X159758483Y-92389502D01*
X159765677Y-92459000D01*
X159734154Y-92521355D01*
X159714858Y-92538075D01*
X159529297Y-92668005D01*
X159362205Y-92835097D01*
X159226665Y-93028669D01*
X159226664Y-93028671D01*
X159126798Y-93242835D01*
X159126794Y-93242844D01*
X159065638Y-93471086D01*
X159065636Y-93471096D01*
X159045041Y-93706499D01*
X159045041Y-93706500D01*
X159065636Y-93941903D01*
X159065638Y-93941913D01*
X159126794Y-94170155D01*
X159126796Y-94170159D01*
X159126797Y-94170163D01*
X159226665Y-94384330D01*
X159350009Y-94560484D01*
X159362201Y-94577895D01*
X159362206Y-94577902D01*
X159529297Y-94744993D01*
X159529303Y-94744998D01*
X159714858Y-94874925D01*
X159758483Y-94929502D01*
X159765677Y-94999000D01*
X159734154Y-95061355D01*
X159714858Y-95078075D01*
X159529297Y-95208005D01*
X159362206Y-95375096D01*
X159226665Y-95568670D01*
X159226661Y-95568677D01*
X159217992Y-95587269D01*
X159171819Y-95639708D01*
X159137705Y-95654637D01*
X159102900Y-95663963D01*
X159017210Y-95686924D01*
X159017209Y-95686925D01*
X158967096Y-95715859D01*
X158967095Y-95715860D01*
X158920283Y-95742887D01*
X158858283Y-95759500D01*
X157215200Y-95759500D01*
X157148161Y-95739815D01*
X157102406Y-95687011D01*
X157091200Y-95635500D01*
X157091199Y-94508629D01*
X157091198Y-94508623D01*
X157091197Y-94508616D01*
X157084791Y-94449017D01*
X157084665Y-94448680D01*
X157034497Y-94314171D01*
X157034493Y-94314164D01*
X156948247Y-94198955D01*
X156948244Y-94198952D01*
X156833035Y-94112706D01*
X156833028Y-94112702D01*
X156698182Y-94062408D01*
X156698183Y-94062408D01*
X156638583Y-94056001D01*
X156638581Y-94056000D01*
X156638573Y-94056000D01*
X156638564Y-94056000D01*
X155042829Y-94056000D01*
X155042823Y-94056001D01*
X154983216Y-94062408D01*
X154848371Y-94112702D01*
X154848364Y-94112706D01*
X154733155Y-94198952D01*
X154733152Y-94198955D01*
X154646906Y-94314164D01*
X154646902Y-94314171D01*
X154596608Y-94449017D01*
X154590201Y-94508616D01*
X154590201Y-94508623D01*
X154590200Y-94508635D01*
X154590200Y-94834102D01*
X154570515Y-94901141D01*
X154517711Y-94946896D01*
X154448553Y-94956840D01*
X154384997Y-94927815D01*
X154378519Y-94921783D01*
X154024290Y-94567555D01*
X154024288Y-94567552D01*
X153905417Y-94448681D01*
X153905412Y-94448677D01*
X153793958Y-94384330D01*
X153793956Y-94384329D01*
X153768486Y-94369623D01*
X153768487Y-94369623D01*
X153707393Y-94353253D01*
X153615757Y-94328699D01*
X153457643Y-94328699D01*
X153450047Y-94328699D01*
X153450031Y-94328700D01*
X149159197Y-94328700D01*
X149092158Y-94309015D01*
X149046403Y-94256211D01*
X149036459Y-94187053D01*
X149065484Y-94123497D01*
X149071516Y-94117019D01*
X151709616Y-91478918D01*
X151770939Y-91445433D01*
X151797297Y-91442599D01*
X152023971Y-91442599D01*
X152023972Y-91442599D01*
X152083583Y-91436191D01*
X152218431Y-91385896D01*
X152333646Y-91299646D01*
X152390477Y-91223728D01*
X152446409Y-91181858D01*
X152516101Y-91176874D01*
X152577424Y-91210359D01*
G37*
%TD.AperFunction*%
%TA.AperFunction,NonConductor*%
G36*
X153831802Y-96073983D02*
G01*
X153838280Y-96080015D01*
X154047931Y-96289667D01*
X154081416Y-96350990D01*
X154076432Y-96420682D01*
X154034560Y-96476615D01*
X153974134Y-96500568D01*
X153904349Y-96508430D01*
X153904342Y-96508432D01*
X153791553Y-96547899D01*
X153721775Y-96551460D01*
X153661147Y-96516731D01*
X153628920Y-96454738D01*
X153626599Y-96430857D01*
X153626599Y-96167696D01*
X153646284Y-96100657D01*
X153699088Y-96054902D01*
X153768246Y-96044958D01*
X153831802Y-96073983D01*
G37*
%TD.AperFunction*%
%TA.AperFunction,NonConductor*%
G36*
X151717839Y-95549385D02*
G01*
X151763594Y-95602189D01*
X151774800Y-95653700D01*
X151774801Y-96569300D01*
X151755117Y-96636339D01*
X151702313Y-96682094D01*
X151650801Y-96693300D01*
X151450600Y-96693300D01*
X151383561Y-96673615D01*
X151337806Y-96620811D01*
X151326600Y-96569300D01*
X151326599Y-95653700D01*
X151346283Y-95586661D01*
X151399087Y-95540906D01*
X151450599Y-95529700D01*
X151650800Y-95529700D01*
X151717839Y-95549385D01*
G37*
%TD.AperFunction*%
%TA.AperFunction,NonConductor*%
G36*
X149417839Y-95549385D02*
G01*
X149463594Y-95602189D01*
X149474800Y-95653700D01*
X149474801Y-96569300D01*
X149455117Y-96636339D01*
X149402313Y-96682094D01*
X149350801Y-96693300D01*
X149150600Y-96693300D01*
X149083561Y-96673615D01*
X149037806Y-96620811D01*
X149026600Y-96569300D01*
X149026599Y-95653700D01*
X149046283Y-95586661D01*
X149099087Y-95540906D01*
X149150599Y-95529700D01*
X149350800Y-95529700D01*
X149417839Y-95549385D01*
G37*
%TD.AperFunction*%
%TA.AperFunction,NonConductor*%
G36*
X147270212Y-94715185D02*
G01*
X147315967Y-94767989D01*
X147325911Y-94837147D01*
X147302440Y-94893811D01*
X147231503Y-94988569D01*
X147231502Y-94988571D01*
X147181208Y-95123417D01*
X147175962Y-95172219D01*
X147174800Y-95183027D01*
X147174800Y-95931715D01*
X147174801Y-96569300D01*
X147155116Y-96636339D01*
X147102313Y-96682094D01*
X147050801Y-96693300D01*
X141160457Y-96693300D01*
X141002342Y-96693300D01*
X140849615Y-96734223D01*
X140849614Y-96734223D01*
X140849612Y-96734224D01*
X140849609Y-96734225D01*
X140814466Y-96754516D01*
X140814464Y-96754517D01*
X140712690Y-96813275D01*
X140712682Y-96813281D01*
X139022881Y-98503083D01*
X138961558Y-98536568D01*
X138891866Y-98531584D01*
X138835933Y-98489712D01*
X138811516Y-98424248D01*
X138811200Y-98415402D01*
X138811200Y-96019396D01*
X138830885Y-95952357D01*
X138847515Y-95931719D01*
X139251835Y-95527398D01*
X139313156Y-95493915D01*
X139325611Y-95491863D01*
X139412555Y-95482068D01*
X139582822Y-95422489D01*
X139735562Y-95326516D01*
X139863116Y-95198962D01*
X139959089Y-95046222D01*
X140018668Y-94875955D01*
X140018784Y-94874925D01*
X140026594Y-94805616D01*
X140053661Y-94741202D01*
X140111256Y-94701647D01*
X140149814Y-94695500D01*
X147203173Y-94695500D01*
X147270212Y-94715185D01*
G37*
%TD.AperFunction*%
%TA.AperFunction,NonConductor*%
G36*
X137751441Y-95116685D02*
G01*
X137797196Y-95169489D01*
X137807140Y-95238647D01*
X137778115Y-95302203D01*
X137772083Y-95308681D01*
X137730181Y-95350582D01*
X137730177Y-95350587D01*
X137703672Y-95396498D01*
X137703671Y-95396500D01*
X137651123Y-95487515D01*
X137610199Y-95640243D01*
X137610199Y-95640245D01*
X137610199Y-95808346D01*
X137610200Y-95808359D01*
X137610200Y-98520591D01*
X137590515Y-98587630D01*
X137546431Y-98626141D01*
X137547513Y-98627895D01*
X137541367Y-98631685D01*
X137541366Y-98631686D01*
X137443119Y-98692284D01*
X137392042Y-98723789D01*
X137267988Y-98847843D01*
X137267985Y-98847847D01*
X137185361Y-98981802D01*
X137133413Y-99028527D01*
X137064451Y-99039748D01*
X137000369Y-99011905D01*
X136974285Y-98981802D01*
X136900912Y-98862844D01*
X136776856Y-98738788D01*
X136627534Y-98646686D01*
X136460997Y-98591501D01*
X136460995Y-98591500D01*
X136358210Y-98581000D01*
X135583198Y-98581000D01*
X135583180Y-98581001D01*
X135480403Y-98591500D01*
X135480400Y-98591501D01*
X135313868Y-98646685D01*
X135313863Y-98646687D01*
X135164542Y-98738789D01*
X135040485Y-98862846D01*
X135038737Y-98865682D01*
X135037029Y-98867217D01*
X135036007Y-98868511D01*
X135035785Y-98868336D01*
X134986789Y-98912405D01*
X134917826Y-98923626D01*
X134853744Y-98895782D01*
X134827663Y-98865682D01*
X134825914Y-98862846D01*
X134701857Y-98738789D01*
X134701856Y-98738788D01*
X134552534Y-98646686D01*
X134385997Y-98591501D01*
X134385995Y-98591500D01*
X134283216Y-98581000D01*
X134283209Y-98581000D01*
X134275200Y-98581000D01*
X134208161Y-98561315D01*
X134162406Y-98508511D01*
X134151200Y-98457000D01*
X134151200Y-95795999D01*
X134170885Y-95728960D01*
X134223689Y-95683205D01*
X134270311Y-95673062D01*
X134270276Y-95672400D01*
X134270271Y-95672354D01*
X134270273Y-95672353D01*
X134270264Y-95672176D01*
X134273557Y-95671999D01*
X134273572Y-95671999D01*
X134333183Y-95665591D01*
X134468031Y-95615296D01*
X134583246Y-95529046D01*
X134669496Y-95413831D01*
X134719791Y-95278983D01*
X134726200Y-95219373D01*
X134726200Y-95219345D01*
X134726378Y-95216048D01*
X134727634Y-95216115D01*
X134745885Y-95153961D01*
X134798689Y-95108206D01*
X134850200Y-95097000D01*
X137684402Y-95097000D01*
X137751441Y-95116685D01*
G37*
%TD.AperFunction*%
%TA.AperFunction,NonConductor*%
G36*
X142509528Y-97913985D02*
G01*
X142555283Y-97966789D01*
X142565227Y-98035947D01*
X142559531Y-98059254D01*
X142509532Y-98202142D01*
X142509530Y-98202150D01*
X142489335Y-98381396D01*
X142489335Y-98381404D01*
X142496288Y-98443117D01*
X142484233Y-98511939D01*
X142436884Y-98563318D01*
X142373068Y-98581000D01*
X142088199Y-98581000D01*
X142088180Y-98581001D01*
X141985403Y-98591500D01*
X141985400Y-98591501D01*
X141818868Y-98646685D01*
X141818863Y-98646687D01*
X141669542Y-98738789D01*
X141545489Y-98862842D01*
X141459615Y-99002067D01*
X141407667Y-99048791D01*
X141338704Y-99060014D01*
X141274622Y-99032170D01*
X141248537Y-99002067D01*
X141196999Y-98918511D01*
X141153412Y-98847844D01*
X141029356Y-98723788D01*
X140904353Y-98646686D01*
X140880036Y-98631687D01*
X140880035Y-98631686D01*
X140880034Y-98631686D01*
X140868594Y-98627895D01*
X140855078Y-98623416D01*
X140797634Y-98583643D01*
X140770812Y-98519127D01*
X140783128Y-98450351D01*
X140806399Y-98418034D01*
X141293816Y-97930619D01*
X141355139Y-97897134D01*
X141381497Y-97894300D01*
X142442489Y-97894300D01*
X142509528Y-97913985D01*
G37*
%TD.AperFunction*%
%TA.AperFunction,NonConductor*%
G36*
X147124844Y-99001585D02*
G01*
X147170599Y-99054389D01*
X147180543Y-99123547D01*
X147170187Y-99158306D01*
X147168387Y-99162163D01*
X147168386Y-99162166D01*
X147113201Y-99328703D01*
X147113201Y-99328704D01*
X147113200Y-99328704D01*
X147102700Y-99431483D01*
X147102700Y-100481501D01*
X147102701Y-100481519D01*
X147113200Y-100584296D01*
X147113201Y-100584299D01*
X147168385Y-100750831D01*
X147168387Y-100750836D01*
X147195312Y-100794489D01*
X147260488Y-100900156D01*
X147384544Y-101024212D01*
X147533866Y-101116314D01*
X147700403Y-101171499D01*
X147803191Y-101182000D01*
X148335402Y-101181999D01*
X148402440Y-101201683D01*
X148448195Y-101254487D01*
X148458139Y-101323646D01*
X148429114Y-101387202D01*
X148423082Y-101393680D01*
X147484038Y-102332724D01*
X147422715Y-102366209D01*
X147353023Y-102361225D01*
X147297090Y-102319353D01*
X147284726Y-102295667D01*
X147283564Y-102296209D01*
X147280515Y-102289670D01*
X147280514Y-102289666D01*
X147188412Y-102140344D01*
X147064356Y-102016288D01*
X146915034Y-101924186D01*
X146854001Y-101903961D01*
X146806195Y-101888120D01*
X146748750Y-101848347D01*
X146721928Y-101783831D01*
X146721200Y-101770414D01*
X146721200Y-101297445D01*
X146721199Y-101297441D01*
X146689931Y-101180741D01*
X146689931Y-101180740D01*
X146680278Y-101144718D01*
X146680277Y-101144715D01*
X146666162Y-101120267D01*
X146644068Y-101081999D01*
X146601220Y-101007784D01*
X146489416Y-100895980D01*
X146489415Y-100895979D01*
X146485085Y-100891649D01*
X146485074Y-100891639D01*
X145675018Y-100081583D01*
X145641533Y-100020260D01*
X145638699Y-99993902D01*
X145638699Y-99281498D01*
X145638698Y-99281481D01*
X145628199Y-99178703D01*
X145616998Y-99144903D01*
X145614597Y-99075077D01*
X145650328Y-99015034D01*
X145712848Y-98983841D01*
X145734705Y-98981900D01*
X147057805Y-98981900D01*
X147124844Y-99001585D01*
G37*
%TD.AperFunction*%
%TA.AperFunction,NonConductor*%
G36*
X143592651Y-100717213D02*
G01*
X143618737Y-100747317D01*
X143620488Y-100750156D01*
X143744544Y-100874212D01*
X143893866Y-100966314D01*
X144060403Y-101021499D01*
X144163191Y-101032000D01*
X144875602Y-101031999D01*
X144942641Y-101051683D01*
X144963283Y-101068318D01*
X145483881Y-101588916D01*
X145517366Y-101650239D01*
X145520200Y-101676597D01*
X145520200Y-101770414D01*
X145500515Y-101837453D01*
X145447711Y-101883208D01*
X145435205Y-101888120D01*
X145326366Y-101924186D01*
X145326363Y-101924187D01*
X145177042Y-102016289D01*
X145052989Y-102140342D01*
X144960887Y-102289663D01*
X144960885Y-102289668D01*
X144946618Y-102332724D01*
X144905701Y-102456203D01*
X144905701Y-102456204D01*
X144905700Y-102456204D01*
X144895200Y-102558983D01*
X144895200Y-102558991D01*
X144895200Y-102913261D01*
X144895201Y-103259500D01*
X144875517Y-103326539D01*
X144822713Y-103372294D01*
X144771201Y-103383500D01*
X143311342Y-103383500D01*
X143158614Y-103424423D01*
X143139333Y-103435556D01*
X143139330Y-103435557D01*
X143021690Y-103503475D01*
X143021682Y-103503481D01*
X142976183Y-103548981D01*
X142914860Y-103582466D01*
X142888502Y-103585300D01*
X142230319Y-103585300D01*
X142163280Y-103565615D01*
X142117525Y-103512811D01*
X142106916Y-103449146D01*
X142107457Y-103443653D01*
X142116041Y-103356500D01*
X142107792Y-103272752D01*
X142120810Y-103204109D01*
X142143511Y-103172923D01*
X142956220Y-102360216D01*
X143035277Y-102223284D01*
X143076201Y-102070557D01*
X143076201Y-101912442D01*
X143076201Y-101904847D01*
X143076200Y-101904829D01*
X143076200Y-101070267D01*
X143095885Y-101003228D01*
X143135101Y-100964730D01*
X143281856Y-100874212D01*
X143405912Y-100750156D01*
X143407661Y-100747319D01*
X143409369Y-100745783D01*
X143410393Y-100744489D01*
X143410614Y-100744663D01*
X143459606Y-100700596D01*
X143528568Y-100689372D01*
X143592651Y-100717213D01*
G37*
%TD.AperFunction*%
%TA.AperFunction,NonConductor*%
G36*
X141412118Y-100535539D02*
G01*
X141450369Y-100591731D01*
X141453383Y-100600826D01*
X141453387Y-100600836D01*
X141456468Y-100605831D01*
X141545488Y-100750156D01*
X141669544Y-100874212D01*
X141816297Y-100964729D01*
X141863021Y-101016675D01*
X141875200Y-101070267D01*
X141875200Y-101691402D01*
X141855515Y-101758441D01*
X141838881Y-101779083D01*
X141294279Y-102323684D01*
X141232956Y-102357169D01*
X141194446Y-102359406D01*
X141110701Y-102351159D01*
X141110700Y-102351159D01*
X140914570Y-102370475D01*
X140725966Y-102427688D01*
X140552167Y-102520586D01*
X140552160Y-102520590D01*
X140399816Y-102645616D01*
X140274790Y-102797960D01*
X140274786Y-102797967D01*
X140181888Y-102971766D01*
X140124675Y-103160370D01*
X140108310Y-103326539D01*
X140105359Y-103356500D01*
X140113145Y-103435557D01*
X140114484Y-103449146D01*
X140101465Y-103517792D01*
X140053400Y-103568502D01*
X139991081Y-103585300D01*
X127308797Y-103585300D01*
X127241758Y-103565615D01*
X127196003Y-103512811D01*
X127186059Y-103443653D01*
X127215084Y-103380097D01*
X127221116Y-103373619D01*
X127622969Y-102971766D01*
X128844206Y-101750527D01*
X128844211Y-101750524D01*
X128854414Y-101740320D01*
X128854416Y-101740320D01*
X128966220Y-101628516D01*
X129034079Y-101510980D01*
X129045277Y-101491585D01*
X129086201Y-101338857D01*
X129086201Y-101180743D01*
X129086201Y-101180741D01*
X129086201Y-101173148D01*
X129086200Y-101173130D01*
X129086200Y-101120267D01*
X129105885Y-101053228D01*
X129145101Y-101014730D01*
X129291856Y-100924212D01*
X129415912Y-100800156D01*
X129417661Y-100797319D01*
X129419369Y-100795783D01*
X129420393Y-100794489D01*
X129420614Y-100794663D01*
X129469606Y-100750596D01*
X129538568Y-100739372D01*
X129602651Y-100767213D01*
X129628737Y-100797317D01*
X129630488Y-100800156D01*
X129754544Y-100924212D01*
X129903866Y-101016314D01*
X130070403Y-101071499D01*
X130173191Y-101082000D01*
X130885602Y-101081999D01*
X130952641Y-101101683D01*
X130973283Y-101118318D01*
X131112339Y-101257374D01*
X131112349Y-101257385D01*
X131116679Y-101261715D01*
X131116680Y-101261716D01*
X131228484Y-101373520D01*
X131228486Y-101373521D01*
X131228490Y-101373524D01*
X131365409Y-101452573D01*
X131365416Y-101452577D01*
X131477219Y-101482534D01*
X131518142Y-101493500D01*
X131518143Y-101493500D01*
X138593131Y-101493500D01*
X138593147Y-101493501D01*
X138600743Y-101493501D01*
X138758854Y-101493501D01*
X138758857Y-101493501D01*
X138911585Y-101452577D01*
X138961704Y-101423639D01*
X139048516Y-101373520D01*
X139160320Y-101261716D01*
X139160320Y-101261714D01*
X139170528Y-101251507D01*
X139170530Y-101251504D01*
X139471777Y-100950256D01*
X139533098Y-100916773D01*
X139598459Y-100920232D01*
X139707903Y-100956499D01*
X139810691Y-100967000D01*
X140610708Y-100966999D01*
X140610716Y-100966998D01*
X140610719Y-100966998D01*
X140667002Y-100961248D01*
X140713497Y-100956499D01*
X140880034Y-100901314D01*
X141029356Y-100809212D01*
X141153412Y-100685156D01*
X141227128Y-100565641D01*
X141279073Y-100518919D01*
X141348036Y-100507696D01*
X141412118Y-100535539D01*
G37*
%TD.AperFunction*%
%TA.AperFunction,NonConductor*%
G36*
X109307410Y-105464822D02*
G01*
X109352029Y-105518589D01*
X109360496Y-105587944D01*
X109346994Y-105627110D01*
X109264892Y-105777468D01*
X109264889Y-105777474D01*
X109228390Y-105875334D01*
X109186518Y-105931267D01*
X109121054Y-105955684D01*
X109112208Y-105956000D01*
X107749192Y-105956000D01*
X107682153Y-105936315D01*
X107636398Y-105883511D01*
X107633010Y-105875334D01*
X107621472Y-105844400D01*
X107596513Y-105777481D01*
X107585082Y-105756547D01*
X107514405Y-105627111D01*
X107499553Y-105558838D01*
X107523970Y-105493374D01*
X107579903Y-105451502D01*
X107649595Y-105446518D01*
X107688032Y-105461960D01*
X107692736Y-105464843D01*
X107928381Y-105562450D01*
X107928383Y-105562450D01*
X107928389Y-105562453D01*
X108176414Y-105621998D01*
X108430700Y-105642011D01*
X108684986Y-105621998D01*
X108933011Y-105562453D01*
X109168667Y-105464841D01*
X109173364Y-105461962D01*
X109240806Y-105443712D01*
X109307410Y-105464822D01*
G37*
%TD.AperFunction*%
M02*
